%TF.GenerationSoftware,KiCad,Pcbnew,5.1.10-88a1d61d58~89~ubuntu20.04.1*%
%TF.CreationDate,2022-01-03T20:00:55+01:00*%
%TF.ProjectId,PowerBankAlwaysActive,506f7765-7242-4616-9e6b-416c77617973,rev?*%
%TF.SameCoordinates,Original*%
%TF.FileFunction,Copper,L3,Inr*%
%TF.FilePolarity,Positive*%
%FSLAX46Y46*%
G04 Gerber Fmt 4.6, Leading zero omitted, Abs format (unit mm)*
G04 Created by KiCad (PCBNEW 5.1.10-88a1d61d58~89~ubuntu20.04.1) date 2022-01-03 20:00:55*
%MOMM*%
%LPD*%
G01*
G04 APERTURE LIST*
%TA.AperFunction,ComponentPad*%
%ADD10R,1.700000X1.700000*%
%TD*%
%TA.AperFunction,ComponentPad*%
%ADD11O,1.700000X1.700000*%
%TD*%
%TA.AperFunction,ComponentPad*%
%ADD12C,2.600000*%
%TD*%
%TA.AperFunction,ViaPad*%
%ADD13C,0.800000*%
%TD*%
%TA.AperFunction,Conductor*%
%ADD14C,0.100000*%
%TD*%
G04 APERTURE END LIST*
D10*
%TO.N,+5V*%
%TO.C,J1*%
X25400000Y-36576000D03*
D11*
%TO.N,GND*%
X25400000Y-39116000D03*
%TD*%
%TO.N,GND*%
%TO.C,J2*%
X55626000Y-39116000D03*
D10*
%TO.N,+5V*%
X55626000Y-36576000D03*
%TD*%
D12*
%TO.N,N/C*%
%TO.C,H1*%
X30734000Y-41402000D03*
%TD*%
%TO.N,N/C*%
%TO.C,H2*%
X49784000Y-41402000D03*
%TD*%
%TO.N,N/C*%
%TO.C,H3*%
X38100000Y-25400000D03*
%TD*%
D10*
%TO.N,GND*%
%TO.C,gnd*%
X44936000Y-42196000D03*
%TD*%
%TO.N,+5V*%
%TO.C,+5*%
X40872000Y-42196000D03*
%TD*%
%TO.N,/trig*%
%TO.C,trig*%
X33760000Y-29496000D03*
%TD*%
%TO.N,/output*%
%TO.C,out*%
X37824000Y-29496000D03*
%TD*%
D13*
%TO.N,GND*%
X47476000Y-36608000D03*
X39094000Y-39402000D03*
X31982000Y-34912998D03*
X48746000Y-27210000D03*
%TO.N,+5V*%
X34014000Y-25940000D03*
X34014000Y-41688000D03*
X41126000Y-24670000D03*
%TD*%
D14*
%TO.N,GND*%
X57827000Y-24503726D02*
X57827001Y-38182147D01*
X57678448Y-37872022D01*
X57396323Y-37495512D01*
X57279870Y-37391006D01*
X57279870Y-35726000D01*
X57264424Y-35569173D01*
X57218679Y-35418372D01*
X57144393Y-35279394D01*
X57044422Y-35157578D01*
X56922606Y-35057607D01*
X56783628Y-34983321D01*
X56632827Y-34937576D01*
X56476000Y-34922130D01*
X54776000Y-34922130D01*
X54619173Y-34937576D01*
X54468372Y-34983321D01*
X54329394Y-35057607D01*
X54207578Y-35157578D01*
X54107607Y-35279394D01*
X54033321Y-35418372D01*
X53987576Y-35569173D01*
X53972130Y-35726000D01*
X53972130Y-37391006D01*
X53855677Y-37495512D01*
X53573552Y-37872022D01*
X53370301Y-38296337D01*
X53295080Y-38544326D01*
X53623463Y-38916000D01*
X55426000Y-38916000D01*
X55426000Y-38896000D01*
X55826000Y-38896000D01*
X55826000Y-38916000D01*
X55846000Y-38916000D01*
X55846000Y-39316000D01*
X55826000Y-39316000D01*
X55826000Y-41120157D01*
X56197675Y-41446925D01*
X56641431Y-41290609D01*
X57046165Y-41050724D01*
X57396323Y-40736488D01*
X57678448Y-40359978D01*
X57827001Y-40049853D01*
X57827001Y-43124273D01*
X56278275Y-44673000D01*
X24703726Y-44673000D01*
X22647000Y-42616275D01*
X22647000Y-39687674D01*
X23069080Y-39687674D01*
X23144301Y-39935663D01*
X23347552Y-40359978D01*
X23629677Y-40736488D01*
X23979835Y-41050724D01*
X24384569Y-41290609D01*
X24828325Y-41446925D01*
X25200000Y-41120157D01*
X25200000Y-39316000D01*
X25600000Y-39316000D01*
X25600000Y-41120157D01*
X25971675Y-41446925D01*
X26415431Y-41290609D01*
X26576459Y-41195168D01*
X28634000Y-41195168D01*
X28634000Y-41608832D01*
X28714702Y-42014547D01*
X28873004Y-42396723D01*
X29102823Y-42740672D01*
X29395328Y-43033177D01*
X29739277Y-43262996D01*
X30121453Y-43421298D01*
X30527168Y-43502000D01*
X30940832Y-43502000D01*
X31346547Y-43421298D01*
X31728723Y-43262996D01*
X32072672Y-43033177D01*
X32365177Y-42740672D01*
X32594996Y-42396723D01*
X32753298Y-42014547D01*
X32814000Y-41709378D01*
X32814000Y-41806190D01*
X32860116Y-42038027D01*
X32950574Y-42256413D01*
X33081899Y-42452955D01*
X33249045Y-42620101D01*
X33445587Y-42751426D01*
X33663973Y-42841884D01*
X33895810Y-42888000D01*
X34132190Y-42888000D01*
X34364027Y-42841884D01*
X34582413Y-42751426D01*
X34778955Y-42620101D01*
X34946101Y-42452955D01*
X35077426Y-42256413D01*
X35167884Y-42038027D01*
X35214000Y-41806190D01*
X35214000Y-41569810D01*
X35169481Y-41346000D01*
X39218130Y-41346000D01*
X39218130Y-43046000D01*
X39233576Y-43202827D01*
X39279321Y-43353628D01*
X39353607Y-43492606D01*
X39453578Y-43614422D01*
X39575394Y-43714393D01*
X39714372Y-43788679D01*
X39865173Y-43834424D01*
X40022000Y-43849870D01*
X41722000Y-43849870D01*
X41878827Y-43834424D01*
X42029628Y-43788679D01*
X42168606Y-43714393D01*
X42290422Y-43614422D01*
X42390393Y-43492606D01*
X42464679Y-43353628D01*
X42510424Y-43202827D01*
X42525870Y-43046000D01*
X42528500Y-43046000D01*
X42558427Y-43349853D01*
X42647058Y-43642029D01*
X42790986Y-43911301D01*
X42984681Y-44147319D01*
X43220699Y-44341014D01*
X43489971Y-44484942D01*
X43782147Y-44573573D01*
X44086000Y-44603500D01*
X44348500Y-44596000D01*
X44736000Y-44208500D01*
X44736000Y-42396000D01*
X45136000Y-42396000D01*
X45136000Y-44208500D01*
X45523500Y-44596000D01*
X45786000Y-44603500D01*
X46089853Y-44573573D01*
X46382029Y-44484942D01*
X46651301Y-44341014D01*
X46887319Y-44147319D01*
X47081014Y-43911301D01*
X47224942Y-43642029D01*
X47313573Y-43349853D01*
X47343500Y-43046000D01*
X47336000Y-42783500D01*
X46948500Y-42396000D01*
X45136000Y-42396000D01*
X44736000Y-42396000D01*
X42923500Y-42396000D01*
X42536000Y-42783500D01*
X42528500Y-43046000D01*
X42525870Y-43046000D01*
X42525870Y-41346000D01*
X42528500Y-41346000D01*
X42536000Y-41608500D01*
X42923500Y-41996000D01*
X44736000Y-41996000D01*
X44736000Y-40183500D01*
X45136000Y-40183500D01*
X45136000Y-41996000D01*
X46948500Y-41996000D01*
X47336000Y-41608500D01*
X47343500Y-41346000D01*
X47328645Y-41195168D01*
X47684000Y-41195168D01*
X47684000Y-41608832D01*
X47764702Y-42014547D01*
X47923004Y-42396723D01*
X48152823Y-42740672D01*
X48445328Y-43033177D01*
X48789277Y-43262996D01*
X49171453Y-43421298D01*
X49577168Y-43502000D01*
X49990832Y-43502000D01*
X50396547Y-43421298D01*
X50778723Y-43262996D01*
X51122672Y-43033177D01*
X51415177Y-42740672D01*
X51644996Y-42396723D01*
X51803298Y-42014547D01*
X51884000Y-41608832D01*
X51884000Y-41195168D01*
X51803298Y-40789453D01*
X51644996Y-40407277D01*
X51415177Y-40063328D01*
X51122672Y-39770823D01*
X50998231Y-39687674D01*
X53295080Y-39687674D01*
X53370301Y-39935663D01*
X53573552Y-40359978D01*
X53855677Y-40736488D01*
X54205835Y-41050724D01*
X54610569Y-41290609D01*
X55054325Y-41446925D01*
X55426000Y-41120157D01*
X55426000Y-39316000D01*
X53623463Y-39316000D01*
X53295080Y-39687674D01*
X50998231Y-39687674D01*
X50778723Y-39541004D01*
X50396547Y-39382702D01*
X49990832Y-39302000D01*
X49577168Y-39302000D01*
X49171453Y-39382702D01*
X48789277Y-39541004D01*
X48445328Y-39770823D01*
X48152823Y-40063328D01*
X47923004Y-40407277D01*
X47764702Y-40789453D01*
X47684000Y-41195168D01*
X47328645Y-41195168D01*
X47313573Y-41042147D01*
X47224942Y-40749971D01*
X47081014Y-40480699D01*
X46887319Y-40244681D01*
X46651301Y-40050986D01*
X46382029Y-39907058D01*
X46089853Y-39818427D01*
X45786000Y-39788500D01*
X45523500Y-39796000D01*
X45136000Y-40183500D01*
X44736000Y-40183500D01*
X44348500Y-39796000D01*
X44086000Y-39788500D01*
X43782147Y-39818427D01*
X43489971Y-39907058D01*
X43220699Y-40050986D01*
X42984681Y-40244681D01*
X42790986Y-40480699D01*
X42647058Y-40749971D01*
X42558427Y-41042147D01*
X42528500Y-41346000D01*
X42525870Y-41346000D01*
X42510424Y-41189173D01*
X42464679Y-41038372D01*
X42390393Y-40899394D01*
X42290422Y-40777578D01*
X42168606Y-40677607D01*
X42029628Y-40603321D01*
X41878827Y-40557576D01*
X41722000Y-40542130D01*
X40022000Y-40542130D01*
X39865173Y-40557576D01*
X39714372Y-40603321D01*
X39575394Y-40677607D01*
X39453578Y-40777578D01*
X39353607Y-40899394D01*
X39279321Y-41038372D01*
X39233576Y-41189173D01*
X39218130Y-41346000D01*
X35169481Y-41346000D01*
X35167884Y-41337973D01*
X35077426Y-41119587D01*
X34946101Y-40923045D01*
X34778955Y-40755899D01*
X34582413Y-40624574D01*
X34364027Y-40534116D01*
X34132190Y-40488000D01*
X33895810Y-40488000D01*
X33663973Y-40534116D01*
X33445587Y-40624574D01*
X33249045Y-40755899D01*
X33081899Y-40923045D01*
X32950574Y-41119587D01*
X32860116Y-41337973D01*
X32834000Y-41469265D01*
X32834000Y-41195168D01*
X32753298Y-40789453D01*
X32594996Y-40407277D01*
X32365177Y-40063328D01*
X32072672Y-39770823D01*
X31728723Y-39541004D01*
X31346547Y-39382702D01*
X30940832Y-39302000D01*
X30527168Y-39302000D01*
X30121453Y-39382702D01*
X29739277Y-39541004D01*
X29395328Y-39770823D01*
X29102823Y-40063328D01*
X28873004Y-40407277D01*
X28714702Y-40789453D01*
X28634000Y-41195168D01*
X26576459Y-41195168D01*
X26820165Y-41050724D01*
X27170323Y-40736488D01*
X27452448Y-40359978D01*
X27655699Y-39935663D01*
X27730920Y-39687674D01*
X27402537Y-39316000D01*
X25600000Y-39316000D01*
X25200000Y-39316000D01*
X23397463Y-39316000D01*
X23069080Y-39687674D01*
X22647000Y-39687674D01*
X22647000Y-38544326D01*
X23069080Y-38544326D01*
X23397463Y-38916000D01*
X25200000Y-38916000D01*
X25200000Y-38896000D01*
X25600000Y-38896000D01*
X25600000Y-38916000D01*
X27402537Y-38916000D01*
X27730920Y-38544326D01*
X27655699Y-38296337D01*
X27452448Y-37872022D01*
X27170323Y-37495512D01*
X27053870Y-37391006D01*
X27053870Y-35726000D01*
X27038424Y-35569173D01*
X26992679Y-35418372D01*
X26918393Y-35279394D01*
X26818422Y-35157578D01*
X26696606Y-35057607D01*
X26557628Y-34983321D01*
X26406827Y-34937576D01*
X26250000Y-34922130D01*
X24550000Y-34922130D01*
X24393173Y-34937576D01*
X24242372Y-34983321D01*
X24103394Y-35057607D01*
X23981578Y-35157578D01*
X23881607Y-35279394D01*
X23807321Y-35418372D01*
X23761576Y-35569173D01*
X23746130Y-35726000D01*
X23746130Y-37391006D01*
X23629677Y-37495512D01*
X23347552Y-37872022D01*
X23144301Y-38296337D01*
X23069080Y-38544326D01*
X22647000Y-38544326D01*
X22647000Y-28646000D01*
X32106130Y-28646000D01*
X32106130Y-30346000D01*
X32121576Y-30502827D01*
X32167321Y-30653628D01*
X32241607Y-30792606D01*
X32341578Y-30914422D01*
X32463394Y-31014393D01*
X32602372Y-31088679D01*
X32753173Y-31134424D01*
X32910000Y-31149870D01*
X34610000Y-31149870D01*
X34766827Y-31134424D01*
X34917628Y-31088679D01*
X35056606Y-31014393D01*
X35178422Y-30914422D01*
X35278393Y-30792606D01*
X35352679Y-30653628D01*
X35398424Y-30502827D01*
X35413870Y-30346000D01*
X35413870Y-28646000D01*
X36170130Y-28646000D01*
X36170130Y-30346000D01*
X36185576Y-30502827D01*
X36231321Y-30653628D01*
X36305607Y-30792606D01*
X36405578Y-30914422D01*
X36527394Y-31014393D01*
X36666372Y-31088679D01*
X36817173Y-31134424D01*
X36974000Y-31149870D01*
X38674000Y-31149870D01*
X38830827Y-31134424D01*
X38981628Y-31088679D01*
X39120606Y-31014393D01*
X39242422Y-30914422D01*
X39342393Y-30792606D01*
X39416679Y-30653628D01*
X39462424Y-30502827D01*
X39477870Y-30346000D01*
X39477870Y-28646000D01*
X39462424Y-28489173D01*
X39416679Y-28338372D01*
X39342393Y-28199394D01*
X39242422Y-28077578D01*
X39120606Y-27977607D01*
X38981628Y-27903321D01*
X38830827Y-27857576D01*
X38674000Y-27842130D01*
X36974000Y-27842130D01*
X36817173Y-27857576D01*
X36666372Y-27903321D01*
X36527394Y-27977607D01*
X36405578Y-28077578D01*
X36305607Y-28199394D01*
X36231321Y-28338372D01*
X36185576Y-28489173D01*
X36170130Y-28646000D01*
X35413870Y-28646000D01*
X35398424Y-28489173D01*
X35352679Y-28338372D01*
X35278393Y-28199394D01*
X35178422Y-28077578D01*
X35056606Y-27977607D01*
X34917628Y-27903321D01*
X34766827Y-27857576D01*
X34610000Y-27842130D01*
X32910000Y-27842130D01*
X32753173Y-27857576D01*
X32602372Y-27903321D01*
X32463394Y-27977607D01*
X32341578Y-28077578D01*
X32241607Y-28199394D01*
X32167321Y-28338372D01*
X32121576Y-28489173D01*
X32106130Y-28646000D01*
X22647000Y-28646000D01*
X22647000Y-25821810D01*
X32814000Y-25821810D01*
X32814000Y-26058190D01*
X32860116Y-26290027D01*
X32950574Y-26508413D01*
X33081899Y-26704955D01*
X33249045Y-26872101D01*
X33445587Y-27003426D01*
X33663973Y-27093884D01*
X33895810Y-27140000D01*
X34132190Y-27140000D01*
X34364027Y-27093884D01*
X34582413Y-27003426D01*
X34778955Y-26872101D01*
X34946101Y-26704955D01*
X35077426Y-26508413D01*
X35167884Y-26290027D01*
X35214000Y-26058190D01*
X35214000Y-25821810D01*
X35167884Y-25589973D01*
X35077426Y-25371587D01*
X34958211Y-25193168D01*
X36000000Y-25193168D01*
X36000000Y-25606832D01*
X36080702Y-26012547D01*
X36239004Y-26394723D01*
X36468823Y-26738672D01*
X36761328Y-27031177D01*
X37105277Y-27260996D01*
X37487453Y-27419298D01*
X37893168Y-27500000D01*
X38306832Y-27500000D01*
X38712547Y-27419298D01*
X39094723Y-27260996D01*
X39438672Y-27031177D01*
X39731177Y-26738672D01*
X39960996Y-26394723D01*
X40119298Y-26012547D01*
X40200000Y-25606832D01*
X40200000Y-25441056D01*
X40361045Y-25602101D01*
X40557587Y-25733426D01*
X40775973Y-25823884D01*
X41007810Y-25870000D01*
X41244190Y-25870000D01*
X41476027Y-25823884D01*
X41694413Y-25733426D01*
X41890955Y-25602101D01*
X42058101Y-25434955D01*
X42189426Y-25238413D01*
X42279884Y-25020027D01*
X42326000Y-24788190D01*
X42326000Y-24551810D01*
X42279884Y-24319973D01*
X42189426Y-24101587D01*
X42058101Y-23905045D01*
X41890955Y-23737899D01*
X41694413Y-23606574D01*
X41476027Y-23516116D01*
X41244190Y-23470000D01*
X41007810Y-23470000D01*
X40775973Y-23516116D01*
X40557587Y-23606574D01*
X40361045Y-23737899D01*
X40193899Y-23905045D01*
X40062574Y-24101587D01*
X39972116Y-24319973D01*
X39956489Y-24398532D01*
X39731177Y-24061328D01*
X39438672Y-23768823D01*
X39094723Y-23539004D01*
X38712547Y-23380702D01*
X38306832Y-23300000D01*
X37893168Y-23300000D01*
X37487453Y-23380702D01*
X37105277Y-23539004D01*
X36761328Y-23768823D01*
X36468823Y-24061328D01*
X36239004Y-24405277D01*
X36080702Y-24787453D01*
X36000000Y-25193168D01*
X34958211Y-25193168D01*
X34946101Y-25175045D01*
X34778955Y-25007899D01*
X34582413Y-24876574D01*
X34364027Y-24786116D01*
X34132190Y-24740000D01*
X33895810Y-24740000D01*
X33663973Y-24786116D01*
X33445587Y-24876574D01*
X33249045Y-25007899D01*
X33081899Y-25175045D01*
X32950574Y-25371587D01*
X32860116Y-25589973D01*
X32814000Y-25821810D01*
X22647000Y-25821810D01*
X22647000Y-24757725D01*
X24449726Y-22955000D01*
X56278275Y-22955000D01*
X57827000Y-24503726D01*
%TA.AperFunction,Conductor*%
G36*
X57827000Y-24503726D02*
G01*
X57827001Y-38182147D01*
X57678448Y-37872022D01*
X57396323Y-37495512D01*
X57279870Y-37391006D01*
X57279870Y-35726000D01*
X57264424Y-35569173D01*
X57218679Y-35418372D01*
X57144393Y-35279394D01*
X57044422Y-35157578D01*
X56922606Y-35057607D01*
X56783628Y-34983321D01*
X56632827Y-34937576D01*
X56476000Y-34922130D01*
X54776000Y-34922130D01*
X54619173Y-34937576D01*
X54468372Y-34983321D01*
X54329394Y-35057607D01*
X54207578Y-35157578D01*
X54107607Y-35279394D01*
X54033321Y-35418372D01*
X53987576Y-35569173D01*
X53972130Y-35726000D01*
X53972130Y-37391006D01*
X53855677Y-37495512D01*
X53573552Y-37872022D01*
X53370301Y-38296337D01*
X53295080Y-38544326D01*
X53623463Y-38916000D01*
X55426000Y-38916000D01*
X55426000Y-38896000D01*
X55826000Y-38896000D01*
X55826000Y-38916000D01*
X55846000Y-38916000D01*
X55846000Y-39316000D01*
X55826000Y-39316000D01*
X55826000Y-41120157D01*
X56197675Y-41446925D01*
X56641431Y-41290609D01*
X57046165Y-41050724D01*
X57396323Y-40736488D01*
X57678448Y-40359978D01*
X57827001Y-40049853D01*
X57827001Y-43124273D01*
X56278275Y-44673000D01*
X24703726Y-44673000D01*
X22647000Y-42616275D01*
X22647000Y-39687674D01*
X23069080Y-39687674D01*
X23144301Y-39935663D01*
X23347552Y-40359978D01*
X23629677Y-40736488D01*
X23979835Y-41050724D01*
X24384569Y-41290609D01*
X24828325Y-41446925D01*
X25200000Y-41120157D01*
X25200000Y-39316000D01*
X25600000Y-39316000D01*
X25600000Y-41120157D01*
X25971675Y-41446925D01*
X26415431Y-41290609D01*
X26576459Y-41195168D01*
X28634000Y-41195168D01*
X28634000Y-41608832D01*
X28714702Y-42014547D01*
X28873004Y-42396723D01*
X29102823Y-42740672D01*
X29395328Y-43033177D01*
X29739277Y-43262996D01*
X30121453Y-43421298D01*
X30527168Y-43502000D01*
X30940832Y-43502000D01*
X31346547Y-43421298D01*
X31728723Y-43262996D01*
X32072672Y-43033177D01*
X32365177Y-42740672D01*
X32594996Y-42396723D01*
X32753298Y-42014547D01*
X32814000Y-41709378D01*
X32814000Y-41806190D01*
X32860116Y-42038027D01*
X32950574Y-42256413D01*
X33081899Y-42452955D01*
X33249045Y-42620101D01*
X33445587Y-42751426D01*
X33663973Y-42841884D01*
X33895810Y-42888000D01*
X34132190Y-42888000D01*
X34364027Y-42841884D01*
X34582413Y-42751426D01*
X34778955Y-42620101D01*
X34946101Y-42452955D01*
X35077426Y-42256413D01*
X35167884Y-42038027D01*
X35214000Y-41806190D01*
X35214000Y-41569810D01*
X35169481Y-41346000D01*
X39218130Y-41346000D01*
X39218130Y-43046000D01*
X39233576Y-43202827D01*
X39279321Y-43353628D01*
X39353607Y-43492606D01*
X39453578Y-43614422D01*
X39575394Y-43714393D01*
X39714372Y-43788679D01*
X39865173Y-43834424D01*
X40022000Y-43849870D01*
X41722000Y-43849870D01*
X41878827Y-43834424D01*
X42029628Y-43788679D01*
X42168606Y-43714393D01*
X42290422Y-43614422D01*
X42390393Y-43492606D01*
X42464679Y-43353628D01*
X42510424Y-43202827D01*
X42525870Y-43046000D01*
X42528500Y-43046000D01*
X42558427Y-43349853D01*
X42647058Y-43642029D01*
X42790986Y-43911301D01*
X42984681Y-44147319D01*
X43220699Y-44341014D01*
X43489971Y-44484942D01*
X43782147Y-44573573D01*
X44086000Y-44603500D01*
X44348500Y-44596000D01*
X44736000Y-44208500D01*
X44736000Y-42396000D01*
X45136000Y-42396000D01*
X45136000Y-44208500D01*
X45523500Y-44596000D01*
X45786000Y-44603500D01*
X46089853Y-44573573D01*
X46382029Y-44484942D01*
X46651301Y-44341014D01*
X46887319Y-44147319D01*
X47081014Y-43911301D01*
X47224942Y-43642029D01*
X47313573Y-43349853D01*
X47343500Y-43046000D01*
X47336000Y-42783500D01*
X46948500Y-42396000D01*
X45136000Y-42396000D01*
X44736000Y-42396000D01*
X42923500Y-42396000D01*
X42536000Y-42783500D01*
X42528500Y-43046000D01*
X42525870Y-43046000D01*
X42525870Y-41346000D01*
X42528500Y-41346000D01*
X42536000Y-41608500D01*
X42923500Y-41996000D01*
X44736000Y-41996000D01*
X44736000Y-40183500D01*
X45136000Y-40183500D01*
X45136000Y-41996000D01*
X46948500Y-41996000D01*
X47336000Y-41608500D01*
X47343500Y-41346000D01*
X47328645Y-41195168D01*
X47684000Y-41195168D01*
X47684000Y-41608832D01*
X47764702Y-42014547D01*
X47923004Y-42396723D01*
X48152823Y-42740672D01*
X48445328Y-43033177D01*
X48789277Y-43262996D01*
X49171453Y-43421298D01*
X49577168Y-43502000D01*
X49990832Y-43502000D01*
X50396547Y-43421298D01*
X50778723Y-43262996D01*
X51122672Y-43033177D01*
X51415177Y-42740672D01*
X51644996Y-42396723D01*
X51803298Y-42014547D01*
X51884000Y-41608832D01*
X51884000Y-41195168D01*
X51803298Y-40789453D01*
X51644996Y-40407277D01*
X51415177Y-40063328D01*
X51122672Y-39770823D01*
X50998231Y-39687674D01*
X53295080Y-39687674D01*
X53370301Y-39935663D01*
X53573552Y-40359978D01*
X53855677Y-40736488D01*
X54205835Y-41050724D01*
X54610569Y-41290609D01*
X55054325Y-41446925D01*
X55426000Y-41120157D01*
X55426000Y-39316000D01*
X53623463Y-39316000D01*
X53295080Y-39687674D01*
X50998231Y-39687674D01*
X50778723Y-39541004D01*
X50396547Y-39382702D01*
X49990832Y-39302000D01*
X49577168Y-39302000D01*
X49171453Y-39382702D01*
X48789277Y-39541004D01*
X48445328Y-39770823D01*
X48152823Y-40063328D01*
X47923004Y-40407277D01*
X47764702Y-40789453D01*
X47684000Y-41195168D01*
X47328645Y-41195168D01*
X47313573Y-41042147D01*
X47224942Y-40749971D01*
X47081014Y-40480699D01*
X46887319Y-40244681D01*
X46651301Y-40050986D01*
X46382029Y-39907058D01*
X46089853Y-39818427D01*
X45786000Y-39788500D01*
X45523500Y-39796000D01*
X45136000Y-40183500D01*
X44736000Y-40183500D01*
X44348500Y-39796000D01*
X44086000Y-39788500D01*
X43782147Y-39818427D01*
X43489971Y-39907058D01*
X43220699Y-40050986D01*
X42984681Y-40244681D01*
X42790986Y-40480699D01*
X42647058Y-40749971D01*
X42558427Y-41042147D01*
X42528500Y-41346000D01*
X42525870Y-41346000D01*
X42510424Y-41189173D01*
X42464679Y-41038372D01*
X42390393Y-40899394D01*
X42290422Y-40777578D01*
X42168606Y-40677607D01*
X42029628Y-40603321D01*
X41878827Y-40557576D01*
X41722000Y-40542130D01*
X40022000Y-40542130D01*
X39865173Y-40557576D01*
X39714372Y-40603321D01*
X39575394Y-40677607D01*
X39453578Y-40777578D01*
X39353607Y-40899394D01*
X39279321Y-41038372D01*
X39233576Y-41189173D01*
X39218130Y-41346000D01*
X35169481Y-41346000D01*
X35167884Y-41337973D01*
X35077426Y-41119587D01*
X34946101Y-40923045D01*
X34778955Y-40755899D01*
X34582413Y-40624574D01*
X34364027Y-40534116D01*
X34132190Y-40488000D01*
X33895810Y-40488000D01*
X33663973Y-40534116D01*
X33445587Y-40624574D01*
X33249045Y-40755899D01*
X33081899Y-40923045D01*
X32950574Y-41119587D01*
X32860116Y-41337973D01*
X32834000Y-41469265D01*
X32834000Y-41195168D01*
X32753298Y-40789453D01*
X32594996Y-40407277D01*
X32365177Y-40063328D01*
X32072672Y-39770823D01*
X31728723Y-39541004D01*
X31346547Y-39382702D01*
X30940832Y-39302000D01*
X30527168Y-39302000D01*
X30121453Y-39382702D01*
X29739277Y-39541004D01*
X29395328Y-39770823D01*
X29102823Y-40063328D01*
X28873004Y-40407277D01*
X28714702Y-40789453D01*
X28634000Y-41195168D01*
X26576459Y-41195168D01*
X26820165Y-41050724D01*
X27170323Y-40736488D01*
X27452448Y-40359978D01*
X27655699Y-39935663D01*
X27730920Y-39687674D01*
X27402537Y-39316000D01*
X25600000Y-39316000D01*
X25200000Y-39316000D01*
X23397463Y-39316000D01*
X23069080Y-39687674D01*
X22647000Y-39687674D01*
X22647000Y-38544326D01*
X23069080Y-38544326D01*
X23397463Y-38916000D01*
X25200000Y-38916000D01*
X25200000Y-38896000D01*
X25600000Y-38896000D01*
X25600000Y-38916000D01*
X27402537Y-38916000D01*
X27730920Y-38544326D01*
X27655699Y-38296337D01*
X27452448Y-37872022D01*
X27170323Y-37495512D01*
X27053870Y-37391006D01*
X27053870Y-35726000D01*
X27038424Y-35569173D01*
X26992679Y-35418372D01*
X26918393Y-35279394D01*
X26818422Y-35157578D01*
X26696606Y-35057607D01*
X26557628Y-34983321D01*
X26406827Y-34937576D01*
X26250000Y-34922130D01*
X24550000Y-34922130D01*
X24393173Y-34937576D01*
X24242372Y-34983321D01*
X24103394Y-35057607D01*
X23981578Y-35157578D01*
X23881607Y-35279394D01*
X23807321Y-35418372D01*
X23761576Y-35569173D01*
X23746130Y-35726000D01*
X23746130Y-37391006D01*
X23629677Y-37495512D01*
X23347552Y-37872022D01*
X23144301Y-38296337D01*
X23069080Y-38544326D01*
X22647000Y-38544326D01*
X22647000Y-28646000D01*
X32106130Y-28646000D01*
X32106130Y-30346000D01*
X32121576Y-30502827D01*
X32167321Y-30653628D01*
X32241607Y-30792606D01*
X32341578Y-30914422D01*
X32463394Y-31014393D01*
X32602372Y-31088679D01*
X32753173Y-31134424D01*
X32910000Y-31149870D01*
X34610000Y-31149870D01*
X34766827Y-31134424D01*
X34917628Y-31088679D01*
X35056606Y-31014393D01*
X35178422Y-30914422D01*
X35278393Y-30792606D01*
X35352679Y-30653628D01*
X35398424Y-30502827D01*
X35413870Y-30346000D01*
X35413870Y-28646000D01*
X36170130Y-28646000D01*
X36170130Y-30346000D01*
X36185576Y-30502827D01*
X36231321Y-30653628D01*
X36305607Y-30792606D01*
X36405578Y-30914422D01*
X36527394Y-31014393D01*
X36666372Y-31088679D01*
X36817173Y-31134424D01*
X36974000Y-31149870D01*
X38674000Y-31149870D01*
X38830827Y-31134424D01*
X38981628Y-31088679D01*
X39120606Y-31014393D01*
X39242422Y-30914422D01*
X39342393Y-30792606D01*
X39416679Y-30653628D01*
X39462424Y-30502827D01*
X39477870Y-30346000D01*
X39477870Y-28646000D01*
X39462424Y-28489173D01*
X39416679Y-28338372D01*
X39342393Y-28199394D01*
X39242422Y-28077578D01*
X39120606Y-27977607D01*
X38981628Y-27903321D01*
X38830827Y-27857576D01*
X38674000Y-27842130D01*
X36974000Y-27842130D01*
X36817173Y-27857576D01*
X36666372Y-27903321D01*
X36527394Y-27977607D01*
X36405578Y-28077578D01*
X36305607Y-28199394D01*
X36231321Y-28338372D01*
X36185576Y-28489173D01*
X36170130Y-28646000D01*
X35413870Y-28646000D01*
X35398424Y-28489173D01*
X35352679Y-28338372D01*
X35278393Y-28199394D01*
X35178422Y-28077578D01*
X35056606Y-27977607D01*
X34917628Y-27903321D01*
X34766827Y-27857576D01*
X34610000Y-27842130D01*
X32910000Y-27842130D01*
X32753173Y-27857576D01*
X32602372Y-27903321D01*
X32463394Y-27977607D01*
X32341578Y-28077578D01*
X32241607Y-28199394D01*
X32167321Y-28338372D01*
X32121576Y-28489173D01*
X32106130Y-28646000D01*
X22647000Y-28646000D01*
X22647000Y-25821810D01*
X32814000Y-25821810D01*
X32814000Y-26058190D01*
X32860116Y-26290027D01*
X32950574Y-26508413D01*
X33081899Y-26704955D01*
X33249045Y-26872101D01*
X33445587Y-27003426D01*
X33663973Y-27093884D01*
X33895810Y-27140000D01*
X34132190Y-27140000D01*
X34364027Y-27093884D01*
X34582413Y-27003426D01*
X34778955Y-26872101D01*
X34946101Y-26704955D01*
X35077426Y-26508413D01*
X35167884Y-26290027D01*
X35214000Y-26058190D01*
X35214000Y-25821810D01*
X35167884Y-25589973D01*
X35077426Y-25371587D01*
X34958211Y-25193168D01*
X36000000Y-25193168D01*
X36000000Y-25606832D01*
X36080702Y-26012547D01*
X36239004Y-26394723D01*
X36468823Y-26738672D01*
X36761328Y-27031177D01*
X37105277Y-27260996D01*
X37487453Y-27419298D01*
X37893168Y-27500000D01*
X38306832Y-27500000D01*
X38712547Y-27419298D01*
X39094723Y-27260996D01*
X39438672Y-27031177D01*
X39731177Y-26738672D01*
X39960996Y-26394723D01*
X40119298Y-26012547D01*
X40200000Y-25606832D01*
X40200000Y-25441056D01*
X40361045Y-25602101D01*
X40557587Y-25733426D01*
X40775973Y-25823884D01*
X41007810Y-25870000D01*
X41244190Y-25870000D01*
X41476027Y-25823884D01*
X41694413Y-25733426D01*
X41890955Y-25602101D01*
X42058101Y-25434955D01*
X42189426Y-25238413D01*
X42279884Y-25020027D01*
X42326000Y-24788190D01*
X42326000Y-24551810D01*
X42279884Y-24319973D01*
X42189426Y-24101587D01*
X42058101Y-23905045D01*
X41890955Y-23737899D01*
X41694413Y-23606574D01*
X41476027Y-23516116D01*
X41244190Y-23470000D01*
X41007810Y-23470000D01*
X40775973Y-23516116D01*
X40557587Y-23606574D01*
X40361045Y-23737899D01*
X40193899Y-23905045D01*
X40062574Y-24101587D01*
X39972116Y-24319973D01*
X39956489Y-24398532D01*
X39731177Y-24061328D01*
X39438672Y-23768823D01*
X39094723Y-23539004D01*
X38712547Y-23380702D01*
X38306832Y-23300000D01*
X37893168Y-23300000D01*
X37487453Y-23380702D01*
X37105277Y-23539004D01*
X36761328Y-23768823D01*
X36468823Y-24061328D01*
X36239004Y-24405277D01*
X36080702Y-24787453D01*
X36000000Y-25193168D01*
X34958211Y-25193168D01*
X34946101Y-25175045D01*
X34778955Y-25007899D01*
X34582413Y-24876574D01*
X34364027Y-24786116D01*
X34132190Y-24740000D01*
X33895810Y-24740000D01*
X33663973Y-24786116D01*
X33445587Y-24876574D01*
X33249045Y-25007899D01*
X33081899Y-25175045D01*
X32950574Y-25371587D01*
X32860116Y-25589973D01*
X32814000Y-25821810D01*
X22647000Y-25821810D01*
X22647000Y-24757725D01*
X24449726Y-22955000D01*
X56278275Y-22955000D01*
X57827000Y-24503726D01*
G37*
%TD.AperFunction*%
%TD*%
M02*
