%TF.GenerationSoftware,KiCad,Pcbnew,5.1.10-88a1d61d58~89~ubuntu20.04.1*%
%TF.CreationDate,2021-12-18T07:17:50+01:00*%
%TF.ProjectId,PowerBankAlwaysActive,506f7765-7242-4616-9e6b-416c77617973,rev?*%
%TF.SameCoordinates,Original*%
%TF.FileFunction,Legend,Bot*%
%TF.FilePolarity,Positive*%
%FSLAX46Y46*%
G04 Gerber Fmt 4.6, Leading zero omitted, Abs format (unit mm)*
G04 Created by KiCad (PCBNEW 5.1.10-88a1d61d58~89~ubuntu20.04.1) date 2021-12-18 07:17:50*
%MOMM*%
%LPD*%
G01*
G04 APERTURE LIST*
%ADD10C,0.200000*%
G04 APERTURE END LIST*
D10*
X45303619Y-40663095D02*
X44870285Y-41963095D01*
X44436952Y-40663095D01*
X43508380Y-41901190D02*
X43632190Y-41963095D01*
X43879809Y-41963095D01*
X44003619Y-41901190D01*
X44065523Y-41777380D01*
X44065523Y-41282142D01*
X44003619Y-41158333D01*
X43879809Y-41096428D01*
X43632190Y-41096428D01*
X43508380Y-41158333D01*
X43446476Y-41282142D01*
X43446476Y-41405952D01*
X44065523Y-41529761D01*
X42889333Y-41963095D02*
X42889333Y-41096428D01*
X42889333Y-41344047D02*
X42827428Y-41220238D01*
X42765523Y-41158333D01*
X42641714Y-41096428D01*
X42517904Y-41096428D01*
X42146476Y-41901190D02*
X42022666Y-41963095D01*
X41775047Y-41963095D01*
X41651238Y-41901190D01*
X41589333Y-41777380D01*
X41589333Y-41715476D01*
X41651238Y-41591666D01*
X41775047Y-41529761D01*
X41960761Y-41529761D01*
X42084571Y-41467857D01*
X42146476Y-41344047D01*
X42146476Y-41282142D01*
X42084571Y-41158333D01*
X41960761Y-41096428D01*
X41775047Y-41096428D01*
X41651238Y-41158333D01*
X41032190Y-41963095D02*
X41032190Y-41096428D01*
X41032190Y-40663095D02*
X41094095Y-40725000D01*
X41032190Y-40786904D01*
X40970285Y-40725000D01*
X41032190Y-40663095D01*
X41032190Y-40786904D01*
X40227428Y-41963095D02*
X40351238Y-41901190D01*
X40413142Y-41839285D01*
X40475047Y-41715476D01*
X40475047Y-41344047D01*
X40413142Y-41220238D01*
X40351238Y-41158333D01*
X40227428Y-41096428D01*
X40041714Y-41096428D01*
X39917904Y-41158333D01*
X39856000Y-41220238D01*
X39794095Y-41344047D01*
X39794095Y-41715476D01*
X39856000Y-41839285D01*
X39917904Y-41901190D01*
X40041714Y-41963095D01*
X40227428Y-41963095D01*
X39236952Y-41096428D02*
X39236952Y-41963095D01*
X39236952Y-41220238D02*
X39175047Y-41158333D01*
X39051238Y-41096428D01*
X38865523Y-41096428D01*
X38741714Y-41158333D01*
X38679809Y-41282142D01*
X38679809Y-41963095D01*
X36389333Y-41963095D02*
X37132190Y-41963095D01*
X36760761Y-41963095D02*
X36760761Y-40663095D01*
X36884571Y-40848809D01*
X37008380Y-40972619D01*
X37132190Y-41034523D01*
X35832190Y-41839285D02*
X35770285Y-41901190D01*
X35832190Y-41963095D01*
X35894095Y-41901190D01*
X35832190Y-41839285D01*
X35832190Y-41963095D01*
X34965523Y-40663095D02*
X34841714Y-40663095D01*
X34717904Y-40725000D01*
X34656000Y-40786904D01*
X34594095Y-40910714D01*
X34532190Y-41158333D01*
X34532190Y-41467857D01*
X34594095Y-41715476D01*
X34656000Y-41839285D01*
X34717904Y-41901190D01*
X34841714Y-41963095D01*
X34965523Y-41963095D01*
X35089333Y-41901190D01*
X35151238Y-41839285D01*
X35213142Y-41715476D01*
X35275047Y-41467857D01*
X35275047Y-41158333D01*
X35213142Y-40910714D01*
X35151238Y-40786904D01*
X35089333Y-40725000D01*
X34965523Y-40663095D01*
X41806000Y-42875000D02*
X41929809Y-42813095D01*
X42115523Y-42813095D01*
X42301238Y-42875000D01*
X42425047Y-42998809D01*
X42486952Y-43122619D01*
X42548857Y-43370238D01*
X42548857Y-43555952D01*
X42486952Y-43803571D01*
X42425047Y-43927380D01*
X42301238Y-44051190D01*
X42115523Y-44113095D01*
X41991714Y-44113095D01*
X41806000Y-44051190D01*
X41744095Y-43989285D01*
X41744095Y-43555952D01*
X41991714Y-43555952D01*
X41001238Y-44113095D02*
X41125047Y-44051190D01*
X41186952Y-43927380D01*
X41186952Y-42813095D01*
X40506000Y-44113095D02*
X40506000Y-43246428D01*
X40506000Y-42813095D02*
X40567904Y-42875000D01*
X40506000Y-42936904D01*
X40444095Y-42875000D01*
X40506000Y-42813095D01*
X40506000Y-42936904D01*
X39391714Y-44051190D02*
X39515523Y-44113095D01*
X39763142Y-44113095D01*
X39886952Y-44051190D01*
X39948857Y-43927380D01*
X39948857Y-43432142D01*
X39886952Y-43308333D01*
X39763142Y-43246428D01*
X39515523Y-43246428D01*
X39391714Y-43308333D01*
X39329809Y-43432142D01*
X39329809Y-43555952D01*
X39948857Y-43679761D01*
X38834571Y-44051190D02*
X38710761Y-44113095D01*
X38463142Y-44113095D01*
X38339333Y-44051190D01*
X38277428Y-43927380D01*
X38277428Y-43865476D01*
X38339333Y-43741666D01*
X38463142Y-43679761D01*
X38648857Y-43679761D01*
X38772666Y-43617857D01*
X38834571Y-43494047D01*
X38834571Y-43432142D01*
X38772666Y-43308333D01*
X38648857Y-43246428D01*
X38463142Y-43246428D01*
X38339333Y-43308333D01*
X37225047Y-44051190D02*
X37348857Y-44113095D01*
X37596476Y-44113095D01*
X37720285Y-44051190D01*
X37782190Y-43927380D01*
X37782190Y-43432142D01*
X37720285Y-43308333D01*
X37596476Y-43246428D01*
X37348857Y-43246428D01*
X37225047Y-43308333D01*
X37163142Y-43432142D01*
X37163142Y-43555952D01*
X37782190Y-43679761D01*
X46529904Y-30982095D02*
X46529904Y-29682095D01*
X46034666Y-29682095D01*
X45910857Y-29744000D01*
X45848952Y-29805904D01*
X45787047Y-29929714D01*
X45787047Y-30115428D01*
X45848952Y-30239238D01*
X45910857Y-30301142D01*
X46034666Y-30363047D01*
X46529904Y-30363047D01*
X45044190Y-30982095D02*
X45168000Y-30920190D01*
X45229904Y-30858285D01*
X45291809Y-30734476D01*
X45291809Y-30363047D01*
X45229904Y-30239238D01*
X45168000Y-30177333D01*
X45044190Y-30115428D01*
X44858476Y-30115428D01*
X44734666Y-30177333D01*
X44672761Y-30239238D01*
X44610857Y-30363047D01*
X44610857Y-30734476D01*
X44672761Y-30858285D01*
X44734666Y-30920190D01*
X44858476Y-30982095D01*
X45044190Y-30982095D01*
X44177523Y-30115428D02*
X43929904Y-30982095D01*
X43682285Y-30363047D01*
X43434666Y-30982095D01*
X43187047Y-30115428D01*
X42196571Y-30920190D02*
X42320380Y-30982095D01*
X42568000Y-30982095D01*
X42691809Y-30920190D01*
X42753714Y-30796380D01*
X42753714Y-30301142D01*
X42691809Y-30177333D01*
X42568000Y-30115428D01*
X42320380Y-30115428D01*
X42196571Y-30177333D01*
X42134666Y-30301142D01*
X42134666Y-30424952D01*
X42753714Y-30548761D01*
X41577523Y-30982095D02*
X41577523Y-30115428D01*
X41577523Y-30363047D02*
X41515619Y-30239238D01*
X41453714Y-30177333D01*
X41329904Y-30115428D01*
X41206095Y-30115428D01*
X39348952Y-30301142D02*
X39163238Y-30363047D01*
X39101333Y-30424952D01*
X39039428Y-30548761D01*
X39039428Y-30734476D01*
X39101333Y-30858285D01*
X39163238Y-30920190D01*
X39287047Y-30982095D01*
X39782285Y-30982095D01*
X39782285Y-29682095D01*
X39348952Y-29682095D01*
X39225142Y-29744000D01*
X39163238Y-29805904D01*
X39101333Y-29929714D01*
X39101333Y-30053523D01*
X39163238Y-30177333D01*
X39225142Y-30239238D01*
X39348952Y-30301142D01*
X39782285Y-30301142D01*
X37925142Y-30982095D02*
X37925142Y-30301142D01*
X37987047Y-30177333D01*
X38110857Y-30115428D01*
X38358476Y-30115428D01*
X38482285Y-30177333D01*
X37925142Y-30920190D02*
X38048952Y-30982095D01*
X38358476Y-30982095D01*
X38482285Y-30920190D01*
X38544190Y-30796380D01*
X38544190Y-30672571D01*
X38482285Y-30548761D01*
X38358476Y-30486857D01*
X38048952Y-30486857D01*
X37925142Y-30424952D01*
X37306095Y-30115428D02*
X37306095Y-30982095D01*
X37306095Y-30239238D02*
X37244190Y-30177333D01*
X37120380Y-30115428D01*
X36934666Y-30115428D01*
X36810857Y-30177333D01*
X36748952Y-30301142D01*
X36748952Y-30982095D01*
X36129904Y-30982095D02*
X36129904Y-29682095D01*
X36006095Y-30486857D02*
X35634666Y-30982095D01*
X35634666Y-30115428D02*
X36129904Y-30610666D01*
X43620380Y-33132095D02*
X43620380Y-31832095D01*
X43620380Y-32451142D02*
X42877523Y-32451142D01*
X42877523Y-33132095D02*
X42877523Y-31832095D01*
X41701333Y-33132095D02*
X41701333Y-32451142D01*
X41763238Y-32327333D01*
X41887047Y-32265428D01*
X42134666Y-32265428D01*
X42258476Y-32327333D01*
X41701333Y-33070190D02*
X41825142Y-33132095D01*
X42134666Y-33132095D01*
X42258476Y-33070190D01*
X42320380Y-32946380D01*
X42320380Y-32822571D01*
X42258476Y-32698761D01*
X42134666Y-32636857D01*
X41825142Y-32636857D01*
X41701333Y-32574952D01*
X40525142Y-33070190D02*
X40648952Y-33132095D01*
X40896571Y-33132095D01*
X41020380Y-33070190D01*
X41082285Y-33008285D01*
X41144190Y-32884476D01*
X41144190Y-32513047D01*
X41082285Y-32389238D01*
X41020380Y-32327333D01*
X40896571Y-32265428D01*
X40648952Y-32265428D01*
X40525142Y-32327333D01*
X39968000Y-33132095D02*
X39968000Y-31832095D01*
X39844190Y-32636857D02*
X39472761Y-33132095D01*
X39472761Y-32265428D02*
X39968000Y-32760666D01*
X38420380Y-33070190D02*
X38544190Y-33132095D01*
X38791809Y-33132095D01*
X38915619Y-33070190D01*
X38977523Y-32946380D01*
X38977523Y-32451142D01*
X38915619Y-32327333D01*
X38791809Y-32265428D01*
X38544190Y-32265428D01*
X38420380Y-32327333D01*
X38358476Y-32451142D01*
X38358476Y-32574952D01*
X38977523Y-32698761D01*
X37801333Y-33132095D02*
X37801333Y-32265428D01*
X37801333Y-32513047D02*
X37739428Y-32389238D01*
X37677523Y-32327333D01*
X37553714Y-32265428D01*
X37429904Y-32265428D01*
X43341809Y-34105904D02*
X43279904Y-34044000D01*
X43156095Y-33982095D01*
X42846571Y-33982095D01*
X42722761Y-34044000D01*
X42660857Y-34105904D01*
X42598952Y-34229714D01*
X42598952Y-34353523D01*
X42660857Y-34539238D01*
X43403714Y-35282095D01*
X42598952Y-35282095D01*
X41794190Y-33982095D02*
X41670380Y-33982095D01*
X41546571Y-34044000D01*
X41484666Y-34105904D01*
X41422761Y-34229714D01*
X41360857Y-34477333D01*
X41360857Y-34786857D01*
X41422761Y-35034476D01*
X41484666Y-35158285D01*
X41546571Y-35220190D01*
X41670380Y-35282095D01*
X41794190Y-35282095D01*
X41918000Y-35220190D01*
X41979904Y-35158285D01*
X42041809Y-35034476D01*
X42103714Y-34786857D01*
X42103714Y-34477333D01*
X42041809Y-34229714D01*
X41979904Y-34105904D01*
X41918000Y-34044000D01*
X41794190Y-33982095D01*
X40865619Y-34105904D02*
X40803714Y-34044000D01*
X40679904Y-33982095D01*
X40370380Y-33982095D01*
X40246571Y-34044000D01*
X40184666Y-34105904D01*
X40122761Y-34229714D01*
X40122761Y-34353523D01*
X40184666Y-34539238D01*
X40927523Y-35282095D01*
X40122761Y-35282095D01*
X38884666Y-35282095D02*
X39627523Y-35282095D01*
X39256095Y-35282095D02*
X39256095Y-33982095D01*
X39379904Y-34167809D01*
X39503714Y-34291619D01*
X39627523Y-34353523D01*
M02*
