%TF.GenerationSoftware,KiCad,Pcbnew,5.1.10-88a1d61d58~89~ubuntu20.04.1*%
%TF.CreationDate,2021-12-18T07:17:50+01:00*%
%TF.ProjectId,PowerBankAlwaysActive,506f7765-7242-4616-9e6b-416c77617973,rev?*%
%TF.SameCoordinates,Original*%
%TF.FileFunction,Copper,L2,Inr*%
%TF.FilePolarity,Positive*%
%FSLAX46Y46*%
G04 Gerber Fmt 4.6, Leading zero omitted, Abs format (unit mm)*
G04 Created by KiCad (PCBNEW 5.1.10-88a1d61d58~89~ubuntu20.04.1) date 2021-12-18 07:17:50*
%MOMM*%
%LPD*%
G01*
G04 APERTURE LIST*
%TA.AperFunction,ComponentPad*%
%ADD10R,1.700000X1.700000*%
%TD*%
%TA.AperFunction,ComponentPad*%
%ADD11O,1.700000X1.700000*%
%TD*%
%TA.AperFunction,ComponentPad*%
%ADD12C,2.600000*%
%TD*%
%TA.AperFunction,ViaPad*%
%ADD13C,0.800000*%
%TD*%
%TA.AperFunction,Conductor*%
%ADD14C,0.100000*%
%TD*%
G04 APERTURE END LIST*
D10*
%TO.N,+5V*%
%TO.C,J1*%
X25400000Y-36576000D03*
D11*
%TO.N,GND*%
X25400000Y-39116000D03*
%TD*%
%TO.N,GND*%
%TO.C,J2*%
X55626000Y-39116000D03*
D10*
%TO.N,+5V*%
X55626000Y-36576000D03*
%TD*%
D12*
%TO.N,N/C*%
%TO.C,H1*%
X30734000Y-41402000D03*
%TD*%
%TO.N,N/C*%
%TO.C,H2*%
X49784000Y-41402000D03*
%TD*%
%TO.N,N/C*%
%TO.C,H3*%
X38100000Y-25400000D03*
%TD*%
D13*
%TO.N,GND*%
X36554000Y-31020000D03*
X47476000Y-36608000D03*
X39094000Y-39402000D03*
X31982000Y-34912998D03*
%TO.N,+5V*%
X34014000Y-25940000D03*
X41634000Y-25940000D03*
X34014000Y-41688000D03*
%TD*%
D14*
%TO.N,+5V*%
X57827000Y-24503726D02*
X57827001Y-34965443D01*
X57771014Y-34860699D01*
X57577319Y-34624681D01*
X57341301Y-34430986D01*
X57072029Y-34287058D01*
X56779853Y-34198427D01*
X56476000Y-34168500D01*
X56213500Y-34176000D01*
X55826000Y-34563500D01*
X55826000Y-36376000D01*
X55846000Y-36376000D01*
X55846000Y-36776000D01*
X55826000Y-36776000D01*
X55826000Y-36796000D01*
X55426000Y-36796000D01*
X55426000Y-36776000D01*
X53613500Y-36776000D01*
X53226000Y-37163500D01*
X53218500Y-37426000D01*
X53248427Y-37729853D01*
X53337058Y-38022029D01*
X53480986Y-38291301D01*
X53674681Y-38527319D01*
X53910699Y-38721014D01*
X54011522Y-38774905D01*
X53976000Y-38953489D01*
X53976000Y-39278511D01*
X54039408Y-39597287D01*
X54163789Y-39897568D01*
X54344361Y-40167814D01*
X54574186Y-40397639D01*
X54844432Y-40578211D01*
X55144713Y-40702592D01*
X55463489Y-40766000D01*
X55788511Y-40766000D01*
X56107287Y-40702592D01*
X56407568Y-40578211D01*
X56677814Y-40397639D01*
X56907639Y-40167814D01*
X57088211Y-39897568D01*
X57212592Y-39597287D01*
X57276000Y-39278511D01*
X57276000Y-38953489D01*
X57240478Y-38774905D01*
X57341301Y-38721014D01*
X57577319Y-38527319D01*
X57771014Y-38291301D01*
X57827001Y-38186557D01*
X57827001Y-43124273D01*
X56278275Y-44673000D01*
X24703726Y-44673000D01*
X22647000Y-42616275D01*
X22647000Y-41195168D01*
X28634000Y-41195168D01*
X28634000Y-41608832D01*
X28714702Y-42014547D01*
X28873004Y-42396723D01*
X29102823Y-42740672D01*
X29395328Y-43033177D01*
X29739277Y-43262996D01*
X30121453Y-43421298D01*
X30527168Y-43502000D01*
X30940832Y-43502000D01*
X31346547Y-43421298D01*
X31728723Y-43262996D01*
X32072672Y-43033177D01*
X32365177Y-42740672D01*
X32594996Y-42396723D01*
X32753298Y-42014547D01*
X32834000Y-41608832D01*
X32834000Y-41195168D01*
X47684000Y-41195168D01*
X47684000Y-41608832D01*
X47764702Y-42014547D01*
X47923004Y-42396723D01*
X48152823Y-42740672D01*
X48445328Y-43033177D01*
X48789277Y-43262996D01*
X49171453Y-43421298D01*
X49577168Y-43502000D01*
X49990832Y-43502000D01*
X50396547Y-43421298D01*
X50778723Y-43262996D01*
X51122672Y-43033177D01*
X51415177Y-42740672D01*
X51644996Y-42396723D01*
X51803298Y-42014547D01*
X51884000Y-41608832D01*
X51884000Y-41195168D01*
X51803298Y-40789453D01*
X51644996Y-40407277D01*
X51415177Y-40063328D01*
X51122672Y-39770823D01*
X50778723Y-39541004D01*
X50396547Y-39382702D01*
X49990832Y-39302000D01*
X49577168Y-39302000D01*
X49171453Y-39382702D01*
X48789277Y-39541004D01*
X48445328Y-39770823D01*
X48152823Y-40063328D01*
X47923004Y-40407277D01*
X47764702Y-40789453D01*
X47684000Y-41195168D01*
X32834000Y-41195168D01*
X32753298Y-40789453D01*
X32594996Y-40407277D01*
X32365177Y-40063328D01*
X32072672Y-39770823D01*
X31728723Y-39541004D01*
X31346547Y-39382702D01*
X30940832Y-39302000D01*
X30527168Y-39302000D01*
X30121453Y-39382702D01*
X29739277Y-39541004D01*
X29395328Y-39770823D01*
X29102823Y-40063328D01*
X28873004Y-40407277D01*
X28714702Y-40789453D01*
X28634000Y-41195168D01*
X22647000Y-41195168D01*
X22647000Y-37426000D01*
X22992500Y-37426000D01*
X23022427Y-37729853D01*
X23111058Y-38022029D01*
X23254986Y-38291301D01*
X23448681Y-38527319D01*
X23684699Y-38721014D01*
X23785522Y-38774905D01*
X23750000Y-38953489D01*
X23750000Y-39278511D01*
X23813408Y-39597287D01*
X23937789Y-39897568D01*
X24118361Y-40167814D01*
X24348186Y-40397639D01*
X24618432Y-40578211D01*
X24918713Y-40702592D01*
X25237489Y-40766000D01*
X25562511Y-40766000D01*
X25881287Y-40702592D01*
X26181568Y-40578211D01*
X26451814Y-40397639D01*
X26681639Y-40167814D01*
X26862211Y-39897568D01*
X26986592Y-39597287D01*
X27048945Y-39283810D01*
X37894000Y-39283810D01*
X37894000Y-39520190D01*
X37940116Y-39752027D01*
X38030574Y-39970413D01*
X38161899Y-40166955D01*
X38329045Y-40334101D01*
X38525587Y-40465426D01*
X38743973Y-40555884D01*
X38975810Y-40602000D01*
X39212190Y-40602000D01*
X39444027Y-40555884D01*
X39662413Y-40465426D01*
X39858955Y-40334101D01*
X40026101Y-40166955D01*
X40157426Y-39970413D01*
X40247884Y-39752027D01*
X40294000Y-39520190D01*
X40294000Y-39283810D01*
X40247884Y-39051973D01*
X40157426Y-38833587D01*
X40026101Y-38637045D01*
X39858955Y-38469899D01*
X39662413Y-38338574D01*
X39444027Y-38248116D01*
X39212190Y-38202000D01*
X38975810Y-38202000D01*
X38743973Y-38248116D01*
X38525587Y-38338574D01*
X38329045Y-38469899D01*
X38161899Y-38637045D01*
X38030574Y-38833587D01*
X37940116Y-39051973D01*
X37894000Y-39283810D01*
X27048945Y-39283810D01*
X27050000Y-39278511D01*
X27050000Y-38953489D01*
X27014478Y-38774905D01*
X27115301Y-38721014D01*
X27351319Y-38527319D01*
X27545014Y-38291301D01*
X27688942Y-38022029D01*
X27777573Y-37729853D01*
X27807500Y-37426000D01*
X27800000Y-37163500D01*
X27412500Y-36776000D01*
X25600000Y-36776000D01*
X25600000Y-36796000D01*
X25200000Y-36796000D01*
X25200000Y-36776000D01*
X23387500Y-36776000D01*
X23000000Y-37163500D01*
X22992500Y-37426000D01*
X22647000Y-37426000D01*
X22647000Y-36489810D01*
X46276000Y-36489810D01*
X46276000Y-36726190D01*
X46322116Y-36958027D01*
X46412574Y-37176413D01*
X46543899Y-37372955D01*
X46711045Y-37540101D01*
X46907587Y-37671426D01*
X47125973Y-37761884D01*
X47357810Y-37808000D01*
X47594190Y-37808000D01*
X47826027Y-37761884D01*
X48044413Y-37671426D01*
X48240955Y-37540101D01*
X48408101Y-37372955D01*
X48539426Y-37176413D01*
X48629884Y-36958027D01*
X48676000Y-36726190D01*
X48676000Y-36489810D01*
X48629884Y-36257973D01*
X48539426Y-36039587D01*
X48408101Y-35843045D01*
X48291056Y-35726000D01*
X53218500Y-35726000D01*
X53226000Y-35988500D01*
X53613500Y-36376000D01*
X55426000Y-36376000D01*
X55426000Y-34563500D01*
X55038500Y-34176000D01*
X54776000Y-34168500D01*
X54472147Y-34198427D01*
X54179971Y-34287058D01*
X53910699Y-34430986D01*
X53674681Y-34624681D01*
X53480986Y-34860699D01*
X53337058Y-35129971D01*
X53248427Y-35422147D01*
X53218500Y-35726000D01*
X48291056Y-35726000D01*
X48240955Y-35675899D01*
X48044413Y-35544574D01*
X47826027Y-35454116D01*
X47594190Y-35408000D01*
X47357810Y-35408000D01*
X47125973Y-35454116D01*
X46907587Y-35544574D01*
X46711045Y-35675899D01*
X46543899Y-35843045D01*
X46412574Y-36039587D01*
X46322116Y-36257973D01*
X46276000Y-36489810D01*
X22647000Y-36489810D01*
X22647000Y-35726000D01*
X22992500Y-35726000D01*
X23000000Y-35988500D01*
X23387500Y-36376000D01*
X25200000Y-36376000D01*
X25200000Y-34563500D01*
X25600000Y-34563500D01*
X25600000Y-36376000D01*
X27412500Y-36376000D01*
X27800000Y-35988500D01*
X27807500Y-35726000D01*
X27777573Y-35422147D01*
X27688942Y-35129971D01*
X27545014Y-34860699D01*
X27490939Y-34794808D01*
X30782000Y-34794808D01*
X30782000Y-35031188D01*
X30828116Y-35263025D01*
X30918574Y-35481411D01*
X31049899Y-35677953D01*
X31217045Y-35845099D01*
X31413587Y-35976424D01*
X31631973Y-36066882D01*
X31863810Y-36112998D01*
X32100190Y-36112998D01*
X32332027Y-36066882D01*
X32550413Y-35976424D01*
X32746955Y-35845099D01*
X32914101Y-35677953D01*
X33045426Y-35481411D01*
X33135884Y-35263025D01*
X33182000Y-35031188D01*
X33182000Y-34794808D01*
X33135884Y-34562971D01*
X33045426Y-34344585D01*
X32914101Y-34148043D01*
X32746955Y-33980897D01*
X32550413Y-33849572D01*
X32332027Y-33759114D01*
X32100190Y-33712998D01*
X31863810Y-33712998D01*
X31631973Y-33759114D01*
X31413587Y-33849572D01*
X31217045Y-33980897D01*
X31049899Y-34148043D01*
X30918574Y-34344585D01*
X30828116Y-34562971D01*
X30782000Y-34794808D01*
X27490939Y-34794808D01*
X27351319Y-34624681D01*
X27115301Y-34430986D01*
X26846029Y-34287058D01*
X26553853Y-34198427D01*
X26250000Y-34168500D01*
X25987500Y-34176000D01*
X25600000Y-34563500D01*
X25200000Y-34563500D01*
X24812500Y-34176000D01*
X24550000Y-34168500D01*
X24246147Y-34198427D01*
X23953971Y-34287058D01*
X23684699Y-34430986D01*
X23448681Y-34624681D01*
X23254986Y-34860699D01*
X23111058Y-35129971D01*
X23022427Y-35422147D01*
X22992500Y-35726000D01*
X22647000Y-35726000D01*
X22647000Y-30901810D01*
X35354000Y-30901810D01*
X35354000Y-31138190D01*
X35400116Y-31370027D01*
X35490574Y-31588413D01*
X35621899Y-31784955D01*
X35789045Y-31952101D01*
X35985587Y-32083426D01*
X36203973Y-32173884D01*
X36435810Y-32220000D01*
X36672190Y-32220000D01*
X36904027Y-32173884D01*
X37122413Y-32083426D01*
X37318955Y-31952101D01*
X37486101Y-31784955D01*
X37617426Y-31588413D01*
X37707884Y-31370027D01*
X37754000Y-31138190D01*
X37754000Y-30901810D01*
X37707884Y-30669973D01*
X37617426Y-30451587D01*
X37486101Y-30255045D01*
X37318955Y-30087899D01*
X37122413Y-29956574D01*
X36904027Y-29866116D01*
X36672190Y-29820000D01*
X36435810Y-29820000D01*
X36203973Y-29866116D01*
X35985587Y-29956574D01*
X35789045Y-30087899D01*
X35621899Y-30255045D01*
X35490574Y-30451587D01*
X35400116Y-30669973D01*
X35354000Y-30901810D01*
X22647000Y-30901810D01*
X22647000Y-25193168D01*
X36000000Y-25193168D01*
X36000000Y-25606832D01*
X36080702Y-26012547D01*
X36239004Y-26394723D01*
X36468823Y-26738672D01*
X36761328Y-27031177D01*
X37105277Y-27260996D01*
X37487453Y-27419298D01*
X37893168Y-27500000D01*
X38306832Y-27500000D01*
X38712547Y-27419298D01*
X39094723Y-27260996D01*
X39438672Y-27031177D01*
X39731177Y-26738672D01*
X39960996Y-26394723D01*
X40119298Y-26012547D01*
X40200000Y-25606832D01*
X40200000Y-25193168D01*
X40119298Y-24787453D01*
X39960996Y-24405277D01*
X39731177Y-24061328D01*
X39438672Y-23768823D01*
X39094723Y-23539004D01*
X38712547Y-23380702D01*
X38306832Y-23300000D01*
X37893168Y-23300000D01*
X37487453Y-23380702D01*
X37105277Y-23539004D01*
X36761328Y-23768823D01*
X36468823Y-24061328D01*
X36239004Y-24405277D01*
X36080702Y-24787453D01*
X36000000Y-25193168D01*
X22647000Y-25193168D01*
X22647000Y-24757725D01*
X24449726Y-22955000D01*
X56278275Y-22955000D01*
X57827000Y-24503726D01*
%TA.AperFunction,Conductor*%
G36*
X57827000Y-24503726D02*
G01*
X57827001Y-34965443D01*
X57771014Y-34860699D01*
X57577319Y-34624681D01*
X57341301Y-34430986D01*
X57072029Y-34287058D01*
X56779853Y-34198427D01*
X56476000Y-34168500D01*
X56213500Y-34176000D01*
X55826000Y-34563500D01*
X55826000Y-36376000D01*
X55846000Y-36376000D01*
X55846000Y-36776000D01*
X55826000Y-36776000D01*
X55826000Y-36796000D01*
X55426000Y-36796000D01*
X55426000Y-36776000D01*
X53613500Y-36776000D01*
X53226000Y-37163500D01*
X53218500Y-37426000D01*
X53248427Y-37729853D01*
X53337058Y-38022029D01*
X53480986Y-38291301D01*
X53674681Y-38527319D01*
X53910699Y-38721014D01*
X54011522Y-38774905D01*
X53976000Y-38953489D01*
X53976000Y-39278511D01*
X54039408Y-39597287D01*
X54163789Y-39897568D01*
X54344361Y-40167814D01*
X54574186Y-40397639D01*
X54844432Y-40578211D01*
X55144713Y-40702592D01*
X55463489Y-40766000D01*
X55788511Y-40766000D01*
X56107287Y-40702592D01*
X56407568Y-40578211D01*
X56677814Y-40397639D01*
X56907639Y-40167814D01*
X57088211Y-39897568D01*
X57212592Y-39597287D01*
X57276000Y-39278511D01*
X57276000Y-38953489D01*
X57240478Y-38774905D01*
X57341301Y-38721014D01*
X57577319Y-38527319D01*
X57771014Y-38291301D01*
X57827001Y-38186557D01*
X57827001Y-43124273D01*
X56278275Y-44673000D01*
X24703726Y-44673000D01*
X22647000Y-42616275D01*
X22647000Y-41195168D01*
X28634000Y-41195168D01*
X28634000Y-41608832D01*
X28714702Y-42014547D01*
X28873004Y-42396723D01*
X29102823Y-42740672D01*
X29395328Y-43033177D01*
X29739277Y-43262996D01*
X30121453Y-43421298D01*
X30527168Y-43502000D01*
X30940832Y-43502000D01*
X31346547Y-43421298D01*
X31728723Y-43262996D01*
X32072672Y-43033177D01*
X32365177Y-42740672D01*
X32594996Y-42396723D01*
X32753298Y-42014547D01*
X32834000Y-41608832D01*
X32834000Y-41195168D01*
X47684000Y-41195168D01*
X47684000Y-41608832D01*
X47764702Y-42014547D01*
X47923004Y-42396723D01*
X48152823Y-42740672D01*
X48445328Y-43033177D01*
X48789277Y-43262996D01*
X49171453Y-43421298D01*
X49577168Y-43502000D01*
X49990832Y-43502000D01*
X50396547Y-43421298D01*
X50778723Y-43262996D01*
X51122672Y-43033177D01*
X51415177Y-42740672D01*
X51644996Y-42396723D01*
X51803298Y-42014547D01*
X51884000Y-41608832D01*
X51884000Y-41195168D01*
X51803298Y-40789453D01*
X51644996Y-40407277D01*
X51415177Y-40063328D01*
X51122672Y-39770823D01*
X50778723Y-39541004D01*
X50396547Y-39382702D01*
X49990832Y-39302000D01*
X49577168Y-39302000D01*
X49171453Y-39382702D01*
X48789277Y-39541004D01*
X48445328Y-39770823D01*
X48152823Y-40063328D01*
X47923004Y-40407277D01*
X47764702Y-40789453D01*
X47684000Y-41195168D01*
X32834000Y-41195168D01*
X32753298Y-40789453D01*
X32594996Y-40407277D01*
X32365177Y-40063328D01*
X32072672Y-39770823D01*
X31728723Y-39541004D01*
X31346547Y-39382702D01*
X30940832Y-39302000D01*
X30527168Y-39302000D01*
X30121453Y-39382702D01*
X29739277Y-39541004D01*
X29395328Y-39770823D01*
X29102823Y-40063328D01*
X28873004Y-40407277D01*
X28714702Y-40789453D01*
X28634000Y-41195168D01*
X22647000Y-41195168D01*
X22647000Y-37426000D01*
X22992500Y-37426000D01*
X23022427Y-37729853D01*
X23111058Y-38022029D01*
X23254986Y-38291301D01*
X23448681Y-38527319D01*
X23684699Y-38721014D01*
X23785522Y-38774905D01*
X23750000Y-38953489D01*
X23750000Y-39278511D01*
X23813408Y-39597287D01*
X23937789Y-39897568D01*
X24118361Y-40167814D01*
X24348186Y-40397639D01*
X24618432Y-40578211D01*
X24918713Y-40702592D01*
X25237489Y-40766000D01*
X25562511Y-40766000D01*
X25881287Y-40702592D01*
X26181568Y-40578211D01*
X26451814Y-40397639D01*
X26681639Y-40167814D01*
X26862211Y-39897568D01*
X26986592Y-39597287D01*
X27048945Y-39283810D01*
X37894000Y-39283810D01*
X37894000Y-39520190D01*
X37940116Y-39752027D01*
X38030574Y-39970413D01*
X38161899Y-40166955D01*
X38329045Y-40334101D01*
X38525587Y-40465426D01*
X38743973Y-40555884D01*
X38975810Y-40602000D01*
X39212190Y-40602000D01*
X39444027Y-40555884D01*
X39662413Y-40465426D01*
X39858955Y-40334101D01*
X40026101Y-40166955D01*
X40157426Y-39970413D01*
X40247884Y-39752027D01*
X40294000Y-39520190D01*
X40294000Y-39283810D01*
X40247884Y-39051973D01*
X40157426Y-38833587D01*
X40026101Y-38637045D01*
X39858955Y-38469899D01*
X39662413Y-38338574D01*
X39444027Y-38248116D01*
X39212190Y-38202000D01*
X38975810Y-38202000D01*
X38743973Y-38248116D01*
X38525587Y-38338574D01*
X38329045Y-38469899D01*
X38161899Y-38637045D01*
X38030574Y-38833587D01*
X37940116Y-39051973D01*
X37894000Y-39283810D01*
X27048945Y-39283810D01*
X27050000Y-39278511D01*
X27050000Y-38953489D01*
X27014478Y-38774905D01*
X27115301Y-38721014D01*
X27351319Y-38527319D01*
X27545014Y-38291301D01*
X27688942Y-38022029D01*
X27777573Y-37729853D01*
X27807500Y-37426000D01*
X27800000Y-37163500D01*
X27412500Y-36776000D01*
X25600000Y-36776000D01*
X25600000Y-36796000D01*
X25200000Y-36796000D01*
X25200000Y-36776000D01*
X23387500Y-36776000D01*
X23000000Y-37163500D01*
X22992500Y-37426000D01*
X22647000Y-37426000D01*
X22647000Y-36489810D01*
X46276000Y-36489810D01*
X46276000Y-36726190D01*
X46322116Y-36958027D01*
X46412574Y-37176413D01*
X46543899Y-37372955D01*
X46711045Y-37540101D01*
X46907587Y-37671426D01*
X47125973Y-37761884D01*
X47357810Y-37808000D01*
X47594190Y-37808000D01*
X47826027Y-37761884D01*
X48044413Y-37671426D01*
X48240955Y-37540101D01*
X48408101Y-37372955D01*
X48539426Y-37176413D01*
X48629884Y-36958027D01*
X48676000Y-36726190D01*
X48676000Y-36489810D01*
X48629884Y-36257973D01*
X48539426Y-36039587D01*
X48408101Y-35843045D01*
X48291056Y-35726000D01*
X53218500Y-35726000D01*
X53226000Y-35988500D01*
X53613500Y-36376000D01*
X55426000Y-36376000D01*
X55426000Y-34563500D01*
X55038500Y-34176000D01*
X54776000Y-34168500D01*
X54472147Y-34198427D01*
X54179971Y-34287058D01*
X53910699Y-34430986D01*
X53674681Y-34624681D01*
X53480986Y-34860699D01*
X53337058Y-35129971D01*
X53248427Y-35422147D01*
X53218500Y-35726000D01*
X48291056Y-35726000D01*
X48240955Y-35675899D01*
X48044413Y-35544574D01*
X47826027Y-35454116D01*
X47594190Y-35408000D01*
X47357810Y-35408000D01*
X47125973Y-35454116D01*
X46907587Y-35544574D01*
X46711045Y-35675899D01*
X46543899Y-35843045D01*
X46412574Y-36039587D01*
X46322116Y-36257973D01*
X46276000Y-36489810D01*
X22647000Y-36489810D01*
X22647000Y-35726000D01*
X22992500Y-35726000D01*
X23000000Y-35988500D01*
X23387500Y-36376000D01*
X25200000Y-36376000D01*
X25200000Y-34563500D01*
X25600000Y-34563500D01*
X25600000Y-36376000D01*
X27412500Y-36376000D01*
X27800000Y-35988500D01*
X27807500Y-35726000D01*
X27777573Y-35422147D01*
X27688942Y-35129971D01*
X27545014Y-34860699D01*
X27490939Y-34794808D01*
X30782000Y-34794808D01*
X30782000Y-35031188D01*
X30828116Y-35263025D01*
X30918574Y-35481411D01*
X31049899Y-35677953D01*
X31217045Y-35845099D01*
X31413587Y-35976424D01*
X31631973Y-36066882D01*
X31863810Y-36112998D01*
X32100190Y-36112998D01*
X32332027Y-36066882D01*
X32550413Y-35976424D01*
X32746955Y-35845099D01*
X32914101Y-35677953D01*
X33045426Y-35481411D01*
X33135884Y-35263025D01*
X33182000Y-35031188D01*
X33182000Y-34794808D01*
X33135884Y-34562971D01*
X33045426Y-34344585D01*
X32914101Y-34148043D01*
X32746955Y-33980897D01*
X32550413Y-33849572D01*
X32332027Y-33759114D01*
X32100190Y-33712998D01*
X31863810Y-33712998D01*
X31631973Y-33759114D01*
X31413587Y-33849572D01*
X31217045Y-33980897D01*
X31049899Y-34148043D01*
X30918574Y-34344585D01*
X30828116Y-34562971D01*
X30782000Y-34794808D01*
X27490939Y-34794808D01*
X27351319Y-34624681D01*
X27115301Y-34430986D01*
X26846029Y-34287058D01*
X26553853Y-34198427D01*
X26250000Y-34168500D01*
X25987500Y-34176000D01*
X25600000Y-34563500D01*
X25200000Y-34563500D01*
X24812500Y-34176000D01*
X24550000Y-34168500D01*
X24246147Y-34198427D01*
X23953971Y-34287058D01*
X23684699Y-34430986D01*
X23448681Y-34624681D01*
X23254986Y-34860699D01*
X23111058Y-35129971D01*
X23022427Y-35422147D01*
X22992500Y-35726000D01*
X22647000Y-35726000D01*
X22647000Y-30901810D01*
X35354000Y-30901810D01*
X35354000Y-31138190D01*
X35400116Y-31370027D01*
X35490574Y-31588413D01*
X35621899Y-31784955D01*
X35789045Y-31952101D01*
X35985587Y-32083426D01*
X36203973Y-32173884D01*
X36435810Y-32220000D01*
X36672190Y-32220000D01*
X36904027Y-32173884D01*
X37122413Y-32083426D01*
X37318955Y-31952101D01*
X37486101Y-31784955D01*
X37617426Y-31588413D01*
X37707884Y-31370027D01*
X37754000Y-31138190D01*
X37754000Y-30901810D01*
X37707884Y-30669973D01*
X37617426Y-30451587D01*
X37486101Y-30255045D01*
X37318955Y-30087899D01*
X37122413Y-29956574D01*
X36904027Y-29866116D01*
X36672190Y-29820000D01*
X36435810Y-29820000D01*
X36203973Y-29866116D01*
X35985587Y-29956574D01*
X35789045Y-30087899D01*
X35621899Y-30255045D01*
X35490574Y-30451587D01*
X35400116Y-30669973D01*
X35354000Y-30901810D01*
X22647000Y-30901810D01*
X22647000Y-25193168D01*
X36000000Y-25193168D01*
X36000000Y-25606832D01*
X36080702Y-26012547D01*
X36239004Y-26394723D01*
X36468823Y-26738672D01*
X36761328Y-27031177D01*
X37105277Y-27260996D01*
X37487453Y-27419298D01*
X37893168Y-27500000D01*
X38306832Y-27500000D01*
X38712547Y-27419298D01*
X39094723Y-27260996D01*
X39438672Y-27031177D01*
X39731177Y-26738672D01*
X39960996Y-26394723D01*
X40119298Y-26012547D01*
X40200000Y-25606832D01*
X40200000Y-25193168D01*
X40119298Y-24787453D01*
X39960996Y-24405277D01*
X39731177Y-24061328D01*
X39438672Y-23768823D01*
X39094723Y-23539004D01*
X38712547Y-23380702D01*
X38306832Y-23300000D01*
X37893168Y-23300000D01*
X37487453Y-23380702D01*
X37105277Y-23539004D01*
X36761328Y-23768823D01*
X36468823Y-24061328D01*
X36239004Y-24405277D01*
X36080702Y-24787453D01*
X36000000Y-25193168D01*
X22647000Y-25193168D01*
X22647000Y-24757725D01*
X24449726Y-22955000D01*
X56278275Y-22955000D01*
X57827000Y-24503726D01*
G37*
%TD.AperFunction*%
%TD*%
M02*
