%TF.GenerationSoftware,KiCad,Pcbnew,5.1.10-88a1d61d58~89~ubuntu20.04.1*%
%TF.CreationDate,2022-01-03T20:00:55+01:00*%
%TF.ProjectId,PowerBankAlwaysActive,506f7765-7242-4616-9e6b-416c77617973,rev?*%
%TF.SameCoordinates,Original*%
%TF.FileFunction,Copper,L1,Top*%
%TF.FilePolarity,Positive*%
%FSLAX46Y46*%
G04 Gerber Fmt 4.6, Leading zero omitted, Abs format (unit mm)*
G04 Created by KiCad (PCBNEW 5.1.10-88a1d61d58~89~ubuntu20.04.1) date 2022-01-03 20:00:55*
%MOMM*%
%LPD*%
G01*
G04 APERTURE LIST*
%TA.AperFunction,SMDPad,CuDef*%
%ADD10R,0.900000X0.800000*%
%TD*%
%TA.AperFunction,ComponentPad*%
%ADD11R,1.700000X1.700000*%
%TD*%
%TA.AperFunction,ComponentPad*%
%ADD12O,1.700000X1.700000*%
%TD*%
%TA.AperFunction,ComponentPad*%
%ADD13C,2.600000*%
%TD*%
%TA.AperFunction,ConnectorPad*%
%ADD14C,3.500000*%
%TD*%
%TA.AperFunction,ViaPad*%
%ADD15C,0.800000*%
%TD*%
%TA.AperFunction,Conductor*%
%ADD16C,0.750000*%
%TD*%
%TA.AperFunction,Conductor*%
%ADD17C,0.500000*%
%TD*%
%TA.AperFunction,Conductor*%
%ADD18C,0.250000*%
%TD*%
G04 APERTURE END LIST*
%TO.P,C2,1*%
%TO.N,+5V*%
%TA.AperFunction,SMDPad,CuDef*%
G36*
G01*
X42457000Y-27860002D02*
X42457000Y-26559998D01*
G75*
G02*
X42706998Y-26310000I249998J0D01*
G01*
X43532002Y-26310000D01*
G75*
G02*
X43782000Y-26559998I0J-249998D01*
G01*
X43782000Y-27860002D01*
G75*
G02*
X43532002Y-28110000I-249998J0D01*
G01*
X42706998Y-28110000D01*
G75*
G02*
X42457000Y-27860002I0J249998D01*
G01*
G37*
%TD.AperFunction*%
%TO.P,C2,2*%
%TO.N,GND*%
%TA.AperFunction,SMDPad,CuDef*%
G36*
G01*
X45582000Y-27860002D02*
X45582000Y-26559998D01*
G75*
G02*
X45831998Y-26310000I249998J0D01*
G01*
X46657002Y-26310000D01*
G75*
G02*
X46907000Y-26559998I0J-249998D01*
G01*
X46907000Y-27860002D01*
G75*
G02*
X46657002Y-28110000I-249998J0D01*
G01*
X45831998Y-28110000D01*
G75*
G02*
X45582000Y-27860002I0J249998D01*
G01*
G37*
%TD.AperFunction*%
%TD*%
%TO.P,D1,1*%
%TO.N,/trig*%
%TA.AperFunction,SMDPad,CuDef*%
G36*
G01*
X28311000Y-32505000D02*
X27061000Y-32505000D01*
G75*
G02*
X26811000Y-32255000I0J250000D01*
G01*
X26811000Y-31505000D01*
G75*
G02*
X27061000Y-31255000I250000J0D01*
G01*
X28311000Y-31255000D01*
G75*
G02*
X28561000Y-31505000I0J-250000D01*
G01*
X28561000Y-32255000D01*
G75*
G02*
X28311000Y-32505000I-250000J0D01*
G01*
G37*
%TD.AperFunction*%
%TO.P,D1,2*%
%TO.N,/disch*%
%TA.AperFunction,SMDPad,CuDef*%
G36*
G01*
X28311000Y-29705000D02*
X27061000Y-29705000D01*
G75*
G02*
X26811000Y-29455000I0J250000D01*
G01*
X26811000Y-28705000D01*
G75*
G02*
X27061000Y-28455000I250000J0D01*
G01*
X28311000Y-28455000D01*
G75*
G02*
X28561000Y-28705000I0J-250000D01*
G01*
X28561000Y-29455000D01*
G75*
G02*
X28311000Y-29705000I-250000J0D01*
G01*
G37*
%TD.AperFunction*%
%TD*%
%TO.P,D2,1*%
%TO.N,Net-(D2-Pad1)*%
%TA.AperFunction,SMDPad,CuDef*%
G36*
G01*
X52746000Y-24045000D02*
X52746000Y-25295000D01*
G75*
G02*
X52496000Y-25545000I-250000J0D01*
G01*
X51571000Y-25545000D01*
G75*
G02*
X51321000Y-25295000I0J250000D01*
G01*
X51321000Y-24045000D01*
G75*
G02*
X51571000Y-23795000I250000J0D01*
G01*
X52496000Y-23795000D01*
G75*
G02*
X52746000Y-24045000I0J-250000D01*
G01*
G37*
%TD.AperFunction*%
%TO.P,D2,2*%
%TO.N,Net-(D2-Pad2)*%
%TA.AperFunction,SMDPad,CuDef*%
G36*
G01*
X49771000Y-24045000D02*
X49771000Y-25295000D01*
G75*
G02*
X49521000Y-25545000I-250000J0D01*
G01*
X48596000Y-25545000D01*
G75*
G02*
X48346000Y-25295000I0J250000D01*
G01*
X48346000Y-24045000D01*
G75*
G02*
X48596000Y-23795000I250000J0D01*
G01*
X49521000Y-23795000D01*
G75*
G02*
X49771000Y-24045000I0J-250000D01*
G01*
G37*
%TD.AperFunction*%
%TD*%
D10*
%TO.P,Q1,1*%
%TO.N,Net-(Q1-Pad1)*%
X49038000Y-34610000D03*
%TO.P,Q1,2*%
%TO.N,GND*%
X49038000Y-36510000D03*
%TO.P,Q1,3*%
%TO.N,Net-(D2-Pad1)*%
X51038000Y-35560000D03*
%TD*%
%TO.P,R1,2*%
%TO.N,/disch*%
%TA.AperFunction,SMDPad,CuDef*%
G36*
G01*
X29808000Y-25282999D02*
X29808000Y-26533001D01*
G75*
G02*
X29558001Y-26783000I-249999J0D01*
G01*
X28757999Y-26783000D01*
G75*
G02*
X28508000Y-26533001I0J249999D01*
G01*
X28508000Y-25282999D01*
G75*
G02*
X28757999Y-25033000I249999J0D01*
G01*
X29558001Y-25033000D01*
G75*
G02*
X29808000Y-25282999I0J-249999D01*
G01*
G37*
%TD.AperFunction*%
%TO.P,R1,1*%
%TO.N,+5V*%
%TA.AperFunction,SMDPad,CuDef*%
G36*
G01*
X32908000Y-25282999D02*
X32908000Y-26533001D01*
G75*
G02*
X32658001Y-26783000I-249999J0D01*
G01*
X31857999Y-26783000D01*
G75*
G02*
X31608000Y-26533001I0J249999D01*
G01*
X31608000Y-25282999D01*
G75*
G02*
X31857999Y-25033000I249999J0D01*
G01*
X32658001Y-25033000D01*
G75*
G02*
X32908000Y-25282999I0J-249999D01*
G01*
G37*
%TD.AperFunction*%
%TD*%
%TO.P,R2,1*%
%TO.N,/disch*%
%TA.AperFunction,SMDPad,CuDef*%
G36*
G01*
X29600999Y-28280000D02*
X30851001Y-28280000D01*
G75*
G02*
X31101000Y-28529999I0J-249999D01*
G01*
X31101000Y-29330001D01*
G75*
G02*
X30851001Y-29580000I-249999J0D01*
G01*
X29600999Y-29580000D01*
G75*
G02*
X29351000Y-29330001I0J249999D01*
G01*
X29351000Y-28529999D01*
G75*
G02*
X29600999Y-28280000I249999J0D01*
G01*
G37*
%TD.AperFunction*%
%TO.P,R2,2*%
%TO.N,/trig*%
%TA.AperFunction,SMDPad,CuDef*%
G36*
G01*
X29600999Y-31380000D02*
X30851001Y-31380000D01*
G75*
G02*
X31101000Y-31629999I0J-249999D01*
G01*
X31101000Y-32430001D01*
G75*
G02*
X30851001Y-32680000I-249999J0D01*
G01*
X29600999Y-32680000D01*
G75*
G02*
X29351000Y-32430001I0J249999D01*
G01*
X29351000Y-31629999D01*
G75*
G02*
X29600999Y-31380000I249999J0D01*
G01*
G37*
%TD.AperFunction*%
%TD*%
%TO.P,R3,1*%
%TO.N,Net-(Q1-Pad1)*%
%TA.AperFunction,SMDPad,CuDef*%
G36*
G01*
X46142000Y-33664999D02*
X46142000Y-34915001D01*
G75*
G02*
X45892001Y-35165000I-249999J0D01*
G01*
X45091999Y-35165000D01*
G75*
G02*
X44842000Y-34915001I0J249999D01*
G01*
X44842000Y-33664999D01*
G75*
G02*
X45091999Y-33415000I249999J0D01*
G01*
X45892001Y-33415000D01*
G75*
G02*
X46142000Y-33664999I0J-249999D01*
G01*
G37*
%TD.AperFunction*%
%TO.P,R3,2*%
%TO.N,/output*%
%TA.AperFunction,SMDPad,CuDef*%
G36*
G01*
X43042000Y-33664999D02*
X43042000Y-34915001D01*
G75*
G02*
X42792001Y-35165000I-249999J0D01*
G01*
X41991999Y-35165000D01*
G75*
G02*
X41742000Y-34915001I0J249999D01*
G01*
X41742000Y-33664999D01*
G75*
G02*
X41991999Y-33415000I249999J0D01*
G01*
X42792001Y-33415000D01*
G75*
G02*
X43042000Y-33664999I0J-249999D01*
G01*
G37*
%TD.AperFunction*%
%TD*%
%TO.P,R4,1*%
%TO.N,Net-(D2-Pad1)*%
%TA.AperFunction,SMDPad,CuDef*%
G36*
G01*
X53766000Y-29308999D02*
X53766000Y-32159001D01*
G75*
G02*
X53516001Y-32409000I-249999J0D01*
G01*
X52615999Y-32409000D01*
G75*
G02*
X52366000Y-32159001I0J249999D01*
G01*
X52366000Y-29308999D01*
G75*
G02*
X52615999Y-29059000I249999J0D01*
G01*
X53516001Y-29059000D01*
G75*
G02*
X53766000Y-29308999I0J-249999D01*
G01*
G37*
%TD.AperFunction*%
%TO.P,R4,2*%
%TO.N,+5V*%
%TA.AperFunction,SMDPad,CuDef*%
G36*
G01*
X47666000Y-29308999D02*
X47666000Y-32159001D01*
G75*
G02*
X47416001Y-32409000I-249999J0D01*
G01*
X46515999Y-32409000D01*
G75*
G02*
X46266000Y-32159001I0J249999D01*
G01*
X46266000Y-29308999D01*
G75*
G02*
X46515999Y-29059000I249999J0D01*
G01*
X47416001Y-29059000D01*
G75*
G02*
X47666000Y-29308999I0J-249999D01*
G01*
G37*
%TD.AperFunction*%
%TD*%
%TO.P,R5,2*%
%TO.N,Net-(D2-Pad2)*%
%TA.AperFunction,SMDPad,CuDef*%
G36*
G01*
X45582000Y-25295001D02*
X45582000Y-24044999D01*
G75*
G02*
X45831999Y-23795000I249999J0D01*
G01*
X46632001Y-23795000D01*
G75*
G02*
X46882000Y-24044999I0J-249999D01*
G01*
X46882000Y-25295001D01*
G75*
G02*
X46632001Y-25545000I-249999J0D01*
G01*
X45831999Y-25545000D01*
G75*
G02*
X45582000Y-25295001I0J249999D01*
G01*
G37*
%TD.AperFunction*%
%TO.P,R5,1*%
%TO.N,+5V*%
%TA.AperFunction,SMDPad,CuDef*%
G36*
G01*
X42482000Y-25295001D02*
X42482000Y-24044999D01*
G75*
G02*
X42731999Y-23795000I249999J0D01*
G01*
X43532001Y-23795000D01*
G75*
G02*
X43782000Y-24044999I0J-249999D01*
G01*
X43782000Y-25295001D01*
G75*
G02*
X43532001Y-25545000I-249999J0D01*
G01*
X42731999Y-25545000D01*
G75*
G02*
X42482000Y-25295001I0J249999D01*
G01*
G37*
%TD.AperFunction*%
%TD*%
%TO.P,U1,1*%
%TO.N,GND*%
%TA.AperFunction,SMDPad,CuDef*%
G36*
G01*
X40534000Y-36807000D02*
X40534000Y-37107000D01*
G75*
G02*
X40384000Y-37257000I-150000J0D01*
G01*
X38734000Y-37257000D01*
G75*
G02*
X38584000Y-37107000I0J150000D01*
G01*
X38584000Y-36807000D01*
G75*
G02*
X38734000Y-36657000I150000J0D01*
G01*
X40384000Y-36657000D01*
G75*
G02*
X40534000Y-36807000I0J-150000D01*
G01*
G37*
%TD.AperFunction*%
%TO.P,U1,2*%
%TO.N,/trig*%
%TA.AperFunction,SMDPad,CuDef*%
G36*
G01*
X40534000Y-35537000D02*
X40534000Y-35837000D01*
G75*
G02*
X40384000Y-35987000I-150000J0D01*
G01*
X38734000Y-35987000D01*
G75*
G02*
X38584000Y-35837000I0J150000D01*
G01*
X38584000Y-35537000D01*
G75*
G02*
X38734000Y-35387000I150000J0D01*
G01*
X40384000Y-35387000D01*
G75*
G02*
X40534000Y-35537000I0J-150000D01*
G01*
G37*
%TD.AperFunction*%
%TO.P,U1,3*%
%TO.N,/output*%
%TA.AperFunction,SMDPad,CuDef*%
G36*
G01*
X40534000Y-34267000D02*
X40534000Y-34567000D01*
G75*
G02*
X40384000Y-34717000I-150000J0D01*
G01*
X38734000Y-34717000D01*
G75*
G02*
X38584000Y-34567000I0J150000D01*
G01*
X38584000Y-34267000D01*
G75*
G02*
X38734000Y-34117000I150000J0D01*
G01*
X40384000Y-34117000D01*
G75*
G02*
X40534000Y-34267000I0J-150000D01*
G01*
G37*
%TD.AperFunction*%
%TO.P,U1,4*%
%TO.N,Net-(R6-Pad1)*%
%TA.AperFunction,SMDPad,CuDef*%
G36*
G01*
X40534000Y-32997000D02*
X40534000Y-33297000D01*
G75*
G02*
X40384000Y-33447000I-150000J0D01*
G01*
X38734000Y-33447000D01*
G75*
G02*
X38584000Y-33297000I0J150000D01*
G01*
X38584000Y-32997000D01*
G75*
G02*
X38734000Y-32847000I150000J0D01*
G01*
X40384000Y-32847000D01*
G75*
G02*
X40534000Y-32997000I0J-150000D01*
G01*
G37*
%TD.AperFunction*%
%TO.P,U1,5*%
%TO.N,Net-(U1-Pad5)*%
%TA.AperFunction,SMDPad,CuDef*%
G36*
G01*
X35584000Y-32997000D02*
X35584000Y-33297000D01*
G75*
G02*
X35434000Y-33447000I-150000J0D01*
G01*
X33784000Y-33447000D01*
G75*
G02*
X33634000Y-33297000I0J150000D01*
G01*
X33634000Y-32997000D01*
G75*
G02*
X33784000Y-32847000I150000J0D01*
G01*
X35434000Y-32847000D01*
G75*
G02*
X35584000Y-32997000I0J-150000D01*
G01*
G37*
%TD.AperFunction*%
%TO.P,U1,6*%
%TO.N,/trig*%
%TA.AperFunction,SMDPad,CuDef*%
G36*
G01*
X35584000Y-34267000D02*
X35584000Y-34567000D01*
G75*
G02*
X35434000Y-34717000I-150000J0D01*
G01*
X33784000Y-34717000D01*
G75*
G02*
X33634000Y-34567000I0J150000D01*
G01*
X33634000Y-34267000D01*
G75*
G02*
X33784000Y-34117000I150000J0D01*
G01*
X35434000Y-34117000D01*
G75*
G02*
X35584000Y-34267000I0J-150000D01*
G01*
G37*
%TD.AperFunction*%
%TO.P,U1,7*%
%TO.N,/disch*%
%TA.AperFunction,SMDPad,CuDef*%
G36*
G01*
X35584000Y-35537000D02*
X35584000Y-35837000D01*
G75*
G02*
X35434000Y-35987000I-150000J0D01*
G01*
X33784000Y-35987000D01*
G75*
G02*
X33634000Y-35837000I0J150000D01*
G01*
X33634000Y-35537000D01*
G75*
G02*
X33784000Y-35387000I150000J0D01*
G01*
X35434000Y-35387000D01*
G75*
G02*
X35584000Y-35537000I0J-150000D01*
G01*
G37*
%TD.AperFunction*%
%TO.P,U1,8*%
%TO.N,+5V*%
%TA.AperFunction,SMDPad,CuDef*%
G36*
G01*
X35584000Y-36807000D02*
X35584000Y-37107000D01*
G75*
G02*
X35434000Y-37257000I-150000J0D01*
G01*
X33784000Y-37257000D01*
G75*
G02*
X33634000Y-37107000I0J150000D01*
G01*
X33634000Y-36807000D01*
G75*
G02*
X33784000Y-36657000I150000J0D01*
G01*
X35434000Y-36657000D01*
G75*
G02*
X35584000Y-36807000I0J-150000D01*
G01*
G37*
%TD.AperFunction*%
%TD*%
D11*
%TO.P,J1,1*%
%TO.N,+5V*%
X25400000Y-36576000D03*
D12*
%TO.P,J1,2*%
%TO.N,GND*%
X25400000Y-39116000D03*
%TD*%
%TO.P,J2,2*%
%TO.N,GND*%
X55626000Y-39116000D03*
D11*
%TO.P,J2,1*%
%TO.N,+5V*%
X55626000Y-36576000D03*
%TD*%
D13*
%TO.P,H1,1*%
%TO.N,N/C*%
X30734000Y-41402000D03*
D14*
X30734000Y-41402000D03*
%TD*%
%TO.P,H2,1*%
%TO.N,N/C*%
X49784000Y-41402000D03*
D13*
X49784000Y-41402000D03*
%TD*%
%TO.P,H3,1*%
%TO.N,N/C*%
X38100000Y-25400000D03*
D14*
X38100000Y-25400000D03*
%TD*%
%TO.P,C3,1*%
%TO.N,+5V*%
%TA.AperFunction,SMDPad,CuDef*%
G36*
G01*
X33567000Y-40052002D02*
X33567000Y-38751998D01*
G75*
G02*
X33816998Y-38502000I249998J0D01*
G01*
X34642002Y-38502000D01*
G75*
G02*
X34892000Y-38751998I0J-249998D01*
G01*
X34892000Y-40052002D01*
G75*
G02*
X34642002Y-40302000I-249998J0D01*
G01*
X33816998Y-40302000D01*
G75*
G02*
X33567000Y-40052002I0J249998D01*
G01*
G37*
%TD.AperFunction*%
%TO.P,C3,2*%
%TO.N,GND*%
%TA.AperFunction,SMDPad,CuDef*%
G36*
G01*
X36692000Y-40052002D02*
X36692000Y-38751998D01*
G75*
G02*
X36941998Y-38502000I249998J0D01*
G01*
X37767002Y-38502000D01*
G75*
G02*
X38017000Y-38751998I0J-249998D01*
G01*
X38017000Y-40052002D01*
G75*
G02*
X37767002Y-40302000I-249998J0D01*
G01*
X36941998Y-40302000D01*
G75*
G02*
X36692000Y-40052002I0J249998D01*
G01*
G37*
%TD.AperFunction*%
%TD*%
%TO.P,C1,1*%
%TO.N,/trig*%
%TA.AperFunction,SMDPad,CuDef*%
G36*
G01*
X29575999Y-33294000D02*
X30876001Y-33294000D01*
G75*
G02*
X31126000Y-33543999I0J-249999D01*
G01*
X31126000Y-34194001D01*
G75*
G02*
X30876001Y-34444000I-249999J0D01*
G01*
X29575999Y-34444000D01*
G75*
G02*
X29326000Y-34194001I0J249999D01*
G01*
X29326000Y-33543999D01*
G75*
G02*
X29575999Y-33294000I249999J0D01*
G01*
G37*
%TD.AperFunction*%
%TO.P,C1,2*%
%TO.N,GND*%
%TA.AperFunction,SMDPad,CuDef*%
G36*
G01*
X29575999Y-36244000D02*
X30876001Y-36244000D01*
G75*
G02*
X31126000Y-36493999I0J-249999D01*
G01*
X31126000Y-37144001D01*
G75*
G02*
X30876001Y-37394000I-249999J0D01*
G01*
X29575999Y-37394000D01*
G75*
G02*
X29326000Y-37144001I0J249999D01*
G01*
X29326000Y-36493999D01*
G75*
G02*
X29575999Y-36244000I249999J0D01*
G01*
G37*
%TD.AperFunction*%
%TD*%
%TO.P,R6,1*%
%TO.N,Net-(R6-Pad1)*%
%TA.AperFunction,SMDPad,CuDef*%
G36*
G01*
X40678000Y-30883000D02*
X40678000Y-29633000D01*
G75*
G02*
X40928000Y-29383000I250000J0D01*
G01*
X41728000Y-29383000D01*
G75*
G02*
X41978000Y-29633000I0J-250000D01*
G01*
X41978000Y-30883000D01*
G75*
G02*
X41728000Y-31133000I-250000J0D01*
G01*
X40928000Y-31133000D01*
G75*
G02*
X40678000Y-30883000I0J250000D01*
G01*
G37*
%TD.AperFunction*%
%TO.P,R6,2*%
%TO.N,+5V*%
%TA.AperFunction,SMDPad,CuDef*%
G36*
G01*
X43778000Y-30883000D02*
X43778000Y-29633000D01*
G75*
G02*
X44028000Y-29383000I250000J0D01*
G01*
X44828000Y-29383000D01*
G75*
G02*
X45078000Y-29633000I0J-250000D01*
G01*
X45078000Y-30883000D01*
G75*
G02*
X44828000Y-31133000I-250000J0D01*
G01*
X44028000Y-31133000D01*
G75*
G02*
X43778000Y-30883000I0J250000D01*
G01*
G37*
%TD.AperFunction*%
%TD*%
D11*
%TO.P,gnd,1*%
%TO.N,GND*%
X44936000Y-42196000D03*
%TD*%
%TO.P,+5,1*%
%TO.N,+5V*%
X40872000Y-42196000D03*
%TD*%
%TO.P,trig,1*%
%TO.N,/trig*%
X33760000Y-29496000D03*
%TD*%
%TO.P,out,1*%
%TO.N,/output*%
X37824000Y-29496000D03*
%TD*%
D15*
%TO.N,GND*%
X47476000Y-36608000D03*
X39094000Y-39402000D03*
X31982000Y-34912998D03*
X48746000Y-27210000D03*
%TO.N,+5V*%
X34014000Y-25940000D03*
X34014000Y-41688000D03*
X41126000Y-24670000D03*
%TD*%
D16*
%TO.N,/trig*%
X27836000Y-32030000D02*
X27686000Y-31880000D01*
X30226000Y-32030000D02*
X27836000Y-32030000D01*
D17*
X39559000Y-35687000D02*
X40967000Y-35687000D01*
X40967000Y-35687000D02*
X40872000Y-35592000D01*
X40872000Y-35592000D02*
X37570000Y-35592000D01*
X36395000Y-34417000D02*
X34609000Y-34417000D01*
X37570000Y-35592000D02*
X36395000Y-34417000D01*
X32692002Y-33371998D02*
X30723002Y-33371998D01*
X30723002Y-33371998D02*
X30226000Y-33869000D01*
X33737004Y-34417000D02*
X32692002Y-33371998D01*
X34609000Y-34417000D02*
X33737004Y-34417000D01*
D16*
X28481000Y-33869000D02*
X30226000Y-33869000D01*
X27686000Y-33074000D02*
X28481000Y-33869000D01*
X27686000Y-31880000D02*
X27686000Y-33074000D01*
D17*
X32692002Y-30563998D02*
X32692002Y-33371998D01*
X33760000Y-29496000D02*
X32692002Y-30563998D01*
D16*
%TO.N,GND*%
X47574000Y-36510000D02*
X47476000Y-36608000D01*
X49038000Y-36510000D02*
X47574000Y-36510000D01*
D17*
X37354500Y-39402000D02*
X39094000Y-39402000D01*
X39559000Y-36957000D02*
X37983000Y-36957000D01*
X37354500Y-37585500D02*
X37354500Y-39402000D01*
X37983000Y-36957000D02*
X37354500Y-37585500D01*
X41539000Y-36957000D02*
X39559000Y-36957000D01*
D16*
X30226000Y-36668998D02*
X31982000Y-34912998D01*
X30226000Y-36819000D02*
X30226000Y-36668998D01*
D17*
X46244500Y-27210000D02*
X48746000Y-27210000D01*
D16*
%TO.N,+5V*%
X33982000Y-25908000D02*
X34014000Y-25940000D01*
X32258000Y-25908000D02*
X33982000Y-25908000D01*
D17*
X34229500Y-41472500D02*
X34014000Y-41688000D01*
X34229500Y-39402000D02*
X34229500Y-41472500D01*
X34229500Y-39402000D02*
X34229500Y-37336500D01*
X34229500Y-37336500D02*
X34609000Y-36957000D01*
D16*
X43132000Y-24670000D02*
X41126000Y-24670000D01*
D17*
X44904000Y-30734000D02*
X46966000Y-30734000D01*
X44428000Y-30258000D02*
X44904000Y-30734000D01*
X43132000Y-27197500D02*
X43119500Y-27210000D01*
X43132000Y-24670000D02*
X43132000Y-27197500D01*
X43119500Y-27210000D02*
X43119500Y-27933500D01*
X44428000Y-29242000D02*
X44428000Y-30258000D01*
X43119500Y-27933500D02*
X44428000Y-29242000D01*
D16*
%TO.N,/disch*%
X29158000Y-25908000D02*
X28966000Y-25908000D01*
X27686000Y-27188000D02*
X27686000Y-29080000D01*
X28966000Y-25908000D02*
X27686000Y-27188000D01*
X30076000Y-29080000D02*
X30226000Y-28930000D01*
X27686000Y-29080000D02*
X30076000Y-29080000D01*
%TO.N,Net-(D2-Pad1)*%
X51826000Y-35560000D02*
X51038000Y-35560000D01*
X54842000Y-32544000D02*
X51826000Y-35560000D01*
X54842000Y-30766000D02*
X54842000Y-32544000D01*
X54810000Y-30734000D02*
X54842000Y-30766000D01*
X53066000Y-30734000D02*
X54810000Y-30734000D01*
X54842000Y-25686000D02*
X54842000Y-30766000D01*
X53826000Y-24670000D02*
X54842000Y-25686000D01*
X52033500Y-24670000D02*
X53826000Y-24670000D01*
%TO.N,Net-(D2-Pad2)*%
X46508000Y-24670000D02*
X49058500Y-24670000D01*
%TO.N,Net-(Q1-Pad1)*%
X48718000Y-34290000D02*
X49038000Y-34610000D01*
X45492000Y-34290000D02*
X48718000Y-34290000D01*
D17*
%TO.N,/output*%
X42265000Y-34417000D02*
X42392000Y-34290000D01*
X39559000Y-34417000D02*
X42265000Y-34417000D01*
X37665000Y-34417000D02*
X39559000Y-34417000D01*
X37316000Y-30004000D02*
X37316000Y-34068000D01*
X37316000Y-34068000D02*
X37665000Y-34417000D01*
X37824000Y-29496000D02*
X37316000Y-30004000D01*
%TO.N,/disch*%
X28426000Y-37624000D02*
X28426000Y-35592000D01*
X29188000Y-38386000D02*
X28426000Y-37624000D01*
X25378000Y-32544000D02*
X25378000Y-29496000D01*
X31728000Y-38386000D02*
X29188000Y-38386000D01*
X32236000Y-37878000D02*
X31728000Y-38386000D01*
X28426000Y-35592000D02*
X25378000Y-32544000D01*
X32236000Y-36236004D02*
X32236000Y-37878000D01*
X32785004Y-35687000D02*
X32236000Y-36236004D01*
X25794000Y-29080000D02*
X27686000Y-29080000D01*
X25378000Y-29496000D02*
X25794000Y-29080000D01*
X34609000Y-35687000D02*
X32785004Y-35687000D01*
D18*
%TO.N,Net-(R6-Pad1)*%
X41031000Y-33147000D02*
X39559000Y-33147000D01*
X41328000Y-32850000D02*
X41031000Y-33147000D01*
X41328000Y-30258000D02*
X41328000Y-32850000D01*
%TD*%
M02*
