%TF.GenerationSoftware,KiCad,Pcbnew,5.1.10-88a1d61d58~89~ubuntu20.04.1*%
%TF.CreationDate,2021-12-18T07:17:50+01:00*%
%TF.ProjectId,PowerBankAlwaysActive,506f7765-7242-4616-9e6b-416c77617973,rev?*%
%TF.SameCoordinates,Original*%
%TF.FileFunction,Paste,Top*%
%TF.FilePolarity,Positive*%
%FSLAX46Y46*%
G04 Gerber Fmt 4.6, Leading zero omitted, Abs format (unit mm)*
G04 Created by KiCad (PCBNEW 5.1.10-88a1d61d58~89~ubuntu20.04.1) date 2021-12-18 07:17:50*
%MOMM*%
%LPD*%
G01*
G04 APERTURE LIST*
%ADD10R,0.900000X0.800000*%
G04 APERTURE END LIST*
%TO.C,C1*%
G36*
G01*
X29950999Y-33919000D02*
X30501001Y-33919000D01*
G75*
G02*
X30751000Y-34168999I0J-249999D01*
G01*
X30751000Y-34919001D01*
G75*
G02*
X30501001Y-35169000I-249999J0D01*
G01*
X29950999Y-35169000D01*
G75*
G02*
X29701000Y-34919001I0J249999D01*
G01*
X29701000Y-34168999D01*
G75*
G02*
X29950999Y-33919000I249999J0D01*
G01*
G37*
G36*
G01*
X29950999Y-35519000D02*
X30501001Y-35519000D01*
G75*
G02*
X30751000Y-35768999I0J-249999D01*
G01*
X30751000Y-36519001D01*
G75*
G02*
X30501001Y-36769000I-249999J0D01*
G01*
X29950999Y-36769000D01*
G75*
G02*
X29701000Y-36519001I0J249999D01*
G01*
X29701000Y-35768999D01*
G75*
G02*
X29950999Y-35519000I249999J0D01*
G01*
G37*
%TD*%
%TO.C,C2*%
G36*
G01*
X42081000Y-29321999D02*
X42081000Y-30622001D01*
G75*
G02*
X41831001Y-30872000I-249999J0D01*
G01*
X41005999Y-30872000D01*
G75*
G02*
X40756000Y-30622001I0J249999D01*
G01*
X40756000Y-29321999D01*
G75*
G02*
X41005999Y-29072000I249999J0D01*
G01*
X41831001Y-29072000D01*
G75*
G02*
X42081000Y-29321999I0J-249999D01*
G01*
G37*
G36*
G01*
X38956000Y-29321999D02*
X38956000Y-30622001D01*
G75*
G02*
X38706001Y-30872000I-249999J0D01*
G01*
X37880999Y-30872000D01*
G75*
G02*
X37631000Y-30622001I0J249999D01*
G01*
X37631000Y-29321999D01*
G75*
G02*
X37880999Y-29072000I249999J0D01*
G01*
X38706001Y-29072000D01*
G75*
G02*
X38956000Y-29321999I0J-249999D01*
G01*
G37*
%TD*%
%TO.C,D1*%
G36*
G01*
X28311000Y-32505000D02*
X27061000Y-32505000D01*
G75*
G02*
X26811000Y-32255000I0J250000D01*
G01*
X26811000Y-31505000D01*
G75*
G02*
X27061000Y-31255000I250000J0D01*
G01*
X28311000Y-31255000D01*
G75*
G02*
X28561000Y-31505000I0J-250000D01*
G01*
X28561000Y-32255000D01*
G75*
G02*
X28311000Y-32505000I-250000J0D01*
G01*
G37*
G36*
G01*
X28311000Y-29705000D02*
X27061000Y-29705000D01*
G75*
G02*
X26811000Y-29455000I0J250000D01*
G01*
X26811000Y-28705000D01*
G75*
G02*
X27061000Y-28455000I250000J0D01*
G01*
X28311000Y-28455000D01*
G75*
G02*
X28561000Y-28705000I0J-250000D01*
G01*
X28561000Y-29455000D01*
G75*
G02*
X28311000Y-29705000I-250000J0D01*
G01*
G37*
%TD*%
%TO.C,D2*%
G36*
G01*
X52746000Y-26045000D02*
X52746000Y-27295000D01*
G75*
G02*
X52496000Y-27545000I-250000J0D01*
G01*
X51571000Y-27545000D01*
G75*
G02*
X51321000Y-27295000I0J250000D01*
G01*
X51321000Y-26045000D01*
G75*
G02*
X51571000Y-25795000I250000J0D01*
G01*
X52496000Y-25795000D01*
G75*
G02*
X52746000Y-26045000I0J-250000D01*
G01*
G37*
G36*
G01*
X49771000Y-26045000D02*
X49771000Y-27295000D01*
G75*
G02*
X49521000Y-27545000I-250000J0D01*
G01*
X48596000Y-27545000D01*
G75*
G02*
X48346000Y-27295000I0J250000D01*
G01*
X48346000Y-26045000D01*
G75*
G02*
X48596000Y-25795000I250000J0D01*
G01*
X49521000Y-25795000D01*
G75*
G02*
X49771000Y-26045000I0J-250000D01*
G01*
G37*
%TD*%
D10*
%TO.C,Q1*%
X49038000Y-34610000D03*
X49038000Y-36510000D03*
X51038000Y-35560000D03*
%TD*%
%TO.C,R1*%
G36*
G01*
X29808000Y-25283000D02*
X29808000Y-26533000D01*
G75*
G02*
X29558000Y-26783000I-250000J0D01*
G01*
X28758000Y-26783000D01*
G75*
G02*
X28508000Y-26533000I0J250000D01*
G01*
X28508000Y-25283000D01*
G75*
G02*
X28758000Y-25033000I250000J0D01*
G01*
X29558000Y-25033000D01*
G75*
G02*
X29808000Y-25283000I0J-250000D01*
G01*
G37*
G36*
G01*
X32908000Y-25283000D02*
X32908000Y-26533000D01*
G75*
G02*
X32658000Y-26783000I-250000J0D01*
G01*
X31858000Y-26783000D01*
G75*
G02*
X31608000Y-26533000I0J250000D01*
G01*
X31608000Y-25283000D01*
G75*
G02*
X31858000Y-25033000I250000J0D01*
G01*
X32658000Y-25033000D01*
G75*
G02*
X32908000Y-25283000I0J-250000D01*
G01*
G37*
%TD*%
%TO.C,R2*%
G36*
G01*
X29601000Y-28280000D02*
X30851000Y-28280000D01*
G75*
G02*
X31101000Y-28530000I0J-250000D01*
G01*
X31101000Y-29330000D01*
G75*
G02*
X30851000Y-29580000I-250000J0D01*
G01*
X29601000Y-29580000D01*
G75*
G02*
X29351000Y-29330000I0J250000D01*
G01*
X29351000Y-28530000D01*
G75*
G02*
X29601000Y-28280000I250000J0D01*
G01*
G37*
G36*
G01*
X29601000Y-31380000D02*
X30851000Y-31380000D01*
G75*
G02*
X31101000Y-31630000I0J-250000D01*
G01*
X31101000Y-32430000D01*
G75*
G02*
X30851000Y-32680000I-250000J0D01*
G01*
X29601000Y-32680000D01*
G75*
G02*
X29351000Y-32430000I0J250000D01*
G01*
X29351000Y-31630000D01*
G75*
G02*
X29601000Y-31380000I250000J0D01*
G01*
G37*
%TD*%
%TO.C,R3*%
G36*
G01*
X46142000Y-33665000D02*
X46142000Y-34915000D01*
G75*
G02*
X45892000Y-35165000I-250000J0D01*
G01*
X45092000Y-35165000D01*
G75*
G02*
X44842000Y-34915000I0J250000D01*
G01*
X44842000Y-33665000D01*
G75*
G02*
X45092000Y-33415000I250000J0D01*
G01*
X45892000Y-33415000D01*
G75*
G02*
X46142000Y-33665000I0J-250000D01*
G01*
G37*
G36*
G01*
X43042000Y-33665000D02*
X43042000Y-34915000D01*
G75*
G02*
X42792000Y-35165000I-250000J0D01*
G01*
X41992000Y-35165000D01*
G75*
G02*
X41742000Y-34915000I0J250000D01*
G01*
X41742000Y-33665000D01*
G75*
G02*
X41992000Y-33415000I250000J0D01*
G01*
X42792000Y-33415000D01*
G75*
G02*
X43042000Y-33665000I0J-250000D01*
G01*
G37*
%TD*%
%TO.C,R4*%
G36*
G01*
X52772000Y-29308999D02*
X52772000Y-32159001D01*
G75*
G02*
X52522001Y-32409000I-249999J0D01*
G01*
X51621999Y-32409000D01*
G75*
G02*
X51372000Y-32159001I0J249999D01*
G01*
X51372000Y-29308999D01*
G75*
G02*
X51621999Y-29059000I249999J0D01*
G01*
X52522001Y-29059000D01*
G75*
G02*
X52772000Y-29308999I0J-249999D01*
G01*
G37*
G36*
G01*
X46672000Y-29308999D02*
X46672000Y-32159001D01*
G75*
G02*
X46422001Y-32409000I-249999J0D01*
G01*
X45521999Y-32409000D01*
G75*
G02*
X45272000Y-32159001I0J249999D01*
G01*
X45272000Y-29308999D01*
G75*
G02*
X45521999Y-29059000I249999J0D01*
G01*
X46422001Y-29059000D01*
G75*
G02*
X46672000Y-29308999I0J-249999D01*
G01*
G37*
%TD*%
%TO.C,R5*%
G36*
G01*
X45858000Y-27295000D02*
X45858000Y-26045000D01*
G75*
G02*
X46108000Y-25795000I250000J0D01*
G01*
X46908000Y-25795000D01*
G75*
G02*
X47158000Y-26045000I0J-250000D01*
G01*
X47158000Y-27295000D01*
G75*
G02*
X46908000Y-27545000I-250000J0D01*
G01*
X46108000Y-27545000D01*
G75*
G02*
X45858000Y-27295000I0J250000D01*
G01*
G37*
G36*
G01*
X42758000Y-27295000D02*
X42758000Y-26045000D01*
G75*
G02*
X43008000Y-25795000I250000J0D01*
G01*
X43808000Y-25795000D01*
G75*
G02*
X44058000Y-26045000I0J-250000D01*
G01*
X44058000Y-27295000D01*
G75*
G02*
X43808000Y-27545000I-250000J0D01*
G01*
X43008000Y-27545000D01*
G75*
G02*
X42758000Y-27295000I0J250000D01*
G01*
G37*
%TD*%
%TO.C,U1*%
G36*
G01*
X40534000Y-36807000D02*
X40534000Y-37107000D01*
G75*
G02*
X40384000Y-37257000I-150000J0D01*
G01*
X38734000Y-37257000D01*
G75*
G02*
X38584000Y-37107000I0J150000D01*
G01*
X38584000Y-36807000D01*
G75*
G02*
X38734000Y-36657000I150000J0D01*
G01*
X40384000Y-36657000D01*
G75*
G02*
X40534000Y-36807000I0J-150000D01*
G01*
G37*
G36*
G01*
X40534000Y-35537000D02*
X40534000Y-35837000D01*
G75*
G02*
X40384000Y-35987000I-150000J0D01*
G01*
X38734000Y-35987000D01*
G75*
G02*
X38584000Y-35837000I0J150000D01*
G01*
X38584000Y-35537000D01*
G75*
G02*
X38734000Y-35387000I150000J0D01*
G01*
X40384000Y-35387000D01*
G75*
G02*
X40534000Y-35537000I0J-150000D01*
G01*
G37*
G36*
G01*
X40534000Y-34267000D02*
X40534000Y-34567000D01*
G75*
G02*
X40384000Y-34717000I-150000J0D01*
G01*
X38734000Y-34717000D01*
G75*
G02*
X38584000Y-34567000I0J150000D01*
G01*
X38584000Y-34267000D01*
G75*
G02*
X38734000Y-34117000I150000J0D01*
G01*
X40384000Y-34117000D01*
G75*
G02*
X40534000Y-34267000I0J-150000D01*
G01*
G37*
G36*
G01*
X40534000Y-32997000D02*
X40534000Y-33297000D01*
G75*
G02*
X40384000Y-33447000I-150000J0D01*
G01*
X38734000Y-33447000D01*
G75*
G02*
X38584000Y-33297000I0J150000D01*
G01*
X38584000Y-32997000D01*
G75*
G02*
X38734000Y-32847000I150000J0D01*
G01*
X40384000Y-32847000D01*
G75*
G02*
X40534000Y-32997000I0J-150000D01*
G01*
G37*
G36*
G01*
X35584000Y-32997000D02*
X35584000Y-33297000D01*
G75*
G02*
X35434000Y-33447000I-150000J0D01*
G01*
X33784000Y-33447000D01*
G75*
G02*
X33634000Y-33297000I0J150000D01*
G01*
X33634000Y-32997000D01*
G75*
G02*
X33784000Y-32847000I150000J0D01*
G01*
X35434000Y-32847000D01*
G75*
G02*
X35584000Y-32997000I0J-150000D01*
G01*
G37*
G36*
G01*
X35584000Y-34267000D02*
X35584000Y-34567000D01*
G75*
G02*
X35434000Y-34717000I-150000J0D01*
G01*
X33784000Y-34717000D01*
G75*
G02*
X33634000Y-34567000I0J150000D01*
G01*
X33634000Y-34267000D01*
G75*
G02*
X33784000Y-34117000I150000J0D01*
G01*
X35434000Y-34117000D01*
G75*
G02*
X35584000Y-34267000I0J-150000D01*
G01*
G37*
G36*
G01*
X35584000Y-35537000D02*
X35584000Y-35837000D01*
G75*
G02*
X35434000Y-35987000I-150000J0D01*
G01*
X33784000Y-35987000D01*
G75*
G02*
X33634000Y-35837000I0J150000D01*
G01*
X33634000Y-35537000D01*
G75*
G02*
X33784000Y-35387000I150000J0D01*
G01*
X35434000Y-35387000D01*
G75*
G02*
X35584000Y-35537000I0J-150000D01*
G01*
G37*
G36*
G01*
X35584000Y-36807000D02*
X35584000Y-37107000D01*
G75*
G02*
X35434000Y-37257000I-150000J0D01*
G01*
X33784000Y-37257000D01*
G75*
G02*
X33634000Y-37107000I0J150000D01*
G01*
X33634000Y-36807000D01*
G75*
G02*
X33784000Y-36657000I150000J0D01*
G01*
X35434000Y-36657000D01*
G75*
G02*
X35584000Y-36807000I0J-150000D01*
G01*
G37*
%TD*%
%TO.C,C3*%
G36*
G01*
X33567000Y-40052001D02*
X33567000Y-38751999D01*
G75*
G02*
X33816999Y-38502000I249999J0D01*
G01*
X34642001Y-38502000D01*
G75*
G02*
X34892000Y-38751999I0J-249999D01*
G01*
X34892000Y-40052001D01*
G75*
G02*
X34642001Y-40302000I-249999J0D01*
G01*
X33816999Y-40302000D01*
G75*
G02*
X33567000Y-40052001I0J249999D01*
G01*
G37*
G36*
G01*
X36692000Y-40052001D02*
X36692000Y-38751999D01*
G75*
G02*
X36941999Y-38502000I249999J0D01*
G01*
X37767001Y-38502000D01*
G75*
G02*
X38017000Y-38751999I0J-249999D01*
G01*
X38017000Y-40052001D01*
G75*
G02*
X37767001Y-40302000I-249999J0D01*
G01*
X36941999Y-40302000D01*
G75*
G02*
X36692000Y-40052001I0J249999D01*
G01*
G37*
%TD*%
M02*
