%TF.GenerationSoftware,KiCad,Pcbnew,5.1.10-88a1d61d58~89~ubuntu20.04.1*%
%TF.CreationDate,2021-12-18T07:17:50+01:00*%
%TF.ProjectId,PowerBankAlwaysActive,506f7765-7242-4616-9e6b-416c77617973,rev?*%
%TF.SameCoordinates,Original*%
%TF.FileFunction,Copper,L3,Inr*%
%TF.FilePolarity,Positive*%
%FSLAX46Y46*%
G04 Gerber Fmt 4.6, Leading zero omitted, Abs format (unit mm)*
G04 Created by KiCad (PCBNEW 5.1.10-88a1d61d58~89~ubuntu20.04.1) date 2021-12-18 07:17:50*
%MOMM*%
%LPD*%
G01*
G04 APERTURE LIST*
%TA.AperFunction,ComponentPad*%
%ADD10R,1.700000X1.700000*%
%TD*%
%TA.AperFunction,ComponentPad*%
%ADD11O,1.700000X1.700000*%
%TD*%
%TA.AperFunction,ComponentPad*%
%ADD12C,2.600000*%
%TD*%
%TA.AperFunction,ViaPad*%
%ADD13C,0.800000*%
%TD*%
%TA.AperFunction,Conductor*%
%ADD14C,0.100000*%
%TD*%
G04 APERTURE END LIST*
D10*
%TO.N,+5V*%
%TO.C,J1*%
X25400000Y-36576000D03*
D11*
%TO.N,GND*%
X25400000Y-39116000D03*
%TD*%
%TO.N,GND*%
%TO.C,J2*%
X55626000Y-39116000D03*
D10*
%TO.N,+5V*%
X55626000Y-36576000D03*
%TD*%
D12*
%TO.N,N/C*%
%TO.C,H1*%
X30734000Y-41402000D03*
%TD*%
%TO.N,N/C*%
%TO.C,H2*%
X49784000Y-41402000D03*
%TD*%
%TO.N,N/C*%
%TO.C,H3*%
X38100000Y-25400000D03*
%TD*%
D13*
%TO.N,GND*%
X36554000Y-31020000D03*
X47476000Y-36608000D03*
X39094000Y-39402000D03*
X31982000Y-34912998D03*
%TO.N,+5V*%
X34014000Y-25940000D03*
X41634000Y-25940000D03*
X34014000Y-41688000D03*
%TD*%
D14*
%TO.N,GND*%
X57827000Y-24503726D02*
X57827001Y-38182147D01*
X57678448Y-37872022D01*
X57396323Y-37495512D01*
X57279870Y-37391006D01*
X57279870Y-35726000D01*
X57264424Y-35569173D01*
X57218679Y-35418372D01*
X57144393Y-35279394D01*
X57044422Y-35157578D01*
X56922606Y-35057607D01*
X56783628Y-34983321D01*
X56632827Y-34937576D01*
X56476000Y-34922130D01*
X54776000Y-34922130D01*
X54619173Y-34937576D01*
X54468372Y-34983321D01*
X54329394Y-35057607D01*
X54207578Y-35157578D01*
X54107607Y-35279394D01*
X54033321Y-35418372D01*
X53987576Y-35569173D01*
X53972130Y-35726000D01*
X53972130Y-37391006D01*
X53855677Y-37495512D01*
X53573552Y-37872022D01*
X53370301Y-38296337D01*
X53295080Y-38544326D01*
X53623463Y-38916000D01*
X55426000Y-38916000D01*
X55426000Y-38896000D01*
X55826000Y-38896000D01*
X55826000Y-38916000D01*
X55846000Y-38916000D01*
X55846000Y-39316000D01*
X55826000Y-39316000D01*
X55826000Y-41120157D01*
X56197675Y-41446925D01*
X56641431Y-41290609D01*
X57046165Y-41050724D01*
X57396323Y-40736488D01*
X57678448Y-40359978D01*
X57827001Y-40049853D01*
X57827001Y-43124273D01*
X56278275Y-44673000D01*
X24703726Y-44673000D01*
X22647000Y-42616275D01*
X22647000Y-39687674D01*
X23069080Y-39687674D01*
X23144301Y-39935663D01*
X23347552Y-40359978D01*
X23629677Y-40736488D01*
X23979835Y-41050724D01*
X24384569Y-41290609D01*
X24828325Y-41446925D01*
X25200000Y-41120157D01*
X25200000Y-39316000D01*
X25600000Y-39316000D01*
X25600000Y-41120157D01*
X25971675Y-41446925D01*
X26415431Y-41290609D01*
X26576459Y-41195168D01*
X28634000Y-41195168D01*
X28634000Y-41608832D01*
X28714702Y-42014547D01*
X28873004Y-42396723D01*
X29102823Y-42740672D01*
X29395328Y-43033177D01*
X29739277Y-43262996D01*
X30121453Y-43421298D01*
X30527168Y-43502000D01*
X30940832Y-43502000D01*
X31346547Y-43421298D01*
X31728723Y-43262996D01*
X32072672Y-43033177D01*
X32365177Y-42740672D01*
X32594996Y-42396723D01*
X32753298Y-42014547D01*
X32814000Y-41709378D01*
X32814000Y-41806190D01*
X32860116Y-42038027D01*
X32950574Y-42256413D01*
X33081899Y-42452955D01*
X33249045Y-42620101D01*
X33445587Y-42751426D01*
X33663973Y-42841884D01*
X33895810Y-42888000D01*
X34132190Y-42888000D01*
X34364027Y-42841884D01*
X34582413Y-42751426D01*
X34778955Y-42620101D01*
X34946101Y-42452955D01*
X35077426Y-42256413D01*
X35167884Y-42038027D01*
X35214000Y-41806190D01*
X35214000Y-41569810D01*
X35167884Y-41337973D01*
X35108733Y-41195168D01*
X47684000Y-41195168D01*
X47684000Y-41608832D01*
X47764702Y-42014547D01*
X47923004Y-42396723D01*
X48152823Y-42740672D01*
X48445328Y-43033177D01*
X48789277Y-43262996D01*
X49171453Y-43421298D01*
X49577168Y-43502000D01*
X49990832Y-43502000D01*
X50396547Y-43421298D01*
X50778723Y-43262996D01*
X51122672Y-43033177D01*
X51415177Y-42740672D01*
X51644996Y-42396723D01*
X51803298Y-42014547D01*
X51884000Y-41608832D01*
X51884000Y-41195168D01*
X51803298Y-40789453D01*
X51644996Y-40407277D01*
X51415177Y-40063328D01*
X51122672Y-39770823D01*
X50998231Y-39687674D01*
X53295080Y-39687674D01*
X53370301Y-39935663D01*
X53573552Y-40359978D01*
X53855677Y-40736488D01*
X54205835Y-41050724D01*
X54610569Y-41290609D01*
X55054325Y-41446925D01*
X55426000Y-41120157D01*
X55426000Y-39316000D01*
X53623463Y-39316000D01*
X53295080Y-39687674D01*
X50998231Y-39687674D01*
X50778723Y-39541004D01*
X50396547Y-39382702D01*
X49990832Y-39302000D01*
X49577168Y-39302000D01*
X49171453Y-39382702D01*
X48789277Y-39541004D01*
X48445328Y-39770823D01*
X48152823Y-40063328D01*
X47923004Y-40407277D01*
X47764702Y-40789453D01*
X47684000Y-41195168D01*
X35108733Y-41195168D01*
X35077426Y-41119587D01*
X34946101Y-40923045D01*
X34778955Y-40755899D01*
X34582413Y-40624574D01*
X34364027Y-40534116D01*
X34132190Y-40488000D01*
X33895810Y-40488000D01*
X33663973Y-40534116D01*
X33445587Y-40624574D01*
X33249045Y-40755899D01*
X33081899Y-40923045D01*
X32950574Y-41119587D01*
X32860116Y-41337973D01*
X32834000Y-41469265D01*
X32834000Y-41195168D01*
X32753298Y-40789453D01*
X32594996Y-40407277D01*
X32365177Y-40063328D01*
X32072672Y-39770823D01*
X31728723Y-39541004D01*
X31346547Y-39382702D01*
X30940832Y-39302000D01*
X30527168Y-39302000D01*
X30121453Y-39382702D01*
X29739277Y-39541004D01*
X29395328Y-39770823D01*
X29102823Y-40063328D01*
X28873004Y-40407277D01*
X28714702Y-40789453D01*
X28634000Y-41195168D01*
X26576459Y-41195168D01*
X26820165Y-41050724D01*
X27170323Y-40736488D01*
X27452448Y-40359978D01*
X27655699Y-39935663D01*
X27730920Y-39687674D01*
X27402537Y-39316000D01*
X25600000Y-39316000D01*
X25200000Y-39316000D01*
X23397463Y-39316000D01*
X23069080Y-39687674D01*
X22647000Y-39687674D01*
X22647000Y-38544326D01*
X23069080Y-38544326D01*
X23397463Y-38916000D01*
X25200000Y-38916000D01*
X25200000Y-38896000D01*
X25600000Y-38896000D01*
X25600000Y-38916000D01*
X27402537Y-38916000D01*
X27730920Y-38544326D01*
X27655699Y-38296337D01*
X27452448Y-37872022D01*
X27170323Y-37495512D01*
X27053870Y-37391006D01*
X27053870Y-35726000D01*
X27038424Y-35569173D01*
X26992679Y-35418372D01*
X26918393Y-35279394D01*
X26818422Y-35157578D01*
X26696606Y-35057607D01*
X26557628Y-34983321D01*
X26406827Y-34937576D01*
X26250000Y-34922130D01*
X24550000Y-34922130D01*
X24393173Y-34937576D01*
X24242372Y-34983321D01*
X24103394Y-35057607D01*
X23981578Y-35157578D01*
X23881607Y-35279394D01*
X23807321Y-35418372D01*
X23761576Y-35569173D01*
X23746130Y-35726000D01*
X23746130Y-37391006D01*
X23629677Y-37495512D01*
X23347552Y-37872022D01*
X23144301Y-38296337D01*
X23069080Y-38544326D01*
X22647000Y-38544326D01*
X22647000Y-25821810D01*
X32814000Y-25821810D01*
X32814000Y-26058190D01*
X32860116Y-26290027D01*
X32950574Y-26508413D01*
X33081899Y-26704955D01*
X33249045Y-26872101D01*
X33445587Y-27003426D01*
X33663973Y-27093884D01*
X33895810Y-27140000D01*
X34132190Y-27140000D01*
X34364027Y-27093884D01*
X34582413Y-27003426D01*
X34778955Y-26872101D01*
X34946101Y-26704955D01*
X35077426Y-26508413D01*
X35167884Y-26290027D01*
X35214000Y-26058190D01*
X35214000Y-25821810D01*
X35167884Y-25589973D01*
X35077426Y-25371587D01*
X34958211Y-25193168D01*
X36000000Y-25193168D01*
X36000000Y-25606832D01*
X36080702Y-26012547D01*
X36239004Y-26394723D01*
X36468823Y-26738672D01*
X36761328Y-27031177D01*
X37105277Y-27260996D01*
X37487453Y-27419298D01*
X37893168Y-27500000D01*
X38306832Y-27500000D01*
X38712547Y-27419298D01*
X39094723Y-27260996D01*
X39438672Y-27031177D01*
X39731177Y-26738672D01*
X39960996Y-26394723D01*
X40119298Y-26012547D01*
X40157238Y-25821810D01*
X40434000Y-25821810D01*
X40434000Y-26058190D01*
X40480116Y-26290027D01*
X40570574Y-26508413D01*
X40701899Y-26704955D01*
X40869045Y-26872101D01*
X41065587Y-27003426D01*
X41283973Y-27093884D01*
X41515810Y-27140000D01*
X41752190Y-27140000D01*
X41984027Y-27093884D01*
X42202413Y-27003426D01*
X42398955Y-26872101D01*
X42566101Y-26704955D01*
X42697426Y-26508413D01*
X42787884Y-26290027D01*
X42834000Y-26058190D01*
X42834000Y-25821810D01*
X42787884Y-25589973D01*
X42697426Y-25371587D01*
X42566101Y-25175045D01*
X42398955Y-25007899D01*
X42202413Y-24876574D01*
X41984027Y-24786116D01*
X41752190Y-24740000D01*
X41515810Y-24740000D01*
X41283973Y-24786116D01*
X41065587Y-24876574D01*
X40869045Y-25007899D01*
X40701899Y-25175045D01*
X40570574Y-25371587D01*
X40480116Y-25589973D01*
X40434000Y-25821810D01*
X40157238Y-25821810D01*
X40200000Y-25606832D01*
X40200000Y-25193168D01*
X40119298Y-24787453D01*
X39960996Y-24405277D01*
X39731177Y-24061328D01*
X39438672Y-23768823D01*
X39094723Y-23539004D01*
X38712547Y-23380702D01*
X38306832Y-23300000D01*
X37893168Y-23300000D01*
X37487453Y-23380702D01*
X37105277Y-23539004D01*
X36761328Y-23768823D01*
X36468823Y-24061328D01*
X36239004Y-24405277D01*
X36080702Y-24787453D01*
X36000000Y-25193168D01*
X34958211Y-25193168D01*
X34946101Y-25175045D01*
X34778955Y-25007899D01*
X34582413Y-24876574D01*
X34364027Y-24786116D01*
X34132190Y-24740000D01*
X33895810Y-24740000D01*
X33663973Y-24786116D01*
X33445587Y-24876574D01*
X33249045Y-25007899D01*
X33081899Y-25175045D01*
X32950574Y-25371587D01*
X32860116Y-25589973D01*
X32814000Y-25821810D01*
X22647000Y-25821810D01*
X22647000Y-24757725D01*
X24449726Y-22955000D01*
X56278275Y-22955000D01*
X57827000Y-24503726D01*
%TA.AperFunction,Conductor*%
G36*
X57827000Y-24503726D02*
G01*
X57827001Y-38182147D01*
X57678448Y-37872022D01*
X57396323Y-37495512D01*
X57279870Y-37391006D01*
X57279870Y-35726000D01*
X57264424Y-35569173D01*
X57218679Y-35418372D01*
X57144393Y-35279394D01*
X57044422Y-35157578D01*
X56922606Y-35057607D01*
X56783628Y-34983321D01*
X56632827Y-34937576D01*
X56476000Y-34922130D01*
X54776000Y-34922130D01*
X54619173Y-34937576D01*
X54468372Y-34983321D01*
X54329394Y-35057607D01*
X54207578Y-35157578D01*
X54107607Y-35279394D01*
X54033321Y-35418372D01*
X53987576Y-35569173D01*
X53972130Y-35726000D01*
X53972130Y-37391006D01*
X53855677Y-37495512D01*
X53573552Y-37872022D01*
X53370301Y-38296337D01*
X53295080Y-38544326D01*
X53623463Y-38916000D01*
X55426000Y-38916000D01*
X55426000Y-38896000D01*
X55826000Y-38896000D01*
X55826000Y-38916000D01*
X55846000Y-38916000D01*
X55846000Y-39316000D01*
X55826000Y-39316000D01*
X55826000Y-41120157D01*
X56197675Y-41446925D01*
X56641431Y-41290609D01*
X57046165Y-41050724D01*
X57396323Y-40736488D01*
X57678448Y-40359978D01*
X57827001Y-40049853D01*
X57827001Y-43124273D01*
X56278275Y-44673000D01*
X24703726Y-44673000D01*
X22647000Y-42616275D01*
X22647000Y-39687674D01*
X23069080Y-39687674D01*
X23144301Y-39935663D01*
X23347552Y-40359978D01*
X23629677Y-40736488D01*
X23979835Y-41050724D01*
X24384569Y-41290609D01*
X24828325Y-41446925D01*
X25200000Y-41120157D01*
X25200000Y-39316000D01*
X25600000Y-39316000D01*
X25600000Y-41120157D01*
X25971675Y-41446925D01*
X26415431Y-41290609D01*
X26576459Y-41195168D01*
X28634000Y-41195168D01*
X28634000Y-41608832D01*
X28714702Y-42014547D01*
X28873004Y-42396723D01*
X29102823Y-42740672D01*
X29395328Y-43033177D01*
X29739277Y-43262996D01*
X30121453Y-43421298D01*
X30527168Y-43502000D01*
X30940832Y-43502000D01*
X31346547Y-43421298D01*
X31728723Y-43262996D01*
X32072672Y-43033177D01*
X32365177Y-42740672D01*
X32594996Y-42396723D01*
X32753298Y-42014547D01*
X32814000Y-41709378D01*
X32814000Y-41806190D01*
X32860116Y-42038027D01*
X32950574Y-42256413D01*
X33081899Y-42452955D01*
X33249045Y-42620101D01*
X33445587Y-42751426D01*
X33663973Y-42841884D01*
X33895810Y-42888000D01*
X34132190Y-42888000D01*
X34364027Y-42841884D01*
X34582413Y-42751426D01*
X34778955Y-42620101D01*
X34946101Y-42452955D01*
X35077426Y-42256413D01*
X35167884Y-42038027D01*
X35214000Y-41806190D01*
X35214000Y-41569810D01*
X35167884Y-41337973D01*
X35108733Y-41195168D01*
X47684000Y-41195168D01*
X47684000Y-41608832D01*
X47764702Y-42014547D01*
X47923004Y-42396723D01*
X48152823Y-42740672D01*
X48445328Y-43033177D01*
X48789277Y-43262996D01*
X49171453Y-43421298D01*
X49577168Y-43502000D01*
X49990832Y-43502000D01*
X50396547Y-43421298D01*
X50778723Y-43262996D01*
X51122672Y-43033177D01*
X51415177Y-42740672D01*
X51644996Y-42396723D01*
X51803298Y-42014547D01*
X51884000Y-41608832D01*
X51884000Y-41195168D01*
X51803298Y-40789453D01*
X51644996Y-40407277D01*
X51415177Y-40063328D01*
X51122672Y-39770823D01*
X50998231Y-39687674D01*
X53295080Y-39687674D01*
X53370301Y-39935663D01*
X53573552Y-40359978D01*
X53855677Y-40736488D01*
X54205835Y-41050724D01*
X54610569Y-41290609D01*
X55054325Y-41446925D01*
X55426000Y-41120157D01*
X55426000Y-39316000D01*
X53623463Y-39316000D01*
X53295080Y-39687674D01*
X50998231Y-39687674D01*
X50778723Y-39541004D01*
X50396547Y-39382702D01*
X49990832Y-39302000D01*
X49577168Y-39302000D01*
X49171453Y-39382702D01*
X48789277Y-39541004D01*
X48445328Y-39770823D01*
X48152823Y-40063328D01*
X47923004Y-40407277D01*
X47764702Y-40789453D01*
X47684000Y-41195168D01*
X35108733Y-41195168D01*
X35077426Y-41119587D01*
X34946101Y-40923045D01*
X34778955Y-40755899D01*
X34582413Y-40624574D01*
X34364027Y-40534116D01*
X34132190Y-40488000D01*
X33895810Y-40488000D01*
X33663973Y-40534116D01*
X33445587Y-40624574D01*
X33249045Y-40755899D01*
X33081899Y-40923045D01*
X32950574Y-41119587D01*
X32860116Y-41337973D01*
X32834000Y-41469265D01*
X32834000Y-41195168D01*
X32753298Y-40789453D01*
X32594996Y-40407277D01*
X32365177Y-40063328D01*
X32072672Y-39770823D01*
X31728723Y-39541004D01*
X31346547Y-39382702D01*
X30940832Y-39302000D01*
X30527168Y-39302000D01*
X30121453Y-39382702D01*
X29739277Y-39541004D01*
X29395328Y-39770823D01*
X29102823Y-40063328D01*
X28873004Y-40407277D01*
X28714702Y-40789453D01*
X28634000Y-41195168D01*
X26576459Y-41195168D01*
X26820165Y-41050724D01*
X27170323Y-40736488D01*
X27452448Y-40359978D01*
X27655699Y-39935663D01*
X27730920Y-39687674D01*
X27402537Y-39316000D01*
X25600000Y-39316000D01*
X25200000Y-39316000D01*
X23397463Y-39316000D01*
X23069080Y-39687674D01*
X22647000Y-39687674D01*
X22647000Y-38544326D01*
X23069080Y-38544326D01*
X23397463Y-38916000D01*
X25200000Y-38916000D01*
X25200000Y-38896000D01*
X25600000Y-38896000D01*
X25600000Y-38916000D01*
X27402537Y-38916000D01*
X27730920Y-38544326D01*
X27655699Y-38296337D01*
X27452448Y-37872022D01*
X27170323Y-37495512D01*
X27053870Y-37391006D01*
X27053870Y-35726000D01*
X27038424Y-35569173D01*
X26992679Y-35418372D01*
X26918393Y-35279394D01*
X26818422Y-35157578D01*
X26696606Y-35057607D01*
X26557628Y-34983321D01*
X26406827Y-34937576D01*
X26250000Y-34922130D01*
X24550000Y-34922130D01*
X24393173Y-34937576D01*
X24242372Y-34983321D01*
X24103394Y-35057607D01*
X23981578Y-35157578D01*
X23881607Y-35279394D01*
X23807321Y-35418372D01*
X23761576Y-35569173D01*
X23746130Y-35726000D01*
X23746130Y-37391006D01*
X23629677Y-37495512D01*
X23347552Y-37872022D01*
X23144301Y-38296337D01*
X23069080Y-38544326D01*
X22647000Y-38544326D01*
X22647000Y-25821810D01*
X32814000Y-25821810D01*
X32814000Y-26058190D01*
X32860116Y-26290027D01*
X32950574Y-26508413D01*
X33081899Y-26704955D01*
X33249045Y-26872101D01*
X33445587Y-27003426D01*
X33663973Y-27093884D01*
X33895810Y-27140000D01*
X34132190Y-27140000D01*
X34364027Y-27093884D01*
X34582413Y-27003426D01*
X34778955Y-26872101D01*
X34946101Y-26704955D01*
X35077426Y-26508413D01*
X35167884Y-26290027D01*
X35214000Y-26058190D01*
X35214000Y-25821810D01*
X35167884Y-25589973D01*
X35077426Y-25371587D01*
X34958211Y-25193168D01*
X36000000Y-25193168D01*
X36000000Y-25606832D01*
X36080702Y-26012547D01*
X36239004Y-26394723D01*
X36468823Y-26738672D01*
X36761328Y-27031177D01*
X37105277Y-27260996D01*
X37487453Y-27419298D01*
X37893168Y-27500000D01*
X38306832Y-27500000D01*
X38712547Y-27419298D01*
X39094723Y-27260996D01*
X39438672Y-27031177D01*
X39731177Y-26738672D01*
X39960996Y-26394723D01*
X40119298Y-26012547D01*
X40157238Y-25821810D01*
X40434000Y-25821810D01*
X40434000Y-26058190D01*
X40480116Y-26290027D01*
X40570574Y-26508413D01*
X40701899Y-26704955D01*
X40869045Y-26872101D01*
X41065587Y-27003426D01*
X41283973Y-27093884D01*
X41515810Y-27140000D01*
X41752190Y-27140000D01*
X41984027Y-27093884D01*
X42202413Y-27003426D01*
X42398955Y-26872101D01*
X42566101Y-26704955D01*
X42697426Y-26508413D01*
X42787884Y-26290027D01*
X42834000Y-26058190D01*
X42834000Y-25821810D01*
X42787884Y-25589973D01*
X42697426Y-25371587D01*
X42566101Y-25175045D01*
X42398955Y-25007899D01*
X42202413Y-24876574D01*
X41984027Y-24786116D01*
X41752190Y-24740000D01*
X41515810Y-24740000D01*
X41283973Y-24786116D01*
X41065587Y-24876574D01*
X40869045Y-25007899D01*
X40701899Y-25175045D01*
X40570574Y-25371587D01*
X40480116Y-25589973D01*
X40434000Y-25821810D01*
X40157238Y-25821810D01*
X40200000Y-25606832D01*
X40200000Y-25193168D01*
X40119298Y-24787453D01*
X39960996Y-24405277D01*
X39731177Y-24061328D01*
X39438672Y-23768823D01*
X39094723Y-23539004D01*
X38712547Y-23380702D01*
X38306832Y-23300000D01*
X37893168Y-23300000D01*
X37487453Y-23380702D01*
X37105277Y-23539004D01*
X36761328Y-23768823D01*
X36468823Y-24061328D01*
X36239004Y-24405277D01*
X36080702Y-24787453D01*
X36000000Y-25193168D01*
X34958211Y-25193168D01*
X34946101Y-25175045D01*
X34778955Y-25007899D01*
X34582413Y-24876574D01*
X34364027Y-24786116D01*
X34132190Y-24740000D01*
X33895810Y-24740000D01*
X33663973Y-24786116D01*
X33445587Y-24876574D01*
X33249045Y-25007899D01*
X33081899Y-25175045D01*
X32950574Y-25371587D01*
X32860116Y-25589973D01*
X32814000Y-25821810D01*
X22647000Y-25821810D01*
X22647000Y-24757725D01*
X24449726Y-22955000D01*
X56278275Y-22955000D01*
X57827000Y-24503726D01*
G37*
%TD.AperFunction*%
%TD*%
M02*
