%TF.GenerationSoftware,KiCad,Pcbnew,5.1.10-88a1d61d58~89~ubuntu20.04.1*%
%TF.CreationDate,2022-01-03T20:00:55+01:00*%
%TF.ProjectId,PowerBankAlwaysActive,506f7765-7242-4616-9e6b-416c77617973,rev?*%
%TF.SameCoordinates,Original*%
%TF.FileFunction,Legend,Top*%
%TF.FilePolarity,Positive*%
%FSLAX46Y46*%
G04 Gerber Fmt 4.6, Leading zero omitted, Abs format (unit mm)*
G04 Created by KiCad (PCBNEW 5.1.10-88a1d61d58~89~ubuntu20.04.1) date 2022-01-03 20:00:55*
%MOMM*%
%LPD*%
G01*
G04 APERTURE LIST*
%ADD10C,0.200000*%
%ADD11C,0.120000*%
%ADD12C,0.150000*%
G04 APERTURE END LIST*
D10*
X24480380Y-42425428D02*
X24480380Y-43477809D01*
X24418476Y-43601619D01*
X24356571Y-43663523D01*
X24232761Y-43725428D01*
X24047047Y-43725428D01*
X23923238Y-43663523D01*
X24480380Y-43230190D02*
X24356571Y-43292095D01*
X24108952Y-43292095D01*
X23985142Y-43230190D01*
X23923238Y-43168285D01*
X23861333Y-43044476D01*
X23861333Y-42673047D01*
X23923238Y-42549238D01*
X23985142Y-42487333D01*
X24108952Y-42425428D01*
X24356571Y-42425428D01*
X24480380Y-42487333D01*
X25099428Y-42425428D02*
X25099428Y-43292095D01*
X25099428Y-42549238D02*
X25161333Y-42487333D01*
X25285142Y-42425428D01*
X25470857Y-42425428D01*
X25594666Y-42487333D01*
X25656571Y-42611142D01*
X25656571Y-43292095D01*
X26832761Y-43292095D02*
X26832761Y-41992095D01*
X26832761Y-43230190D02*
X26708952Y-43292095D01*
X26461333Y-43292095D01*
X26337523Y-43230190D01*
X26275619Y-43168285D01*
X26213714Y-43044476D01*
X26213714Y-42673047D01*
X26275619Y-42549238D01*
X26337523Y-42487333D01*
X26461333Y-42425428D01*
X26708952Y-42425428D01*
X26832761Y-42487333D01*
X23755714Y-33144857D02*
X24746190Y-33144857D01*
X24250952Y-33640095D02*
X24250952Y-32649619D01*
X25984285Y-32340095D02*
X25365238Y-32340095D01*
X25303333Y-32959142D01*
X25365238Y-32897238D01*
X25489047Y-32835333D01*
X25798571Y-32835333D01*
X25922380Y-32897238D01*
X25984285Y-32959142D01*
X26046190Y-33082952D01*
X26046190Y-33392476D01*
X25984285Y-33516285D01*
X25922380Y-33578190D01*
X25798571Y-33640095D01*
X25489047Y-33640095D01*
X25365238Y-33578190D01*
X25303333Y-33516285D01*
X54452380Y-42425428D02*
X54452380Y-43477809D01*
X54390476Y-43601619D01*
X54328571Y-43663523D01*
X54204761Y-43725428D01*
X54019047Y-43725428D01*
X53895238Y-43663523D01*
X54452380Y-43230190D02*
X54328571Y-43292095D01*
X54080952Y-43292095D01*
X53957142Y-43230190D01*
X53895238Y-43168285D01*
X53833333Y-43044476D01*
X53833333Y-42673047D01*
X53895238Y-42549238D01*
X53957142Y-42487333D01*
X54080952Y-42425428D01*
X54328571Y-42425428D01*
X54452380Y-42487333D01*
X55071428Y-42425428D02*
X55071428Y-43292095D01*
X55071428Y-42549238D02*
X55133333Y-42487333D01*
X55257142Y-42425428D01*
X55442857Y-42425428D01*
X55566666Y-42487333D01*
X55628571Y-42611142D01*
X55628571Y-43292095D01*
X56804761Y-43292095D02*
X56804761Y-41992095D01*
X56804761Y-43230190D02*
X56680952Y-43292095D01*
X56433333Y-43292095D01*
X56309523Y-43230190D01*
X56247619Y-43168285D01*
X56185714Y-43044476D01*
X56185714Y-42673047D01*
X56247619Y-42549238D01*
X56309523Y-42487333D01*
X56433333Y-42425428D01*
X56680952Y-42425428D01*
X56804761Y-42487333D01*
X53727714Y-33144857D02*
X54718190Y-33144857D01*
X54222952Y-33640095D02*
X54222952Y-32649619D01*
X55956285Y-32340095D02*
X55337238Y-32340095D01*
X55275333Y-32959142D01*
X55337238Y-32897238D01*
X55461047Y-32835333D01*
X55770571Y-32835333D01*
X55894380Y-32897238D01*
X55956285Y-32959142D01*
X56018190Y-33082952D01*
X56018190Y-33392476D01*
X55956285Y-33516285D01*
X55894380Y-33578190D01*
X55770571Y-33640095D01*
X55461047Y-33640095D01*
X55337238Y-33578190D01*
X55275333Y-33516285D01*
D11*
%TO.C,C2*%
X43970748Y-26300000D02*
X45393252Y-26300000D01*
X43970748Y-28120000D02*
X45393252Y-28120000D01*
%TO.C,D1*%
X26551000Y-28880000D02*
X26551000Y-32765000D01*
X26551000Y-32765000D02*
X28821000Y-32765000D01*
X28821000Y-32765000D02*
X28821000Y-28880000D01*
%TO.C,D2*%
X48946000Y-25805000D02*
X53006000Y-25805000D01*
X53006000Y-25805000D02*
X53006000Y-23535000D01*
X53006000Y-23535000D02*
X48946000Y-23535000D01*
%TO.C,Q1*%
X50798000Y-37140000D02*
X50798000Y-36210000D01*
X50798000Y-33980000D02*
X50798000Y-34910000D01*
X50798000Y-33980000D02*
X48638000Y-33980000D01*
X50798000Y-37140000D02*
X49338000Y-37140000D01*
%TO.C,R1*%
X31435064Y-24998000D02*
X29980936Y-24998000D01*
X31435064Y-26818000D02*
X29980936Y-26818000D01*
%TO.C,R2*%
X31136000Y-29752936D02*
X31136000Y-31207064D01*
X29316000Y-29752936D02*
X29316000Y-31207064D01*
%TO.C,R3*%
X44669064Y-35200000D02*
X43214936Y-35200000D01*
X44669064Y-33380000D02*
X43214936Y-33380000D01*
%TO.C,R4*%
X52193064Y-32444000D02*
X47838936Y-32444000D01*
X52193064Y-29024000D02*
X47838936Y-29024000D01*
%TO.C,R5*%
X43954936Y-25580000D02*
X45409064Y-25580000D01*
X43954936Y-23760000D02*
X45409064Y-23760000D01*
%TO.C,U1*%
X37084000Y-32492000D02*
X35134000Y-32492000D01*
X37084000Y-32492000D02*
X39034000Y-32492000D01*
X37084000Y-37612000D02*
X35134000Y-37612000D01*
X37084000Y-37612000D02*
X40534000Y-37612000D01*
%TO.C,J1*%
X24070000Y-35246000D02*
X25400000Y-35246000D01*
X24070000Y-36576000D02*
X24070000Y-35246000D01*
X24070000Y-37846000D02*
X26730000Y-37846000D01*
X26730000Y-37846000D02*
X26730000Y-40446000D01*
X24070000Y-37846000D02*
X24070000Y-40446000D01*
X24070000Y-40446000D02*
X26730000Y-40446000D01*
%TO.C,J2*%
X54296000Y-40446000D02*
X56956000Y-40446000D01*
X54296000Y-37846000D02*
X54296000Y-40446000D01*
X56956000Y-37846000D02*
X56956000Y-40446000D01*
X54296000Y-37846000D02*
X56956000Y-37846000D01*
X54296000Y-36576000D02*
X54296000Y-35246000D01*
X54296000Y-35246000D02*
X55626000Y-35246000D01*
%TO.C,C3*%
X35080748Y-40312000D02*
X36503252Y-40312000D01*
X35080748Y-38492000D02*
X36503252Y-38492000D01*
%TO.C,C1*%
X29316000Y-34632748D02*
X29316000Y-36055252D01*
X31136000Y-34632748D02*
X31136000Y-36055252D01*
%TO.C,R6*%
X42150936Y-31168000D02*
X43605064Y-31168000D01*
X42150936Y-29348000D02*
X43605064Y-29348000D01*
%TO.C,gnd*%
X43606000Y-40866000D02*
X44936000Y-40866000D01*
X43606000Y-42196000D02*
X43606000Y-40866000D01*
X43606000Y-43466000D02*
X46266000Y-43466000D01*
X46266000Y-43466000D02*
X46266000Y-43526000D01*
X43606000Y-43466000D02*
X43606000Y-43526000D01*
X43606000Y-43526000D02*
X46266000Y-43526000D01*
%TO.C,+5*%
X39542000Y-43526000D02*
X42202000Y-43526000D01*
X39542000Y-43466000D02*
X39542000Y-43526000D01*
X42202000Y-43466000D02*
X42202000Y-43526000D01*
X39542000Y-43466000D02*
X42202000Y-43466000D01*
X39542000Y-42196000D02*
X39542000Y-40866000D01*
X39542000Y-40866000D02*
X40872000Y-40866000D01*
%TO.C,trig*%
X32430000Y-28166000D02*
X33760000Y-28166000D01*
X32430000Y-29496000D02*
X32430000Y-28166000D01*
X32430000Y-30766000D02*
X35090000Y-30766000D01*
X35090000Y-30766000D02*
X35090000Y-30826000D01*
X32430000Y-30766000D02*
X32430000Y-30826000D01*
X32430000Y-30826000D02*
X35090000Y-30826000D01*
%TO.C,out*%
X36494000Y-30826000D02*
X39154000Y-30826000D01*
X36494000Y-30766000D02*
X36494000Y-30826000D01*
X39154000Y-30766000D02*
X39154000Y-30826000D01*
X36494000Y-30766000D02*
X39154000Y-30766000D01*
X36494000Y-29496000D02*
X36494000Y-28166000D01*
X36494000Y-28166000D02*
X37824000Y-28166000D01*
%TO.C,C2*%
D12*
X41213333Y-28297142D02*
X41165714Y-28344761D01*
X41022857Y-28392380D01*
X40927619Y-28392380D01*
X40784761Y-28344761D01*
X40689523Y-28249523D01*
X40641904Y-28154285D01*
X40594285Y-27963809D01*
X40594285Y-27820952D01*
X40641904Y-27630476D01*
X40689523Y-27535238D01*
X40784761Y-27440000D01*
X40927619Y-27392380D01*
X41022857Y-27392380D01*
X41165714Y-27440000D01*
X41213333Y-27487619D01*
X41594285Y-27487619D02*
X41641904Y-27440000D01*
X41737142Y-27392380D01*
X41975238Y-27392380D01*
X42070476Y-27440000D01*
X42118095Y-27487619D01*
X42165714Y-27582857D01*
X42165714Y-27678095D01*
X42118095Y-27820952D01*
X41546666Y-28392380D01*
X42165714Y-28392380D01*
%TO.C,D1*%
X27862380Y-27694095D02*
X26862380Y-27694095D01*
X26862380Y-27456000D01*
X26910000Y-27313142D01*
X27005238Y-27217904D01*
X27100476Y-27170285D01*
X27290952Y-27122666D01*
X27433809Y-27122666D01*
X27624285Y-27170285D01*
X27719523Y-27217904D01*
X27814761Y-27313142D01*
X27862380Y-27456000D01*
X27862380Y-27694095D01*
X27862380Y-26170285D02*
X27862380Y-26741714D01*
X27862380Y-26456000D02*
X26862380Y-26456000D01*
X27005238Y-26551238D01*
X27100476Y-26646476D01*
X27148095Y-26741714D01*
%TO.C,D2*%
X53617904Y-25122380D02*
X53617904Y-24122380D01*
X53856000Y-24122380D01*
X53998857Y-24170000D01*
X54094095Y-24265238D01*
X54141714Y-24360476D01*
X54189333Y-24550952D01*
X54189333Y-24693809D01*
X54141714Y-24884285D01*
X54094095Y-24979523D01*
X53998857Y-25074761D01*
X53856000Y-25122380D01*
X53617904Y-25122380D01*
X54570285Y-24217619D02*
X54617904Y-24170000D01*
X54713142Y-24122380D01*
X54951238Y-24122380D01*
X55046476Y-24170000D01*
X55094095Y-24217619D01*
X55141714Y-24312857D01*
X55141714Y-24408095D01*
X55094095Y-24550952D01*
X54522666Y-25122380D01*
X55141714Y-25122380D01*
%TO.C,Q1*%
X51720761Y-38647619D02*
X51625523Y-38600000D01*
X51530285Y-38504761D01*
X51387428Y-38361904D01*
X51292190Y-38314285D01*
X51196952Y-38314285D01*
X51244571Y-38552380D02*
X51149333Y-38504761D01*
X51054095Y-38409523D01*
X51006476Y-38219047D01*
X51006476Y-37885714D01*
X51054095Y-37695238D01*
X51149333Y-37600000D01*
X51244571Y-37552380D01*
X51435047Y-37552380D01*
X51530285Y-37600000D01*
X51625523Y-37695238D01*
X51673142Y-37885714D01*
X51673142Y-38219047D01*
X51625523Y-38409523D01*
X51530285Y-38504761D01*
X51435047Y-38552380D01*
X51244571Y-38552380D01*
X52625523Y-38552380D02*
X52054095Y-38552380D01*
X52339809Y-38552380D02*
X52339809Y-37552380D01*
X52244571Y-37695238D01*
X52149333Y-37790476D01*
X52054095Y-37838095D01*
%TO.C,R1*%
X33339333Y-24614380D02*
X33006000Y-24138190D01*
X32767904Y-24614380D02*
X32767904Y-23614380D01*
X33148857Y-23614380D01*
X33244095Y-23662000D01*
X33291714Y-23709619D01*
X33339333Y-23804857D01*
X33339333Y-23947714D01*
X33291714Y-24042952D01*
X33244095Y-24090571D01*
X33148857Y-24138190D01*
X32767904Y-24138190D01*
X34291714Y-24614380D02*
X33720285Y-24614380D01*
X34006000Y-24614380D02*
X34006000Y-23614380D01*
X33910761Y-23757238D01*
X33815523Y-23852476D01*
X33720285Y-23900095D01*
%TO.C,R2*%
X30037333Y-27916380D02*
X29704000Y-27440190D01*
X29465904Y-27916380D02*
X29465904Y-26916380D01*
X29846857Y-26916380D01*
X29942095Y-26964000D01*
X29989714Y-27011619D01*
X30037333Y-27106857D01*
X30037333Y-27249714D01*
X29989714Y-27344952D01*
X29942095Y-27392571D01*
X29846857Y-27440190D01*
X29465904Y-27440190D01*
X30418285Y-27011619D02*
X30465904Y-26964000D01*
X30561142Y-26916380D01*
X30799238Y-26916380D01*
X30894476Y-26964000D01*
X30942095Y-27011619D01*
X30989714Y-27106857D01*
X30989714Y-27202095D01*
X30942095Y-27344952D01*
X30370666Y-27916380D01*
X30989714Y-27916380D01*
%TO.C,R3*%
X43521333Y-36520380D02*
X43188000Y-36044190D01*
X42949904Y-36520380D02*
X42949904Y-35520380D01*
X43330857Y-35520380D01*
X43426095Y-35568000D01*
X43473714Y-35615619D01*
X43521333Y-35710857D01*
X43521333Y-35853714D01*
X43473714Y-35948952D01*
X43426095Y-35996571D01*
X43330857Y-36044190D01*
X42949904Y-36044190D01*
X43854666Y-35520380D02*
X44473714Y-35520380D01*
X44140380Y-35901333D01*
X44283238Y-35901333D01*
X44378476Y-35948952D01*
X44426095Y-35996571D01*
X44473714Y-36091809D01*
X44473714Y-36329904D01*
X44426095Y-36425142D01*
X44378476Y-36472761D01*
X44283238Y-36520380D01*
X43997523Y-36520380D01*
X43902285Y-36472761D01*
X43854666Y-36425142D01*
%TO.C,R4*%
X54929333Y-31186380D02*
X54596000Y-30710190D01*
X54357904Y-31186380D02*
X54357904Y-30186380D01*
X54738857Y-30186380D01*
X54834095Y-30234000D01*
X54881714Y-30281619D01*
X54929333Y-30376857D01*
X54929333Y-30519714D01*
X54881714Y-30614952D01*
X54834095Y-30662571D01*
X54738857Y-30710190D01*
X54357904Y-30710190D01*
X55786476Y-30519714D02*
X55786476Y-31186380D01*
X55548380Y-30138761D02*
X55310285Y-30853047D01*
X55929333Y-30853047D01*
%TO.C,R5*%
X44493333Y-23122380D02*
X44160000Y-22646190D01*
X43921904Y-23122380D02*
X43921904Y-22122380D01*
X44302857Y-22122380D01*
X44398095Y-22170000D01*
X44445714Y-22217619D01*
X44493333Y-22312857D01*
X44493333Y-22455714D01*
X44445714Y-22550952D01*
X44398095Y-22598571D01*
X44302857Y-22646190D01*
X43921904Y-22646190D01*
X45398095Y-22122380D02*
X44921904Y-22122380D01*
X44874285Y-22598571D01*
X44921904Y-22550952D01*
X45017142Y-22503333D01*
X45255238Y-22503333D01*
X45350476Y-22550952D01*
X45398095Y-22598571D01*
X45445714Y-22693809D01*
X45445714Y-22931904D01*
X45398095Y-23027142D01*
X45350476Y-23074761D01*
X45255238Y-23122380D01*
X45017142Y-23122380D01*
X44921904Y-23074761D01*
X44874285Y-23027142D01*
%TO.C,U1*%
X40110095Y-37838380D02*
X40110095Y-38647904D01*
X40157714Y-38743142D01*
X40205333Y-38790761D01*
X40300571Y-38838380D01*
X40491047Y-38838380D01*
X40586285Y-38790761D01*
X40633904Y-38743142D01*
X40681523Y-38647904D01*
X40681523Y-37838380D01*
X41681523Y-38838380D02*
X41110095Y-38838380D01*
X41395809Y-38838380D02*
X41395809Y-37838380D01*
X41300571Y-37981238D01*
X41205333Y-38076476D01*
X41110095Y-38124095D01*
%TO.C,J1*%
X27330666Y-34790380D02*
X27330666Y-35504666D01*
X27283047Y-35647523D01*
X27187809Y-35742761D01*
X27044952Y-35790380D01*
X26949714Y-35790380D01*
X28330666Y-35790380D02*
X27759238Y-35790380D01*
X28044952Y-35790380D02*
X28044952Y-34790380D01*
X27949714Y-34933238D01*
X27854476Y-35028476D01*
X27759238Y-35076095D01*
%TO.C,J2*%
X52476666Y-35044380D02*
X52476666Y-35758666D01*
X52429047Y-35901523D01*
X52333809Y-35996761D01*
X52190952Y-36044380D01*
X52095714Y-36044380D01*
X52905238Y-35139619D02*
X52952857Y-35092000D01*
X53048095Y-35044380D01*
X53286190Y-35044380D01*
X53381428Y-35092000D01*
X53429047Y-35139619D01*
X53476666Y-35234857D01*
X53476666Y-35330095D01*
X53429047Y-35472952D01*
X52857619Y-36044380D01*
X53476666Y-36044380D01*
%TO.C,H1*%
X28680095Y-44680380D02*
X28680095Y-43680380D01*
X28680095Y-44156571D02*
X29251523Y-44156571D01*
X29251523Y-44680380D02*
X29251523Y-43680380D01*
X30251523Y-44680380D02*
X29680095Y-44680380D01*
X29965809Y-44680380D02*
X29965809Y-43680380D01*
X29870571Y-43823238D01*
X29775333Y-43918476D01*
X29680095Y-43966095D01*
%TO.C,H2*%
X46460095Y-40362380D02*
X46460095Y-39362380D01*
X46460095Y-39838571D02*
X47031523Y-39838571D01*
X47031523Y-40362380D02*
X47031523Y-39362380D01*
X47460095Y-39457619D02*
X47507714Y-39410000D01*
X47602952Y-39362380D01*
X47841047Y-39362380D01*
X47936285Y-39410000D01*
X47983904Y-39457619D01*
X48031523Y-39552857D01*
X48031523Y-39648095D01*
X47983904Y-39790952D01*
X47412476Y-40362380D01*
X48031523Y-40362380D01*
%TO.C,H3*%
X37338095Y-23102380D02*
X37338095Y-22102380D01*
X37338095Y-22578571D02*
X37909523Y-22578571D01*
X37909523Y-23102380D02*
X37909523Y-22102380D01*
X38290476Y-22102380D02*
X38909523Y-22102380D01*
X38576190Y-22483333D01*
X38719047Y-22483333D01*
X38814285Y-22530952D01*
X38861904Y-22578571D01*
X38909523Y-22673809D01*
X38909523Y-22911904D01*
X38861904Y-23007142D01*
X38814285Y-23054761D01*
X38719047Y-23102380D01*
X38433333Y-23102380D01*
X38338095Y-23054761D01*
X38290476Y-23007142D01*
%TO.C,C3*%
X31561333Y-39251142D02*
X31513714Y-39298761D01*
X31370857Y-39346380D01*
X31275619Y-39346380D01*
X31132761Y-39298761D01*
X31037523Y-39203523D01*
X30989904Y-39108285D01*
X30942285Y-38917809D01*
X30942285Y-38774952D01*
X30989904Y-38584476D01*
X31037523Y-38489238D01*
X31132761Y-38394000D01*
X31275619Y-38346380D01*
X31370857Y-38346380D01*
X31513714Y-38394000D01*
X31561333Y-38441619D01*
X31894666Y-38346380D02*
X32513714Y-38346380D01*
X32180380Y-38727333D01*
X32323238Y-38727333D01*
X32418476Y-38774952D01*
X32466095Y-38822571D01*
X32513714Y-38917809D01*
X32513714Y-39155904D01*
X32466095Y-39251142D01*
X32418476Y-39298761D01*
X32323238Y-39346380D01*
X32037523Y-39346380D01*
X31942285Y-39298761D01*
X31894666Y-39251142D01*
%TO.C,C1*%
X32433142Y-35510666D02*
X32480761Y-35558285D01*
X32528380Y-35701142D01*
X32528380Y-35796380D01*
X32480761Y-35939238D01*
X32385523Y-36034476D01*
X32290285Y-36082095D01*
X32099809Y-36129714D01*
X31956952Y-36129714D01*
X31766476Y-36082095D01*
X31671238Y-36034476D01*
X31576000Y-35939238D01*
X31528380Y-35796380D01*
X31528380Y-35701142D01*
X31576000Y-35558285D01*
X31623619Y-35510666D01*
X32528380Y-34558285D02*
X32528380Y-35129714D01*
X32528380Y-34844000D02*
X31528380Y-34844000D01*
X31671238Y-34939238D01*
X31766476Y-35034476D01*
X31814095Y-35129714D01*
%TO.C,R6*%
X42711333Y-32234380D02*
X42378000Y-31758190D01*
X42139904Y-32234380D02*
X42139904Y-31234380D01*
X42520857Y-31234380D01*
X42616095Y-31282000D01*
X42663714Y-31329619D01*
X42711333Y-31424857D01*
X42711333Y-31567714D01*
X42663714Y-31662952D01*
X42616095Y-31710571D01*
X42520857Y-31758190D01*
X42139904Y-31758190D01*
X43568476Y-31234380D02*
X43378000Y-31234380D01*
X43282761Y-31282000D01*
X43235142Y-31329619D01*
X43139904Y-31472476D01*
X43092285Y-31662952D01*
X43092285Y-32043904D01*
X43139904Y-32139142D01*
X43187523Y-32186761D01*
X43282761Y-32234380D01*
X43473238Y-32234380D01*
X43568476Y-32186761D01*
X43616095Y-32139142D01*
X43663714Y-32043904D01*
X43663714Y-31805809D01*
X43616095Y-31710571D01*
X43568476Y-31662952D01*
X43473238Y-31615333D01*
X43282761Y-31615333D01*
X43187523Y-31662952D01*
X43139904Y-31710571D01*
X43092285Y-31805809D01*
%TO.C,gnd*%
X44245523Y-39651714D02*
X44245523Y-40461238D01*
X44197904Y-40556476D01*
X44150285Y-40604095D01*
X44055047Y-40651714D01*
X43912190Y-40651714D01*
X43816952Y-40604095D01*
X44245523Y-40270761D02*
X44150285Y-40318380D01*
X43959809Y-40318380D01*
X43864571Y-40270761D01*
X43816952Y-40223142D01*
X43769333Y-40127904D01*
X43769333Y-39842190D01*
X43816952Y-39746952D01*
X43864571Y-39699333D01*
X43959809Y-39651714D01*
X44150285Y-39651714D01*
X44245523Y-39699333D01*
X44721714Y-39651714D02*
X44721714Y-40318380D01*
X44721714Y-39746952D02*
X44769333Y-39699333D01*
X44864571Y-39651714D01*
X45007428Y-39651714D01*
X45102666Y-39699333D01*
X45150285Y-39794571D01*
X45150285Y-40318380D01*
X46055047Y-40318380D02*
X46055047Y-39318380D01*
X46055047Y-40270761D02*
X45959809Y-40318380D01*
X45769333Y-40318380D01*
X45674095Y-40270761D01*
X45626476Y-40223142D01*
X45578857Y-40127904D01*
X45578857Y-39842190D01*
X45626476Y-39746952D01*
X45674095Y-39699333D01*
X45769333Y-39651714D01*
X45959809Y-39651714D01*
X46055047Y-39699333D01*
%TO.C,+5*%
X40014857Y-39937428D02*
X40776761Y-39937428D01*
X40395809Y-40318380D02*
X40395809Y-39556476D01*
X41729142Y-39318380D02*
X41252952Y-39318380D01*
X41205333Y-39794571D01*
X41252952Y-39746952D01*
X41348190Y-39699333D01*
X41586285Y-39699333D01*
X41681523Y-39746952D01*
X41729142Y-39794571D01*
X41776761Y-39889809D01*
X41776761Y-40127904D01*
X41729142Y-40223142D01*
X41681523Y-40270761D01*
X41586285Y-40318380D01*
X41348190Y-40318380D01*
X41252952Y-40270761D01*
X41205333Y-40223142D01*
%TO.C,trig*%
X32823523Y-26995714D02*
X33204476Y-26995714D01*
X32966380Y-26662380D02*
X32966380Y-27519523D01*
X33014000Y-27614761D01*
X33109238Y-27662380D01*
X33204476Y-27662380D01*
X33537809Y-27662380D02*
X33537809Y-26995714D01*
X33537809Y-27186190D02*
X33585428Y-27090952D01*
X33633047Y-27043333D01*
X33728285Y-26995714D01*
X33823523Y-26995714D01*
X34156857Y-27662380D02*
X34156857Y-26995714D01*
X34156857Y-26662380D02*
X34109238Y-26710000D01*
X34156857Y-26757619D01*
X34204476Y-26710000D01*
X34156857Y-26662380D01*
X34156857Y-26757619D01*
X35061619Y-26995714D02*
X35061619Y-27805238D01*
X35014000Y-27900476D01*
X34966380Y-27948095D01*
X34871142Y-27995714D01*
X34728285Y-27995714D01*
X34633047Y-27948095D01*
X35061619Y-27614761D02*
X34966380Y-27662380D01*
X34775904Y-27662380D01*
X34680666Y-27614761D01*
X34633047Y-27567142D01*
X34585428Y-27471904D01*
X34585428Y-27186190D01*
X34633047Y-27090952D01*
X34680666Y-27043333D01*
X34775904Y-26995714D01*
X34966380Y-26995714D01*
X35061619Y-27043333D01*
%TO.C,out*%
X40054380Y-30305523D02*
X40006761Y-30400761D01*
X39959142Y-30448380D01*
X39863904Y-30496000D01*
X39578190Y-30496000D01*
X39482952Y-30448380D01*
X39435333Y-30400761D01*
X39387714Y-30305523D01*
X39387714Y-30162666D01*
X39435333Y-30067428D01*
X39482952Y-30019809D01*
X39578190Y-29972190D01*
X39863904Y-29972190D01*
X39959142Y-30019809D01*
X40006761Y-30067428D01*
X40054380Y-30162666D01*
X40054380Y-30305523D01*
X39387714Y-29115047D02*
X40054380Y-29115047D01*
X39387714Y-29543619D02*
X39911523Y-29543619D01*
X40006761Y-29496000D01*
X40054380Y-29400761D01*
X40054380Y-29257904D01*
X40006761Y-29162666D01*
X39959142Y-29115047D01*
X39387714Y-28781714D02*
X39387714Y-28400761D01*
X39054380Y-28638857D02*
X39911523Y-28638857D01*
X40006761Y-28591238D01*
X40054380Y-28496000D01*
X40054380Y-28400761D01*
%TD*%
M02*
