%TF.GenerationSoftware,KiCad,Pcbnew,6.0.0-d3dd2cf0fa~116~ubuntu20.04.1*%
%TF.CreationDate,2022-02-22T07:52:51+01:00*%
%TF.ProjectId,ESP32_BAT,45535033-325f-4424-9154-2e6b69636164,rev?*%
%TF.SameCoordinates,Original*%
%TF.FileFunction,Copper,L4,Bot*%
%TF.FilePolarity,Positive*%
%FSLAX46Y46*%
G04 Gerber Fmt 4.6, Leading zero omitted, Abs format (unit mm)*
G04 Created by KiCad (PCBNEW 6.0.0-d3dd2cf0fa~116~ubuntu20.04.1) date 2022-02-22 07:52:51*
%MOMM*%
%LPD*%
G01*
G04 APERTURE LIST*
%TA.AperFunction,ComponentPad*%
%ADD10R,1.700000X1.700000*%
%TD*%
%TA.AperFunction,ComponentPad*%
%ADD11O,1.700000X1.700000*%
%TD*%
%TA.AperFunction,ComponentPad*%
%ADD12C,1.524000*%
%TD*%
%TA.AperFunction,ViaPad*%
%ADD13C,0.800000*%
%TD*%
G04 APERTURE END LIST*
D10*
%TO.P,J4,1,Pin_1*%
%TO.N,/ESP32_SOLO/IO0*%
X59975000Y-61400000D03*
D11*
%TO.P,J4,2,Pin_2*%
%TO.N,GND*%
X57435000Y-61400000D03*
%TD*%
D10*
%TO.P,TP1,1,1*%
%TO.N,SENSOR_ON*%
X66800000Y-78900000D03*
%TD*%
%TO.P,TP4,1,1*%
%TO.N,/ESP32_SOLO/ENABLE*%
X86400000Y-37300000D03*
%TD*%
%TO.P,TP3,1,1*%
%TO.N,SDA*%
X86300000Y-87700000D03*
%TD*%
%TO.P,TP7,1,1*%
%TO.N,/ESP32_SOLO/TXD0*%
X86300000Y-74600000D03*
%TD*%
%TO.P,J3,1,Pin_1*%
%TO.N,/sensor/sensor_gnd*%
X85600000Y-104700000D03*
D11*
%TO.P,J3,2,Pin_2*%
%TO.N,Net-(J3-Pad2)*%
X83060000Y-104700000D03*
%TO.P,J3,3,Pin_3*%
%TO.N,+3V3*%
X80520000Y-104700000D03*
%TD*%
D10*
%TO.P,TP12,1,1*%
%TO.N,ADC_SNS_IN*%
X80700000Y-88000000D03*
%TD*%
D12*
%TO.P,BT1,1,+*%
%TO.N,+BATT*%
X56254000Y-70900000D03*
%TO.P,BT1,2,-*%
%TO.N,GND*%
X56254000Y-122900000D03*
%TD*%
D10*
%TO.P,J1,1,Pin_1*%
%TO.N,+5V*%
X86400000Y-50700000D03*
D11*
%TO.P,J1,2,Pin_2*%
%TO.N,Net-(J1-Pad2)*%
X86400000Y-53240000D03*
%TO.P,J1,3,Pin_3*%
%TO.N,Net-(J1-Pad3)*%
X86400000Y-55780000D03*
%TO.P,J1,4,Pin_4*%
%TO.N,GND*%
X86400000Y-58320000D03*
%TD*%
D10*
%TO.P,TP6,1,1*%
%TO.N,/ESP32_SOLO/RXD0*%
X86300000Y-70900000D03*
%TD*%
%TO.P,TP5,1,1*%
%TO.N,Net-(C4-Pad1)*%
X86300000Y-67300000D03*
%TD*%
%TO.P,TP13,1,1*%
%TO.N,GND*%
X86300000Y-80500000D03*
%TD*%
%TO.P,TP2,1,1*%
%TO.N,CLK*%
X86300000Y-84100000D03*
%TD*%
%TO.P,J2,1,Pin_1*%
%TO.N,/ESP32_SOLO/ENABLE*%
X86200000Y-42200000D03*
D11*
%TO.P,J2,2,Pin_2*%
%TO.N,GND*%
X86200000Y-44740000D03*
%TD*%
D10*
%TO.P,U3,1,VDD*%
%TO.N,+3V3*%
X69160000Y-104700000D03*
D11*
%TO.P,U3,2,SDA*%
%TO.N,SDA*%
X71700000Y-104700000D03*
%TO.P,U3,3,GND*%
%TO.N,/sensor/sensor_gnd*%
X74240000Y-104700000D03*
%TO.P,U3,4,SCL*%
%TO.N,CLK*%
X76780000Y-104700000D03*
%TD*%
D13*
%TO.N,+3V3*%
X68500000Y-60700000D03*
%TO.N,GND*%
X71400000Y-40400000D03*
X54000000Y-60900000D03*
%TO.N,/ESP32_SOLO/RXD0*%
X70400000Y-45600000D03*
X72600000Y-47600000D03*
%TO.N,Net-(C4-Pad1)*%
X51700688Y-64800688D03*
%TO.N,ADC_SNS_IN*%
X51500000Y-63800000D03*
%TO.N,Net-(C4-Pad1)*%
X57800000Y-64700000D03*
%TO.N,ADC_SNS_IN*%
X57000000Y-63800000D03*
%TO.N,/ESP32_SOLO/ENABLE*%
X71300000Y-41700000D03*
X49200000Y-45200000D03*
%TO.N,+BATT*%
X52400000Y-68400000D03*
%TO.N,GND*%
X60000000Y-49500000D03*
X65800000Y-97300000D03*
X86300000Y-92700000D03*
X81300000Y-73700000D03*
X73400000Y-57700000D03*
X71100000Y-57700000D03*
X58700000Y-48100000D03*
X76800000Y-60200000D03*
X57400000Y-49500000D03*
X79500000Y-73800000D03*
X55500000Y-67300000D03*
X76800000Y-48300000D03*
X44000000Y-40200000D03*
X73600000Y-69600000D03*
X58700000Y-49500000D03*
X57400000Y-48100000D03*
X72300000Y-75200000D03*
X57400000Y-46700000D03*
X60000000Y-46700000D03*
X68100000Y-95700000D03*
X60000000Y-48100000D03*
X73800000Y-46300000D03*
X65800000Y-74400000D03*
X68300000Y-84900000D03*
X75300000Y-46200000D03*
X58700000Y-46700000D03*
X69900000Y-75400000D03*
%TO.N,+3V3*%
X66300000Y-92000000D03*
X75100000Y-119200000D03*
X79300000Y-91300000D03*
X76800000Y-46200000D03*
X44400000Y-44900000D03*
X65500000Y-88000000D03*
X82300000Y-69200000D03*
X81700000Y-119100000D03*
X46500000Y-45000000D03*
X82100000Y-67400000D03*
%TO.N,Net-(C4-Pad1)*%
X77900000Y-63100000D03*
%TO.N,+5V*%
X46400000Y-81200000D03*
%TO.N,/sensor/sensor_gnd*%
X72900000Y-99400000D03*
X83800000Y-99400000D03*
X77100000Y-107400000D03*
X74800000Y-99600000D03*
%TO.N,/ESP32_SOLO/TXD0*%
X72400000Y-53800000D03*
%TO.N,SDA*%
X72700000Y-93400000D03*
X86200000Y-90700000D03*
%TO.N,CLK*%
X54349500Y-67300000D03*
X53200000Y-65600000D03*
%TO.N,SENSOR_ON*%
X66100000Y-81300000D03*
X47600000Y-61900000D03*
%TO.N,ADC_SNS_IN*%
X83600000Y-65700000D03*
X74600000Y-61300000D03*
%TD*%
%TA.AperFunction,Conductor*%
%TO.N,GND*%
G36*
X92434121Y-38920002D02*
G01*
X92480614Y-38973658D01*
X92492000Y-39026000D01*
X92492000Y-126366000D01*
X92471998Y-126434121D01*
X92418342Y-126480614D01*
X92366000Y-126492000D01*
X43634000Y-126492000D01*
X43565879Y-126471998D01*
X43519386Y-126418342D01*
X43508000Y-126366000D01*
X43508000Y-124074068D01*
X55303866Y-124074068D01*
X55310654Y-124083769D01*
X55358281Y-124124447D01*
X55366274Y-124130254D01*
X55560856Y-124249495D01*
X55569651Y-124253977D01*
X55780500Y-124341313D01*
X55789886Y-124344362D01*
X56011801Y-124397640D01*
X56021548Y-124399183D01*
X56249070Y-124417090D01*
X56258930Y-124417090D01*
X56486452Y-124399183D01*
X56496199Y-124397640D01*
X56718114Y-124344362D01*
X56727500Y-124341313D01*
X56938349Y-124253977D01*
X56947144Y-124249495D01*
X57141726Y-124130254D01*
X57149719Y-124124447D01*
X57195778Y-124085109D01*
X57204208Y-124072196D01*
X57198200Y-124061989D01*
X56266812Y-123130601D01*
X56252868Y-123122987D01*
X56251035Y-123123118D01*
X56244420Y-123127369D01*
X55311258Y-124060531D01*
X55303866Y-124074068D01*
X43508000Y-124074068D01*
X43508000Y-122904930D01*
X54736910Y-122904930D01*
X54754817Y-123132452D01*
X54756360Y-123142199D01*
X54809638Y-123364114D01*
X54812687Y-123373500D01*
X54900023Y-123584349D01*
X54904505Y-123593144D01*
X55023746Y-123787726D01*
X55029553Y-123795719D01*
X55068891Y-123841778D01*
X55081804Y-123850208D01*
X55092011Y-123844200D01*
X56023399Y-122912812D01*
X56029777Y-122901132D01*
X56476987Y-122901132D01*
X56477118Y-122902965D01*
X56481369Y-122909580D01*
X57414531Y-123842742D01*
X57428068Y-123850134D01*
X57437769Y-123843346D01*
X57478447Y-123795719D01*
X57484254Y-123787726D01*
X57603495Y-123593144D01*
X57607977Y-123584349D01*
X57695313Y-123373500D01*
X57698362Y-123364114D01*
X57751640Y-123142199D01*
X57753183Y-123132452D01*
X57771090Y-122904930D01*
X57771090Y-122895070D01*
X57753183Y-122667548D01*
X57751640Y-122657801D01*
X57698362Y-122435886D01*
X57695313Y-122426500D01*
X57607977Y-122215651D01*
X57603495Y-122206856D01*
X57484254Y-122012274D01*
X57478447Y-122004281D01*
X57439109Y-121958222D01*
X57426196Y-121949792D01*
X57415989Y-121955800D01*
X56484601Y-122887188D01*
X56476987Y-122901132D01*
X56029777Y-122901132D01*
X56031013Y-122898868D01*
X56030882Y-122897035D01*
X56026631Y-122890420D01*
X55093469Y-121957258D01*
X55079932Y-121949866D01*
X55070231Y-121956654D01*
X55029553Y-122004281D01*
X55023746Y-122012274D01*
X54904505Y-122206856D01*
X54900023Y-122215651D01*
X54812687Y-122426500D01*
X54809638Y-122435886D01*
X54756360Y-122657801D01*
X54754817Y-122667548D01*
X54736910Y-122895070D01*
X54736910Y-122904930D01*
X43508000Y-122904930D01*
X43508000Y-121727804D01*
X55303792Y-121727804D01*
X55309800Y-121738011D01*
X56241188Y-122669399D01*
X56255132Y-122677013D01*
X56256965Y-122676882D01*
X56263580Y-122672631D01*
X57196742Y-121739469D01*
X57204134Y-121725932D01*
X57197346Y-121716231D01*
X57149719Y-121675553D01*
X57141726Y-121669746D01*
X56947144Y-121550505D01*
X56938349Y-121546023D01*
X56727500Y-121458687D01*
X56718114Y-121455638D01*
X56496199Y-121402360D01*
X56486452Y-121400817D01*
X56258930Y-121382910D01*
X56249070Y-121382910D01*
X56021548Y-121400817D01*
X56011801Y-121402360D01*
X55789886Y-121455638D01*
X55780500Y-121458687D01*
X55569651Y-121546023D01*
X55560856Y-121550505D01*
X55366274Y-121669746D01*
X55358281Y-121675553D01*
X55312222Y-121714891D01*
X55303792Y-121727804D01*
X43508000Y-121727804D01*
X43508000Y-119600000D01*
X66986526Y-119600000D01*
X67006391Y-119852403D01*
X67007545Y-119857210D01*
X67007546Y-119857216D01*
X67039693Y-119991118D01*
X67065495Y-120098591D01*
X67162384Y-120332502D01*
X67294672Y-120548376D01*
X67459102Y-120740898D01*
X67651624Y-120905328D01*
X67867498Y-121037616D01*
X67872068Y-121039509D01*
X67872072Y-121039511D01*
X68096836Y-121132611D01*
X68101409Y-121134505D01*
X68186032Y-121154821D01*
X68342784Y-121192454D01*
X68342790Y-121192455D01*
X68347597Y-121193609D01*
X68447416Y-121201465D01*
X68534345Y-121208307D01*
X68534352Y-121208307D01*
X68536801Y-121208500D01*
X68663199Y-121208500D01*
X68665648Y-121208307D01*
X68665655Y-121208307D01*
X68752584Y-121201465D01*
X68852403Y-121193609D01*
X68857210Y-121192455D01*
X68857216Y-121192454D01*
X69013968Y-121154821D01*
X69098591Y-121134505D01*
X69103164Y-121132611D01*
X69327928Y-121039511D01*
X69327932Y-121039509D01*
X69332502Y-121037616D01*
X69548376Y-120905328D01*
X69740898Y-120740898D01*
X69905328Y-120548376D01*
X70037616Y-120332502D01*
X70134505Y-120098591D01*
X70160307Y-119991118D01*
X70192454Y-119857216D01*
X70192455Y-119857210D01*
X70193609Y-119852403D01*
X70213474Y-119600000D01*
X70193609Y-119347597D01*
X70181272Y-119296206D01*
X70158175Y-119200000D01*
X74186496Y-119200000D01*
X74187186Y-119206565D01*
X74196608Y-119296206D01*
X74206458Y-119389928D01*
X74265473Y-119571556D01*
X74268776Y-119577278D01*
X74268777Y-119577279D01*
X74299924Y-119631226D01*
X74360960Y-119736944D01*
X74488747Y-119878866D01*
X74643248Y-119991118D01*
X74649276Y-119993802D01*
X74649278Y-119993803D01*
X74811681Y-120066109D01*
X74817712Y-120068794D01*
X74911112Y-120088647D01*
X74998056Y-120107128D01*
X74998061Y-120107128D01*
X75004513Y-120108500D01*
X75195487Y-120108500D01*
X75201939Y-120107128D01*
X75201944Y-120107128D01*
X75288888Y-120088647D01*
X75382288Y-120068794D01*
X75388319Y-120066109D01*
X75550722Y-119993803D01*
X75550724Y-119993802D01*
X75556752Y-119991118D01*
X75711253Y-119878866D01*
X75839040Y-119736944D01*
X75900076Y-119631226D01*
X75931223Y-119577279D01*
X75931224Y-119577278D01*
X75934527Y-119571556D01*
X75993542Y-119389928D01*
X76003393Y-119296206D01*
X76012814Y-119206565D01*
X76013504Y-119200000D01*
X76002994Y-119100000D01*
X80786496Y-119100000D01*
X80806458Y-119289928D01*
X80865473Y-119471556D01*
X80960960Y-119636944D01*
X81088747Y-119778866D01*
X81183171Y-119847469D01*
X81226385Y-119878866D01*
X81243248Y-119891118D01*
X81249276Y-119893802D01*
X81249278Y-119893803D01*
X81411681Y-119966109D01*
X81417712Y-119968794D01*
X81504479Y-119987237D01*
X81598056Y-120007128D01*
X81598061Y-120007128D01*
X81604513Y-120008500D01*
X81795487Y-120008500D01*
X81801939Y-120007128D01*
X81801944Y-120007128D01*
X81895521Y-119987237D01*
X81982288Y-119968794D01*
X81988319Y-119966109D01*
X82150722Y-119893803D01*
X82150724Y-119893802D01*
X82156752Y-119891118D01*
X82173616Y-119878866D01*
X82216829Y-119847469D01*
X82311253Y-119778866D01*
X82439040Y-119636944D01*
X82460370Y-119600000D01*
X84986526Y-119600000D01*
X85006391Y-119852403D01*
X85007545Y-119857210D01*
X85007546Y-119857216D01*
X85039693Y-119991118D01*
X85065495Y-120098591D01*
X85162384Y-120332502D01*
X85294672Y-120548376D01*
X85459102Y-120740898D01*
X85651624Y-120905328D01*
X85867498Y-121037616D01*
X85872068Y-121039509D01*
X85872072Y-121039511D01*
X86096836Y-121132611D01*
X86101409Y-121134505D01*
X86186032Y-121154821D01*
X86342784Y-121192454D01*
X86342790Y-121192455D01*
X86347597Y-121193609D01*
X86447416Y-121201465D01*
X86534345Y-121208307D01*
X86534352Y-121208307D01*
X86536801Y-121208500D01*
X86663199Y-121208500D01*
X86665648Y-121208307D01*
X86665655Y-121208307D01*
X86752584Y-121201465D01*
X86852403Y-121193609D01*
X86857210Y-121192455D01*
X86857216Y-121192454D01*
X87013968Y-121154821D01*
X87098591Y-121134505D01*
X87103164Y-121132611D01*
X87327928Y-121039511D01*
X87327932Y-121039509D01*
X87332502Y-121037616D01*
X87548376Y-120905328D01*
X87740898Y-120740898D01*
X87905328Y-120548376D01*
X88037616Y-120332502D01*
X88134505Y-120098591D01*
X88160307Y-119991118D01*
X88192454Y-119857216D01*
X88192455Y-119857210D01*
X88193609Y-119852403D01*
X88213474Y-119600000D01*
X88193609Y-119347597D01*
X88181272Y-119296206D01*
X88135660Y-119106221D01*
X88134505Y-119101409D01*
X88131202Y-119093435D01*
X88039511Y-118872072D01*
X88039509Y-118872068D01*
X88037616Y-118867498D01*
X87905328Y-118651624D01*
X87740898Y-118459102D01*
X87548376Y-118294672D01*
X87332502Y-118162384D01*
X87327932Y-118160491D01*
X87327928Y-118160489D01*
X87103164Y-118067389D01*
X87103162Y-118067388D01*
X87098591Y-118065495D01*
X87013968Y-118045179D01*
X86857216Y-118007546D01*
X86857210Y-118007545D01*
X86852403Y-118006391D01*
X86752584Y-117998535D01*
X86665655Y-117991693D01*
X86665648Y-117991693D01*
X86663199Y-117991500D01*
X86536801Y-117991500D01*
X86534352Y-117991693D01*
X86534345Y-117991693D01*
X86447416Y-117998535D01*
X86347597Y-118006391D01*
X86342790Y-118007545D01*
X86342784Y-118007546D01*
X86186032Y-118045179D01*
X86101409Y-118065495D01*
X86096838Y-118067388D01*
X86096836Y-118067389D01*
X85872072Y-118160489D01*
X85872068Y-118160491D01*
X85867498Y-118162384D01*
X85651624Y-118294672D01*
X85459102Y-118459102D01*
X85294672Y-118651624D01*
X85162384Y-118867498D01*
X85160491Y-118872068D01*
X85160489Y-118872072D01*
X85068798Y-119093435D01*
X85065495Y-119101409D01*
X85064340Y-119106221D01*
X85018729Y-119296206D01*
X85006391Y-119347597D01*
X84986526Y-119600000D01*
X82460370Y-119600000D01*
X82534527Y-119471556D01*
X82593542Y-119289928D01*
X82613504Y-119100000D01*
X82604052Y-119010072D01*
X82594232Y-118916635D01*
X82594232Y-118916633D01*
X82593542Y-118910072D01*
X82534527Y-118728444D01*
X82439040Y-118563056D01*
X82348822Y-118462858D01*
X82315675Y-118426045D01*
X82315674Y-118426044D01*
X82311253Y-118421134D01*
X82156752Y-118308882D01*
X82150724Y-118306198D01*
X82150722Y-118306197D01*
X81988319Y-118233891D01*
X81988318Y-118233891D01*
X81982288Y-118231206D01*
X81888888Y-118211353D01*
X81801944Y-118192872D01*
X81801939Y-118192872D01*
X81795487Y-118191500D01*
X81604513Y-118191500D01*
X81598061Y-118192872D01*
X81598056Y-118192872D01*
X81511112Y-118211353D01*
X81417712Y-118231206D01*
X81411682Y-118233891D01*
X81411681Y-118233891D01*
X81249278Y-118306197D01*
X81249276Y-118306198D01*
X81243248Y-118308882D01*
X81088747Y-118421134D01*
X81084326Y-118426044D01*
X81084325Y-118426045D01*
X81051179Y-118462858D01*
X80960960Y-118563056D01*
X80865473Y-118728444D01*
X80806458Y-118910072D01*
X80805768Y-118916633D01*
X80805768Y-118916635D01*
X80795948Y-119010072D01*
X80786496Y-119100000D01*
X76002994Y-119100000D01*
X75993542Y-119010072D01*
X75934527Y-118828444D01*
X75839040Y-118663056D01*
X75711253Y-118521134D01*
X75580375Y-118426045D01*
X75562094Y-118412763D01*
X75562093Y-118412762D01*
X75556752Y-118408882D01*
X75550724Y-118406198D01*
X75550722Y-118406197D01*
X75388319Y-118333891D01*
X75388318Y-118333891D01*
X75382288Y-118331206D01*
X75288888Y-118311353D01*
X75201944Y-118292872D01*
X75201939Y-118292872D01*
X75195487Y-118291500D01*
X75004513Y-118291500D01*
X74998061Y-118292872D01*
X74998056Y-118292872D01*
X74911112Y-118311353D01*
X74817712Y-118331206D01*
X74811682Y-118333891D01*
X74811681Y-118333891D01*
X74649278Y-118406197D01*
X74649276Y-118406198D01*
X74643248Y-118408882D01*
X74637907Y-118412762D01*
X74637906Y-118412763D01*
X74619625Y-118426045D01*
X74488747Y-118521134D01*
X74360960Y-118663056D01*
X74265473Y-118828444D01*
X74206458Y-119010072D01*
X74186496Y-119200000D01*
X70158175Y-119200000D01*
X70135660Y-119106221D01*
X70134505Y-119101409D01*
X70131202Y-119093435D01*
X70039511Y-118872072D01*
X70039509Y-118872068D01*
X70037616Y-118867498D01*
X69905328Y-118651624D01*
X69740898Y-118459102D01*
X69548376Y-118294672D01*
X69332502Y-118162384D01*
X69327932Y-118160491D01*
X69327928Y-118160489D01*
X69103164Y-118067389D01*
X69103162Y-118067388D01*
X69098591Y-118065495D01*
X69013968Y-118045179D01*
X68857216Y-118007546D01*
X68857210Y-118007545D01*
X68852403Y-118006391D01*
X68752584Y-117998535D01*
X68665655Y-117991693D01*
X68665648Y-117991693D01*
X68663199Y-117991500D01*
X68536801Y-117991500D01*
X68534352Y-117991693D01*
X68534345Y-117991693D01*
X68447416Y-117998535D01*
X68347597Y-118006391D01*
X68342790Y-118007545D01*
X68342784Y-118007546D01*
X68186032Y-118045179D01*
X68101409Y-118065495D01*
X68096838Y-118067388D01*
X68096836Y-118067389D01*
X67872072Y-118160489D01*
X67872068Y-118160491D01*
X67867498Y-118162384D01*
X67651624Y-118294672D01*
X67459102Y-118459102D01*
X67294672Y-118651624D01*
X67162384Y-118867498D01*
X67160491Y-118872068D01*
X67160489Y-118872072D01*
X67068798Y-119093435D01*
X67065495Y-119101409D01*
X67064340Y-119106221D01*
X67018729Y-119296206D01*
X67006391Y-119347597D01*
X66986526Y-119600000D01*
X43508000Y-119600000D01*
X43508000Y-107400000D01*
X76186496Y-107400000D01*
X76206458Y-107589928D01*
X76265473Y-107771556D01*
X76360960Y-107936944D01*
X76488747Y-108078866D01*
X76643248Y-108191118D01*
X76649276Y-108193802D01*
X76649278Y-108193803D01*
X76811681Y-108266109D01*
X76817712Y-108268794D01*
X76911112Y-108288647D01*
X76998056Y-108307128D01*
X76998061Y-108307128D01*
X77004513Y-108308500D01*
X77195487Y-108308500D01*
X77201939Y-108307128D01*
X77201944Y-108307128D01*
X77288888Y-108288647D01*
X77382288Y-108268794D01*
X77388319Y-108266109D01*
X77550722Y-108193803D01*
X77550724Y-108193802D01*
X77556752Y-108191118D01*
X77711253Y-108078866D01*
X77839040Y-107936944D01*
X77934527Y-107771556D01*
X77993542Y-107589928D01*
X78013504Y-107400000D01*
X77993542Y-107210072D01*
X77934527Y-107028444D01*
X77839040Y-106863056D01*
X77711253Y-106721134D01*
X77556752Y-106608882D01*
X77550724Y-106606198D01*
X77550722Y-106606197D01*
X77388319Y-106533891D01*
X77388318Y-106533891D01*
X77382288Y-106531206D01*
X77288887Y-106511353D01*
X77201944Y-106492872D01*
X77201939Y-106492872D01*
X77195487Y-106491500D01*
X77004513Y-106491500D01*
X76998061Y-106492872D01*
X76998056Y-106492872D01*
X76911113Y-106511353D01*
X76817712Y-106531206D01*
X76811682Y-106533891D01*
X76811681Y-106533891D01*
X76649278Y-106606197D01*
X76649276Y-106606198D01*
X76643248Y-106608882D01*
X76488747Y-106721134D01*
X76360960Y-106863056D01*
X76265473Y-107028444D01*
X76206458Y-107210072D01*
X76186496Y-107400000D01*
X43508000Y-107400000D01*
X43508000Y-105598134D01*
X67801500Y-105598134D01*
X67808255Y-105660316D01*
X67859385Y-105796705D01*
X67946739Y-105913261D01*
X68063295Y-106000615D01*
X68199684Y-106051745D01*
X68261866Y-106058500D01*
X70058134Y-106058500D01*
X70120316Y-106051745D01*
X70256705Y-106000615D01*
X70373261Y-105913261D01*
X70460615Y-105796705D01*
X70482799Y-105737529D01*
X70504598Y-105679382D01*
X70547240Y-105622618D01*
X70613802Y-105597918D01*
X70683150Y-105613126D01*
X70717817Y-105641114D01*
X70746250Y-105673938D01*
X70918126Y-105816632D01*
X71111000Y-105929338D01*
X71319692Y-106009030D01*
X71324760Y-106010061D01*
X71324763Y-106010062D01*
X71432017Y-106031883D01*
X71538597Y-106053567D01*
X71543772Y-106053757D01*
X71543774Y-106053757D01*
X71756673Y-106061564D01*
X71756677Y-106061564D01*
X71761837Y-106061753D01*
X71766957Y-106061097D01*
X71766959Y-106061097D01*
X71978288Y-106034025D01*
X71978289Y-106034025D01*
X71983416Y-106033368D01*
X71988366Y-106031883D01*
X72192429Y-105970661D01*
X72192434Y-105970659D01*
X72197384Y-105969174D01*
X72397994Y-105870896D01*
X72579860Y-105741173D01*
X72738096Y-105583489D01*
X72797594Y-105500689D01*
X72868453Y-105402077D01*
X72869776Y-105403028D01*
X72916645Y-105359857D01*
X72986580Y-105347625D01*
X73052026Y-105375144D01*
X73079875Y-105406994D01*
X73139987Y-105505088D01*
X73286250Y-105673938D01*
X73458126Y-105816632D01*
X73651000Y-105929338D01*
X73859692Y-106009030D01*
X73864760Y-106010061D01*
X73864763Y-106010062D01*
X73972017Y-106031883D01*
X74078597Y-106053567D01*
X74083772Y-106053757D01*
X74083774Y-106053757D01*
X74296673Y-106061564D01*
X74296677Y-106061564D01*
X74301837Y-106061753D01*
X74306957Y-106061097D01*
X74306959Y-106061097D01*
X74518288Y-106034025D01*
X74518289Y-106034025D01*
X74523416Y-106033368D01*
X74528366Y-106031883D01*
X74732429Y-105970661D01*
X74732434Y-105970659D01*
X74737384Y-105969174D01*
X74937994Y-105870896D01*
X75119860Y-105741173D01*
X75278096Y-105583489D01*
X75337594Y-105500689D01*
X75408453Y-105402077D01*
X75409776Y-105403028D01*
X75456645Y-105359857D01*
X75526580Y-105347625D01*
X75592026Y-105375144D01*
X75619875Y-105406994D01*
X75679987Y-105505088D01*
X75826250Y-105673938D01*
X75998126Y-105816632D01*
X76191000Y-105929338D01*
X76399692Y-106009030D01*
X76404760Y-106010061D01*
X76404763Y-106010062D01*
X76512017Y-106031883D01*
X76618597Y-106053567D01*
X76623772Y-106053757D01*
X76623774Y-106053757D01*
X76836673Y-106061564D01*
X76836677Y-106061564D01*
X76841837Y-106061753D01*
X76846957Y-106061097D01*
X76846959Y-106061097D01*
X77058288Y-106034025D01*
X77058289Y-106034025D01*
X77063416Y-106033368D01*
X77068366Y-106031883D01*
X77272429Y-105970661D01*
X77272434Y-105970659D01*
X77277384Y-105969174D01*
X77477994Y-105870896D01*
X77659860Y-105741173D01*
X77818096Y-105583489D01*
X77877594Y-105500689D01*
X77945435Y-105406277D01*
X77948453Y-105402077D01*
X77969320Y-105359857D01*
X78045136Y-105206453D01*
X78045137Y-105206451D01*
X78047430Y-105201811D01*
X78112370Y-104988069D01*
X78141529Y-104766590D01*
X78143156Y-104700000D01*
X78140418Y-104666695D01*
X79157251Y-104666695D01*
X79157548Y-104671848D01*
X79157548Y-104671851D01*
X79163011Y-104766590D01*
X79170110Y-104889715D01*
X79171247Y-104894761D01*
X79171248Y-104894767D01*
X79191119Y-104982939D01*
X79219222Y-105107639D01*
X79303266Y-105314616D01*
X79340685Y-105375678D01*
X79417291Y-105500688D01*
X79419987Y-105505088D01*
X79566250Y-105673938D01*
X79738126Y-105816632D01*
X79931000Y-105929338D01*
X80139692Y-106009030D01*
X80144760Y-106010061D01*
X80144763Y-106010062D01*
X80252017Y-106031883D01*
X80358597Y-106053567D01*
X80363772Y-106053757D01*
X80363774Y-106053757D01*
X80576673Y-106061564D01*
X80576677Y-106061564D01*
X80581837Y-106061753D01*
X80586957Y-106061097D01*
X80586959Y-106061097D01*
X80798288Y-106034025D01*
X80798289Y-106034025D01*
X80803416Y-106033368D01*
X80808366Y-106031883D01*
X81012429Y-105970661D01*
X81012434Y-105970659D01*
X81017384Y-105969174D01*
X81217994Y-105870896D01*
X81399860Y-105741173D01*
X81558096Y-105583489D01*
X81617594Y-105500689D01*
X81688453Y-105402077D01*
X81689776Y-105403028D01*
X81736645Y-105359857D01*
X81806580Y-105347625D01*
X81872026Y-105375144D01*
X81899875Y-105406994D01*
X81959987Y-105505088D01*
X82106250Y-105673938D01*
X82278126Y-105816632D01*
X82471000Y-105929338D01*
X82679692Y-106009030D01*
X82684760Y-106010061D01*
X82684763Y-106010062D01*
X82792017Y-106031883D01*
X82898597Y-106053567D01*
X82903772Y-106053757D01*
X82903774Y-106053757D01*
X83116673Y-106061564D01*
X83116677Y-106061564D01*
X83121837Y-106061753D01*
X83126957Y-106061097D01*
X83126959Y-106061097D01*
X83338288Y-106034025D01*
X83338289Y-106034025D01*
X83343416Y-106033368D01*
X83348366Y-106031883D01*
X83552429Y-105970661D01*
X83552434Y-105970659D01*
X83557384Y-105969174D01*
X83757994Y-105870896D01*
X83939860Y-105741173D01*
X84048091Y-105633319D01*
X84110462Y-105599404D01*
X84181268Y-105604592D01*
X84238030Y-105647238D01*
X84255012Y-105678341D01*
X84277201Y-105737529D01*
X84299385Y-105796705D01*
X84386739Y-105913261D01*
X84503295Y-106000615D01*
X84639684Y-106051745D01*
X84701866Y-106058500D01*
X86498134Y-106058500D01*
X86560316Y-106051745D01*
X86696705Y-106000615D01*
X86813261Y-105913261D01*
X86900615Y-105796705D01*
X86951745Y-105660316D01*
X86958500Y-105598134D01*
X86958500Y-103801866D01*
X86951745Y-103739684D01*
X86900615Y-103603295D01*
X86813261Y-103486739D01*
X86696705Y-103399385D01*
X86560316Y-103348255D01*
X86498134Y-103341500D01*
X84701866Y-103341500D01*
X84639684Y-103348255D01*
X84503295Y-103399385D01*
X84386739Y-103486739D01*
X84299385Y-103603295D01*
X84296233Y-103611703D01*
X84254919Y-103721907D01*
X84212277Y-103778671D01*
X84145716Y-103803371D01*
X84076367Y-103788163D01*
X84043743Y-103762476D01*
X83993151Y-103706875D01*
X83993142Y-103706866D01*
X83989670Y-103703051D01*
X83985619Y-103699852D01*
X83985615Y-103699848D01*
X83818414Y-103567800D01*
X83818410Y-103567798D01*
X83814359Y-103564598D01*
X83618789Y-103456638D01*
X83613920Y-103454914D01*
X83613916Y-103454912D01*
X83413087Y-103383795D01*
X83413083Y-103383794D01*
X83408212Y-103382069D01*
X83403119Y-103381162D01*
X83403116Y-103381161D01*
X83193373Y-103343800D01*
X83193367Y-103343799D01*
X83188284Y-103342894D01*
X83114452Y-103341992D01*
X82970081Y-103340228D01*
X82970079Y-103340228D01*
X82964911Y-103340165D01*
X82744091Y-103373955D01*
X82531756Y-103443357D01*
X82333607Y-103546507D01*
X82329474Y-103549610D01*
X82329471Y-103549612D01*
X82159100Y-103677530D01*
X82154965Y-103680635D01*
X82115525Y-103721907D01*
X82043729Y-103797037D01*
X82000629Y-103842138D01*
X81893201Y-103999621D01*
X81838293Y-104044621D01*
X81767768Y-104052792D01*
X81704021Y-104021538D01*
X81683324Y-103997054D01*
X81602822Y-103872617D01*
X81602820Y-103872614D01*
X81600014Y-103868277D01*
X81449670Y-103703051D01*
X81445619Y-103699852D01*
X81445615Y-103699848D01*
X81278414Y-103567800D01*
X81278410Y-103567798D01*
X81274359Y-103564598D01*
X81078789Y-103456638D01*
X81073920Y-103454914D01*
X81073916Y-103454912D01*
X80873087Y-103383795D01*
X80873083Y-103383794D01*
X80868212Y-103382069D01*
X80863119Y-103381162D01*
X80863116Y-103381161D01*
X80653373Y-103343800D01*
X80653367Y-103343799D01*
X80648284Y-103342894D01*
X80574452Y-103341992D01*
X80430081Y-103340228D01*
X80430079Y-103340228D01*
X80424911Y-103340165D01*
X80204091Y-103373955D01*
X79991756Y-103443357D01*
X79793607Y-103546507D01*
X79789474Y-103549610D01*
X79789471Y-103549612D01*
X79619100Y-103677530D01*
X79614965Y-103680635D01*
X79575525Y-103721907D01*
X79503729Y-103797037D01*
X79460629Y-103842138D01*
X79334743Y-104026680D01*
X79240688Y-104229305D01*
X79180989Y-104444570D01*
X79157251Y-104666695D01*
X78140418Y-104666695D01*
X78124852Y-104477361D01*
X78070431Y-104260702D01*
X77981354Y-104055840D01*
X77860014Y-103868277D01*
X77709670Y-103703051D01*
X77705619Y-103699852D01*
X77705615Y-103699848D01*
X77538414Y-103567800D01*
X77538410Y-103567798D01*
X77534359Y-103564598D01*
X77338789Y-103456638D01*
X77333920Y-103454914D01*
X77333916Y-103454912D01*
X77133087Y-103383795D01*
X77133083Y-103383794D01*
X77128212Y-103382069D01*
X77123119Y-103381162D01*
X77123116Y-103381161D01*
X76913373Y-103343800D01*
X76913367Y-103343799D01*
X76908284Y-103342894D01*
X76834452Y-103341992D01*
X76690081Y-103340228D01*
X76690079Y-103340228D01*
X76684911Y-103340165D01*
X76464091Y-103373955D01*
X76251756Y-103443357D01*
X76053607Y-103546507D01*
X76049474Y-103549610D01*
X76049471Y-103549612D01*
X75879100Y-103677530D01*
X75874965Y-103680635D01*
X75835525Y-103721907D01*
X75763729Y-103797037D01*
X75720629Y-103842138D01*
X75613201Y-103999621D01*
X75558293Y-104044621D01*
X75487768Y-104052792D01*
X75424021Y-104021538D01*
X75403324Y-103997054D01*
X75322822Y-103872617D01*
X75322820Y-103872614D01*
X75320014Y-103868277D01*
X75169670Y-103703051D01*
X75165619Y-103699852D01*
X75165615Y-103699848D01*
X74998414Y-103567800D01*
X74998410Y-103567798D01*
X74994359Y-103564598D01*
X74798789Y-103456638D01*
X74793920Y-103454914D01*
X74793916Y-103454912D01*
X74593087Y-103383795D01*
X74593083Y-103383794D01*
X74588212Y-103382069D01*
X74583119Y-103381162D01*
X74583116Y-103381161D01*
X74373373Y-103343800D01*
X74373367Y-103343799D01*
X74368284Y-103342894D01*
X74294452Y-103341992D01*
X74150081Y-103340228D01*
X74150079Y-103340228D01*
X74144911Y-103340165D01*
X73924091Y-103373955D01*
X73711756Y-103443357D01*
X73513607Y-103546507D01*
X73509474Y-103549610D01*
X73509471Y-103549612D01*
X73339100Y-103677530D01*
X73334965Y-103680635D01*
X73295525Y-103721907D01*
X73223729Y-103797037D01*
X73180629Y-103842138D01*
X73073201Y-103999621D01*
X73018293Y-104044621D01*
X72947768Y-104052792D01*
X72884021Y-104021538D01*
X72863324Y-103997054D01*
X72782822Y-103872617D01*
X72782820Y-103872614D01*
X72780014Y-103868277D01*
X72629670Y-103703051D01*
X72625619Y-103699852D01*
X72625615Y-103699848D01*
X72458414Y-103567800D01*
X72458410Y-103567798D01*
X72454359Y-103564598D01*
X72258789Y-103456638D01*
X72253920Y-103454914D01*
X72253916Y-103454912D01*
X72053087Y-103383795D01*
X72053083Y-103383794D01*
X72048212Y-103382069D01*
X72043119Y-103381162D01*
X72043116Y-103381161D01*
X71833373Y-103343800D01*
X71833367Y-103343799D01*
X71828284Y-103342894D01*
X71754452Y-103341992D01*
X71610081Y-103340228D01*
X71610079Y-103340228D01*
X71604911Y-103340165D01*
X71384091Y-103373955D01*
X71171756Y-103443357D01*
X70973607Y-103546507D01*
X70969474Y-103549610D01*
X70969471Y-103549612D01*
X70799100Y-103677530D01*
X70794965Y-103680635D01*
X70738537Y-103739684D01*
X70714283Y-103765064D01*
X70652759Y-103800494D01*
X70581846Y-103797037D01*
X70524060Y-103755791D01*
X70505207Y-103722243D01*
X70463767Y-103611703D01*
X70460615Y-103603295D01*
X70373261Y-103486739D01*
X70256705Y-103399385D01*
X70120316Y-103348255D01*
X70058134Y-103341500D01*
X68261866Y-103341500D01*
X68199684Y-103348255D01*
X68063295Y-103399385D01*
X67946739Y-103486739D01*
X67859385Y-103603295D01*
X67808255Y-103739684D01*
X67801500Y-103801866D01*
X67801500Y-105598134D01*
X43508000Y-105598134D01*
X43508000Y-99400000D01*
X71986496Y-99400000D01*
X72006458Y-99589928D01*
X72065473Y-99771556D01*
X72160960Y-99936944D01*
X72288747Y-100078866D01*
X72443248Y-100191118D01*
X72449276Y-100193802D01*
X72449278Y-100193803D01*
X72611681Y-100266109D01*
X72617712Y-100268794D01*
X72683365Y-100282749D01*
X72798056Y-100307128D01*
X72798061Y-100307128D01*
X72804513Y-100308500D01*
X72995487Y-100308500D01*
X73001939Y-100307128D01*
X73001944Y-100307128D01*
X73116635Y-100282749D01*
X73182288Y-100268794D01*
X73188319Y-100266109D01*
X73350722Y-100193803D01*
X73350724Y-100193802D01*
X73356752Y-100191118D01*
X73511253Y-100078866D01*
X73639040Y-99936944D01*
X73642339Y-99931231D01*
X73642342Y-99931226D01*
X73699224Y-99832703D01*
X73750607Y-99783710D01*
X73820320Y-99770274D01*
X73886231Y-99796661D01*
X73928175Y-99856766D01*
X73965473Y-99971556D01*
X74060960Y-100136944D01*
X74065378Y-100141851D01*
X74065379Y-100141852D01*
X74179678Y-100268794D01*
X74188747Y-100278866D01*
X74343248Y-100391118D01*
X74349276Y-100393802D01*
X74349278Y-100393803D01*
X74511681Y-100466109D01*
X74517712Y-100468794D01*
X74611113Y-100488647D01*
X74698056Y-100507128D01*
X74698061Y-100507128D01*
X74704513Y-100508500D01*
X74895487Y-100508500D01*
X74901939Y-100507128D01*
X74901944Y-100507128D01*
X74988888Y-100488647D01*
X75082288Y-100468794D01*
X75088319Y-100466109D01*
X75250722Y-100393803D01*
X75250724Y-100393802D01*
X75256752Y-100391118D01*
X75411253Y-100278866D01*
X75420322Y-100268794D01*
X75534621Y-100141852D01*
X75534622Y-100141851D01*
X75539040Y-100136944D01*
X75634527Y-99971556D01*
X75693542Y-99789928D01*
X75694872Y-99777279D01*
X75712814Y-99606565D01*
X75713504Y-99600000D01*
X75693542Y-99410072D01*
X75690269Y-99400000D01*
X82886496Y-99400000D01*
X82906458Y-99589928D01*
X82965473Y-99771556D01*
X83060960Y-99936944D01*
X83188747Y-100078866D01*
X83343248Y-100191118D01*
X83349276Y-100193802D01*
X83349278Y-100193803D01*
X83511681Y-100266109D01*
X83517712Y-100268794D01*
X83583365Y-100282749D01*
X83698056Y-100307128D01*
X83698061Y-100307128D01*
X83704513Y-100308500D01*
X83895487Y-100308500D01*
X83901939Y-100307128D01*
X83901944Y-100307128D01*
X84016635Y-100282749D01*
X84082288Y-100268794D01*
X84088319Y-100266109D01*
X84250722Y-100193803D01*
X84250724Y-100193802D01*
X84256752Y-100191118D01*
X84411253Y-100078866D01*
X84539040Y-99936944D01*
X84634527Y-99771556D01*
X84693542Y-99589928D01*
X84713504Y-99400000D01*
X84695473Y-99228444D01*
X84694232Y-99216635D01*
X84694232Y-99216633D01*
X84693542Y-99210072D01*
X84634527Y-99028444D01*
X84539040Y-98863056D01*
X84422740Y-98733891D01*
X84415675Y-98726045D01*
X84415674Y-98726044D01*
X84411253Y-98721134D01*
X84256752Y-98608882D01*
X84250724Y-98606198D01*
X84250722Y-98606197D01*
X84088319Y-98533891D01*
X84088318Y-98533891D01*
X84082288Y-98531206D01*
X83988887Y-98511353D01*
X83901944Y-98492872D01*
X83901939Y-98492872D01*
X83895487Y-98491500D01*
X83704513Y-98491500D01*
X83698061Y-98492872D01*
X83698056Y-98492872D01*
X83611113Y-98511353D01*
X83517712Y-98531206D01*
X83511682Y-98533891D01*
X83511681Y-98533891D01*
X83349278Y-98606197D01*
X83349276Y-98606198D01*
X83343248Y-98608882D01*
X83188747Y-98721134D01*
X83184326Y-98726044D01*
X83184325Y-98726045D01*
X83177261Y-98733891D01*
X83060960Y-98863056D01*
X82965473Y-99028444D01*
X82906458Y-99210072D01*
X82905768Y-99216633D01*
X82905768Y-99216635D01*
X82904527Y-99228444D01*
X82886496Y-99400000D01*
X75690269Y-99400000D01*
X75634527Y-99228444D01*
X75539040Y-99063056D01*
X75411253Y-98921134D01*
X75256752Y-98808882D01*
X75250724Y-98806198D01*
X75250722Y-98806197D01*
X75088319Y-98733891D01*
X75088318Y-98733891D01*
X75082288Y-98731206D01*
X74988888Y-98711353D01*
X74901944Y-98692872D01*
X74901939Y-98692872D01*
X74895487Y-98691500D01*
X74704513Y-98691500D01*
X74698061Y-98692872D01*
X74698056Y-98692872D01*
X74611113Y-98711353D01*
X74517712Y-98731206D01*
X74511682Y-98733891D01*
X74511681Y-98733891D01*
X74349278Y-98806197D01*
X74349276Y-98806198D01*
X74343248Y-98808882D01*
X74188747Y-98921134D01*
X74060960Y-99063056D01*
X74057661Y-99068769D01*
X74057658Y-99068774D01*
X74000776Y-99167297D01*
X73949393Y-99216290D01*
X73879680Y-99229726D01*
X73813769Y-99203339D01*
X73771825Y-99143234D01*
X73734527Y-99028444D01*
X73639040Y-98863056D01*
X73522740Y-98733891D01*
X73515675Y-98726045D01*
X73515674Y-98726044D01*
X73511253Y-98721134D01*
X73356752Y-98608882D01*
X73350724Y-98606198D01*
X73350722Y-98606197D01*
X73188319Y-98533891D01*
X73188318Y-98533891D01*
X73182288Y-98531206D01*
X73088887Y-98511353D01*
X73001944Y-98492872D01*
X73001939Y-98492872D01*
X72995487Y-98491500D01*
X72804513Y-98491500D01*
X72798061Y-98492872D01*
X72798056Y-98492872D01*
X72711113Y-98511353D01*
X72617712Y-98531206D01*
X72611682Y-98533891D01*
X72611681Y-98533891D01*
X72449278Y-98606197D01*
X72449276Y-98606198D01*
X72443248Y-98608882D01*
X72288747Y-98721134D01*
X72284326Y-98726044D01*
X72284325Y-98726045D01*
X72277261Y-98733891D01*
X72160960Y-98863056D01*
X72065473Y-99028444D01*
X72006458Y-99210072D01*
X72005768Y-99216633D01*
X72005768Y-99216635D01*
X72004527Y-99228444D01*
X71986496Y-99400000D01*
X43508000Y-99400000D01*
X43508000Y-93400000D01*
X71786496Y-93400000D01*
X71806458Y-93589928D01*
X71865473Y-93771556D01*
X71960960Y-93936944D01*
X72088747Y-94078866D01*
X72243248Y-94191118D01*
X72249276Y-94193802D01*
X72249278Y-94193803D01*
X72411681Y-94266109D01*
X72417712Y-94268794D01*
X72511113Y-94288647D01*
X72598056Y-94307128D01*
X72598061Y-94307128D01*
X72604513Y-94308500D01*
X72795487Y-94308500D01*
X72801939Y-94307128D01*
X72801944Y-94307128D01*
X72888887Y-94288647D01*
X72982288Y-94268794D01*
X72988319Y-94266109D01*
X73150722Y-94193803D01*
X73150724Y-94193802D01*
X73156752Y-94191118D01*
X73311253Y-94078866D01*
X73439040Y-93936944D01*
X73534527Y-93771556D01*
X73593542Y-93589928D01*
X73613504Y-93400000D01*
X73593542Y-93210072D01*
X73534527Y-93028444D01*
X73439040Y-92863056D01*
X73376685Y-92793803D01*
X73315675Y-92726045D01*
X73315674Y-92726044D01*
X73311253Y-92721134D01*
X73156752Y-92608882D01*
X73150724Y-92606198D01*
X73150722Y-92606197D01*
X72988319Y-92533891D01*
X72988318Y-92533891D01*
X72982288Y-92531206D01*
X72888888Y-92511353D01*
X72801944Y-92492872D01*
X72801939Y-92492872D01*
X72795487Y-92491500D01*
X72604513Y-92491500D01*
X72598061Y-92492872D01*
X72598056Y-92492872D01*
X72511112Y-92511353D01*
X72417712Y-92531206D01*
X72411682Y-92533891D01*
X72411681Y-92533891D01*
X72249278Y-92606197D01*
X72249276Y-92606198D01*
X72243248Y-92608882D01*
X72088747Y-92721134D01*
X72084326Y-92726044D01*
X72084325Y-92726045D01*
X72023316Y-92793803D01*
X71960960Y-92863056D01*
X71865473Y-93028444D01*
X71806458Y-93210072D01*
X71786496Y-93400000D01*
X43508000Y-93400000D01*
X43508000Y-92000000D01*
X65386496Y-92000000D01*
X65387186Y-92006565D01*
X65403955Y-92166109D01*
X65406458Y-92189928D01*
X65465473Y-92371556D01*
X65560960Y-92536944D01*
X65565378Y-92541851D01*
X65565379Y-92541852D01*
X65625733Y-92608882D01*
X65688747Y-92678866D01*
X65843248Y-92791118D01*
X65849276Y-92793802D01*
X65849278Y-92793803D01*
X66004824Y-92863056D01*
X66017712Y-92868794D01*
X66111112Y-92888647D01*
X66198056Y-92907128D01*
X66198061Y-92907128D01*
X66204513Y-92908500D01*
X66395487Y-92908500D01*
X66401939Y-92907128D01*
X66401944Y-92907128D01*
X66488888Y-92888647D01*
X66582288Y-92868794D01*
X66595176Y-92863056D01*
X66750722Y-92793803D01*
X66750724Y-92793802D01*
X66756752Y-92791118D01*
X66911253Y-92678866D01*
X66974267Y-92608882D01*
X67034621Y-92541852D01*
X67034622Y-92541851D01*
X67039040Y-92536944D01*
X67134527Y-92371556D01*
X67193542Y-92189928D01*
X67196046Y-92166109D01*
X67212814Y-92006565D01*
X67213504Y-92000000D01*
X67196882Y-91841852D01*
X67194232Y-91816635D01*
X67194232Y-91816633D01*
X67193542Y-91810072D01*
X67134527Y-91628444D01*
X67039040Y-91463056D01*
X66911253Y-91321134D01*
X66882165Y-91300000D01*
X78386496Y-91300000D01*
X78387186Y-91306565D01*
X78404235Y-91468774D01*
X78406458Y-91489928D01*
X78465473Y-91671556D01*
X78560960Y-91836944D01*
X78688747Y-91978866D01*
X78843248Y-92091118D01*
X78849276Y-92093802D01*
X78849278Y-92093803D01*
X79011681Y-92166109D01*
X79017712Y-92168794D01*
X79086263Y-92183365D01*
X79198056Y-92207128D01*
X79198061Y-92207128D01*
X79204513Y-92208500D01*
X79395487Y-92208500D01*
X79401939Y-92207128D01*
X79401944Y-92207128D01*
X79513737Y-92183365D01*
X79582288Y-92168794D01*
X79588319Y-92166109D01*
X79750722Y-92093803D01*
X79750724Y-92093802D01*
X79756752Y-92091118D01*
X79911253Y-91978866D01*
X80039040Y-91836944D01*
X80134527Y-91671556D01*
X80193542Y-91489928D01*
X80195766Y-91468774D01*
X80212814Y-91306565D01*
X80213504Y-91300000D01*
X80212814Y-91293435D01*
X80194232Y-91116635D01*
X80194232Y-91116633D01*
X80193542Y-91110072D01*
X80134527Y-90928444D01*
X80039040Y-90763056D01*
X79982264Y-90700000D01*
X85286496Y-90700000D01*
X85287186Y-90706565D01*
X85292608Y-90758148D01*
X85306458Y-90889928D01*
X85365473Y-91071556D01*
X85460960Y-91236944D01*
X85588747Y-91378866D01*
X85743248Y-91491118D01*
X85749276Y-91493802D01*
X85749278Y-91493803D01*
X85911681Y-91566109D01*
X85917712Y-91568794D01*
X86011112Y-91588647D01*
X86098056Y-91607128D01*
X86098061Y-91607128D01*
X86104513Y-91608500D01*
X86295487Y-91608500D01*
X86301939Y-91607128D01*
X86301944Y-91607128D01*
X86388888Y-91588647D01*
X86482288Y-91568794D01*
X86488319Y-91566109D01*
X86650722Y-91493803D01*
X86650724Y-91493802D01*
X86656752Y-91491118D01*
X86811253Y-91378866D01*
X86939040Y-91236944D01*
X87034527Y-91071556D01*
X87093542Y-90889928D01*
X87107393Y-90758148D01*
X87112814Y-90706565D01*
X87113504Y-90700000D01*
X87093542Y-90510072D01*
X87034527Y-90328444D01*
X86939040Y-90163056D01*
X86811253Y-90021134D01*
X86656752Y-89908882D01*
X86650724Y-89906198D01*
X86650722Y-89906197D01*
X86488319Y-89833891D01*
X86488318Y-89833891D01*
X86482288Y-89831206D01*
X86388888Y-89811353D01*
X86301944Y-89792872D01*
X86301939Y-89792872D01*
X86295487Y-89791500D01*
X86104513Y-89791500D01*
X86098061Y-89792872D01*
X86098056Y-89792872D01*
X86011112Y-89811353D01*
X85917712Y-89831206D01*
X85911682Y-89833891D01*
X85911681Y-89833891D01*
X85749278Y-89906197D01*
X85749276Y-89906198D01*
X85743248Y-89908882D01*
X85588747Y-90021134D01*
X85460960Y-90163056D01*
X85365473Y-90328444D01*
X85306458Y-90510072D01*
X85286496Y-90700000D01*
X79982264Y-90700000D01*
X79911253Y-90621134D01*
X79756752Y-90508882D01*
X79750724Y-90506198D01*
X79750722Y-90506197D01*
X79588319Y-90433891D01*
X79588318Y-90433891D01*
X79582288Y-90431206D01*
X79488887Y-90411353D01*
X79401944Y-90392872D01*
X79401939Y-90392872D01*
X79395487Y-90391500D01*
X79204513Y-90391500D01*
X79198061Y-90392872D01*
X79198056Y-90392872D01*
X79111113Y-90411353D01*
X79017712Y-90431206D01*
X79011682Y-90433891D01*
X79011681Y-90433891D01*
X78849278Y-90506197D01*
X78849276Y-90506198D01*
X78843248Y-90508882D01*
X78688747Y-90621134D01*
X78560960Y-90763056D01*
X78465473Y-90928444D01*
X78406458Y-91110072D01*
X78405768Y-91116633D01*
X78405768Y-91116635D01*
X78387186Y-91293435D01*
X78386496Y-91300000D01*
X66882165Y-91300000D01*
X66756752Y-91208882D01*
X66750724Y-91206198D01*
X66750722Y-91206197D01*
X66588319Y-91133891D01*
X66588318Y-91133891D01*
X66582288Y-91131206D01*
X66482861Y-91110072D01*
X66401944Y-91092872D01*
X66401939Y-91092872D01*
X66395487Y-91091500D01*
X66204513Y-91091500D01*
X66198061Y-91092872D01*
X66198056Y-91092872D01*
X66117139Y-91110072D01*
X66017712Y-91131206D01*
X66011682Y-91133891D01*
X66011681Y-91133891D01*
X65849278Y-91206197D01*
X65849276Y-91206198D01*
X65843248Y-91208882D01*
X65688747Y-91321134D01*
X65560960Y-91463056D01*
X65465473Y-91628444D01*
X65406458Y-91810072D01*
X65405768Y-91816633D01*
X65405768Y-91816635D01*
X65403118Y-91841852D01*
X65386496Y-92000000D01*
X43508000Y-92000000D01*
X43508000Y-88000000D01*
X64586496Y-88000000D01*
X64606458Y-88189928D01*
X64665473Y-88371556D01*
X64760960Y-88536944D01*
X64765378Y-88541851D01*
X64765379Y-88541852D01*
X64884325Y-88673955D01*
X64888747Y-88678866D01*
X65043248Y-88791118D01*
X65049276Y-88793802D01*
X65049278Y-88793803D01*
X65211681Y-88866109D01*
X65217712Y-88868794D01*
X65311112Y-88888647D01*
X65398056Y-88907128D01*
X65398061Y-88907128D01*
X65404513Y-88908500D01*
X65595487Y-88908500D01*
X65601939Y-88907128D01*
X65601944Y-88907128D01*
X65644256Y-88898134D01*
X79341500Y-88898134D01*
X79348255Y-88960316D01*
X79399385Y-89096705D01*
X79486739Y-89213261D01*
X79603295Y-89300615D01*
X79739684Y-89351745D01*
X79801866Y-89358500D01*
X81598134Y-89358500D01*
X81660316Y-89351745D01*
X81796705Y-89300615D01*
X81913261Y-89213261D01*
X82000615Y-89096705D01*
X82051745Y-88960316D01*
X82058500Y-88898134D01*
X82058500Y-88598134D01*
X84941500Y-88598134D01*
X84948255Y-88660316D01*
X84999385Y-88796705D01*
X85086739Y-88913261D01*
X85203295Y-89000615D01*
X85339684Y-89051745D01*
X85401866Y-89058500D01*
X87198134Y-89058500D01*
X87260316Y-89051745D01*
X87396705Y-89000615D01*
X87513261Y-88913261D01*
X87600615Y-88796705D01*
X87651745Y-88660316D01*
X87658500Y-88598134D01*
X87658500Y-86801866D01*
X87651745Y-86739684D01*
X87600615Y-86603295D01*
X87513261Y-86486739D01*
X87396705Y-86399385D01*
X87260316Y-86348255D01*
X87198134Y-86341500D01*
X85401866Y-86341500D01*
X85339684Y-86348255D01*
X85203295Y-86399385D01*
X85086739Y-86486739D01*
X84999385Y-86603295D01*
X84948255Y-86739684D01*
X84941500Y-86801866D01*
X84941500Y-88598134D01*
X82058500Y-88598134D01*
X82058500Y-87101866D01*
X82051745Y-87039684D01*
X82000615Y-86903295D01*
X81913261Y-86786739D01*
X81796705Y-86699385D01*
X81660316Y-86648255D01*
X81598134Y-86641500D01*
X79801866Y-86641500D01*
X79739684Y-86648255D01*
X79603295Y-86699385D01*
X79486739Y-86786739D01*
X79399385Y-86903295D01*
X79348255Y-87039684D01*
X79341500Y-87101866D01*
X79341500Y-88898134D01*
X65644256Y-88898134D01*
X65688888Y-88888647D01*
X65782288Y-88868794D01*
X65788319Y-88866109D01*
X65950722Y-88793803D01*
X65950724Y-88793802D01*
X65956752Y-88791118D01*
X66111253Y-88678866D01*
X66115675Y-88673955D01*
X66234621Y-88541852D01*
X66234622Y-88541851D01*
X66239040Y-88536944D01*
X66334527Y-88371556D01*
X66393542Y-88189928D01*
X66413504Y-88000000D01*
X66393542Y-87810072D01*
X66334527Y-87628444D01*
X66239040Y-87463056D01*
X66111253Y-87321134D01*
X65956752Y-87208882D01*
X65950724Y-87206198D01*
X65950722Y-87206197D01*
X65788319Y-87133891D01*
X65788318Y-87133891D01*
X65782288Y-87131206D01*
X65660331Y-87105283D01*
X65601944Y-87092872D01*
X65601939Y-87092872D01*
X65595487Y-87091500D01*
X65404513Y-87091500D01*
X65398061Y-87092872D01*
X65398056Y-87092872D01*
X65339669Y-87105283D01*
X65217712Y-87131206D01*
X65211682Y-87133891D01*
X65211681Y-87133891D01*
X65049278Y-87206197D01*
X65049276Y-87206198D01*
X65043248Y-87208882D01*
X64888747Y-87321134D01*
X64760960Y-87463056D01*
X64665473Y-87628444D01*
X64606458Y-87810072D01*
X64586496Y-88000000D01*
X43508000Y-88000000D01*
X43508000Y-84998134D01*
X84941500Y-84998134D01*
X84948255Y-85060316D01*
X84999385Y-85196705D01*
X85086739Y-85313261D01*
X85203295Y-85400615D01*
X85339684Y-85451745D01*
X85401866Y-85458500D01*
X87198134Y-85458500D01*
X87260316Y-85451745D01*
X87396705Y-85400615D01*
X87513261Y-85313261D01*
X87600615Y-85196705D01*
X87651745Y-85060316D01*
X87658500Y-84998134D01*
X87658500Y-83201866D01*
X87651745Y-83139684D01*
X87600615Y-83003295D01*
X87513261Y-82886739D01*
X87396705Y-82799385D01*
X87260316Y-82748255D01*
X87198134Y-82741500D01*
X85401866Y-82741500D01*
X85339684Y-82748255D01*
X85203295Y-82799385D01*
X85086739Y-82886739D01*
X84999385Y-83003295D01*
X84948255Y-83139684D01*
X84941500Y-83201866D01*
X84941500Y-84998134D01*
X43508000Y-84998134D01*
X43508000Y-82600000D01*
X75986526Y-82600000D01*
X76006391Y-82852403D01*
X76065495Y-83098591D01*
X76067388Y-83103162D01*
X76067389Y-83103164D01*
X76106866Y-83198469D01*
X76162384Y-83332502D01*
X76294672Y-83548376D01*
X76459102Y-83740898D01*
X76651624Y-83905328D01*
X76867498Y-84037616D01*
X76872068Y-84039509D01*
X76872072Y-84039511D01*
X77096836Y-84132611D01*
X77101409Y-84134505D01*
X77186032Y-84154821D01*
X77342784Y-84192454D01*
X77342790Y-84192455D01*
X77347597Y-84193609D01*
X77447416Y-84201465D01*
X77534345Y-84208307D01*
X77534352Y-84208307D01*
X77536801Y-84208500D01*
X77663199Y-84208500D01*
X77665648Y-84208307D01*
X77665655Y-84208307D01*
X77752584Y-84201465D01*
X77852403Y-84193609D01*
X77857210Y-84192455D01*
X77857216Y-84192454D01*
X78013968Y-84154821D01*
X78098591Y-84134505D01*
X78103164Y-84132611D01*
X78327928Y-84039511D01*
X78327932Y-84039509D01*
X78332502Y-84037616D01*
X78548376Y-83905328D01*
X78740898Y-83740898D01*
X78905328Y-83548376D01*
X79037616Y-83332502D01*
X79093135Y-83198469D01*
X79132611Y-83103164D01*
X79132612Y-83103162D01*
X79134505Y-83098591D01*
X79193609Y-82852403D01*
X79213474Y-82600000D01*
X79193609Y-82347597D01*
X79134505Y-82101409D01*
X79132399Y-82096325D01*
X79039511Y-81872072D01*
X79039509Y-81872068D01*
X79037616Y-81867498D01*
X78905328Y-81651624D01*
X78740898Y-81459102D01*
X78667735Y-81396615D01*
X84699201Y-81396615D01*
X84699539Y-81403135D01*
X84709351Y-81497717D01*
X84712247Y-81511127D01*
X84763155Y-81663714D01*
X84769321Y-81676878D01*
X84853748Y-81813312D01*
X84862775Y-81824701D01*
X84976322Y-81938050D01*
X84987733Y-81947062D01*
X85124308Y-82031248D01*
X85137486Y-82037392D01*
X85290184Y-82088040D01*
X85303550Y-82090906D01*
X85396919Y-82100472D01*
X85403334Y-82100800D01*
X86127885Y-82100800D01*
X86143124Y-82096325D01*
X86144329Y-82094935D01*
X86146000Y-82087252D01*
X86146000Y-82082684D01*
X86454000Y-82082684D01*
X86458475Y-82097923D01*
X86459865Y-82099128D01*
X86467548Y-82100799D01*
X87196615Y-82100799D01*
X87203135Y-82100461D01*
X87297717Y-82090649D01*
X87311127Y-82087753D01*
X87463714Y-82036845D01*
X87476878Y-82030679D01*
X87613312Y-81946252D01*
X87624701Y-81937225D01*
X87738050Y-81823678D01*
X87747062Y-81812267D01*
X87831248Y-81675692D01*
X87837392Y-81662514D01*
X87888040Y-81509816D01*
X87890906Y-81496450D01*
X87900472Y-81403081D01*
X87900800Y-81396666D01*
X87900800Y-80672115D01*
X87896325Y-80656876D01*
X87894935Y-80655671D01*
X87887252Y-80654000D01*
X86472115Y-80654000D01*
X86456876Y-80658475D01*
X86455671Y-80659865D01*
X86454000Y-80667548D01*
X86454000Y-82082684D01*
X86146000Y-82082684D01*
X86146000Y-80672115D01*
X86141525Y-80656876D01*
X86140135Y-80655671D01*
X86132452Y-80654000D01*
X84717316Y-80654000D01*
X84702077Y-80658475D01*
X84700872Y-80659865D01*
X84699201Y-80667548D01*
X84699201Y-81396615D01*
X78667735Y-81396615D01*
X78548376Y-81294672D01*
X78332502Y-81162384D01*
X78327932Y-81160491D01*
X78327928Y-81160489D01*
X78103164Y-81067389D01*
X78103162Y-81067388D01*
X78098591Y-81065495D01*
X78013968Y-81045179D01*
X77857216Y-81007546D01*
X77857210Y-81007545D01*
X77852403Y-81006391D01*
X77752584Y-80998535D01*
X77665655Y-80991693D01*
X77665648Y-80991693D01*
X77663199Y-80991500D01*
X77536801Y-80991500D01*
X77534352Y-80991693D01*
X77534345Y-80991693D01*
X77447416Y-80998535D01*
X77347597Y-81006391D01*
X77342790Y-81007545D01*
X77342784Y-81007546D01*
X77186032Y-81045179D01*
X77101409Y-81065495D01*
X77096838Y-81067388D01*
X77096836Y-81067389D01*
X76872072Y-81160489D01*
X76872068Y-81160491D01*
X76867498Y-81162384D01*
X76651624Y-81294672D01*
X76459102Y-81459102D01*
X76294672Y-81651624D01*
X76162384Y-81867498D01*
X76160491Y-81872068D01*
X76160489Y-81872072D01*
X76067601Y-82096325D01*
X76065495Y-82101409D01*
X76006391Y-82347597D01*
X75986526Y-82600000D01*
X43508000Y-82600000D01*
X43508000Y-81200000D01*
X45486496Y-81200000D01*
X45506458Y-81389928D01*
X45565473Y-81571556D01*
X45660960Y-81736944D01*
X45665378Y-81741851D01*
X45665379Y-81741852D01*
X45778511Y-81867498D01*
X45788747Y-81878866D01*
X45882610Y-81947062D01*
X45926385Y-81978866D01*
X45943248Y-81991118D01*
X45949276Y-81993802D01*
X45949278Y-81993803D01*
X46111681Y-82066109D01*
X46117712Y-82068794D01*
X46204479Y-82087237D01*
X46298056Y-82107128D01*
X46298061Y-82107128D01*
X46304513Y-82108500D01*
X46495487Y-82108500D01*
X46501939Y-82107128D01*
X46501944Y-82107128D01*
X46595521Y-82087237D01*
X46682288Y-82068794D01*
X46688319Y-82066109D01*
X46850722Y-81993803D01*
X46850724Y-81993802D01*
X46856752Y-81991118D01*
X46873616Y-81978866D01*
X46917390Y-81947062D01*
X47011253Y-81878866D01*
X47021489Y-81867498D01*
X47134621Y-81741852D01*
X47134622Y-81741851D01*
X47139040Y-81736944D01*
X47234527Y-81571556D01*
X47293542Y-81389928D01*
X47302994Y-81300000D01*
X65186496Y-81300000D01*
X65187186Y-81306565D01*
X65196651Y-81396615D01*
X65206458Y-81489928D01*
X65265473Y-81671556D01*
X65360960Y-81836944D01*
X65365378Y-81841851D01*
X65365379Y-81841852D01*
X65484325Y-81973955D01*
X65488747Y-81978866D01*
X65509306Y-81993803D01*
X65631640Y-82082684D01*
X65643248Y-82091118D01*
X65649276Y-82093802D01*
X65649278Y-82093803D01*
X65811681Y-82166109D01*
X65817712Y-82168794D01*
X65911113Y-82188647D01*
X65998056Y-82207128D01*
X65998061Y-82207128D01*
X66004513Y-82208500D01*
X66195487Y-82208500D01*
X66201939Y-82207128D01*
X66201944Y-82207128D01*
X66288887Y-82188647D01*
X66382288Y-82168794D01*
X66388319Y-82166109D01*
X66550722Y-82093803D01*
X66550724Y-82093802D01*
X66556752Y-82091118D01*
X66568361Y-82082684D01*
X66690694Y-81993803D01*
X66711253Y-81978866D01*
X66715675Y-81973955D01*
X66834621Y-81841852D01*
X66834622Y-81841851D01*
X66839040Y-81836944D01*
X66934527Y-81671556D01*
X66993542Y-81489928D01*
X67003350Y-81396615D01*
X67012814Y-81306565D01*
X67013504Y-81300000D01*
X66993542Y-81110072D01*
X66934527Y-80928444D01*
X66839040Y-80763056D01*
X66757157Y-80672115D01*
X66715675Y-80626045D01*
X66715674Y-80626044D01*
X66711253Y-80621134D01*
X66580375Y-80526045D01*
X66562094Y-80512763D01*
X66562093Y-80512762D01*
X66556752Y-80508882D01*
X66550724Y-80506198D01*
X66550722Y-80506197D01*
X66535920Y-80499607D01*
X66481824Y-80453627D01*
X66461175Y-80385700D01*
X66477554Y-80327885D01*
X84699200Y-80327885D01*
X84703675Y-80343124D01*
X84705065Y-80344329D01*
X84712748Y-80346000D01*
X86127885Y-80346000D01*
X86143124Y-80341525D01*
X86144329Y-80340135D01*
X86146000Y-80332452D01*
X86146000Y-80327885D01*
X86454000Y-80327885D01*
X86458475Y-80343124D01*
X86459865Y-80344329D01*
X86467548Y-80346000D01*
X87882684Y-80346000D01*
X87897923Y-80341525D01*
X87899128Y-80340135D01*
X87900799Y-80332452D01*
X87900799Y-79603385D01*
X87900461Y-79596865D01*
X87890649Y-79502283D01*
X87887753Y-79488873D01*
X87836845Y-79336286D01*
X87830679Y-79323122D01*
X87746252Y-79186688D01*
X87737225Y-79175299D01*
X87623678Y-79061950D01*
X87612267Y-79052938D01*
X87475692Y-78968752D01*
X87462514Y-78962608D01*
X87309816Y-78911960D01*
X87296450Y-78909094D01*
X87203081Y-78899528D01*
X87196666Y-78899200D01*
X86472115Y-78899200D01*
X86456876Y-78903675D01*
X86455671Y-78905065D01*
X86454000Y-78912748D01*
X86454000Y-80327885D01*
X86146000Y-80327885D01*
X86146000Y-78917316D01*
X86141525Y-78902077D01*
X86140135Y-78900872D01*
X86132452Y-78899201D01*
X85403385Y-78899201D01*
X85396865Y-78899539D01*
X85302283Y-78909351D01*
X85288873Y-78912247D01*
X85136286Y-78963155D01*
X85123122Y-78969321D01*
X84986688Y-79053748D01*
X84975299Y-79062775D01*
X84861950Y-79176322D01*
X84852938Y-79187733D01*
X84768752Y-79324308D01*
X84762608Y-79337486D01*
X84711960Y-79490184D01*
X84709094Y-79503550D01*
X84699528Y-79596919D01*
X84699200Y-79603334D01*
X84699200Y-80327885D01*
X66477554Y-80327885D01*
X66480527Y-80317391D01*
X66533738Y-80270390D01*
X66587169Y-80258500D01*
X67698134Y-80258500D01*
X67760316Y-80251745D01*
X67896705Y-80200615D01*
X68013261Y-80113261D01*
X68100615Y-79996705D01*
X68151745Y-79860316D01*
X68158500Y-79798134D01*
X68158500Y-78001866D01*
X68151745Y-77939684D01*
X68100615Y-77803295D01*
X68013261Y-77686739D01*
X67896705Y-77599385D01*
X67760316Y-77548255D01*
X67698134Y-77541500D01*
X65901866Y-77541500D01*
X65839684Y-77548255D01*
X65703295Y-77599385D01*
X65586739Y-77686739D01*
X65499385Y-77803295D01*
X65448255Y-77939684D01*
X65441500Y-78001866D01*
X65441500Y-79798134D01*
X65448255Y-79860316D01*
X65499385Y-79996705D01*
X65586739Y-80113261D01*
X65703295Y-80200615D01*
X65711703Y-80203767D01*
X65758554Y-80221331D01*
X65815318Y-80263973D01*
X65840018Y-80330535D01*
X65824810Y-80399883D01*
X65774524Y-80450002D01*
X65765572Y-80454420D01*
X65649281Y-80506195D01*
X65649274Y-80506199D01*
X65643248Y-80508882D01*
X65637907Y-80512762D01*
X65637906Y-80512763D01*
X65619625Y-80526045D01*
X65488747Y-80621134D01*
X65484326Y-80626044D01*
X65484325Y-80626045D01*
X65442844Y-80672115D01*
X65360960Y-80763056D01*
X65265473Y-80928444D01*
X65206458Y-81110072D01*
X65186496Y-81300000D01*
X47302994Y-81300000D01*
X47313504Y-81200000D01*
X47304052Y-81110072D01*
X47294232Y-81016635D01*
X47294232Y-81016633D01*
X47293542Y-81010072D01*
X47234527Y-80828444D01*
X47139040Y-80663056D01*
X47011253Y-80521134D01*
X46856752Y-80408882D01*
X46850724Y-80406198D01*
X46850722Y-80406197D01*
X46688319Y-80333891D01*
X46688318Y-80333891D01*
X46682288Y-80331206D01*
X46588887Y-80311353D01*
X46501944Y-80292872D01*
X46501939Y-80292872D01*
X46495487Y-80291500D01*
X46304513Y-80291500D01*
X46298061Y-80292872D01*
X46298056Y-80292872D01*
X46211113Y-80311353D01*
X46117712Y-80331206D01*
X46111682Y-80333891D01*
X46111681Y-80333891D01*
X45949278Y-80406197D01*
X45949276Y-80406198D01*
X45943248Y-80408882D01*
X45788747Y-80521134D01*
X45660960Y-80663056D01*
X45565473Y-80828444D01*
X45506458Y-81010072D01*
X45505768Y-81016633D01*
X45505768Y-81016635D01*
X45495948Y-81110072D01*
X45486496Y-81200000D01*
X43508000Y-81200000D01*
X43508000Y-75498134D01*
X84941500Y-75498134D01*
X84948255Y-75560316D01*
X84999385Y-75696705D01*
X85086739Y-75813261D01*
X85203295Y-75900615D01*
X85339684Y-75951745D01*
X85401866Y-75958500D01*
X87198134Y-75958500D01*
X87260316Y-75951745D01*
X87396705Y-75900615D01*
X87513261Y-75813261D01*
X87600615Y-75696705D01*
X87651745Y-75560316D01*
X87658500Y-75498134D01*
X87658500Y-73701866D01*
X87651745Y-73639684D01*
X87600615Y-73503295D01*
X87513261Y-73386739D01*
X87396705Y-73299385D01*
X87260316Y-73248255D01*
X87198134Y-73241500D01*
X85401866Y-73241500D01*
X85339684Y-73248255D01*
X85203295Y-73299385D01*
X85086739Y-73386739D01*
X84999385Y-73503295D01*
X84948255Y-73639684D01*
X84941500Y-73701866D01*
X84941500Y-75498134D01*
X43508000Y-75498134D01*
X43508000Y-70900000D01*
X54978647Y-70900000D01*
X54998022Y-71121463D01*
X55055560Y-71336196D01*
X55057882Y-71341177D01*
X55057883Y-71341178D01*
X55147186Y-71532689D01*
X55147189Y-71532694D01*
X55149512Y-71537676D01*
X55277023Y-71719781D01*
X55434219Y-71876977D01*
X55438727Y-71880134D01*
X55438730Y-71880136D01*
X55514495Y-71933187D01*
X55616323Y-72004488D01*
X55621305Y-72006811D01*
X55621310Y-72006814D01*
X55812822Y-72096117D01*
X55817804Y-72098440D01*
X55823112Y-72099862D01*
X55823114Y-72099863D01*
X55846320Y-72106081D01*
X56032537Y-72155978D01*
X56254000Y-72175353D01*
X56475463Y-72155978D01*
X56661680Y-72106081D01*
X56684886Y-72099863D01*
X56684888Y-72099862D01*
X56690196Y-72098440D01*
X56695178Y-72096117D01*
X56886690Y-72006814D01*
X56886695Y-72006811D01*
X56891677Y-72004488D01*
X56993505Y-71933187D01*
X57069270Y-71880136D01*
X57069273Y-71880134D01*
X57073781Y-71876977D01*
X57152624Y-71798134D01*
X84941500Y-71798134D01*
X84948255Y-71860316D01*
X84999385Y-71996705D01*
X85086739Y-72113261D01*
X85203295Y-72200615D01*
X85339684Y-72251745D01*
X85401866Y-72258500D01*
X87198134Y-72258500D01*
X87260316Y-72251745D01*
X87396705Y-72200615D01*
X87513261Y-72113261D01*
X87600615Y-71996705D01*
X87651745Y-71860316D01*
X87658500Y-71798134D01*
X87658500Y-70001866D01*
X87651745Y-69939684D01*
X87600615Y-69803295D01*
X87513261Y-69686739D01*
X87396705Y-69599385D01*
X87260316Y-69548255D01*
X87198134Y-69541500D01*
X85401866Y-69541500D01*
X85339684Y-69548255D01*
X85203295Y-69599385D01*
X85086739Y-69686739D01*
X84999385Y-69803295D01*
X84948255Y-69939684D01*
X84941500Y-70001866D01*
X84941500Y-71798134D01*
X57152624Y-71798134D01*
X57230977Y-71719781D01*
X57358488Y-71537676D01*
X57360811Y-71532694D01*
X57360814Y-71532689D01*
X57450117Y-71341178D01*
X57450118Y-71341177D01*
X57452440Y-71336196D01*
X57509978Y-71121463D01*
X57529353Y-70900000D01*
X57509978Y-70678537D01*
X57452440Y-70463804D01*
X57450117Y-70458822D01*
X57360814Y-70267311D01*
X57360811Y-70267306D01*
X57358488Y-70262324D01*
X57230977Y-70080219D01*
X57073781Y-69923023D01*
X57069273Y-69919866D01*
X57069270Y-69919864D01*
X56902792Y-69803295D01*
X56891677Y-69795512D01*
X56886695Y-69793189D01*
X56886690Y-69793186D01*
X56695178Y-69703883D01*
X56695177Y-69703882D01*
X56690196Y-69701560D01*
X56684888Y-69700138D01*
X56684886Y-69700137D01*
X56614802Y-69681358D01*
X56475463Y-69644022D01*
X56254000Y-69624647D01*
X56032537Y-69644022D01*
X55893198Y-69681358D01*
X55823114Y-69700137D01*
X55823112Y-69700138D01*
X55817804Y-69701560D01*
X55812823Y-69703882D01*
X55812822Y-69703883D01*
X55621311Y-69793186D01*
X55621306Y-69793189D01*
X55616324Y-69795512D01*
X55611817Y-69798668D01*
X55611815Y-69798669D01*
X55438730Y-69919864D01*
X55438727Y-69919866D01*
X55434219Y-69923023D01*
X55277023Y-70080219D01*
X55149512Y-70262324D01*
X55147189Y-70267306D01*
X55147186Y-70267311D01*
X55057883Y-70458822D01*
X55055560Y-70463804D01*
X54998022Y-70678537D01*
X54978647Y-70900000D01*
X43508000Y-70900000D01*
X43508000Y-68400000D01*
X51486496Y-68400000D01*
X51487186Y-68406565D01*
X51499228Y-68521134D01*
X51506458Y-68589928D01*
X51565473Y-68771556D01*
X51660960Y-68936944D01*
X51788747Y-69078866D01*
X51943248Y-69191118D01*
X51949276Y-69193802D01*
X51949278Y-69193803D01*
X52111681Y-69266109D01*
X52117712Y-69268794D01*
X52211113Y-69288647D01*
X52298056Y-69307128D01*
X52298061Y-69307128D01*
X52304513Y-69308500D01*
X52495487Y-69308500D01*
X52501939Y-69307128D01*
X52501944Y-69307128D01*
X52588887Y-69288647D01*
X52682288Y-69268794D01*
X52688319Y-69266109D01*
X52850722Y-69193803D01*
X52850724Y-69193802D01*
X52856752Y-69191118D01*
X53011253Y-69078866D01*
X53139040Y-68936944D01*
X53234527Y-68771556D01*
X53293542Y-68589928D01*
X53300773Y-68521134D01*
X53312814Y-68406565D01*
X53313504Y-68400000D01*
X53299714Y-68268794D01*
X53294232Y-68216635D01*
X53294232Y-68216633D01*
X53293542Y-68210072D01*
X53234527Y-68028444D01*
X53139040Y-67863056D01*
X53011253Y-67721134D01*
X52856752Y-67608882D01*
X52850724Y-67606198D01*
X52850722Y-67606197D01*
X52688319Y-67533891D01*
X52688318Y-67533891D01*
X52682288Y-67531206D01*
X52588888Y-67511353D01*
X52501944Y-67492872D01*
X52501939Y-67492872D01*
X52495487Y-67491500D01*
X52304513Y-67491500D01*
X52298061Y-67492872D01*
X52298056Y-67492872D01*
X52211112Y-67511353D01*
X52117712Y-67531206D01*
X52111682Y-67533891D01*
X52111681Y-67533891D01*
X51949278Y-67606197D01*
X51949276Y-67606198D01*
X51943248Y-67608882D01*
X51788747Y-67721134D01*
X51660960Y-67863056D01*
X51565473Y-68028444D01*
X51506458Y-68210072D01*
X51505768Y-68216633D01*
X51505768Y-68216635D01*
X51500286Y-68268794D01*
X51486496Y-68400000D01*
X43508000Y-68400000D01*
X43508000Y-63800000D01*
X50586496Y-63800000D01*
X50587186Y-63806565D01*
X50603955Y-63966109D01*
X50606458Y-63989928D01*
X50665473Y-64171556D01*
X50668776Y-64177278D01*
X50668777Y-64177279D01*
X50715864Y-64258836D01*
X50760960Y-64336944D01*
X50765378Y-64341851D01*
X50765379Y-64341852D01*
X50811599Y-64393184D01*
X50842316Y-64457192D01*
X50837796Y-64516430D01*
X50837730Y-64516635D01*
X50812656Y-64593803D01*
X50807146Y-64610760D01*
X50806456Y-64617323D01*
X50806455Y-64617330D01*
X50794204Y-64733892D01*
X50787184Y-64800688D01*
X50787874Y-64807253D01*
X50798556Y-64908882D01*
X50807146Y-64990616D01*
X50866161Y-65172244D01*
X50961648Y-65337632D01*
X50966066Y-65342539D01*
X50966067Y-65342540D01*
X51085013Y-65474643D01*
X51089435Y-65479554D01*
X51243936Y-65591806D01*
X51249964Y-65594490D01*
X51249966Y-65594491D01*
X51412367Y-65666796D01*
X51418400Y-65669482D01*
X51508258Y-65688582D01*
X51598744Y-65707816D01*
X51598749Y-65707816D01*
X51605201Y-65709188D01*
X51796175Y-65709188D01*
X51802627Y-65707816D01*
X51802632Y-65707816D01*
X51893118Y-65688582D01*
X51982976Y-65669482D01*
X51989003Y-65666799D01*
X51989011Y-65666796D01*
X52121474Y-65607820D01*
X52191841Y-65598386D01*
X52256138Y-65628493D01*
X52293951Y-65688582D01*
X52298032Y-65709755D01*
X52306458Y-65789928D01*
X52365473Y-65971556D01*
X52460960Y-66136944D01*
X52465378Y-66141851D01*
X52465379Y-66141852D01*
X52528273Y-66211703D01*
X52588747Y-66278866D01*
X52683268Y-66347540D01*
X52726385Y-66378866D01*
X52743248Y-66391118D01*
X52749276Y-66393802D01*
X52749278Y-66393803D01*
X52911679Y-66466108D01*
X52917712Y-66468794D01*
X52984466Y-66482983D01*
X53098056Y-66507128D01*
X53098061Y-66507128D01*
X53104513Y-66508500D01*
X53295487Y-66508500D01*
X53301939Y-66507128D01*
X53301944Y-66507128D01*
X53415534Y-66482983D01*
X53482288Y-66468794D01*
X53488315Y-66466111D01*
X53488323Y-66466108D01*
X53598583Y-66417017D01*
X53668950Y-66407583D01*
X53733247Y-66437690D01*
X53771060Y-66497779D01*
X53770384Y-66568772D01*
X53737507Y-66620467D01*
X53738247Y-66621134D01*
X53734282Y-66625537D01*
X53734281Y-66625539D01*
X53733831Y-66626038D01*
X53733827Y-66626042D01*
X53614879Y-66758148D01*
X53610460Y-66763056D01*
X53514973Y-66928444D01*
X53455958Y-67110072D01*
X53455268Y-67116633D01*
X53455268Y-67116635D01*
X53445448Y-67210072D01*
X53435996Y-67300000D01*
X53455958Y-67489928D01*
X53514973Y-67671556D01*
X53610460Y-67836944D01*
X53738247Y-67978866D01*
X53798608Y-68022721D01*
X53875885Y-68078866D01*
X53892748Y-68091118D01*
X53898776Y-68093802D01*
X53898778Y-68093803D01*
X54061181Y-68166109D01*
X54067212Y-68168794D01*
X54153979Y-68187237D01*
X54247556Y-68207128D01*
X54247561Y-68207128D01*
X54254013Y-68208500D01*
X54444987Y-68208500D01*
X54451439Y-68207128D01*
X54451444Y-68207128D01*
X54545021Y-68187237D01*
X54631788Y-68168794D01*
X54637819Y-68166109D01*
X54800222Y-68093803D01*
X54800224Y-68093802D01*
X54806252Y-68091118D01*
X54823116Y-68078866D01*
X54900392Y-68022721D01*
X54960753Y-67978866D01*
X55088540Y-67836944D01*
X55184027Y-67671556D01*
X55243042Y-67489928D01*
X55252494Y-67400000D01*
X81186496Y-67400000D01*
X81187186Y-67406565D01*
X81196608Y-67496206D01*
X81206458Y-67589928D01*
X81265473Y-67771556D01*
X81360960Y-67936944D01*
X81488747Y-68078866D01*
X81509306Y-68093803D01*
X81624476Y-68177479D01*
X81643248Y-68191118D01*
X81649274Y-68193801D01*
X81649281Y-68193805D01*
X81753726Y-68240306D01*
X81807822Y-68286286D01*
X81828472Y-68354213D01*
X81809120Y-68422521D01*
X81776539Y-68457349D01*
X81688747Y-68521134D01*
X81684326Y-68526044D01*
X81684325Y-68526045D01*
X81622032Y-68595229D01*
X81560960Y-68663056D01*
X81465473Y-68828444D01*
X81406458Y-69010072D01*
X81405768Y-69016633D01*
X81405768Y-69016635D01*
X81398819Y-69082749D01*
X81386496Y-69200000D01*
X81406458Y-69389928D01*
X81465473Y-69571556D01*
X81560960Y-69736944D01*
X81565378Y-69741851D01*
X81565379Y-69741852D01*
X81628273Y-69811703D01*
X81688747Y-69878866D01*
X81843248Y-69991118D01*
X81849276Y-69993802D01*
X81849278Y-69993803D01*
X81875063Y-70005283D01*
X82017712Y-70068794D01*
X82092685Y-70084730D01*
X82198056Y-70107128D01*
X82198061Y-70107128D01*
X82204513Y-70108500D01*
X82395487Y-70108500D01*
X82401939Y-70107128D01*
X82401944Y-70107128D01*
X82507315Y-70084730D01*
X82582288Y-70068794D01*
X82724937Y-70005283D01*
X82750722Y-69993803D01*
X82750724Y-69993802D01*
X82756752Y-69991118D01*
X82911253Y-69878866D01*
X82971727Y-69811703D01*
X83034621Y-69741852D01*
X83034622Y-69741851D01*
X83039040Y-69736944D01*
X83134527Y-69571556D01*
X83193542Y-69389928D01*
X83213504Y-69200000D01*
X83201181Y-69082749D01*
X83194232Y-69016635D01*
X83194232Y-69016633D01*
X83193542Y-69010072D01*
X83134527Y-68828444D01*
X83039040Y-68663056D01*
X82977969Y-68595229D01*
X82915675Y-68526045D01*
X82915674Y-68526044D01*
X82911253Y-68521134D01*
X82812157Y-68449136D01*
X82762094Y-68412763D01*
X82762093Y-68412762D01*
X82756752Y-68408882D01*
X82750726Y-68406199D01*
X82750719Y-68406195D01*
X82646274Y-68359694D01*
X82592178Y-68313714D01*
X82571528Y-68245787D01*
X82585028Y-68198134D01*
X84941500Y-68198134D01*
X84948255Y-68260316D01*
X84999385Y-68396705D01*
X85086739Y-68513261D01*
X85203295Y-68600615D01*
X85339684Y-68651745D01*
X85401866Y-68658500D01*
X87198134Y-68658500D01*
X87260316Y-68651745D01*
X87396705Y-68600615D01*
X87513261Y-68513261D01*
X87600615Y-68396705D01*
X87651745Y-68260316D01*
X87658500Y-68198134D01*
X87658500Y-66401866D01*
X87651745Y-66339684D01*
X87600615Y-66203295D01*
X87513261Y-66086739D01*
X87396705Y-65999385D01*
X87260316Y-65948255D01*
X87198134Y-65941500D01*
X85401866Y-65941500D01*
X85339684Y-65948255D01*
X85203295Y-65999385D01*
X85086739Y-66086739D01*
X84999385Y-66203295D01*
X84948255Y-66339684D01*
X84941500Y-66401866D01*
X84941500Y-68198134D01*
X82585028Y-68198134D01*
X82590880Y-68177479D01*
X82623461Y-68142651D01*
X82690694Y-68093803D01*
X82711253Y-68078866D01*
X82839040Y-67936944D01*
X82934527Y-67771556D01*
X82993542Y-67589928D01*
X83003393Y-67496206D01*
X83012814Y-67406565D01*
X83013504Y-67400000D01*
X82993542Y-67210072D01*
X82934527Y-67028444D01*
X82839040Y-66863056D01*
X82711253Y-66721134D01*
X82579676Y-66625537D01*
X82562094Y-66612763D01*
X82562093Y-66612762D01*
X82556752Y-66608882D01*
X82550724Y-66606198D01*
X82550722Y-66606197D01*
X82388319Y-66533891D01*
X82388318Y-66533891D01*
X82382288Y-66531206D01*
X82288887Y-66511353D01*
X82201944Y-66492872D01*
X82201939Y-66492872D01*
X82195487Y-66491500D01*
X82004513Y-66491500D01*
X81998061Y-66492872D01*
X81998056Y-66492872D01*
X81911113Y-66511353D01*
X81817712Y-66531206D01*
X81811682Y-66533891D01*
X81811681Y-66533891D01*
X81649278Y-66606197D01*
X81649276Y-66606198D01*
X81643248Y-66608882D01*
X81637907Y-66612762D01*
X81637906Y-66612763D01*
X81620324Y-66625537D01*
X81488747Y-66721134D01*
X81360960Y-66863056D01*
X81265473Y-67028444D01*
X81206458Y-67210072D01*
X81186496Y-67400000D01*
X55252494Y-67400000D01*
X55263004Y-67300000D01*
X55253552Y-67210072D01*
X55243732Y-67116635D01*
X55243732Y-67116633D01*
X55243042Y-67110072D01*
X55184027Y-66928444D01*
X55088540Y-66763056D01*
X54960753Y-66621134D01*
X54806252Y-66508882D01*
X54800224Y-66506198D01*
X54800222Y-66506197D01*
X54637819Y-66433891D01*
X54637818Y-66433891D01*
X54631788Y-66431206D01*
X54538387Y-66411353D01*
X54451444Y-66392872D01*
X54451439Y-66392872D01*
X54444987Y-66391500D01*
X54254013Y-66391500D01*
X54247561Y-66392872D01*
X54247556Y-66392872D01*
X54160613Y-66411353D01*
X54067212Y-66431206D01*
X54061185Y-66433889D01*
X54061177Y-66433892D01*
X53950917Y-66482983D01*
X53880550Y-66492417D01*
X53816253Y-66462310D01*
X53778440Y-66402221D01*
X53779116Y-66331228D01*
X53811993Y-66279533D01*
X53811253Y-66278866D01*
X53815218Y-66274463D01*
X53815219Y-66274461D01*
X53815669Y-66273962D01*
X53815673Y-66273958D01*
X53934621Y-66141852D01*
X53934622Y-66141851D01*
X53939040Y-66136944D01*
X54034527Y-65971556D01*
X54093542Y-65789928D01*
X54102994Y-65700000D01*
X82686496Y-65700000D01*
X82687186Y-65706565D01*
X82696608Y-65796206D01*
X82706458Y-65889928D01*
X82765473Y-66071556D01*
X82860960Y-66236944D01*
X82865378Y-66241851D01*
X82865379Y-66241852D01*
X82946805Y-66332285D01*
X82988747Y-66378866D01*
X83143248Y-66491118D01*
X83149276Y-66493802D01*
X83149278Y-66493803D01*
X83239318Y-66533891D01*
X83317712Y-66568794D01*
X83411112Y-66588647D01*
X83498056Y-66607128D01*
X83498061Y-66607128D01*
X83504513Y-66608500D01*
X83695487Y-66608500D01*
X83701939Y-66607128D01*
X83701944Y-66607128D01*
X83788888Y-66588647D01*
X83882288Y-66568794D01*
X83960682Y-66533891D01*
X84050722Y-66493803D01*
X84050724Y-66493802D01*
X84056752Y-66491118D01*
X84211253Y-66378866D01*
X84253195Y-66332285D01*
X84334621Y-66241852D01*
X84334622Y-66241851D01*
X84339040Y-66236944D01*
X84434527Y-66071556D01*
X84493542Y-65889928D01*
X84503393Y-65796206D01*
X84512814Y-65706565D01*
X84513504Y-65700000D01*
X84502304Y-65593435D01*
X84494232Y-65516635D01*
X84494232Y-65516633D01*
X84493542Y-65510072D01*
X84434527Y-65328444D01*
X84339040Y-65163056D01*
X84211253Y-65021134D01*
X84080375Y-64926045D01*
X84062094Y-64912763D01*
X84062093Y-64912762D01*
X84056752Y-64908882D01*
X84050724Y-64906198D01*
X84050722Y-64906197D01*
X83888319Y-64833891D01*
X83888318Y-64833891D01*
X83882288Y-64831206D01*
X83788888Y-64811353D01*
X83701944Y-64792872D01*
X83701939Y-64792872D01*
X83695487Y-64791500D01*
X83504513Y-64791500D01*
X83498061Y-64792872D01*
X83498056Y-64792872D01*
X83411112Y-64811353D01*
X83317712Y-64831206D01*
X83311682Y-64833891D01*
X83311681Y-64833891D01*
X83149278Y-64906197D01*
X83149276Y-64906198D01*
X83143248Y-64908882D01*
X83137907Y-64912762D01*
X83137906Y-64912763D01*
X83119625Y-64926045D01*
X82988747Y-65021134D01*
X82860960Y-65163056D01*
X82765473Y-65328444D01*
X82706458Y-65510072D01*
X82705768Y-65516633D01*
X82705768Y-65516635D01*
X82697696Y-65593435D01*
X82686496Y-65700000D01*
X54102994Y-65700000D01*
X54106484Y-65666797D01*
X54112814Y-65606565D01*
X54113504Y-65600000D01*
X54104052Y-65510072D01*
X54094232Y-65416635D01*
X54094232Y-65416633D01*
X54093542Y-65410072D01*
X54034527Y-65228444D01*
X53939040Y-65063056D01*
X53867906Y-64984053D01*
X53815675Y-64926045D01*
X53815674Y-64926044D01*
X53811253Y-64921134D01*
X53656752Y-64808882D01*
X53650724Y-64806198D01*
X53650722Y-64806197D01*
X53488319Y-64733891D01*
X53488318Y-64733891D01*
X53482288Y-64731206D01*
X53366362Y-64706565D01*
X53301944Y-64692872D01*
X53301939Y-64692872D01*
X53295487Y-64691500D01*
X53104513Y-64691500D01*
X53098061Y-64692872D01*
X53098056Y-64692872D01*
X53033638Y-64706565D01*
X52917712Y-64731206D01*
X52911685Y-64733889D01*
X52911677Y-64733892D01*
X52779214Y-64792868D01*
X52708847Y-64802302D01*
X52644550Y-64772195D01*
X52606737Y-64712106D01*
X52602656Y-64690931D01*
X52600330Y-64668794D01*
X52594230Y-64610760D01*
X52535215Y-64429132D01*
X52514461Y-64393184D01*
X52443031Y-64269465D01*
X52439728Y-64263744D01*
X52389089Y-64207504D01*
X52358372Y-64143496D01*
X52362892Y-64084258D01*
X52381807Y-64026045D01*
X52391501Y-63996211D01*
X52391502Y-63996206D01*
X52393542Y-63989928D01*
X52395764Y-63968794D01*
X52412814Y-63806565D01*
X52413504Y-63800000D01*
X52396882Y-63641852D01*
X52394232Y-63616635D01*
X52394232Y-63616633D01*
X52393542Y-63610072D01*
X52334527Y-63428444D01*
X52239040Y-63263056D01*
X52111253Y-63121134D01*
X51956752Y-63008882D01*
X51950724Y-63006198D01*
X51950722Y-63006197D01*
X51788319Y-62933891D01*
X51788318Y-62933891D01*
X51782288Y-62931206D01*
X51682861Y-62910072D01*
X51601944Y-62892872D01*
X51601939Y-62892872D01*
X51595487Y-62891500D01*
X51404513Y-62891500D01*
X51398061Y-62892872D01*
X51398056Y-62892872D01*
X51317139Y-62910072D01*
X51217712Y-62931206D01*
X51211682Y-62933891D01*
X51211681Y-62933891D01*
X51049278Y-63006197D01*
X51049276Y-63006198D01*
X51043248Y-63008882D01*
X50888747Y-63121134D01*
X50760960Y-63263056D01*
X50665473Y-63428444D01*
X50606458Y-63610072D01*
X50605768Y-63616633D01*
X50605768Y-63616635D01*
X50603118Y-63641852D01*
X50586496Y-63800000D01*
X43508000Y-63800000D01*
X43508000Y-61900000D01*
X46686496Y-61900000D01*
X46706458Y-62089928D01*
X46765473Y-62271556D01*
X46860960Y-62436944D01*
X46988747Y-62578866D01*
X47143248Y-62691118D01*
X47149276Y-62693802D01*
X47149278Y-62693803D01*
X47279419Y-62751745D01*
X47317712Y-62768794D01*
X47411112Y-62788647D01*
X47498056Y-62807128D01*
X47498061Y-62807128D01*
X47504513Y-62808500D01*
X47695487Y-62808500D01*
X47701939Y-62807128D01*
X47701944Y-62807128D01*
X47788888Y-62788647D01*
X47882288Y-62768794D01*
X47920581Y-62751745D01*
X48050722Y-62693803D01*
X48050724Y-62693802D01*
X48056752Y-62691118D01*
X48211253Y-62578866D01*
X48339040Y-62436944D01*
X48434527Y-62271556D01*
X48493542Y-62089928D01*
X48513504Y-61900000D01*
X48512599Y-61891392D01*
X48494232Y-61716635D01*
X48494232Y-61716633D01*
X48493542Y-61710072D01*
X48448030Y-61570003D01*
X55842629Y-61570003D01*
X55848631Y-61646262D01*
X55850174Y-61656006D01*
X55906686Y-61891392D01*
X55909735Y-61900777D01*
X56002371Y-62124421D01*
X56006852Y-62133215D01*
X56133337Y-62339619D01*
X56139137Y-62347601D01*
X56296350Y-62531675D01*
X56303325Y-62538650D01*
X56487399Y-62695863D01*
X56495381Y-62701663D01*
X56601696Y-62766813D01*
X56649327Y-62819461D01*
X56660934Y-62889502D01*
X56632831Y-62954700D01*
X56587111Y-62989352D01*
X56549283Y-63006195D01*
X56543248Y-63008882D01*
X56388747Y-63121134D01*
X56260960Y-63263056D01*
X56165473Y-63428444D01*
X56106458Y-63610072D01*
X56105768Y-63616633D01*
X56105768Y-63616635D01*
X56103118Y-63641852D01*
X56086496Y-63800000D01*
X56087186Y-63806565D01*
X56103955Y-63966109D01*
X56106458Y-63989928D01*
X56165473Y-64171556D01*
X56260960Y-64336944D01*
X56388747Y-64478866D01*
X56543248Y-64591118D01*
X56549276Y-64593802D01*
X56549278Y-64593803D01*
X56602121Y-64617330D01*
X56717712Y-64668794D01*
X56724173Y-64670167D01*
X56724178Y-64670169D01*
X56797454Y-64685745D01*
X56859928Y-64719473D01*
X56894249Y-64781622D01*
X56896567Y-64795819D01*
X56906458Y-64889928D01*
X56965473Y-65071556D01*
X57060960Y-65236944D01*
X57188747Y-65378866D01*
X57287843Y-65450864D01*
X57327332Y-65479554D01*
X57343248Y-65491118D01*
X57349276Y-65493802D01*
X57349278Y-65493803D01*
X57400560Y-65516635D01*
X57517712Y-65568794D01*
X57607716Y-65587925D01*
X57698056Y-65607128D01*
X57698061Y-65607128D01*
X57704513Y-65608500D01*
X57895487Y-65608500D01*
X57901939Y-65607128D01*
X57901944Y-65607128D01*
X57992284Y-65587925D01*
X58082288Y-65568794D01*
X58199440Y-65516635D01*
X58250722Y-65493803D01*
X58250724Y-65493802D01*
X58256752Y-65491118D01*
X58272669Y-65479554D01*
X58312157Y-65450864D01*
X58411253Y-65378866D01*
X58539040Y-65236944D01*
X58634527Y-65071556D01*
X58693542Y-64889928D01*
X58702232Y-64807253D01*
X58712814Y-64706565D01*
X58713504Y-64700000D01*
X58693542Y-64510072D01*
X58634527Y-64328444D01*
X58539040Y-64163056D01*
X58530385Y-64153443D01*
X58415675Y-64026045D01*
X58415674Y-64026044D01*
X58411253Y-64021134D01*
X58256752Y-63908882D01*
X58250724Y-63906198D01*
X58250722Y-63906197D01*
X58088319Y-63833891D01*
X58088318Y-63833891D01*
X58082288Y-63831206D01*
X58075827Y-63829833D01*
X58075822Y-63829831D01*
X58002546Y-63814255D01*
X57940072Y-63780527D01*
X57905751Y-63718378D01*
X57903433Y-63704180D01*
X57894232Y-63616634D01*
X57894231Y-63616631D01*
X57893542Y-63610072D01*
X57834527Y-63428444D01*
X57739040Y-63263056D01*
X57666223Y-63182184D01*
X57635507Y-63118179D01*
X57637768Y-63100000D01*
X76986496Y-63100000D01*
X76987186Y-63106565D01*
X77004235Y-63268774D01*
X77006458Y-63289928D01*
X77065473Y-63471556D01*
X77160960Y-63636944D01*
X77288747Y-63778866D01*
X77443248Y-63891118D01*
X77449276Y-63893802D01*
X77449278Y-63893803D01*
X77611681Y-63966109D01*
X77617712Y-63968794D01*
X77686263Y-63983365D01*
X77798056Y-64007128D01*
X77798061Y-64007128D01*
X77804513Y-64008500D01*
X77995487Y-64008500D01*
X78001939Y-64007128D01*
X78001944Y-64007128D01*
X78113737Y-63983365D01*
X78182288Y-63968794D01*
X78188319Y-63966109D01*
X78350722Y-63893803D01*
X78350724Y-63893802D01*
X78356752Y-63891118D01*
X78511253Y-63778866D01*
X78639040Y-63636944D01*
X78734527Y-63471556D01*
X78793542Y-63289928D01*
X78795766Y-63268774D01*
X78812814Y-63106565D01*
X78813504Y-63100000D01*
X78798233Y-62954700D01*
X78794232Y-62916635D01*
X78794232Y-62916633D01*
X78793542Y-62910072D01*
X78734527Y-62728444D01*
X78639040Y-62563056D01*
X78610785Y-62531675D01*
X78515675Y-62426045D01*
X78515674Y-62426044D01*
X78511253Y-62421134D01*
X78356752Y-62308882D01*
X78350724Y-62306198D01*
X78350722Y-62306197D01*
X78188319Y-62233891D01*
X78188318Y-62233891D01*
X78182288Y-62231206D01*
X78088887Y-62211353D01*
X78001944Y-62192872D01*
X78001939Y-62192872D01*
X77995487Y-62191500D01*
X77804513Y-62191500D01*
X77798061Y-62192872D01*
X77798056Y-62192872D01*
X77711113Y-62211353D01*
X77617712Y-62231206D01*
X77611682Y-62233891D01*
X77611681Y-62233891D01*
X77449278Y-62306197D01*
X77449276Y-62306198D01*
X77443248Y-62308882D01*
X77288747Y-62421134D01*
X77284326Y-62426044D01*
X77284325Y-62426045D01*
X77189216Y-62531675D01*
X77160960Y-62563056D01*
X77065473Y-62728444D01*
X77006458Y-62910072D01*
X77005768Y-62916633D01*
X77005768Y-62916635D01*
X77001767Y-62954700D01*
X76986496Y-63100000D01*
X57637768Y-63100000D01*
X57644270Y-63047726D01*
X57689733Y-62993194D01*
X57730446Y-62975357D01*
X57926392Y-62928314D01*
X57935777Y-62925265D01*
X58159421Y-62832629D01*
X58168215Y-62828148D01*
X58374619Y-62701663D01*
X58382601Y-62695863D01*
X58549398Y-62553406D01*
X58614188Y-62524375D01*
X58684388Y-62534980D01*
X58732052Y-62573649D01*
X58761739Y-62613261D01*
X58878295Y-62700615D01*
X59014684Y-62751745D01*
X59076866Y-62758500D01*
X60873134Y-62758500D01*
X60935316Y-62751745D01*
X61071705Y-62700615D01*
X61188261Y-62613261D01*
X61275615Y-62496705D01*
X61326745Y-62360316D01*
X61333500Y-62298134D01*
X61333500Y-60700000D01*
X67586496Y-60700000D01*
X67587186Y-60706565D01*
X67592608Y-60758148D01*
X67606458Y-60889928D01*
X67665473Y-61071556D01*
X67760960Y-61236944D01*
X67888747Y-61378866D01*
X68043248Y-61491118D01*
X68049276Y-61493802D01*
X68049278Y-61493803D01*
X68211681Y-61566109D01*
X68217712Y-61568794D01*
X68311112Y-61588647D01*
X68398056Y-61607128D01*
X68398061Y-61607128D01*
X68404513Y-61608500D01*
X68595487Y-61608500D01*
X68601939Y-61607128D01*
X68601944Y-61607128D01*
X68688888Y-61588647D01*
X68782288Y-61568794D01*
X68788319Y-61566109D01*
X68950722Y-61493803D01*
X68950724Y-61493802D01*
X68956752Y-61491118D01*
X69111253Y-61378866D01*
X69182264Y-61300000D01*
X73686496Y-61300000D01*
X73687186Y-61306565D01*
X73692608Y-61358148D01*
X73706458Y-61489928D01*
X73765473Y-61671556D01*
X73860960Y-61836944D01*
X73988747Y-61978866D01*
X74143248Y-62091118D01*
X74149276Y-62093802D01*
X74149278Y-62093803D01*
X74311681Y-62166109D01*
X74317712Y-62168794D01*
X74411113Y-62188647D01*
X74498056Y-62207128D01*
X74498061Y-62207128D01*
X74504513Y-62208500D01*
X74695487Y-62208500D01*
X74701939Y-62207128D01*
X74701944Y-62207128D01*
X74788887Y-62188647D01*
X74882288Y-62168794D01*
X74888319Y-62166109D01*
X75050722Y-62093803D01*
X75050724Y-62093802D01*
X75056752Y-62091118D01*
X75211253Y-61978866D01*
X75339040Y-61836944D01*
X75434527Y-61671556D01*
X75493542Y-61489928D01*
X75507393Y-61358148D01*
X75512814Y-61306565D01*
X75513504Y-61300000D01*
X75507516Y-61243031D01*
X75494232Y-61116635D01*
X75494232Y-61116633D01*
X75493542Y-61110072D01*
X75434527Y-60928444D01*
X75339040Y-60763056D01*
X75260276Y-60675579D01*
X75215675Y-60626045D01*
X75215674Y-60626044D01*
X75211253Y-60621134D01*
X75056752Y-60508882D01*
X75050724Y-60506198D01*
X75050722Y-60506197D01*
X74888319Y-60433891D01*
X74888318Y-60433891D01*
X74882288Y-60431206D01*
X74788887Y-60411353D01*
X74701944Y-60392872D01*
X74701939Y-60392872D01*
X74695487Y-60391500D01*
X74504513Y-60391500D01*
X74498061Y-60392872D01*
X74498056Y-60392872D01*
X74411113Y-60411353D01*
X74317712Y-60431206D01*
X74311682Y-60433891D01*
X74311681Y-60433891D01*
X74149278Y-60506197D01*
X74149276Y-60506198D01*
X74143248Y-60508882D01*
X73988747Y-60621134D01*
X73984326Y-60626044D01*
X73984325Y-60626045D01*
X73939725Y-60675579D01*
X73860960Y-60763056D01*
X73765473Y-60928444D01*
X73706458Y-61110072D01*
X73705768Y-61116633D01*
X73705768Y-61116635D01*
X73692484Y-61243031D01*
X73686496Y-61300000D01*
X69182264Y-61300000D01*
X69239040Y-61236944D01*
X69334527Y-61071556D01*
X69393542Y-60889928D01*
X69407393Y-60758148D01*
X69412814Y-60706565D01*
X69413504Y-60700000D01*
X69393542Y-60510072D01*
X69334527Y-60328444D01*
X69239040Y-60163056D01*
X69181711Y-60099385D01*
X69115675Y-60026045D01*
X69115674Y-60026044D01*
X69111253Y-60021134D01*
X68956752Y-59908882D01*
X68950724Y-59906198D01*
X68950722Y-59906197D01*
X68788319Y-59833891D01*
X68788318Y-59833891D01*
X68782288Y-59831206D01*
X68671368Y-59807629D01*
X68601944Y-59792872D01*
X68601939Y-59792872D01*
X68595487Y-59791500D01*
X68404513Y-59791500D01*
X68398061Y-59792872D01*
X68398056Y-59792872D01*
X68328632Y-59807629D01*
X68217712Y-59831206D01*
X68211682Y-59833891D01*
X68211681Y-59833891D01*
X68049278Y-59906197D01*
X68049276Y-59906198D01*
X68043248Y-59908882D01*
X67888747Y-60021134D01*
X67884326Y-60026044D01*
X67884325Y-60026045D01*
X67818290Y-60099385D01*
X67760960Y-60163056D01*
X67665473Y-60328444D01*
X67606458Y-60510072D01*
X67586496Y-60700000D01*
X61333500Y-60700000D01*
X61333500Y-60501866D01*
X61326745Y-60439684D01*
X61275615Y-60303295D01*
X61188261Y-60186739D01*
X61071705Y-60099385D01*
X60935316Y-60048255D01*
X60873134Y-60041500D01*
X59076866Y-60041500D01*
X59014684Y-60048255D01*
X58878295Y-60099385D01*
X58761739Y-60186739D01*
X58732052Y-60226350D01*
X58675195Y-60268863D01*
X58604377Y-60273889D01*
X58549398Y-60246594D01*
X58382601Y-60104137D01*
X58374619Y-60098337D01*
X58168215Y-59971852D01*
X58159421Y-59967371D01*
X57935777Y-59874735D01*
X57926392Y-59871686D01*
X57691006Y-59815174D01*
X57681262Y-59813631D01*
X57607057Y-59807791D01*
X57591969Y-59810961D01*
X57589000Y-59822424D01*
X57589000Y-61428000D01*
X57568998Y-61496121D01*
X57515342Y-61542614D01*
X57463000Y-61554000D01*
X55859485Y-61554000D01*
X55844690Y-61558344D01*
X55842629Y-61570003D01*
X48448030Y-61570003D01*
X48434527Y-61528444D01*
X48339040Y-61363056D01*
X48233643Y-61246000D01*
X48217384Y-61227943D01*
X55842791Y-61227943D01*
X55845961Y-61243031D01*
X55857424Y-61246000D01*
X57262885Y-61246000D01*
X57278124Y-61241525D01*
X57279329Y-61240135D01*
X57281000Y-61232452D01*
X57281000Y-59824485D01*
X57276656Y-59809690D01*
X57264997Y-59807629D01*
X57188738Y-59813631D01*
X57178994Y-59815174D01*
X56943608Y-59871686D01*
X56934223Y-59874735D01*
X56710579Y-59967371D01*
X56701785Y-59971852D01*
X56495381Y-60098337D01*
X56487399Y-60104137D01*
X56303325Y-60261350D01*
X56296350Y-60268325D01*
X56139137Y-60452399D01*
X56133337Y-60460381D01*
X56006852Y-60666785D01*
X56002371Y-60675579D01*
X55909735Y-60899223D01*
X55906686Y-60908608D01*
X55850174Y-61143994D01*
X55848631Y-61153738D01*
X55842791Y-61227943D01*
X48217384Y-61227943D01*
X48215675Y-61226045D01*
X48215674Y-61226044D01*
X48211253Y-61221134D01*
X48056752Y-61108882D01*
X48050724Y-61106198D01*
X48050722Y-61106197D01*
X47888319Y-61033891D01*
X47888318Y-61033891D01*
X47882288Y-61031206D01*
X47788887Y-61011353D01*
X47701944Y-60992872D01*
X47701939Y-60992872D01*
X47695487Y-60991500D01*
X47504513Y-60991500D01*
X47498061Y-60992872D01*
X47498056Y-60992872D01*
X47411113Y-61011353D01*
X47317712Y-61031206D01*
X47311682Y-61033891D01*
X47311681Y-61033891D01*
X47149278Y-61106197D01*
X47149276Y-61106198D01*
X47143248Y-61108882D01*
X46988747Y-61221134D01*
X46984326Y-61226044D01*
X46984325Y-61226045D01*
X46966358Y-61246000D01*
X46860960Y-61363056D01*
X46765473Y-61528444D01*
X46706458Y-61710072D01*
X46705768Y-61716633D01*
X46705768Y-61716635D01*
X46687401Y-61891392D01*
X46686496Y-61900000D01*
X43508000Y-61900000D01*
X43508000Y-58490003D01*
X84807629Y-58490003D01*
X84813631Y-58566262D01*
X84815174Y-58576006D01*
X84871686Y-58811392D01*
X84874735Y-58820777D01*
X84967371Y-59044421D01*
X84971852Y-59053215D01*
X85098337Y-59259619D01*
X85104137Y-59267601D01*
X85261350Y-59451675D01*
X85268325Y-59458650D01*
X85452399Y-59615863D01*
X85460381Y-59621663D01*
X85666785Y-59748148D01*
X85675579Y-59752629D01*
X85899223Y-59845265D01*
X85908608Y-59848314D01*
X86143994Y-59904826D01*
X86153738Y-59906369D01*
X86227943Y-59912209D01*
X86243031Y-59909039D01*
X86246000Y-59897576D01*
X86246000Y-59895515D01*
X86554000Y-59895515D01*
X86558344Y-59910310D01*
X86570003Y-59912371D01*
X86646262Y-59906369D01*
X86656006Y-59904826D01*
X86891392Y-59848314D01*
X86900777Y-59845265D01*
X87124421Y-59752629D01*
X87133215Y-59748148D01*
X87339619Y-59621663D01*
X87347601Y-59615863D01*
X87531675Y-59458650D01*
X87538650Y-59451675D01*
X87695863Y-59267601D01*
X87701663Y-59259619D01*
X87828148Y-59053215D01*
X87832629Y-59044421D01*
X87925265Y-58820777D01*
X87928314Y-58811392D01*
X87984826Y-58576006D01*
X87986369Y-58566262D01*
X87992209Y-58492057D01*
X87989039Y-58476969D01*
X87977576Y-58474000D01*
X86572115Y-58474000D01*
X86556876Y-58478475D01*
X86555671Y-58479865D01*
X86554000Y-58487548D01*
X86554000Y-59895515D01*
X86246000Y-59895515D01*
X86246000Y-58492115D01*
X86241525Y-58476876D01*
X86240135Y-58475671D01*
X86232452Y-58474000D01*
X84824485Y-58474000D01*
X84809690Y-58478344D01*
X84807629Y-58490003D01*
X43508000Y-58490003D01*
X43508000Y-58147943D01*
X84807791Y-58147943D01*
X84810961Y-58163031D01*
X84822424Y-58166000D01*
X87975515Y-58166000D01*
X87990310Y-58161656D01*
X87992371Y-58149997D01*
X87986369Y-58073738D01*
X87984826Y-58063994D01*
X87928314Y-57828608D01*
X87925265Y-57819223D01*
X87832629Y-57595579D01*
X87828148Y-57586785D01*
X87701663Y-57380381D01*
X87695863Y-57372399D01*
X87538650Y-57188325D01*
X87531675Y-57181350D01*
X87347604Y-57024139D01*
X87339616Y-57018336D01*
X87316623Y-57004245D01*
X87268992Y-56951597D01*
X87257386Y-56881555D01*
X87285490Y-56816358D01*
X87293519Y-56807562D01*
X87434435Y-56667137D01*
X87438096Y-56663489D01*
X87497594Y-56580689D01*
X87565435Y-56486277D01*
X87568453Y-56482077D01*
X87667430Y-56281811D01*
X87732370Y-56068069D01*
X87761529Y-55846590D01*
X87763156Y-55780000D01*
X87744852Y-55557361D01*
X87690431Y-55340702D01*
X87601354Y-55135840D01*
X87480014Y-54948277D01*
X87329670Y-54783051D01*
X87325619Y-54779852D01*
X87325615Y-54779848D01*
X87158414Y-54647800D01*
X87158410Y-54647798D01*
X87154359Y-54644598D01*
X87113053Y-54621796D01*
X87063084Y-54571364D01*
X87048312Y-54501921D01*
X87073428Y-54435516D01*
X87100780Y-54408909D01*
X87144603Y-54377650D01*
X87279860Y-54281173D01*
X87438096Y-54123489D01*
X87497594Y-54040689D01*
X87565435Y-53946277D01*
X87568453Y-53942077D01*
X87638672Y-53800000D01*
X87665136Y-53746453D01*
X87665137Y-53746451D01*
X87667430Y-53741811D01*
X87732370Y-53528069D01*
X87761529Y-53306590D01*
X87763156Y-53240000D01*
X87744852Y-53017361D01*
X87690431Y-52800702D01*
X87601354Y-52595840D01*
X87480014Y-52408277D01*
X87476532Y-52404450D01*
X87332798Y-52246488D01*
X87301746Y-52182642D01*
X87310141Y-52112143D01*
X87355317Y-52057375D01*
X87381761Y-52043706D01*
X87488297Y-52003767D01*
X87496705Y-52000615D01*
X87613261Y-51913261D01*
X87700615Y-51796705D01*
X87751745Y-51660316D01*
X87758500Y-51598134D01*
X87758500Y-49801866D01*
X87751745Y-49739684D01*
X87700615Y-49603295D01*
X87613261Y-49486739D01*
X87496705Y-49399385D01*
X87360316Y-49348255D01*
X87298134Y-49341500D01*
X85501866Y-49341500D01*
X85439684Y-49348255D01*
X85303295Y-49399385D01*
X85186739Y-49486739D01*
X85099385Y-49603295D01*
X85048255Y-49739684D01*
X85041500Y-49801866D01*
X85041500Y-51598134D01*
X85048255Y-51660316D01*
X85099385Y-51796705D01*
X85186739Y-51913261D01*
X85303295Y-52000615D01*
X85311704Y-52003767D01*
X85311705Y-52003768D01*
X85420451Y-52044535D01*
X85477216Y-52087176D01*
X85501916Y-52153738D01*
X85486709Y-52223087D01*
X85467316Y-52249568D01*
X85340629Y-52382138D01*
X85214743Y-52566680D01*
X85120688Y-52769305D01*
X85060989Y-52984570D01*
X85037251Y-53206695D01*
X85037548Y-53211848D01*
X85037548Y-53211851D01*
X85043011Y-53306590D01*
X85050110Y-53429715D01*
X85051247Y-53434761D01*
X85051248Y-53434767D01*
X85071119Y-53522939D01*
X85099222Y-53647639D01*
X85183266Y-53854616D01*
X85299987Y-54045088D01*
X85446250Y-54213938D01*
X85618126Y-54356632D01*
X85688595Y-54397811D01*
X85691445Y-54399476D01*
X85740169Y-54451114D01*
X85753240Y-54520897D01*
X85726509Y-54586669D01*
X85686055Y-54620027D01*
X85673607Y-54626507D01*
X85669474Y-54629610D01*
X85669471Y-54629612D01*
X85564402Y-54708500D01*
X85494965Y-54760635D01*
X85340629Y-54922138D01*
X85214743Y-55106680D01*
X85120688Y-55309305D01*
X85060989Y-55524570D01*
X85037251Y-55746695D01*
X85037548Y-55751848D01*
X85037548Y-55751851D01*
X85043011Y-55846590D01*
X85050110Y-55969715D01*
X85051247Y-55974761D01*
X85051248Y-55974767D01*
X85071119Y-56062939D01*
X85099222Y-56187639D01*
X85183266Y-56394616D01*
X85299987Y-56585088D01*
X85446250Y-56753938D01*
X85450225Y-56757238D01*
X85450228Y-56757241D01*
X85500067Y-56798618D01*
X85539702Y-56857521D01*
X85541200Y-56928502D01*
X85504085Y-56989024D01*
X85485416Y-57002995D01*
X85460386Y-57018333D01*
X85452399Y-57024137D01*
X85268325Y-57181350D01*
X85261350Y-57188325D01*
X85104137Y-57372399D01*
X85098337Y-57380381D01*
X84971852Y-57586785D01*
X84967371Y-57595579D01*
X84874735Y-57819223D01*
X84871686Y-57828608D01*
X84815174Y-58063994D01*
X84813631Y-58073738D01*
X84807791Y-58147943D01*
X43508000Y-58147943D01*
X43508000Y-53800000D01*
X71486496Y-53800000D01*
X71506458Y-53989928D01*
X71565473Y-54171556D01*
X71660960Y-54336944D01*
X71665378Y-54341851D01*
X71665379Y-54341852D01*
X71763759Y-54451114D01*
X71788747Y-54478866D01*
X71868263Y-54536638D01*
X71937125Y-54586669D01*
X71943248Y-54591118D01*
X71949276Y-54593802D01*
X71949278Y-54593803D01*
X72070558Y-54647800D01*
X72117712Y-54668794D01*
X72211113Y-54688647D01*
X72298056Y-54707128D01*
X72298061Y-54707128D01*
X72304513Y-54708500D01*
X72495487Y-54708500D01*
X72501939Y-54707128D01*
X72501944Y-54707128D01*
X72588887Y-54688647D01*
X72682288Y-54668794D01*
X72729442Y-54647800D01*
X72850722Y-54593803D01*
X72850724Y-54593802D01*
X72856752Y-54591118D01*
X72862876Y-54586669D01*
X72931737Y-54536638D01*
X73011253Y-54478866D01*
X73036241Y-54451114D01*
X73134621Y-54341852D01*
X73134622Y-54341851D01*
X73139040Y-54336944D01*
X73234527Y-54171556D01*
X73293542Y-53989928D01*
X73313504Y-53800000D01*
X73307388Y-53741811D01*
X73294232Y-53616635D01*
X73294232Y-53616633D01*
X73293542Y-53610072D01*
X73234527Y-53428444D01*
X73139040Y-53263056D01*
X73115261Y-53236646D01*
X73015675Y-53126045D01*
X73015674Y-53126044D01*
X73011253Y-53121134D01*
X72875526Y-53022522D01*
X72862094Y-53012763D01*
X72862093Y-53012762D01*
X72856752Y-53008882D01*
X72850724Y-53006198D01*
X72850722Y-53006197D01*
X72688319Y-52933891D01*
X72688318Y-52933891D01*
X72682288Y-52931206D01*
X72588888Y-52911353D01*
X72501944Y-52892872D01*
X72501939Y-52892872D01*
X72495487Y-52891500D01*
X72304513Y-52891500D01*
X72298061Y-52892872D01*
X72298056Y-52892872D01*
X72211112Y-52911353D01*
X72117712Y-52931206D01*
X72111682Y-52933891D01*
X72111681Y-52933891D01*
X71949278Y-53006197D01*
X71949276Y-53006198D01*
X71943248Y-53008882D01*
X71937907Y-53012762D01*
X71937906Y-53012763D01*
X71924474Y-53022522D01*
X71788747Y-53121134D01*
X71784326Y-53126044D01*
X71784325Y-53126045D01*
X71684740Y-53236646D01*
X71660960Y-53263056D01*
X71565473Y-53428444D01*
X71506458Y-53610072D01*
X71505768Y-53616633D01*
X71505768Y-53616635D01*
X71492612Y-53741811D01*
X71486496Y-53800000D01*
X43508000Y-53800000D01*
X43508000Y-47600000D01*
X71686496Y-47600000D01*
X71706458Y-47789928D01*
X71765473Y-47971556D01*
X71860960Y-48136944D01*
X71988747Y-48278866D01*
X72143248Y-48391118D01*
X72149276Y-48393802D01*
X72149278Y-48393803D01*
X72311681Y-48466109D01*
X72317712Y-48468794D01*
X72411112Y-48488647D01*
X72498056Y-48507128D01*
X72498061Y-48507128D01*
X72504513Y-48508500D01*
X72695487Y-48508500D01*
X72701939Y-48507128D01*
X72701944Y-48507128D01*
X72788888Y-48488647D01*
X72882288Y-48468794D01*
X72888319Y-48466109D01*
X73050722Y-48393803D01*
X73050724Y-48393802D01*
X73056752Y-48391118D01*
X73211253Y-48278866D01*
X73339040Y-48136944D01*
X73434527Y-47971556D01*
X73493542Y-47789928D01*
X73513504Y-47600000D01*
X73493542Y-47410072D01*
X73434527Y-47228444D01*
X73339040Y-47063056D01*
X73276685Y-46993803D01*
X73215675Y-46926045D01*
X73215674Y-46926044D01*
X73211253Y-46921134D01*
X73056752Y-46808882D01*
X73050724Y-46806198D01*
X73050722Y-46806197D01*
X72888319Y-46733891D01*
X72888318Y-46733891D01*
X72882288Y-46731206D01*
X72788887Y-46711353D01*
X72701944Y-46692872D01*
X72701939Y-46692872D01*
X72695487Y-46691500D01*
X72504513Y-46691500D01*
X72498061Y-46692872D01*
X72498056Y-46692872D01*
X72411112Y-46711353D01*
X72317712Y-46731206D01*
X72311682Y-46733891D01*
X72311681Y-46733891D01*
X72149278Y-46806197D01*
X72149276Y-46806198D01*
X72143248Y-46808882D01*
X71988747Y-46921134D01*
X71984326Y-46926044D01*
X71984325Y-46926045D01*
X71923316Y-46993803D01*
X71860960Y-47063056D01*
X71765473Y-47228444D01*
X71706458Y-47410072D01*
X71686496Y-47600000D01*
X43508000Y-47600000D01*
X43508000Y-45595305D01*
X43528002Y-45527184D01*
X43581658Y-45480691D01*
X43651932Y-45470587D01*
X43716512Y-45500081D01*
X43727634Y-45510993D01*
X43788747Y-45578866D01*
X43887843Y-45650864D01*
X43926385Y-45678866D01*
X43943248Y-45691118D01*
X43949276Y-45693802D01*
X43949278Y-45693803D01*
X44033332Y-45731226D01*
X44117712Y-45768794D01*
X44186263Y-45783365D01*
X44298056Y-45807128D01*
X44298061Y-45807128D01*
X44304513Y-45808500D01*
X44495487Y-45808500D01*
X44501939Y-45807128D01*
X44501944Y-45807128D01*
X44613737Y-45783365D01*
X44682288Y-45768794D01*
X44766668Y-45731226D01*
X44850722Y-45693803D01*
X44850724Y-45693802D01*
X44856752Y-45691118D01*
X44873616Y-45678866D01*
X44912157Y-45650864D01*
X45011253Y-45578866D01*
X45099650Y-45480691D01*
X45134621Y-45441852D01*
X45134622Y-45441851D01*
X45139040Y-45436944D01*
X45234527Y-45271556D01*
X45293542Y-45089928D01*
X45295766Y-45068774D01*
X45302994Y-45000000D01*
X45586496Y-45000000D01*
X45587186Y-45006565D01*
X45596608Y-45096206D01*
X45606458Y-45189928D01*
X45665473Y-45371556D01*
X45760960Y-45536944D01*
X45888747Y-45678866D01*
X46043248Y-45791118D01*
X46049276Y-45793802D01*
X46049278Y-45793803D01*
X46141200Y-45834729D01*
X46217712Y-45868794D01*
X46283365Y-45882749D01*
X46398056Y-45907128D01*
X46398061Y-45907128D01*
X46404513Y-45908500D01*
X46595487Y-45908500D01*
X46601939Y-45907128D01*
X46601944Y-45907128D01*
X46716635Y-45882749D01*
X46782288Y-45868794D01*
X46858800Y-45834729D01*
X46950722Y-45793803D01*
X46950724Y-45793802D01*
X46956752Y-45791118D01*
X47111253Y-45678866D01*
X47239040Y-45536944D01*
X47334527Y-45371556D01*
X47390269Y-45200000D01*
X48286496Y-45200000D01*
X48287186Y-45206565D01*
X48305129Y-45377279D01*
X48306458Y-45389928D01*
X48365473Y-45571556D01*
X48368776Y-45577278D01*
X48368777Y-45577279D01*
X48381895Y-45600000D01*
X48460960Y-45736944D01*
X48465378Y-45741851D01*
X48465379Y-45741852D01*
X48579678Y-45868794D01*
X48588747Y-45878866D01*
X48743248Y-45991118D01*
X48749276Y-45993802D01*
X48749278Y-45993803D01*
X48800560Y-46016635D01*
X48917712Y-46068794D01*
X49011112Y-46088647D01*
X49098056Y-46107128D01*
X49098061Y-46107128D01*
X49104513Y-46108500D01*
X49295487Y-46108500D01*
X49301939Y-46107128D01*
X49301944Y-46107128D01*
X49388888Y-46088647D01*
X49482288Y-46068794D01*
X49599440Y-46016635D01*
X49650722Y-45993803D01*
X49650724Y-45993802D01*
X49656752Y-45991118D01*
X49811253Y-45878866D01*
X49820322Y-45868794D01*
X49934621Y-45741852D01*
X49934622Y-45741851D01*
X49939040Y-45736944D01*
X50018105Y-45600000D01*
X69486496Y-45600000D01*
X69487186Y-45606565D01*
X69503955Y-45766109D01*
X69506458Y-45789928D01*
X69565473Y-45971556D01*
X69660960Y-46136944D01*
X69665378Y-46141851D01*
X69665379Y-46141852D01*
X69779246Y-46268314D01*
X69788747Y-46278866D01*
X69943248Y-46391118D01*
X69949276Y-46393802D01*
X69949278Y-46393803D01*
X70111681Y-46466109D01*
X70117712Y-46468794D01*
X70211112Y-46488647D01*
X70298056Y-46507128D01*
X70298061Y-46507128D01*
X70304513Y-46508500D01*
X70495487Y-46508500D01*
X70501939Y-46507128D01*
X70501944Y-46507128D01*
X70588888Y-46488647D01*
X70682288Y-46468794D01*
X70688319Y-46466109D01*
X70850722Y-46393803D01*
X70850724Y-46393802D01*
X70856752Y-46391118D01*
X71011253Y-46278866D01*
X71020754Y-46268314D01*
X71082264Y-46200000D01*
X75886496Y-46200000D01*
X75887186Y-46206565D01*
X75900409Y-46332371D01*
X75906458Y-46389928D01*
X75965473Y-46571556D01*
X76060960Y-46736944D01*
X76065378Y-46741851D01*
X76065379Y-46741852D01*
X76125733Y-46808882D01*
X76188747Y-46878866D01*
X76343248Y-46991118D01*
X76349276Y-46993802D01*
X76349278Y-46993803D01*
X76504824Y-47063056D01*
X76517712Y-47068794D01*
X76611112Y-47088647D01*
X76698056Y-47107128D01*
X76698061Y-47107128D01*
X76704513Y-47108500D01*
X76895487Y-47108500D01*
X76901939Y-47107128D01*
X76901944Y-47107128D01*
X76988888Y-47088647D01*
X77082288Y-47068794D01*
X77095176Y-47063056D01*
X77250722Y-46993803D01*
X77250724Y-46993802D01*
X77256752Y-46991118D01*
X77411253Y-46878866D01*
X77474267Y-46808882D01*
X77534621Y-46741852D01*
X77534622Y-46741851D01*
X77539040Y-46736944D01*
X77634527Y-46571556D01*
X77693542Y-46389928D01*
X77699592Y-46332371D01*
X77712814Y-46206565D01*
X77713504Y-46200000D01*
X77710156Y-46168148D01*
X77694232Y-46016635D01*
X77694232Y-46016633D01*
X77693542Y-46010072D01*
X77634527Y-45828444D01*
X77539040Y-45663056D01*
X77416701Y-45527184D01*
X77415675Y-45526045D01*
X77415674Y-45526044D01*
X77411253Y-45521134D01*
X77256752Y-45408882D01*
X77250724Y-45406198D01*
X77250722Y-45406197D01*
X77088319Y-45333891D01*
X77088318Y-45333891D01*
X77082288Y-45331206D01*
X76988887Y-45311353D01*
X76901944Y-45292872D01*
X76901939Y-45292872D01*
X76895487Y-45291500D01*
X76704513Y-45291500D01*
X76698061Y-45292872D01*
X76698056Y-45292872D01*
X76611113Y-45311353D01*
X76517712Y-45331206D01*
X76511682Y-45333891D01*
X76511681Y-45333891D01*
X76349278Y-45406197D01*
X76349276Y-45406198D01*
X76343248Y-45408882D01*
X76188747Y-45521134D01*
X76184326Y-45526044D01*
X76184325Y-45526045D01*
X76183300Y-45527184D01*
X76060960Y-45663056D01*
X75965473Y-45828444D01*
X75906458Y-46010072D01*
X75905768Y-46016633D01*
X75905768Y-46016635D01*
X75889844Y-46168148D01*
X75886496Y-46200000D01*
X71082264Y-46200000D01*
X71134621Y-46141852D01*
X71134622Y-46141851D01*
X71139040Y-46136944D01*
X71234527Y-45971556D01*
X71293542Y-45789928D01*
X71296046Y-45766109D01*
X71312814Y-45606565D01*
X71313504Y-45600000D01*
X71309854Y-45565271D01*
X71294232Y-45416635D01*
X71294232Y-45416633D01*
X71293542Y-45410072D01*
X71234527Y-45228444D01*
X71139040Y-45063056D01*
X71097243Y-45016635D01*
X71015675Y-44926045D01*
X71015674Y-44926044D01*
X71011253Y-44921134D01*
X70995933Y-44910003D01*
X84607629Y-44910003D01*
X84613631Y-44986262D01*
X84615174Y-44996006D01*
X84671686Y-45231392D01*
X84674735Y-45240777D01*
X84767371Y-45464421D01*
X84771852Y-45473215D01*
X84898337Y-45679619D01*
X84904137Y-45687601D01*
X85061350Y-45871675D01*
X85068325Y-45878650D01*
X85252399Y-46035863D01*
X85260381Y-46041663D01*
X85466785Y-46168148D01*
X85475579Y-46172629D01*
X85699223Y-46265265D01*
X85708608Y-46268314D01*
X85943994Y-46324826D01*
X85953738Y-46326369D01*
X86027943Y-46332209D01*
X86043031Y-46329039D01*
X86046000Y-46317576D01*
X86046000Y-46315515D01*
X86354000Y-46315515D01*
X86358344Y-46330310D01*
X86370003Y-46332371D01*
X86446262Y-46326369D01*
X86456006Y-46324826D01*
X86691392Y-46268314D01*
X86700777Y-46265265D01*
X86924421Y-46172629D01*
X86933215Y-46168148D01*
X87139619Y-46041663D01*
X87147601Y-46035863D01*
X87331675Y-45878650D01*
X87338650Y-45871675D01*
X87495863Y-45687601D01*
X87501663Y-45679619D01*
X87628148Y-45473215D01*
X87632629Y-45464421D01*
X87725265Y-45240777D01*
X87728314Y-45231392D01*
X87784826Y-44996006D01*
X87786369Y-44986262D01*
X87792209Y-44912057D01*
X87789039Y-44896969D01*
X87777576Y-44894000D01*
X86372115Y-44894000D01*
X86356876Y-44898475D01*
X86355671Y-44899865D01*
X86354000Y-44907548D01*
X86354000Y-46315515D01*
X86046000Y-46315515D01*
X86046000Y-44912115D01*
X86041525Y-44896876D01*
X86040135Y-44895671D01*
X86032452Y-44894000D01*
X84624485Y-44894000D01*
X84609690Y-44898344D01*
X84607629Y-44910003D01*
X70995933Y-44910003D01*
X70856752Y-44808882D01*
X70850724Y-44806198D01*
X70850722Y-44806197D01*
X70688319Y-44733891D01*
X70688318Y-44733891D01*
X70682288Y-44731206D01*
X70582861Y-44710072D01*
X70501944Y-44692872D01*
X70501939Y-44692872D01*
X70495487Y-44691500D01*
X70304513Y-44691500D01*
X70298061Y-44692872D01*
X70298056Y-44692872D01*
X70217139Y-44710072D01*
X70117712Y-44731206D01*
X70111682Y-44733891D01*
X70111681Y-44733891D01*
X69949278Y-44806197D01*
X69949276Y-44806198D01*
X69943248Y-44808882D01*
X69788747Y-44921134D01*
X69784326Y-44926044D01*
X69784325Y-44926045D01*
X69702758Y-45016635D01*
X69660960Y-45063056D01*
X69565473Y-45228444D01*
X69506458Y-45410072D01*
X69505768Y-45416633D01*
X69505768Y-45416635D01*
X69490146Y-45565271D01*
X69486496Y-45600000D01*
X50018105Y-45600000D01*
X50031223Y-45577279D01*
X50031224Y-45577278D01*
X50034527Y-45571556D01*
X50093542Y-45389928D01*
X50094872Y-45377279D01*
X50112814Y-45206565D01*
X50113504Y-45200000D01*
X50093542Y-45010072D01*
X50034527Y-44828444D01*
X49939040Y-44663056D01*
X49855250Y-44569997D01*
X49853401Y-44567943D01*
X84607791Y-44567943D01*
X84610961Y-44583031D01*
X84622424Y-44586000D01*
X87775515Y-44586000D01*
X87790310Y-44581656D01*
X87792371Y-44569997D01*
X87786369Y-44493738D01*
X87784826Y-44483994D01*
X87728314Y-44248608D01*
X87725265Y-44239223D01*
X87632629Y-44015579D01*
X87628148Y-44006785D01*
X87501663Y-43800381D01*
X87495863Y-43792399D01*
X87353406Y-43625602D01*
X87324375Y-43560812D01*
X87334980Y-43490612D01*
X87373649Y-43442948D01*
X87413261Y-43413261D01*
X87500615Y-43296705D01*
X87551745Y-43160316D01*
X87558500Y-43098134D01*
X87558500Y-41301866D01*
X87551745Y-41239684D01*
X87500615Y-41103295D01*
X87413261Y-40986739D01*
X87296705Y-40899385D01*
X87160316Y-40848255D01*
X87098134Y-40841500D01*
X85301866Y-40841500D01*
X85239684Y-40848255D01*
X85103295Y-40899385D01*
X84986739Y-40986739D01*
X84899385Y-41103295D01*
X84848255Y-41239684D01*
X84841500Y-41301866D01*
X84841500Y-43098134D01*
X84848255Y-43160316D01*
X84899385Y-43296705D01*
X84986739Y-43413261D01*
X85026350Y-43442948D01*
X85068863Y-43499805D01*
X85073889Y-43570623D01*
X85046594Y-43625602D01*
X84904137Y-43792399D01*
X84898337Y-43800381D01*
X84771852Y-44006785D01*
X84767371Y-44015579D01*
X84674735Y-44239223D01*
X84671686Y-44248608D01*
X84615174Y-44483994D01*
X84613631Y-44493738D01*
X84607791Y-44567943D01*
X49853401Y-44567943D01*
X49815675Y-44526045D01*
X49815674Y-44526044D01*
X49811253Y-44521134D01*
X49656752Y-44408882D01*
X49650724Y-44406198D01*
X49650722Y-44406197D01*
X49488319Y-44333891D01*
X49488318Y-44333891D01*
X49482288Y-44331206D01*
X49388887Y-44311353D01*
X49301944Y-44292872D01*
X49301939Y-44292872D01*
X49295487Y-44291500D01*
X49104513Y-44291500D01*
X49098061Y-44292872D01*
X49098056Y-44292872D01*
X49011113Y-44311353D01*
X48917712Y-44331206D01*
X48911682Y-44333891D01*
X48911681Y-44333891D01*
X48749278Y-44406197D01*
X48749276Y-44406198D01*
X48743248Y-44408882D01*
X48588747Y-44521134D01*
X48584326Y-44526044D01*
X48584325Y-44526045D01*
X48544751Y-44569997D01*
X48460960Y-44663056D01*
X48365473Y-44828444D01*
X48306458Y-45010072D01*
X48286496Y-45200000D01*
X47390269Y-45200000D01*
X47393542Y-45189928D01*
X47403393Y-45096206D01*
X47412814Y-45006565D01*
X47413504Y-45000000D01*
X47402980Y-44899865D01*
X47394232Y-44816635D01*
X47394232Y-44816633D01*
X47393542Y-44810072D01*
X47334527Y-44628444D01*
X47239040Y-44463056D01*
X47122740Y-44333891D01*
X47115675Y-44326045D01*
X47115674Y-44326044D01*
X47111253Y-44321134D01*
X46980375Y-44226045D01*
X46962094Y-44212763D01*
X46962093Y-44212762D01*
X46956752Y-44208882D01*
X46950724Y-44206198D01*
X46950722Y-44206197D01*
X46788319Y-44133891D01*
X46788318Y-44133891D01*
X46782288Y-44131206D01*
X46688887Y-44111353D01*
X46601944Y-44092872D01*
X46601939Y-44092872D01*
X46595487Y-44091500D01*
X46404513Y-44091500D01*
X46398061Y-44092872D01*
X46398056Y-44092872D01*
X46311113Y-44111353D01*
X46217712Y-44131206D01*
X46211682Y-44133891D01*
X46211681Y-44133891D01*
X46049278Y-44206197D01*
X46049276Y-44206198D01*
X46043248Y-44208882D01*
X46037907Y-44212762D01*
X46037906Y-44212763D01*
X46019625Y-44226045D01*
X45888747Y-44321134D01*
X45884326Y-44326044D01*
X45884325Y-44326045D01*
X45877261Y-44333891D01*
X45760960Y-44463056D01*
X45665473Y-44628444D01*
X45606458Y-44810072D01*
X45605768Y-44816633D01*
X45605768Y-44816635D01*
X45597020Y-44899865D01*
X45586496Y-45000000D01*
X45302994Y-45000000D01*
X45312814Y-44906565D01*
X45313504Y-44900000D01*
X45303645Y-44806197D01*
X45294232Y-44716635D01*
X45294232Y-44716633D01*
X45293542Y-44710072D01*
X45234527Y-44528444D01*
X45214490Y-44493738D01*
X45196775Y-44463056D01*
X45139040Y-44363056D01*
X45027541Y-44239223D01*
X45015675Y-44226045D01*
X45015674Y-44226044D01*
X45011253Y-44221134D01*
X44856752Y-44108882D01*
X44850724Y-44106198D01*
X44850722Y-44106197D01*
X44688319Y-44033891D01*
X44688318Y-44033891D01*
X44682288Y-44031206D01*
X44567397Y-44006785D01*
X44501944Y-43992872D01*
X44501939Y-43992872D01*
X44495487Y-43991500D01*
X44304513Y-43991500D01*
X44298061Y-43992872D01*
X44298056Y-43992872D01*
X44232603Y-44006785D01*
X44117712Y-44031206D01*
X44111682Y-44033891D01*
X44111681Y-44033891D01*
X43949278Y-44106197D01*
X43949276Y-44106198D01*
X43943248Y-44108882D01*
X43788747Y-44221134D01*
X43784326Y-44226044D01*
X43784325Y-44226045D01*
X43727636Y-44289005D01*
X43667190Y-44326245D01*
X43596207Y-44324893D01*
X43537222Y-44285380D01*
X43508964Y-44220249D01*
X43508000Y-44204695D01*
X43508000Y-41700000D01*
X70386496Y-41700000D01*
X70406458Y-41889928D01*
X70465473Y-42071556D01*
X70560960Y-42236944D01*
X70688747Y-42378866D01*
X70843248Y-42491118D01*
X70849276Y-42493802D01*
X70849278Y-42493803D01*
X71011681Y-42566109D01*
X71017712Y-42568794D01*
X71111113Y-42588647D01*
X71198056Y-42607128D01*
X71198061Y-42607128D01*
X71204513Y-42608500D01*
X71395487Y-42608500D01*
X71401939Y-42607128D01*
X71401944Y-42607128D01*
X71488888Y-42588647D01*
X71582288Y-42568794D01*
X71588319Y-42566109D01*
X71750722Y-42493803D01*
X71750724Y-42493802D01*
X71756752Y-42491118D01*
X71911253Y-42378866D01*
X72039040Y-42236944D01*
X72134527Y-42071556D01*
X72193542Y-41889928D01*
X72213504Y-41700000D01*
X72193542Y-41510072D01*
X72134527Y-41328444D01*
X72039040Y-41163056D01*
X71911253Y-41021134D01*
X71756752Y-40908882D01*
X71750724Y-40906198D01*
X71750722Y-40906197D01*
X71588319Y-40833891D01*
X71588318Y-40833891D01*
X71582288Y-40831206D01*
X71488888Y-40811353D01*
X71401944Y-40792872D01*
X71401939Y-40792872D01*
X71395487Y-40791500D01*
X71204513Y-40791500D01*
X71198061Y-40792872D01*
X71198056Y-40792872D01*
X71111112Y-40811353D01*
X71017712Y-40831206D01*
X71011682Y-40833891D01*
X71011681Y-40833891D01*
X70849278Y-40906197D01*
X70849276Y-40906198D01*
X70843248Y-40908882D01*
X70688747Y-41021134D01*
X70560960Y-41163056D01*
X70465473Y-41328444D01*
X70406458Y-41510072D01*
X70386496Y-41700000D01*
X43508000Y-41700000D01*
X43508000Y-39222909D01*
X43528002Y-39154788D01*
X43581658Y-39108295D01*
X43633383Y-39096910D01*
X83999795Y-38900001D01*
X84000410Y-38900000D01*
X92366000Y-38900000D01*
X92434121Y-38920002D01*
G37*
%TD.AperFunction*%
%TD*%
M02*
