%TF.GenerationSoftware,KiCad,Pcbnew,6.0.0-d3dd2cf0fa~116~ubuntu20.04.1*%
%TF.CreationDate,2022-02-22T07:52:50+01:00*%
%TF.ProjectId,ESP32_BAT,45535033-325f-4424-9154-2e6b69636164,rev?*%
%TF.SameCoordinates,Original*%
%TF.FileFunction,Copper,L1,Top*%
%TF.FilePolarity,Positive*%
%FSLAX46Y46*%
G04 Gerber Fmt 4.6, Leading zero omitted, Abs format (unit mm)*
G04 Created by KiCad (PCBNEW 6.0.0-d3dd2cf0fa~116~ubuntu20.04.1) date 2022-02-22 07:52:50*
%MOMM*%
%LPD*%
G01*
G04 APERTURE LIST*
G04 Aperture macros list*
%AMRoundRect*
0 Rectangle with rounded corners*
0 $1 Rounding radius*
0 $2 $3 $4 $5 $6 $7 $8 $9 X,Y pos of 4 corners*
0 Add a 4 corners polygon primitive as box body*
4,1,4,$2,$3,$4,$5,$6,$7,$8,$9,$2,$3,0*
0 Add four circle primitives for the rounded corners*
1,1,$1+$1,$2,$3*
1,1,$1+$1,$4,$5*
1,1,$1+$1,$6,$7*
1,1,$1+$1,$8,$9*
0 Add four rect primitives between the rounded corners*
20,1,$1+$1,$2,$3,$4,$5,0*
20,1,$1+$1,$4,$5,$6,$7,0*
20,1,$1+$1,$6,$7,$8,$9,0*
20,1,$1+$1,$8,$9,$2,$3,0*%
G04 Aperture macros list end*
%TA.AperFunction,SMDPad,CuDef*%
%ADD10RoundRect,0.250000X-0.400000X-0.625000X0.400000X-0.625000X0.400000X0.625000X-0.400000X0.625000X0*%
%TD*%
%TA.AperFunction,SMDPad,CuDef*%
%ADD11R,5.000000X5.000000*%
%TD*%
%TA.AperFunction,SMDPad,CuDef*%
%ADD12R,2.000000X0.900000*%
%TD*%
%TA.AperFunction,SMDPad,CuDef*%
%ADD13R,0.900000X2.000000*%
%TD*%
%TA.AperFunction,ComponentPad*%
%ADD14R,1.700000X1.700000*%
%TD*%
%TA.AperFunction,ComponentPad*%
%ADD15O,1.700000X1.700000*%
%TD*%
%TA.AperFunction,SMDPad,CuDef*%
%ADD16RoundRect,0.250000X-0.650000X0.412500X-0.650000X-0.412500X0.650000X-0.412500X0.650000X0.412500X0*%
%TD*%
%TA.AperFunction,SMDPad,CuDef*%
%ADD17RoundRect,0.250000X0.625000X-0.400000X0.625000X0.400000X-0.625000X0.400000X-0.625000X-0.400000X0*%
%TD*%
%TA.AperFunction,SMDPad,CuDef*%
%ADD18RoundRect,0.250000X0.400000X0.625000X-0.400000X0.625000X-0.400000X-0.625000X0.400000X-0.625000X0*%
%TD*%
%TA.AperFunction,SMDPad,CuDef*%
%ADD19RoundRect,0.250000X0.650000X-0.412500X0.650000X0.412500X-0.650000X0.412500X-0.650000X-0.412500X0*%
%TD*%
%TA.AperFunction,SMDPad,CuDef*%
%ADD20RoundRect,0.250000X-0.625000X0.400000X-0.625000X-0.400000X0.625000X-0.400000X0.625000X0.400000X0*%
%TD*%
%TA.AperFunction,ComponentPad*%
%ADD21C,1.524000*%
%TD*%
%TA.AperFunction,SMDPad,CuDef*%
%ADD22O,1.200000X1.300000*%
%TD*%
%TA.AperFunction,SMDPad,CuDef*%
%ADD23O,1.300000X1.200000*%
%TD*%
%TA.AperFunction,SMDPad,CuDef*%
%ADD24RoundRect,0.150000X-0.150000X0.587500X-0.150000X-0.587500X0.150000X-0.587500X0.150000X0.587500X0*%
%TD*%
%TA.AperFunction,SMDPad,CuDef*%
%ADD25R,0.700000X0.510000*%
%TD*%
%TA.AperFunction,SMDPad,CuDef*%
%ADD26R,2.500000X2.500000*%
%TD*%
%TA.AperFunction,ViaPad*%
%ADD27C,0.800000*%
%TD*%
%TA.AperFunction,Conductor*%
%ADD28C,0.500000*%
%TD*%
%TA.AperFunction,Conductor*%
%ADD29C,0.250000*%
%TD*%
G04 APERTURE END LIST*
D10*
%TO.P,R13,1*%
%TO.N,/ESP32_SOLO/IO0*%
X63400000Y-61500000D03*
%TO.P,R13,2*%
%TO.N,+3V3*%
X66500000Y-61500000D03*
%TD*%
D11*
%TO.P,U1,39,GND*%
%TO.N,GND*%
X58700000Y-47895000D03*
D12*
%TO.P,U1,1,GND*%
X51200000Y-40395000D03*
%TO.P,U1,2,VDD*%
%TO.N,+3V3*%
X51200000Y-41665000D03*
%TO.P,U1,3,EN*%
%TO.N,/ESP32_SOLO/ENABLE*%
X51200000Y-42935000D03*
%TO.P,U1,4,SENSOR_VP*%
%TO.N,unconnected-(U1-Pad4)*%
X51200000Y-44205000D03*
%TO.P,U1,5,SENSOR_VN*%
%TO.N,unconnected-(U1-Pad5)*%
X51200000Y-45475000D03*
%TO.P,U1,6,IO34*%
%TO.N,Net-(C4-Pad1)*%
X51200000Y-46745000D03*
%TO.P,U1,7,IO35*%
%TO.N,unconnected-(U1-Pad7)*%
X51200000Y-48015000D03*
%TO.P,U1,8,IO32*%
%TO.N,unconnected-(U1-Pad8)*%
X51200000Y-49285000D03*
%TO.P,U1,9,IO33*%
%TO.N,ADC_SNS_IN*%
X51200000Y-50555000D03*
%TO.P,U1,10,IO25*%
%TO.N,unconnected-(U1-Pad10)*%
X51200000Y-51825000D03*
%TO.P,U1,11,IO26*%
%TO.N,unconnected-(U1-Pad11)*%
X51200000Y-53095000D03*
%TO.P,U1,12,IO27*%
%TO.N,SENSOR_ON*%
X51200000Y-54365000D03*
%TO.P,U1,13,IO14*%
%TO.N,CLK*%
X51200000Y-55635000D03*
%TO.P,U1,14,IO12*%
%TO.N,unconnected-(U1-Pad14)*%
X51200000Y-56905000D03*
D13*
%TO.P,U1,15,GND*%
%TO.N,GND*%
X53985000Y-57905000D03*
%TO.P,U1,16,IO13*%
%TO.N,SDA*%
X55255000Y-57905000D03*
%TO.P,U1,17,SHD/SD2*%
%TO.N,unconnected-(U1-Pad17)*%
X56525000Y-57905000D03*
%TO.P,U1,18,SWP/SD3*%
%TO.N,unconnected-(U1-Pad18)*%
X57795000Y-57905000D03*
%TO.P,U1,19,SCS/CMD*%
%TO.N,unconnected-(U1-Pad19)*%
X59065000Y-57905000D03*
%TO.P,U1,20,SCK/CLK*%
%TO.N,unconnected-(U1-Pad20)*%
X60335000Y-57905000D03*
%TO.P,U1,21,SDO/SD0*%
%TO.N,unconnected-(U1-Pad21)*%
X61605000Y-57905000D03*
%TO.P,U1,22,SDI/SD1*%
%TO.N,unconnected-(U1-Pad22)*%
X62875000Y-57905000D03*
%TO.P,U1,23,IO15*%
%TO.N,unconnected-(U1-Pad23)*%
X64145000Y-57905000D03*
%TO.P,U1,24,IO2*%
%TO.N,unconnected-(U1-Pad24)*%
X65415000Y-57905000D03*
D12*
%TO.P,U1,25,IO0*%
%TO.N,/ESP32_SOLO/IO0*%
X68200000Y-56905000D03*
%TO.P,U1,26,IO4*%
%TO.N,unconnected-(U1-Pad26)*%
X68200000Y-55635000D03*
%TO.P,U1,27,IO16*%
%TO.N,unconnected-(U1-Pad27)*%
X68200000Y-54365000D03*
%TO.P,U1,28,IO17*%
%TO.N,unconnected-(U1-Pad28)*%
X68200000Y-53095000D03*
%TO.P,U1,29,IO5*%
%TO.N,unconnected-(U1-Pad29)*%
X68200000Y-51825000D03*
%TO.P,U1,30,IO18*%
%TO.N,unconnected-(U1-Pad30)*%
X68200000Y-50555000D03*
%TO.P,U1,31,IO19*%
%TO.N,unconnected-(U1-Pad31)*%
X68200000Y-49285000D03*
%TO.P,U1,32,NC*%
%TO.N,unconnected-(U1-Pad32)*%
X68200000Y-48015000D03*
%TO.P,U1,33,IO21*%
%TO.N,unconnected-(U1-Pad33)*%
X68200000Y-46745000D03*
%TO.P,U1,34,RXD0/IO3*%
%TO.N,/ESP32_SOLO/RXD0*%
X68200000Y-45475000D03*
%TO.P,U1,35,TXD0/IO1*%
%TO.N,/ESP32_SOLO/TXD0*%
X68200000Y-44205000D03*
%TO.P,U1,36,IO22*%
%TO.N,unconnected-(U1-Pad36)*%
X68200000Y-42935000D03*
%TO.P,U1,37,IO23*%
%TO.N,unconnected-(U1-Pad37)*%
X68200000Y-41665000D03*
%TO.P,U1,38,GND*%
%TO.N,GND*%
X68200000Y-40395000D03*
%TD*%
D14*
%TO.P,J4,1,Pin_1*%
%TO.N,/ESP32_SOLO/IO0*%
X59975000Y-61400000D03*
D15*
%TO.P,J4,2,Pin_2*%
%TO.N,GND*%
X57435000Y-61400000D03*
%TD*%
D16*
%TO.P,C11,1*%
%TO.N,ADC_SNS_IN*%
X83800000Y-94267500D03*
%TO.P,C11,2*%
%TO.N,/sensor/sensor_gnd*%
X83800000Y-97392500D03*
%TD*%
D17*
%TO.P,R7,1*%
%TO.N,+3V3*%
X76800000Y-44820000D03*
%TO.P,R7,2*%
%TO.N,/ESP32_SOLO/ENABLE*%
X76800000Y-41720000D03*
%TD*%
D14*
%TO.P,TP1,1,1*%
%TO.N,SENSOR_ON*%
X66800000Y-78900000D03*
%TD*%
D18*
%TO.P,R10,1*%
%TO.N,ADC_IN*%
X60150000Y-67300000D03*
%TO.P,R10,2*%
%TO.N,GND*%
X57050000Y-67300000D03*
%TD*%
%TO.P,R2,1*%
%TO.N,SDA*%
X71170000Y-93300000D03*
%TO.P,R2,2*%
%TO.N,+3V3*%
X68070000Y-93300000D03*
%TD*%
D14*
%TO.P,TP4,1,1*%
%TO.N,/ESP32_SOLO/ENABLE*%
X86400000Y-37300000D03*
%TD*%
%TO.P,TP3,1,1*%
%TO.N,SDA*%
X86300000Y-87700000D03*
%TD*%
D10*
%TO.P,R5,1*%
%TO.N,CLK*%
X76170000Y-93300000D03*
%TO.P,R5,2*%
%TO.N,+3V3*%
X79270000Y-93300000D03*
%TD*%
D14*
%TO.P,TP7,1,1*%
%TO.N,/ESP32_SOLO/TXD0*%
X86300000Y-74600000D03*
%TD*%
D16*
%TO.P,C5,1*%
%TO.N,+BATT*%
X59100000Y-70675000D03*
%TO.P,C5,2*%
%TO.N,GND*%
X59100000Y-73800000D03*
%TD*%
D14*
%TO.P,J3,1,Pin_1*%
%TO.N,/sensor/sensor_gnd*%
X85600000Y-104700000D03*
D15*
%TO.P,J3,2,Pin_2*%
%TO.N,Net-(J3-Pad2)*%
X83060000Y-104700000D03*
%TO.P,J3,3,Pin_3*%
%TO.N,+3V3*%
X80520000Y-104700000D03*
%TD*%
D14*
%TO.P,TP12,1,1*%
%TO.N,ADC_SNS_IN*%
X80700000Y-88000000D03*
%TD*%
D19*
%TO.P,C4,1*%
%TO.N,Net-(C4-Pad1)*%
X72400000Y-62562500D03*
%TO.P,C4,2*%
%TO.N,GND*%
X72400000Y-59437500D03*
%TD*%
%TO.P,C1,1*%
%TO.N,GND*%
X74400000Y-44862500D03*
%TO.P,C1,2*%
%TO.N,/ESP32_SOLO/ENABLE*%
X74400000Y-41737500D03*
%TD*%
D16*
%TO.P,C3,1*%
%TO.N,GND*%
X45500000Y-40537500D03*
%TO.P,C3,2*%
%TO.N,+3V3*%
X45500000Y-43662500D03*
%TD*%
D20*
%TO.P,R8,1*%
%TO.N,Net-(C4-Pad1)*%
X75000000Y-62950000D03*
%TO.P,R8,2*%
%TO.N,ADC_IN*%
X75000000Y-66050000D03*
%TD*%
D16*
%TO.P,C8,1*%
%TO.N,+3V3*%
X80500000Y-68675000D03*
%TO.P,C8,2*%
%TO.N,GND*%
X80500000Y-71800000D03*
%TD*%
%TO.P,C6,1*%
%TO.N,+BATT*%
X61600000Y-70700000D03*
%TO.P,C6,2*%
%TO.N,GND*%
X61600000Y-73825000D03*
%TD*%
D21*
%TO.P,BT1,1,+*%
%TO.N,+BATT*%
X56254000Y-70900000D03*
%TO.P,BT1,2,-*%
%TO.N,GND*%
X56254000Y-122900000D03*
%TD*%
D22*
%TO.P,D2,1,K*%
%TO.N,Net-(C7-Pad1)*%
X71000000Y-68200000D03*
%TO.P,D2,2,A*%
%TO.N,+5V*%
X71000000Y-65900000D03*
%TD*%
D20*
%TO.P,R9,1*%
%TO.N,ADC_IN*%
X64000000Y-67450000D03*
%TO.P,R9,2*%
%TO.N,+BATT*%
X64000000Y-70550000D03*
%TD*%
%TO.P,R6,1*%
%TO.N,GND*%
X76800000Y-50100000D03*
%TO.P,R6,2*%
%TO.N,/ESP32_SOLO/RXD0*%
X76800000Y-53200000D03*
%TD*%
D17*
%TO.P,R3,1*%
%TO.N,GND*%
X76800000Y-58700000D03*
%TO.P,R3,2*%
%TO.N,/ESP32_SOLO/TXD0*%
X76800000Y-55600000D03*
%TD*%
D23*
%TO.P,D1,1,K*%
%TO.N,Net-(C7-Pad1)*%
X68500000Y-70700000D03*
%TO.P,D1,2,A*%
%TO.N,+BATT*%
X66200000Y-70700000D03*
%TD*%
D24*
%TO.P,Q1,1,B*%
%TO.N,Net-(Q1-Pad1)*%
X70950000Y-86862500D03*
%TO.P,Q1,2,E*%
%TO.N,GND*%
X69050000Y-86862500D03*
%TO.P,Q1,3,C*%
%TO.N,/sensor/sensor_gnd*%
X70000000Y-88737500D03*
%TD*%
D18*
%TO.P,R4,1*%
%TO.N,Net-(J1-Pad2)*%
X82250000Y-53200000D03*
%TO.P,R4,2*%
%TO.N,/ESP32_SOLO/RXD0*%
X79150000Y-53200000D03*
%TD*%
D14*
%TO.P,J1,1,Pin_1*%
%TO.N,+5V*%
X86400000Y-50700000D03*
D15*
%TO.P,J1,2,Pin_2*%
%TO.N,Net-(J1-Pad2)*%
X86400000Y-53240000D03*
%TO.P,J1,3,Pin_3*%
%TO.N,Net-(J1-Pad3)*%
X86400000Y-55780000D03*
%TO.P,J1,4,Pin_4*%
%TO.N,GND*%
X86400000Y-58320000D03*
%TD*%
D19*
%TO.P,C9,1*%
%TO.N,+3V3*%
X79500000Y-119162500D03*
%TO.P,C9,2*%
%TO.N,/sensor/sensor_gnd*%
X79500000Y-116037500D03*
%TD*%
D25*
%TO.P,U2,1,IN*%
%TO.N,Net-(C7-Pad1)*%
X75440000Y-68650000D03*
%TO.P,U2,2,GND*%
%TO.N,GND*%
X75440000Y-69600000D03*
%TO.P,U2,3,EN*%
%TO.N,Net-(C7-Pad1)*%
X75440000Y-70550000D03*
%TO.P,U2,4,NC*%
%TO.N,unconnected-(U2-Pad4)*%
X77760000Y-70550000D03*
%TO.P,U2,5,OUT*%
%TO.N,+3V3*%
X77760000Y-68650000D03*
%TD*%
D26*
%TO.P,TP8,1,1*%
%TO.N,+BATT*%
X54000000Y-92650000D03*
%TD*%
D14*
%TO.P,TP6,1,1*%
%TO.N,/ESP32_SOLO/RXD0*%
X86300000Y-70900000D03*
%TD*%
%TO.P,TP5,1,1*%
%TO.N,Net-(C4-Pad1)*%
X86300000Y-67300000D03*
%TD*%
D19*
%TO.P,C10,1*%
%TO.N,+3V3*%
X77100000Y-119162500D03*
%TO.P,C10,2*%
%TO.N,/sensor/sensor_gnd*%
X77100000Y-116037500D03*
%TD*%
D26*
%TO.P,TP10,1,1*%
%TO.N,+3V3*%
X54000000Y-88000000D03*
%TD*%
D17*
%TO.P,R11,1*%
%TO.N,Net-(Q1-Pad1)*%
X70900000Y-84500000D03*
%TO.P,R11,2*%
%TO.N,SENSOR_ON*%
X70900000Y-81400000D03*
%TD*%
D14*
%TO.P,TP13,1,1*%
%TO.N,GND*%
X86300000Y-80500000D03*
%TD*%
%TO.P,TP2,1,1*%
%TO.N,CLK*%
X86300000Y-84100000D03*
%TD*%
D16*
%TO.P,C2,1*%
%TO.N,GND*%
X47900000Y-40537500D03*
%TO.P,C2,2*%
%TO.N,+3V3*%
X47900000Y-43662500D03*
%TD*%
D20*
%TO.P,R14,1*%
%TO.N,ADC_SNS_IN*%
X81400000Y-94250000D03*
%TO.P,R14,2*%
%TO.N,Net-(J3-Pad2)*%
X81400000Y-97350000D03*
%TD*%
D16*
%TO.P,C7,1*%
%TO.N,Net-(C7-Pad1)*%
X71000000Y-70737500D03*
%TO.P,C7,2*%
%TO.N,GND*%
X71000000Y-73862500D03*
%TD*%
D18*
%TO.P,R1,1*%
%TO.N,Net-(J1-Pad3)*%
X82250000Y-55600000D03*
%TO.P,R1,2*%
%TO.N,/ESP32_SOLO/TXD0*%
X79150000Y-55600000D03*
%TD*%
D26*
%TO.P,TP11,1,1*%
%TO.N,GND*%
X54000000Y-97300000D03*
%TD*%
D14*
%TO.P,J2,1,Pin_1*%
%TO.N,/ESP32_SOLO/ENABLE*%
X86200000Y-42200000D03*
D15*
%TO.P,J2,2,Pin_2*%
%TO.N,GND*%
X86200000Y-44740000D03*
%TD*%
D26*
%TO.P,TP9,1,1*%
%TO.N,+5V*%
X54000000Y-83350000D03*
%TD*%
D17*
%TO.P,R15,1*%
%TO.N,/sensor/sensor_gnd*%
X86200000Y-97400000D03*
%TO.P,R15,2*%
%TO.N,GND*%
X86200000Y-94300000D03*
%TD*%
D18*
%TO.P,R12,1*%
%TO.N,/sensor/sensor_gnd*%
X72920000Y-95700000D03*
%TO.P,R12,2*%
%TO.N,GND*%
X69820000Y-95700000D03*
%TD*%
D14*
%TO.P,U3,1,VDD*%
%TO.N,+3V3*%
X69160000Y-104700000D03*
D15*
%TO.P,U3,2,SDA*%
%TO.N,SDA*%
X71700000Y-104700000D03*
%TO.P,U3,3,GND*%
%TO.N,/sensor/sensor_gnd*%
X74240000Y-104700000D03*
%TO.P,U3,4,SCL*%
%TO.N,CLK*%
X76780000Y-104700000D03*
%TD*%
D27*
%TO.N,+3V3*%
X68500000Y-60700000D03*
%TO.N,GND*%
X71400000Y-40400000D03*
X54000000Y-60900000D03*
%TO.N,/ESP32_SOLO/RXD0*%
X70400000Y-45600000D03*
X72600000Y-47600000D03*
%TO.N,Net-(C4-Pad1)*%
X51700688Y-64800688D03*
%TO.N,ADC_SNS_IN*%
X51500000Y-63800000D03*
%TO.N,Net-(C4-Pad1)*%
X57800000Y-64700000D03*
%TO.N,ADC_SNS_IN*%
X57000000Y-63800000D03*
%TO.N,/ESP32_SOLO/ENABLE*%
X71300000Y-41700000D03*
X49200000Y-45200000D03*
%TO.N,+BATT*%
X52400000Y-68400000D03*
%TO.N,GND*%
X60000000Y-49500000D03*
X65800000Y-97300000D03*
X86300000Y-92700000D03*
X81300000Y-73700000D03*
X73400000Y-57700000D03*
X71100000Y-57700000D03*
X58700000Y-48100000D03*
X76800000Y-60200000D03*
X57400000Y-49500000D03*
X79500000Y-73800000D03*
X55500000Y-67300000D03*
X76800000Y-48300000D03*
X44000000Y-40200000D03*
X73600000Y-69600000D03*
X58700000Y-49500000D03*
X57400000Y-48100000D03*
X72300000Y-75200000D03*
X57400000Y-46700000D03*
X60000000Y-46700000D03*
X68100000Y-95700000D03*
X60000000Y-48100000D03*
X73800000Y-46300000D03*
X65800000Y-74400000D03*
X68300000Y-84900000D03*
X75300000Y-46200000D03*
X58700000Y-46700000D03*
X69900000Y-75400000D03*
%TO.N,+3V3*%
X66300000Y-92000000D03*
X75100000Y-119200000D03*
X79300000Y-91300000D03*
X76800000Y-46200000D03*
X44400000Y-44900000D03*
X65500000Y-88000000D03*
X82300000Y-69200000D03*
X81700000Y-119100000D03*
X46500000Y-45000000D03*
X82100000Y-67400000D03*
%TO.N,Net-(C4-Pad1)*%
X77900000Y-63100000D03*
%TO.N,+5V*%
X46400000Y-81200000D03*
%TO.N,/sensor/sensor_gnd*%
X72900000Y-99400000D03*
X83800000Y-99400000D03*
X77100000Y-107400000D03*
X74800000Y-99600000D03*
%TO.N,/ESP32_SOLO/TXD0*%
X72400000Y-53800000D03*
%TO.N,SDA*%
X72700000Y-93400000D03*
X86200000Y-90700000D03*
%TO.N,CLK*%
X54349500Y-67300000D03*
X53200000Y-65600000D03*
%TO.N,SENSOR_ON*%
X66100000Y-81300000D03*
X47600000Y-61900000D03*
%TO.N,ADC_SNS_IN*%
X83600000Y-65700000D03*
X74600000Y-61300000D03*
%TD*%
D28*
%TO.N,/ESP32_SOLO/IO0*%
X63400000Y-61500000D02*
X65200000Y-59700000D01*
X65200000Y-59700000D02*
X69500000Y-59700000D01*
X69500000Y-59700000D02*
X70250489Y-58949511D01*
X70250489Y-58949511D02*
X70250489Y-57549511D01*
X70250489Y-57549511D02*
X69605978Y-56905000D01*
X69605978Y-56905000D02*
X68200000Y-56905000D01*
%TO.N,+3V3*%
X67700000Y-61500000D02*
X68500000Y-60700000D01*
X66500000Y-61500000D02*
X67700000Y-61500000D01*
%TO.N,/ESP32_SOLO/IO0*%
X59975000Y-61400000D02*
X63300000Y-61400000D01*
X63300000Y-61400000D02*
X63400000Y-61500000D01*
X63200000Y-61400000D02*
X63400000Y-61600000D01*
%TO.N,ADC_SNS_IN*%
X57000000Y-63800000D02*
X66900000Y-63800000D01*
X66900000Y-63800000D02*
X69800000Y-60900000D01*
X69800000Y-60900000D02*
X74200000Y-60900000D01*
X74200000Y-60900000D02*
X74600000Y-61300000D01*
%TO.N,Net-(C4-Pad1)*%
X57800000Y-64700000D02*
X67500000Y-64700000D01*
X67500000Y-64700000D02*
X68900000Y-63300000D01*
X68900000Y-63300000D02*
X71662500Y-63300000D01*
X71662500Y-63300000D02*
X72400000Y-62562500D01*
%TO.N,GND*%
X71395000Y-40395000D02*
X71400000Y-40400000D01*
X68200000Y-40395000D02*
X71395000Y-40395000D01*
X53985000Y-60885000D02*
X54000000Y-60900000D01*
X53985000Y-57905000D02*
X53985000Y-60885000D01*
%TO.N,/ESP32_SOLO/RXD0*%
X76800000Y-53200000D02*
X75400000Y-53200000D01*
X72600000Y-50400000D02*
X72600000Y-47600000D01*
X75400000Y-53200000D02*
X72600000Y-50400000D01*
X70400000Y-45600000D02*
X70300000Y-45500000D01*
X70300000Y-45500000D02*
X68225000Y-45500000D01*
X68225000Y-45500000D02*
X68200000Y-45475000D01*
%TO.N,Net-(C4-Pad1)*%
X45800000Y-51000000D02*
X50055000Y-46745000D01*
X51700688Y-64800688D02*
X50401376Y-66100000D01*
X50401376Y-66100000D02*
X47800000Y-66100000D01*
X47800000Y-66100000D02*
X45800000Y-64100000D01*
X45800000Y-64100000D02*
X45800000Y-51000000D01*
X50055000Y-46745000D02*
X51200000Y-46745000D01*
%TO.N,ADC_SNS_IN*%
X51500000Y-63800000D02*
X50200000Y-65100000D01*
X50200000Y-65100000D02*
X47900000Y-65100000D01*
X47900000Y-65100000D02*
X46500000Y-63700000D01*
X46500000Y-54000000D02*
X49945000Y-50555000D01*
X46500000Y-63700000D02*
X46500000Y-54000000D01*
X49945000Y-50555000D02*
X51200000Y-50555000D01*
%TO.N,/ESP32_SOLO/ENABLE*%
X86400000Y-37300000D02*
X86400000Y-42000000D01*
%TO.N,SENSOR_ON*%
X47600000Y-61900000D02*
X47400481Y-61700481D01*
X47400481Y-61700481D02*
X47400481Y-56110249D01*
X47400481Y-56110249D02*
X49145730Y-54365000D01*
X49145730Y-54365000D02*
X51200000Y-54365000D01*
%TO.N,CLK*%
X53200000Y-65600000D02*
X53200000Y-63400000D01*
X53200000Y-63400000D02*
X48100000Y-58300000D01*
X48100000Y-58300000D02*
X48100000Y-56400000D01*
X48100000Y-56400000D02*
X48865000Y-55635000D01*
X48865000Y-55635000D02*
X51200000Y-55635000D01*
%TO.N,SDA*%
X71170000Y-93300000D02*
X71170000Y-91970000D01*
X53500000Y-74300000D02*
X53500000Y-66712011D01*
X71170000Y-91970000D02*
X53500000Y-74300000D01*
X53500000Y-66712011D02*
X55255000Y-64957011D01*
X55255000Y-64957011D02*
X55255000Y-57905000D01*
%TO.N,/ESP32_SOLO/TXD0*%
X71300480Y-51300480D02*
X71300480Y-44900480D01*
X71300480Y-44900480D02*
X70605000Y-44205000D01*
X70605000Y-44205000D02*
X68200000Y-44205000D01*
D29*
%TO.N,/ESP32_SOLO/ENABLE*%
X71337500Y-41737500D02*
X74400000Y-41737500D01*
X71300000Y-41700000D02*
X71337500Y-41737500D01*
X51200000Y-42935000D02*
X49950000Y-42935000D01*
X49950000Y-42935000D02*
X49500000Y-43385000D01*
X49500000Y-43385000D02*
X49500000Y-44900000D01*
X49500000Y-44900000D02*
X49200000Y-45200000D01*
D28*
%TO.N,+3V3*%
X47900000Y-43662500D02*
X47900000Y-43100000D01*
X47900000Y-43100000D02*
X49335000Y-41665000D01*
X49335000Y-41665000D02*
X51200000Y-41665000D01*
%TO.N,GND*%
X47900000Y-40537500D02*
X49162500Y-40537500D01*
X49305000Y-40395000D02*
X51200000Y-40395000D01*
X49162500Y-40537500D02*
X49305000Y-40395000D01*
%TO.N,+BATT*%
X59025000Y-70600000D02*
X59100000Y-70675000D01*
X57600000Y-70600000D02*
X59025000Y-70600000D01*
X45500000Y-75300000D02*
X45500000Y-88800000D01*
X52400000Y-68400000D02*
X45500000Y-75300000D01*
X45500000Y-88800000D02*
X49350000Y-92650000D01*
X63850000Y-70700000D02*
X64000000Y-70550000D01*
X57300000Y-70900000D02*
X57600000Y-70600000D01*
X61600000Y-70700000D02*
X63850000Y-70700000D01*
X56254000Y-70900000D02*
X57300000Y-70900000D01*
X59100000Y-70675000D02*
X61575000Y-70675000D01*
X66050000Y-70550000D02*
X66200000Y-70700000D01*
X49350000Y-92650000D02*
X54000000Y-92650000D01*
X64000000Y-70550000D02*
X66050000Y-70550000D01*
X61575000Y-70675000D02*
X61600000Y-70700000D01*
%TO.N,GND*%
X71000000Y-73862500D02*
X71000000Y-73900000D01*
X74400000Y-44862500D02*
X74400000Y-45300000D01*
X72400000Y-59437500D02*
X72400000Y-58700000D01*
X54000000Y-97300000D02*
X65800000Y-97300000D01*
X86200000Y-94300000D02*
X86200000Y-92800000D01*
X65225000Y-73825000D02*
X65600000Y-74200000D01*
X72400000Y-59437500D02*
X72400000Y-59000000D01*
X74400000Y-45700000D02*
X73800000Y-46300000D01*
X71000000Y-73862500D02*
X71000000Y-74300000D01*
X69050000Y-86862500D02*
X69050000Y-85650000D01*
X80500000Y-71800000D02*
X80500000Y-72900000D01*
X45500000Y-40537500D02*
X47900000Y-40537500D01*
X65600000Y-74200000D02*
X65800000Y-74400000D01*
X80500000Y-71800000D02*
X80500000Y-72800000D01*
X72400000Y-59000000D02*
X71100000Y-57700000D01*
X45500000Y-40537500D02*
X44337500Y-40537500D01*
X74400000Y-44862500D02*
X74400000Y-45700000D01*
X76800000Y-58700000D02*
X76800000Y-60200000D01*
X74400000Y-45300000D02*
X75300000Y-46200000D01*
X71000000Y-73900000D02*
X72300000Y-75200000D01*
X76800000Y-50100000D02*
X76800000Y-48300000D01*
X69820000Y-95700000D02*
X68100000Y-95700000D01*
X61600000Y-73825000D02*
X65225000Y-73825000D01*
X86200000Y-92800000D02*
X86300000Y-92700000D01*
X80500000Y-72800000D02*
X79500000Y-73800000D01*
X80500000Y-72900000D02*
X81300000Y-73700000D01*
X69050000Y-85650000D02*
X68300000Y-84900000D01*
X61575000Y-73800000D02*
X61600000Y-73825000D01*
X59100000Y-73800000D02*
X61575000Y-73800000D01*
X75440000Y-69600000D02*
X73600000Y-69600000D01*
X71000000Y-74300000D02*
X69900000Y-75400000D01*
X57050000Y-67300000D02*
X55500000Y-67300000D01*
X44337500Y-40537500D02*
X44000000Y-40200000D01*
X72400000Y-58700000D02*
X73400000Y-57700000D01*
%TO.N,/ESP32_SOLO/ENABLE*%
X76800000Y-41720000D02*
X74417500Y-41720000D01*
X74400000Y-41737500D02*
X74287500Y-41625000D01*
X79700000Y-41700000D02*
X76820000Y-41700000D01*
X74417500Y-41720000D02*
X74400000Y-41737500D01*
X80200000Y-42200000D02*
X79700000Y-41700000D01*
X76820000Y-41700000D02*
X76800000Y-41720000D01*
X86400000Y-42000000D02*
X86200000Y-42200000D01*
X86200000Y-42200000D02*
X80200000Y-42200000D01*
%TO.N,+3V3*%
X76800000Y-44820000D02*
X76800000Y-46200000D01*
X81637500Y-119162500D02*
X81700000Y-119100000D01*
X80475000Y-68650000D02*
X80500000Y-68675000D01*
X54000000Y-88000000D02*
X65500000Y-88000000D01*
X79270000Y-91330000D02*
X79300000Y-91300000D01*
X45500000Y-43662500D02*
X47900000Y-43662500D01*
X45500000Y-44000000D02*
X46500000Y-45000000D01*
X67600000Y-93300000D02*
X66300000Y-92000000D01*
X79500000Y-119162500D02*
X81637500Y-119162500D01*
X45500000Y-43662500D02*
X45500000Y-44000000D01*
X81775000Y-68675000D02*
X80500000Y-68675000D01*
X45500000Y-43662500D02*
X45500000Y-43800000D01*
X82300000Y-69200000D02*
X81775000Y-68675000D01*
X68070000Y-93300000D02*
X67600000Y-93300000D01*
X75137500Y-119162500D02*
X75100000Y-119200000D01*
X77100000Y-119162500D02*
X79500000Y-119162500D01*
X77100000Y-119162500D02*
X75137500Y-119162500D01*
X77760000Y-68650000D02*
X80475000Y-68650000D01*
X80500000Y-68675000D02*
X80825000Y-68675000D01*
X79270000Y-93300000D02*
X79270000Y-91330000D01*
X45500000Y-43800000D02*
X44400000Y-44900000D01*
X80825000Y-68675000D02*
X82100000Y-67400000D01*
%TO.N,Net-(C4-Pad1)*%
X72400000Y-62562500D02*
X74612500Y-62562500D01*
X74612500Y-62562500D02*
X75000000Y-62950000D01*
X77750000Y-62950000D02*
X77900000Y-63100000D01*
X75000000Y-62950000D02*
X77750000Y-62950000D01*
X72237500Y-62725000D02*
X72400000Y-62562500D01*
%TO.N,Net-(C7-Pad1)*%
X71000000Y-68200000D02*
X71000000Y-70737500D01*
X73087500Y-68650000D02*
X71000000Y-70737500D01*
X68500000Y-70700000D02*
X70962500Y-70700000D01*
X71187500Y-70550000D02*
X71000000Y-70737500D01*
X75440000Y-68650000D02*
X73087500Y-68650000D01*
X70962500Y-70700000D02*
X71000000Y-70737500D01*
X75440000Y-70550000D02*
X71187500Y-70550000D01*
%TO.N,+5V*%
X82300000Y-50700000D02*
X86400000Y-50700000D01*
X80700000Y-63400000D02*
X80700000Y-52300000D01*
X73800000Y-67400000D02*
X76700000Y-67400000D01*
X76700000Y-67400000D02*
X80700000Y-63400000D01*
X48550000Y-83350000D02*
X46400000Y-81200000D01*
X71000000Y-65900000D02*
X72300000Y-65900000D01*
X54000000Y-83350000D02*
X48550000Y-83350000D01*
X72300000Y-65900000D02*
X73800000Y-67400000D01*
X80700000Y-52300000D02*
X82300000Y-50700000D01*
%TO.N,Net-(J1-Pad2)*%
X82250000Y-53200000D02*
X86360000Y-53200000D01*
X86360000Y-53200000D02*
X86400000Y-53240000D01*
%TO.N,Net-(J1-Pad3)*%
X86220000Y-55600000D02*
X86400000Y-55780000D01*
X82250000Y-55600000D02*
X86220000Y-55600000D01*
%TO.N,Net-(Q1-Pad1)*%
X70950000Y-86862500D02*
X70950000Y-84550000D01*
X70950000Y-84550000D02*
X70900000Y-84500000D01*
%TO.N,/sensor/sensor_gnd*%
X77100000Y-116037500D02*
X77100000Y-107400000D01*
X86200000Y-97400000D02*
X83807500Y-97400000D01*
X77100000Y-116037500D02*
X79500000Y-116037500D01*
X70000000Y-88737500D02*
X70000000Y-89300000D01*
X83800000Y-97392500D02*
X83800000Y-99400000D01*
X74800000Y-94100000D02*
X74800000Y-99600000D01*
X72920000Y-99380000D02*
X72900000Y-99400000D01*
X72920000Y-95700000D02*
X72920000Y-99380000D01*
X70000000Y-89300000D02*
X74800000Y-94100000D01*
X83807500Y-97400000D02*
X83800000Y-97392500D01*
%TO.N,/ESP32_SOLO/TXD0*%
X79150000Y-55600000D02*
X76800000Y-55600000D01*
X75600000Y-55600000D02*
X71300480Y-51300480D01*
X72400000Y-52400000D02*
X71300480Y-51300480D01*
X72400000Y-53800000D02*
X72400000Y-52400000D01*
X76800000Y-55600000D02*
X75600000Y-55600000D01*
%TO.N,SDA*%
X86300000Y-87700000D02*
X86300000Y-90600000D01*
X71400000Y-93530000D02*
X71170000Y-93300000D01*
X71700000Y-104700000D02*
X71700000Y-97500000D01*
X86300000Y-90600000D02*
X86200000Y-90700000D01*
X72700000Y-93400000D02*
X71270000Y-93400000D01*
X71270000Y-93400000D02*
X71170000Y-93300000D01*
X71700000Y-97500000D02*
X71400000Y-97200000D01*
X71400000Y-97200000D02*
X71400000Y-93530000D01*
%TO.N,/ESP32_SOLO/RXD0*%
X79150000Y-53200000D02*
X76800000Y-53200000D01*
%TO.N,CLK*%
X54349500Y-73549500D02*
X54349500Y-67300000D01*
X80200000Y-108300000D02*
X80200000Y-108120000D01*
X76170000Y-93300000D02*
X73900000Y-91030000D01*
X73900000Y-91030000D02*
X73900000Y-84500000D01*
X90100000Y-106400000D02*
X88200000Y-108300000D01*
X90100000Y-87900000D02*
X90100000Y-106400000D01*
X73900000Y-84500000D02*
X72300000Y-82900000D01*
X88200000Y-108300000D02*
X80200000Y-108300000D01*
X76200000Y-96200000D02*
X76200000Y-93330000D01*
X72300000Y-82900000D02*
X63700000Y-82900000D01*
X76780000Y-96780000D02*
X76200000Y-96200000D01*
X76200000Y-93330000D02*
X76170000Y-93300000D01*
X76780000Y-104700000D02*
X76780000Y-96780000D01*
X63700000Y-82900000D02*
X54349500Y-73549500D01*
X80200000Y-108120000D02*
X76780000Y-104700000D01*
X86300000Y-84100000D02*
X90100000Y-87900000D01*
%TO.N,ADC_IN*%
X74250000Y-66050000D02*
X72500000Y-64300000D01*
X60150000Y-67300000D02*
X63850000Y-67300000D01*
X60250000Y-67200000D02*
X60150000Y-67300000D01*
X75000000Y-66050000D02*
X74250000Y-66050000D01*
X64000000Y-67450000D02*
X66250000Y-67450000D01*
X72500000Y-64300000D02*
X69500000Y-64300000D01*
X66250000Y-67450000D02*
X66300000Y-67500000D01*
X69500000Y-64300000D02*
X66300000Y-67500000D01*
X63850000Y-67300000D02*
X64000000Y-67450000D01*
%TO.N,SENSOR_ON*%
X70900000Y-80300000D02*
X69500000Y-78900000D01*
X70900000Y-81400000D02*
X70900000Y-80300000D01*
X70900000Y-81400000D02*
X66200000Y-81400000D01*
X69500000Y-78900000D02*
X66800000Y-78900000D01*
X66200000Y-81400000D02*
X66100000Y-81300000D01*
%TO.N,ADC_SNS_IN*%
X81400000Y-94250000D02*
X83782500Y-94250000D01*
X83800000Y-65900000D02*
X83600000Y-65700000D01*
X83800000Y-94267500D02*
X83800000Y-65900000D01*
X81400000Y-94250000D02*
X80700000Y-93550000D01*
X83782500Y-94250000D02*
X83800000Y-94267500D01*
X80700000Y-93550000D02*
X80700000Y-88000000D01*
%TO.N,Net-(J3-Pad2)*%
X81400000Y-97350000D02*
X81400000Y-99600000D01*
X81400000Y-99600000D02*
X83060000Y-101260000D01*
X83060000Y-101260000D02*
X83060000Y-104700000D01*
%TD*%
M02*
