%TF.GenerationSoftware,KiCad,Pcbnew,6.0.0-d3dd2cf0fa~116~ubuntu20.04.1*%
%TF.CreationDate,2022-02-22T07:52:51+01:00*%
%TF.ProjectId,ESP32_BAT,45535033-325f-4424-9154-2e6b69636164,rev?*%
%TF.SameCoordinates,Original*%
%TF.FileFunction,Copper,L2,Inr*%
%TF.FilePolarity,Positive*%
%FSLAX46Y46*%
G04 Gerber Fmt 4.6, Leading zero omitted, Abs format (unit mm)*
G04 Created by KiCad (PCBNEW 6.0.0-d3dd2cf0fa~116~ubuntu20.04.1) date 2022-02-22 07:52:51*
%MOMM*%
%LPD*%
G01*
G04 APERTURE LIST*
%TA.AperFunction,ComponentPad*%
%ADD10R,1.700000X1.700000*%
%TD*%
%TA.AperFunction,ComponentPad*%
%ADD11O,1.700000X1.700000*%
%TD*%
%TA.AperFunction,ComponentPad*%
%ADD12C,1.524000*%
%TD*%
%TA.AperFunction,ViaPad*%
%ADD13C,0.800000*%
%TD*%
%TA.AperFunction,Conductor*%
%ADD14C,0.500000*%
%TD*%
%TA.AperFunction,Conductor*%
%ADD15C,0.250000*%
%TD*%
G04 APERTURE END LIST*
D10*
%TO.N,/ESP32_SOLO/IO0*%
%TO.C,J4*%
X59975000Y-61400000D03*
D11*
%TO.N,GND*%
X57435000Y-61400000D03*
%TD*%
D10*
%TO.N,SENSOR_ON*%
%TO.C,TP1*%
X66800000Y-78900000D03*
%TD*%
%TO.N,/ESP32_SOLO/ENABLE*%
%TO.C,TP4*%
X86400000Y-37300000D03*
%TD*%
%TO.N,SDA*%
%TO.C,TP3*%
X86300000Y-87700000D03*
%TD*%
%TO.N,/ESP32_SOLO/TXD0*%
%TO.C,TP7*%
X86300000Y-74600000D03*
%TD*%
%TO.N,/sensor/sensor_gnd*%
%TO.C,J3*%
X85600000Y-104700000D03*
D11*
%TO.N,Net-(J3-Pad2)*%
X83060000Y-104700000D03*
%TO.N,+3V3*%
X80520000Y-104700000D03*
%TD*%
D10*
%TO.N,ADC_SNS_IN*%
%TO.C,TP12*%
X80700000Y-88000000D03*
%TD*%
D12*
%TO.N,+BATT*%
%TO.C,BT1*%
X56254000Y-70900000D03*
%TO.N,GND*%
X56254000Y-122900000D03*
%TD*%
D10*
%TO.N,+5V*%
%TO.C,J1*%
X86400000Y-50700000D03*
D11*
%TO.N,Net-(J1-Pad2)*%
X86400000Y-53240000D03*
%TO.N,Net-(J1-Pad3)*%
X86400000Y-55780000D03*
%TO.N,GND*%
X86400000Y-58320000D03*
%TD*%
D10*
%TO.N,/ESP32_SOLO/RXD0*%
%TO.C,TP6*%
X86300000Y-70900000D03*
%TD*%
%TO.N,Net-(C4-Pad1)*%
%TO.C,TP5*%
X86300000Y-67300000D03*
%TD*%
%TO.N,GND*%
%TO.C,TP13*%
X86300000Y-80500000D03*
%TD*%
%TO.N,CLK*%
%TO.C,TP2*%
X86300000Y-84100000D03*
%TD*%
%TO.N,/ESP32_SOLO/ENABLE*%
%TO.C,J2*%
X86200000Y-42200000D03*
D11*
%TO.N,GND*%
X86200000Y-44740000D03*
%TD*%
D10*
%TO.N,+3V3*%
%TO.C,U3*%
X69160000Y-104700000D03*
D11*
%TO.N,SDA*%
X71700000Y-104700000D03*
%TO.N,/sensor/sensor_gnd*%
X74240000Y-104700000D03*
%TO.N,CLK*%
X76780000Y-104700000D03*
%TD*%
D13*
%TO.N,+3V3*%
X68500000Y-60700000D03*
%TO.N,GND*%
X71400000Y-40400000D03*
X54000000Y-60900000D03*
%TO.N,/ESP32_SOLO/RXD0*%
X70400000Y-45600000D03*
X72600000Y-47600000D03*
%TO.N,Net-(C4-Pad1)*%
X51700688Y-64800688D03*
%TO.N,ADC_SNS_IN*%
X51500000Y-63800000D03*
%TO.N,Net-(C4-Pad1)*%
X57800000Y-64700000D03*
%TO.N,ADC_SNS_IN*%
X57000000Y-63800000D03*
%TO.N,/ESP32_SOLO/ENABLE*%
X71300000Y-41700000D03*
X49200000Y-45200000D03*
%TO.N,+BATT*%
X52400000Y-68400000D03*
%TO.N,GND*%
X60000000Y-49500000D03*
X65800000Y-97300000D03*
X86300000Y-92700000D03*
X81300000Y-73700000D03*
X73400000Y-57700000D03*
X71100000Y-57700000D03*
X58700000Y-48100000D03*
X76800000Y-60200000D03*
X57400000Y-49500000D03*
X79500000Y-73800000D03*
X55500000Y-67300000D03*
X76800000Y-48300000D03*
X44000000Y-40200000D03*
X73600000Y-69600000D03*
X58700000Y-49500000D03*
X57400000Y-48100000D03*
X72300000Y-75200000D03*
X57400000Y-46700000D03*
X60000000Y-46700000D03*
X68100000Y-95700000D03*
X60000000Y-48100000D03*
X73800000Y-46300000D03*
X65800000Y-74400000D03*
X68300000Y-84900000D03*
X75300000Y-46200000D03*
X58700000Y-46700000D03*
X69900000Y-75400000D03*
%TO.N,+3V3*%
X66300000Y-92000000D03*
X75100000Y-119200000D03*
X79300000Y-91300000D03*
X76800000Y-46200000D03*
X44400000Y-44900000D03*
X65500000Y-88000000D03*
X82300000Y-69200000D03*
X81700000Y-119100000D03*
X46500000Y-45000000D03*
X82100000Y-67400000D03*
%TO.N,Net-(C4-Pad1)*%
X77900000Y-63100000D03*
%TO.N,+5V*%
X46400000Y-81200000D03*
%TO.N,/sensor/sensor_gnd*%
X72900000Y-99400000D03*
X83800000Y-99400000D03*
X77100000Y-107400000D03*
X74800000Y-99600000D03*
%TO.N,/ESP32_SOLO/TXD0*%
X72400000Y-53800000D03*
%TO.N,SDA*%
X72700000Y-93400000D03*
X86200000Y-90700000D03*
%TO.N,CLK*%
X54349500Y-67300000D03*
X53200000Y-65600000D03*
%TO.N,SENSOR_ON*%
X66100000Y-81300000D03*
X47600000Y-61900000D03*
%TO.N,ADC_SNS_IN*%
X83600000Y-65700000D03*
X74600000Y-61300000D03*
%TD*%
D14*
%TO.N,ADC_SNS_IN*%
X57000000Y-63800000D02*
X51500000Y-63800000D01*
%TO.N,Net-(C4-Pad1)*%
X57800000Y-64700000D02*
X57749511Y-64750489D01*
X57749511Y-64750489D02*
X51650489Y-64750489D01*
X51650489Y-64750489D02*
X51700688Y-64800688D01*
%TO.N,/ESP32_SOLO/RXD0*%
X72600000Y-47600000D02*
X72749511Y-47450489D01*
X72749511Y-47450489D02*
X88150489Y-47450489D01*
X88150489Y-47450489D02*
X89800000Y-49100000D01*
X88500000Y-70900000D02*
X86300000Y-70900000D01*
X89800000Y-49100000D02*
X89800000Y-69600000D01*
X89800000Y-69600000D02*
X88500000Y-70900000D01*
X72600000Y-47600000D02*
X70600000Y-45600000D01*
X70600000Y-45600000D02*
X70400000Y-45600000D01*
%TO.N,+5V*%
X46400000Y-81200000D02*
X46400000Y-61898609D01*
X62200000Y-53300000D02*
X64800000Y-50700000D01*
X46400000Y-61898609D02*
X54998609Y-53300000D01*
X54998609Y-53300000D02*
X62200000Y-53300000D01*
X64800000Y-50700000D02*
X86400000Y-50700000D01*
D15*
%TO.N,/ESP32_SOLO/ENABLE*%
X49200000Y-45200000D02*
X49200000Y-46500000D01*
X49200000Y-46500000D02*
X49700000Y-47000000D01*
X49700000Y-47000000D02*
X52500000Y-47000000D01*
X52500000Y-47000000D02*
X57800000Y-41700000D01*
X57800000Y-41700000D02*
X71300000Y-41700000D01*
D14*
%TO.N,+BATT*%
X55200000Y-68400000D02*
X56254000Y-69454000D01*
X56254000Y-69454000D02*
X56254000Y-70900000D01*
X52400000Y-68400000D02*
X55200000Y-68400000D01*
%TO.N,Net-(C4-Pad1)*%
X83600000Y-67300000D02*
X86300000Y-67300000D01*
X79400000Y-63100000D02*
X83600000Y-67300000D01*
X77900000Y-63100000D02*
X79400000Y-63100000D01*
%TO.N,/ESP32_SOLO/TXD0*%
X72400000Y-62400000D02*
X72400000Y-53800000D01*
X84600000Y-74600000D02*
X73100000Y-63100000D01*
X73100000Y-63100000D02*
X72400000Y-62400000D01*
X86300000Y-74600000D02*
X84600000Y-74600000D01*
%TO.N,SDA*%
X86200000Y-90700000D02*
X83500000Y-93400000D01*
X83500000Y-93400000D02*
X72700000Y-93400000D01*
%TO.N,CLK*%
X53200000Y-65600000D02*
X53200000Y-66150500D01*
X53200000Y-66150500D02*
X54349500Y-67300000D01*
%TO.N,SENSOR_ON*%
X63600000Y-81300000D02*
X47800000Y-65500000D01*
X47600000Y-65300000D02*
X47600000Y-61900000D01*
X47800000Y-65500000D02*
X47600000Y-65300000D01*
X66100000Y-81300000D02*
X63600000Y-81300000D01*
%TO.N,ADC_SNS_IN*%
X83600000Y-65700000D02*
X79200000Y-61300000D01*
X79200000Y-61300000D02*
X74600000Y-61300000D01*
%TD*%
%TA.AperFunction,Conductor*%
%TO.N,/sensor/sensor_gnd*%
G36*
X85829288Y-98716956D02*
G01*
X89537131Y-100863602D01*
X89586062Y-100915044D01*
X89600000Y-100972646D01*
X89600000Y-106138851D01*
X89579998Y-106206972D01*
X89563279Y-106227762D01*
X87436936Y-108362911D01*
X87374695Y-108397065D01*
X87347657Y-108400000D01*
X68352190Y-108400000D01*
X68284069Y-108379998D01*
X68263095Y-108363095D01*
X66036905Y-106136905D01*
X66002879Y-106074593D01*
X66000000Y-106047810D01*
X66000000Y-105598134D01*
X67801500Y-105598134D01*
X67808255Y-105660316D01*
X67859385Y-105796705D01*
X67946739Y-105913261D01*
X68063295Y-106000615D01*
X68199684Y-106051745D01*
X68261866Y-106058500D01*
X70058134Y-106058500D01*
X70120316Y-106051745D01*
X70256705Y-106000615D01*
X70373261Y-105913261D01*
X70460615Y-105796705D01*
X70482799Y-105737529D01*
X70504598Y-105679382D01*
X70547240Y-105622618D01*
X70613802Y-105597918D01*
X70683150Y-105613126D01*
X70717817Y-105641114D01*
X70746250Y-105673938D01*
X70918126Y-105816632D01*
X71111000Y-105929338D01*
X71319692Y-106009030D01*
X71324760Y-106010061D01*
X71324763Y-106010062D01*
X71432017Y-106031883D01*
X71538597Y-106053567D01*
X71543772Y-106053757D01*
X71543774Y-106053757D01*
X71756673Y-106061564D01*
X71756677Y-106061564D01*
X71761837Y-106061753D01*
X71766957Y-106061097D01*
X71766959Y-106061097D01*
X71978288Y-106034025D01*
X71978289Y-106034025D01*
X71983416Y-106033368D01*
X71988366Y-106031883D01*
X72192429Y-105970661D01*
X72192434Y-105970659D01*
X72197384Y-105969174D01*
X72397994Y-105870896D01*
X72579860Y-105741173D01*
X72647331Y-105673938D01*
X72728051Y-105593499D01*
X72790423Y-105559583D01*
X72861230Y-105564771D01*
X72917991Y-105607417D01*
X72924424Y-105616916D01*
X72938333Y-105639614D01*
X72944137Y-105647601D01*
X73101350Y-105831675D01*
X73108325Y-105838650D01*
X73292399Y-105995863D01*
X73300381Y-106001663D01*
X73506785Y-106128148D01*
X73515579Y-106132629D01*
X73739223Y-106225265D01*
X73748608Y-106228314D01*
X73983994Y-106284826D01*
X73993738Y-106286369D01*
X74067943Y-106292209D01*
X74083031Y-106289039D01*
X74086000Y-106277576D01*
X74086000Y-106275515D01*
X74394000Y-106275515D01*
X74398344Y-106290310D01*
X74410003Y-106292371D01*
X74486262Y-106286369D01*
X74496006Y-106284826D01*
X74731392Y-106228314D01*
X74740777Y-106225265D01*
X74964421Y-106132629D01*
X74973215Y-106128148D01*
X75179619Y-106001663D01*
X75187601Y-105995863D01*
X75371675Y-105838650D01*
X75378650Y-105831675D01*
X75535861Y-105647604D01*
X75541665Y-105639615D01*
X75557305Y-105614093D01*
X75609952Y-105566461D01*
X75679994Y-105554854D01*
X75745192Y-105582957D01*
X75759975Y-105597429D01*
X75822865Y-105670031D01*
X75822869Y-105670035D01*
X75826250Y-105673938D01*
X75998126Y-105816632D01*
X76191000Y-105929338D01*
X76399692Y-106009030D01*
X76404760Y-106010061D01*
X76404763Y-106010062D01*
X76512017Y-106031883D01*
X76618597Y-106053567D01*
X76623772Y-106053757D01*
X76623774Y-106053757D01*
X76836673Y-106061564D01*
X76836677Y-106061564D01*
X76841837Y-106061753D01*
X76846957Y-106061097D01*
X76846959Y-106061097D01*
X77058288Y-106034025D01*
X77058289Y-106034025D01*
X77063416Y-106033368D01*
X77068366Y-106031883D01*
X77272429Y-105970661D01*
X77272434Y-105970659D01*
X77277384Y-105969174D01*
X77477994Y-105870896D01*
X77659860Y-105741173D01*
X77818096Y-105583489D01*
X77877594Y-105500689D01*
X77945435Y-105406277D01*
X77948453Y-105402077D01*
X77969320Y-105359857D01*
X78045136Y-105206453D01*
X78045137Y-105206451D01*
X78047430Y-105201811D01*
X78112370Y-104988069D01*
X78141529Y-104766590D01*
X78143156Y-104700000D01*
X78140418Y-104666695D01*
X79157251Y-104666695D01*
X79157548Y-104671848D01*
X79157548Y-104671851D01*
X79168309Y-104858475D01*
X79170110Y-104889715D01*
X79171247Y-104894761D01*
X79171248Y-104894767D01*
X79191119Y-104982939D01*
X79219222Y-105107639D01*
X79303266Y-105314616D01*
X79354019Y-105397438D01*
X79417291Y-105500688D01*
X79419987Y-105505088D01*
X79566250Y-105673938D01*
X79738126Y-105816632D01*
X79931000Y-105929338D01*
X80139692Y-106009030D01*
X80144760Y-106010061D01*
X80144763Y-106010062D01*
X80252017Y-106031883D01*
X80358597Y-106053567D01*
X80363772Y-106053757D01*
X80363774Y-106053757D01*
X80576673Y-106061564D01*
X80576677Y-106061564D01*
X80581837Y-106061753D01*
X80586957Y-106061097D01*
X80586959Y-106061097D01*
X80798288Y-106034025D01*
X80798289Y-106034025D01*
X80803416Y-106033368D01*
X80808366Y-106031883D01*
X81012429Y-105970661D01*
X81012434Y-105970659D01*
X81017384Y-105969174D01*
X81217994Y-105870896D01*
X81399860Y-105741173D01*
X81558096Y-105583489D01*
X81617594Y-105500689D01*
X81688453Y-105402077D01*
X81689776Y-105403028D01*
X81736645Y-105359857D01*
X81806580Y-105347625D01*
X81872026Y-105375144D01*
X81899875Y-105406994D01*
X81959987Y-105505088D01*
X82106250Y-105673938D01*
X82278126Y-105816632D01*
X82471000Y-105929338D01*
X82679692Y-106009030D01*
X82684760Y-106010061D01*
X82684763Y-106010062D01*
X82792017Y-106031883D01*
X82898597Y-106053567D01*
X82903772Y-106053757D01*
X82903774Y-106053757D01*
X83116673Y-106061564D01*
X83116677Y-106061564D01*
X83121837Y-106061753D01*
X83126957Y-106061097D01*
X83126959Y-106061097D01*
X83338288Y-106034025D01*
X83338289Y-106034025D01*
X83343416Y-106033368D01*
X83348366Y-106031883D01*
X83552429Y-105970661D01*
X83552434Y-105970659D01*
X83557384Y-105969174D01*
X83757994Y-105870896D01*
X83762199Y-105867896D01*
X83762205Y-105867893D01*
X83851932Y-105803891D01*
X83867678Y-105792660D01*
X83934750Y-105769387D01*
X84003758Y-105786070D01*
X84052792Y-105837414D01*
X84060368Y-105855361D01*
X84063155Y-105863716D01*
X84069321Y-105876878D01*
X84153748Y-106013312D01*
X84162775Y-106024701D01*
X84276322Y-106138050D01*
X84287733Y-106147062D01*
X84424308Y-106231248D01*
X84437486Y-106237392D01*
X84590184Y-106288040D01*
X84603550Y-106290906D01*
X84696919Y-106300472D01*
X84703334Y-106300800D01*
X85427885Y-106300800D01*
X85443124Y-106296325D01*
X85444329Y-106294935D01*
X85446000Y-106287252D01*
X85446000Y-106282684D01*
X85754000Y-106282684D01*
X85758475Y-106297923D01*
X85759865Y-106299128D01*
X85767548Y-106300799D01*
X86496615Y-106300799D01*
X86503135Y-106300461D01*
X86597717Y-106290649D01*
X86611127Y-106287753D01*
X86763714Y-106236845D01*
X86776878Y-106230679D01*
X86913312Y-106146252D01*
X86924701Y-106137225D01*
X87038050Y-106023678D01*
X87047062Y-106012267D01*
X87131248Y-105875692D01*
X87137392Y-105862514D01*
X87188040Y-105709816D01*
X87190906Y-105696450D01*
X87200472Y-105603081D01*
X87200800Y-105596666D01*
X87200800Y-104872115D01*
X87196325Y-104856876D01*
X87194935Y-104855671D01*
X87187252Y-104854000D01*
X85772115Y-104854000D01*
X85756876Y-104858475D01*
X85755671Y-104859865D01*
X85754000Y-104867548D01*
X85754000Y-106282684D01*
X85446000Y-106282684D01*
X85446000Y-104527885D01*
X85754000Y-104527885D01*
X85758475Y-104543124D01*
X85759865Y-104544329D01*
X85767548Y-104546000D01*
X87182684Y-104546000D01*
X87197923Y-104541525D01*
X87199128Y-104540135D01*
X87200799Y-104532452D01*
X87200799Y-103803385D01*
X87200461Y-103796865D01*
X87190649Y-103702283D01*
X87187753Y-103688873D01*
X87136845Y-103536286D01*
X87130679Y-103523122D01*
X87046252Y-103386688D01*
X87037225Y-103375299D01*
X86923678Y-103261950D01*
X86912267Y-103252938D01*
X86775692Y-103168752D01*
X86762514Y-103162608D01*
X86609816Y-103111960D01*
X86596450Y-103109094D01*
X86503081Y-103099528D01*
X86496666Y-103099200D01*
X85772115Y-103099200D01*
X85756876Y-103103675D01*
X85755671Y-103105065D01*
X85754000Y-103112748D01*
X85754000Y-104527885D01*
X85446000Y-104527885D01*
X85446000Y-103117316D01*
X85441525Y-103102077D01*
X85440135Y-103100872D01*
X85432452Y-103099201D01*
X84703385Y-103099201D01*
X84696865Y-103099539D01*
X84602283Y-103109351D01*
X84588873Y-103112247D01*
X84436286Y-103163155D01*
X84423122Y-103169321D01*
X84286688Y-103253748D01*
X84275299Y-103262775D01*
X84161950Y-103376322D01*
X84152938Y-103387733D01*
X84068752Y-103524308D01*
X84062610Y-103537480D01*
X84060552Y-103543686D01*
X84020124Y-103602048D01*
X83954561Y-103629287D01*
X83884679Y-103616757D01*
X83862865Y-103602906D01*
X83818414Y-103567800D01*
X83818410Y-103567798D01*
X83814359Y-103564598D01*
X83808476Y-103561350D01*
X83739225Y-103523122D01*
X83618789Y-103456638D01*
X83613920Y-103454914D01*
X83613916Y-103454912D01*
X83413087Y-103383795D01*
X83413083Y-103383794D01*
X83408212Y-103382069D01*
X83403119Y-103381162D01*
X83403116Y-103381161D01*
X83193373Y-103343800D01*
X83193367Y-103343799D01*
X83188284Y-103342894D01*
X83114452Y-103341992D01*
X82970081Y-103340228D01*
X82970079Y-103340228D01*
X82964911Y-103340165D01*
X82744091Y-103373955D01*
X82531756Y-103443357D01*
X82501443Y-103459137D01*
X82350948Y-103537480D01*
X82333607Y-103546507D01*
X82329474Y-103549610D01*
X82329471Y-103549612D01*
X82223354Y-103629287D01*
X82154965Y-103680635D01*
X82115203Y-103722243D01*
X82043729Y-103797037D01*
X82000629Y-103842138D01*
X81893201Y-103999621D01*
X81838293Y-104044621D01*
X81767768Y-104052792D01*
X81704021Y-104021538D01*
X81683324Y-103997054D01*
X81602822Y-103872617D01*
X81602820Y-103872614D01*
X81600014Y-103868277D01*
X81449670Y-103703051D01*
X81445619Y-103699852D01*
X81445615Y-103699848D01*
X81278414Y-103567800D01*
X81278410Y-103567798D01*
X81274359Y-103564598D01*
X81268476Y-103561350D01*
X81199225Y-103523122D01*
X81078789Y-103456638D01*
X81073920Y-103454914D01*
X81073916Y-103454912D01*
X80873087Y-103383795D01*
X80873083Y-103383794D01*
X80868212Y-103382069D01*
X80863119Y-103381162D01*
X80863116Y-103381161D01*
X80653373Y-103343800D01*
X80653367Y-103343799D01*
X80648284Y-103342894D01*
X80574452Y-103341992D01*
X80430081Y-103340228D01*
X80430079Y-103340228D01*
X80424911Y-103340165D01*
X80204091Y-103373955D01*
X79991756Y-103443357D01*
X79961443Y-103459137D01*
X79810948Y-103537480D01*
X79793607Y-103546507D01*
X79789474Y-103549610D01*
X79789471Y-103549612D01*
X79683354Y-103629287D01*
X79614965Y-103680635D01*
X79575203Y-103722243D01*
X79503729Y-103797037D01*
X79460629Y-103842138D01*
X79334743Y-104026680D01*
X79240688Y-104229305D01*
X79180989Y-104444570D01*
X79157251Y-104666695D01*
X78140418Y-104666695D01*
X78124852Y-104477361D01*
X78070431Y-104260702D01*
X77981354Y-104055840D01*
X77860014Y-103868277D01*
X77709670Y-103703051D01*
X77705619Y-103699852D01*
X77705615Y-103699848D01*
X77538414Y-103567800D01*
X77538410Y-103567798D01*
X77534359Y-103564598D01*
X77528476Y-103561350D01*
X77459225Y-103523122D01*
X77338789Y-103456638D01*
X77333920Y-103454914D01*
X77333916Y-103454912D01*
X77133087Y-103383795D01*
X77133083Y-103383794D01*
X77128212Y-103382069D01*
X77123119Y-103381162D01*
X77123116Y-103381161D01*
X76913373Y-103343800D01*
X76913367Y-103343799D01*
X76908284Y-103342894D01*
X76834452Y-103341992D01*
X76690081Y-103340228D01*
X76690079Y-103340228D01*
X76684911Y-103340165D01*
X76464091Y-103373955D01*
X76251756Y-103443357D01*
X76221443Y-103459137D01*
X76070948Y-103537480D01*
X76053607Y-103546507D01*
X76049474Y-103549610D01*
X76049471Y-103549612D01*
X75943354Y-103629287D01*
X75874965Y-103680635D01*
X75755849Y-103805283D01*
X75755152Y-103806012D01*
X75693628Y-103841442D01*
X75622715Y-103837985D01*
X75564929Y-103796739D01*
X75556626Y-103784797D01*
X75541666Y-103760385D01*
X75535863Y-103752399D01*
X75378650Y-103568325D01*
X75371675Y-103561350D01*
X75187601Y-103404137D01*
X75179619Y-103398337D01*
X74973215Y-103271852D01*
X74964421Y-103267371D01*
X74740777Y-103174735D01*
X74731392Y-103171686D01*
X74496006Y-103115174D01*
X74486262Y-103113631D01*
X74412057Y-103107791D01*
X74396969Y-103110961D01*
X74394000Y-103122424D01*
X74394000Y-106275515D01*
X74086000Y-106275515D01*
X74086000Y-103124485D01*
X74081656Y-103109690D01*
X74069997Y-103107629D01*
X73993738Y-103113631D01*
X73983994Y-103115174D01*
X73748608Y-103171686D01*
X73739223Y-103174735D01*
X73515579Y-103267371D01*
X73506785Y-103271852D01*
X73300381Y-103398337D01*
X73292399Y-103404137D01*
X73108325Y-103561350D01*
X73101350Y-103568325D01*
X72944137Y-103752399D01*
X72938330Y-103760390D01*
X72922795Y-103785741D01*
X72870148Y-103833373D01*
X72800106Y-103844979D01*
X72734909Y-103816876D01*
X72722170Y-103804706D01*
X72633152Y-103706876D01*
X72633142Y-103706867D01*
X72629670Y-103703051D01*
X72625619Y-103699852D01*
X72625615Y-103699848D01*
X72458414Y-103567800D01*
X72458410Y-103567798D01*
X72454359Y-103564598D01*
X72448476Y-103561350D01*
X72379225Y-103523122D01*
X72258789Y-103456638D01*
X72253920Y-103454914D01*
X72253916Y-103454912D01*
X72053087Y-103383795D01*
X72053083Y-103383794D01*
X72048212Y-103382069D01*
X72043119Y-103381162D01*
X72043116Y-103381161D01*
X71833373Y-103343800D01*
X71833367Y-103343799D01*
X71828284Y-103342894D01*
X71754452Y-103341992D01*
X71610081Y-103340228D01*
X71610079Y-103340228D01*
X71604911Y-103340165D01*
X71384091Y-103373955D01*
X71171756Y-103443357D01*
X71141443Y-103459137D01*
X70990948Y-103537480D01*
X70973607Y-103546507D01*
X70969474Y-103549610D01*
X70969471Y-103549612D01*
X70863354Y-103629287D01*
X70794965Y-103680635D01*
X70718750Y-103760390D01*
X70714283Y-103765064D01*
X70652759Y-103800494D01*
X70581846Y-103797037D01*
X70524060Y-103755791D01*
X70505207Y-103722243D01*
X70463767Y-103611703D01*
X70460615Y-103603295D01*
X70373261Y-103486739D01*
X70256705Y-103399385D01*
X70120316Y-103348255D01*
X70058134Y-103341500D01*
X68261866Y-103341500D01*
X68199684Y-103348255D01*
X68063295Y-103399385D01*
X67946739Y-103486739D01*
X67859385Y-103603295D01*
X67808255Y-103739684D01*
X67801500Y-103801866D01*
X67801500Y-105598134D01*
X66000000Y-105598134D01*
X66000000Y-100952190D01*
X66020002Y-100884069D01*
X66036905Y-100863095D01*
X68163095Y-98736905D01*
X68225407Y-98702879D01*
X68252190Y-98700000D01*
X85766157Y-98700000D01*
X85829288Y-98716956D01*
G37*
%TD.AperFunction*%
%TD*%
M02*
