M48
; DRILL file {KiCad 6.0.0-d3dd2cf0fa~116~ubuntu20.04.1} date Tue 22 Feb 2022 07:52:55 AM CET
; FORMAT={-:-/ absolute / metric / decimal}
; #@! TF.CreationDate,2022-02-22T07:52:55+01:00
; #@! TF.GenerationSoftware,Kicad,Pcbnew,6.0.0-d3dd2cf0fa~116~ubuntu20.04.1
; #@! TF.FileFunction,Plated,1,4,PTH
FMAT,2
METRIC
; #@! TA.AperFunction,Plated,PTH,ViaDrill
T1C0.400
; #@! TA.AperFunction,Plated,PTH,ComponentDrill
T2C0.762
; #@! TA.AperFunction,Plated,PTH,ComponentDrill
T3C1.000
%
G90
G05
T1
X44.0Y-40.2
X44.4Y-44.9
X46.4Y-81.2
X46.5Y-45.0
X47.6Y-61.9
X49.2Y-45.2
X51.5Y-63.8
X51.701Y-64.801
X52.4Y-68.4
X53.2Y-65.6
X54.0Y-60.9
X54.349Y-67.3
X55.5Y-67.3
X57.0Y-63.8
X57.4Y-46.7
X57.4Y-48.1
X57.4Y-49.5
X57.8Y-64.7
X58.7Y-46.7
X58.7Y-48.1
X58.7Y-49.5
X60.0Y-46.7
X60.0Y-48.1
X60.0Y-49.5
X65.5Y-88.0
X65.8Y-74.4
X65.8Y-97.3
X66.1Y-81.3
X66.3Y-92.0
X68.1Y-95.7
X68.3Y-84.9
X68.5Y-60.7
X69.9Y-75.4
X70.4Y-45.6
X71.1Y-57.7
X71.3Y-41.7
X71.4Y-40.4
X72.3Y-75.2
X72.4Y-53.8
X72.6Y-47.6
X72.7Y-93.4
X72.9Y-99.4
X73.4Y-57.7
X73.6Y-69.6
X73.8Y-46.3
X74.6Y-61.3
X74.8Y-99.6
X75.1Y-119.2
X75.3Y-46.2
X76.8Y-46.2
X76.8Y-48.3
X76.8Y-60.2
X77.1Y-107.4
X77.9Y-63.1
X79.3Y-91.3
X79.5Y-73.8
X81.3Y-73.7
X81.7Y-119.1
X82.1Y-67.4
X82.3Y-69.2
X83.6Y-65.7
X83.8Y-99.4
X86.2Y-90.7
X86.3Y-92.7
T2
X56.254Y-70.9
X56.254Y-122.9
T3
X57.435Y-61.4
X59.975Y-61.4
X66.8Y-78.9
X69.16Y-104.7
X71.7Y-104.7
X74.24Y-104.7
X76.78Y-104.7
X80.52Y-104.7
X80.7Y-88.0
X83.06Y-104.7
X85.6Y-104.7
X86.2Y-42.2
X86.2Y-44.74
X86.3Y-67.3
X86.3Y-70.9
X86.3Y-74.6
X86.3Y-80.5
X86.3Y-84.1
X86.3Y-87.7
X86.4Y-37.3
X86.4Y-50.7
X86.4Y-53.24
X86.4Y-55.78
X86.4Y-58.32
T0
M30
