%TF.GenerationSoftware,KiCad,Pcbnew,6.0.0-d3dd2cf0fa~116~ubuntu20.04.1*%
%TF.CreationDate,2022-02-22T07:52:51+01:00*%
%TF.ProjectId,ESP32_BAT,45535033-325f-4424-9154-2e6b69636164,rev?*%
%TF.SameCoordinates,Original*%
%TF.FileFunction,Copper,L3,Inr*%
%TF.FilePolarity,Positive*%
%FSLAX46Y46*%
G04 Gerber Fmt 4.6, Leading zero omitted, Abs format (unit mm)*
G04 Created by KiCad (PCBNEW 6.0.0-d3dd2cf0fa~116~ubuntu20.04.1) date 2022-02-22 07:52:51*
%MOMM*%
%LPD*%
G01*
G04 APERTURE LIST*
%TA.AperFunction,ComponentPad*%
%ADD10R,1.700000X1.700000*%
%TD*%
%TA.AperFunction,ComponentPad*%
%ADD11O,1.700000X1.700000*%
%TD*%
%TA.AperFunction,ComponentPad*%
%ADD12C,1.524000*%
%TD*%
%TA.AperFunction,ViaPad*%
%ADD13C,0.800000*%
%TD*%
G04 APERTURE END LIST*
D10*
%TO.N,/ESP32_SOLO/IO0*%
%TO.C,J4*%
X59975000Y-61400000D03*
D11*
%TO.N,GND*%
X57435000Y-61400000D03*
%TD*%
D10*
%TO.N,SENSOR_ON*%
%TO.C,TP1*%
X66800000Y-78900000D03*
%TD*%
%TO.N,/ESP32_SOLO/ENABLE*%
%TO.C,TP4*%
X86400000Y-37300000D03*
%TD*%
%TO.N,SDA*%
%TO.C,TP3*%
X86300000Y-87700000D03*
%TD*%
%TO.N,/ESP32_SOLO/TXD0*%
%TO.C,TP7*%
X86300000Y-74600000D03*
%TD*%
%TO.N,/sensor/sensor_gnd*%
%TO.C,J3*%
X85600000Y-104700000D03*
D11*
%TO.N,Net-(J3-Pad2)*%
X83060000Y-104700000D03*
%TO.N,+3V3*%
X80520000Y-104700000D03*
%TD*%
D10*
%TO.N,ADC_SNS_IN*%
%TO.C,TP12*%
X80700000Y-88000000D03*
%TD*%
D12*
%TO.N,+BATT*%
%TO.C,BT1*%
X56254000Y-70900000D03*
%TO.N,GND*%
X56254000Y-122900000D03*
%TD*%
D10*
%TO.N,+5V*%
%TO.C,J1*%
X86400000Y-50700000D03*
D11*
%TO.N,Net-(J1-Pad2)*%
X86400000Y-53240000D03*
%TO.N,Net-(J1-Pad3)*%
X86400000Y-55780000D03*
%TO.N,GND*%
X86400000Y-58320000D03*
%TD*%
D10*
%TO.N,/ESP32_SOLO/RXD0*%
%TO.C,TP6*%
X86300000Y-70900000D03*
%TD*%
%TO.N,Net-(C4-Pad1)*%
%TO.C,TP5*%
X86300000Y-67300000D03*
%TD*%
%TO.N,GND*%
%TO.C,TP13*%
X86300000Y-80500000D03*
%TD*%
%TO.N,CLK*%
%TO.C,TP2*%
X86300000Y-84100000D03*
%TD*%
%TO.N,/ESP32_SOLO/ENABLE*%
%TO.C,J2*%
X86200000Y-42200000D03*
D11*
%TO.N,GND*%
X86200000Y-44740000D03*
%TD*%
D10*
%TO.N,+3V3*%
%TO.C,U3*%
X69160000Y-104700000D03*
D11*
%TO.N,SDA*%
X71700000Y-104700000D03*
%TO.N,/sensor/sensor_gnd*%
X74240000Y-104700000D03*
%TO.N,CLK*%
X76780000Y-104700000D03*
%TD*%
D13*
%TO.N,+3V3*%
X68500000Y-60700000D03*
%TO.N,GND*%
X71400000Y-40400000D03*
X54000000Y-60900000D03*
%TO.N,/ESP32_SOLO/RXD0*%
X70400000Y-45600000D03*
X72600000Y-47600000D03*
%TO.N,Net-(C4-Pad1)*%
X51700688Y-64800688D03*
%TO.N,ADC_SNS_IN*%
X51500000Y-63800000D03*
%TO.N,Net-(C4-Pad1)*%
X57800000Y-64700000D03*
%TO.N,ADC_SNS_IN*%
X57000000Y-63800000D03*
%TO.N,/ESP32_SOLO/ENABLE*%
X71300000Y-41700000D03*
X49200000Y-45200000D03*
%TO.N,+BATT*%
X52400000Y-68400000D03*
%TO.N,GND*%
X60000000Y-49500000D03*
X65800000Y-97300000D03*
X86300000Y-92700000D03*
X81300000Y-73700000D03*
X73400000Y-57700000D03*
X71100000Y-57700000D03*
X58700000Y-48100000D03*
X76800000Y-60200000D03*
X57400000Y-49500000D03*
X79500000Y-73800000D03*
X55500000Y-67300000D03*
X76800000Y-48300000D03*
X44000000Y-40200000D03*
X73600000Y-69600000D03*
X58700000Y-49500000D03*
X57400000Y-48100000D03*
X72300000Y-75200000D03*
X57400000Y-46700000D03*
X60000000Y-46700000D03*
X68100000Y-95700000D03*
X60000000Y-48100000D03*
X73800000Y-46300000D03*
X65800000Y-74400000D03*
X68300000Y-84900000D03*
X75300000Y-46200000D03*
X58700000Y-46700000D03*
X69900000Y-75400000D03*
%TO.N,+3V3*%
X66300000Y-92000000D03*
X75100000Y-119200000D03*
X79300000Y-91300000D03*
X76800000Y-46200000D03*
X44400000Y-44900000D03*
X65500000Y-88000000D03*
X82300000Y-69200000D03*
X81700000Y-119100000D03*
X46500000Y-45000000D03*
X82100000Y-67400000D03*
%TO.N,Net-(C4-Pad1)*%
X77900000Y-63100000D03*
%TO.N,+5V*%
X46400000Y-81200000D03*
%TO.N,/sensor/sensor_gnd*%
X72900000Y-99400000D03*
X83800000Y-99400000D03*
X77100000Y-107400000D03*
X74800000Y-99600000D03*
%TO.N,/ESP32_SOLO/TXD0*%
X72400000Y-53800000D03*
%TO.N,SDA*%
X72700000Y-93400000D03*
X86200000Y-90700000D03*
%TO.N,CLK*%
X54349500Y-67300000D03*
X53200000Y-65600000D03*
%TO.N,SENSOR_ON*%
X66100000Y-81300000D03*
X47600000Y-61900000D03*
%TO.N,ADC_SNS_IN*%
X83600000Y-65700000D03*
X74600000Y-61300000D03*
%TD*%
%TA.AperFunction,Conductor*%
%TO.N,+3V3*%
G36*
X92434121Y-38920002D02*
G01*
X92480614Y-38973658D01*
X92492000Y-39026000D01*
X92492000Y-126366000D01*
X92471998Y-126434121D01*
X92418342Y-126480614D01*
X92366000Y-126492000D01*
X43634000Y-126492000D01*
X43565879Y-126471998D01*
X43519386Y-126418342D01*
X43508000Y-126366000D01*
X43508000Y-122900000D01*
X54978647Y-122900000D01*
X54998022Y-123121463D01*
X55055560Y-123336196D01*
X55057882Y-123341177D01*
X55057883Y-123341178D01*
X55147186Y-123532689D01*
X55147189Y-123532694D01*
X55149512Y-123537676D01*
X55277023Y-123719781D01*
X55434219Y-123876977D01*
X55438727Y-123880134D01*
X55438730Y-123880136D01*
X55514495Y-123933187D01*
X55616323Y-124004488D01*
X55621305Y-124006811D01*
X55621310Y-124006814D01*
X55812822Y-124096117D01*
X55817804Y-124098440D01*
X55823112Y-124099862D01*
X55823114Y-124099863D01*
X55888949Y-124117503D01*
X56032537Y-124155978D01*
X56254000Y-124175353D01*
X56475463Y-124155978D01*
X56619051Y-124117503D01*
X56684886Y-124099863D01*
X56684888Y-124099862D01*
X56690196Y-124098440D01*
X56695178Y-124096117D01*
X56886690Y-124006814D01*
X56886695Y-124006811D01*
X56891677Y-124004488D01*
X56993505Y-123933187D01*
X57069270Y-123880136D01*
X57069273Y-123880134D01*
X57073781Y-123876977D01*
X57230977Y-123719781D01*
X57358488Y-123537676D01*
X57360811Y-123532694D01*
X57360814Y-123532689D01*
X57450117Y-123341178D01*
X57450118Y-123341177D01*
X57452440Y-123336196D01*
X57509978Y-123121463D01*
X57529353Y-122900000D01*
X57509978Y-122678537D01*
X57452440Y-122463804D01*
X57450117Y-122458822D01*
X57360814Y-122267311D01*
X57360811Y-122267306D01*
X57358488Y-122262324D01*
X57230977Y-122080219D01*
X57073781Y-121923023D01*
X57069273Y-121919866D01*
X57069270Y-121919864D01*
X56993505Y-121866813D01*
X56891677Y-121795512D01*
X56886695Y-121793189D01*
X56886690Y-121793186D01*
X56695178Y-121703883D01*
X56695177Y-121703882D01*
X56690196Y-121701560D01*
X56684888Y-121700138D01*
X56684886Y-121700137D01*
X56619051Y-121682497D01*
X56475463Y-121644022D01*
X56254000Y-121624647D01*
X56032537Y-121644022D01*
X55888949Y-121682497D01*
X55823114Y-121700137D01*
X55823112Y-121700138D01*
X55817804Y-121701560D01*
X55812823Y-121703882D01*
X55812822Y-121703883D01*
X55621311Y-121793186D01*
X55621306Y-121793189D01*
X55616324Y-121795512D01*
X55611817Y-121798668D01*
X55611815Y-121798669D01*
X55438730Y-121919864D01*
X55438727Y-121919866D01*
X55434219Y-121923023D01*
X55277023Y-122080219D01*
X55149512Y-122262324D01*
X55147189Y-122267306D01*
X55147186Y-122267311D01*
X55057883Y-122458822D01*
X55055560Y-122463804D01*
X54998022Y-122678537D01*
X54978647Y-122900000D01*
X43508000Y-122900000D01*
X43508000Y-119600000D01*
X66986526Y-119600000D01*
X67006391Y-119852403D01*
X67065495Y-120098591D01*
X67162384Y-120332502D01*
X67294672Y-120548376D01*
X67459102Y-120740898D01*
X67651624Y-120905328D01*
X67867498Y-121037616D01*
X67872068Y-121039509D01*
X67872072Y-121039511D01*
X68096836Y-121132611D01*
X68101409Y-121134505D01*
X68186032Y-121154821D01*
X68342784Y-121192454D01*
X68342790Y-121192455D01*
X68347597Y-121193609D01*
X68447416Y-121201465D01*
X68534345Y-121208307D01*
X68534352Y-121208307D01*
X68536801Y-121208500D01*
X68663199Y-121208500D01*
X68665648Y-121208307D01*
X68665655Y-121208307D01*
X68752584Y-121201465D01*
X68852403Y-121193609D01*
X68857210Y-121192455D01*
X68857216Y-121192454D01*
X69013968Y-121154821D01*
X69098591Y-121134505D01*
X69103164Y-121132611D01*
X69327928Y-121039511D01*
X69327932Y-121039509D01*
X69332502Y-121037616D01*
X69548376Y-120905328D01*
X69740898Y-120740898D01*
X69905328Y-120548376D01*
X70037616Y-120332502D01*
X70134505Y-120098591D01*
X70193609Y-119852403D01*
X70213474Y-119600000D01*
X84986526Y-119600000D01*
X85006391Y-119852403D01*
X85065495Y-120098591D01*
X85162384Y-120332502D01*
X85294672Y-120548376D01*
X85459102Y-120740898D01*
X85651624Y-120905328D01*
X85867498Y-121037616D01*
X85872068Y-121039509D01*
X85872072Y-121039511D01*
X86096836Y-121132611D01*
X86101409Y-121134505D01*
X86186032Y-121154821D01*
X86342784Y-121192454D01*
X86342790Y-121192455D01*
X86347597Y-121193609D01*
X86447416Y-121201465D01*
X86534345Y-121208307D01*
X86534352Y-121208307D01*
X86536801Y-121208500D01*
X86663199Y-121208500D01*
X86665648Y-121208307D01*
X86665655Y-121208307D01*
X86752584Y-121201465D01*
X86852403Y-121193609D01*
X86857210Y-121192455D01*
X86857216Y-121192454D01*
X87013968Y-121154821D01*
X87098591Y-121134505D01*
X87103164Y-121132611D01*
X87327928Y-121039511D01*
X87327932Y-121039509D01*
X87332502Y-121037616D01*
X87548376Y-120905328D01*
X87740898Y-120740898D01*
X87905328Y-120548376D01*
X88037616Y-120332502D01*
X88134505Y-120098591D01*
X88193609Y-119852403D01*
X88213474Y-119600000D01*
X88193609Y-119347597D01*
X88134505Y-119101409D01*
X88037616Y-118867498D01*
X87905328Y-118651624D01*
X87740898Y-118459102D01*
X87548376Y-118294672D01*
X87332502Y-118162384D01*
X87327932Y-118160491D01*
X87327928Y-118160489D01*
X87103164Y-118067389D01*
X87103162Y-118067388D01*
X87098591Y-118065495D01*
X87013968Y-118045179D01*
X86857216Y-118007546D01*
X86857210Y-118007545D01*
X86852403Y-118006391D01*
X86752584Y-117998535D01*
X86665655Y-117991693D01*
X86665648Y-117991693D01*
X86663199Y-117991500D01*
X86536801Y-117991500D01*
X86534352Y-117991693D01*
X86534345Y-117991693D01*
X86447416Y-117998535D01*
X86347597Y-118006391D01*
X86342790Y-118007545D01*
X86342784Y-118007546D01*
X86186032Y-118045179D01*
X86101409Y-118065495D01*
X86096838Y-118067388D01*
X86096836Y-118067389D01*
X85872072Y-118160489D01*
X85872068Y-118160491D01*
X85867498Y-118162384D01*
X85651624Y-118294672D01*
X85459102Y-118459102D01*
X85294672Y-118651624D01*
X85162384Y-118867498D01*
X85065495Y-119101409D01*
X85006391Y-119347597D01*
X84986526Y-119600000D01*
X70213474Y-119600000D01*
X70193609Y-119347597D01*
X70134505Y-119101409D01*
X70037616Y-118867498D01*
X69905328Y-118651624D01*
X69740898Y-118459102D01*
X69548376Y-118294672D01*
X69332502Y-118162384D01*
X69327932Y-118160491D01*
X69327928Y-118160489D01*
X69103164Y-118067389D01*
X69103162Y-118067388D01*
X69098591Y-118065495D01*
X69013968Y-118045179D01*
X68857216Y-118007546D01*
X68857210Y-118007545D01*
X68852403Y-118006391D01*
X68752584Y-117998535D01*
X68665655Y-117991693D01*
X68665648Y-117991693D01*
X68663199Y-117991500D01*
X68536801Y-117991500D01*
X68534352Y-117991693D01*
X68534345Y-117991693D01*
X68447416Y-117998535D01*
X68347597Y-118006391D01*
X68342790Y-118007545D01*
X68342784Y-118007546D01*
X68186032Y-118045179D01*
X68101409Y-118065495D01*
X68096838Y-118067388D01*
X68096836Y-118067389D01*
X67872072Y-118160489D01*
X67872068Y-118160491D01*
X67867498Y-118162384D01*
X67651624Y-118294672D01*
X67459102Y-118459102D01*
X67294672Y-118651624D01*
X67162384Y-118867498D01*
X67065495Y-119101409D01*
X67006391Y-119347597D01*
X66986526Y-119600000D01*
X43508000Y-119600000D01*
X43508000Y-107400000D01*
X76186496Y-107400000D01*
X76206458Y-107589928D01*
X76265473Y-107771556D01*
X76360960Y-107936944D01*
X76488747Y-108078866D01*
X76643248Y-108191118D01*
X76649276Y-108193802D01*
X76649278Y-108193803D01*
X76811681Y-108266109D01*
X76817712Y-108268794D01*
X76911112Y-108288647D01*
X76998056Y-108307128D01*
X76998061Y-108307128D01*
X77004513Y-108308500D01*
X77195487Y-108308500D01*
X77201939Y-108307128D01*
X77201944Y-108307128D01*
X77288888Y-108288647D01*
X77382288Y-108268794D01*
X77388319Y-108266109D01*
X77550722Y-108193803D01*
X77550724Y-108193802D01*
X77556752Y-108191118D01*
X77711253Y-108078866D01*
X77839040Y-107936944D01*
X77934527Y-107771556D01*
X77993542Y-107589928D01*
X78013504Y-107400000D01*
X77993542Y-107210072D01*
X77934527Y-107028444D01*
X77839040Y-106863056D01*
X77711253Y-106721134D01*
X77556752Y-106608882D01*
X77550724Y-106606198D01*
X77550722Y-106606197D01*
X77388319Y-106533891D01*
X77388318Y-106533891D01*
X77382288Y-106531206D01*
X77288887Y-106511353D01*
X77201944Y-106492872D01*
X77201939Y-106492872D01*
X77195487Y-106491500D01*
X77004513Y-106491500D01*
X76998061Y-106492872D01*
X76998056Y-106492872D01*
X76911113Y-106511353D01*
X76817712Y-106531206D01*
X76811682Y-106533891D01*
X76811681Y-106533891D01*
X76649278Y-106606197D01*
X76649276Y-106606198D01*
X76643248Y-106608882D01*
X76488747Y-106721134D01*
X76360960Y-106863056D01*
X76265473Y-107028444D01*
X76206458Y-107210072D01*
X76186496Y-107400000D01*
X43508000Y-107400000D01*
X43508000Y-105596615D01*
X67559201Y-105596615D01*
X67559539Y-105603135D01*
X67569351Y-105697717D01*
X67572247Y-105711127D01*
X67623155Y-105863714D01*
X67629321Y-105876878D01*
X67713748Y-106013312D01*
X67722775Y-106024701D01*
X67836322Y-106138050D01*
X67847733Y-106147062D01*
X67984308Y-106231248D01*
X67997486Y-106237392D01*
X68150184Y-106288040D01*
X68163550Y-106290906D01*
X68256919Y-106300472D01*
X68263334Y-106300800D01*
X68987885Y-106300800D01*
X69003124Y-106296325D01*
X69004329Y-106294935D01*
X69006000Y-106287252D01*
X69006000Y-106282684D01*
X69314000Y-106282684D01*
X69318475Y-106297923D01*
X69319865Y-106299128D01*
X69327548Y-106300799D01*
X70056615Y-106300799D01*
X70063135Y-106300461D01*
X70157717Y-106290649D01*
X70171127Y-106287753D01*
X70323714Y-106236845D01*
X70336878Y-106230679D01*
X70473312Y-106146252D01*
X70484701Y-106137225D01*
X70598050Y-106023678D01*
X70607062Y-106012267D01*
X70691248Y-105875692D01*
X70697394Y-105862511D01*
X70698890Y-105858001D01*
X70739321Y-105799642D01*
X70804886Y-105772406D01*
X70874767Y-105784940D01*
X70898966Y-105800725D01*
X70918126Y-105816632D01*
X71111000Y-105929338D01*
X71319692Y-106009030D01*
X71324760Y-106010061D01*
X71324763Y-106010062D01*
X71432017Y-106031883D01*
X71538597Y-106053567D01*
X71543772Y-106053757D01*
X71543774Y-106053757D01*
X71756673Y-106061564D01*
X71756677Y-106061564D01*
X71761837Y-106061753D01*
X71766957Y-106061097D01*
X71766959Y-106061097D01*
X71978288Y-106034025D01*
X71978289Y-106034025D01*
X71983416Y-106033368D01*
X71988366Y-106031883D01*
X72192429Y-105970661D01*
X72192434Y-105970659D01*
X72197384Y-105969174D01*
X72397994Y-105870896D01*
X72579860Y-105741173D01*
X72738096Y-105583489D01*
X72868453Y-105402077D01*
X72869776Y-105403028D01*
X72916645Y-105359857D01*
X72986580Y-105347625D01*
X73052026Y-105375144D01*
X73079875Y-105406994D01*
X73139987Y-105505088D01*
X73286250Y-105673938D01*
X73458126Y-105816632D01*
X73651000Y-105929338D01*
X73859692Y-106009030D01*
X73864760Y-106010061D01*
X73864763Y-106010062D01*
X73972017Y-106031883D01*
X74078597Y-106053567D01*
X74083772Y-106053757D01*
X74083774Y-106053757D01*
X74296673Y-106061564D01*
X74296677Y-106061564D01*
X74301837Y-106061753D01*
X74306957Y-106061097D01*
X74306959Y-106061097D01*
X74518288Y-106034025D01*
X74518289Y-106034025D01*
X74523416Y-106033368D01*
X74528366Y-106031883D01*
X74732429Y-105970661D01*
X74732434Y-105970659D01*
X74737384Y-105969174D01*
X74937994Y-105870896D01*
X75119860Y-105741173D01*
X75278096Y-105583489D01*
X75408453Y-105402077D01*
X75409776Y-105403028D01*
X75456645Y-105359857D01*
X75526580Y-105347625D01*
X75592026Y-105375144D01*
X75619875Y-105406994D01*
X75679987Y-105505088D01*
X75826250Y-105673938D01*
X75998126Y-105816632D01*
X76191000Y-105929338D01*
X76399692Y-106009030D01*
X76404760Y-106010061D01*
X76404763Y-106010062D01*
X76512017Y-106031883D01*
X76618597Y-106053567D01*
X76623772Y-106053757D01*
X76623774Y-106053757D01*
X76836673Y-106061564D01*
X76836677Y-106061564D01*
X76841837Y-106061753D01*
X76846957Y-106061097D01*
X76846959Y-106061097D01*
X77058288Y-106034025D01*
X77058289Y-106034025D01*
X77063416Y-106033368D01*
X77068366Y-106031883D01*
X77272429Y-105970661D01*
X77272434Y-105970659D01*
X77277384Y-105969174D01*
X77477994Y-105870896D01*
X77659860Y-105741173D01*
X77818096Y-105583489D01*
X77948453Y-105402077D01*
X77969320Y-105359857D01*
X78045136Y-105206453D01*
X78045137Y-105206451D01*
X78047430Y-105201811D01*
X78112370Y-104988069D01*
X78127914Y-104870003D01*
X78927629Y-104870003D01*
X78933631Y-104946262D01*
X78935174Y-104956006D01*
X78991686Y-105191392D01*
X78994735Y-105200777D01*
X79087371Y-105424421D01*
X79091852Y-105433215D01*
X79218337Y-105639619D01*
X79224137Y-105647601D01*
X79381350Y-105831675D01*
X79388325Y-105838650D01*
X79572399Y-105995863D01*
X79580381Y-106001663D01*
X79786785Y-106128148D01*
X79795579Y-106132629D01*
X80019223Y-106225265D01*
X80028608Y-106228314D01*
X80263994Y-106284826D01*
X80273738Y-106286369D01*
X80347943Y-106292209D01*
X80363031Y-106289039D01*
X80366000Y-106277576D01*
X80366000Y-106275515D01*
X80674000Y-106275515D01*
X80678344Y-106290310D01*
X80690003Y-106292371D01*
X80766262Y-106286369D01*
X80776006Y-106284826D01*
X81011392Y-106228314D01*
X81020777Y-106225265D01*
X81244421Y-106132629D01*
X81253215Y-106128148D01*
X81459619Y-106001663D01*
X81467601Y-105995863D01*
X81651675Y-105838650D01*
X81658650Y-105831675D01*
X81815861Y-105647604D01*
X81821665Y-105639615D01*
X81837305Y-105614093D01*
X81889952Y-105566461D01*
X81959994Y-105554854D01*
X82025192Y-105582957D01*
X82039975Y-105597429D01*
X82102865Y-105670031D01*
X82102869Y-105670035D01*
X82106250Y-105673938D01*
X82278126Y-105816632D01*
X82471000Y-105929338D01*
X82679692Y-106009030D01*
X82684760Y-106010061D01*
X82684763Y-106010062D01*
X82792017Y-106031883D01*
X82898597Y-106053567D01*
X82903772Y-106053757D01*
X82903774Y-106053757D01*
X83116673Y-106061564D01*
X83116677Y-106061564D01*
X83121837Y-106061753D01*
X83126957Y-106061097D01*
X83126959Y-106061097D01*
X83338288Y-106034025D01*
X83338289Y-106034025D01*
X83343416Y-106033368D01*
X83348366Y-106031883D01*
X83552429Y-105970661D01*
X83552434Y-105970659D01*
X83557384Y-105969174D01*
X83757994Y-105870896D01*
X83939860Y-105741173D01*
X84048091Y-105633319D01*
X84110462Y-105599404D01*
X84181268Y-105604592D01*
X84238030Y-105647238D01*
X84255012Y-105678341D01*
X84299385Y-105796705D01*
X84386739Y-105913261D01*
X84503295Y-106000615D01*
X84639684Y-106051745D01*
X84701866Y-106058500D01*
X86498134Y-106058500D01*
X86560316Y-106051745D01*
X86696705Y-106000615D01*
X86813261Y-105913261D01*
X86900615Y-105796705D01*
X86951745Y-105660316D01*
X86958500Y-105598134D01*
X86958500Y-103801866D01*
X86951745Y-103739684D01*
X86900615Y-103603295D01*
X86813261Y-103486739D01*
X86696705Y-103399385D01*
X86560316Y-103348255D01*
X86498134Y-103341500D01*
X84701866Y-103341500D01*
X84639684Y-103348255D01*
X84503295Y-103399385D01*
X84386739Y-103486739D01*
X84299385Y-103603295D01*
X84296233Y-103611703D01*
X84254919Y-103721907D01*
X84212277Y-103778671D01*
X84145716Y-103803371D01*
X84076367Y-103788163D01*
X84043743Y-103762476D01*
X83993151Y-103706875D01*
X83993142Y-103706866D01*
X83989670Y-103703051D01*
X83985619Y-103699852D01*
X83985615Y-103699848D01*
X83818414Y-103567800D01*
X83818410Y-103567798D01*
X83814359Y-103564598D01*
X83808476Y-103561350D01*
X83739225Y-103523122D01*
X83618789Y-103456638D01*
X83613920Y-103454914D01*
X83613916Y-103454912D01*
X83413087Y-103383795D01*
X83413083Y-103383794D01*
X83408212Y-103382069D01*
X83403119Y-103381162D01*
X83403116Y-103381161D01*
X83193373Y-103343800D01*
X83193367Y-103343799D01*
X83188284Y-103342894D01*
X83114452Y-103341992D01*
X82970081Y-103340228D01*
X82970079Y-103340228D01*
X82964911Y-103340165D01*
X82744091Y-103373955D01*
X82531756Y-103443357D01*
X82333607Y-103546507D01*
X82329474Y-103549610D01*
X82329471Y-103549612D01*
X82221676Y-103630547D01*
X82154965Y-103680635D01*
X82035849Y-103805283D01*
X82035152Y-103806012D01*
X81973628Y-103841442D01*
X81902715Y-103837985D01*
X81844929Y-103796739D01*
X81836626Y-103784797D01*
X81821666Y-103760385D01*
X81815863Y-103752399D01*
X81658650Y-103568325D01*
X81651675Y-103561350D01*
X81467601Y-103404137D01*
X81459619Y-103398337D01*
X81253215Y-103271852D01*
X81244421Y-103267371D01*
X81020777Y-103174735D01*
X81011392Y-103171686D01*
X80776006Y-103115174D01*
X80766262Y-103113631D01*
X80692057Y-103107791D01*
X80676969Y-103110961D01*
X80674000Y-103122424D01*
X80674000Y-106275515D01*
X80366000Y-106275515D01*
X80366000Y-104872115D01*
X80361525Y-104856876D01*
X80360135Y-104855671D01*
X80352452Y-104854000D01*
X78944485Y-104854000D01*
X78929690Y-104858344D01*
X78927629Y-104870003D01*
X78127914Y-104870003D01*
X78141529Y-104766590D01*
X78143156Y-104700000D01*
X78129011Y-104527943D01*
X78927791Y-104527943D01*
X78930961Y-104543031D01*
X78942424Y-104546000D01*
X80347885Y-104546000D01*
X80363124Y-104541525D01*
X80364329Y-104540135D01*
X80366000Y-104532452D01*
X80366000Y-103124485D01*
X80361656Y-103109690D01*
X80349997Y-103107629D01*
X80273738Y-103113631D01*
X80263994Y-103115174D01*
X80028608Y-103171686D01*
X80019223Y-103174735D01*
X79795579Y-103267371D01*
X79786785Y-103271852D01*
X79580381Y-103398337D01*
X79572399Y-103404137D01*
X79388325Y-103561350D01*
X79381350Y-103568325D01*
X79224137Y-103752399D01*
X79218337Y-103760381D01*
X79091852Y-103966785D01*
X79087371Y-103975579D01*
X78994735Y-104199223D01*
X78991686Y-104208608D01*
X78935174Y-104443994D01*
X78933631Y-104453738D01*
X78927791Y-104527943D01*
X78129011Y-104527943D01*
X78124852Y-104477361D01*
X78070431Y-104260702D01*
X77981354Y-104055840D01*
X77860014Y-103868277D01*
X77709670Y-103703051D01*
X77705619Y-103699852D01*
X77705615Y-103699848D01*
X77538414Y-103567800D01*
X77538410Y-103567798D01*
X77534359Y-103564598D01*
X77528476Y-103561350D01*
X77459225Y-103523122D01*
X77338789Y-103456638D01*
X77333920Y-103454914D01*
X77333916Y-103454912D01*
X77133087Y-103383795D01*
X77133083Y-103383794D01*
X77128212Y-103382069D01*
X77123119Y-103381162D01*
X77123116Y-103381161D01*
X76913373Y-103343800D01*
X76913367Y-103343799D01*
X76908284Y-103342894D01*
X76834452Y-103341992D01*
X76690081Y-103340228D01*
X76690079Y-103340228D01*
X76684911Y-103340165D01*
X76464091Y-103373955D01*
X76251756Y-103443357D01*
X76053607Y-103546507D01*
X76049474Y-103549610D01*
X76049471Y-103549612D01*
X75941676Y-103630547D01*
X75874965Y-103680635D01*
X75835525Y-103721907D01*
X75781280Y-103778671D01*
X75720629Y-103842138D01*
X75613201Y-103999621D01*
X75558293Y-104044621D01*
X75487768Y-104052792D01*
X75424021Y-104021538D01*
X75403324Y-103997054D01*
X75322822Y-103872617D01*
X75322820Y-103872614D01*
X75320014Y-103868277D01*
X75169670Y-103703051D01*
X75165619Y-103699852D01*
X75165615Y-103699848D01*
X74998414Y-103567800D01*
X74998410Y-103567798D01*
X74994359Y-103564598D01*
X74988476Y-103561350D01*
X74919225Y-103523122D01*
X74798789Y-103456638D01*
X74793920Y-103454914D01*
X74793916Y-103454912D01*
X74593087Y-103383795D01*
X74593083Y-103383794D01*
X74588212Y-103382069D01*
X74583119Y-103381162D01*
X74583116Y-103381161D01*
X74373373Y-103343800D01*
X74373367Y-103343799D01*
X74368284Y-103342894D01*
X74294452Y-103341992D01*
X74150081Y-103340228D01*
X74150079Y-103340228D01*
X74144911Y-103340165D01*
X73924091Y-103373955D01*
X73711756Y-103443357D01*
X73513607Y-103546507D01*
X73509474Y-103549610D01*
X73509471Y-103549612D01*
X73401676Y-103630547D01*
X73334965Y-103680635D01*
X73295525Y-103721907D01*
X73241280Y-103778671D01*
X73180629Y-103842138D01*
X73073201Y-103999621D01*
X73018293Y-104044621D01*
X72947768Y-104052792D01*
X72884021Y-104021538D01*
X72863324Y-103997054D01*
X72782822Y-103872617D01*
X72782820Y-103872614D01*
X72780014Y-103868277D01*
X72629670Y-103703051D01*
X72625619Y-103699852D01*
X72625615Y-103699848D01*
X72458414Y-103567800D01*
X72458410Y-103567798D01*
X72454359Y-103564598D01*
X72448476Y-103561350D01*
X72379225Y-103523122D01*
X72258789Y-103456638D01*
X72253920Y-103454914D01*
X72253916Y-103454912D01*
X72053087Y-103383795D01*
X72053083Y-103383794D01*
X72048212Y-103382069D01*
X72043119Y-103381162D01*
X72043116Y-103381161D01*
X71833373Y-103343800D01*
X71833367Y-103343799D01*
X71828284Y-103342894D01*
X71754452Y-103341992D01*
X71610081Y-103340228D01*
X71610079Y-103340228D01*
X71604911Y-103340165D01*
X71384091Y-103373955D01*
X71171756Y-103443357D01*
X70973607Y-103546507D01*
X70969474Y-103549610D01*
X70969471Y-103549612D01*
X70949512Y-103564598D01*
X70897973Y-103603295D01*
X70894848Y-103605641D01*
X70828363Y-103630547D01*
X70758968Y-103615555D01*
X70708694Y-103565424D01*
X70699672Y-103544758D01*
X70696846Y-103536287D01*
X70690679Y-103523122D01*
X70606252Y-103386688D01*
X70597225Y-103375299D01*
X70483678Y-103261950D01*
X70472267Y-103252938D01*
X70335692Y-103168752D01*
X70322514Y-103162608D01*
X70169816Y-103111960D01*
X70156450Y-103109094D01*
X70063081Y-103099528D01*
X70056666Y-103099200D01*
X69332115Y-103099200D01*
X69316876Y-103103675D01*
X69315671Y-103105065D01*
X69314000Y-103112748D01*
X69314000Y-106282684D01*
X69006000Y-106282684D01*
X69006000Y-104872115D01*
X69001525Y-104856876D01*
X69000135Y-104855671D01*
X68992452Y-104854000D01*
X67577316Y-104854000D01*
X67562077Y-104858475D01*
X67560872Y-104859865D01*
X67559201Y-104867548D01*
X67559201Y-105596615D01*
X43508000Y-105596615D01*
X43508000Y-104527885D01*
X67559200Y-104527885D01*
X67563675Y-104543124D01*
X67565065Y-104544329D01*
X67572748Y-104546000D01*
X68987885Y-104546000D01*
X69003124Y-104541525D01*
X69004329Y-104540135D01*
X69006000Y-104532452D01*
X69006000Y-103117316D01*
X69001525Y-103102077D01*
X69000135Y-103100872D01*
X68992452Y-103099201D01*
X68263385Y-103099201D01*
X68256865Y-103099539D01*
X68162283Y-103109351D01*
X68148873Y-103112247D01*
X67996286Y-103163155D01*
X67983122Y-103169321D01*
X67846688Y-103253748D01*
X67835299Y-103262775D01*
X67721950Y-103376322D01*
X67712938Y-103387733D01*
X67628752Y-103524308D01*
X67622608Y-103537486D01*
X67571960Y-103690184D01*
X67569094Y-103703550D01*
X67559528Y-103796919D01*
X67559200Y-103803334D01*
X67559200Y-104527885D01*
X43508000Y-104527885D01*
X43508000Y-99400000D01*
X71986496Y-99400000D01*
X72006458Y-99589928D01*
X72065473Y-99771556D01*
X72160960Y-99936944D01*
X72288747Y-100078866D01*
X72443248Y-100191118D01*
X72449276Y-100193802D01*
X72449278Y-100193803D01*
X72611681Y-100266109D01*
X72617712Y-100268794D01*
X72683365Y-100282749D01*
X72798056Y-100307128D01*
X72798061Y-100307128D01*
X72804513Y-100308500D01*
X72995487Y-100308500D01*
X73001939Y-100307128D01*
X73001944Y-100307128D01*
X73116635Y-100282749D01*
X73182288Y-100268794D01*
X73188319Y-100266109D01*
X73350722Y-100193803D01*
X73350724Y-100193802D01*
X73356752Y-100191118D01*
X73511253Y-100078866D01*
X73639040Y-99936944D01*
X73642339Y-99931231D01*
X73642342Y-99931226D01*
X73699224Y-99832703D01*
X73750607Y-99783710D01*
X73820320Y-99770274D01*
X73886231Y-99796661D01*
X73928175Y-99856766D01*
X73965473Y-99971556D01*
X74060960Y-100136944D01*
X74065378Y-100141851D01*
X74065379Y-100141852D01*
X74179678Y-100268794D01*
X74188747Y-100278866D01*
X74343248Y-100391118D01*
X74349276Y-100393802D01*
X74349278Y-100393803D01*
X74511681Y-100466109D01*
X74517712Y-100468794D01*
X74611113Y-100488647D01*
X74698056Y-100507128D01*
X74698061Y-100507128D01*
X74704513Y-100508500D01*
X74895487Y-100508500D01*
X74901939Y-100507128D01*
X74901944Y-100507128D01*
X74988888Y-100488647D01*
X75082288Y-100468794D01*
X75088319Y-100466109D01*
X75250722Y-100393803D01*
X75250724Y-100393802D01*
X75256752Y-100391118D01*
X75411253Y-100278866D01*
X75420322Y-100268794D01*
X75534621Y-100141852D01*
X75534622Y-100141851D01*
X75539040Y-100136944D01*
X75634527Y-99971556D01*
X75693542Y-99789928D01*
X75694872Y-99777279D01*
X75712814Y-99606565D01*
X75713504Y-99600000D01*
X75693542Y-99410072D01*
X75690269Y-99400000D01*
X82886496Y-99400000D01*
X82906458Y-99589928D01*
X82965473Y-99771556D01*
X83060960Y-99936944D01*
X83188747Y-100078866D01*
X83343248Y-100191118D01*
X83349276Y-100193802D01*
X83349278Y-100193803D01*
X83511681Y-100266109D01*
X83517712Y-100268794D01*
X83583365Y-100282749D01*
X83698056Y-100307128D01*
X83698061Y-100307128D01*
X83704513Y-100308500D01*
X83895487Y-100308500D01*
X83901939Y-100307128D01*
X83901944Y-100307128D01*
X84016635Y-100282749D01*
X84082288Y-100268794D01*
X84088319Y-100266109D01*
X84250722Y-100193803D01*
X84250724Y-100193802D01*
X84256752Y-100191118D01*
X84411253Y-100078866D01*
X84539040Y-99936944D01*
X84634527Y-99771556D01*
X84693542Y-99589928D01*
X84713504Y-99400000D01*
X84695473Y-99228444D01*
X84694232Y-99216635D01*
X84694232Y-99216633D01*
X84693542Y-99210072D01*
X84634527Y-99028444D01*
X84539040Y-98863056D01*
X84422740Y-98733891D01*
X84415675Y-98726045D01*
X84415674Y-98726044D01*
X84411253Y-98721134D01*
X84256752Y-98608882D01*
X84250724Y-98606198D01*
X84250722Y-98606197D01*
X84088319Y-98533891D01*
X84088318Y-98533891D01*
X84082288Y-98531206D01*
X83988887Y-98511353D01*
X83901944Y-98492872D01*
X83901939Y-98492872D01*
X83895487Y-98491500D01*
X83704513Y-98491500D01*
X83698061Y-98492872D01*
X83698056Y-98492872D01*
X83611113Y-98511353D01*
X83517712Y-98531206D01*
X83511682Y-98533891D01*
X83511681Y-98533891D01*
X83349278Y-98606197D01*
X83349276Y-98606198D01*
X83343248Y-98608882D01*
X83188747Y-98721134D01*
X83184326Y-98726044D01*
X83184325Y-98726045D01*
X83177261Y-98733891D01*
X83060960Y-98863056D01*
X82965473Y-99028444D01*
X82906458Y-99210072D01*
X82905768Y-99216633D01*
X82905768Y-99216635D01*
X82904527Y-99228444D01*
X82886496Y-99400000D01*
X75690269Y-99400000D01*
X75634527Y-99228444D01*
X75539040Y-99063056D01*
X75411253Y-98921134D01*
X75256752Y-98808882D01*
X75250724Y-98806198D01*
X75250722Y-98806197D01*
X75088319Y-98733891D01*
X75088318Y-98733891D01*
X75082288Y-98731206D01*
X74988888Y-98711353D01*
X74901944Y-98692872D01*
X74901939Y-98692872D01*
X74895487Y-98691500D01*
X74704513Y-98691500D01*
X74698061Y-98692872D01*
X74698056Y-98692872D01*
X74611113Y-98711353D01*
X74517712Y-98731206D01*
X74511682Y-98733891D01*
X74511681Y-98733891D01*
X74349278Y-98806197D01*
X74349276Y-98806198D01*
X74343248Y-98808882D01*
X74188747Y-98921134D01*
X74060960Y-99063056D01*
X74057661Y-99068769D01*
X74057658Y-99068774D01*
X74000776Y-99167297D01*
X73949393Y-99216290D01*
X73879680Y-99229726D01*
X73813769Y-99203339D01*
X73771825Y-99143234D01*
X73734527Y-99028444D01*
X73639040Y-98863056D01*
X73522740Y-98733891D01*
X73515675Y-98726045D01*
X73515674Y-98726044D01*
X73511253Y-98721134D01*
X73356752Y-98608882D01*
X73350724Y-98606198D01*
X73350722Y-98606197D01*
X73188319Y-98533891D01*
X73188318Y-98533891D01*
X73182288Y-98531206D01*
X73088887Y-98511353D01*
X73001944Y-98492872D01*
X73001939Y-98492872D01*
X72995487Y-98491500D01*
X72804513Y-98491500D01*
X72798061Y-98492872D01*
X72798056Y-98492872D01*
X72711113Y-98511353D01*
X72617712Y-98531206D01*
X72611682Y-98533891D01*
X72611681Y-98533891D01*
X72449278Y-98606197D01*
X72449276Y-98606198D01*
X72443248Y-98608882D01*
X72288747Y-98721134D01*
X72284326Y-98726044D01*
X72284325Y-98726045D01*
X72277261Y-98733891D01*
X72160960Y-98863056D01*
X72065473Y-99028444D01*
X72006458Y-99210072D01*
X72005768Y-99216633D01*
X72005768Y-99216635D01*
X72004527Y-99228444D01*
X71986496Y-99400000D01*
X43508000Y-99400000D01*
X43508000Y-97300000D01*
X64886496Y-97300000D01*
X64906458Y-97489928D01*
X64965473Y-97671556D01*
X65060960Y-97836944D01*
X65188747Y-97978866D01*
X65343248Y-98091118D01*
X65349276Y-98093802D01*
X65349278Y-98093803D01*
X65511681Y-98166109D01*
X65517712Y-98168794D01*
X65611112Y-98188647D01*
X65698056Y-98207128D01*
X65698061Y-98207128D01*
X65704513Y-98208500D01*
X65895487Y-98208500D01*
X65901939Y-98207128D01*
X65901944Y-98207128D01*
X65988888Y-98188647D01*
X66082288Y-98168794D01*
X66088319Y-98166109D01*
X66250722Y-98093803D01*
X66250724Y-98093802D01*
X66256752Y-98091118D01*
X66411253Y-97978866D01*
X66539040Y-97836944D01*
X66634527Y-97671556D01*
X66693542Y-97489928D01*
X66713504Y-97300000D01*
X66693542Y-97110072D01*
X66634527Y-96928444D01*
X66539040Y-96763056D01*
X66411253Y-96621134D01*
X66256752Y-96508882D01*
X66250724Y-96506198D01*
X66250722Y-96506197D01*
X66088319Y-96433891D01*
X66088318Y-96433891D01*
X66082288Y-96431206D01*
X65988887Y-96411353D01*
X65901944Y-96392872D01*
X65901939Y-96392872D01*
X65895487Y-96391500D01*
X65704513Y-96391500D01*
X65698061Y-96392872D01*
X65698056Y-96392872D01*
X65611113Y-96411353D01*
X65517712Y-96431206D01*
X65511682Y-96433891D01*
X65511681Y-96433891D01*
X65349278Y-96506197D01*
X65349276Y-96506198D01*
X65343248Y-96508882D01*
X65188747Y-96621134D01*
X65060960Y-96763056D01*
X64965473Y-96928444D01*
X64906458Y-97110072D01*
X64886496Y-97300000D01*
X43508000Y-97300000D01*
X43508000Y-95700000D01*
X67186496Y-95700000D01*
X67206458Y-95889928D01*
X67265473Y-96071556D01*
X67360960Y-96236944D01*
X67488747Y-96378866D01*
X67643248Y-96491118D01*
X67649276Y-96493802D01*
X67649278Y-96493803D01*
X67811681Y-96566109D01*
X67817712Y-96568794D01*
X67911112Y-96588647D01*
X67998056Y-96607128D01*
X67998061Y-96607128D01*
X68004513Y-96608500D01*
X68195487Y-96608500D01*
X68201939Y-96607128D01*
X68201944Y-96607128D01*
X68288888Y-96588647D01*
X68382288Y-96568794D01*
X68388319Y-96566109D01*
X68550722Y-96493803D01*
X68550724Y-96493802D01*
X68556752Y-96491118D01*
X68711253Y-96378866D01*
X68839040Y-96236944D01*
X68934527Y-96071556D01*
X68993542Y-95889928D01*
X69013504Y-95700000D01*
X68993542Y-95510072D01*
X68934527Y-95328444D01*
X68839040Y-95163056D01*
X68711253Y-95021134D01*
X68556752Y-94908882D01*
X68550724Y-94906198D01*
X68550722Y-94906197D01*
X68388319Y-94833891D01*
X68388318Y-94833891D01*
X68382288Y-94831206D01*
X68288887Y-94811353D01*
X68201944Y-94792872D01*
X68201939Y-94792872D01*
X68195487Y-94791500D01*
X68004513Y-94791500D01*
X67998061Y-94792872D01*
X67998056Y-94792872D01*
X67911113Y-94811353D01*
X67817712Y-94831206D01*
X67811682Y-94833891D01*
X67811681Y-94833891D01*
X67649278Y-94906197D01*
X67649276Y-94906198D01*
X67643248Y-94908882D01*
X67488747Y-95021134D01*
X67360960Y-95163056D01*
X67265473Y-95328444D01*
X67206458Y-95510072D01*
X67186496Y-95700000D01*
X43508000Y-95700000D01*
X43508000Y-93400000D01*
X71786496Y-93400000D01*
X71787186Y-93406565D01*
X71803955Y-93566109D01*
X71806458Y-93589928D01*
X71865473Y-93771556D01*
X71960960Y-93936944D01*
X72088747Y-94078866D01*
X72243248Y-94191118D01*
X72249276Y-94193802D01*
X72249278Y-94193803D01*
X72411681Y-94266109D01*
X72417712Y-94268794D01*
X72511113Y-94288647D01*
X72598056Y-94307128D01*
X72598061Y-94307128D01*
X72604513Y-94308500D01*
X72795487Y-94308500D01*
X72801939Y-94307128D01*
X72801944Y-94307128D01*
X72888887Y-94288647D01*
X72982288Y-94268794D01*
X72988319Y-94266109D01*
X73150722Y-94193803D01*
X73150724Y-94193802D01*
X73156752Y-94191118D01*
X73311253Y-94078866D01*
X73439040Y-93936944D01*
X73534527Y-93771556D01*
X73593542Y-93589928D01*
X73596046Y-93566109D01*
X73612814Y-93406565D01*
X73613504Y-93400000D01*
X73596882Y-93241852D01*
X73594232Y-93216635D01*
X73594232Y-93216633D01*
X73593542Y-93210072D01*
X73534527Y-93028444D01*
X73439040Y-92863056D01*
X73311253Y-92721134D01*
X73156752Y-92608882D01*
X73150724Y-92606198D01*
X73150722Y-92606197D01*
X72988319Y-92533891D01*
X72988318Y-92533891D01*
X72982288Y-92531206D01*
X72882861Y-92510072D01*
X72801944Y-92492872D01*
X72801939Y-92492872D01*
X72795487Y-92491500D01*
X72604513Y-92491500D01*
X72598061Y-92492872D01*
X72598056Y-92492872D01*
X72517139Y-92510072D01*
X72417712Y-92531206D01*
X72411682Y-92533891D01*
X72411681Y-92533891D01*
X72249278Y-92606197D01*
X72249276Y-92606198D01*
X72243248Y-92608882D01*
X72088747Y-92721134D01*
X71960960Y-92863056D01*
X71865473Y-93028444D01*
X71806458Y-93210072D01*
X71805768Y-93216633D01*
X71805768Y-93216635D01*
X71803118Y-93241852D01*
X71786496Y-93400000D01*
X43508000Y-93400000D01*
X43508000Y-90700000D01*
X85286496Y-90700000D01*
X85306458Y-90889928D01*
X85365473Y-91071556D01*
X85460960Y-91236944D01*
X85588747Y-91378866D01*
X85743248Y-91491118D01*
X85749276Y-91493802D01*
X85749278Y-91493803D01*
X85911681Y-91566109D01*
X85917712Y-91568794D01*
X85989466Y-91584046D01*
X86007781Y-91587939D01*
X86070255Y-91621668D01*
X86104576Y-91683817D01*
X86099848Y-91754656D01*
X86057572Y-91811694D01*
X86021845Y-91830328D01*
X86017712Y-91831206D01*
X85981453Y-91847349D01*
X85849278Y-91906197D01*
X85849276Y-91906198D01*
X85843248Y-91908882D01*
X85688747Y-92021134D01*
X85560960Y-92163056D01*
X85465473Y-92328444D01*
X85406458Y-92510072D01*
X85405768Y-92516633D01*
X85405768Y-92516635D01*
X85396355Y-92606197D01*
X85386496Y-92700000D01*
X85387186Y-92706565D01*
X85404235Y-92868774D01*
X85406458Y-92889928D01*
X85465473Y-93071556D01*
X85560960Y-93236944D01*
X85688747Y-93378866D01*
X85843248Y-93491118D01*
X85849276Y-93493802D01*
X85849278Y-93493803D01*
X86011681Y-93566109D01*
X86017712Y-93568794D01*
X86086263Y-93583365D01*
X86198056Y-93607128D01*
X86198061Y-93607128D01*
X86204513Y-93608500D01*
X86395487Y-93608500D01*
X86401939Y-93607128D01*
X86401944Y-93607128D01*
X86513737Y-93583365D01*
X86582288Y-93568794D01*
X86588319Y-93566109D01*
X86750722Y-93493803D01*
X86750724Y-93493802D01*
X86756752Y-93491118D01*
X86911253Y-93378866D01*
X87039040Y-93236944D01*
X87134527Y-93071556D01*
X87193542Y-92889928D01*
X87195766Y-92868774D01*
X87212814Y-92706565D01*
X87213504Y-92700000D01*
X87203645Y-92606197D01*
X87194232Y-92516635D01*
X87194232Y-92516633D01*
X87193542Y-92510072D01*
X87134527Y-92328444D01*
X87039040Y-92163056D01*
X86911253Y-92021134D01*
X86756752Y-91908882D01*
X86750724Y-91906198D01*
X86750722Y-91906197D01*
X86588319Y-91833891D01*
X86588318Y-91833891D01*
X86582288Y-91831206D01*
X86510534Y-91815954D01*
X86492219Y-91812061D01*
X86429745Y-91778332D01*
X86395424Y-91716183D01*
X86400152Y-91645344D01*
X86442428Y-91588306D01*
X86478155Y-91569672D01*
X86482288Y-91568794D01*
X86518547Y-91552651D01*
X86650722Y-91493803D01*
X86650724Y-91493802D01*
X86656752Y-91491118D01*
X86811253Y-91378866D01*
X86939040Y-91236944D01*
X87034527Y-91071556D01*
X87093542Y-90889928D01*
X87113504Y-90700000D01*
X87093542Y-90510072D01*
X87034527Y-90328444D01*
X86939040Y-90163056D01*
X86811253Y-90021134D01*
X86656752Y-89908882D01*
X86650724Y-89906198D01*
X86650722Y-89906197D01*
X86488319Y-89833891D01*
X86488318Y-89833891D01*
X86482288Y-89831206D01*
X86388888Y-89811353D01*
X86301944Y-89792872D01*
X86301939Y-89792872D01*
X86295487Y-89791500D01*
X86104513Y-89791500D01*
X86098061Y-89792872D01*
X86098056Y-89792872D01*
X86011112Y-89811353D01*
X85917712Y-89831206D01*
X85911682Y-89833891D01*
X85911681Y-89833891D01*
X85749278Y-89906197D01*
X85749276Y-89906198D01*
X85743248Y-89908882D01*
X85588747Y-90021134D01*
X85460960Y-90163056D01*
X85365473Y-90328444D01*
X85306458Y-90510072D01*
X85286496Y-90700000D01*
X43508000Y-90700000D01*
X43508000Y-88898134D01*
X79341500Y-88898134D01*
X79348255Y-88960316D01*
X79399385Y-89096705D01*
X79486739Y-89213261D01*
X79603295Y-89300615D01*
X79739684Y-89351745D01*
X79801866Y-89358500D01*
X81598134Y-89358500D01*
X81660316Y-89351745D01*
X81796705Y-89300615D01*
X81913261Y-89213261D01*
X82000615Y-89096705D01*
X82051745Y-88960316D01*
X82058500Y-88898134D01*
X82058500Y-88598134D01*
X84941500Y-88598134D01*
X84948255Y-88660316D01*
X84999385Y-88796705D01*
X85086739Y-88913261D01*
X85203295Y-89000615D01*
X85339684Y-89051745D01*
X85401866Y-89058500D01*
X87198134Y-89058500D01*
X87260316Y-89051745D01*
X87396705Y-89000615D01*
X87513261Y-88913261D01*
X87600615Y-88796705D01*
X87651745Y-88660316D01*
X87658500Y-88598134D01*
X87658500Y-86801866D01*
X87651745Y-86739684D01*
X87600615Y-86603295D01*
X87513261Y-86486739D01*
X87396705Y-86399385D01*
X87260316Y-86348255D01*
X87198134Y-86341500D01*
X85401866Y-86341500D01*
X85339684Y-86348255D01*
X85203295Y-86399385D01*
X85086739Y-86486739D01*
X84999385Y-86603295D01*
X84948255Y-86739684D01*
X84941500Y-86801866D01*
X84941500Y-88598134D01*
X82058500Y-88598134D01*
X82058500Y-87101866D01*
X82051745Y-87039684D01*
X82000615Y-86903295D01*
X81913261Y-86786739D01*
X81796705Y-86699385D01*
X81660316Y-86648255D01*
X81598134Y-86641500D01*
X79801866Y-86641500D01*
X79739684Y-86648255D01*
X79603295Y-86699385D01*
X79486739Y-86786739D01*
X79399385Y-86903295D01*
X79348255Y-87039684D01*
X79341500Y-87101866D01*
X79341500Y-88898134D01*
X43508000Y-88898134D01*
X43508000Y-84900000D01*
X67386496Y-84900000D01*
X67406458Y-85089928D01*
X67465473Y-85271556D01*
X67560960Y-85436944D01*
X67688747Y-85578866D01*
X67843248Y-85691118D01*
X67849276Y-85693802D01*
X67849278Y-85693803D01*
X68011681Y-85766109D01*
X68017712Y-85768794D01*
X68111112Y-85788647D01*
X68198056Y-85807128D01*
X68198061Y-85807128D01*
X68204513Y-85808500D01*
X68395487Y-85808500D01*
X68401939Y-85807128D01*
X68401944Y-85807128D01*
X68488888Y-85788647D01*
X68582288Y-85768794D01*
X68588319Y-85766109D01*
X68750722Y-85693803D01*
X68750724Y-85693802D01*
X68756752Y-85691118D01*
X68911253Y-85578866D01*
X69039040Y-85436944D01*
X69134527Y-85271556D01*
X69193542Y-85089928D01*
X69203190Y-84998134D01*
X84941500Y-84998134D01*
X84948255Y-85060316D01*
X84999385Y-85196705D01*
X85086739Y-85313261D01*
X85203295Y-85400615D01*
X85339684Y-85451745D01*
X85401866Y-85458500D01*
X87198134Y-85458500D01*
X87260316Y-85451745D01*
X87396705Y-85400615D01*
X87513261Y-85313261D01*
X87600615Y-85196705D01*
X87651745Y-85060316D01*
X87658500Y-84998134D01*
X87658500Y-83201866D01*
X87651745Y-83139684D01*
X87600615Y-83003295D01*
X87513261Y-82886739D01*
X87396705Y-82799385D01*
X87260316Y-82748255D01*
X87198134Y-82741500D01*
X85401866Y-82741500D01*
X85339684Y-82748255D01*
X85203295Y-82799385D01*
X85086739Y-82886739D01*
X84999385Y-83003295D01*
X84948255Y-83139684D01*
X84941500Y-83201866D01*
X84941500Y-84998134D01*
X69203190Y-84998134D01*
X69213504Y-84900000D01*
X69193542Y-84710072D01*
X69134527Y-84528444D01*
X69039040Y-84363056D01*
X68911253Y-84221134D01*
X68756752Y-84108882D01*
X68750724Y-84106198D01*
X68750722Y-84106197D01*
X68588319Y-84033891D01*
X68588318Y-84033891D01*
X68582288Y-84031206D01*
X68488887Y-84011353D01*
X68401944Y-83992872D01*
X68401939Y-83992872D01*
X68395487Y-83991500D01*
X68204513Y-83991500D01*
X68198061Y-83992872D01*
X68198056Y-83992872D01*
X68111113Y-84011353D01*
X68017712Y-84031206D01*
X68011682Y-84033891D01*
X68011681Y-84033891D01*
X67849278Y-84106197D01*
X67849276Y-84106198D01*
X67843248Y-84108882D01*
X67688747Y-84221134D01*
X67560960Y-84363056D01*
X67465473Y-84528444D01*
X67406458Y-84710072D01*
X67386496Y-84900000D01*
X43508000Y-84900000D01*
X43508000Y-82600000D01*
X75986526Y-82600000D01*
X76006391Y-82852403D01*
X76065495Y-83098591D01*
X76067388Y-83103162D01*
X76067389Y-83103164D01*
X76106866Y-83198469D01*
X76162384Y-83332502D01*
X76294672Y-83548376D01*
X76459102Y-83740898D01*
X76651624Y-83905328D01*
X76867498Y-84037616D01*
X76872068Y-84039509D01*
X76872072Y-84039511D01*
X77048919Y-84112763D01*
X77101409Y-84134505D01*
X77186032Y-84154821D01*
X77342784Y-84192454D01*
X77342790Y-84192455D01*
X77347597Y-84193609D01*
X77447416Y-84201465D01*
X77534345Y-84208307D01*
X77534352Y-84208307D01*
X77536801Y-84208500D01*
X77663199Y-84208500D01*
X77665648Y-84208307D01*
X77665655Y-84208307D01*
X77752584Y-84201465D01*
X77852403Y-84193609D01*
X77857210Y-84192455D01*
X77857216Y-84192454D01*
X78013968Y-84154821D01*
X78098591Y-84134505D01*
X78151081Y-84112763D01*
X78327928Y-84039511D01*
X78327932Y-84039509D01*
X78332502Y-84037616D01*
X78548376Y-83905328D01*
X78740898Y-83740898D01*
X78905328Y-83548376D01*
X79037616Y-83332502D01*
X79093135Y-83198469D01*
X79132611Y-83103164D01*
X79132612Y-83103162D01*
X79134505Y-83098591D01*
X79193609Y-82852403D01*
X79213474Y-82600000D01*
X79193609Y-82347597D01*
X79134505Y-82101409D01*
X79132611Y-82096836D01*
X79039511Y-81872072D01*
X79039509Y-81872068D01*
X79037616Y-81867498D01*
X78905328Y-81651624D01*
X78740898Y-81459102D01*
X78669514Y-81398134D01*
X84941500Y-81398134D01*
X84948255Y-81460316D01*
X84999385Y-81596705D01*
X85086739Y-81713261D01*
X85203295Y-81800615D01*
X85339684Y-81851745D01*
X85401866Y-81858500D01*
X87198134Y-81858500D01*
X87260316Y-81851745D01*
X87396705Y-81800615D01*
X87513261Y-81713261D01*
X87600615Y-81596705D01*
X87651745Y-81460316D01*
X87658500Y-81398134D01*
X87658500Y-79601866D01*
X87651745Y-79539684D01*
X87600615Y-79403295D01*
X87513261Y-79286739D01*
X87396705Y-79199385D01*
X87260316Y-79148255D01*
X87198134Y-79141500D01*
X85401866Y-79141500D01*
X85339684Y-79148255D01*
X85203295Y-79199385D01*
X85086739Y-79286739D01*
X84999385Y-79403295D01*
X84948255Y-79539684D01*
X84941500Y-79601866D01*
X84941500Y-81398134D01*
X78669514Y-81398134D01*
X78548376Y-81294672D01*
X78332502Y-81162384D01*
X78327932Y-81160491D01*
X78327928Y-81160489D01*
X78103164Y-81067389D01*
X78103162Y-81067388D01*
X78098591Y-81065495D01*
X78013968Y-81045179D01*
X77857216Y-81007546D01*
X77857210Y-81007545D01*
X77852403Y-81006391D01*
X77752584Y-80998535D01*
X77665655Y-80991693D01*
X77665648Y-80991693D01*
X77663199Y-80991500D01*
X77536801Y-80991500D01*
X77534352Y-80991693D01*
X77534345Y-80991693D01*
X77447416Y-80998535D01*
X77347597Y-81006391D01*
X77342790Y-81007545D01*
X77342784Y-81007546D01*
X77186032Y-81045179D01*
X77101409Y-81065495D01*
X77096838Y-81067388D01*
X77096836Y-81067389D01*
X76872072Y-81160489D01*
X76872068Y-81160491D01*
X76867498Y-81162384D01*
X76651624Y-81294672D01*
X76459102Y-81459102D01*
X76294672Y-81651624D01*
X76162384Y-81867498D01*
X76160491Y-81872068D01*
X76160489Y-81872072D01*
X76067389Y-82096836D01*
X76065495Y-82101409D01*
X76006391Y-82347597D01*
X75986526Y-82600000D01*
X43508000Y-82600000D01*
X43508000Y-81200000D01*
X45486496Y-81200000D01*
X45506458Y-81389928D01*
X45565473Y-81571556D01*
X45660960Y-81736944D01*
X45665378Y-81741851D01*
X45665379Y-81741852D01*
X45778511Y-81867498D01*
X45788747Y-81878866D01*
X45887843Y-81950864D01*
X45926385Y-81978866D01*
X45943248Y-81991118D01*
X45949276Y-81993802D01*
X45949278Y-81993803D01*
X46111681Y-82066109D01*
X46117712Y-82068794D01*
X46204479Y-82087237D01*
X46298056Y-82107128D01*
X46298061Y-82107128D01*
X46304513Y-82108500D01*
X46495487Y-82108500D01*
X46501939Y-82107128D01*
X46501944Y-82107128D01*
X46595521Y-82087237D01*
X46682288Y-82068794D01*
X46688319Y-82066109D01*
X46850722Y-81993803D01*
X46850724Y-81993802D01*
X46856752Y-81991118D01*
X46873616Y-81978866D01*
X46912157Y-81950864D01*
X47011253Y-81878866D01*
X47021489Y-81867498D01*
X47134621Y-81741852D01*
X47134622Y-81741851D01*
X47139040Y-81736944D01*
X47234527Y-81571556D01*
X47293542Y-81389928D01*
X47302994Y-81300000D01*
X65186496Y-81300000D01*
X65187186Y-81306565D01*
X65196608Y-81396206D01*
X65206458Y-81489928D01*
X65265473Y-81671556D01*
X65360960Y-81836944D01*
X65488747Y-81978866D01*
X65643248Y-82091118D01*
X65649276Y-82093802D01*
X65649278Y-82093803D01*
X65811681Y-82166109D01*
X65817712Y-82168794D01*
X65911113Y-82188647D01*
X65998056Y-82207128D01*
X65998061Y-82207128D01*
X66004513Y-82208500D01*
X66195487Y-82208500D01*
X66201939Y-82207128D01*
X66201944Y-82207128D01*
X66288887Y-82188647D01*
X66382288Y-82168794D01*
X66388319Y-82166109D01*
X66550722Y-82093803D01*
X66550724Y-82093802D01*
X66556752Y-82091118D01*
X66711253Y-81978866D01*
X66839040Y-81836944D01*
X66934527Y-81671556D01*
X66993542Y-81489928D01*
X67003393Y-81396206D01*
X67012814Y-81306565D01*
X67013504Y-81300000D01*
X66993542Y-81110072D01*
X66934527Y-80928444D01*
X66839040Y-80763056D01*
X66711253Y-80621134D01*
X66580375Y-80526045D01*
X66562094Y-80512763D01*
X66562093Y-80512762D01*
X66556752Y-80508882D01*
X66550724Y-80506198D01*
X66550722Y-80506197D01*
X66535920Y-80499607D01*
X66481824Y-80453627D01*
X66461175Y-80385700D01*
X66480527Y-80317391D01*
X66533738Y-80270390D01*
X66587169Y-80258500D01*
X67698134Y-80258500D01*
X67760316Y-80251745D01*
X67896705Y-80200615D01*
X68013261Y-80113261D01*
X68100615Y-79996705D01*
X68151745Y-79860316D01*
X68158500Y-79798134D01*
X68158500Y-78001866D01*
X68151745Y-77939684D01*
X68100615Y-77803295D01*
X68013261Y-77686739D01*
X67896705Y-77599385D01*
X67760316Y-77548255D01*
X67698134Y-77541500D01*
X65901866Y-77541500D01*
X65839684Y-77548255D01*
X65703295Y-77599385D01*
X65586739Y-77686739D01*
X65499385Y-77803295D01*
X65448255Y-77939684D01*
X65441500Y-78001866D01*
X65441500Y-79798134D01*
X65448255Y-79860316D01*
X65499385Y-79996705D01*
X65586739Y-80113261D01*
X65703295Y-80200615D01*
X65711703Y-80203767D01*
X65758554Y-80221331D01*
X65815318Y-80263973D01*
X65840018Y-80330535D01*
X65824810Y-80399883D01*
X65774524Y-80450002D01*
X65765572Y-80454420D01*
X65649281Y-80506195D01*
X65649274Y-80506199D01*
X65643248Y-80508882D01*
X65637907Y-80512762D01*
X65637906Y-80512763D01*
X65619625Y-80526045D01*
X65488747Y-80621134D01*
X65360960Y-80763056D01*
X65265473Y-80928444D01*
X65206458Y-81110072D01*
X65186496Y-81300000D01*
X47302994Y-81300000D01*
X47313504Y-81200000D01*
X47304052Y-81110072D01*
X47294232Y-81016635D01*
X47294232Y-81016633D01*
X47293542Y-81010072D01*
X47234527Y-80828444D01*
X47139040Y-80663056D01*
X47011253Y-80521134D01*
X46856752Y-80408882D01*
X46850724Y-80406198D01*
X46850722Y-80406197D01*
X46688319Y-80333891D01*
X46688318Y-80333891D01*
X46682288Y-80331206D01*
X46588887Y-80311353D01*
X46501944Y-80292872D01*
X46501939Y-80292872D01*
X46495487Y-80291500D01*
X46304513Y-80291500D01*
X46298061Y-80292872D01*
X46298056Y-80292872D01*
X46211113Y-80311353D01*
X46117712Y-80331206D01*
X46111682Y-80333891D01*
X46111681Y-80333891D01*
X45949278Y-80406197D01*
X45949276Y-80406198D01*
X45943248Y-80408882D01*
X45788747Y-80521134D01*
X45660960Y-80663056D01*
X45565473Y-80828444D01*
X45506458Y-81010072D01*
X45505768Y-81016633D01*
X45505768Y-81016635D01*
X45495948Y-81110072D01*
X45486496Y-81200000D01*
X43508000Y-81200000D01*
X43508000Y-75400000D01*
X68986496Y-75400000D01*
X68987186Y-75406565D01*
X69005129Y-75577279D01*
X69006458Y-75589928D01*
X69065473Y-75771556D01*
X69160960Y-75936944D01*
X69165378Y-75941851D01*
X69165379Y-75941852D01*
X69279678Y-76068794D01*
X69288747Y-76078866D01*
X69443248Y-76191118D01*
X69449276Y-76193802D01*
X69449278Y-76193803D01*
X69611681Y-76266109D01*
X69617712Y-76268794D01*
X69711113Y-76288647D01*
X69798056Y-76307128D01*
X69798061Y-76307128D01*
X69804513Y-76308500D01*
X69995487Y-76308500D01*
X70001939Y-76307128D01*
X70001944Y-76307128D01*
X70088887Y-76288647D01*
X70182288Y-76268794D01*
X70188319Y-76266109D01*
X70350722Y-76193803D01*
X70350724Y-76193802D01*
X70356752Y-76191118D01*
X70511253Y-76078866D01*
X70520322Y-76068794D01*
X70634621Y-75941852D01*
X70634622Y-75941851D01*
X70639040Y-75936944D01*
X70734527Y-75771556D01*
X70793542Y-75589928D01*
X70794872Y-75577279D01*
X70812814Y-75406565D01*
X70813504Y-75400000D01*
X70793542Y-75210072D01*
X70790269Y-75200000D01*
X71386496Y-75200000D01*
X71406458Y-75389928D01*
X71465473Y-75571556D01*
X71560960Y-75736944D01*
X71688747Y-75878866D01*
X71843248Y-75991118D01*
X71849276Y-75993802D01*
X71849278Y-75993803D01*
X72011681Y-76066109D01*
X72017712Y-76068794D01*
X72083365Y-76082749D01*
X72198056Y-76107128D01*
X72198061Y-76107128D01*
X72204513Y-76108500D01*
X72395487Y-76108500D01*
X72401939Y-76107128D01*
X72401944Y-76107128D01*
X72516635Y-76082749D01*
X72582288Y-76068794D01*
X72588319Y-76066109D01*
X72750722Y-75993803D01*
X72750724Y-75993802D01*
X72756752Y-75991118D01*
X72911253Y-75878866D01*
X73039040Y-75736944D01*
X73134527Y-75571556D01*
X73158383Y-75498134D01*
X84941500Y-75498134D01*
X84948255Y-75560316D01*
X84999385Y-75696705D01*
X85086739Y-75813261D01*
X85203295Y-75900615D01*
X85339684Y-75951745D01*
X85401866Y-75958500D01*
X87198134Y-75958500D01*
X87260316Y-75951745D01*
X87396705Y-75900615D01*
X87513261Y-75813261D01*
X87600615Y-75696705D01*
X87651745Y-75560316D01*
X87658500Y-75498134D01*
X87658500Y-73701866D01*
X87651745Y-73639684D01*
X87600615Y-73503295D01*
X87513261Y-73386739D01*
X87396705Y-73299385D01*
X87260316Y-73248255D01*
X87198134Y-73241500D01*
X85401866Y-73241500D01*
X85339684Y-73248255D01*
X85203295Y-73299385D01*
X85086739Y-73386739D01*
X84999385Y-73503295D01*
X84948255Y-73639684D01*
X84941500Y-73701866D01*
X84941500Y-75498134D01*
X73158383Y-75498134D01*
X73193542Y-75389928D01*
X73213504Y-75200000D01*
X73201181Y-75082749D01*
X73194232Y-75016635D01*
X73194232Y-75016633D01*
X73193542Y-75010072D01*
X73134527Y-74828444D01*
X73039040Y-74663056D01*
X72976685Y-74593803D01*
X72915675Y-74526045D01*
X72915674Y-74526044D01*
X72911253Y-74521134D01*
X72756752Y-74408882D01*
X72750724Y-74406198D01*
X72750722Y-74406197D01*
X72588319Y-74333891D01*
X72588318Y-74333891D01*
X72582288Y-74331206D01*
X72488887Y-74311353D01*
X72401944Y-74292872D01*
X72401939Y-74292872D01*
X72395487Y-74291500D01*
X72204513Y-74291500D01*
X72198061Y-74292872D01*
X72198056Y-74292872D01*
X72111113Y-74311353D01*
X72017712Y-74331206D01*
X72011682Y-74333891D01*
X72011681Y-74333891D01*
X71849278Y-74406197D01*
X71849276Y-74406198D01*
X71843248Y-74408882D01*
X71688747Y-74521134D01*
X71684326Y-74526044D01*
X71684325Y-74526045D01*
X71623316Y-74593803D01*
X71560960Y-74663056D01*
X71465473Y-74828444D01*
X71406458Y-75010072D01*
X71405768Y-75016633D01*
X71405768Y-75016635D01*
X71398819Y-75082749D01*
X71386496Y-75200000D01*
X70790269Y-75200000D01*
X70734527Y-75028444D01*
X70639040Y-74863056D01*
X70511253Y-74721134D01*
X70356752Y-74608882D01*
X70350724Y-74606198D01*
X70350722Y-74606197D01*
X70188319Y-74533891D01*
X70188318Y-74533891D01*
X70182288Y-74531206D01*
X70088887Y-74511353D01*
X70001944Y-74492872D01*
X70001939Y-74492872D01*
X69995487Y-74491500D01*
X69804513Y-74491500D01*
X69798061Y-74492872D01*
X69798056Y-74492872D01*
X69711113Y-74511353D01*
X69617712Y-74531206D01*
X69611682Y-74533891D01*
X69611681Y-74533891D01*
X69449278Y-74606197D01*
X69449276Y-74606198D01*
X69443248Y-74608882D01*
X69288747Y-74721134D01*
X69160960Y-74863056D01*
X69065473Y-75028444D01*
X69006458Y-75210072D01*
X68986496Y-75400000D01*
X43508000Y-75400000D01*
X43508000Y-74400000D01*
X64886496Y-74400000D01*
X64887186Y-74406565D01*
X64903955Y-74566109D01*
X64906458Y-74589928D01*
X64965473Y-74771556D01*
X65060960Y-74936944D01*
X65188747Y-75078866D01*
X65343248Y-75191118D01*
X65349276Y-75193802D01*
X65349278Y-75193803D01*
X65400560Y-75216635D01*
X65517712Y-75268794D01*
X65611112Y-75288647D01*
X65698056Y-75307128D01*
X65698061Y-75307128D01*
X65704513Y-75308500D01*
X65895487Y-75308500D01*
X65901939Y-75307128D01*
X65901944Y-75307128D01*
X65988888Y-75288647D01*
X66082288Y-75268794D01*
X66199440Y-75216635D01*
X66250722Y-75193803D01*
X66250724Y-75193802D01*
X66256752Y-75191118D01*
X66411253Y-75078866D01*
X66539040Y-74936944D01*
X66634527Y-74771556D01*
X66693542Y-74589928D01*
X66696046Y-74566109D01*
X66712814Y-74406565D01*
X66713504Y-74400000D01*
X66710767Y-74373955D01*
X66694232Y-74216635D01*
X66694232Y-74216633D01*
X66693542Y-74210072D01*
X66634527Y-74028444D01*
X66539040Y-73863056D01*
X66482264Y-73800000D01*
X78586496Y-73800000D01*
X78587186Y-73806565D01*
X78596608Y-73896206D01*
X78606458Y-73989928D01*
X78665473Y-74171556D01*
X78760960Y-74336944D01*
X78765378Y-74341851D01*
X78765379Y-74341852D01*
X78823647Y-74406565D01*
X78888747Y-74478866D01*
X79043248Y-74591118D01*
X79049276Y-74593802D01*
X79049278Y-74593803D01*
X79204824Y-74663056D01*
X79217712Y-74668794D01*
X79311112Y-74688647D01*
X79398056Y-74707128D01*
X79398061Y-74707128D01*
X79404513Y-74708500D01*
X79595487Y-74708500D01*
X79601939Y-74707128D01*
X79601944Y-74707128D01*
X79688888Y-74688647D01*
X79782288Y-74668794D01*
X79795176Y-74663056D01*
X79950722Y-74593803D01*
X79950724Y-74593802D01*
X79956752Y-74591118D01*
X80111253Y-74478866D01*
X80176353Y-74406565D01*
X80234621Y-74341852D01*
X80234622Y-74341851D01*
X80239040Y-74336944D01*
X80242339Y-74331231D01*
X80242342Y-74331226D01*
X80319749Y-74197153D01*
X80371132Y-74148160D01*
X80440845Y-74134724D01*
X80506756Y-74161111D01*
X80537986Y-74197151D01*
X80560960Y-74236944D01*
X80688747Y-74378866D01*
X80735402Y-74412763D01*
X80826385Y-74478866D01*
X80843248Y-74491118D01*
X80849276Y-74493802D01*
X80849278Y-74493803D01*
X80939318Y-74533891D01*
X81017712Y-74568794D01*
X81086263Y-74583365D01*
X81198056Y-74607128D01*
X81198061Y-74607128D01*
X81204513Y-74608500D01*
X81395487Y-74608500D01*
X81401939Y-74607128D01*
X81401944Y-74607128D01*
X81513737Y-74583365D01*
X81582288Y-74568794D01*
X81660682Y-74533891D01*
X81750722Y-74493803D01*
X81750724Y-74493802D01*
X81756752Y-74491118D01*
X81773616Y-74478866D01*
X81864598Y-74412763D01*
X81911253Y-74378866D01*
X82039040Y-74236944D01*
X82134527Y-74071556D01*
X82193542Y-73889928D01*
X82195766Y-73868774D01*
X82212814Y-73706565D01*
X82213504Y-73700000D01*
X82203645Y-73606197D01*
X82194232Y-73516635D01*
X82194232Y-73516633D01*
X82193542Y-73510072D01*
X82134527Y-73328444D01*
X82039040Y-73163056D01*
X81911253Y-73021134D01*
X81756752Y-72908882D01*
X81750724Y-72906198D01*
X81750722Y-72906197D01*
X81588319Y-72833891D01*
X81588318Y-72833891D01*
X81582288Y-72831206D01*
X81488888Y-72811353D01*
X81401944Y-72792872D01*
X81401939Y-72792872D01*
X81395487Y-72791500D01*
X81204513Y-72791500D01*
X81198061Y-72792872D01*
X81198056Y-72792872D01*
X81111112Y-72811353D01*
X81017712Y-72831206D01*
X81011682Y-72833891D01*
X81011681Y-72833891D01*
X80849278Y-72906197D01*
X80849276Y-72906198D01*
X80843248Y-72908882D01*
X80688747Y-73021134D01*
X80560960Y-73163056D01*
X80557661Y-73168769D01*
X80557658Y-73168774D01*
X80480251Y-73302847D01*
X80428868Y-73351840D01*
X80359155Y-73365276D01*
X80293244Y-73338889D01*
X80262013Y-73302847D01*
X80239040Y-73263056D01*
X80111253Y-73121134D01*
X79980375Y-73026045D01*
X79962094Y-73012763D01*
X79962093Y-73012762D01*
X79956752Y-73008882D01*
X79950724Y-73006198D01*
X79950722Y-73006197D01*
X79788319Y-72933891D01*
X79788318Y-72933891D01*
X79782288Y-72931206D01*
X79688888Y-72911353D01*
X79601944Y-72892872D01*
X79601939Y-72892872D01*
X79595487Y-72891500D01*
X79404513Y-72891500D01*
X79398061Y-72892872D01*
X79398056Y-72892872D01*
X79311112Y-72911353D01*
X79217712Y-72931206D01*
X79211682Y-72933891D01*
X79211681Y-72933891D01*
X79049278Y-73006197D01*
X79049276Y-73006198D01*
X79043248Y-73008882D01*
X79037907Y-73012762D01*
X79037906Y-73012763D01*
X79019625Y-73026045D01*
X78888747Y-73121134D01*
X78760960Y-73263056D01*
X78665473Y-73428444D01*
X78606458Y-73610072D01*
X78586496Y-73800000D01*
X66482264Y-73800000D01*
X66411253Y-73721134D01*
X66256752Y-73608882D01*
X66250724Y-73606198D01*
X66250722Y-73606197D01*
X66088319Y-73533891D01*
X66088318Y-73533891D01*
X66082288Y-73531206D01*
X65982861Y-73510072D01*
X65901944Y-73492872D01*
X65901939Y-73492872D01*
X65895487Y-73491500D01*
X65704513Y-73491500D01*
X65698061Y-73492872D01*
X65698056Y-73492872D01*
X65617139Y-73510072D01*
X65517712Y-73531206D01*
X65511682Y-73533891D01*
X65511681Y-73533891D01*
X65349278Y-73606197D01*
X65349276Y-73606198D01*
X65343248Y-73608882D01*
X65188747Y-73721134D01*
X65060960Y-73863056D01*
X64965473Y-74028444D01*
X64906458Y-74210072D01*
X64905768Y-74216633D01*
X64905768Y-74216635D01*
X64889233Y-74373955D01*
X64886496Y-74400000D01*
X43508000Y-74400000D01*
X43508000Y-70900000D01*
X54978647Y-70900000D01*
X54998022Y-71121463D01*
X55055560Y-71336196D01*
X55057882Y-71341177D01*
X55057883Y-71341178D01*
X55147186Y-71532689D01*
X55147189Y-71532694D01*
X55149512Y-71537676D01*
X55277023Y-71719781D01*
X55434219Y-71876977D01*
X55438727Y-71880134D01*
X55438730Y-71880136D01*
X55514495Y-71933187D01*
X55616323Y-72004488D01*
X55621305Y-72006811D01*
X55621310Y-72006814D01*
X55812822Y-72096117D01*
X55817804Y-72098440D01*
X55823112Y-72099862D01*
X55823114Y-72099863D01*
X55846320Y-72106081D01*
X56032537Y-72155978D01*
X56254000Y-72175353D01*
X56475463Y-72155978D01*
X56661680Y-72106081D01*
X56684886Y-72099863D01*
X56684888Y-72099862D01*
X56690196Y-72098440D01*
X56695178Y-72096117D01*
X56886690Y-72006814D01*
X56886695Y-72006811D01*
X56891677Y-72004488D01*
X56993505Y-71933187D01*
X57069270Y-71880136D01*
X57069273Y-71880134D01*
X57073781Y-71876977D01*
X57152624Y-71798134D01*
X84941500Y-71798134D01*
X84948255Y-71860316D01*
X84999385Y-71996705D01*
X85086739Y-72113261D01*
X85203295Y-72200615D01*
X85339684Y-72251745D01*
X85401866Y-72258500D01*
X87198134Y-72258500D01*
X87260316Y-72251745D01*
X87396705Y-72200615D01*
X87513261Y-72113261D01*
X87600615Y-71996705D01*
X87651745Y-71860316D01*
X87658500Y-71798134D01*
X87658500Y-70001866D01*
X87651745Y-69939684D01*
X87600615Y-69803295D01*
X87513261Y-69686739D01*
X87396705Y-69599385D01*
X87260316Y-69548255D01*
X87198134Y-69541500D01*
X85401866Y-69541500D01*
X85339684Y-69548255D01*
X85203295Y-69599385D01*
X85086739Y-69686739D01*
X84999385Y-69803295D01*
X84948255Y-69939684D01*
X84941500Y-70001866D01*
X84941500Y-71798134D01*
X57152624Y-71798134D01*
X57230977Y-71719781D01*
X57358488Y-71537676D01*
X57360811Y-71532694D01*
X57360814Y-71532689D01*
X57450117Y-71341178D01*
X57450118Y-71341177D01*
X57452440Y-71336196D01*
X57509978Y-71121463D01*
X57529353Y-70900000D01*
X57509978Y-70678537D01*
X57452440Y-70463804D01*
X57416736Y-70387237D01*
X57360814Y-70267311D01*
X57360811Y-70267306D01*
X57358488Y-70262324D01*
X57274133Y-70141852D01*
X57234136Y-70084730D01*
X57234134Y-70084727D01*
X57230977Y-70080219D01*
X57073781Y-69923023D01*
X57069273Y-69919866D01*
X57069270Y-69919864D01*
X56902792Y-69803295D01*
X56891677Y-69795512D01*
X56886695Y-69793189D01*
X56886690Y-69793186D01*
X56695178Y-69703883D01*
X56695177Y-69703882D01*
X56690196Y-69701560D01*
X56684888Y-69700138D01*
X56684886Y-69700137D01*
X56614802Y-69681358D01*
X56475463Y-69644022D01*
X56254000Y-69624647D01*
X56032537Y-69644022D01*
X55893198Y-69681358D01*
X55823114Y-69700137D01*
X55823112Y-69700138D01*
X55817804Y-69701560D01*
X55812823Y-69703882D01*
X55812822Y-69703883D01*
X55621311Y-69793186D01*
X55621306Y-69793189D01*
X55616324Y-69795512D01*
X55611817Y-69798668D01*
X55611815Y-69798669D01*
X55438730Y-69919864D01*
X55438727Y-69919866D01*
X55434219Y-69923023D01*
X55277023Y-70080219D01*
X55273866Y-70084727D01*
X55273864Y-70084730D01*
X55233867Y-70141852D01*
X55149512Y-70262324D01*
X55147189Y-70267306D01*
X55147186Y-70267311D01*
X55091264Y-70387237D01*
X55055560Y-70463804D01*
X54998022Y-70678537D01*
X54978647Y-70900000D01*
X43508000Y-70900000D01*
X43508000Y-69600000D01*
X72686496Y-69600000D01*
X72687186Y-69606565D01*
X72695613Y-69686739D01*
X72706458Y-69789928D01*
X72765473Y-69971556D01*
X72768776Y-69977278D01*
X72768777Y-69977279D01*
X72784945Y-70005283D01*
X72860960Y-70136944D01*
X72865378Y-70141851D01*
X72865379Y-70141852D01*
X72978343Y-70267311D01*
X72988747Y-70278866D01*
X73143248Y-70391118D01*
X73149276Y-70393802D01*
X73149278Y-70393803D01*
X73295314Y-70458822D01*
X73317712Y-70468794D01*
X73411113Y-70488647D01*
X73498056Y-70507128D01*
X73498061Y-70507128D01*
X73504513Y-70508500D01*
X73695487Y-70508500D01*
X73701939Y-70507128D01*
X73701944Y-70507128D01*
X73788887Y-70488647D01*
X73882288Y-70468794D01*
X73904686Y-70458822D01*
X74050722Y-70393803D01*
X74050724Y-70393802D01*
X74056752Y-70391118D01*
X74211253Y-70278866D01*
X74221657Y-70267311D01*
X74334621Y-70141852D01*
X74334622Y-70141851D01*
X74339040Y-70136944D01*
X74415055Y-70005283D01*
X74431223Y-69977279D01*
X74431224Y-69977278D01*
X74434527Y-69971556D01*
X74493542Y-69789928D01*
X74504388Y-69686739D01*
X74512814Y-69606565D01*
X74513504Y-69600000D01*
X74508357Y-69551029D01*
X74494232Y-69416635D01*
X74494232Y-69416633D01*
X74493542Y-69410072D01*
X74434527Y-69228444D01*
X74339040Y-69063056D01*
X74211253Y-68921134D01*
X74056752Y-68808882D01*
X74050724Y-68806198D01*
X74050722Y-68806197D01*
X73888319Y-68733891D01*
X73888318Y-68733891D01*
X73882288Y-68731206D01*
X73788888Y-68711353D01*
X73701944Y-68692872D01*
X73701939Y-68692872D01*
X73695487Y-68691500D01*
X73504513Y-68691500D01*
X73498061Y-68692872D01*
X73498056Y-68692872D01*
X73411112Y-68711353D01*
X73317712Y-68731206D01*
X73311682Y-68733891D01*
X73311681Y-68733891D01*
X73149278Y-68806197D01*
X73149276Y-68806198D01*
X73143248Y-68808882D01*
X72988747Y-68921134D01*
X72860960Y-69063056D01*
X72765473Y-69228444D01*
X72706458Y-69410072D01*
X72705768Y-69416633D01*
X72705768Y-69416635D01*
X72691643Y-69551029D01*
X72686496Y-69600000D01*
X43508000Y-69600000D01*
X43508000Y-68400000D01*
X51486496Y-68400000D01*
X51487186Y-68406565D01*
X51498966Y-68518642D01*
X51506458Y-68589928D01*
X51565473Y-68771556D01*
X51660960Y-68936944D01*
X51788747Y-69078866D01*
X51943248Y-69191118D01*
X51949276Y-69193802D01*
X51949278Y-69193803D01*
X52041200Y-69234729D01*
X52117712Y-69268794D01*
X52211113Y-69288647D01*
X52298056Y-69307128D01*
X52298061Y-69307128D01*
X52304513Y-69308500D01*
X52495487Y-69308500D01*
X52501939Y-69307128D01*
X52501944Y-69307128D01*
X52588887Y-69288647D01*
X52682288Y-69268794D01*
X52758800Y-69234729D01*
X52850722Y-69193803D01*
X52850724Y-69193802D01*
X52856752Y-69191118D01*
X53011253Y-69078866D01*
X53139040Y-68936944D01*
X53234527Y-68771556D01*
X53293542Y-68589928D01*
X53301035Y-68518642D01*
X53312814Y-68406565D01*
X53313504Y-68400000D01*
X53312274Y-68388297D01*
X53294232Y-68216635D01*
X53294232Y-68216633D01*
X53293542Y-68210072D01*
X53234527Y-68028444D01*
X53221006Y-68005024D01*
X53142341Y-67868774D01*
X53139040Y-67863056D01*
X53011253Y-67721134D01*
X52856752Y-67608882D01*
X52850724Y-67606198D01*
X52850722Y-67606197D01*
X52688319Y-67533891D01*
X52688318Y-67533891D01*
X52682288Y-67531206D01*
X52588888Y-67511353D01*
X52501944Y-67492872D01*
X52501939Y-67492872D01*
X52495487Y-67491500D01*
X52304513Y-67491500D01*
X52298061Y-67492872D01*
X52298056Y-67492872D01*
X52211112Y-67511353D01*
X52117712Y-67531206D01*
X52111682Y-67533891D01*
X52111681Y-67533891D01*
X51949278Y-67606197D01*
X51949276Y-67606198D01*
X51943248Y-67608882D01*
X51788747Y-67721134D01*
X51660960Y-67863056D01*
X51657659Y-67868774D01*
X51578995Y-68005024D01*
X51565473Y-68028444D01*
X51506458Y-68210072D01*
X51505768Y-68216633D01*
X51505768Y-68216635D01*
X51487726Y-68388297D01*
X51486496Y-68400000D01*
X43508000Y-68400000D01*
X43508000Y-63800000D01*
X50586496Y-63800000D01*
X50587186Y-63806565D01*
X50603955Y-63966109D01*
X50606458Y-63989928D01*
X50665473Y-64171556D01*
X50668776Y-64177278D01*
X50668777Y-64177279D01*
X50715864Y-64258836D01*
X50760960Y-64336944D01*
X50765378Y-64341851D01*
X50765379Y-64341852D01*
X50811599Y-64393184D01*
X50842316Y-64457192D01*
X50837796Y-64516430D01*
X50837730Y-64516635D01*
X50812656Y-64593803D01*
X50807146Y-64610760D01*
X50806456Y-64617323D01*
X50806455Y-64617330D01*
X50794204Y-64733892D01*
X50787184Y-64800688D01*
X50787874Y-64807253D01*
X50798556Y-64908882D01*
X50807146Y-64990616D01*
X50866161Y-65172244D01*
X50961648Y-65337632D01*
X50966066Y-65342539D01*
X50966067Y-65342540D01*
X51085013Y-65474643D01*
X51089435Y-65479554D01*
X51243936Y-65591806D01*
X51249964Y-65594490D01*
X51249966Y-65594491D01*
X51412367Y-65666796D01*
X51418400Y-65669482D01*
X51508258Y-65688582D01*
X51598744Y-65707816D01*
X51598749Y-65707816D01*
X51605201Y-65709188D01*
X51796175Y-65709188D01*
X51802627Y-65707816D01*
X51802632Y-65707816D01*
X51893118Y-65688582D01*
X51982976Y-65669482D01*
X51989003Y-65666799D01*
X51989011Y-65666796D01*
X52121474Y-65607820D01*
X52191841Y-65598386D01*
X52256138Y-65628493D01*
X52293951Y-65688582D01*
X52298032Y-65709755D01*
X52306458Y-65789928D01*
X52365473Y-65971556D01*
X52460960Y-66136944D01*
X52465378Y-66141851D01*
X52465379Y-66141852D01*
X52528273Y-66211703D01*
X52588747Y-66278866D01*
X52683268Y-66347540D01*
X52726385Y-66378866D01*
X52743248Y-66391118D01*
X52749276Y-66393802D01*
X52749278Y-66393803D01*
X52911679Y-66466108D01*
X52917712Y-66468794D01*
X52984466Y-66482983D01*
X53098056Y-66507128D01*
X53098061Y-66507128D01*
X53104513Y-66508500D01*
X53295487Y-66508500D01*
X53301939Y-66507128D01*
X53301944Y-66507128D01*
X53415534Y-66482983D01*
X53482288Y-66468794D01*
X53488315Y-66466111D01*
X53488323Y-66466108D01*
X53598583Y-66417017D01*
X53668950Y-66407583D01*
X53733247Y-66437690D01*
X53771060Y-66497779D01*
X53770384Y-66568772D01*
X53737507Y-66620467D01*
X53738247Y-66621134D01*
X53734282Y-66625537D01*
X53734281Y-66625539D01*
X53733831Y-66626038D01*
X53733827Y-66626042D01*
X53614879Y-66758148D01*
X53610460Y-66763056D01*
X53514973Y-66928444D01*
X53455958Y-67110072D01*
X53435996Y-67300000D01*
X53455958Y-67489928D01*
X53514973Y-67671556D01*
X53610460Y-67836944D01*
X53738247Y-67978866D01*
X53892748Y-68091118D01*
X53898776Y-68093802D01*
X53898778Y-68093803D01*
X54061181Y-68166109D01*
X54067212Y-68168794D01*
X54160613Y-68188647D01*
X54247556Y-68207128D01*
X54247561Y-68207128D01*
X54254013Y-68208500D01*
X54444987Y-68208500D01*
X54451439Y-68207128D01*
X54451444Y-68207128D01*
X54538387Y-68188647D01*
X54631788Y-68168794D01*
X54637819Y-68166109D01*
X54800222Y-68093803D01*
X54800224Y-68093802D01*
X54806252Y-68091118D01*
X54850690Y-68058832D01*
X54917557Y-68034974D01*
X54986709Y-68051055D01*
X54998810Y-68058832D01*
X55043248Y-68091118D01*
X55049276Y-68093802D01*
X55049278Y-68093803D01*
X55211681Y-68166109D01*
X55217712Y-68168794D01*
X55311113Y-68188647D01*
X55398056Y-68207128D01*
X55398061Y-68207128D01*
X55404513Y-68208500D01*
X55595487Y-68208500D01*
X55601939Y-68207128D01*
X55601944Y-68207128D01*
X55644256Y-68198134D01*
X84941500Y-68198134D01*
X84948255Y-68260316D01*
X84999385Y-68396705D01*
X85086739Y-68513261D01*
X85203295Y-68600615D01*
X85339684Y-68651745D01*
X85401866Y-68658500D01*
X87198134Y-68658500D01*
X87260316Y-68651745D01*
X87396705Y-68600615D01*
X87513261Y-68513261D01*
X87600615Y-68396705D01*
X87651745Y-68260316D01*
X87658500Y-68198134D01*
X87658500Y-66401866D01*
X87651745Y-66339684D01*
X87600615Y-66203295D01*
X87513261Y-66086739D01*
X87396705Y-65999385D01*
X87260316Y-65948255D01*
X87198134Y-65941500D01*
X85401866Y-65941500D01*
X85339684Y-65948255D01*
X85203295Y-65999385D01*
X85086739Y-66086739D01*
X84999385Y-66203295D01*
X84948255Y-66339684D01*
X84941500Y-66401866D01*
X84941500Y-68198134D01*
X55644256Y-68198134D01*
X55688887Y-68188647D01*
X55782288Y-68168794D01*
X55788319Y-68166109D01*
X55950722Y-68093803D01*
X55950724Y-68093802D01*
X55956752Y-68091118D01*
X56111253Y-67978866D01*
X56239040Y-67836944D01*
X56334527Y-67671556D01*
X56393542Y-67489928D01*
X56413504Y-67300000D01*
X56393542Y-67110072D01*
X56334527Y-66928444D01*
X56239040Y-66763056D01*
X56111253Y-66621134D01*
X55956752Y-66508882D01*
X55950724Y-66506198D01*
X55950722Y-66506197D01*
X55788319Y-66433891D01*
X55788318Y-66433891D01*
X55782288Y-66431206D01*
X55688887Y-66411353D01*
X55601944Y-66392872D01*
X55601939Y-66392872D01*
X55595487Y-66391500D01*
X55404513Y-66391500D01*
X55398061Y-66392872D01*
X55398056Y-66392872D01*
X55311113Y-66411353D01*
X55217712Y-66431206D01*
X55211682Y-66433891D01*
X55211681Y-66433891D01*
X55049278Y-66506197D01*
X55049276Y-66506198D01*
X55043248Y-66508882D01*
X55013759Y-66530307D01*
X54998810Y-66541168D01*
X54931943Y-66565026D01*
X54862791Y-66548945D01*
X54850690Y-66541168D01*
X54835741Y-66530307D01*
X54806252Y-66508882D01*
X54800224Y-66506198D01*
X54800222Y-66506197D01*
X54637819Y-66433891D01*
X54637818Y-66433891D01*
X54631788Y-66431206D01*
X54538387Y-66411353D01*
X54451444Y-66392872D01*
X54451439Y-66392872D01*
X54444987Y-66391500D01*
X54254013Y-66391500D01*
X54247561Y-66392872D01*
X54247556Y-66392872D01*
X54160613Y-66411353D01*
X54067212Y-66431206D01*
X54061185Y-66433889D01*
X54061177Y-66433892D01*
X53950917Y-66482983D01*
X53880550Y-66492417D01*
X53816253Y-66462310D01*
X53778440Y-66402221D01*
X53779116Y-66331228D01*
X53811993Y-66279533D01*
X53811253Y-66278866D01*
X53815218Y-66274463D01*
X53815219Y-66274461D01*
X53815669Y-66273962D01*
X53815673Y-66273958D01*
X53934621Y-66141852D01*
X53934622Y-66141851D01*
X53939040Y-66136944D01*
X54034527Y-65971556D01*
X54093542Y-65789928D01*
X54102994Y-65700000D01*
X82686496Y-65700000D01*
X82687186Y-65706565D01*
X82696608Y-65796206D01*
X82706458Y-65889928D01*
X82765473Y-66071556D01*
X82860960Y-66236944D01*
X82865378Y-66241851D01*
X82865379Y-66241852D01*
X82946805Y-66332285D01*
X82988747Y-66378866D01*
X83143248Y-66491118D01*
X83149276Y-66493802D01*
X83149278Y-66493803D01*
X83273130Y-66548945D01*
X83317712Y-66568794D01*
X83411112Y-66588647D01*
X83498056Y-66607128D01*
X83498061Y-66607128D01*
X83504513Y-66608500D01*
X83695487Y-66608500D01*
X83701939Y-66607128D01*
X83701944Y-66607128D01*
X83788888Y-66588647D01*
X83882288Y-66568794D01*
X83926870Y-66548945D01*
X84050722Y-66493803D01*
X84050724Y-66493802D01*
X84056752Y-66491118D01*
X84211253Y-66378866D01*
X84253195Y-66332285D01*
X84334621Y-66241852D01*
X84334622Y-66241851D01*
X84339040Y-66236944D01*
X84434527Y-66071556D01*
X84493542Y-65889928D01*
X84503393Y-65796206D01*
X84512814Y-65706565D01*
X84513504Y-65700000D01*
X84502304Y-65593435D01*
X84494232Y-65516635D01*
X84494232Y-65516633D01*
X84493542Y-65510072D01*
X84434527Y-65328444D01*
X84339040Y-65163056D01*
X84211253Y-65021134D01*
X84080375Y-64926045D01*
X84062094Y-64912763D01*
X84062093Y-64912762D01*
X84056752Y-64908882D01*
X84050724Y-64906198D01*
X84050722Y-64906197D01*
X83888319Y-64833891D01*
X83888318Y-64833891D01*
X83882288Y-64831206D01*
X83788888Y-64811353D01*
X83701944Y-64792872D01*
X83701939Y-64792872D01*
X83695487Y-64791500D01*
X83504513Y-64791500D01*
X83498061Y-64792872D01*
X83498056Y-64792872D01*
X83411112Y-64811353D01*
X83317712Y-64831206D01*
X83311682Y-64833891D01*
X83311681Y-64833891D01*
X83149278Y-64906197D01*
X83149276Y-64906198D01*
X83143248Y-64908882D01*
X83137907Y-64912762D01*
X83137906Y-64912763D01*
X83119625Y-64926045D01*
X82988747Y-65021134D01*
X82860960Y-65163056D01*
X82765473Y-65328444D01*
X82706458Y-65510072D01*
X82705768Y-65516633D01*
X82705768Y-65516635D01*
X82697696Y-65593435D01*
X82686496Y-65700000D01*
X54102994Y-65700000D01*
X54106484Y-65666797D01*
X54112814Y-65606565D01*
X54113504Y-65600000D01*
X54104052Y-65510072D01*
X54094232Y-65416635D01*
X54094232Y-65416633D01*
X54093542Y-65410072D01*
X54034527Y-65228444D01*
X53939040Y-65063056D01*
X53867906Y-64984053D01*
X53815675Y-64926045D01*
X53815674Y-64926044D01*
X53811253Y-64921134D01*
X53656752Y-64808882D01*
X53650724Y-64806198D01*
X53650722Y-64806197D01*
X53488319Y-64733891D01*
X53488318Y-64733891D01*
X53482288Y-64731206D01*
X53366362Y-64706565D01*
X53301944Y-64692872D01*
X53301939Y-64692872D01*
X53295487Y-64691500D01*
X53104513Y-64691500D01*
X53098061Y-64692872D01*
X53098056Y-64692872D01*
X53033638Y-64706565D01*
X52917712Y-64731206D01*
X52911685Y-64733889D01*
X52911677Y-64733892D01*
X52779214Y-64792868D01*
X52708847Y-64802302D01*
X52644550Y-64772195D01*
X52606737Y-64712106D01*
X52602656Y-64690931D01*
X52600330Y-64668794D01*
X52594230Y-64610760D01*
X52535215Y-64429132D01*
X52514461Y-64393184D01*
X52443031Y-64269465D01*
X52439728Y-64263744D01*
X52389089Y-64207504D01*
X52358372Y-64143496D01*
X52362892Y-64084258D01*
X52381807Y-64026045D01*
X52391501Y-63996211D01*
X52391502Y-63996206D01*
X52393542Y-63989928D01*
X52395764Y-63968794D01*
X52412814Y-63806565D01*
X52413504Y-63800000D01*
X52396882Y-63641852D01*
X52394232Y-63616635D01*
X52394232Y-63616633D01*
X52393542Y-63610072D01*
X52334527Y-63428444D01*
X52239040Y-63263056D01*
X52111253Y-63121134D01*
X51956752Y-63008882D01*
X51950724Y-63006198D01*
X51950722Y-63006197D01*
X51788319Y-62933891D01*
X51788318Y-62933891D01*
X51782288Y-62931206D01*
X51682861Y-62910072D01*
X51601944Y-62892872D01*
X51601939Y-62892872D01*
X51595487Y-62891500D01*
X51404513Y-62891500D01*
X51398061Y-62892872D01*
X51398056Y-62892872D01*
X51317139Y-62910072D01*
X51217712Y-62931206D01*
X51211682Y-62933891D01*
X51211681Y-62933891D01*
X51049278Y-63006197D01*
X51049276Y-63006198D01*
X51043248Y-63008882D01*
X50888747Y-63121134D01*
X50760960Y-63263056D01*
X50665473Y-63428444D01*
X50606458Y-63610072D01*
X50605768Y-63616633D01*
X50605768Y-63616635D01*
X50603118Y-63641852D01*
X50586496Y-63800000D01*
X43508000Y-63800000D01*
X43508000Y-61900000D01*
X46686496Y-61900000D01*
X46706458Y-62089928D01*
X46765473Y-62271556D01*
X46768776Y-62277278D01*
X46768777Y-62277279D01*
X46778845Y-62294717D01*
X46860960Y-62436944D01*
X46988747Y-62578866D01*
X47143248Y-62691118D01*
X47149276Y-62693802D01*
X47149278Y-62693803D01*
X47305170Y-62763210D01*
X47317712Y-62768794D01*
X47411112Y-62788647D01*
X47498056Y-62807128D01*
X47498061Y-62807128D01*
X47504513Y-62808500D01*
X47695487Y-62808500D01*
X47701939Y-62807128D01*
X47701944Y-62807128D01*
X47788888Y-62788647D01*
X47882288Y-62768794D01*
X47894830Y-62763210D01*
X48050722Y-62693803D01*
X48050724Y-62693802D01*
X48056752Y-62691118D01*
X48211253Y-62578866D01*
X48339040Y-62436944D01*
X48421155Y-62294717D01*
X48431223Y-62277279D01*
X48431224Y-62277278D01*
X48434527Y-62271556D01*
X48493542Y-62089928D01*
X48513504Y-61900000D01*
X48512814Y-61893435D01*
X48494232Y-61716635D01*
X48494232Y-61716633D01*
X48493542Y-61710072D01*
X48434527Y-61528444D01*
X48339040Y-61363056D01*
X48211253Y-61221134D01*
X48056752Y-61108882D01*
X48050724Y-61106198D01*
X48050722Y-61106197D01*
X47888319Y-61033891D01*
X47888318Y-61033891D01*
X47882288Y-61031206D01*
X47788887Y-61011353D01*
X47701944Y-60992872D01*
X47701939Y-60992872D01*
X47695487Y-60991500D01*
X47504513Y-60991500D01*
X47498061Y-60992872D01*
X47498056Y-60992872D01*
X47411113Y-61011353D01*
X47317712Y-61031206D01*
X47311682Y-61033891D01*
X47311681Y-61033891D01*
X47149278Y-61106197D01*
X47149276Y-61106198D01*
X47143248Y-61108882D01*
X46988747Y-61221134D01*
X46860960Y-61363056D01*
X46765473Y-61528444D01*
X46706458Y-61710072D01*
X46705768Y-61716633D01*
X46705768Y-61716635D01*
X46687186Y-61893435D01*
X46686496Y-61900000D01*
X43508000Y-61900000D01*
X43508000Y-60900000D01*
X53086496Y-60900000D01*
X53087186Y-60906565D01*
X53103955Y-61066109D01*
X53106458Y-61089928D01*
X53165473Y-61271556D01*
X53260960Y-61436944D01*
X53265378Y-61441851D01*
X53265379Y-61441852D01*
X53308667Y-61489928D01*
X53388747Y-61578866D01*
X53543248Y-61691118D01*
X53549276Y-61693802D01*
X53549278Y-61693803D01*
X53600560Y-61716635D01*
X53717712Y-61768794D01*
X53811112Y-61788647D01*
X53898056Y-61807128D01*
X53898061Y-61807128D01*
X53904513Y-61808500D01*
X54095487Y-61808500D01*
X54101939Y-61807128D01*
X54101944Y-61807128D01*
X54188888Y-61788647D01*
X54282288Y-61768794D01*
X54399440Y-61716635D01*
X54450722Y-61693803D01*
X54450724Y-61693802D01*
X54456752Y-61691118D01*
X54611253Y-61578866D01*
X54691333Y-61489928D01*
X54734621Y-61441852D01*
X54734622Y-61441851D01*
X54739040Y-61436944D01*
X54779598Y-61366695D01*
X56072251Y-61366695D01*
X56085110Y-61589715D01*
X56086247Y-61594761D01*
X56086248Y-61594767D01*
X56103554Y-61671556D01*
X56134222Y-61807639D01*
X56195673Y-61958976D01*
X56203750Y-61978866D01*
X56218266Y-62014616D01*
X56334987Y-62205088D01*
X56481250Y-62373938D01*
X56653126Y-62516632D01*
X56846000Y-62629338D01*
X56909303Y-62653511D01*
X56965806Y-62696499D01*
X56990098Y-62763210D01*
X56974467Y-62832465D01*
X56923876Y-62882275D01*
X56890550Y-62894468D01*
X56717712Y-62931206D01*
X56711682Y-62933891D01*
X56711681Y-62933891D01*
X56549278Y-63006197D01*
X56549276Y-63006198D01*
X56543248Y-63008882D01*
X56388747Y-63121134D01*
X56260960Y-63263056D01*
X56165473Y-63428444D01*
X56106458Y-63610072D01*
X56105768Y-63616633D01*
X56105768Y-63616635D01*
X56103118Y-63641852D01*
X56086496Y-63800000D01*
X56087186Y-63806565D01*
X56103955Y-63966109D01*
X56106458Y-63989928D01*
X56165473Y-64171556D01*
X56260960Y-64336944D01*
X56388747Y-64478866D01*
X56543248Y-64591118D01*
X56549276Y-64593802D01*
X56549278Y-64593803D01*
X56602121Y-64617330D01*
X56717712Y-64668794D01*
X56724173Y-64670167D01*
X56724178Y-64670169D01*
X56797454Y-64685745D01*
X56859928Y-64719473D01*
X56894249Y-64781622D01*
X56896567Y-64795819D01*
X56906458Y-64889928D01*
X56965473Y-65071556D01*
X57060960Y-65236944D01*
X57188747Y-65378866D01*
X57287843Y-65450864D01*
X57327332Y-65479554D01*
X57343248Y-65491118D01*
X57349276Y-65493802D01*
X57349278Y-65493803D01*
X57400560Y-65516635D01*
X57517712Y-65568794D01*
X57607716Y-65587925D01*
X57698056Y-65607128D01*
X57698061Y-65607128D01*
X57704513Y-65608500D01*
X57895487Y-65608500D01*
X57901939Y-65607128D01*
X57901944Y-65607128D01*
X57992284Y-65587925D01*
X58082288Y-65568794D01*
X58199440Y-65516635D01*
X58250722Y-65493803D01*
X58250724Y-65493802D01*
X58256752Y-65491118D01*
X58272669Y-65479554D01*
X58312157Y-65450864D01*
X58411253Y-65378866D01*
X58539040Y-65236944D01*
X58634527Y-65071556D01*
X58693542Y-64889928D01*
X58702232Y-64807253D01*
X58712814Y-64706565D01*
X58713504Y-64700000D01*
X58693542Y-64510072D01*
X58634527Y-64328444D01*
X58539040Y-64163056D01*
X58530385Y-64153443D01*
X58415675Y-64026045D01*
X58415674Y-64026044D01*
X58411253Y-64021134D01*
X58256752Y-63908882D01*
X58250724Y-63906198D01*
X58250722Y-63906197D01*
X58088319Y-63833891D01*
X58088318Y-63833891D01*
X58082288Y-63831206D01*
X58075827Y-63829833D01*
X58075822Y-63829831D01*
X58002546Y-63814255D01*
X57940072Y-63780527D01*
X57905751Y-63718378D01*
X57903433Y-63704180D01*
X57894232Y-63616634D01*
X57894231Y-63616631D01*
X57893542Y-63610072D01*
X57834527Y-63428444D01*
X57739040Y-63263056D01*
X57611253Y-63121134D01*
X57582165Y-63100000D01*
X76986496Y-63100000D01*
X76987186Y-63106565D01*
X77004235Y-63268774D01*
X77006458Y-63289928D01*
X77065473Y-63471556D01*
X77160960Y-63636944D01*
X77288747Y-63778866D01*
X77443248Y-63891118D01*
X77449276Y-63893802D01*
X77449278Y-63893803D01*
X77611681Y-63966109D01*
X77617712Y-63968794D01*
X77686263Y-63983365D01*
X77798056Y-64007128D01*
X77798061Y-64007128D01*
X77804513Y-64008500D01*
X77995487Y-64008500D01*
X78001939Y-64007128D01*
X78001944Y-64007128D01*
X78113737Y-63983365D01*
X78182288Y-63968794D01*
X78188319Y-63966109D01*
X78350722Y-63893803D01*
X78350724Y-63893802D01*
X78356752Y-63891118D01*
X78511253Y-63778866D01*
X78639040Y-63636944D01*
X78734527Y-63471556D01*
X78793542Y-63289928D01*
X78795766Y-63268774D01*
X78812814Y-63106565D01*
X78813504Y-63100000D01*
X78803645Y-63006194D01*
X78794232Y-62916635D01*
X78794232Y-62916633D01*
X78793542Y-62910072D01*
X78734527Y-62728444D01*
X78639040Y-62563056D01*
X78579298Y-62496705D01*
X78515675Y-62426045D01*
X78515674Y-62426044D01*
X78511253Y-62421134D01*
X78356752Y-62308882D01*
X78350724Y-62306198D01*
X78350722Y-62306197D01*
X78188319Y-62233891D01*
X78188318Y-62233891D01*
X78182288Y-62231206D01*
X78077771Y-62208990D01*
X78001944Y-62192872D01*
X78001939Y-62192872D01*
X77995487Y-62191500D01*
X77804513Y-62191500D01*
X77798061Y-62192872D01*
X77798056Y-62192872D01*
X77722229Y-62208990D01*
X77617712Y-62231206D01*
X77611682Y-62233891D01*
X77611681Y-62233891D01*
X77449278Y-62306197D01*
X77449276Y-62306198D01*
X77443248Y-62308882D01*
X77288747Y-62421134D01*
X77284326Y-62426044D01*
X77284325Y-62426045D01*
X77220703Y-62496705D01*
X77160960Y-62563056D01*
X77065473Y-62728444D01*
X77006458Y-62910072D01*
X77005768Y-62916633D01*
X77005768Y-62916635D01*
X76996355Y-63006194D01*
X76986496Y-63100000D01*
X57582165Y-63100000D01*
X57456752Y-63008882D01*
X57450721Y-63006197D01*
X57450716Y-63006194D01*
X57442846Y-63002690D01*
X57388749Y-62956711D01*
X57368099Y-62888784D01*
X57387450Y-62820476D01*
X57440660Y-62773474D01*
X57488381Y-62761713D01*
X57491673Y-62761564D01*
X57496837Y-62761753D01*
X57501957Y-62761097D01*
X57501959Y-62761097D01*
X57713288Y-62734025D01*
X57713289Y-62734025D01*
X57718416Y-62733368D01*
X57723366Y-62731883D01*
X57927429Y-62670661D01*
X57927434Y-62670659D01*
X57932384Y-62669174D01*
X58132994Y-62570896D01*
X58314860Y-62441173D01*
X58423091Y-62333319D01*
X58485462Y-62299404D01*
X58556268Y-62304592D01*
X58613030Y-62347238D01*
X58630012Y-62378341D01*
X58654691Y-62444171D01*
X58674385Y-62496705D01*
X58761739Y-62613261D01*
X58878295Y-62700615D01*
X59014684Y-62751745D01*
X59076866Y-62758500D01*
X60873134Y-62758500D01*
X60935316Y-62751745D01*
X61071705Y-62700615D01*
X61188261Y-62613261D01*
X61275615Y-62496705D01*
X61326745Y-62360316D01*
X61333500Y-62298134D01*
X61333500Y-61300000D01*
X73686496Y-61300000D01*
X73687186Y-61306565D01*
X73692608Y-61358148D01*
X73706458Y-61489928D01*
X73765473Y-61671556D01*
X73860960Y-61836944D01*
X73988747Y-61978866D01*
X74143248Y-62091118D01*
X74149276Y-62093802D01*
X74149278Y-62093803D01*
X74167862Y-62102077D01*
X74317712Y-62168794D01*
X74411113Y-62188647D01*
X74498056Y-62207128D01*
X74498061Y-62207128D01*
X74504513Y-62208500D01*
X74695487Y-62208500D01*
X74701939Y-62207128D01*
X74701944Y-62207128D01*
X74788887Y-62188647D01*
X74882288Y-62168794D01*
X75032138Y-62102077D01*
X75050722Y-62093803D01*
X75050724Y-62093802D01*
X75056752Y-62091118D01*
X75211253Y-61978866D01*
X75339040Y-61836944D01*
X75434527Y-61671556D01*
X75493542Y-61489928D01*
X75507393Y-61358148D01*
X75512814Y-61306565D01*
X75513504Y-61300000D01*
X75493542Y-61110072D01*
X75434527Y-60928444D01*
X75339040Y-60763056D01*
X75297243Y-60716635D01*
X75215675Y-60626045D01*
X75215674Y-60626044D01*
X75211253Y-60621134D01*
X75056752Y-60508882D01*
X75050724Y-60506198D01*
X75050722Y-60506197D01*
X74888319Y-60433891D01*
X74888318Y-60433891D01*
X74882288Y-60431206D01*
X74788887Y-60411353D01*
X74701944Y-60392872D01*
X74701939Y-60392872D01*
X74695487Y-60391500D01*
X74504513Y-60391500D01*
X74498061Y-60392872D01*
X74498056Y-60392872D01*
X74411113Y-60411353D01*
X74317712Y-60431206D01*
X74311682Y-60433891D01*
X74311681Y-60433891D01*
X74149278Y-60506197D01*
X74149276Y-60506198D01*
X74143248Y-60508882D01*
X73988747Y-60621134D01*
X73984326Y-60626044D01*
X73984325Y-60626045D01*
X73902758Y-60716635D01*
X73860960Y-60763056D01*
X73765473Y-60928444D01*
X73706458Y-61110072D01*
X73686496Y-61300000D01*
X61333500Y-61300000D01*
X61333500Y-60501866D01*
X61326745Y-60439684D01*
X61275615Y-60303295D01*
X61198200Y-60200000D01*
X75886496Y-60200000D01*
X75887186Y-60206565D01*
X75904235Y-60368774D01*
X75906458Y-60389928D01*
X75965473Y-60571556D01*
X76060960Y-60736944D01*
X76188747Y-60878866D01*
X76343248Y-60991118D01*
X76349276Y-60993802D01*
X76349278Y-60993803D01*
X76439318Y-61033891D01*
X76517712Y-61068794D01*
X76586263Y-61083365D01*
X76698056Y-61107128D01*
X76698061Y-61107128D01*
X76704513Y-61108500D01*
X76895487Y-61108500D01*
X76901939Y-61107128D01*
X76901944Y-61107128D01*
X77013737Y-61083365D01*
X77082288Y-61068794D01*
X77160682Y-61033891D01*
X77250722Y-60993803D01*
X77250724Y-60993802D01*
X77256752Y-60991118D01*
X77411253Y-60878866D01*
X77539040Y-60736944D01*
X77634527Y-60571556D01*
X77693542Y-60389928D01*
X77695766Y-60368774D01*
X77712814Y-60206565D01*
X77713504Y-60200000D01*
X77697555Y-60048255D01*
X77694232Y-60016635D01*
X77694232Y-60016633D01*
X77693542Y-60010072D01*
X77634527Y-59828444D01*
X77539040Y-59663056D01*
X77530909Y-59654025D01*
X77415675Y-59526045D01*
X77415674Y-59526044D01*
X77411253Y-59521134D01*
X77298539Y-59439242D01*
X77262094Y-59412763D01*
X77262093Y-59412762D01*
X77256752Y-59408882D01*
X77250724Y-59406198D01*
X77250722Y-59406197D01*
X77088319Y-59333891D01*
X77088318Y-59333891D01*
X77082288Y-59331206D01*
X76988887Y-59311353D01*
X76901944Y-59292872D01*
X76901939Y-59292872D01*
X76895487Y-59291500D01*
X76704513Y-59291500D01*
X76698061Y-59292872D01*
X76698056Y-59292872D01*
X76611113Y-59311353D01*
X76517712Y-59331206D01*
X76511682Y-59333891D01*
X76511681Y-59333891D01*
X76349278Y-59406197D01*
X76349276Y-59406198D01*
X76343248Y-59408882D01*
X76337907Y-59412762D01*
X76337906Y-59412763D01*
X76301461Y-59439242D01*
X76188747Y-59521134D01*
X76184326Y-59526044D01*
X76184325Y-59526045D01*
X76069092Y-59654025D01*
X76060960Y-59663056D01*
X75965473Y-59828444D01*
X75906458Y-60010072D01*
X75905768Y-60016633D01*
X75905768Y-60016635D01*
X75902445Y-60048255D01*
X75886496Y-60200000D01*
X61198200Y-60200000D01*
X61188261Y-60186739D01*
X61071705Y-60099385D01*
X60935316Y-60048255D01*
X60873134Y-60041500D01*
X59076866Y-60041500D01*
X59014684Y-60048255D01*
X58878295Y-60099385D01*
X58761739Y-60186739D01*
X58674385Y-60303295D01*
X58671233Y-60311703D01*
X58629919Y-60421907D01*
X58587277Y-60478671D01*
X58520716Y-60503371D01*
X58451367Y-60488163D01*
X58418743Y-60462476D01*
X58368151Y-60406875D01*
X58368142Y-60406866D01*
X58364670Y-60403051D01*
X58360619Y-60399852D01*
X58360615Y-60399848D01*
X58193414Y-60267800D01*
X58193410Y-60267798D01*
X58189359Y-60264598D01*
X57993789Y-60156638D01*
X57988920Y-60154914D01*
X57988916Y-60154912D01*
X57788087Y-60083795D01*
X57788083Y-60083794D01*
X57783212Y-60082069D01*
X57778119Y-60081162D01*
X57778116Y-60081161D01*
X57568373Y-60043800D01*
X57568367Y-60043799D01*
X57563284Y-60042894D01*
X57489452Y-60041992D01*
X57345081Y-60040228D01*
X57345079Y-60040228D01*
X57339911Y-60040165D01*
X57119091Y-60073955D01*
X56906756Y-60143357D01*
X56708607Y-60246507D01*
X56704474Y-60249610D01*
X56704471Y-60249612D01*
X56553378Y-60363056D01*
X56529965Y-60380635D01*
X56490525Y-60421907D01*
X56436280Y-60478671D01*
X56375629Y-60542138D01*
X56372715Y-60546410D01*
X56372714Y-60546411D01*
X56287556Y-60671249D01*
X56249743Y-60726680D01*
X56235136Y-60758148D01*
X56166244Y-60906565D01*
X56155688Y-60929305D01*
X56095989Y-61144570D01*
X56072251Y-61366695D01*
X54779598Y-61366695D01*
X54834527Y-61271556D01*
X54893542Y-61089928D01*
X54896046Y-61066109D01*
X54912814Y-60906565D01*
X54913504Y-60900000D01*
X54896882Y-60741852D01*
X54894232Y-60716635D01*
X54894232Y-60716633D01*
X54893542Y-60710072D01*
X54834527Y-60528444D01*
X54805791Y-60478671D01*
X54779009Y-60432285D01*
X54739040Y-60363056D01*
X54611253Y-60221134D01*
X54456752Y-60108882D01*
X54450724Y-60106198D01*
X54450722Y-60106197D01*
X54288319Y-60033891D01*
X54288318Y-60033891D01*
X54282288Y-60031206D01*
X54182861Y-60010072D01*
X54101944Y-59992872D01*
X54101939Y-59992872D01*
X54095487Y-59991500D01*
X53904513Y-59991500D01*
X53898061Y-59992872D01*
X53898056Y-59992872D01*
X53817139Y-60010072D01*
X53717712Y-60031206D01*
X53711682Y-60033891D01*
X53711681Y-60033891D01*
X53549278Y-60106197D01*
X53549276Y-60106198D01*
X53543248Y-60108882D01*
X53388747Y-60221134D01*
X53260960Y-60363056D01*
X53220991Y-60432285D01*
X53194210Y-60478671D01*
X53165473Y-60528444D01*
X53106458Y-60710072D01*
X53105768Y-60716633D01*
X53105768Y-60716635D01*
X53103118Y-60741852D01*
X53086496Y-60900000D01*
X43508000Y-60900000D01*
X43508000Y-57700000D01*
X70186496Y-57700000D01*
X70206458Y-57889928D01*
X70265473Y-58071556D01*
X70268776Y-58077278D01*
X70268777Y-58077279D01*
X70283351Y-58102522D01*
X70360960Y-58236944D01*
X70488747Y-58378866D01*
X70643248Y-58491118D01*
X70649276Y-58493802D01*
X70649278Y-58493803D01*
X70811681Y-58566109D01*
X70817712Y-58568794D01*
X70911112Y-58588647D01*
X70998056Y-58607128D01*
X70998061Y-58607128D01*
X71004513Y-58608500D01*
X71195487Y-58608500D01*
X71201939Y-58607128D01*
X71201944Y-58607128D01*
X71288888Y-58588647D01*
X71382288Y-58568794D01*
X71388319Y-58566109D01*
X71550722Y-58493803D01*
X71550724Y-58493802D01*
X71556752Y-58491118D01*
X71711253Y-58378866D01*
X71839040Y-58236944D01*
X71916649Y-58102522D01*
X71931223Y-58077279D01*
X71931224Y-58077278D01*
X71934527Y-58071556D01*
X71993542Y-57889928D01*
X72013504Y-57700000D01*
X72486496Y-57700000D01*
X72506458Y-57889928D01*
X72565473Y-58071556D01*
X72568776Y-58077278D01*
X72568777Y-58077279D01*
X72583351Y-58102522D01*
X72660960Y-58236944D01*
X72788747Y-58378866D01*
X72943248Y-58491118D01*
X72949276Y-58493802D01*
X72949278Y-58493803D01*
X73111681Y-58566109D01*
X73117712Y-58568794D01*
X73211112Y-58588647D01*
X73298056Y-58607128D01*
X73298061Y-58607128D01*
X73304513Y-58608500D01*
X73495487Y-58608500D01*
X73501939Y-58607128D01*
X73501944Y-58607128D01*
X73588888Y-58588647D01*
X73682288Y-58568794D01*
X73688319Y-58566109D01*
X73850722Y-58493803D01*
X73850724Y-58493802D01*
X73856752Y-58491118D01*
X74011253Y-58378866D01*
X74094244Y-58286695D01*
X85037251Y-58286695D01*
X85037548Y-58291848D01*
X85037548Y-58291851D01*
X85043011Y-58386590D01*
X85050110Y-58509715D01*
X85051247Y-58514761D01*
X85051248Y-58514767D01*
X85062819Y-58566109D01*
X85099222Y-58727639D01*
X85183266Y-58934616D01*
X85299987Y-59125088D01*
X85446250Y-59293938D01*
X85618126Y-59436632D01*
X85811000Y-59549338D01*
X86019692Y-59629030D01*
X86024760Y-59630061D01*
X86024763Y-59630062D01*
X86132017Y-59651883D01*
X86238597Y-59673567D01*
X86243772Y-59673757D01*
X86243774Y-59673757D01*
X86456673Y-59681564D01*
X86456677Y-59681564D01*
X86461837Y-59681753D01*
X86466957Y-59681097D01*
X86466959Y-59681097D01*
X86678288Y-59654025D01*
X86678289Y-59654025D01*
X86683416Y-59653368D01*
X86688366Y-59651883D01*
X86892429Y-59590661D01*
X86892434Y-59590659D01*
X86897384Y-59589174D01*
X87097994Y-59490896D01*
X87279860Y-59361173D01*
X87438096Y-59203489D01*
X87497594Y-59120689D01*
X87565435Y-59026277D01*
X87568453Y-59022077D01*
X87667430Y-58821811D01*
X87732370Y-58608069D01*
X87761529Y-58386590D01*
X87763156Y-58320000D01*
X87744852Y-58097361D01*
X87690431Y-57880702D01*
X87601354Y-57675840D01*
X87494114Y-57510072D01*
X87482822Y-57492617D01*
X87482820Y-57492614D01*
X87480014Y-57488277D01*
X87329670Y-57323051D01*
X87325619Y-57319852D01*
X87325615Y-57319848D01*
X87158414Y-57187800D01*
X87158410Y-57187798D01*
X87154359Y-57184598D01*
X87113053Y-57161796D01*
X87063084Y-57111364D01*
X87048312Y-57041921D01*
X87073428Y-56975516D01*
X87100780Y-56948909D01*
X87160660Y-56906197D01*
X87279860Y-56821173D01*
X87438096Y-56663489D01*
X87497594Y-56580689D01*
X87565435Y-56486277D01*
X87568453Y-56482077D01*
X87667430Y-56281811D01*
X87732370Y-56068069D01*
X87761529Y-55846590D01*
X87763156Y-55780000D01*
X87744852Y-55557361D01*
X87690431Y-55340702D01*
X87601354Y-55135840D01*
X87480014Y-54948277D01*
X87329670Y-54783051D01*
X87325619Y-54779852D01*
X87325615Y-54779848D01*
X87158414Y-54647800D01*
X87158410Y-54647798D01*
X87154359Y-54644598D01*
X87113053Y-54621796D01*
X87063084Y-54571364D01*
X87048312Y-54501921D01*
X87073428Y-54435516D01*
X87100780Y-54408909D01*
X87144603Y-54377650D01*
X87279860Y-54281173D01*
X87438096Y-54123489D01*
X87497594Y-54040689D01*
X87565435Y-53946277D01*
X87568453Y-53942077D01*
X87638672Y-53800000D01*
X87665136Y-53746453D01*
X87665137Y-53746451D01*
X87667430Y-53741811D01*
X87732370Y-53528069D01*
X87761529Y-53306590D01*
X87763156Y-53240000D01*
X87744852Y-53017361D01*
X87690431Y-52800702D01*
X87601354Y-52595840D01*
X87480014Y-52408277D01*
X87476532Y-52404450D01*
X87332798Y-52246488D01*
X87301746Y-52182642D01*
X87310141Y-52112143D01*
X87355317Y-52057375D01*
X87381761Y-52043706D01*
X87488297Y-52003767D01*
X87496705Y-52000615D01*
X87613261Y-51913261D01*
X87700615Y-51796705D01*
X87751745Y-51660316D01*
X87758500Y-51598134D01*
X87758500Y-49801866D01*
X87751745Y-49739684D01*
X87700615Y-49603295D01*
X87613261Y-49486739D01*
X87496705Y-49399385D01*
X87360316Y-49348255D01*
X87298134Y-49341500D01*
X85501866Y-49341500D01*
X85439684Y-49348255D01*
X85303295Y-49399385D01*
X85186739Y-49486739D01*
X85099385Y-49603295D01*
X85048255Y-49739684D01*
X85041500Y-49801866D01*
X85041500Y-51598134D01*
X85048255Y-51660316D01*
X85099385Y-51796705D01*
X85186739Y-51913261D01*
X85303295Y-52000615D01*
X85311704Y-52003767D01*
X85311705Y-52003768D01*
X85420451Y-52044535D01*
X85477216Y-52087176D01*
X85501916Y-52153738D01*
X85486709Y-52223087D01*
X85467316Y-52249568D01*
X85340629Y-52382138D01*
X85214743Y-52566680D01*
X85120688Y-52769305D01*
X85060989Y-52984570D01*
X85037251Y-53206695D01*
X85037548Y-53211848D01*
X85037548Y-53211851D01*
X85043011Y-53306590D01*
X85050110Y-53429715D01*
X85051247Y-53434761D01*
X85051248Y-53434767D01*
X85071119Y-53522939D01*
X85099222Y-53647639D01*
X85183266Y-53854616D01*
X85299987Y-54045088D01*
X85446250Y-54213938D01*
X85618126Y-54356632D01*
X85688595Y-54397811D01*
X85691445Y-54399476D01*
X85740169Y-54451114D01*
X85753240Y-54520897D01*
X85726509Y-54586669D01*
X85686055Y-54620027D01*
X85673607Y-54626507D01*
X85669474Y-54629610D01*
X85669471Y-54629612D01*
X85564402Y-54708500D01*
X85494965Y-54760635D01*
X85340629Y-54922138D01*
X85214743Y-55106680D01*
X85120688Y-55309305D01*
X85060989Y-55524570D01*
X85037251Y-55746695D01*
X85037548Y-55751848D01*
X85037548Y-55751851D01*
X85043011Y-55846590D01*
X85050110Y-55969715D01*
X85051247Y-55974761D01*
X85051248Y-55974767D01*
X85071119Y-56062939D01*
X85099222Y-56187639D01*
X85183266Y-56394616D01*
X85299987Y-56585088D01*
X85446250Y-56753938D01*
X85618126Y-56896632D01*
X85645731Y-56912763D01*
X85691445Y-56939476D01*
X85740169Y-56991114D01*
X85753240Y-57060897D01*
X85726509Y-57126669D01*
X85686055Y-57160027D01*
X85673607Y-57166507D01*
X85669474Y-57169610D01*
X85669471Y-57169612D01*
X85645247Y-57187800D01*
X85494965Y-57300635D01*
X85340629Y-57462138D01*
X85214743Y-57646680D01*
X85120688Y-57849305D01*
X85060989Y-58064570D01*
X85037251Y-58286695D01*
X74094244Y-58286695D01*
X74139040Y-58236944D01*
X74216649Y-58102522D01*
X74231223Y-58077279D01*
X74231224Y-58077278D01*
X74234527Y-58071556D01*
X74293542Y-57889928D01*
X74313504Y-57700000D01*
X74293542Y-57510072D01*
X74234527Y-57328444D01*
X74218472Y-57300635D01*
X74142341Y-57168774D01*
X74139040Y-57163056D01*
X74092497Y-57111364D01*
X74015675Y-57026045D01*
X74015674Y-57026044D01*
X74011253Y-57021134D01*
X73856752Y-56908882D01*
X73850724Y-56906198D01*
X73850722Y-56906197D01*
X73688319Y-56833891D01*
X73688318Y-56833891D01*
X73682288Y-56831206D01*
X73588887Y-56811353D01*
X73501944Y-56792872D01*
X73501939Y-56792872D01*
X73495487Y-56791500D01*
X73304513Y-56791500D01*
X73298061Y-56792872D01*
X73298056Y-56792872D01*
X73211113Y-56811353D01*
X73117712Y-56831206D01*
X73111682Y-56833891D01*
X73111681Y-56833891D01*
X72949278Y-56906197D01*
X72949276Y-56906198D01*
X72943248Y-56908882D01*
X72788747Y-57021134D01*
X72784326Y-57026044D01*
X72784325Y-57026045D01*
X72707504Y-57111364D01*
X72660960Y-57163056D01*
X72657659Y-57168774D01*
X72581529Y-57300635D01*
X72565473Y-57328444D01*
X72506458Y-57510072D01*
X72486496Y-57700000D01*
X72013504Y-57700000D01*
X71993542Y-57510072D01*
X71934527Y-57328444D01*
X71918472Y-57300635D01*
X71842341Y-57168774D01*
X71839040Y-57163056D01*
X71792497Y-57111364D01*
X71715675Y-57026045D01*
X71715674Y-57026044D01*
X71711253Y-57021134D01*
X71556752Y-56908882D01*
X71550724Y-56906198D01*
X71550722Y-56906197D01*
X71388319Y-56833891D01*
X71388318Y-56833891D01*
X71382288Y-56831206D01*
X71288887Y-56811353D01*
X71201944Y-56792872D01*
X71201939Y-56792872D01*
X71195487Y-56791500D01*
X71004513Y-56791500D01*
X70998061Y-56792872D01*
X70998056Y-56792872D01*
X70911113Y-56811353D01*
X70817712Y-56831206D01*
X70811682Y-56833891D01*
X70811681Y-56833891D01*
X70649278Y-56906197D01*
X70649276Y-56906198D01*
X70643248Y-56908882D01*
X70488747Y-57021134D01*
X70484326Y-57026044D01*
X70484325Y-57026045D01*
X70407504Y-57111364D01*
X70360960Y-57163056D01*
X70357659Y-57168774D01*
X70281529Y-57300635D01*
X70265473Y-57328444D01*
X70206458Y-57510072D01*
X70186496Y-57700000D01*
X43508000Y-57700000D01*
X43508000Y-53800000D01*
X71486496Y-53800000D01*
X71506458Y-53989928D01*
X71565473Y-54171556D01*
X71660960Y-54336944D01*
X71665378Y-54341851D01*
X71665379Y-54341852D01*
X71763759Y-54451114D01*
X71788747Y-54478866D01*
X71868263Y-54536638D01*
X71937125Y-54586669D01*
X71943248Y-54591118D01*
X71949276Y-54593802D01*
X71949278Y-54593803D01*
X72070558Y-54647800D01*
X72117712Y-54668794D01*
X72211113Y-54688647D01*
X72298056Y-54707128D01*
X72298061Y-54707128D01*
X72304513Y-54708500D01*
X72495487Y-54708500D01*
X72501939Y-54707128D01*
X72501944Y-54707128D01*
X72588887Y-54688647D01*
X72682288Y-54668794D01*
X72729442Y-54647800D01*
X72850722Y-54593803D01*
X72850724Y-54593802D01*
X72856752Y-54591118D01*
X72862876Y-54586669D01*
X72931737Y-54536638D01*
X73011253Y-54478866D01*
X73036241Y-54451114D01*
X73134621Y-54341852D01*
X73134622Y-54341851D01*
X73139040Y-54336944D01*
X73234527Y-54171556D01*
X73293542Y-53989928D01*
X73313504Y-53800000D01*
X73307388Y-53741811D01*
X73294232Y-53616635D01*
X73294232Y-53616633D01*
X73293542Y-53610072D01*
X73234527Y-53428444D01*
X73139040Y-53263056D01*
X73115261Y-53236646D01*
X73015675Y-53126045D01*
X73015674Y-53126044D01*
X73011253Y-53121134D01*
X72875526Y-53022522D01*
X72862094Y-53012763D01*
X72862093Y-53012762D01*
X72856752Y-53008882D01*
X72850724Y-53006198D01*
X72850722Y-53006197D01*
X72688319Y-52933891D01*
X72688318Y-52933891D01*
X72682288Y-52931206D01*
X72588888Y-52911353D01*
X72501944Y-52892872D01*
X72501939Y-52892872D01*
X72495487Y-52891500D01*
X72304513Y-52891500D01*
X72298061Y-52892872D01*
X72298056Y-52892872D01*
X72211112Y-52911353D01*
X72117712Y-52931206D01*
X72111682Y-52933891D01*
X72111681Y-52933891D01*
X71949278Y-53006197D01*
X71949276Y-53006198D01*
X71943248Y-53008882D01*
X71937907Y-53012762D01*
X71937906Y-53012763D01*
X71924474Y-53022522D01*
X71788747Y-53121134D01*
X71784326Y-53126044D01*
X71784325Y-53126045D01*
X71684740Y-53236646D01*
X71660960Y-53263056D01*
X71565473Y-53428444D01*
X71506458Y-53610072D01*
X71505768Y-53616633D01*
X71505768Y-53616635D01*
X71492612Y-53741811D01*
X71486496Y-53800000D01*
X43508000Y-53800000D01*
X43508000Y-49500000D01*
X56486496Y-49500000D01*
X56487186Y-49506565D01*
X56497353Y-49603295D01*
X56506458Y-49689928D01*
X56565473Y-49871556D01*
X56660960Y-50036944D01*
X56788747Y-50178866D01*
X56943248Y-50291118D01*
X56949276Y-50293802D01*
X56949278Y-50293803D01*
X57111681Y-50366109D01*
X57117712Y-50368794D01*
X57211112Y-50388647D01*
X57298056Y-50407128D01*
X57298061Y-50407128D01*
X57304513Y-50408500D01*
X57495487Y-50408500D01*
X57501939Y-50407128D01*
X57501944Y-50407128D01*
X57588888Y-50388647D01*
X57682288Y-50368794D01*
X57688319Y-50366109D01*
X57850722Y-50293803D01*
X57850724Y-50293802D01*
X57856752Y-50291118D01*
X57975940Y-50204523D01*
X58042806Y-50180665D01*
X58111958Y-50196745D01*
X58124058Y-50204521D01*
X58243248Y-50291118D01*
X58249276Y-50293802D01*
X58249278Y-50293803D01*
X58411681Y-50366109D01*
X58417712Y-50368794D01*
X58511112Y-50388647D01*
X58598056Y-50407128D01*
X58598061Y-50407128D01*
X58604513Y-50408500D01*
X58795487Y-50408500D01*
X58801939Y-50407128D01*
X58801944Y-50407128D01*
X58888888Y-50388647D01*
X58982288Y-50368794D01*
X58988319Y-50366109D01*
X59150722Y-50293803D01*
X59150724Y-50293802D01*
X59156752Y-50291118D01*
X59275940Y-50204523D01*
X59342806Y-50180665D01*
X59411958Y-50196745D01*
X59424058Y-50204521D01*
X59543248Y-50291118D01*
X59549276Y-50293802D01*
X59549278Y-50293803D01*
X59711681Y-50366109D01*
X59717712Y-50368794D01*
X59811112Y-50388647D01*
X59898056Y-50407128D01*
X59898061Y-50407128D01*
X59904513Y-50408500D01*
X60095487Y-50408500D01*
X60101939Y-50407128D01*
X60101944Y-50407128D01*
X60188888Y-50388647D01*
X60282288Y-50368794D01*
X60288319Y-50366109D01*
X60450722Y-50293803D01*
X60450724Y-50293802D01*
X60456752Y-50291118D01*
X60611253Y-50178866D01*
X60739040Y-50036944D01*
X60834527Y-49871556D01*
X60893542Y-49689928D01*
X60902648Y-49603295D01*
X60912814Y-49506565D01*
X60913504Y-49500000D01*
X60897555Y-49348255D01*
X60894232Y-49316635D01*
X60894232Y-49316633D01*
X60893542Y-49310072D01*
X60834527Y-49128444D01*
X60739040Y-48963056D01*
X60668137Y-48884310D01*
X60637419Y-48820303D01*
X60646184Y-48749849D01*
X60668137Y-48715690D01*
X60734621Y-48641852D01*
X60734622Y-48641851D01*
X60739040Y-48636944D01*
X60813197Y-48508500D01*
X60831223Y-48477279D01*
X60831224Y-48477278D01*
X60834527Y-48471556D01*
X60893542Y-48289928D01*
X60913504Y-48100000D01*
X60895473Y-47928444D01*
X60894232Y-47916635D01*
X60894232Y-47916633D01*
X60893542Y-47910072D01*
X60834527Y-47728444D01*
X60760370Y-47600000D01*
X71686496Y-47600000D01*
X71687186Y-47606565D01*
X71704235Y-47768774D01*
X71706458Y-47789928D01*
X71765473Y-47971556D01*
X71860960Y-48136944D01*
X71988747Y-48278866D01*
X72143248Y-48391118D01*
X72149276Y-48393802D01*
X72149278Y-48393803D01*
X72309799Y-48465271D01*
X72317712Y-48468794D01*
X72386263Y-48483365D01*
X72498056Y-48507128D01*
X72498061Y-48507128D01*
X72504513Y-48508500D01*
X72695487Y-48508500D01*
X72701939Y-48507128D01*
X72701944Y-48507128D01*
X72813737Y-48483365D01*
X72882288Y-48468794D01*
X72890201Y-48465271D01*
X73050722Y-48393803D01*
X73050724Y-48393802D01*
X73056752Y-48391118D01*
X73182165Y-48300000D01*
X75886496Y-48300000D01*
X75887186Y-48306565D01*
X75905129Y-48477279D01*
X75906458Y-48489928D01*
X75965473Y-48671556D01*
X76060960Y-48836944D01*
X76065378Y-48841851D01*
X76065379Y-48841852D01*
X76085472Y-48864167D01*
X76188747Y-48978866D01*
X76343248Y-49091118D01*
X76349276Y-49093802D01*
X76349278Y-49093803D01*
X76441200Y-49134729D01*
X76517712Y-49168794D01*
X76611113Y-49188647D01*
X76698056Y-49207128D01*
X76698061Y-49207128D01*
X76704513Y-49208500D01*
X76895487Y-49208500D01*
X76901939Y-49207128D01*
X76901944Y-49207128D01*
X76988887Y-49188647D01*
X77082288Y-49168794D01*
X77158800Y-49134729D01*
X77250722Y-49093803D01*
X77250724Y-49093802D01*
X77256752Y-49091118D01*
X77411253Y-48978866D01*
X77514528Y-48864167D01*
X77534621Y-48841852D01*
X77534622Y-48841851D01*
X77539040Y-48836944D01*
X77634527Y-48671556D01*
X77693542Y-48489928D01*
X77694872Y-48477279D01*
X77712814Y-48306565D01*
X77713504Y-48300000D01*
X77696882Y-48141852D01*
X77694232Y-48116635D01*
X77694232Y-48116633D01*
X77693542Y-48110072D01*
X77634527Y-47928444D01*
X77539040Y-47763056D01*
X77411253Y-47621134D01*
X77256752Y-47508882D01*
X77250724Y-47506198D01*
X77250722Y-47506197D01*
X77088319Y-47433891D01*
X77088318Y-47433891D01*
X77082288Y-47431206D01*
X76982861Y-47410072D01*
X76901944Y-47392872D01*
X76901939Y-47392872D01*
X76895487Y-47391500D01*
X76704513Y-47391500D01*
X76698061Y-47392872D01*
X76698056Y-47392872D01*
X76617139Y-47410072D01*
X76517712Y-47431206D01*
X76511682Y-47433891D01*
X76511681Y-47433891D01*
X76349278Y-47506197D01*
X76349276Y-47506198D01*
X76343248Y-47508882D01*
X76188747Y-47621134D01*
X76060960Y-47763056D01*
X75965473Y-47928444D01*
X75906458Y-48110072D01*
X75905768Y-48116633D01*
X75905768Y-48116635D01*
X75903118Y-48141852D01*
X75886496Y-48300000D01*
X73182165Y-48300000D01*
X73211253Y-48278866D01*
X73339040Y-48136944D01*
X73434527Y-47971556D01*
X73493542Y-47789928D01*
X73495766Y-47768774D01*
X73512814Y-47606565D01*
X73513504Y-47600000D01*
X73499228Y-47464167D01*
X73494232Y-47416635D01*
X73494232Y-47416633D01*
X73493542Y-47410072D01*
X73474976Y-47352932D01*
X73472948Y-47281966D01*
X73509610Y-47221168D01*
X73573322Y-47189843D01*
X73621006Y-47190750D01*
X73698056Y-47207128D01*
X73698061Y-47207128D01*
X73704513Y-47208500D01*
X73895487Y-47208500D01*
X73901939Y-47207128D01*
X73901944Y-47207128D01*
X73988887Y-47188647D01*
X74082288Y-47168794D01*
X74088319Y-47166109D01*
X74250722Y-47093803D01*
X74250724Y-47093802D01*
X74256752Y-47091118D01*
X74411253Y-46978866D01*
X74501385Y-46878765D01*
X74561830Y-46841525D01*
X74632813Y-46842877D01*
X74677553Y-46871618D01*
X74679423Y-46869541D01*
X74684325Y-46873954D01*
X74688747Y-46878866D01*
X74741579Y-46917251D01*
X74826385Y-46978866D01*
X74843248Y-46991118D01*
X74849276Y-46993802D01*
X74849278Y-46993803D01*
X75004824Y-47063056D01*
X75017712Y-47068794D01*
X75104479Y-47087237D01*
X75198056Y-47107128D01*
X75198061Y-47107128D01*
X75204513Y-47108500D01*
X75395487Y-47108500D01*
X75401939Y-47107128D01*
X75401944Y-47107128D01*
X75495521Y-47087237D01*
X75582288Y-47068794D01*
X75595176Y-47063056D01*
X75750722Y-46993803D01*
X75750724Y-46993802D01*
X75756752Y-46991118D01*
X75773616Y-46978866D01*
X75858421Y-46917251D01*
X75911253Y-46878866D01*
X75974267Y-46808882D01*
X76034621Y-46741852D01*
X76034622Y-46741851D01*
X76039040Y-46736944D01*
X76134527Y-46571556D01*
X76193542Y-46389928D01*
X76213504Y-46200000D01*
X76209105Y-46158148D01*
X76194232Y-46016635D01*
X76194232Y-46016633D01*
X76193542Y-46010072D01*
X76134527Y-45828444D01*
X76113990Y-45792872D01*
X76096775Y-45763056D01*
X76039040Y-45663056D01*
X76007820Y-45628382D01*
X75915675Y-45526045D01*
X75915674Y-45526044D01*
X75911253Y-45521134D01*
X75756752Y-45408882D01*
X75750724Y-45406198D01*
X75750722Y-45406197D01*
X75588319Y-45333891D01*
X75588318Y-45333891D01*
X75582288Y-45331206D01*
X75488887Y-45311353D01*
X75401944Y-45292872D01*
X75401939Y-45292872D01*
X75395487Y-45291500D01*
X75204513Y-45291500D01*
X75198061Y-45292872D01*
X75198056Y-45292872D01*
X75111113Y-45311353D01*
X75017712Y-45331206D01*
X75011682Y-45333891D01*
X75011681Y-45333891D01*
X74849278Y-45406197D01*
X74849276Y-45406198D01*
X74843248Y-45408882D01*
X74688747Y-45521134D01*
X74684326Y-45526044D01*
X74684325Y-45526045D01*
X74598616Y-45621235D01*
X74538170Y-45658475D01*
X74467187Y-45657123D01*
X74422447Y-45628382D01*
X74420577Y-45630459D01*
X74415675Y-45626045D01*
X74411253Y-45621134D01*
X74280375Y-45526045D01*
X74262094Y-45512763D01*
X74262093Y-45512762D01*
X74256752Y-45508882D01*
X74250724Y-45506198D01*
X74250722Y-45506197D01*
X74088319Y-45433891D01*
X74088318Y-45433891D01*
X74082288Y-45431206D01*
X73982861Y-45410072D01*
X73901944Y-45392872D01*
X73901939Y-45392872D01*
X73895487Y-45391500D01*
X73704513Y-45391500D01*
X73698061Y-45392872D01*
X73698056Y-45392872D01*
X73617139Y-45410072D01*
X73517712Y-45431206D01*
X73511682Y-45433891D01*
X73511681Y-45433891D01*
X73349278Y-45506197D01*
X73349276Y-45506198D01*
X73343248Y-45508882D01*
X73337907Y-45512762D01*
X73337906Y-45512763D01*
X73319625Y-45526045D01*
X73188747Y-45621134D01*
X73060960Y-45763056D01*
X72965473Y-45928444D01*
X72906458Y-46110072D01*
X72905768Y-46116633D01*
X72905768Y-46116635D01*
X72903118Y-46141852D01*
X72886496Y-46300000D01*
X72887186Y-46306565D01*
X72903955Y-46466109D01*
X72906458Y-46489928D01*
X72925024Y-46547068D01*
X72927052Y-46618034D01*
X72890390Y-46678832D01*
X72826678Y-46710157D01*
X72778994Y-46709250D01*
X72701944Y-46692872D01*
X72701939Y-46692872D01*
X72695487Y-46691500D01*
X72504513Y-46691500D01*
X72498061Y-46692872D01*
X72498056Y-46692872D01*
X72433638Y-46706565D01*
X72317712Y-46731206D01*
X72311682Y-46733891D01*
X72311681Y-46733891D01*
X72149278Y-46806197D01*
X72149276Y-46806198D01*
X72143248Y-46808882D01*
X71988747Y-46921134D01*
X71984326Y-46926044D01*
X71984325Y-46926045D01*
X71923316Y-46993803D01*
X71860960Y-47063056D01*
X71765473Y-47228444D01*
X71706458Y-47410072D01*
X71705768Y-47416633D01*
X71705768Y-47416635D01*
X71700772Y-47464167D01*
X71686496Y-47600000D01*
X60760370Y-47600000D01*
X60739040Y-47563056D01*
X60668137Y-47484310D01*
X60637419Y-47420303D01*
X60646184Y-47349849D01*
X60668137Y-47315690D01*
X60734621Y-47241852D01*
X60734622Y-47241851D01*
X60739040Y-47236944D01*
X60813197Y-47108500D01*
X60831223Y-47077279D01*
X60831224Y-47077278D01*
X60834527Y-47071556D01*
X60893542Y-46889928D01*
X60895467Y-46871618D01*
X60912814Y-46706565D01*
X60913504Y-46700000D01*
X60893542Y-46510072D01*
X60834527Y-46328444D01*
X60739040Y-46163056D01*
X60697243Y-46116635D01*
X60615675Y-46026045D01*
X60615674Y-46026044D01*
X60611253Y-46021134D01*
X60456752Y-45908882D01*
X60450724Y-45906198D01*
X60450722Y-45906197D01*
X60288319Y-45833891D01*
X60288318Y-45833891D01*
X60282288Y-45831206D01*
X60188888Y-45811353D01*
X60101944Y-45792872D01*
X60101939Y-45792872D01*
X60095487Y-45791500D01*
X59904513Y-45791500D01*
X59898061Y-45792872D01*
X59898056Y-45792872D01*
X59811112Y-45811353D01*
X59717712Y-45831206D01*
X59711682Y-45833891D01*
X59711681Y-45833891D01*
X59549278Y-45906197D01*
X59549276Y-45906198D01*
X59543248Y-45908882D01*
X59430061Y-45991118D01*
X59424061Y-45995477D01*
X59357194Y-46019335D01*
X59288042Y-46003255D01*
X59275939Y-45995477D01*
X59269940Y-45991118D01*
X59156752Y-45908882D01*
X59150724Y-45906198D01*
X59150722Y-45906197D01*
X58988319Y-45833891D01*
X58988318Y-45833891D01*
X58982288Y-45831206D01*
X58888888Y-45811353D01*
X58801944Y-45792872D01*
X58801939Y-45792872D01*
X58795487Y-45791500D01*
X58604513Y-45791500D01*
X58598061Y-45792872D01*
X58598056Y-45792872D01*
X58511112Y-45811353D01*
X58417712Y-45831206D01*
X58411682Y-45833891D01*
X58411681Y-45833891D01*
X58249278Y-45906197D01*
X58249276Y-45906198D01*
X58243248Y-45908882D01*
X58130061Y-45991118D01*
X58124061Y-45995477D01*
X58057194Y-46019335D01*
X57988042Y-46003255D01*
X57975939Y-45995477D01*
X57969940Y-45991118D01*
X57856752Y-45908882D01*
X57850724Y-45906198D01*
X57850722Y-45906197D01*
X57688319Y-45833891D01*
X57688318Y-45833891D01*
X57682288Y-45831206D01*
X57588888Y-45811353D01*
X57501944Y-45792872D01*
X57501939Y-45792872D01*
X57495487Y-45791500D01*
X57304513Y-45791500D01*
X57298061Y-45792872D01*
X57298056Y-45792872D01*
X57211112Y-45811353D01*
X57117712Y-45831206D01*
X57111682Y-45833891D01*
X57111681Y-45833891D01*
X56949278Y-45906197D01*
X56949276Y-45906198D01*
X56943248Y-45908882D01*
X56788747Y-46021134D01*
X56784326Y-46026044D01*
X56784325Y-46026045D01*
X56702758Y-46116635D01*
X56660960Y-46163056D01*
X56565473Y-46328444D01*
X56506458Y-46510072D01*
X56486496Y-46700000D01*
X56487186Y-46706565D01*
X56504534Y-46871618D01*
X56506458Y-46889928D01*
X56565473Y-47071556D01*
X56568776Y-47077278D01*
X56568777Y-47077279D01*
X56586803Y-47108500D01*
X56660960Y-47236944D01*
X56665378Y-47241851D01*
X56665379Y-47241852D01*
X56731863Y-47315690D01*
X56762581Y-47379697D01*
X56753816Y-47450151D01*
X56731863Y-47484310D01*
X56660960Y-47563056D01*
X56565473Y-47728444D01*
X56506458Y-47910072D01*
X56505768Y-47916633D01*
X56505768Y-47916635D01*
X56504527Y-47928444D01*
X56486496Y-48100000D01*
X56506458Y-48289928D01*
X56565473Y-48471556D01*
X56568776Y-48477278D01*
X56568777Y-48477279D01*
X56586803Y-48508500D01*
X56660960Y-48636944D01*
X56665378Y-48641851D01*
X56665379Y-48641852D01*
X56731863Y-48715690D01*
X56762581Y-48779697D01*
X56753816Y-48850151D01*
X56731863Y-48884310D01*
X56660960Y-48963056D01*
X56565473Y-49128444D01*
X56506458Y-49310072D01*
X56505768Y-49316633D01*
X56505768Y-49316635D01*
X56502445Y-49348255D01*
X56486496Y-49500000D01*
X43508000Y-49500000D01*
X43508000Y-45200000D01*
X48286496Y-45200000D01*
X48287186Y-45206565D01*
X48302747Y-45354616D01*
X48306458Y-45389928D01*
X48365473Y-45571556D01*
X48460960Y-45736944D01*
X48465378Y-45741851D01*
X48465379Y-45741852D01*
X48568727Y-45856632D01*
X48588747Y-45878866D01*
X48649108Y-45922721D01*
X48713271Y-45969338D01*
X48743248Y-45991118D01*
X48749276Y-45993802D01*
X48749278Y-45993803D01*
X48911681Y-46066109D01*
X48917712Y-46068794D01*
X49011112Y-46088647D01*
X49098056Y-46107128D01*
X49098061Y-46107128D01*
X49104513Y-46108500D01*
X49295487Y-46108500D01*
X49301939Y-46107128D01*
X49301944Y-46107128D01*
X49388888Y-46088647D01*
X49482288Y-46068794D01*
X49488319Y-46066109D01*
X49650722Y-45993803D01*
X49650724Y-45993802D01*
X49656752Y-45991118D01*
X49686730Y-45969338D01*
X49750892Y-45922721D01*
X49811253Y-45878866D01*
X49831273Y-45856632D01*
X49934621Y-45741852D01*
X49934622Y-45741851D01*
X49939040Y-45736944D01*
X50018105Y-45600000D01*
X69486496Y-45600000D01*
X69487186Y-45606565D01*
X69504235Y-45768774D01*
X69506458Y-45789928D01*
X69565473Y-45971556D01*
X69660960Y-46136944D01*
X69788747Y-46278866D01*
X69943248Y-46391118D01*
X69949276Y-46393802D01*
X69949278Y-46393803D01*
X70111681Y-46466109D01*
X70117712Y-46468794D01*
X70186263Y-46483365D01*
X70298056Y-46507128D01*
X70298061Y-46507128D01*
X70304513Y-46508500D01*
X70495487Y-46508500D01*
X70501939Y-46507128D01*
X70501944Y-46507128D01*
X70613737Y-46483365D01*
X70682288Y-46468794D01*
X70688319Y-46466109D01*
X70850722Y-46393803D01*
X70850724Y-46393802D01*
X70856752Y-46391118D01*
X71011253Y-46278866D01*
X71139040Y-46136944D01*
X71234527Y-45971556D01*
X71293542Y-45789928D01*
X71295766Y-45768774D01*
X71312814Y-45606565D01*
X71313504Y-45600000D01*
X71296418Y-45437438D01*
X71294232Y-45416635D01*
X71294232Y-45416633D01*
X71293542Y-45410072D01*
X71234527Y-45228444D01*
X71139040Y-45063056D01*
X71097243Y-45016635D01*
X71015675Y-44926045D01*
X71015674Y-44926044D01*
X71011253Y-44921134D01*
X70856752Y-44808882D01*
X70850724Y-44806198D01*
X70850722Y-44806197D01*
X70688319Y-44733891D01*
X70688318Y-44733891D01*
X70682288Y-44731206D01*
X70588887Y-44711353D01*
X70566974Y-44706695D01*
X84837251Y-44706695D01*
X84837548Y-44711848D01*
X84837548Y-44711851D01*
X84842988Y-44806197D01*
X84850110Y-44929715D01*
X84851247Y-44934761D01*
X84851248Y-44934767D01*
X84871119Y-45022939D01*
X84899222Y-45147639D01*
X84937461Y-45241811D01*
X84974851Y-45333891D01*
X84983266Y-45354616D01*
X85030200Y-45431206D01*
X85082929Y-45517251D01*
X85099987Y-45545088D01*
X85246250Y-45713938D01*
X85418126Y-45856632D01*
X85611000Y-45969338D01*
X85819692Y-46049030D01*
X85824760Y-46050061D01*
X85824763Y-46050062D01*
X85923578Y-46070166D01*
X86038597Y-46093567D01*
X86043772Y-46093757D01*
X86043774Y-46093757D01*
X86256673Y-46101564D01*
X86256677Y-46101564D01*
X86261837Y-46101753D01*
X86266957Y-46101097D01*
X86266959Y-46101097D01*
X86478288Y-46074025D01*
X86478289Y-46074025D01*
X86483416Y-46073368D01*
X86498662Y-46068794D01*
X86692429Y-46010661D01*
X86692434Y-46010659D01*
X86697384Y-46009174D01*
X86897994Y-45910896D01*
X87079860Y-45781173D01*
X87092303Y-45768774D01*
X87198390Y-45663056D01*
X87238096Y-45623489D01*
X87242579Y-45617251D01*
X87365435Y-45446277D01*
X87368453Y-45442077D01*
X87392772Y-45392872D01*
X87465136Y-45246453D01*
X87465137Y-45246451D01*
X87467430Y-45241811D01*
X87532370Y-45028069D01*
X87561529Y-44806590D01*
X87563156Y-44740000D01*
X87544852Y-44517361D01*
X87490431Y-44300702D01*
X87401354Y-44095840D01*
X87280014Y-43908277D01*
X87276532Y-43904450D01*
X87132798Y-43746488D01*
X87101746Y-43682642D01*
X87110141Y-43612143D01*
X87155317Y-43557375D01*
X87181761Y-43543706D01*
X87288297Y-43503767D01*
X87296705Y-43500615D01*
X87413261Y-43413261D01*
X87500615Y-43296705D01*
X87551745Y-43160316D01*
X87558500Y-43098134D01*
X87558500Y-41301866D01*
X87551745Y-41239684D01*
X87500615Y-41103295D01*
X87413261Y-40986739D01*
X87296705Y-40899385D01*
X87160316Y-40848255D01*
X87098134Y-40841500D01*
X85301866Y-40841500D01*
X85239684Y-40848255D01*
X85103295Y-40899385D01*
X84986739Y-40986739D01*
X84899385Y-41103295D01*
X84848255Y-41239684D01*
X84841500Y-41301866D01*
X84841500Y-43098134D01*
X84848255Y-43160316D01*
X84899385Y-43296705D01*
X84986739Y-43413261D01*
X85103295Y-43500615D01*
X85111704Y-43503767D01*
X85111705Y-43503768D01*
X85220451Y-43544535D01*
X85277216Y-43587176D01*
X85301916Y-43653738D01*
X85286709Y-43723087D01*
X85267316Y-43749568D01*
X85140629Y-43882138D01*
X85014743Y-44066680D01*
X84920688Y-44269305D01*
X84860989Y-44484570D01*
X84837251Y-44706695D01*
X70566974Y-44706695D01*
X70501944Y-44692872D01*
X70501939Y-44692872D01*
X70495487Y-44691500D01*
X70304513Y-44691500D01*
X70298061Y-44692872D01*
X70298056Y-44692872D01*
X70211113Y-44711353D01*
X70117712Y-44731206D01*
X70111682Y-44733891D01*
X70111681Y-44733891D01*
X69949278Y-44806197D01*
X69949276Y-44806198D01*
X69943248Y-44808882D01*
X69788747Y-44921134D01*
X69784326Y-44926044D01*
X69784325Y-44926045D01*
X69702758Y-45016635D01*
X69660960Y-45063056D01*
X69565473Y-45228444D01*
X69506458Y-45410072D01*
X69505768Y-45416633D01*
X69505768Y-45416635D01*
X69503582Y-45437438D01*
X69486496Y-45600000D01*
X50018105Y-45600000D01*
X50034527Y-45571556D01*
X50093542Y-45389928D01*
X50097254Y-45354616D01*
X50112814Y-45206565D01*
X50113504Y-45200000D01*
X50095434Y-45028069D01*
X50094232Y-45016635D01*
X50094232Y-45016633D01*
X50093542Y-45010072D01*
X50034527Y-44828444D01*
X50019976Y-44803240D01*
X49997314Y-44763990D01*
X49939040Y-44663056D01*
X49811253Y-44521134D01*
X49656752Y-44408882D01*
X49650724Y-44406198D01*
X49650722Y-44406197D01*
X49488319Y-44333891D01*
X49488318Y-44333891D01*
X49482288Y-44331206D01*
X49388887Y-44311353D01*
X49301944Y-44292872D01*
X49301939Y-44292872D01*
X49295487Y-44291500D01*
X49104513Y-44291500D01*
X49098061Y-44292872D01*
X49098056Y-44292872D01*
X49011113Y-44311353D01*
X48917712Y-44331206D01*
X48911682Y-44333891D01*
X48911681Y-44333891D01*
X48749278Y-44406197D01*
X48749276Y-44406198D01*
X48743248Y-44408882D01*
X48588747Y-44521134D01*
X48460960Y-44663056D01*
X48402686Y-44763990D01*
X48380025Y-44803240D01*
X48365473Y-44828444D01*
X48306458Y-45010072D01*
X48305768Y-45016633D01*
X48305768Y-45016635D01*
X48304566Y-45028069D01*
X48286496Y-45200000D01*
X43508000Y-45200000D01*
X43508000Y-41700000D01*
X70386496Y-41700000D01*
X70406458Y-41889928D01*
X70465473Y-42071556D01*
X70560960Y-42236944D01*
X70688747Y-42378866D01*
X70843248Y-42491118D01*
X70849276Y-42493802D01*
X70849278Y-42493803D01*
X71011681Y-42566109D01*
X71017712Y-42568794D01*
X71111113Y-42588647D01*
X71198056Y-42607128D01*
X71198061Y-42607128D01*
X71204513Y-42608500D01*
X71395487Y-42608500D01*
X71401939Y-42607128D01*
X71401944Y-42607128D01*
X71488888Y-42588647D01*
X71582288Y-42568794D01*
X71588319Y-42566109D01*
X71750722Y-42493803D01*
X71750724Y-42493802D01*
X71756752Y-42491118D01*
X71911253Y-42378866D01*
X72039040Y-42236944D01*
X72134527Y-42071556D01*
X72193542Y-41889928D01*
X72213504Y-41700000D01*
X72193542Y-41510072D01*
X72134527Y-41328444D01*
X72079010Y-41232285D01*
X72044339Y-41172234D01*
X72027601Y-41103239D01*
X72050821Y-41036147D01*
X72059810Y-41024938D01*
X72139040Y-40936944D01*
X72234527Y-40771556D01*
X72293542Y-40589928D01*
X72294872Y-40577279D01*
X72312814Y-40406565D01*
X72313504Y-40400000D01*
X72293542Y-40210072D01*
X72234527Y-40028444D01*
X72139040Y-39863056D01*
X72011253Y-39721134D01*
X71856752Y-39608882D01*
X71850724Y-39606198D01*
X71850722Y-39606197D01*
X71688319Y-39533891D01*
X71688318Y-39533891D01*
X71682288Y-39531206D01*
X71588888Y-39511353D01*
X71501944Y-39492872D01*
X71501939Y-39492872D01*
X71495487Y-39491500D01*
X71304513Y-39491500D01*
X71298061Y-39492872D01*
X71298056Y-39492872D01*
X71211112Y-39511353D01*
X71117712Y-39531206D01*
X71111682Y-39533891D01*
X71111681Y-39533891D01*
X70949278Y-39606197D01*
X70949276Y-39606198D01*
X70943248Y-39608882D01*
X70788747Y-39721134D01*
X70660960Y-39863056D01*
X70565473Y-40028444D01*
X70506458Y-40210072D01*
X70486496Y-40400000D01*
X70487186Y-40406565D01*
X70505129Y-40577279D01*
X70506458Y-40589928D01*
X70565473Y-40771556D01*
X70568776Y-40777278D01*
X70568777Y-40777279D01*
X70655661Y-40927766D01*
X70672399Y-40996761D01*
X70649179Y-41063853D01*
X70640190Y-41075062D01*
X70560960Y-41163056D01*
X70465473Y-41328444D01*
X70406458Y-41510072D01*
X70386496Y-41700000D01*
X43508000Y-41700000D01*
X43508000Y-41169448D01*
X43528002Y-41101327D01*
X43581658Y-41054834D01*
X43651932Y-41044730D01*
X43685247Y-41054341D01*
X43711673Y-41066106D01*
X43711679Y-41066108D01*
X43717712Y-41068794D01*
X43811112Y-41088647D01*
X43898056Y-41107128D01*
X43898061Y-41107128D01*
X43904513Y-41108500D01*
X44095487Y-41108500D01*
X44101939Y-41107128D01*
X44101944Y-41107128D01*
X44188888Y-41088647D01*
X44282288Y-41068794D01*
X44288319Y-41066109D01*
X44450722Y-40993803D01*
X44450724Y-40993802D01*
X44456752Y-40991118D01*
X44470186Y-40981358D01*
X44587349Y-40896233D01*
X44611253Y-40878866D01*
X44644565Y-40841869D01*
X44734621Y-40741852D01*
X44734622Y-40741851D01*
X44739040Y-40736944D01*
X44834527Y-40571556D01*
X44893542Y-40389928D01*
X44913504Y-40200000D01*
X44895473Y-40028444D01*
X44894232Y-40016635D01*
X44894232Y-40016633D01*
X44893542Y-40010072D01*
X44834527Y-39828444D01*
X44739040Y-39663056D01*
X44622740Y-39533891D01*
X44615675Y-39526045D01*
X44615674Y-39526044D01*
X44611253Y-39521134D01*
X44456752Y-39408882D01*
X44450724Y-39406198D01*
X44450722Y-39406197D01*
X44289837Y-39334567D01*
X44235741Y-39288587D01*
X44215092Y-39220660D01*
X44234444Y-39152352D01*
X44287655Y-39105350D01*
X44340470Y-39093461D01*
X83999795Y-38900001D01*
X84000410Y-38900000D01*
X92366000Y-38900000D01*
X92434121Y-38920002D01*
G37*
%TD.AperFunction*%
%TD*%
M02*
