%TF.GenerationSoftware,KiCad,Pcbnew,5.1.10-88a1d61d58~88~ubuntu20.04.1*%
%TF.CreationDate,2021-06-19T14:45:42+02:00*%
%TF.ProjectId,WindowControl,57696e64-6f77-4436-9f6e-74726f6c2e6b,rev?*%
%TF.SameCoordinates,Original*%
%TF.FileFunction,Copper,L4,Bot*%
%TF.FilePolarity,Positive*%
%FSLAX46Y46*%
G04 Gerber Fmt 4.6, Leading zero omitted, Abs format (unit mm)*
G04 Created by KiCad (PCBNEW 5.1.10-88a1d61d58~88~ubuntu20.04.1) date 2021-06-19 14:45:42*
%MOMM*%
%LPD*%
G01*
G04 APERTURE LIST*
%TA.AperFunction,ComponentPad*%
%ADD10R,1.700000X1.700000*%
%TD*%
%TA.AperFunction,ComponentPad*%
%ADD11O,1.700000X1.700000*%
%TD*%
%TA.AperFunction,ComponentPad*%
%ADD12R,1.560000X1.560000*%
%TD*%
%TA.AperFunction,ComponentPad*%
%ADD13C,1.560000*%
%TD*%
%TA.AperFunction,ComponentPad*%
%ADD14R,2.400000X2.400000*%
%TD*%
%TA.AperFunction,ComponentPad*%
%ADD15C,2.400000*%
%TD*%
%TA.AperFunction,ViaPad*%
%ADD16C,0.800000*%
%TD*%
%TA.AperFunction,Conductor*%
%ADD17C,0.750000*%
%TD*%
%TA.AperFunction,Conductor*%
%ADD18C,0.254000*%
%TD*%
%TA.AperFunction,Conductor*%
%ADD19C,0.100000*%
%TD*%
G04 APERTURE END LIST*
D10*
%TO.P,J1,1*%
%TO.N,GND*%
X131064000Y-42672000D03*
D11*
%TO.P,J1,2*%
%TO.N,Net-(C7-Pad1)*%
X131064000Y-45212000D03*
%TO.P,J1,3*%
%TO.N,PWM1*%
X131064000Y-47752000D03*
%TD*%
%TO.P,J2,3*%
%TO.N,PWM2*%
X131064000Y-67056000D03*
%TO.P,J2,2*%
%TO.N,Net-(C8-Pad1)*%
X131064000Y-64516000D03*
D10*
%TO.P,J2,1*%
%TO.N,GND*%
X131064000Y-61976000D03*
%TD*%
%TO.P,J3,1*%
%TO.N,GND*%
X131064000Y-81280000D03*
D11*
%TO.P,J3,2*%
%TO.N,Net-(C9-Pad1)*%
X131064000Y-83820000D03*
%TO.P,J3,3*%
%TO.N,PWM3*%
X131064000Y-86360000D03*
%TD*%
D10*
%TO.P,J4,1*%
%TO.N,GND*%
X26416000Y-56388000D03*
D11*
%TO.P,J4,2*%
%TO.N,+3V3*%
X26416000Y-58928000D03*
%TO.P,J4,3*%
%TO.N,IO4*%
X26416000Y-61468000D03*
%TO.P,J4,4*%
%TO.N,IO3*%
X26416000Y-64008000D03*
%TO.P,J4,5*%
%TO.N,IO2*%
X26416000Y-66548000D03*
%TO.P,J4,6*%
%TO.N,IO1*%
X26416000Y-69088000D03*
%TD*%
D10*
%TO.P,A1,1*%
%TO.N,Current_Sensor_1_AOUT*%
X76835000Y-59055000D03*
%TD*%
%TO.P,PWM1,1*%
%TO.N,PWM1*%
X121920000Y-52705000D03*
%TD*%
%TO.P,GND,1*%
%TO.N,GND*%
X73056750Y-97155000D03*
%TD*%
%TO.P,A2,1*%
%TO.N,Current_Sensor_2_AOUT*%
X74295000Y-74295000D03*
%TD*%
%TO.P,PWM2,1*%
%TO.N,PWM2*%
X122555000Y-71120000D03*
%TD*%
%TO.P,GND,1*%
%TO.N,GND*%
X95202375Y-97155000D03*
%TD*%
%TO.P,A3,1*%
%TO.N,Current_Sensor_3_AOUT*%
X76200000Y-81280000D03*
%TD*%
%TO.P,PWM3,1*%
%TO.N,PWM3*%
X122555000Y-90805000D03*
%TD*%
%TO.P,GND,1*%
%TO.N,GND*%
X117348000Y-97155000D03*
%TD*%
D12*
%TO.P,U4,1*%
%TO.N,+3V3*%
X67310000Y-86689000D03*
D13*
%TO.P,U4,2*%
%TO.N,Net-(U4-Pad2)*%
X67310000Y-84149000D03*
%TO.P,U4,19*%
%TO.N,+5V*%
X67310000Y-40969000D03*
%TO.P,U4,3*%
%TO.N,Net-(U4-Pad3)*%
X67310000Y-81609000D03*
%TO.P,U4,4*%
%TO.N,Net-(U4-Pad4)*%
X67310000Y-79069000D03*
%TO.P,U4,5*%
%TO.N,Current_Sensor_3_AOUT*%
X67310000Y-76529000D03*
%TO.P,U4,6*%
%TO.N,Net-(U4-Pad6)*%
X67310000Y-73989000D03*
%TO.P,U4,7*%
%TO.N,Current_Sensor_2_AOUT*%
X67310000Y-71449000D03*
%TO.P,U4,8*%
%TO.N,Current_Sensor_1_AOUT*%
X67310000Y-68909000D03*
%TO.P,U4,9*%
%TO.N,PWM3*%
X67310000Y-66369000D03*
%TO.P,U4,10*%
%TO.N,PWM2*%
X67310000Y-63829000D03*
%TO.P,U4,11*%
%TO.N,PWM1*%
X67310000Y-61289000D03*
%TO.P,U4,12*%
%TO.N,Net-(U4-Pad12)*%
X67310000Y-58749000D03*
%TO.P,U4,13*%
%TO.N,Net-(U4-Pad13)*%
X67310000Y-56209000D03*
%TO.P,U4,14*%
%TO.N,GND*%
X67310000Y-53669000D03*
%TO.P,U4,15*%
%TO.N,Net-(U4-Pad15)*%
X67310000Y-51129000D03*
%TO.P,U4,16*%
%TO.N,Net-(U4-Pad16)*%
X67310000Y-48589000D03*
%TO.P,U4,17*%
%TO.N,Net-(U4-Pad17)*%
X67310000Y-46049000D03*
%TO.P,U4,18*%
%TO.N,Net-(U4-Pad18)*%
X67310000Y-43509000D03*
%TO.P,U4,20*%
%TO.N,GND*%
X41910000Y-86689000D03*
%TO.P,U4,21*%
%TO.N,IO1*%
X41910000Y-84149000D03*
%TO.P,U4,22*%
%TO.N,IO2*%
X41910000Y-81609000D03*
%TO.P,U4,23*%
%TO.N,Net-(U4-Pad23)*%
X41910000Y-79069000D03*
%TO.P,U4,24*%
%TO.N,Net-(U4-Pad24)*%
X41910000Y-76529000D03*
%TO.P,U4,25*%
%TO.N,IO3*%
X41910000Y-73989000D03*
%TO.P,U4,26*%
%TO.N,GND*%
X41910000Y-71449000D03*
%TO.P,U4,27*%
%TO.N,Net-(U4-Pad27)*%
X41910000Y-68909000D03*
%TO.P,U4,28*%
%TO.N,IO4*%
X41910000Y-66369000D03*
%TO.P,U4,29*%
%TO.N,Net-(U4-Pad29)*%
X41910000Y-63829000D03*
%TO.P,U4,30*%
%TO.N,Net-(U4-Pad30)*%
X41910000Y-61289000D03*
%TO.P,U4,31*%
%TO.N,Net-(U4-Pad31)*%
X41910000Y-58749000D03*
%TO.P,U4,32*%
%TO.N,Net-(U4-Pad32)*%
X41910000Y-56209000D03*
%TO.P,U4,33*%
%TO.N,Net-(U4-Pad33)*%
X41910000Y-53669000D03*
%TO.P,U4,34*%
%TO.N,Net-(U4-Pad34)*%
X41910000Y-51129000D03*
%TO.P,U4,35*%
%TO.N,Net-(U4-Pad35)*%
X41910000Y-48589000D03*
%TO.P,U4,36*%
%TO.N,Net-(U4-Pad36)*%
X41910000Y-46049000D03*
%TO.P,U4,37*%
%TO.N,Net-(U4-Pad37)*%
X41910000Y-43509000D03*
%TO.P,U4,38*%
%TO.N,Net-(U4-Pad38)*%
X41910000Y-40969000D03*
%TD*%
D14*
%TO.P,C7,1*%
%TO.N,Net-(C7-Pad1)*%
X112268000Y-45212000D03*
D15*
%TO.P,C7,2*%
%TO.N,GND*%
X112268000Y-40212000D03*
%TD*%
%TO.P,C8,2*%
%TO.N,GND*%
X112268000Y-57865000D03*
D14*
%TO.P,C8,1*%
%TO.N,Net-(C8-Pad1)*%
X112268000Y-62865000D03*
%TD*%
%TO.P,C9,1*%
%TO.N,Net-(C9-Pad1)*%
X112268000Y-81915000D03*
D15*
%TO.P,C9,2*%
%TO.N,GND*%
X112268000Y-76915000D03*
%TD*%
D10*
%TO.P,J5,1*%
%TO.N,Net-(F1-Pad1)*%
X92075000Y-24765000D03*
D11*
%TO.P,J5,2*%
%TO.N,GND*%
X94615000Y-24765000D03*
%TD*%
D10*
%TO.P,M2_VCC,1*%
%TO.N,Net-(C8-Pad1)*%
X121920000Y-57785000D03*
%TD*%
%TO.P,M3_VCC,1*%
%TO.N,Net-(C9-Pad1)*%
X122555000Y-77470000D03*
%TD*%
%TO.P,M1_VCC,1*%
%TO.N,Net-(C7-Pad1)*%
X121285000Y-38100000D03*
%TD*%
D16*
%TO.N,+5VD*%
X89916000Y-40005000D03*
X91524666Y-40005000D03*
X93133332Y-40005000D03*
X94742000Y-40005000D03*
X89916000Y-41275000D03*
X91524666Y-41275000D03*
X93133332Y-41275000D03*
X94742000Y-41275000D03*
%TO.N,GND*%
X85852000Y-43815000D03*
X88138000Y-46990000D03*
X77978000Y-55372000D03*
X77851000Y-75311000D03*
X77597000Y-91186000D03*
X85852000Y-79248000D03*
X88011000Y-82677000D03*
X88011000Y-64770000D03*
X98679000Y-78359000D03*
X103124000Y-86106000D03*
X97155000Y-45212000D03*
X101219000Y-29083000D03*
X99060000Y-73660000D03*
X99060000Y-56515000D03*
X103505000Y-50800000D03*
X100330000Y-92075000D03*
X97790000Y-91440000D03*
X74295000Y-92075000D03*
X78740000Y-62865000D03*
X74930000Y-62865000D03*
X76200000Y-43815000D03*
X72390000Y-43815000D03*
X85852000Y-62445010D03*
X103191947Y-67699851D03*
X95718703Y-63900799D03*
X31750000Y-64770000D03*
%TO.N,+5VD*%
X89916000Y-38862000D03*
X91524666Y-38862000D03*
X93133332Y-38862000D03*
X94742000Y-38862000D03*
X101219000Y-40132000D03*
X97155000Y-50165000D03*
X97155000Y-51435000D03*
X99060000Y-50800000D03*
X88265000Y-51435000D03*
X99060000Y-67945000D03*
X87630000Y-86995000D03*
X97155000Y-86995000D03*
X97155000Y-85725000D03*
X99060000Y-86360000D03*
X87630000Y-69735008D03*
X96883064Y-69735008D03*
X96236452Y-68034988D03*
%TD*%
D17*
%TO.N,GND*%
X101981000Y-29083000D02*
X102108000Y-28956000D01*
X101219000Y-29083000D02*
X101981000Y-29083000D01*
%TO.N,+5VD*%
X99060000Y-67945000D02*
X99695000Y-67945000D01*
%TD*%
D18*
%TO.N,GND*%
X136754000Y-101956000D02*
X20599000Y-101956000D01*
X20599000Y-99662029D01*
X43878506Y-99662029D01*
X43881174Y-99689172D01*
X43888619Y-99712928D01*
X43900557Y-99734776D01*
X43916528Y-99753875D01*
X43935917Y-99769491D01*
X43957981Y-99781025D01*
X43981871Y-99788032D01*
X44006669Y-99790245D01*
X64707669Y-99599745D01*
X64730078Y-99597542D01*
X64753970Y-99590545D01*
X64776039Y-99579020D01*
X64795435Y-99563412D01*
X64811413Y-99544319D01*
X64823360Y-99522477D01*
X64830816Y-99498723D01*
X64833494Y-99473971D01*
X64847618Y-98005000D01*
X71074297Y-98005000D01*
X71096057Y-98225931D01*
X71160500Y-98438371D01*
X71265150Y-98634157D01*
X71405985Y-98805765D01*
X71577593Y-98946600D01*
X71773379Y-99051250D01*
X71985819Y-99115693D01*
X72206750Y-99137453D01*
X72677000Y-99132000D01*
X72958750Y-98850250D01*
X72958750Y-97253000D01*
X73154750Y-97253000D01*
X73154750Y-98850250D01*
X73436500Y-99132000D01*
X73906750Y-99137453D01*
X74127681Y-99115693D01*
X74340121Y-99051250D01*
X74535907Y-98946600D01*
X74707515Y-98805765D01*
X74848350Y-98634157D01*
X74953000Y-98438371D01*
X75017443Y-98225931D01*
X75039203Y-98005000D01*
X93219922Y-98005000D01*
X93241682Y-98225931D01*
X93306125Y-98438371D01*
X93410775Y-98634157D01*
X93551610Y-98805765D01*
X93723218Y-98946600D01*
X93919004Y-99051250D01*
X94131444Y-99115693D01*
X94352375Y-99137453D01*
X94822625Y-99132000D01*
X95104375Y-98850250D01*
X95104375Y-97253000D01*
X95300375Y-97253000D01*
X95300375Y-98850250D01*
X95582125Y-99132000D01*
X96052375Y-99137453D01*
X96273306Y-99115693D01*
X96485746Y-99051250D01*
X96681532Y-98946600D01*
X96853140Y-98805765D01*
X96993975Y-98634157D01*
X97098625Y-98438371D01*
X97163068Y-98225931D01*
X97184828Y-98005000D01*
X115365547Y-98005000D01*
X115387307Y-98225931D01*
X115451750Y-98438371D01*
X115556400Y-98634157D01*
X115697235Y-98805765D01*
X115868843Y-98946600D01*
X116064629Y-99051250D01*
X116277069Y-99115693D01*
X116498000Y-99137453D01*
X116968250Y-99132000D01*
X117250000Y-98850250D01*
X117250000Y-97253000D01*
X117446000Y-97253000D01*
X117446000Y-98850250D01*
X117727750Y-99132000D01*
X118198000Y-99137453D01*
X118418931Y-99115693D01*
X118631371Y-99051250D01*
X118827157Y-98946600D01*
X118998765Y-98805765D01*
X119139600Y-98634157D01*
X119244250Y-98438371D01*
X119308693Y-98225931D01*
X119330453Y-98005000D01*
X119325000Y-97534750D01*
X119043250Y-97253000D01*
X117446000Y-97253000D01*
X117250000Y-97253000D01*
X115652750Y-97253000D01*
X115371000Y-97534750D01*
X115365547Y-98005000D01*
X97184828Y-98005000D01*
X97179375Y-97534750D01*
X96897625Y-97253000D01*
X95300375Y-97253000D01*
X95104375Y-97253000D01*
X93507125Y-97253000D01*
X93225375Y-97534750D01*
X93219922Y-98005000D01*
X75039203Y-98005000D01*
X75033750Y-97534750D01*
X74752000Y-97253000D01*
X73154750Y-97253000D01*
X72958750Y-97253000D01*
X71361500Y-97253000D01*
X71079750Y-97534750D01*
X71074297Y-98005000D01*
X64847618Y-98005000D01*
X64863964Y-96305000D01*
X71074297Y-96305000D01*
X71079750Y-96775250D01*
X71361500Y-97057000D01*
X72958750Y-97057000D01*
X72958750Y-95459750D01*
X73154750Y-95459750D01*
X73154750Y-97057000D01*
X74752000Y-97057000D01*
X75033750Y-96775250D01*
X75039203Y-96305000D01*
X93219922Y-96305000D01*
X93225375Y-96775250D01*
X93507125Y-97057000D01*
X95104375Y-97057000D01*
X95104375Y-95459750D01*
X95300375Y-95459750D01*
X95300375Y-97057000D01*
X96897625Y-97057000D01*
X97179375Y-96775250D01*
X97184828Y-96305000D01*
X115365547Y-96305000D01*
X115371000Y-96775250D01*
X115652750Y-97057000D01*
X117250000Y-97057000D01*
X117250000Y-95459750D01*
X117446000Y-95459750D01*
X117446000Y-97057000D01*
X119043250Y-97057000D01*
X119325000Y-96775250D01*
X119327567Y-96553872D01*
X126543000Y-96553872D01*
X126543000Y-96994128D01*
X126628890Y-97425925D01*
X126797369Y-97832669D01*
X127041962Y-98198729D01*
X127353271Y-98510038D01*
X127719331Y-98754631D01*
X128126075Y-98923110D01*
X128557872Y-99009000D01*
X128998128Y-99009000D01*
X129429925Y-98923110D01*
X129836669Y-98754631D01*
X130202729Y-98510038D01*
X130514038Y-98198729D01*
X130758631Y-97832669D01*
X130927110Y-97425925D01*
X131013000Y-96994128D01*
X131013000Y-96553872D01*
X130927110Y-96122075D01*
X130758631Y-95715331D01*
X130514038Y-95349271D01*
X130202729Y-95037962D01*
X129836669Y-94793369D01*
X129429925Y-94624890D01*
X128998128Y-94539000D01*
X128557872Y-94539000D01*
X128126075Y-94624890D01*
X127719331Y-94793369D01*
X127353271Y-95037962D01*
X127041962Y-95349271D01*
X126797369Y-95715331D01*
X126628890Y-96122075D01*
X126543000Y-96553872D01*
X119327567Y-96553872D01*
X119330453Y-96305000D01*
X119308693Y-96084069D01*
X119244250Y-95871629D01*
X119139600Y-95675843D01*
X118998765Y-95504235D01*
X118827157Y-95363400D01*
X118631371Y-95258750D01*
X118418931Y-95194307D01*
X118198000Y-95172547D01*
X117727750Y-95178000D01*
X117446000Y-95459750D01*
X117250000Y-95459750D01*
X116968250Y-95178000D01*
X116498000Y-95172547D01*
X116277069Y-95194307D01*
X116064629Y-95258750D01*
X115868843Y-95363400D01*
X115697235Y-95504235D01*
X115556400Y-95675843D01*
X115451750Y-95871629D01*
X115387307Y-96084069D01*
X115365547Y-96305000D01*
X97184828Y-96305000D01*
X97163068Y-96084069D01*
X97098625Y-95871629D01*
X96993975Y-95675843D01*
X96853140Y-95504235D01*
X96681532Y-95363400D01*
X96485746Y-95258750D01*
X96273306Y-95194307D01*
X96052375Y-95172547D01*
X95582125Y-95178000D01*
X95300375Y-95459750D01*
X95104375Y-95459750D01*
X94822625Y-95178000D01*
X94352375Y-95172547D01*
X94131444Y-95194307D01*
X93919004Y-95258750D01*
X93723218Y-95363400D01*
X93551610Y-95504235D01*
X93410775Y-95675843D01*
X93306125Y-95871629D01*
X93241682Y-96084069D01*
X93219922Y-96305000D01*
X75039203Y-96305000D01*
X75017443Y-96084069D01*
X74953000Y-95871629D01*
X74848350Y-95675843D01*
X74707515Y-95504235D01*
X74535907Y-95363400D01*
X74340121Y-95258750D01*
X74127681Y-95194307D01*
X73906750Y-95172547D01*
X73436500Y-95178000D01*
X73154750Y-95459750D01*
X72958750Y-95459750D01*
X72677000Y-95178000D01*
X72206750Y-95172547D01*
X71985819Y-95194307D01*
X71773379Y-95258750D01*
X71577593Y-95363400D01*
X71405985Y-95504235D01*
X71265150Y-95675843D01*
X71160500Y-95871629D01*
X71096057Y-96084069D01*
X71074297Y-96305000D01*
X64863964Y-96305000D01*
X64925021Y-89955000D01*
X121066928Y-89955000D01*
X121066928Y-91655000D01*
X121079188Y-91779482D01*
X121115498Y-91899180D01*
X121174463Y-92009494D01*
X121253815Y-92106185D01*
X121350506Y-92185537D01*
X121460820Y-92244502D01*
X121580518Y-92280812D01*
X121705000Y-92293072D01*
X123405000Y-92293072D01*
X123529482Y-92280812D01*
X123649180Y-92244502D01*
X123759494Y-92185537D01*
X123856185Y-92106185D01*
X123935537Y-92009494D01*
X123994502Y-91899180D01*
X124030812Y-91779482D01*
X124043072Y-91655000D01*
X124043072Y-89955000D01*
X124030812Y-89830518D01*
X123994502Y-89710820D01*
X123935537Y-89600506D01*
X123856185Y-89503815D01*
X123759494Y-89424463D01*
X123649180Y-89365498D01*
X123529482Y-89329188D01*
X123405000Y-89316928D01*
X121705000Y-89316928D01*
X121580518Y-89329188D01*
X121460820Y-89365498D01*
X121350506Y-89424463D01*
X121253815Y-89503815D01*
X121174463Y-89600506D01*
X121115498Y-89710820D01*
X121079188Y-89830518D01*
X121066928Y-89955000D01*
X64925021Y-89955000D01*
X64963926Y-85909000D01*
X65891928Y-85909000D01*
X65891928Y-87469000D01*
X65904188Y-87593482D01*
X65940498Y-87713180D01*
X65999463Y-87823494D01*
X66078815Y-87920185D01*
X66175506Y-87999537D01*
X66285820Y-88058502D01*
X66405518Y-88094812D01*
X66530000Y-88107072D01*
X68090000Y-88107072D01*
X68214482Y-88094812D01*
X68334180Y-88058502D01*
X68444494Y-87999537D01*
X68541185Y-87920185D01*
X68620537Y-87823494D01*
X68679502Y-87713180D01*
X68715812Y-87593482D01*
X68728072Y-87469000D01*
X68728072Y-86893061D01*
X86595000Y-86893061D01*
X86595000Y-87096939D01*
X86634774Y-87296898D01*
X86712795Y-87485256D01*
X86826063Y-87654774D01*
X86970226Y-87798937D01*
X87139744Y-87912205D01*
X87328102Y-87990226D01*
X87528061Y-88030000D01*
X87731939Y-88030000D01*
X87931898Y-87990226D01*
X88120256Y-87912205D01*
X88289774Y-87798937D01*
X88433937Y-87654774D01*
X88547205Y-87485256D01*
X88625226Y-87296898D01*
X88665000Y-87096939D01*
X88665000Y-86893061D01*
X88625226Y-86693102D01*
X88547205Y-86504744D01*
X88433937Y-86335226D01*
X88289774Y-86191063D01*
X88120256Y-86077795D01*
X87931898Y-85999774D01*
X87731939Y-85960000D01*
X87528061Y-85960000D01*
X87328102Y-85999774D01*
X87139744Y-86077795D01*
X86970226Y-86191063D01*
X86826063Y-86335226D01*
X86712795Y-86504744D01*
X86634774Y-86693102D01*
X86595000Y-86893061D01*
X68728072Y-86893061D01*
X68728072Y-85909000D01*
X68715812Y-85784518D01*
X68679502Y-85664820D01*
X68657181Y-85623061D01*
X96120000Y-85623061D01*
X96120000Y-85826939D01*
X96159774Y-86026898D01*
X96237795Y-86215256D01*
X96334510Y-86360000D01*
X96237795Y-86504744D01*
X96159774Y-86693102D01*
X96120000Y-86893061D01*
X96120000Y-87096939D01*
X96159774Y-87296898D01*
X96237795Y-87485256D01*
X96351063Y-87654774D01*
X96495226Y-87798937D01*
X96664744Y-87912205D01*
X96853102Y-87990226D01*
X97053061Y-88030000D01*
X97256939Y-88030000D01*
X97456898Y-87990226D01*
X97645256Y-87912205D01*
X97814774Y-87798937D01*
X97958937Y-87654774D01*
X98072205Y-87485256D01*
X98150226Y-87296898D01*
X98190000Y-87096939D01*
X98190000Y-86920903D01*
X98256063Y-87019774D01*
X98400226Y-87163937D01*
X98569744Y-87277205D01*
X98758102Y-87355226D01*
X98958061Y-87395000D01*
X99161939Y-87395000D01*
X99361898Y-87355226D01*
X99550256Y-87277205D01*
X99719774Y-87163937D01*
X99863937Y-87019774D01*
X99977205Y-86850256D01*
X100055226Y-86661898D01*
X100095000Y-86461939D01*
X100095000Y-86258061D01*
X100055226Y-86058102D01*
X99977205Y-85869744D01*
X99863937Y-85700226D01*
X99719774Y-85556063D01*
X99550256Y-85442795D01*
X99361898Y-85364774D01*
X99161939Y-85325000D01*
X98958061Y-85325000D01*
X98758102Y-85364774D01*
X98569744Y-85442795D01*
X98400226Y-85556063D01*
X98256063Y-85700226D01*
X98190000Y-85799097D01*
X98190000Y-85623061D01*
X98150226Y-85423102D01*
X98072205Y-85234744D01*
X97958937Y-85065226D01*
X97814774Y-84921063D01*
X97645256Y-84807795D01*
X97456898Y-84729774D01*
X97256939Y-84690000D01*
X97053061Y-84690000D01*
X96853102Y-84729774D01*
X96664744Y-84807795D01*
X96495226Y-84921063D01*
X96351063Y-85065226D01*
X96237795Y-85234744D01*
X96159774Y-85423102D01*
X96120000Y-85623061D01*
X68657181Y-85623061D01*
X68620537Y-85554506D01*
X68541185Y-85457815D01*
X68444494Y-85378463D01*
X68334180Y-85319498D01*
X68214482Y-85283188D01*
X68166564Y-85278469D01*
X68212010Y-85248103D01*
X68409103Y-85051010D01*
X68563957Y-84819254D01*
X68670623Y-84561740D01*
X68725000Y-84288365D01*
X68725000Y-84009635D01*
X68670623Y-83736260D01*
X68563957Y-83478746D01*
X68409103Y-83246990D01*
X68212010Y-83049897D01*
X67980254Y-82895043D01*
X67941523Y-82879000D01*
X67980254Y-82862957D01*
X68212010Y-82708103D01*
X68409103Y-82511010D01*
X68563957Y-82279254D01*
X68670623Y-82021740D01*
X68725000Y-81748365D01*
X68725000Y-81469635D01*
X68670623Y-81196260D01*
X68563957Y-80938746D01*
X68409103Y-80706990D01*
X68212010Y-80509897D01*
X68092436Y-80430000D01*
X74711928Y-80430000D01*
X74711928Y-82130000D01*
X74724188Y-82254482D01*
X74760498Y-82374180D01*
X74819463Y-82484494D01*
X74898815Y-82581185D01*
X74995506Y-82660537D01*
X75105820Y-82719502D01*
X75225518Y-82755812D01*
X75350000Y-82768072D01*
X77050000Y-82768072D01*
X77174482Y-82755812D01*
X77294180Y-82719502D01*
X77404494Y-82660537D01*
X77501185Y-82581185D01*
X77580537Y-82484494D01*
X77639502Y-82374180D01*
X77675812Y-82254482D01*
X77688072Y-82130000D01*
X77688072Y-80715000D01*
X110429928Y-80715000D01*
X110429928Y-83115000D01*
X110442188Y-83239482D01*
X110478498Y-83359180D01*
X110537463Y-83469494D01*
X110616815Y-83566185D01*
X110713506Y-83645537D01*
X110823820Y-83704502D01*
X110943518Y-83740812D01*
X111068000Y-83753072D01*
X113468000Y-83753072D01*
X113592482Y-83740812D01*
X113712180Y-83704502D01*
X113822494Y-83645537D01*
X113919185Y-83566185D01*
X113998537Y-83469494D01*
X114057502Y-83359180D01*
X114093812Y-83239482D01*
X114106072Y-83115000D01*
X114106072Y-82130000D01*
X129081547Y-82130000D01*
X129103307Y-82350931D01*
X129167750Y-82563371D01*
X129272400Y-82759157D01*
X129413235Y-82930765D01*
X129584843Y-83071600D01*
X129733690Y-83151161D01*
X129636068Y-83386842D01*
X129579000Y-83673740D01*
X129579000Y-83966260D01*
X129636068Y-84253158D01*
X129748010Y-84523411D01*
X129910525Y-84766632D01*
X130117368Y-84973475D01*
X130291760Y-85090000D01*
X130117368Y-85206525D01*
X129910525Y-85413368D01*
X129748010Y-85656589D01*
X129636068Y-85926842D01*
X129579000Y-86213740D01*
X129579000Y-86506260D01*
X129636068Y-86793158D01*
X129748010Y-87063411D01*
X129910525Y-87306632D01*
X130117368Y-87513475D01*
X130360589Y-87675990D01*
X130630842Y-87787932D01*
X130917740Y-87845000D01*
X131210260Y-87845000D01*
X131497158Y-87787932D01*
X131767411Y-87675990D01*
X132010632Y-87513475D01*
X132217475Y-87306632D01*
X132379990Y-87063411D01*
X132491932Y-86793158D01*
X132549000Y-86506260D01*
X132549000Y-86213740D01*
X132491932Y-85926842D01*
X132379990Y-85656589D01*
X132217475Y-85413368D01*
X132010632Y-85206525D01*
X131836240Y-85090000D01*
X132010632Y-84973475D01*
X132217475Y-84766632D01*
X132379990Y-84523411D01*
X132491932Y-84253158D01*
X132549000Y-83966260D01*
X132549000Y-83673740D01*
X132491932Y-83386842D01*
X132394310Y-83151161D01*
X132543157Y-83071600D01*
X132714765Y-82930765D01*
X132855600Y-82759157D01*
X132960250Y-82563371D01*
X133024693Y-82350931D01*
X133046453Y-82130000D01*
X133041000Y-81659750D01*
X132759250Y-81378000D01*
X131162000Y-81378000D01*
X131162000Y-81398000D01*
X130966000Y-81398000D01*
X130966000Y-81378000D01*
X129368750Y-81378000D01*
X129087000Y-81659750D01*
X129081547Y-82130000D01*
X114106072Y-82130000D01*
X114106072Y-80715000D01*
X114093812Y-80590518D01*
X114057502Y-80470820D01*
X114035683Y-80430000D01*
X129081547Y-80430000D01*
X129087000Y-80900250D01*
X129368750Y-81182000D01*
X130966000Y-81182000D01*
X130966000Y-79584750D01*
X131162000Y-79584750D01*
X131162000Y-81182000D01*
X132759250Y-81182000D01*
X133041000Y-80900250D01*
X133046453Y-80430000D01*
X133024693Y-80209069D01*
X132960250Y-79996629D01*
X132855600Y-79800843D01*
X132714765Y-79629235D01*
X132543157Y-79488400D01*
X132347371Y-79383750D01*
X132134931Y-79319307D01*
X131914000Y-79297547D01*
X131443750Y-79303000D01*
X131162000Y-79584750D01*
X130966000Y-79584750D01*
X130684250Y-79303000D01*
X130214000Y-79297547D01*
X129993069Y-79319307D01*
X129780629Y-79383750D01*
X129584843Y-79488400D01*
X129413235Y-79629235D01*
X129272400Y-79800843D01*
X129167750Y-79996629D01*
X129103307Y-80209069D01*
X129081547Y-80430000D01*
X114035683Y-80430000D01*
X113998537Y-80360506D01*
X113919185Y-80263815D01*
X113822494Y-80184463D01*
X113712180Y-80125498D01*
X113592482Y-80089188D01*
X113468000Y-80076928D01*
X111068000Y-80076928D01*
X110943518Y-80089188D01*
X110823820Y-80125498D01*
X110713506Y-80184463D01*
X110616815Y-80263815D01*
X110537463Y-80360506D01*
X110478498Y-80470820D01*
X110442188Y-80590518D01*
X110429928Y-80715000D01*
X77688072Y-80715000D01*
X77688072Y-80430000D01*
X77675812Y-80305518D01*
X77639502Y-80185820D01*
X77580537Y-80075506D01*
X77501185Y-79978815D01*
X77404494Y-79899463D01*
X77294180Y-79840498D01*
X77174482Y-79804188D01*
X77050000Y-79791928D01*
X75350000Y-79791928D01*
X75225518Y-79804188D01*
X75105820Y-79840498D01*
X74995506Y-79899463D01*
X74898815Y-79978815D01*
X74819463Y-80075506D01*
X74760498Y-80185820D01*
X74724188Y-80305518D01*
X74711928Y-80430000D01*
X68092436Y-80430000D01*
X67980254Y-80355043D01*
X67941523Y-80339000D01*
X67980254Y-80322957D01*
X68212010Y-80168103D01*
X68409103Y-79971010D01*
X68563957Y-79739254D01*
X68670623Y-79481740D01*
X68725000Y-79208365D01*
X68725000Y-78929635D01*
X68670623Y-78656260D01*
X68579727Y-78436816D01*
X110884777Y-78436816D01*
X110974097Y-78862632D01*
X111378924Y-79077637D01*
X111817916Y-79209533D01*
X112274206Y-79253251D01*
X112730256Y-79207111D01*
X113168543Y-79072888D01*
X113561903Y-78862632D01*
X113651223Y-78436816D01*
X112268000Y-77053593D01*
X110884777Y-78436816D01*
X68579727Y-78436816D01*
X68563957Y-78398746D01*
X68409103Y-78166990D01*
X68212010Y-77969897D01*
X67980254Y-77815043D01*
X67941523Y-77799000D01*
X67980254Y-77782957D01*
X68212010Y-77628103D01*
X68409103Y-77431010D01*
X68563957Y-77199254D01*
X68670623Y-76941740D01*
X68674707Y-76921206D01*
X109929749Y-76921206D01*
X109975889Y-77377256D01*
X110110112Y-77815543D01*
X110320368Y-78208903D01*
X110746184Y-78298223D01*
X112129407Y-76915000D01*
X112406593Y-76915000D01*
X113789816Y-78298223D01*
X114215632Y-78208903D01*
X114430637Y-77804076D01*
X114562533Y-77365084D01*
X114606251Y-76908794D01*
X114577033Y-76620000D01*
X121066928Y-76620000D01*
X121066928Y-78320000D01*
X121079188Y-78444482D01*
X121115498Y-78564180D01*
X121174463Y-78674494D01*
X121253815Y-78771185D01*
X121350506Y-78850537D01*
X121460820Y-78909502D01*
X121580518Y-78945812D01*
X121705000Y-78958072D01*
X123405000Y-78958072D01*
X123529482Y-78945812D01*
X123649180Y-78909502D01*
X123759494Y-78850537D01*
X123856185Y-78771185D01*
X123935537Y-78674494D01*
X123994502Y-78564180D01*
X124030812Y-78444482D01*
X124043072Y-78320000D01*
X124043072Y-76620000D01*
X124030812Y-76495518D01*
X123994502Y-76375820D01*
X123935537Y-76265506D01*
X123856185Y-76168815D01*
X123759494Y-76089463D01*
X123649180Y-76030498D01*
X123529482Y-75994188D01*
X123405000Y-75981928D01*
X121705000Y-75981928D01*
X121580518Y-75994188D01*
X121460820Y-76030498D01*
X121350506Y-76089463D01*
X121253815Y-76168815D01*
X121174463Y-76265506D01*
X121115498Y-76375820D01*
X121079188Y-76495518D01*
X121066928Y-76620000D01*
X114577033Y-76620000D01*
X114560111Y-76452744D01*
X114425888Y-76014457D01*
X114215632Y-75621097D01*
X113789816Y-75531777D01*
X112406593Y-76915000D01*
X112129407Y-76915000D01*
X110746184Y-75531777D01*
X110320368Y-75621097D01*
X110105363Y-76025924D01*
X109973467Y-76464916D01*
X109929749Y-76921206D01*
X68674707Y-76921206D01*
X68725000Y-76668365D01*
X68725000Y-76389635D01*
X68670623Y-76116260D01*
X68563957Y-75858746D01*
X68409103Y-75626990D01*
X68212010Y-75429897D01*
X67980254Y-75275043D01*
X67941523Y-75259000D01*
X67980254Y-75242957D01*
X68212010Y-75088103D01*
X68409103Y-74891010D01*
X68563957Y-74659254D01*
X68670623Y-74401740D01*
X68725000Y-74128365D01*
X68725000Y-73849635D01*
X68670623Y-73576260D01*
X68616254Y-73445000D01*
X72806928Y-73445000D01*
X72806928Y-75145000D01*
X72819188Y-75269482D01*
X72855498Y-75389180D01*
X72914463Y-75499494D01*
X72993815Y-75596185D01*
X73090506Y-75675537D01*
X73200820Y-75734502D01*
X73320518Y-75770812D01*
X73445000Y-75783072D01*
X75145000Y-75783072D01*
X75269482Y-75770812D01*
X75389180Y-75734502D01*
X75499494Y-75675537D01*
X75596185Y-75596185D01*
X75675537Y-75499494D01*
X75732361Y-75393184D01*
X110884777Y-75393184D01*
X112268000Y-76776407D01*
X113651223Y-75393184D01*
X113561903Y-74967368D01*
X113157076Y-74752363D01*
X112718084Y-74620467D01*
X112261794Y-74576749D01*
X111805744Y-74622889D01*
X111367457Y-74757112D01*
X110974097Y-74967368D01*
X110884777Y-75393184D01*
X75732361Y-75393184D01*
X75734502Y-75389180D01*
X75770812Y-75269482D01*
X75783072Y-75145000D01*
X75783072Y-73445000D01*
X75770812Y-73320518D01*
X75734502Y-73200820D01*
X75675537Y-73090506D01*
X75596185Y-72993815D01*
X75499494Y-72914463D01*
X75389180Y-72855498D01*
X75269482Y-72819188D01*
X75145000Y-72806928D01*
X73445000Y-72806928D01*
X73320518Y-72819188D01*
X73200820Y-72855498D01*
X73090506Y-72914463D01*
X72993815Y-72993815D01*
X72914463Y-73090506D01*
X72855498Y-73200820D01*
X72819188Y-73320518D01*
X72806928Y-73445000D01*
X68616254Y-73445000D01*
X68563957Y-73318746D01*
X68409103Y-73086990D01*
X68212010Y-72889897D01*
X67980254Y-72735043D01*
X67941523Y-72719000D01*
X67980254Y-72702957D01*
X68212010Y-72548103D01*
X68409103Y-72351010D01*
X68563957Y-72119254D01*
X68670623Y-71861740D01*
X68725000Y-71588365D01*
X68725000Y-71309635D01*
X68670623Y-71036260D01*
X68563957Y-70778746D01*
X68409103Y-70546990D01*
X68212010Y-70349897D01*
X67980254Y-70195043D01*
X67941523Y-70179000D01*
X67980254Y-70162957D01*
X68212010Y-70008103D01*
X68409103Y-69811010D01*
X68527999Y-69633069D01*
X86595000Y-69633069D01*
X86595000Y-69836947D01*
X86634774Y-70036906D01*
X86712795Y-70225264D01*
X86826063Y-70394782D01*
X86970226Y-70538945D01*
X87139744Y-70652213D01*
X87328102Y-70730234D01*
X87528061Y-70770008D01*
X87731939Y-70770008D01*
X87931898Y-70730234D01*
X88120256Y-70652213D01*
X88289774Y-70538945D01*
X88433937Y-70394782D01*
X88547205Y-70225264D01*
X88625226Y-70036906D01*
X88665000Y-69836947D01*
X88665000Y-69633069D01*
X88625226Y-69433110D01*
X88547205Y-69244752D01*
X88433937Y-69075234D01*
X88289774Y-68931071D01*
X88120256Y-68817803D01*
X87931898Y-68739782D01*
X87731939Y-68700008D01*
X87528061Y-68700008D01*
X87328102Y-68739782D01*
X87139744Y-68817803D01*
X86970226Y-68931071D01*
X86826063Y-69075234D01*
X86712795Y-69244752D01*
X86634774Y-69433110D01*
X86595000Y-69633069D01*
X68527999Y-69633069D01*
X68563957Y-69579254D01*
X68670623Y-69321740D01*
X68725000Y-69048365D01*
X68725000Y-68769635D01*
X68670623Y-68496260D01*
X68563957Y-68238746D01*
X68409103Y-68006990D01*
X68335162Y-67933049D01*
X95201452Y-67933049D01*
X95201452Y-68136927D01*
X95241226Y-68336886D01*
X95319247Y-68525244D01*
X95432515Y-68694762D01*
X95576678Y-68838925D01*
X95746196Y-68952193D01*
X95934554Y-69030214D01*
X96092692Y-69061669D01*
X96079127Y-69075234D01*
X95965859Y-69244752D01*
X95887838Y-69433110D01*
X95848064Y-69633069D01*
X95848064Y-69836947D01*
X95887838Y-70036906D01*
X95965859Y-70225264D01*
X96079127Y-70394782D01*
X96223290Y-70538945D01*
X96392808Y-70652213D01*
X96581166Y-70730234D01*
X96781125Y-70770008D01*
X96985003Y-70770008D01*
X97184962Y-70730234D01*
X97373320Y-70652213D01*
X97542838Y-70538945D01*
X97687001Y-70394782D01*
X97770377Y-70270000D01*
X121066928Y-70270000D01*
X121066928Y-71970000D01*
X121079188Y-72094482D01*
X121115498Y-72214180D01*
X121174463Y-72324494D01*
X121253815Y-72421185D01*
X121350506Y-72500537D01*
X121460820Y-72559502D01*
X121580518Y-72595812D01*
X121705000Y-72608072D01*
X123405000Y-72608072D01*
X123529482Y-72595812D01*
X123649180Y-72559502D01*
X123759494Y-72500537D01*
X123856185Y-72421185D01*
X123935537Y-72324494D01*
X123994502Y-72214180D01*
X124030812Y-72094482D01*
X124043072Y-71970000D01*
X124043072Y-70270000D01*
X124030812Y-70145518D01*
X123994502Y-70025820D01*
X123935537Y-69915506D01*
X123856185Y-69818815D01*
X123759494Y-69739463D01*
X123649180Y-69680498D01*
X123529482Y-69644188D01*
X123405000Y-69631928D01*
X121705000Y-69631928D01*
X121580518Y-69644188D01*
X121460820Y-69680498D01*
X121350506Y-69739463D01*
X121253815Y-69818815D01*
X121174463Y-69915506D01*
X121115498Y-70025820D01*
X121079188Y-70145518D01*
X121066928Y-70270000D01*
X97770377Y-70270000D01*
X97800269Y-70225264D01*
X97878290Y-70036906D01*
X97918064Y-69836947D01*
X97918064Y-69633069D01*
X97878290Y-69433110D01*
X97800269Y-69244752D01*
X97687001Y-69075234D01*
X97542838Y-68931071D01*
X97373320Y-68817803D01*
X97184962Y-68739782D01*
X97026824Y-68708327D01*
X97040389Y-68694762D01*
X97153657Y-68525244D01*
X97231678Y-68336886D01*
X97271452Y-68136927D01*
X97271452Y-67933049D01*
X97253553Y-67843061D01*
X98025000Y-67843061D01*
X98025000Y-68046939D01*
X98064774Y-68246898D01*
X98142795Y-68435256D01*
X98256063Y-68604774D01*
X98400226Y-68748937D01*
X98569744Y-68862205D01*
X98758102Y-68940226D01*
X98958061Y-68980000D01*
X99161939Y-68980000D01*
X99287623Y-68955000D01*
X99744608Y-68955000D01*
X99892994Y-68940385D01*
X100083380Y-68882632D01*
X100258840Y-68788847D01*
X100412633Y-68662633D01*
X100538847Y-68508840D01*
X100632632Y-68333380D01*
X100690385Y-68142994D01*
X100709886Y-67945000D01*
X100690385Y-67747006D01*
X100632632Y-67556620D01*
X100538847Y-67381160D01*
X100412633Y-67227367D01*
X100258840Y-67101153D01*
X100083380Y-67007368D01*
X99892994Y-66949615D01*
X99744608Y-66935000D01*
X99287623Y-66935000D01*
X99161939Y-66910000D01*
X98958061Y-66910000D01*
X98758102Y-66949774D01*
X98569744Y-67027795D01*
X98400226Y-67141063D01*
X98256063Y-67285226D01*
X98142795Y-67454744D01*
X98064774Y-67643102D01*
X98025000Y-67843061D01*
X97253553Y-67843061D01*
X97231678Y-67733090D01*
X97153657Y-67544732D01*
X97040389Y-67375214D01*
X96896226Y-67231051D01*
X96726708Y-67117783D01*
X96538350Y-67039762D01*
X96338391Y-66999988D01*
X96134513Y-66999988D01*
X95934554Y-67039762D01*
X95746196Y-67117783D01*
X95576678Y-67231051D01*
X95432515Y-67375214D01*
X95319247Y-67544732D01*
X95241226Y-67733090D01*
X95201452Y-67933049D01*
X68335162Y-67933049D01*
X68212010Y-67809897D01*
X67980254Y-67655043D01*
X67941523Y-67639000D01*
X67980254Y-67622957D01*
X68212010Y-67468103D01*
X68409103Y-67271010D01*
X68563957Y-67039254D01*
X68670623Y-66781740D01*
X68725000Y-66508365D01*
X68725000Y-66229635D01*
X68670623Y-65956260D01*
X68563957Y-65698746D01*
X68409103Y-65466990D01*
X68212010Y-65269897D01*
X67980254Y-65115043D01*
X67941523Y-65099000D01*
X67980254Y-65082957D01*
X68212010Y-64928103D01*
X68409103Y-64731010D01*
X68563957Y-64499254D01*
X68670623Y-64241740D01*
X68725000Y-63968365D01*
X68725000Y-63689635D01*
X68670623Y-63416260D01*
X68563957Y-63158746D01*
X68409103Y-62926990D01*
X68212010Y-62729897D01*
X67980254Y-62575043D01*
X67941523Y-62559000D01*
X67980254Y-62542957D01*
X68212010Y-62388103D01*
X68409103Y-62191010D01*
X68563957Y-61959254D01*
X68670623Y-61701740D01*
X68677930Y-61665000D01*
X110429928Y-61665000D01*
X110429928Y-64065000D01*
X110442188Y-64189482D01*
X110478498Y-64309180D01*
X110537463Y-64419494D01*
X110616815Y-64516185D01*
X110713506Y-64595537D01*
X110823820Y-64654502D01*
X110943518Y-64690812D01*
X111068000Y-64703072D01*
X113468000Y-64703072D01*
X113592482Y-64690812D01*
X113712180Y-64654502D01*
X113822494Y-64595537D01*
X113919185Y-64516185D01*
X113998537Y-64419494D01*
X114057502Y-64309180D01*
X114093812Y-64189482D01*
X114106072Y-64065000D01*
X114106072Y-62826000D01*
X129081547Y-62826000D01*
X129103307Y-63046931D01*
X129167750Y-63259371D01*
X129272400Y-63455157D01*
X129413235Y-63626765D01*
X129584843Y-63767600D01*
X129733690Y-63847161D01*
X129636068Y-64082842D01*
X129579000Y-64369740D01*
X129579000Y-64662260D01*
X129636068Y-64949158D01*
X129748010Y-65219411D01*
X129910525Y-65462632D01*
X130117368Y-65669475D01*
X130291760Y-65786000D01*
X130117368Y-65902525D01*
X129910525Y-66109368D01*
X129748010Y-66352589D01*
X129636068Y-66622842D01*
X129579000Y-66909740D01*
X129579000Y-67202260D01*
X129636068Y-67489158D01*
X129748010Y-67759411D01*
X129910525Y-68002632D01*
X130117368Y-68209475D01*
X130360589Y-68371990D01*
X130630842Y-68483932D01*
X130917740Y-68541000D01*
X131210260Y-68541000D01*
X131497158Y-68483932D01*
X131767411Y-68371990D01*
X132010632Y-68209475D01*
X132217475Y-68002632D01*
X132379990Y-67759411D01*
X132491932Y-67489158D01*
X132549000Y-67202260D01*
X132549000Y-66909740D01*
X132491932Y-66622842D01*
X132379990Y-66352589D01*
X132217475Y-66109368D01*
X132010632Y-65902525D01*
X131836240Y-65786000D01*
X132010632Y-65669475D01*
X132217475Y-65462632D01*
X132379990Y-65219411D01*
X132491932Y-64949158D01*
X132549000Y-64662260D01*
X132549000Y-64369740D01*
X132491932Y-64082842D01*
X132394310Y-63847161D01*
X132543157Y-63767600D01*
X132714765Y-63626765D01*
X132855600Y-63455157D01*
X132960250Y-63259371D01*
X133024693Y-63046931D01*
X133046453Y-62826000D01*
X133041000Y-62355750D01*
X132759250Y-62074000D01*
X131162000Y-62074000D01*
X131162000Y-62094000D01*
X130966000Y-62094000D01*
X130966000Y-62074000D01*
X129368750Y-62074000D01*
X129087000Y-62355750D01*
X129081547Y-62826000D01*
X114106072Y-62826000D01*
X114106072Y-61665000D01*
X114093812Y-61540518D01*
X114057502Y-61420820D01*
X113998537Y-61310506D01*
X113919185Y-61213815D01*
X113822494Y-61134463D01*
X113806662Y-61126000D01*
X129081547Y-61126000D01*
X129087000Y-61596250D01*
X129368750Y-61878000D01*
X130966000Y-61878000D01*
X130966000Y-60280750D01*
X131162000Y-60280750D01*
X131162000Y-61878000D01*
X132759250Y-61878000D01*
X133041000Y-61596250D01*
X133046453Y-61126000D01*
X133024693Y-60905069D01*
X132960250Y-60692629D01*
X132855600Y-60496843D01*
X132714765Y-60325235D01*
X132543157Y-60184400D01*
X132347371Y-60079750D01*
X132134931Y-60015307D01*
X131914000Y-59993547D01*
X131443750Y-59999000D01*
X131162000Y-60280750D01*
X130966000Y-60280750D01*
X130684250Y-59999000D01*
X130214000Y-59993547D01*
X129993069Y-60015307D01*
X129780629Y-60079750D01*
X129584843Y-60184400D01*
X129413235Y-60325235D01*
X129272400Y-60496843D01*
X129167750Y-60692629D01*
X129103307Y-60905069D01*
X129081547Y-61126000D01*
X113806662Y-61126000D01*
X113712180Y-61075498D01*
X113592482Y-61039188D01*
X113468000Y-61026928D01*
X111068000Y-61026928D01*
X110943518Y-61039188D01*
X110823820Y-61075498D01*
X110713506Y-61134463D01*
X110616815Y-61213815D01*
X110537463Y-61310506D01*
X110478498Y-61420820D01*
X110442188Y-61540518D01*
X110429928Y-61665000D01*
X68677930Y-61665000D01*
X68725000Y-61428365D01*
X68725000Y-61149635D01*
X68670623Y-60876260D01*
X68563957Y-60618746D01*
X68409103Y-60386990D01*
X68212010Y-60189897D01*
X67980254Y-60035043D01*
X67941523Y-60019000D01*
X67980254Y-60002957D01*
X68212010Y-59848103D01*
X68409103Y-59651010D01*
X68563957Y-59419254D01*
X68670623Y-59161740D01*
X68725000Y-58888365D01*
X68725000Y-58609635D01*
X68670623Y-58336260D01*
X68616254Y-58205000D01*
X75346928Y-58205000D01*
X75346928Y-59905000D01*
X75359188Y-60029482D01*
X75395498Y-60149180D01*
X75454463Y-60259494D01*
X75533815Y-60356185D01*
X75630506Y-60435537D01*
X75740820Y-60494502D01*
X75860518Y-60530812D01*
X75985000Y-60543072D01*
X77685000Y-60543072D01*
X77809482Y-60530812D01*
X77929180Y-60494502D01*
X78039494Y-60435537D01*
X78136185Y-60356185D01*
X78215537Y-60259494D01*
X78274502Y-60149180D01*
X78310812Y-60029482D01*
X78323072Y-59905000D01*
X78323072Y-59386816D01*
X110884777Y-59386816D01*
X110974097Y-59812632D01*
X111378924Y-60027637D01*
X111817916Y-60159533D01*
X112274206Y-60203251D01*
X112730256Y-60157111D01*
X113168543Y-60022888D01*
X113561903Y-59812632D01*
X113651223Y-59386816D01*
X112268000Y-58003593D01*
X110884777Y-59386816D01*
X78323072Y-59386816D01*
X78323072Y-58205000D01*
X78310812Y-58080518D01*
X78274502Y-57960820D01*
X78226602Y-57871206D01*
X109929749Y-57871206D01*
X109975889Y-58327256D01*
X110110112Y-58765543D01*
X110320368Y-59158903D01*
X110746184Y-59248223D01*
X112129407Y-57865000D01*
X112406593Y-57865000D01*
X113789816Y-59248223D01*
X114215632Y-59158903D01*
X114430637Y-58754076D01*
X114562533Y-58315084D01*
X114606251Y-57858794D01*
X114560111Y-57402744D01*
X114425888Y-56964457D01*
X114410143Y-56935000D01*
X120431928Y-56935000D01*
X120431928Y-58635000D01*
X120444188Y-58759482D01*
X120480498Y-58879180D01*
X120539463Y-58989494D01*
X120618815Y-59086185D01*
X120715506Y-59165537D01*
X120825820Y-59224502D01*
X120945518Y-59260812D01*
X121070000Y-59273072D01*
X122770000Y-59273072D01*
X122894482Y-59260812D01*
X123014180Y-59224502D01*
X123124494Y-59165537D01*
X123221185Y-59086185D01*
X123300537Y-58989494D01*
X123359502Y-58879180D01*
X123395812Y-58759482D01*
X123408072Y-58635000D01*
X123408072Y-56935000D01*
X123395812Y-56810518D01*
X123359502Y-56690820D01*
X123300537Y-56580506D01*
X123221185Y-56483815D01*
X123124494Y-56404463D01*
X123014180Y-56345498D01*
X122894482Y-56309188D01*
X122770000Y-56296928D01*
X121070000Y-56296928D01*
X120945518Y-56309188D01*
X120825820Y-56345498D01*
X120715506Y-56404463D01*
X120618815Y-56483815D01*
X120539463Y-56580506D01*
X120480498Y-56690820D01*
X120444188Y-56810518D01*
X120431928Y-56935000D01*
X114410143Y-56935000D01*
X114215632Y-56571097D01*
X113789816Y-56481777D01*
X112406593Y-57865000D01*
X112129407Y-57865000D01*
X110746184Y-56481777D01*
X110320368Y-56571097D01*
X110105363Y-56975924D01*
X109973467Y-57414916D01*
X109929749Y-57871206D01*
X78226602Y-57871206D01*
X78215537Y-57850506D01*
X78136185Y-57753815D01*
X78039494Y-57674463D01*
X77929180Y-57615498D01*
X77809482Y-57579188D01*
X77685000Y-57566928D01*
X75985000Y-57566928D01*
X75860518Y-57579188D01*
X75740820Y-57615498D01*
X75630506Y-57674463D01*
X75533815Y-57753815D01*
X75454463Y-57850506D01*
X75395498Y-57960820D01*
X75359188Y-58080518D01*
X75346928Y-58205000D01*
X68616254Y-58205000D01*
X68563957Y-58078746D01*
X68409103Y-57846990D01*
X68212010Y-57649897D01*
X67980254Y-57495043D01*
X67941523Y-57479000D01*
X67980254Y-57462957D01*
X68212010Y-57308103D01*
X68409103Y-57111010D01*
X68563957Y-56879254D01*
X68670623Y-56621740D01*
X68725000Y-56348365D01*
X68725000Y-56343184D01*
X110884777Y-56343184D01*
X112268000Y-57726407D01*
X113651223Y-56343184D01*
X113561903Y-55917368D01*
X113157076Y-55702363D01*
X112718084Y-55570467D01*
X112261794Y-55526749D01*
X111805744Y-55572889D01*
X111367457Y-55707112D01*
X110974097Y-55917368D01*
X110884777Y-56343184D01*
X68725000Y-56343184D01*
X68725000Y-56069635D01*
X68670623Y-55796260D01*
X68563957Y-55538746D01*
X68409103Y-55306990D01*
X68357539Y-55255426D01*
X68394374Y-54891967D01*
X67310000Y-53807593D01*
X66225626Y-54891967D01*
X66262461Y-55255426D01*
X66210897Y-55306990D01*
X66056043Y-55538746D01*
X65949377Y-55796260D01*
X65895000Y-56069635D01*
X65895000Y-56348365D01*
X65949377Y-56621740D01*
X66056043Y-56879254D01*
X66210897Y-57111010D01*
X66407990Y-57308103D01*
X66639746Y-57462957D01*
X66678477Y-57479000D01*
X66639746Y-57495043D01*
X66407990Y-57649897D01*
X66210897Y-57846990D01*
X66056043Y-58078746D01*
X65949377Y-58336260D01*
X65895000Y-58609635D01*
X65895000Y-58888365D01*
X65949377Y-59161740D01*
X66056043Y-59419254D01*
X66210897Y-59651010D01*
X66407990Y-59848103D01*
X66639746Y-60002957D01*
X66678477Y-60019000D01*
X66639746Y-60035043D01*
X66407990Y-60189897D01*
X66210897Y-60386990D01*
X66056043Y-60618746D01*
X65949377Y-60876260D01*
X65895000Y-61149635D01*
X65895000Y-61428365D01*
X65949377Y-61701740D01*
X66056043Y-61959254D01*
X66210897Y-62191010D01*
X66407990Y-62388103D01*
X66639746Y-62542957D01*
X66678477Y-62559000D01*
X66639746Y-62575043D01*
X66407990Y-62729897D01*
X66210897Y-62926990D01*
X66056043Y-63158746D01*
X65949377Y-63416260D01*
X65895000Y-63689635D01*
X65895000Y-63968365D01*
X65949377Y-64241740D01*
X66056043Y-64499254D01*
X66210897Y-64731010D01*
X66407990Y-64928103D01*
X66639746Y-65082957D01*
X66678477Y-65099000D01*
X66639746Y-65115043D01*
X66407990Y-65269897D01*
X66210897Y-65466990D01*
X66056043Y-65698746D01*
X65949377Y-65956260D01*
X65895000Y-66229635D01*
X65895000Y-66508365D01*
X65949377Y-66781740D01*
X66056043Y-67039254D01*
X66210897Y-67271010D01*
X66407990Y-67468103D01*
X66639746Y-67622957D01*
X66678477Y-67639000D01*
X66639746Y-67655043D01*
X66407990Y-67809897D01*
X66210897Y-68006990D01*
X66056043Y-68238746D01*
X65949377Y-68496260D01*
X65895000Y-68769635D01*
X65895000Y-69048365D01*
X65949377Y-69321740D01*
X66056043Y-69579254D01*
X66210897Y-69811010D01*
X66407990Y-70008103D01*
X66639746Y-70162957D01*
X66678477Y-70179000D01*
X66639746Y-70195043D01*
X66407990Y-70349897D01*
X66210897Y-70546990D01*
X66056043Y-70778746D01*
X65949377Y-71036260D01*
X65895000Y-71309635D01*
X65895000Y-71588365D01*
X65949377Y-71861740D01*
X66056043Y-72119254D01*
X66210897Y-72351010D01*
X66407990Y-72548103D01*
X66639746Y-72702957D01*
X66678477Y-72719000D01*
X66639746Y-72735043D01*
X66407990Y-72889897D01*
X66210897Y-73086990D01*
X66056043Y-73318746D01*
X65949377Y-73576260D01*
X65895000Y-73849635D01*
X65895000Y-74128365D01*
X65949377Y-74401740D01*
X66056043Y-74659254D01*
X66210897Y-74891010D01*
X66407990Y-75088103D01*
X66639746Y-75242957D01*
X66678477Y-75259000D01*
X66639746Y-75275043D01*
X66407990Y-75429897D01*
X66210897Y-75626990D01*
X66056043Y-75858746D01*
X65949377Y-76116260D01*
X65895000Y-76389635D01*
X65895000Y-76668365D01*
X65949377Y-76941740D01*
X66056043Y-77199254D01*
X66210897Y-77431010D01*
X66407990Y-77628103D01*
X66639746Y-77782957D01*
X66678477Y-77799000D01*
X66639746Y-77815043D01*
X66407990Y-77969897D01*
X66210897Y-78166990D01*
X66056043Y-78398746D01*
X65949377Y-78656260D01*
X65895000Y-78929635D01*
X65895000Y-79208365D01*
X65949377Y-79481740D01*
X66056043Y-79739254D01*
X66210897Y-79971010D01*
X66407990Y-80168103D01*
X66639746Y-80322957D01*
X66678477Y-80339000D01*
X66639746Y-80355043D01*
X66407990Y-80509897D01*
X66210897Y-80706990D01*
X66056043Y-80938746D01*
X65949377Y-81196260D01*
X65895000Y-81469635D01*
X65895000Y-81748365D01*
X65949377Y-82021740D01*
X66056043Y-82279254D01*
X66210897Y-82511010D01*
X66407990Y-82708103D01*
X66639746Y-82862957D01*
X66678477Y-82879000D01*
X66639746Y-82895043D01*
X66407990Y-83049897D01*
X66210897Y-83246990D01*
X66056043Y-83478746D01*
X65949377Y-83736260D01*
X65895000Y-84009635D01*
X65895000Y-84288365D01*
X65949377Y-84561740D01*
X66056043Y-84819254D01*
X66210897Y-85051010D01*
X66407990Y-85248103D01*
X66453436Y-85278469D01*
X66405518Y-85283188D01*
X66285820Y-85319498D01*
X66175506Y-85378463D01*
X66078815Y-85457815D01*
X65999463Y-85554506D01*
X65940498Y-85664820D01*
X65904188Y-85784518D01*
X65891928Y-85909000D01*
X64963926Y-85909000D01*
X65023994Y-79661971D01*
X65021326Y-79634828D01*
X65013881Y-79611072D01*
X65001943Y-79589224D01*
X64985972Y-79570125D01*
X64966583Y-79554509D01*
X64944519Y-79542975D01*
X64920629Y-79535968D01*
X64895831Y-79533755D01*
X44194831Y-79724255D01*
X44172422Y-79726458D01*
X44148530Y-79733455D01*
X44126461Y-79744980D01*
X44107065Y-79760588D01*
X44091087Y-79779681D01*
X44079140Y-79801523D01*
X44071684Y-79825277D01*
X44069006Y-79850029D01*
X43878506Y-99662029D01*
X20599000Y-99662029D01*
X20599000Y-96553872D01*
X27483000Y-96553872D01*
X27483000Y-96994128D01*
X27568890Y-97425925D01*
X27737369Y-97832669D01*
X27981962Y-98198729D01*
X28293271Y-98510038D01*
X28659331Y-98754631D01*
X29066075Y-98923110D01*
X29497872Y-99009000D01*
X29938128Y-99009000D01*
X30369925Y-98923110D01*
X30776669Y-98754631D01*
X31142729Y-98510038D01*
X31454038Y-98198729D01*
X31698631Y-97832669D01*
X31867110Y-97425925D01*
X31953000Y-96994128D01*
X31953000Y-96553872D01*
X31867110Y-96122075D01*
X31698631Y-95715331D01*
X31454038Y-95349271D01*
X31142729Y-95037962D01*
X30776669Y-94793369D01*
X30369925Y-94624890D01*
X29938128Y-94539000D01*
X29497872Y-94539000D01*
X29066075Y-94624890D01*
X28659331Y-94793369D01*
X28293271Y-95037962D01*
X27981962Y-95349271D01*
X27737369Y-95715331D01*
X27568890Y-96122075D01*
X27483000Y-96553872D01*
X20599000Y-96553872D01*
X20599000Y-87911967D01*
X40825626Y-87911967D01*
X40864428Y-88294834D01*
X41197801Y-88467959D01*
X41558543Y-88572720D01*
X41932791Y-88605091D01*
X42306164Y-88563828D01*
X42664313Y-88450516D01*
X42955572Y-88294834D01*
X42994374Y-87911967D01*
X41910000Y-86827593D01*
X40825626Y-87911967D01*
X20599000Y-87911967D01*
X20599000Y-86711791D01*
X39993909Y-86711791D01*
X40035172Y-87085164D01*
X40148484Y-87443313D01*
X40304166Y-87734572D01*
X40687033Y-87773374D01*
X41771407Y-86689000D01*
X42048593Y-86689000D01*
X43132967Y-87773374D01*
X43515834Y-87734572D01*
X43688959Y-87401199D01*
X43793720Y-87040457D01*
X43826091Y-86666209D01*
X43784828Y-86292836D01*
X43671516Y-85934687D01*
X43515834Y-85643428D01*
X43132967Y-85604626D01*
X42048593Y-86689000D01*
X41771407Y-86689000D01*
X40687033Y-85604626D01*
X40304166Y-85643428D01*
X40131041Y-85976801D01*
X40026280Y-86337543D01*
X39993909Y-86711791D01*
X20599000Y-86711791D01*
X20599000Y-73849635D01*
X40495000Y-73849635D01*
X40495000Y-74128365D01*
X40549377Y-74401740D01*
X40656043Y-74659254D01*
X40810897Y-74891010D01*
X41007990Y-75088103D01*
X41239746Y-75242957D01*
X41278477Y-75259000D01*
X41239746Y-75275043D01*
X41007990Y-75429897D01*
X40810897Y-75626990D01*
X40656043Y-75858746D01*
X40549377Y-76116260D01*
X40495000Y-76389635D01*
X40495000Y-76668365D01*
X40549377Y-76941740D01*
X40656043Y-77199254D01*
X40810897Y-77431010D01*
X41007990Y-77628103D01*
X41239746Y-77782957D01*
X41278477Y-77799000D01*
X41239746Y-77815043D01*
X41007990Y-77969897D01*
X40810897Y-78166990D01*
X40656043Y-78398746D01*
X40549377Y-78656260D01*
X40495000Y-78929635D01*
X40495000Y-79208365D01*
X40549377Y-79481740D01*
X40656043Y-79739254D01*
X40810897Y-79971010D01*
X41007990Y-80168103D01*
X41239746Y-80322957D01*
X41278477Y-80339000D01*
X41239746Y-80355043D01*
X41007990Y-80509897D01*
X40810897Y-80706990D01*
X40656043Y-80938746D01*
X40549377Y-81196260D01*
X40495000Y-81469635D01*
X40495000Y-81748365D01*
X40549377Y-82021740D01*
X40656043Y-82279254D01*
X40810897Y-82511010D01*
X41007990Y-82708103D01*
X41239746Y-82862957D01*
X41278477Y-82879000D01*
X41239746Y-82895043D01*
X41007990Y-83049897D01*
X40810897Y-83246990D01*
X40656043Y-83478746D01*
X40549377Y-83736260D01*
X40495000Y-84009635D01*
X40495000Y-84288365D01*
X40549377Y-84561740D01*
X40656043Y-84819254D01*
X40810897Y-85051010D01*
X40862461Y-85102574D01*
X40825626Y-85466033D01*
X41910000Y-86550407D01*
X42994374Y-85466033D01*
X42957539Y-85102574D01*
X43009103Y-85051010D01*
X43163957Y-84819254D01*
X43270623Y-84561740D01*
X43325000Y-84288365D01*
X43325000Y-84009635D01*
X43270623Y-83736260D01*
X43163957Y-83478746D01*
X43009103Y-83246990D01*
X42812010Y-83049897D01*
X42580254Y-82895043D01*
X42541523Y-82879000D01*
X42580254Y-82862957D01*
X42812010Y-82708103D01*
X43009103Y-82511010D01*
X43163957Y-82279254D01*
X43270623Y-82021740D01*
X43325000Y-81748365D01*
X43325000Y-81469635D01*
X43270623Y-81196260D01*
X43163957Y-80938746D01*
X43009103Y-80706990D01*
X42812010Y-80509897D01*
X42580254Y-80355043D01*
X42541523Y-80339000D01*
X42580254Y-80322957D01*
X42812010Y-80168103D01*
X43009103Y-79971010D01*
X43163957Y-79739254D01*
X43270623Y-79481740D01*
X43325000Y-79208365D01*
X43325000Y-78929635D01*
X43270623Y-78656260D01*
X43163957Y-78398746D01*
X43009103Y-78166990D01*
X42812010Y-77969897D01*
X42580254Y-77815043D01*
X42541523Y-77799000D01*
X42580254Y-77782957D01*
X42812010Y-77628103D01*
X43009103Y-77431010D01*
X43163957Y-77199254D01*
X43270623Y-76941740D01*
X43325000Y-76668365D01*
X43325000Y-76389635D01*
X43270623Y-76116260D01*
X43163957Y-75858746D01*
X43009103Y-75626990D01*
X42812010Y-75429897D01*
X42580254Y-75275043D01*
X42541523Y-75259000D01*
X42580254Y-75242957D01*
X42812010Y-75088103D01*
X43009103Y-74891010D01*
X43163957Y-74659254D01*
X43270623Y-74401740D01*
X43325000Y-74128365D01*
X43325000Y-73849635D01*
X43270623Y-73576260D01*
X43163957Y-73318746D01*
X43009103Y-73086990D01*
X42957539Y-73035426D01*
X42994374Y-72671967D01*
X41910000Y-71587593D01*
X40825626Y-72671967D01*
X40862461Y-73035426D01*
X40810897Y-73086990D01*
X40656043Y-73318746D01*
X40549377Y-73576260D01*
X40495000Y-73849635D01*
X20599000Y-73849635D01*
X20599000Y-71471791D01*
X39993909Y-71471791D01*
X40035172Y-71845164D01*
X40148484Y-72203313D01*
X40304166Y-72494572D01*
X40687033Y-72533374D01*
X41771407Y-71449000D01*
X42048593Y-71449000D01*
X43132967Y-72533374D01*
X43515834Y-72494572D01*
X43688959Y-72161199D01*
X43793720Y-71800457D01*
X43826091Y-71426209D01*
X43784828Y-71052836D01*
X43671516Y-70694687D01*
X43515834Y-70403428D01*
X43132967Y-70364626D01*
X42048593Y-71449000D01*
X41771407Y-71449000D01*
X40687033Y-70364626D01*
X40304166Y-70403428D01*
X40131041Y-70736801D01*
X40026280Y-71097543D01*
X39993909Y-71471791D01*
X20599000Y-71471791D01*
X20599000Y-57238000D01*
X24433547Y-57238000D01*
X24455307Y-57458931D01*
X24519750Y-57671371D01*
X24624400Y-57867157D01*
X24765235Y-58038765D01*
X24936843Y-58179600D01*
X25085690Y-58259161D01*
X24988068Y-58494842D01*
X24931000Y-58781740D01*
X24931000Y-59074260D01*
X24988068Y-59361158D01*
X25100010Y-59631411D01*
X25262525Y-59874632D01*
X25469368Y-60081475D01*
X25643760Y-60198000D01*
X25469368Y-60314525D01*
X25262525Y-60521368D01*
X25100010Y-60764589D01*
X24988068Y-61034842D01*
X24931000Y-61321740D01*
X24931000Y-61614260D01*
X24988068Y-61901158D01*
X25100010Y-62171411D01*
X25262525Y-62414632D01*
X25469368Y-62621475D01*
X25643760Y-62738000D01*
X25469368Y-62854525D01*
X25262525Y-63061368D01*
X25100010Y-63304589D01*
X24988068Y-63574842D01*
X24931000Y-63861740D01*
X24931000Y-64154260D01*
X24988068Y-64441158D01*
X25100010Y-64711411D01*
X25262525Y-64954632D01*
X25469368Y-65161475D01*
X25643760Y-65278000D01*
X25469368Y-65394525D01*
X25262525Y-65601368D01*
X25100010Y-65844589D01*
X24988068Y-66114842D01*
X24931000Y-66401740D01*
X24931000Y-66694260D01*
X24988068Y-66981158D01*
X25100010Y-67251411D01*
X25262525Y-67494632D01*
X25469368Y-67701475D01*
X25643760Y-67818000D01*
X25469368Y-67934525D01*
X25262525Y-68141368D01*
X25100010Y-68384589D01*
X24988068Y-68654842D01*
X24931000Y-68941740D01*
X24931000Y-69234260D01*
X24988068Y-69521158D01*
X25100010Y-69791411D01*
X25262525Y-70034632D01*
X25469368Y-70241475D01*
X25712589Y-70403990D01*
X25982842Y-70515932D01*
X26269740Y-70573000D01*
X26562260Y-70573000D01*
X26849158Y-70515932D01*
X27119411Y-70403990D01*
X27362632Y-70241475D01*
X27569475Y-70034632D01*
X27731990Y-69791411D01*
X27843932Y-69521158D01*
X27901000Y-69234260D01*
X27901000Y-68941740D01*
X27843932Y-68654842D01*
X27731990Y-68384589D01*
X27569475Y-68141368D01*
X27362632Y-67934525D01*
X27188240Y-67818000D01*
X27362632Y-67701475D01*
X27569475Y-67494632D01*
X27731990Y-67251411D01*
X27843932Y-66981158D01*
X27901000Y-66694260D01*
X27901000Y-66401740D01*
X27843932Y-66114842D01*
X27731990Y-65844589D01*
X27569475Y-65601368D01*
X27362632Y-65394525D01*
X27188240Y-65278000D01*
X27362632Y-65161475D01*
X27569475Y-64954632D01*
X27731990Y-64711411D01*
X27843932Y-64441158D01*
X27901000Y-64154260D01*
X27901000Y-63861740D01*
X27843932Y-63574842D01*
X27731990Y-63304589D01*
X27569475Y-63061368D01*
X27362632Y-62854525D01*
X27188240Y-62738000D01*
X27362632Y-62621475D01*
X27569475Y-62414632D01*
X27731990Y-62171411D01*
X27843932Y-61901158D01*
X27901000Y-61614260D01*
X27901000Y-61321740D01*
X27843932Y-61034842D01*
X27731990Y-60764589D01*
X27569475Y-60521368D01*
X27362632Y-60314525D01*
X27188240Y-60198000D01*
X27362632Y-60081475D01*
X27569475Y-59874632D01*
X27731990Y-59631411D01*
X27843932Y-59361158D01*
X27901000Y-59074260D01*
X27901000Y-58781740D01*
X27843932Y-58494842D01*
X27746310Y-58259161D01*
X27895157Y-58179600D01*
X28066765Y-58038765D01*
X28207600Y-57867157D01*
X28312250Y-57671371D01*
X28376693Y-57458931D01*
X28398453Y-57238000D01*
X28393000Y-56767750D01*
X28111250Y-56486000D01*
X26514000Y-56486000D01*
X26514000Y-56506000D01*
X26318000Y-56506000D01*
X26318000Y-56486000D01*
X24720750Y-56486000D01*
X24439000Y-56767750D01*
X24433547Y-57238000D01*
X20599000Y-57238000D01*
X20599000Y-55538000D01*
X24433547Y-55538000D01*
X24439000Y-56008250D01*
X24720750Y-56290000D01*
X26318000Y-56290000D01*
X26318000Y-54692750D01*
X26514000Y-54692750D01*
X26514000Y-56290000D01*
X28111250Y-56290000D01*
X28393000Y-56008250D01*
X28398453Y-55538000D01*
X28376693Y-55317069D01*
X28312250Y-55104629D01*
X28207600Y-54908843D01*
X28066765Y-54737235D01*
X27895157Y-54596400D01*
X27699371Y-54491750D01*
X27486931Y-54427307D01*
X27266000Y-54405547D01*
X26795750Y-54411000D01*
X26514000Y-54692750D01*
X26318000Y-54692750D01*
X26036250Y-54411000D01*
X25566000Y-54405547D01*
X25345069Y-54427307D01*
X25132629Y-54491750D01*
X24936843Y-54596400D01*
X24765235Y-54737235D01*
X24624400Y-54908843D01*
X24519750Y-55104629D01*
X24455307Y-55317069D01*
X24433547Y-55538000D01*
X20599000Y-55538000D01*
X20599000Y-40829635D01*
X40495000Y-40829635D01*
X40495000Y-41108365D01*
X40549377Y-41381740D01*
X40656043Y-41639254D01*
X40810897Y-41871010D01*
X41007990Y-42068103D01*
X41239746Y-42222957D01*
X41278477Y-42239000D01*
X41239746Y-42255043D01*
X41007990Y-42409897D01*
X40810897Y-42606990D01*
X40656043Y-42838746D01*
X40549377Y-43096260D01*
X40495000Y-43369635D01*
X40495000Y-43648365D01*
X40549377Y-43921740D01*
X40656043Y-44179254D01*
X40810897Y-44411010D01*
X41007990Y-44608103D01*
X41239746Y-44762957D01*
X41278477Y-44779000D01*
X41239746Y-44795043D01*
X41007990Y-44949897D01*
X40810897Y-45146990D01*
X40656043Y-45378746D01*
X40549377Y-45636260D01*
X40495000Y-45909635D01*
X40495000Y-46188365D01*
X40549377Y-46461740D01*
X40656043Y-46719254D01*
X40810897Y-46951010D01*
X41007990Y-47148103D01*
X41239746Y-47302957D01*
X41278477Y-47319000D01*
X41239746Y-47335043D01*
X41007990Y-47489897D01*
X40810897Y-47686990D01*
X40656043Y-47918746D01*
X40549377Y-48176260D01*
X40495000Y-48449635D01*
X40495000Y-48728365D01*
X40549377Y-49001740D01*
X40656043Y-49259254D01*
X40810897Y-49491010D01*
X41007990Y-49688103D01*
X41239746Y-49842957D01*
X41278477Y-49859000D01*
X41239746Y-49875043D01*
X41007990Y-50029897D01*
X40810897Y-50226990D01*
X40656043Y-50458746D01*
X40549377Y-50716260D01*
X40495000Y-50989635D01*
X40495000Y-51268365D01*
X40549377Y-51541740D01*
X40656043Y-51799254D01*
X40810897Y-52031010D01*
X41007990Y-52228103D01*
X41239746Y-52382957D01*
X41278477Y-52399000D01*
X41239746Y-52415043D01*
X41007990Y-52569897D01*
X40810897Y-52766990D01*
X40656043Y-52998746D01*
X40549377Y-53256260D01*
X40495000Y-53529635D01*
X40495000Y-53808365D01*
X40549377Y-54081740D01*
X40656043Y-54339254D01*
X40810897Y-54571010D01*
X41007990Y-54768103D01*
X41239746Y-54922957D01*
X41278477Y-54939000D01*
X41239746Y-54955043D01*
X41007990Y-55109897D01*
X40810897Y-55306990D01*
X40656043Y-55538746D01*
X40549377Y-55796260D01*
X40495000Y-56069635D01*
X40495000Y-56348365D01*
X40549377Y-56621740D01*
X40656043Y-56879254D01*
X40810897Y-57111010D01*
X41007990Y-57308103D01*
X41239746Y-57462957D01*
X41278477Y-57479000D01*
X41239746Y-57495043D01*
X41007990Y-57649897D01*
X40810897Y-57846990D01*
X40656043Y-58078746D01*
X40549377Y-58336260D01*
X40495000Y-58609635D01*
X40495000Y-58888365D01*
X40549377Y-59161740D01*
X40656043Y-59419254D01*
X40810897Y-59651010D01*
X41007990Y-59848103D01*
X41239746Y-60002957D01*
X41278477Y-60019000D01*
X41239746Y-60035043D01*
X41007990Y-60189897D01*
X40810897Y-60386990D01*
X40656043Y-60618746D01*
X40549377Y-60876260D01*
X40495000Y-61149635D01*
X40495000Y-61428365D01*
X40549377Y-61701740D01*
X40656043Y-61959254D01*
X40810897Y-62191010D01*
X41007990Y-62388103D01*
X41239746Y-62542957D01*
X41278477Y-62559000D01*
X41239746Y-62575043D01*
X41007990Y-62729897D01*
X40810897Y-62926990D01*
X40656043Y-63158746D01*
X40549377Y-63416260D01*
X40495000Y-63689635D01*
X40495000Y-63968365D01*
X40549377Y-64241740D01*
X40656043Y-64499254D01*
X40810897Y-64731010D01*
X41007990Y-64928103D01*
X41239746Y-65082957D01*
X41278477Y-65099000D01*
X41239746Y-65115043D01*
X41007990Y-65269897D01*
X40810897Y-65466990D01*
X40656043Y-65698746D01*
X40549377Y-65956260D01*
X40495000Y-66229635D01*
X40495000Y-66508365D01*
X40549377Y-66781740D01*
X40656043Y-67039254D01*
X40810897Y-67271010D01*
X41007990Y-67468103D01*
X41239746Y-67622957D01*
X41278477Y-67639000D01*
X41239746Y-67655043D01*
X41007990Y-67809897D01*
X40810897Y-68006990D01*
X40656043Y-68238746D01*
X40549377Y-68496260D01*
X40495000Y-68769635D01*
X40495000Y-69048365D01*
X40549377Y-69321740D01*
X40656043Y-69579254D01*
X40810897Y-69811010D01*
X40862461Y-69862574D01*
X40825626Y-70226033D01*
X41910000Y-71310407D01*
X42994374Y-70226033D01*
X42957539Y-69862574D01*
X43009103Y-69811010D01*
X43163957Y-69579254D01*
X43270623Y-69321740D01*
X43325000Y-69048365D01*
X43325000Y-68769635D01*
X43270623Y-68496260D01*
X43163957Y-68238746D01*
X43009103Y-68006990D01*
X42812010Y-67809897D01*
X42580254Y-67655043D01*
X42541523Y-67639000D01*
X42580254Y-67622957D01*
X42812010Y-67468103D01*
X43009103Y-67271010D01*
X43163957Y-67039254D01*
X43270623Y-66781740D01*
X43325000Y-66508365D01*
X43325000Y-66229635D01*
X43270623Y-65956260D01*
X43163957Y-65698746D01*
X43009103Y-65466990D01*
X42812010Y-65269897D01*
X42580254Y-65115043D01*
X42541523Y-65099000D01*
X42580254Y-65082957D01*
X42812010Y-64928103D01*
X43009103Y-64731010D01*
X43163957Y-64499254D01*
X43270623Y-64241740D01*
X43325000Y-63968365D01*
X43325000Y-63689635D01*
X43270623Y-63416260D01*
X43163957Y-63158746D01*
X43009103Y-62926990D01*
X42812010Y-62729897D01*
X42580254Y-62575043D01*
X42541523Y-62559000D01*
X42580254Y-62542957D01*
X42812010Y-62388103D01*
X43009103Y-62191010D01*
X43163957Y-61959254D01*
X43270623Y-61701740D01*
X43325000Y-61428365D01*
X43325000Y-61149635D01*
X43270623Y-60876260D01*
X43163957Y-60618746D01*
X43009103Y-60386990D01*
X42812010Y-60189897D01*
X42580254Y-60035043D01*
X42541523Y-60019000D01*
X42580254Y-60002957D01*
X42812010Y-59848103D01*
X43009103Y-59651010D01*
X43163957Y-59419254D01*
X43270623Y-59161740D01*
X43325000Y-58888365D01*
X43325000Y-58609635D01*
X43270623Y-58336260D01*
X43163957Y-58078746D01*
X43009103Y-57846990D01*
X42812010Y-57649897D01*
X42580254Y-57495043D01*
X42541523Y-57479000D01*
X42580254Y-57462957D01*
X42812010Y-57308103D01*
X43009103Y-57111010D01*
X43163957Y-56879254D01*
X43270623Y-56621740D01*
X43325000Y-56348365D01*
X43325000Y-56069635D01*
X43270623Y-55796260D01*
X43163957Y-55538746D01*
X43009103Y-55306990D01*
X42812010Y-55109897D01*
X42580254Y-54955043D01*
X42541523Y-54939000D01*
X42580254Y-54922957D01*
X42812010Y-54768103D01*
X43009103Y-54571010D01*
X43163957Y-54339254D01*
X43270623Y-54081740D01*
X43325000Y-53808365D01*
X43325000Y-53691791D01*
X65393909Y-53691791D01*
X65435172Y-54065164D01*
X65548484Y-54423313D01*
X65704166Y-54714572D01*
X66087033Y-54753374D01*
X67171407Y-53669000D01*
X67448593Y-53669000D01*
X68532967Y-54753374D01*
X68915834Y-54714572D01*
X69088959Y-54381199D01*
X69193720Y-54020457D01*
X69226091Y-53646209D01*
X69184828Y-53272836D01*
X69071516Y-52914687D01*
X68915834Y-52623428D01*
X68532967Y-52584626D01*
X67448593Y-53669000D01*
X67171407Y-53669000D01*
X66087033Y-52584626D01*
X65704166Y-52623428D01*
X65531041Y-52956801D01*
X65426280Y-53317543D01*
X65393909Y-53691791D01*
X43325000Y-53691791D01*
X43325000Y-53529635D01*
X43270623Y-53256260D01*
X43163957Y-52998746D01*
X43009103Y-52766990D01*
X42812010Y-52569897D01*
X42580254Y-52415043D01*
X42541523Y-52399000D01*
X42580254Y-52382957D01*
X42812010Y-52228103D01*
X43009103Y-52031010D01*
X43163957Y-51799254D01*
X43270623Y-51541740D01*
X43325000Y-51268365D01*
X43325000Y-50989635D01*
X43270623Y-50716260D01*
X43163957Y-50458746D01*
X43009103Y-50226990D01*
X42812010Y-50029897D01*
X42580254Y-49875043D01*
X42541523Y-49859000D01*
X42580254Y-49842957D01*
X42812010Y-49688103D01*
X43009103Y-49491010D01*
X43163957Y-49259254D01*
X43270623Y-49001740D01*
X43325000Y-48728365D01*
X43325000Y-48449635D01*
X43270623Y-48176260D01*
X43163957Y-47918746D01*
X43009103Y-47686990D01*
X42812010Y-47489897D01*
X42580254Y-47335043D01*
X42541523Y-47319000D01*
X42580254Y-47302957D01*
X42812010Y-47148103D01*
X43009103Y-46951010D01*
X43163957Y-46719254D01*
X43270623Y-46461740D01*
X43325000Y-46188365D01*
X43325000Y-45909635D01*
X43270623Y-45636260D01*
X43163957Y-45378746D01*
X43009103Y-45146990D01*
X42812010Y-44949897D01*
X42580254Y-44795043D01*
X42541523Y-44779000D01*
X42580254Y-44762957D01*
X42812010Y-44608103D01*
X43009103Y-44411010D01*
X43163957Y-44179254D01*
X43270623Y-43921740D01*
X43325000Y-43648365D01*
X43325000Y-43369635D01*
X43270623Y-43096260D01*
X43163957Y-42838746D01*
X43009103Y-42606990D01*
X42812010Y-42409897D01*
X42580254Y-42255043D01*
X42541523Y-42239000D01*
X42580254Y-42222957D01*
X42812010Y-42068103D01*
X43009103Y-41871010D01*
X43163957Y-41639254D01*
X43270623Y-41381740D01*
X43325000Y-41108365D01*
X43325000Y-40829635D01*
X65895000Y-40829635D01*
X65895000Y-41108365D01*
X65949377Y-41381740D01*
X66056043Y-41639254D01*
X66210897Y-41871010D01*
X66407990Y-42068103D01*
X66639746Y-42222957D01*
X66678477Y-42239000D01*
X66639746Y-42255043D01*
X66407990Y-42409897D01*
X66210897Y-42606990D01*
X66056043Y-42838746D01*
X65949377Y-43096260D01*
X65895000Y-43369635D01*
X65895000Y-43648365D01*
X65949377Y-43921740D01*
X66056043Y-44179254D01*
X66210897Y-44411010D01*
X66407990Y-44608103D01*
X66639746Y-44762957D01*
X66678477Y-44779000D01*
X66639746Y-44795043D01*
X66407990Y-44949897D01*
X66210897Y-45146990D01*
X66056043Y-45378746D01*
X65949377Y-45636260D01*
X65895000Y-45909635D01*
X65895000Y-46188365D01*
X65949377Y-46461740D01*
X66056043Y-46719254D01*
X66210897Y-46951010D01*
X66407990Y-47148103D01*
X66639746Y-47302957D01*
X66678477Y-47319000D01*
X66639746Y-47335043D01*
X66407990Y-47489897D01*
X66210897Y-47686990D01*
X66056043Y-47918746D01*
X65949377Y-48176260D01*
X65895000Y-48449635D01*
X65895000Y-48728365D01*
X65949377Y-49001740D01*
X66056043Y-49259254D01*
X66210897Y-49491010D01*
X66407990Y-49688103D01*
X66639746Y-49842957D01*
X66678477Y-49859000D01*
X66639746Y-49875043D01*
X66407990Y-50029897D01*
X66210897Y-50226990D01*
X66056043Y-50458746D01*
X65949377Y-50716260D01*
X65895000Y-50989635D01*
X65895000Y-51268365D01*
X65949377Y-51541740D01*
X66056043Y-51799254D01*
X66210897Y-52031010D01*
X66262461Y-52082574D01*
X66225626Y-52446033D01*
X67310000Y-53530407D01*
X68394374Y-52446033D01*
X68357539Y-52082574D01*
X68409103Y-52031010D01*
X68563957Y-51799254D01*
X68670623Y-51541740D01*
X68712131Y-51333061D01*
X87230000Y-51333061D01*
X87230000Y-51536939D01*
X87269774Y-51736898D01*
X87347795Y-51925256D01*
X87461063Y-52094774D01*
X87605226Y-52238937D01*
X87774744Y-52352205D01*
X87963102Y-52430226D01*
X88163061Y-52470000D01*
X88366939Y-52470000D01*
X88566898Y-52430226D01*
X88755256Y-52352205D01*
X88924774Y-52238937D01*
X89068937Y-52094774D01*
X89182205Y-51925256D01*
X89260226Y-51736898D01*
X89300000Y-51536939D01*
X89300000Y-51333061D01*
X89260226Y-51133102D01*
X89182205Y-50944744D01*
X89068937Y-50775226D01*
X88924774Y-50631063D01*
X88755256Y-50517795D01*
X88566898Y-50439774D01*
X88366939Y-50400000D01*
X88163061Y-50400000D01*
X87963102Y-50439774D01*
X87774744Y-50517795D01*
X87605226Y-50631063D01*
X87461063Y-50775226D01*
X87347795Y-50944744D01*
X87269774Y-51133102D01*
X87230000Y-51333061D01*
X68712131Y-51333061D01*
X68725000Y-51268365D01*
X68725000Y-50989635D01*
X68670623Y-50716260D01*
X68563957Y-50458746D01*
X68409103Y-50226990D01*
X68245174Y-50063061D01*
X96120000Y-50063061D01*
X96120000Y-50266939D01*
X96159774Y-50466898D01*
X96237795Y-50655256D01*
X96334510Y-50800000D01*
X96237795Y-50944744D01*
X96159774Y-51133102D01*
X96120000Y-51333061D01*
X96120000Y-51536939D01*
X96159774Y-51736898D01*
X96237795Y-51925256D01*
X96351063Y-52094774D01*
X96495226Y-52238937D01*
X96664744Y-52352205D01*
X96853102Y-52430226D01*
X97053061Y-52470000D01*
X97256939Y-52470000D01*
X97456898Y-52430226D01*
X97645256Y-52352205D01*
X97814774Y-52238937D01*
X97958937Y-52094774D01*
X98072205Y-51925256D01*
X98101306Y-51855000D01*
X120431928Y-51855000D01*
X120431928Y-53555000D01*
X120444188Y-53679482D01*
X120480498Y-53799180D01*
X120539463Y-53909494D01*
X120618815Y-54006185D01*
X120715506Y-54085537D01*
X120825820Y-54144502D01*
X120945518Y-54180812D01*
X121070000Y-54193072D01*
X122770000Y-54193072D01*
X122894482Y-54180812D01*
X123014180Y-54144502D01*
X123124494Y-54085537D01*
X123221185Y-54006185D01*
X123300537Y-53909494D01*
X123359502Y-53799180D01*
X123395812Y-53679482D01*
X123408072Y-53555000D01*
X123408072Y-51855000D01*
X123395812Y-51730518D01*
X123359502Y-51610820D01*
X123300537Y-51500506D01*
X123221185Y-51403815D01*
X123124494Y-51324463D01*
X123014180Y-51265498D01*
X122894482Y-51229188D01*
X122770000Y-51216928D01*
X121070000Y-51216928D01*
X120945518Y-51229188D01*
X120825820Y-51265498D01*
X120715506Y-51324463D01*
X120618815Y-51403815D01*
X120539463Y-51500506D01*
X120480498Y-51610820D01*
X120444188Y-51730518D01*
X120431928Y-51855000D01*
X98101306Y-51855000D01*
X98150226Y-51736898D01*
X98190000Y-51536939D01*
X98190000Y-51360903D01*
X98256063Y-51459774D01*
X98400226Y-51603937D01*
X98569744Y-51717205D01*
X98758102Y-51795226D01*
X98958061Y-51835000D01*
X99161939Y-51835000D01*
X99361898Y-51795226D01*
X99550256Y-51717205D01*
X99719774Y-51603937D01*
X99863937Y-51459774D01*
X99977205Y-51290256D01*
X100055226Y-51101898D01*
X100095000Y-50901939D01*
X100095000Y-50698061D01*
X100055226Y-50498102D01*
X99977205Y-50309744D01*
X99863937Y-50140226D01*
X99719774Y-49996063D01*
X99550256Y-49882795D01*
X99361898Y-49804774D01*
X99161939Y-49765000D01*
X98958061Y-49765000D01*
X98758102Y-49804774D01*
X98569744Y-49882795D01*
X98400226Y-49996063D01*
X98256063Y-50140226D01*
X98190000Y-50239097D01*
X98190000Y-50063061D01*
X98150226Y-49863102D01*
X98072205Y-49674744D01*
X97958937Y-49505226D01*
X97814774Y-49361063D01*
X97645256Y-49247795D01*
X97456898Y-49169774D01*
X97256939Y-49130000D01*
X97053061Y-49130000D01*
X96853102Y-49169774D01*
X96664744Y-49247795D01*
X96495226Y-49361063D01*
X96351063Y-49505226D01*
X96237795Y-49674744D01*
X96159774Y-49863102D01*
X96120000Y-50063061D01*
X68245174Y-50063061D01*
X68212010Y-50029897D01*
X67980254Y-49875043D01*
X67941523Y-49859000D01*
X67980254Y-49842957D01*
X68212010Y-49688103D01*
X68409103Y-49491010D01*
X68563957Y-49259254D01*
X68670623Y-49001740D01*
X68725000Y-48728365D01*
X68725000Y-48449635D01*
X68670623Y-48176260D01*
X68563957Y-47918746D01*
X68409103Y-47686990D01*
X68212010Y-47489897D01*
X67980254Y-47335043D01*
X67941523Y-47319000D01*
X67980254Y-47302957D01*
X68212010Y-47148103D01*
X68409103Y-46951010D01*
X68563957Y-46719254D01*
X68670623Y-46461740D01*
X68725000Y-46188365D01*
X68725000Y-45909635D01*
X68670623Y-45636260D01*
X68563957Y-45378746D01*
X68409103Y-45146990D01*
X68212010Y-44949897D01*
X67980254Y-44795043D01*
X67941523Y-44779000D01*
X67980254Y-44762957D01*
X68212010Y-44608103D01*
X68409103Y-44411010D01*
X68563957Y-44179254D01*
X68633236Y-44012000D01*
X110429928Y-44012000D01*
X110429928Y-46412000D01*
X110442188Y-46536482D01*
X110478498Y-46656180D01*
X110537463Y-46766494D01*
X110616815Y-46863185D01*
X110713506Y-46942537D01*
X110823820Y-47001502D01*
X110943518Y-47037812D01*
X111068000Y-47050072D01*
X113468000Y-47050072D01*
X113592482Y-47037812D01*
X113712180Y-47001502D01*
X113822494Y-46942537D01*
X113919185Y-46863185D01*
X113998537Y-46766494D01*
X114057502Y-46656180D01*
X114093812Y-46536482D01*
X114106072Y-46412000D01*
X114106072Y-44012000D01*
X114093812Y-43887518D01*
X114057502Y-43767820D01*
X113998537Y-43657506D01*
X113919185Y-43560815D01*
X113871889Y-43522000D01*
X129081547Y-43522000D01*
X129103307Y-43742931D01*
X129167750Y-43955371D01*
X129272400Y-44151157D01*
X129413235Y-44322765D01*
X129584843Y-44463600D01*
X129733690Y-44543161D01*
X129636068Y-44778842D01*
X129579000Y-45065740D01*
X129579000Y-45358260D01*
X129636068Y-45645158D01*
X129748010Y-45915411D01*
X129910525Y-46158632D01*
X130117368Y-46365475D01*
X130291760Y-46482000D01*
X130117368Y-46598525D01*
X129910525Y-46805368D01*
X129748010Y-47048589D01*
X129636068Y-47318842D01*
X129579000Y-47605740D01*
X129579000Y-47898260D01*
X129636068Y-48185158D01*
X129748010Y-48455411D01*
X129910525Y-48698632D01*
X130117368Y-48905475D01*
X130360589Y-49067990D01*
X130630842Y-49179932D01*
X130917740Y-49237000D01*
X131210260Y-49237000D01*
X131497158Y-49179932D01*
X131767411Y-49067990D01*
X132010632Y-48905475D01*
X132217475Y-48698632D01*
X132379990Y-48455411D01*
X132491932Y-48185158D01*
X132549000Y-47898260D01*
X132549000Y-47605740D01*
X132491932Y-47318842D01*
X132379990Y-47048589D01*
X132217475Y-46805368D01*
X132010632Y-46598525D01*
X131836240Y-46482000D01*
X132010632Y-46365475D01*
X132217475Y-46158632D01*
X132379990Y-45915411D01*
X132491932Y-45645158D01*
X132549000Y-45358260D01*
X132549000Y-45065740D01*
X132491932Y-44778842D01*
X132394310Y-44543161D01*
X132543157Y-44463600D01*
X132714765Y-44322765D01*
X132855600Y-44151157D01*
X132960250Y-43955371D01*
X133024693Y-43742931D01*
X133046453Y-43522000D01*
X133041000Y-43051750D01*
X132759250Y-42770000D01*
X131162000Y-42770000D01*
X131162000Y-42790000D01*
X130966000Y-42790000D01*
X130966000Y-42770000D01*
X129368750Y-42770000D01*
X129087000Y-43051750D01*
X129081547Y-43522000D01*
X113871889Y-43522000D01*
X113822494Y-43481463D01*
X113712180Y-43422498D01*
X113592482Y-43386188D01*
X113468000Y-43373928D01*
X111068000Y-43373928D01*
X110943518Y-43386188D01*
X110823820Y-43422498D01*
X110713506Y-43481463D01*
X110616815Y-43560815D01*
X110537463Y-43657506D01*
X110478498Y-43767820D01*
X110442188Y-43887518D01*
X110429928Y-44012000D01*
X68633236Y-44012000D01*
X68670623Y-43921740D01*
X68725000Y-43648365D01*
X68725000Y-43369635D01*
X68670623Y-43096260D01*
X68563957Y-42838746D01*
X68409103Y-42606990D01*
X68212010Y-42409897D01*
X67980254Y-42255043D01*
X67941523Y-42239000D01*
X67980254Y-42222957D01*
X68212010Y-42068103D01*
X68409103Y-41871010D01*
X68563957Y-41639254D01*
X68670623Y-41381740D01*
X68725000Y-41108365D01*
X68725000Y-40829635D01*
X68670623Y-40556260D01*
X68563957Y-40298746D01*
X68409103Y-40066990D01*
X68212010Y-39869897D01*
X67980254Y-39715043D01*
X67722740Y-39608377D01*
X67449365Y-39554000D01*
X67170635Y-39554000D01*
X66897260Y-39608377D01*
X66639746Y-39715043D01*
X66407990Y-39869897D01*
X66210897Y-40066990D01*
X66056043Y-40298746D01*
X65949377Y-40556260D01*
X65895000Y-40829635D01*
X43325000Y-40829635D01*
X43270623Y-40556260D01*
X43163957Y-40298746D01*
X43009103Y-40066990D01*
X42812010Y-39869897D01*
X42580254Y-39715043D01*
X42322740Y-39608377D01*
X42049365Y-39554000D01*
X41770635Y-39554000D01*
X41497260Y-39608377D01*
X41239746Y-39715043D01*
X41007990Y-39869897D01*
X40810897Y-40066990D01*
X40656043Y-40298746D01*
X40549377Y-40556260D01*
X40495000Y-40829635D01*
X20599000Y-40829635D01*
X20599000Y-38760061D01*
X88881000Y-38760061D01*
X88881000Y-38963939D01*
X88920774Y-39163898D01*
X88998795Y-39352256D01*
X89053080Y-39433500D01*
X88998795Y-39514744D01*
X88920774Y-39703102D01*
X88881000Y-39903061D01*
X88881000Y-40106939D01*
X88920774Y-40306898D01*
X88998795Y-40495256D01*
X89095510Y-40640000D01*
X88998795Y-40784744D01*
X88920774Y-40973102D01*
X88881000Y-41173061D01*
X88881000Y-41376939D01*
X88920774Y-41576898D01*
X88998795Y-41765256D01*
X89112063Y-41934774D01*
X89256226Y-42078937D01*
X89425744Y-42192205D01*
X89614102Y-42270226D01*
X89814061Y-42310000D01*
X90017939Y-42310000D01*
X90217898Y-42270226D01*
X90406256Y-42192205D01*
X90575774Y-42078937D01*
X90719937Y-41934774D01*
X90720333Y-41934181D01*
X90720729Y-41934774D01*
X90864892Y-42078937D01*
X91034410Y-42192205D01*
X91222768Y-42270226D01*
X91422727Y-42310000D01*
X91626605Y-42310000D01*
X91826564Y-42270226D01*
X92014922Y-42192205D01*
X92184440Y-42078937D01*
X92328603Y-41934774D01*
X92328999Y-41934181D01*
X92329395Y-41934774D01*
X92473558Y-42078937D01*
X92643076Y-42192205D01*
X92831434Y-42270226D01*
X93031393Y-42310000D01*
X93235271Y-42310000D01*
X93435230Y-42270226D01*
X93623588Y-42192205D01*
X93793106Y-42078937D01*
X93937269Y-41934774D01*
X93937666Y-41934180D01*
X93938063Y-41934774D01*
X94082226Y-42078937D01*
X94251744Y-42192205D01*
X94440102Y-42270226D01*
X94640061Y-42310000D01*
X94843939Y-42310000D01*
X95043898Y-42270226D01*
X95232256Y-42192205D01*
X95401774Y-42078937D01*
X95545937Y-41934774D01*
X95659205Y-41765256D01*
X95672227Y-41733816D01*
X110884777Y-41733816D01*
X110974097Y-42159632D01*
X111378924Y-42374637D01*
X111817916Y-42506533D01*
X112274206Y-42550251D01*
X112730256Y-42504111D01*
X113168543Y-42369888D01*
X113561903Y-42159632D01*
X113632725Y-41822000D01*
X129081547Y-41822000D01*
X129087000Y-42292250D01*
X129368750Y-42574000D01*
X130966000Y-42574000D01*
X130966000Y-40976750D01*
X131162000Y-40976750D01*
X131162000Y-42574000D01*
X132759250Y-42574000D01*
X133041000Y-42292250D01*
X133046453Y-41822000D01*
X133024693Y-41601069D01*
X132960250Y-41388629D01*
X132855600Y-41192843D01*
X132714765Y-41021235D01*
X132543157Y-40880400D01*
X132347371Y-40775750D01*
X132134931Y-40711307D01*
X131914000Y-40689547D01*
X131443750Y-40695000D01*
X131162000Y-40976750D01*
X130966000Y-40976750D01*
X130684250Y-40695000D01*
X130214000Y-40689547D01*
X129993069Y-40711307D01*
X129780629Y-40775750D01*
X129584843Y-40880400D01*
X129413235Y-41021235D01*
X129272400Y-41192843D01*
X129167750Y-41388629D01*
X129103307Y-41601069D01*
X129081547Y-41822000D01*
X113632725Y-41822000D01*
X113651223Y-41733816D01*
X112268000Y-40350593D01*
X110884777Y-41733816D01*
X95672227Y-41733816D01*
X95737226Y-41576898D01*
X95777000Y-41376939D01*
X95777000Y-41173061D01*
X95737226Y-40973102D01*
X95659205Y-40784744D01*
X95562490Y-40640000D01*
X95659205Y-40495256D01*
X95737226Y-40306898D01*
X95777000Y-40106939D01*
X95777000Y-40030061D01*
X100184000Y-40030061D01*
X100184000Y-40233939D01*
X100223774Y-40433898D01*
X100301795Y-40622256D01*
X100415063Y-40791774D01*
X100559226Y-40935937D01*
X100728744Y-41049205D01*
X100917102Y-41127226D01*
X101117061Y-41167000D01*
X101320939Y-41167000D01*
X101520898Y-41127226D01*
X101709256Y-41049205D01*
X101878774Y-40935937D01*
X102022937Y-40791774D01*
X102136205Y-40622256D01*
X102214226Y-40433898D01*
X102254000Y-40233939D01*
X102254000Y-40218206D01*
X109929749Y-40218206D01*
X109975889Y-40674256D01*
X110110112Y-41112543D01*
X110320368Y-41505903D01*
X110746184Y-41595223D01*
X112129407Y-40212000D01*
X112406593Y-40212000D01*
X113789816Y-41595223D01*
X114215632Y-41505903D01*
X114430637Y-41101076D01*
X114562533Y-40662084D01*
X114606251Y-40205794D01*
X114560111Y-39749744D01*
X114425888Y-39311457D01*
X114215632Y-38918097D01*
X113789816Y-38828777D01*
X112406593Y-40212000D01*
X112129407Y-40212000D01*
X110746184Y-38828777D01*
X110320368Y-38918097D01*
X110105363Y-39322924D01*
X109973467Y-39761916D01*
X109929749Y-40218206D01*
X102254000Y-40218206D01*
X102254000Y-40030061D01*
X102214226Y-39830102D01*
X102136205Y-39641744D01*
X102022937Y-39472226D01*
X101878774Y-39328063D01*
X101709256Y-39214795D01*
X101520898Y-39136774D01*
X101320939Y-39097000D01*
X101117061Y-39097000D01*
X100917102Y-39136774D01*
X100728744Y-39214795D01*
X100559226Y-39328063D01*
X100415063Y-39472226D01*
X100301795Y-39641744D01*
X100223774Y-39830102D01*
X100184000Y-40030061D01*
X95777000Y-40030061D01*
X95777000Y-39903061D01*
X95737226Y-39703102D01*
X95659205Y-39514744D01*
X95604920Y-39433500D01*
X95659205Y-39352256D01*
X95737226Y-39163898D01*
X95777000Y-38963939D01*
X95777000Y-38760061D01*
X95763101Y-38690184D01*
X110884777Y-38690184D01*
X112268000Y-40073407D01*
X113651223Y-38690184D01*
X113561903Y-38264368D01*
X113157076Y-38049363D01*
X112718084Y-37917467D01*
X112261794Y-37873749D01*
X111805744Y-37919889D01*
X111367457Y-38054112D01*
X110974097Y-38264368D01*
X110884777Y-38690184D01*
X95763101Y-38690184D01*
X95737226Y-38560102D01*
X95659205Y-38371744D01*
X95545937Y-38202226D01*
X95401774Y-38058063D01*
X95232256Y-37944795D01*
X95043898Y-37866774D01*
X94843939Y-37827000D01*
X94640061Y-37827000D01*
X94440102Y-37866774D01*
X94251744Y-37944795D01*
X94082226Y-38058063D01*
X93938063Y-38202226D01*
X93937666Y-38202820D01*
X93937269Y-38202226D01*
X93793106Y-38058063D01*
X93623588Y-37944795D01*
X93435230Y-37866774D01*
X93235271Y-37827000D01*
X93031393Y-37827000D01*
X92831434Y-37866774D01*
X92643076Y-37944795D01*
X92473558Y-38058063D01*
X92329395Y-38202226D01*
X92328999Y-38202819D01*
X92328603Y-38202226D01*
X92184440Y-38058063D01*
X92014922Y-37944795D01*
X91826564Y-37866774D01*
X91626605Y-37827000D01*
X91422727Y-37827000D01*
X91222768Y-37866774D01*
X91034410Y-37944795D01*
X90864892Y-38058063D01*
X90720729Y-38202226D01*
X90720333Y-38202819D01*
X90719937Y-38202226D01*
X90575774Y-38058063D01*
X90406256Y-37944795D01*
X90217898Y-37866774D01*
X90017939Y-37827000D01*
X89814061Y-37827000D01*
X89614102Y-37866774D01*
X89425744Y-37944795D01*
X89256226Y-38058063D01*
X89112063Y-38202226D01*
X88998795Y-38371744D01*
X88920774Y-38560102D01*
X88881000Y-38760061D01*
X20599000Y-38760061D01*
X20599000Y-37250000D01*
X119796928Y-37250000D01*
X119796928Y-38950000D01*
X119809188Y-39074482D01*
X119845498Y-39194180D01*
X119904463Y-39304494D01*
X119983815Y-39401185D01*
X120080506Y-39480537D01*
X120190820Y-39539502D01*
X120310518Y-39575812D01*
X120435000Y-39588072D01*
X122135000Y-39588072D01*
X122259482Y-39575812D01*
X122379180Y-39539502D01*
X122489494Y-39480537D01*
X122586185Y-39401185D01*
X122665537Y-39304494D01*
X122724502Y-39194180D01*
X122760812Y-39074482D01*
X122773072Y-38950000D01*
X122773072Y-37250000D01*
X122760812Y-37125518D01*
X122724502Y-37005820D01*
X122665537Y-36895506D01*
X122586185Y-36798815D01*
X122489494Y-36719463D01*
X122379180Y-36660498D01*
X122259482Y-36624188D01*
X122135000Y-36611928D01*
X120435000Y-36611928D01*
X120310518Y-36624188D01*
X120190820Y-36660498D01*
X120080506Y-36719463D01*
X119983815Y-36798815D01*
X119904463Y-36895506D01*
X119845498Y-37005820D01*
X119809188Y-37125518D01*
X119796928Y-37250000D01*
X20599000Y-37250000D01*
X20599000Y-27719872D01*
X27483000Y-27719872D01*
X27483000Y-28160128D01*
X27568890Y-28591925D01*
X27737369Y-28998669D01*
X27981962Y-29364729D01*
X28293271Y-29676038D01*
X28659331Y-29920631D01*
X29066075Y-30089110D01*
X29497872Y-30175000D01*
X29938128Y-30175000D01*
X30369925Y-30089110D01*
X30776669Y-29920631D01*
X31142729Y-29676038D01*
X31454038Y-29364729D01*
X31698631Y-28998669D01*
X31867110Y-28591925D01*
X31953000Y-28160128D01*
X31953000Y-27719872D01*
X126543000Y-27719872D01*
X126543000Y-28160128D01*
X126628890Y-28591925D01*
X126797369Y-28998669D01*
X127041962Y-29364729D01*
X127353271Y-29676038D01*
X127719331Y-29920631D01*
X128126075Y-30089110D01*
X128557872Y-30175000D01*
X128998128Y-30175000D01*
X129429925Y-30089110D01*
X129836669Y-29920631D01*
X130202729Y-29676038D01*
X130514038Y-29364729D01*
X130758631Y-28998669D01*
X130927110Y-28591925D01*
X131013000Y-28160128D01*
X131013000Y-27719872D01*
X130927110Y-27288075D01*
X130758631Y-26881331D01*
X130514038Y-26515271D01*
X130202729Y-26203962D01*
X129836669Y-25959369D01*
X129429925Y-25790890D01*
X128998128Y-25705000D01*
X128557872Y-25705000D01*
X128126075Y-25790890D01*
X127719331Y-25959369D01*
X127353271Y-26203962D01*
X127041962Y-26515271D01*
X126797369Y-26881331D01*
X126628890Y-27288075D01*
X126543000Y-27719872D01*
X31953000Y-27719872D01*
X31867110Y-27288075D01*
X31698631Y-26881331D01*
X31454038Y-26515271D01*
X31142729Y-26203962D01*
X30776669Y-25959369D01*
X30369925Y-25790890D01*
X29938128Y-25705000D01*
X29497872Y-25705000D01*
X29066075Y-25790890D01*
X28659331Y-25959369D01*
X28293271Y-26203962D01*
X27981962Y-26515271D01*
X27737369Y-26881331D01*
X27568890Y-27288075D01*
X27483000Y-27719872D01*
X20599000Y-27719872D01*
X20599000Y-23915000D01*
X90586928Y-23915000D01*
X90586928Y-25615000D01*
X90599188Y-25739482D01*
X90635498Y-25859180D01*
X90694463Y-25969494D01*
X90773815Y-26066185D01*
X90870506Y-26145537D01*
X90980820Y-26204502D01*
X91100518Y-26240812D01*
X91225000Y-26253072D01*
X92925000Y-26253072D01*
X93049482Y-26240812D01*
X93169180Y-26204502D01*
X93227995Y-26173064D01*
X93231549Y-26177305D01*
X93533659Y-26420066D01*
X93877324Y-26599224D01*
X94209316Y-26699929D01*
X94517000Y-26457415D01*
X94517000Y-24863000D01*
X94713000Y-24863000D01*
X94713000Y-26457415D01*
X95020684Y-26699929D01*
X95352676Y-26599224D01*
X95696341Y-26420066D01*
X95998451Y-26177305D01*
X96247395Y-25880270D01*
X96433607Y-25540376D01*
X96549931Y-25170685D01*
X96307822Y-24863000D01*
X94713000Y-24863000D01*
X94517000Y-24863000D01*
X94497000Y-24863000D01*
X94497000Y-24667000D01*
X94517000Y-24667000D01*
X94517000Y-23072585D01*
X94713000Y-23072585D01*
X94713000Y-24667000D01*
X96307822Y-24667000D01*
X96549931Y-24359315D01*
X96433607Y-23989624D01*
X96247395Y-23649730D01*
X95998451Y-23352695D01*
X95696341Y-23109934D01*
X95352676Y-22930776D01*
X95020684Y-22830071D01*
X94713000Y-23072585D01*
X94517000Y-23072585D01*
X94209316Y-22830071D01*
X93877324Y-22930776D01*
X93533659Y-23109934D01*
X93231549Y-23352695D01*
X93227995Y-23356936D01*
X93169180Y-23325498D01*
X93049482Y-23289188D01*
X92925000Y-23276928D01*
X91225000Y-23276928D01*
X91100518Y-23289188D01*
X90980820Y-23325498D01*
X90870506Y-23384463D01*
X90773815Y-23463815D01*
X90694463Y-23560506D01*
X90635498Y-23670820D01*
X90599188Y-23790518D01*
X90586928Y-23915000D01*
X20599000Y-23915000D01*
X20599000Y-22504000D01*
X136754001Y-22504000D01*
X136754000Y-101956000D01*
%TA.AperFunction,Conductor*%
D19*
G36*
X136754000Y-101956000D02*
G01*
X20599000Y-101956000D01*
X20599000Y-99662029D01*
X43878506Y-99662029D01*
X43881174Y-99689172D01*
X43888619Y-99712928D01*
X43900557Y-99734776D01*
X43916528Y-99753875D01*
X43935917Y-99769491D01*
X43957981Y-99781025D01*
X43981871Y-99788032D01*
X44006669Y-99790245D01*
X64707669Y-99599745D01*
X64730078Y-99597542D01*
X64753970Y-99590545D01*
X64776039Y-99579020D01*
X64795435Y-99563412D01*
X64811413Y-99544319D01*
X64823360Y-99522477D01*
X64830816Y-99498723D01*
X64833494Y-99473971D01*
X64847618Y-98005000D01*
X71074297Y-98005000D01*
X71096057Y-98225931D01*
X71160500Y-98438371D01*
X71265150Y-98634157D01*
X71405985Y-98805765D01*
X71577593Y-98946600D01*
X71773379Y-99051250D01*
X71985819Y-99115693D01*
X72206750Y-99137453D01*
X72677000Y-99132000D01*
X72958750Y-98850250D01*
X72958750Y-97253000D01*
X73154750Y-97253000D01*
X73154750Y-98850250D01*
X73436500Y-99132000D01*
X73906750Y-99137453D01*
X74127681Y-99115693D01*
X74340121Y-99051250D01*
X74535907Y-98946600D01*
X74707515Y-98805765D01*
X74848350Y-98634157D01*
X74953000Y-98438371D01*
X75017443Y-98225931D01*
X75039203Y-98005000D01*
X93219922Y-98005000D01*
X93241682Y-98225931D01*
X93306125Y-98438371D01*
X93410775Y-98634157D01*
X93551610Y-98805765D01*
X93723218Y-98946600D01*
X93919004Y-99051250D01*
X94131444Y-99115693D01*
X94352375Y-99137453D01*
X94822625Y-99132000D01*
X95104375Y-98850250D01*
X95104375Y-97253000D01*
X95300375Y-97253000D01*
X95300375Y-98850250D01*
X95582125Y-99132000D01*
X96052375Y-99137453D01*
X96273306Y-99115693D01*
X96485746Y-99051250D01*
X96681532Y-98946600D01*
X96853140Y-98805765D01*
X96993975Y-98634157D01*
X97098625Y-98438371D01*
X97163068Y-98225931D01*
X97184828Y-98005000D01*
X115365547Y-98005000D01*
X115387307Y-98225931D01*
X115451750Y-98438371D01*
X115556400Y-98634157D01*
X115697235Y-98805765D01*
X115868843Y-98946600D01*
X116064629Y-99051250D01*
X116277069Y-99115693D01*
X116498000Y-99137453D01*
X116968250Y-99132000D01*
X117250000Y-98850250D01*
X117250000Y-97253000D01*
X117446000Y-97253000D01*
X117446000Y-98850250D01*
X117727750Y-99132000D01*
X118198000Y-99137453D01*
X118418931Y-99115693D01*
X118631371Y-99051250D01*
X118827157Y-98946600D01*
X118998765Y-98805765D01*
X119139600Y-98634157D01*
X119244250Y-98438371D01*
X119308693Y-98225931D01*
X119330453Y-98005000D01*
X119325000Y-97534750D01*
X119043250Y-97253000D01*
X117446000Y-97253000D01*
X117250000Y-97253000D01*
X115652750Y-97253000D01*
X115371000Y-97534750D01*
X115365547Y-98005000D01*
X97184828Y-98005000D01*
X97179375Y-97534750D01*
X96897625Y-97253000D01*
X95300375Y-97253000D01*
X95104375Y-97253000D01*
X93507125Y-97253000D01*
X93225375Y-97534750D01*
X93219922Y-98005000D01*
X75039203Y-98005000D01*
X75033750Y-97534750D01*
X74752000Y-97253000D01*
X73154750Y-97253000D01*
X72958750Y-97253000D01*
X71361500Y-97253000D01*
X71079750Y-97534750D01*
X71074297Y-98005000D01*
X64847618Y-98005000D01*
X64863964Y-96305000D01*
X71074297Y-96305000D01*
X71079750Y-96775250D01*
X71361500Y-97057000D01*
X72958750Y-97057000D01*
X72958750Y-95459750D01*
X73154750Y-95459750D01*
X73154750Y-97057000D01*
X74752000Y-97057000D01*
X75033750Y-96775250D01*
X75039203Y-96305000D01*
X93219922Y-96305000D01*
X93225375Y-96775250D01*
X93507125Y-97057000D01*
X95104375Y-97057000D01*
X95104375Y-95459750D01*
X95300375Y-95459750D01*
X95300375Y-97057000D01*
X96897625Y-97057000D01*
X97179375Y-96775250D01*
X97184828Y-96305000D01*
X115365547Y-96305000D01*
X115371000Y-96775250D01*
X115652750Y-97057000D01*
X117250000Y-97057000D01*
X117250000Y-95459750D01*
X117446000Y-95459750D01*
X117446000Y-97057000D01*
X119043250Y-97057000D01*
X119325000Y-96775250D01*
X119327567Y-96553872D01*
X126543000Y-96553872D01*
X126543000Y-96994128D01*
X126628890Y-97425925D01*
X126797369Y-97832669D01*
X127041962Y-98198729D01*
X127353271Y-98510038D01*
X127719331Y-98754631D01*
X128126075Y-98923110D01*
X128557872Y-99009000D01*
X128998128Y-99009000D01*
X129429925Y-98923110D01*
X129836669Y-98754631D01*
X130202729Y-98510038D01*
X130514038Y-98198729D01*
X130758631Y-97832669D01*
X130927110Y-97425925D01*
X131013000Y-96994128D01*
X131013000Y-96553872D01*
X130927110Y-96122075D01*
X130758631Y-95715331D01*
X130514038Y-95349271D01*
X130202729Y-95037962D01*
X129836669Y-94793369D01*
X129429925Y-94624890D01*
X128998128Y-94539000D01*
X128557872Y-94539000D01*
X128126075Y-94624890D01*
X127719331Y-94793369D01*
X127353271Y-95037962D01*
X127041962Y-95349271D01*
X126797369Y-95715331D01*
X126628890Y-96122075D01*
X126543000Y-96553872D01*
X119327567Y-96553872D01*
X119330453Y-96305000D01*
X119308693Y-96084069D01*
X119244250Y-95871629D01*
X119139600Y-95675843D01*
X118998765Y-95504235D01*
X118827157Y-95363400D01*
X118631371Y-95258750D01*
X118418931Y-95194307D01*
X118198000Y-95172547D01*
X117727750Y-95178000D01*
X117446000Y-95459750D01*
X117250000Y-95459750D01*
X116968250Y-95178000D01*
X116498000Y-95172547D01*
X116277069Y-95194307D01*
X116064629Y-95258750D01*
X115868843Y-95363400D01*
X115697235Y-95504235D01*
X115556400Y-95675843D01*
X115451750Y-95871629D01*
X115387307Y-96084069D01*
X115365547Y-96305000D01*
X97184828Y-96305000D01*
X97163068Y-96084069D01*
X97098625Y-95871629D01*
X96993975Y-95675843D01*
X96853140Y-95504235D01*
X96681532Y-95363400D01*
X96485746Y-95258750D01*
X96273306Y-95194307D01*
X96052375Y-95172547D01*
X95582125Y-95178000D01*
X95300375Y-95459750D01*
X95104375Y-95459750D01*
X94822625Y-95178000D01*
X94352375Y-95172547D01*
X94131444Y-95194307D01*
X93919004Y-95258750D01*
X93723218Y-95363400D01*
X93551610Y-95504235D01*
X93410775Y-95675843D01*
X93306125Y-95871629D01*
X93241682Y-96084069D01*
X93219922Y-96305000D01*
X75039203Y-96305000D01*
X75017443Y-96084069D01*
X74953000Y-95871629D01*
X74848350Y-95675843D01*
X74707515Y-95504235D01*
X74535907Y-95363400D01*
X74340121Y-95258750D01*
X74127681Y-95194307D01*
X73906750Y-95172547D01*
X73436500Y-95178000D01*
X73154750Y-95459750D01*
X72958750Y-95459750D01*
X72677000Y-95178000D01*
X72206750Y-95172547D01*
X71985819Y-95194307D01*
X71773379Y-95258750D01*
X71577593Y-95363400D01*
X71405985Y-95504235D01*
X71265150Y-95675843D01*
X71160500Y-95871629D01*
X71096057Y-96084069D01*
X71074297Y-96305000D01*
X64863964Y-96305000D01*
X64925021Y-89955000D01*
X121066928Y-89955000D01*
X121066928Y-91655000D01*
X121079188Y-91779482D01*
X121115498Y-91899180D01*
X121174463Y-92009494D01*
X121253815Y-92106185D01*
X121350506Y-92185537D01*
X121460820Y-92244502D01*
X121580518Y-92280812D01*
X121705000Y-92293072D01*
X123405000Y-92293072D01*
X123529482Y-92280812D01*
X123649180Y-92244502D01*
X123759494Y-92185537D01*
X123856185Y-92106185D01*
X123935537Y-92009494D01*
X123994502Y-91899180D01*
X124030812Y-91779482D01*
X124043072Y-91655000D01*
X124043072Y-89955000D01*
X124030812Y-89830518D01*
X123994502Y-89710820D01*
X123935537Y-89600506D01*
X123856185Y-89503815D01*
X123759494Y-89424463D01*
X123649180Y-89365498D01*
X123529482Y-89329188D01*
X123405000Y-89316928D01*
X121705000Y-89316928D01*
X121580518Y-89329188D01*
X121460820Y-89365498D01*
X121350506Y-89424463D01*
X121253815Y-89503815D01*
X121174463Y-89600506D01*
X121115498Y-89710820D01*
X121079188Y-89830518D01*
X121066928Y-89955000D01*
X64925021Y-89955000D01*
X64963926Y-85909000D01*
X65891928Y-85909000D01*
X65891928Y-87469000D01*
X65904188Y-87593482D01*
X65940498Y-87713180D01*
X65999463Y-87823494D01*
X66078815Y-87920185D01*
X66175506Y-87999537D01*
X66285820Y-88058502D01*
X66405518Y-88094812D01*
X66530000Y-88107072D01*
X68090000Y-88107072D01*
X68214482Y-88094812D01*
X68334180Y-88058502D01*
X68444494Y-87999537D01*
X68541185Y-87920185D01*
X68620537Y-87823494D01*
X68679502Y-87713180D01*
X68715812Y-87593482D01*
X68728072Y-87469000D01*
X68728072Y-86893061D01*
X86595000Y-86893061D01*
X86595000Y-87096939D01*
X86634774Y-87296898D01*
X86712795Y-87485256D01*
X86826063Y-87654774D01*
X86970226Y-87798937D01*
X87139744Y-87912205D01*
X87328102Y-87990226D01*
X87528061Y-88030000D01*
X87731939Y-88030000D01*
X87931898Y-87990226D01*
X88120256Y-87912205D01*
X88289774Y-87798937D01*
X88433937Y-87654774D01*
X88547205Y-87485256D01*
X88625226Y-87296898D01*
X88665000Y-87096939D01*
X88665000Y-86893061D01*
X88625226Y-86693102D01*
X88547205Y-86504744D01*
X88433937Y-86335226D01*
X88289774Y-86191063D01*
X88120256Y-86077795D01*
X87931898Y-85999774D01*
X87731939Y-85960000D01*
X87528061Y-85960000D01*
X87328102Y-85999774D01*
X87139744Y-86077795D01*
X86970226Y-86191063D01*
X86826063Y-86335226D01*
X86712795Y-86504744D01*
X86634774Y-86693102D01*
X86595000Y-86893061D01*
X68728072Y-86893061D01*
X68728072Y-85909000D01*
X68715812Y-85784518D01*
X68679502Y-85664820D01*
X68657181Y-85623061D01*
X96120000Y-85623061D01*
X96120000Y-85826939D01*
X96159774Y-86026898D01*
X96237795Y-86215256D01*
X96334510Y-86360000D01*
X96237795Y-86504744D01*
X96159774Y-86693102D01*
X96120000Y-86893061D01*
X96120000Y-87096939D01*
X96159774Y-87296898D01*
X96237795Y-87485256D01*
X96351063Y-87654774D01*
X96495226Y-87798937D01*
X96664744Y-87912205D01*
X96853102Y-87990226D01*
X97053061Y-88030000D01*
X97256939Y-88030000D01*
X97456898Y-87990226D01*
X97645256Y-87912205D01*
X97814774Y-87798937D01*
X97958937Y-87654774D01*
X98072205Y-87485256D01*
X98150226Y-87296898D01*
X98190000Y-87096939D01*
X98190000Y-86920903D01*
X98256063Y-87019774D01*
X98400226Y-87163937D01*
X98569744Y-87277205D01*
X98758102Y-87355226D01*
X98958061Y-87395000D01*
X99161939Y-87395000D01*
X99361898Y-87355226D01*
X99550256Y-87277205D01*
X99719774Y-87163937D01*
X99863937Y-87019774D01*
X99977205Y-86850256D01*
X100055226Y-86661898D01*
X100095000Y-86461939D01*
X100095000Y-86258061D01*
X100055226Y-86058102D01*
X99977205Y-85869744D01*
X99863937Y-85700226D01*
X99719774Y-85556063D01*
X99550256Y-85442795D01*
X99361898Y-85364774D01*
X99161939Y-85325000D01*
X98958061Y-85325000D01*
X98758102Y-85364774D01*
X98569744Y-85442795D01*
X98400226Y-85556063D01*
X98256063Y-85700226D01*
X98190000Y-85799097D01*
X98190000Y-85623061D01*
X98150226Y-85423102D01*
X98072205Y-85234744D01*
X97958937Y-85065226D01*
X97814774Y-84921063D01*
X97645256Y-84807795D01*
X97456898Y-84729774D01*
X97256939Y-84690000D01*
X97053061Y-84690000D01*
X96853102Y-84729774D01*
X96664744Y-84807795D01*
X96495226Y-84921063D01*
X96351063Y-85065226D01*
X96237795Y-85234744D01*
X96159774Y-85423102D01*
X96120000Y-85623061D01*
X68657181Y-85623061D01*
X68620537Y-85554506D01*
X68541185Y-85457815D01*
X68444494Y-85378463D01*
X68334180Y-85319498D01*
X68214482Y-85283188D01*
X68166564Y-85278469D01*
X68212010Y-85248103D01*
X68409103Y-85051010D01*
X68563957Y-84819254D01*
X68670623Y-84561740D01*
X68725000Y-84288365D01*
X68725000Y-84009635D01*
X68670623Y-83736260D01*
X68563957Y-83478746D01*
X68409103Y-83246990D01*
X68212010Y-83049897D01*
X67980254Y-82895043D01*
X67941523Y-82879000D01*
X67980254Y-82862957D01*
X68212010Y-82708103D01*
X68409103Y-82511010D01*
X68563957Y-82279254D01*
X68670623Y-82021740D01*
X68725000Y-81748365D01*
X68725000Y-81469635D01*
X68670623Y-81196260D01*
X68563957Y-80938746D01*
X68409103Y-80706990D01*
X68212010Y-80509897D01*
X68092436Y-80430000D01*
X74711928Y-80430000D01*
X74711928Y-82130000D01*
X74724188Y-82254482D01*
X74760498Y-82374180D01*
X74819463Y-82484494D01*
X74898815Y-82581185D01*
X74995506Y-82660537D01*
X75105820Y-82719502D01*
X75225518Y-82755812D01*
X75350000Y-82768072D01*
X77050000Y-82768072D01*
X77174482Y-82755812D01*
X77294180Y-82719502D01*
X77404494Y-82660537D01*
X77501185Y-82581185D01*
X77580537Y-82484494D01*
X77639502Y-82374180D01*
X77675812Y-82254482D01*
X77688072Y-82130000D01*
X77688072Y-80715000D01*
X110429928Y-80715000D01*
X110429928Y-83115000D01*
X110442188Y-83239482D01*
X110478498Y-83359180D01*
X110537463Y-83469494D01*
X110616815Y-83566185D01*
X110713506Y-83645537D01*
X110823820Y-83704502D01*
X110943518Y-83740812D01*
X111068000Y-83753072D01*
X113468000Y-83753072D01*
X113592482Y-83740812D01*
X113712180Y-83704502D01*
X113822494Y-83645537D01*
X113919185Y-83566185D01*
X113998537Y-83469494D01*
X114057502Y-83359180D01*
X114093812Y-83239482D01*
X114106072Y-83115000D01*
X114106072Y-82130000D01*
X129081547Y-82130000D01*
X129103307Y-82350931D01*
X129167750Y-82563371D01*
X129272400Y-82759157D01*
X129413235Y-82930765D01*
X129584843Y-83071600D01*
X129733690Y-83151161D01*
X129636068Y-83386842D01*
X129579000Y-83673740D01*
X129579000Y-83966260D01*
X129636068Y-84253158D01*
X129748010Y-84523411D01*
X129910525Y-84766632D01*
X130117368Y-84973475D01*
X130291760Y-85090000D01*
X130117368Y-85206525D01*
X129910525Y-85413368D01*
X129748010Y-85656589D01*
X129636068Y-85926842D01*
X129579000Y-86213740D01*
X129579000Y-86506260D01*
X129636068Y-86793158D01*
X129748010Y-87063411D01*
X129910525Y-87306632D01*
X130117368Y-87513475D01*
X130360589Y-87675990D01*
X130630842Y-87787932D01*
X130917740Y-87845000D01*
X131210260Y-87845000D01*
X131497158Y-87787932D01*
X131767411Y-87675990D01*
X132010632Y-87513475D01*
X132217475Y-87306632D01*
X132379990Y-87063411D01*
X132491932Y-86793158D01*
X132549000Y-86506260D01*
X132549000Y-86213740D01*
X132491932Y-85926842D01*
X132379990Y-85656589D01*
X132217475Y-85413368D01*
X132010632Y-85206525D01*
X131836240Y-85090000D01*
X132010632Y-84973475D01*
X132217475Y-84766632D01*
X132379990Y-84523411D01*
X132491932Y-84253158D01*
X132549000Y-83966260D01*
X132549000Y-83673740D01*
X132491932Y-83386842D01*
X132394310Y-83151161D01*
X132543157Y-83071600D01*
X132714765Y-82930765D01*
X132855600Y-82759157D01*
X132960250Y-82563371D01*
X133024693Y-82350931D01*
X133046453Y-82130000D01*
X133041000Y-81659750D01*
X132759250Y-81378000D01*
X131162000Y-81378000D01*
X131162000Y-81398000D01*
X130966000Y-81398000D01*
X130966000Y-81378000D01*
X129368750Y-81378000D01*
X129087000Y-81659750D01*
X129081547Y-82130000D01*
X114106072Y-82130000D01*
X114106072Y-80715000D01*
X114093812Y-80590518D01*
X114057502Y-80470820D01*
X114035683Y-80430000D01*
X129081547Y-80430000D01*
X129087000Y-80900250D01*
X129368750Y-81182000D01*
X130966000Y-81182000D01*
X130966000Y-79584750D01*
X131162000Y-79584750D01*
X131162000Y-81182000D01*
X132759250Y-81182000D01*
X133041000Y-80900250D01*
X133046453Y-80430000D01*
X133024693Y-80209069D01*
X132960250Y-79996629D01*
X132855600Y-79800843D01*
X132714765Y-79629235D01*
X132543157Y-79488400D01*
X132347371Y-79383750D01*
X132134931Y-79319307D01*
X131914000Y-79297547D01*
X131443750Y-79303000D01*
X131162000Y-79584750D01*
X130966000Y-79584750D01*
X130684250Y-79303000D01*
X130214000Y-79297547D01*
X129993069Y-79319307D01*
X129780629Y-79383750D01*
X129584843Y-79488400D01*
X129413235Y-79629235D01*
X129272400Y-79800843D01*
X129167750Y-79996629D01*
X129103307Y-80209069D01*
X129081547Y-80430000D01*
X114035683Y-80430000D01*
X113998537Y-80360506D01*
X113919185Y-80263815D01*
X113822494Y-80184463D01*
X113712180Y-80125498D01*
X113592482Y-80089188D01*
X113468000Y-80076928D01*
X111068000Y-80076928D01*
X110943518Y-80089188D01*
X110823820Y-80125498D01*
X110713506Y-80184463D01*
X110616815Y-80263815D01*
X110537463Y-80360506D01*
X110478498Y-80470820D01*
X110442188Y-80590518D01*
X110429928Y-80715000D01*
X77688072Y-80715000D01*
X77688072Y-80430000D01*
X77675812Y-80305518D01*
X77639502Y-80185820D01*
X77580537Y-80075506D01*
X77501185Y-79978815D01*
X77404494Y-79899463D01*
X77294180Y-79840498D01*
X77174482Y-79804188D01*
X77050000Y-79791928D01*
X75350000Y-79791928D01*
X75225518Y-79804188D01*
X75105820Y-79840498D01*
X74995506Y-79899463D01*
X74898815Y-79978815D01*
X74819463Y-80075506D01*
X74760498Y-80185820D01*
X74724188Y-80305518D01*
X74711928Y-80430000D01*
X68092436Y-80430000D01*
X67980254Y-80355043D01*
X67941523Y-80339000D01*
X67980254Y-80322957D01*
X68212010Y-80168103D01*
X68409103Y-79971010D01*
X68563957Y-79739254D01*
X68670623Y-79481740D01*
X68725000Y-79208365D01*
X68725000Y-78929635D01*
X68670623Y-78656260D01*
X68579727Y-78436816D01*
X110884777Y-78436816D01*
X110974097Y-78862632D01*
X111378924Y-79077637D01*
X111817916Y-79209533D01*
X112274206Y-79253251D01*
X112730256Y-79207111D01*
X113168543Y-79072888D01*
X113561903Y-78862632D01*
X113651223Y-78436816D01*
X112268000Y-77053593D01*
X110884777Y-78436816D01*
X68579727Y-78436816D01*
X68563957Y-78398746D01*
X68409103Y-78166990D01*
X68212010Y-77969897D01*
X67980254Y-77815043D01*
X67941523Y-77799000D01*
X67980254Y-77782957D01*
X68212010Y-77628103D01*
X68409103Y-77431010D01*
X68563957Y-77199254D01*
X68670623Y-76941740D01*
X68674707Y-76921206D01*
X109929749Y-76921206D01*
X109975889Y-77377256D01*
X110110112Y-77815543D01*
X110320368Y-78208903D01*
X110746184Y-78298223D01*
X112129407Y-76915000D01*
X112406593Y-76915000D01*
X113789816Y-78298223D01*
X114215632Y-78208903D01*
X114430637Y-77804076D01*
X114562533Y-77365084D01*
X114606251Y-76908794D01*
X114577033Y-76620000D01*
X121066928Y-76620000D01*
X121066928Y-78320000D01*
X121079188Y-78444482D01*
X121115498Y-78564180D01*
X121174463Y-78674494D01*
X121253815Y-78771185D01*
X121350506Y-78850537D01*
X121460820Y-78909502D01*
X121580518Y-78945812D01*
X121705000Y-78958072D01*
X123405000Y-78958072D01*
X123529482Y-78945812D01*
X123649180Y-78909502D01*
X123759494Y-78850537D01*
X123856185Y-78771185D01*
X123935537Y-78674494D01*
X123994502Y-78564180D01*
X124030812Y-78444482D01*
X124043072Y-78320000D01*
X124043072Y-76620000D01*
X124030812Y-76495518D01*
X123994502Y-76375820D01*
X123935537Y-76265506D01*
X123856185Y-76168815D01*
X123759494Y-76089463D01*
X123649180Y-76030498D01*
X123529482Y-75994188D01*
X123405000Y-75981928D01*
X121705000Y-75981928D01*
X121580518Y-75994188D01*
X121460820Y-76030498D01*
X121350506Y-76089463D01*
X121253815Y-76168815D01*
X121174463Y-76265506D01*
X121115498Y-76375820D01*
X121079188Y-76495518D01*
X121066928Y-76620000D01*
X114577033Y-76620000D01*
X114560111Y-76452744D01*
X114425888Y-76014457D01*
X114215632Y-75621097D01*
X113789816Y-75531777D01*
X112406593Y-76915000D01*
X112129407Y-76915000D01*
X110746184Y-75531777D01*
X110320368Y-75621097D01*
X110105363Y-76025924D01*
X109973467Y-76464916D01*
X109929749Y-76921206D01*
X68674707Y-76921206D01*
X68725000Y-76668365D01*
X68725000Y-76389635D01*
X68670623Y-76116260D01*
X68563957Y-75858746D01*
X68409103Y-75626990D01*
X68212010Y-75429897D01*
X67980254Y-75275043D01*
X67941523Y-75259000D01*
X67980254Y-75242957D01*
X68212010Y-75088103D01*
X68409103Y-74891010D01*
X68563957Y-74659254D01*
X68670623Y-74401740D01*
X68725000Y-74128365D01*
X68725000Y-73849635D01*
X68670623Y-73576260D01*
X68616254Y-73445000D01*
X72806928Y-73445000D01*
X72806928Y-75145000D01*
X72819188Y-75269482D01*
X72855498Y-75389180D01*
X72914463Y-75499494D01*
X72993815Y-75596185D01*
X73090506Y-75675537D01*
X73200820Y-75734502D01*
X73320518Y-75770812D01*
X73445000Y-75783072D01*
X75145000Y-75783072D01*
X75269482Y-75770812D01*
X75389180Y-75734502D01*
X75499494Y-75675537D01*
X75596185Y-75596185D01*
X75675537Y-75499494D01*
X75732361Y-75393184D01*
X110884777Y-75393184D01*
X112268000Y-76776407D01*
X113651223Y-75393184D01*
X113561903Y-74967368D01*
X113157076Y-74752363D01*
X112718084Y-74620467D01*
X112261794Y-74576749D01*
X111805744Y-74622889D01*
X111367457Y-74757112D01*
X110974097Y-74967368D01*
X110884777Y-75393184D01*
X75732361Y-75393184D01*
X75734502Y-75389180D01*
X75770812Y-75269482D01*
X75783072Y-75145000D01*
X75783072Y-73445000D01*
X75770812Y-73320518D01*
X75734502Y-73200820D01*
X75675537Y-73090506D01*
X75596185Y-72993815D01*
X75499494Y-72914463D01*
X75389180Y-72855498D01*
X75269482Y-72819188D01*
X75145000Y-72806928D01*
X73445000Y-72806928D01*
X73320518Y-72819188D01*
X73200820Y-72855498D01*
X73090506Y-72914463D01*
X72993815Y-72993815D01*
X72914463Y-73090506D01*
X72855498Y-73200820D01*
X72819188Y-73320518D01*
X72806928Y-73445000D01*
X68616254Y-73445000D01*
X68563957Y-73318746D01*
X68409103Y-73086990D01*
X68212010Y-72889897D01*
X67980254Y-72735043D01*
X67941523Y-72719000D01*
X67980254Y-72702957D01*
X68212010Y-72548103D01*
X68409103Y-72351010D01*
X68563957Y-72119254D01*
X68670623Y-71861740D01*
X68725000Y-71588365D01*
X68725000Y-71309635D01*
X68670623Y-71036260D01*
X68563957Y-70778746D01*
X68409103Y-70546990D01*
X68212010Y-70349897D01*
X67980254Y-70195043D01*
X67941523Y-70179000D01*
X67980254Y-70162957D01*
X68212010Y-70008103D01*
X68409103Y-69811010D01*
X68527999Y-69633069D01*
X86595000Y-69633069D01*
X86595000Y-69836947D01*
X86634774Y-70036906D01*
X86712795Y-70225264D01*
X86826063Y-70394782D01*
X86970226Y-70538945D01*
X87139744Y-70652213D01*
X87328102Y-70730234D01*
X87528061Y-70770008D01*
X87731939Y-70770008D01*
X87931898Y-70730234D01*
X88120256Y-70652213D01*
X88289774Y-70538945D01*
X88433937Y-70394782D01*
X88547205Y-70225264D01*
X88625226Y-70036906D01*
X88665000Y-69836947D01*
X88665000Y-69633069D01*
X88625226Y-69433110D01*
X88547205Y-69244752D01*
X88433937Y-69075234D01*
X88289774Y-68931071D01*
X88120256Y-68817803D01*
X87931898Y-68739782D01*
X87731939Y-68700008D01*
X87528061Y-68700008D01*
X87328102Y-68739782D01*
X87139744Y-68817803D01*
X86970226Y-68931071D01*
X86826063Y-69075234D01*
X86712795Y-69244752D01*
X86634774Y-69433110D01*
X86595000Y-69633069D01*
X68527999Y-69633069D01*
X68563957Y-69579254D01*
X68670623Y-69321740D01*
X68725000Y-69048365D01*
X68725000Y-68769635D01*
X68670623Y-68496260D01*
X68563957Y-68238746D01*
X68409103Y-68006990D01*
X68335162Y-67933049D01*
X95201452Y-67933049D01*
X95201452Y-68136927D01*
X95241226Y-68336886D01*
X95319247Y-68525244D01*
X95432515Y-68694762D01*
X95576678Y-68838925D01*
X95746196Y-68952193D01*
X95934554Y-69030214D01*
X96092692Y-69061669D01*
X96079127Y-69075234D01*
X95965859Y-69244752D01*
X95887838Y-69433110D01*
X95848064Y-69633069D01*
X95848064Y-69836947D01*
X95887838Y-70036906D01*
X95965859Y-70225264D01*
X96079127Y-70394782D01*
X96223290Y-70538945D01*
X96392808Y-70652213D01*
X96581166Y-70730234D01*
X96781125Y-70770008D01*
X96985003Y-70770008D01*
X97184962Y-70730234D01*
X97373320Y-70652213D01*
X97542838Y-70538945D01*
X97687001Y-70394782D01*
X97770377Y-70270000D01*
X121066928Y-70270000D01*
X121066928Y-71970000D01*
X121079188Y-72094482D01*
X121115498Y-72214180D01*
X121174463Y-72324494D01*
X121253815Y-72421185D01*
X121350506Y-72500537D01*
X121460820Y-72559502D01*
X121580518Y-72595812D01*
X121705000Y-72608072D01*
X123405000Y-72608072D01*
X123529482Y-72595812D01*
X123649180Y-72559502D01*
X123759494Y-72500537D01*
X123856185Y-72421185D01*
X123935537Y-72324494D01*
X123994502Y-72214180D01*
X124030812Y-72094482D01*
X124043072Y-71970000D01*
X124043072Y-70270000D01*
X124030812Y-70145518D01*
X123994502Y-70025820D01*
X123935537Y-69915506D01*
X123856185Y-69818815D01*
X123759494Y-69739463D01*
X123649180Y-69680498D01*
X123529482Y-69644188D01*
X123405000Y-69631928D01*
X121705000Y-69631928D01*
X121580518Y-69644188D01*
X121460820Y-69680498D01*
X121350506Y-69739463D01*
X121253815Y-69818815D01*
X121174463Y-69915506D01*
X121115498Y-70025820D01*
X121079188Y-70145518D01*
X121066928Y-70270000D01*
X97770377Y-70270000D01*
X97800269Y-70225264D01*
X97878290Y-70036906D01*
X97918064Y-69836947D01*
X97918064Y-69633069D01*
X97878290Y-69433110D01*
X97800269Y-69244752D01*
X97687001Y-69075234D01*
X97542838Y-68931071D01*
X97373320Y-68817803D01*
X97184962Y-68739782D01*
X97026824Y-68708327D01*
X97040389Y-68694762D01*
X97153657Y-68525244D01*
X97231678Y-68336886D01*
X97271452Y-68136927D01*
X97271452Y-67933049D01*
X97253553Y-67843061D01*
X98025000Y-67843061D01*
X98025000Y-68046939D01*
X98064774Y-68246898D01*
X98142795Y-68435256D01*
X98256063Y-68604774D01*
X98400226Y-68748937D01*
X98569744Y-68862205D01*
X98758102Y-68940226D01*
X98958061Y-68980000D01*
X99161939Y-68980000D01*
X99287623Y-68955000D01*
X99744608Y-68955000D01*
X99892994Y-68940385D01*
X100083380Y-68882632D01*
X100258840Y-68788847D01*
X100412633Y-68662633D01*
X100538847Y-68508840D01*
X100632632Y-68333380D01*
X100690385Y-68142994D01*
X100709886Y-67945000D01*
X100690385Y-67747006D01*
X100632632Y-67556620D01*
X100538847Y-67381160D01*
X100412633Y-67227367D01*
X100258840Y-67101153D01*
X100083380Y-67007368D01*
X99892994Y-66949615D01*
X99744608Y-66935000D01*
X99287623Y-66935000D01*
X99161939Y-66910000D01*
X98958061Y-66910000D01*
X98758102Y-66949774D01*
X98569744Y-67027795D01*
X98400226Y-67141063D01*
X98256063Y-67285226D01*
X98142795Y-67454744D01*
X98064774Y-67643102D01*
X98025000Y-67843061D01*
X97253553Y-67843061D01*
X97231678Y-67733090D01*
X97153657Y-67544732D01*
X97040389Y-67375214D01*
X96896226Y-67231051D01*
X96726708Y-67117783D01*
X96538350Y-67039762D01*
X96338391Y-66999988D01*
X96134513Y-66999988D01*
X95934554Y-67039762D01*
X95746196Y-67117783D01*
X95576678Y-67231051D01*
X95432515Y-67375214D01*
X95319247Y-67544732D01*
X95241226Y-67733090D01*
X95201452Y-67933049D01*
X68335162Y-67933049D01*
X68212010Y-67809897D01*
X67980254Y-67655043D01*
X67941523Y-67639000D01*
X67980254Y-67622957D01*
X68212010Y-67468103D01*
X68409103Y-67271010D01*
X68563957Y-67039254D01*
X68670623Y-66781740D01*
X68725000Y-66508365D01*
X68725000Y-66229635D01*
X68670623Y-65956260D01*
X68563957Y-65698746D01*
X68409103Y-65466990D01*
X68212010Y-65269897D01*
X67980254Y-65115043D01*
X67941523Y-65099000D01*
X67980254Y-65082957D01*
X68212010Y-64928103D01*
X68409103Y-64731010D01*
X68563957Y-64499254D01*
X68670623Y-64241740D01*
X68725000Y-63968365D01*
X68725000Y-63689635D01*
X68670623Y-63416260D01*
X68563957Y-63158746D01*
X68409103Y-62926990D01*
X68212010Y-62729897D01*
X67980254Y-62575043D01*
X67941523Y-62559000D01*
X67980254Y-62542957D01*
X68212010Y-62388103D01*
X68409103Y-62191010D01*
X68563957Y-61959254D01*
X68670623Y-61701740D01*
X68677930Y-61665000D01*
X110429928Y-61665000D01*
X110429928Y-64065000D01*
X110442188Y-64189482D01*
X110478498Y-64309180D01*
X110537463Y-64419494D01*
X110616815Y-64516185D01*
X110713506Y-64595537D01*
X110823820Y-64654502D01*
X110943518Y-64690812D01*
X111068000Y-64703072D01*
X113468000Y-64703072D01*
X113592482Y-64690812D01*
X113712180Y-64654502D01*
X113822494Y-64595537D01*
X113919185Y-64516185D01*
X113998537Y-64419494D01*
X114057502Y-64309180D01*
X114093812Y-64189482D01*
X114106072Y-64065000D01*
X114106072Y-62826000D01*
X129081547Y-62826000D01*
X129103307Y-63046931D01*
X129167750Y-63259371D01*
X129272400Y-63455157D01*
X129413235Y-63626765D01*
X129584843Y-63767600D01*
X129733690Y-63847161D01*
X129636068Y-64082842D01*
X129579000Y-64369740D01*
X129579000Y-64662260D01*
X129636068Y-64949158D01*
X129748010Y-65219411D01*
X129910525Y-65462632D01*
X130117368Y-65669475D01*
X130291760Y-65786000D01*
X130117368Y-65902525D01*
X129910525Y-66109368D01*
X129748010Y-66352589D01*
X129636068Y-66622842D01*
X129579000Y-66909740D01*
X129579000Y-67202260D01*
X129636068Y-67489158D01*
X129748010Y-67759411D01*
X129910525Y-68002632D01*
X130117368Y-68209475D01*
X130360589Y-68371990D01*
X130630842Y-68483932D01*
X130917740Y-68541000D01*
X131210260Y-68541000D01*
X131497158Y-68483932D01*
X131767411Y-68371990D01*
X132010632Y-68209475D01*
X132217475Y-68002632D01*
X132379990Y-67759411D01*
X132491932Y-67489158D01*
X132549000Y-67202260D01*
X132549000Y-66909740D01*
X132491932Y-66622842D01*
X132379990Y-66352589D01*
X132217475Y-66109368D01*
X132010632Y-65902525D01*
X131836240Y-65786000D01*
X132010632Y-65669475D01*
X132217475Y-65462632D01*
X132379990Y-65219411D01*
X132491932Y-64949158D01*
X132549000Y-64662260D01*
X132549000Y-64369740D01*
X132491932Y-64082842D01*
X132394310Y-63847161D01*
X132543157Y-63767600D01*
X132714765Y-63626765D01*
X132855600Y-63455157D01*
X132960250Y-63259371D01*
X133024693Y-63046931D01*
X133046453Y-62826000D01*
X133041000Y-62355750D01*
X132759250Y-62074000D01*
X131162000Y-62074000D01*
X131162000Y-62094000D01*
X130966000Y-62094000D01*
X130966000Y-62074000D01*
X129368750Y-62074000D01*
X129087000Y-62355750D01*
X129081547Y-62826000D01*
X114106072Y-62826000D01*
X114106072Y-61665000D01*
X114093812Y-61540518D01*
X114057502Y-61420820D01*
X113998537Y-61310506D01*
X113919185Y-61213815D01*
X113822494Y-61134463D01*
X113806662Y-61126000D01*
X129081547Y-61126000D01*
X129087000Y-61596250D01*
X129368750Y-61878000D01*
X130966000Y-61878000D01*
X130966000Y-60280750D01*
X131162000Y-60280750D01*
X131162000Y-61878000D01*
X132759250Y-61878000D01*
X133041000Y-61596250D01*
X133046453Y-61126000D01*
X133024693Y-60905069D01*
X132960250Y-60692629D01*
X132855600Y-60496843D01*
X132714765Y-60325235D01*
X132543157Y-60184400D01*
X132347371Y-60079750D01*
X132134931Y-60015307D01*
X131914000Y-59993547D01*
X131443750Y-59999000D01*
X131162000Y-60280750D01*
X130966000Y-60280750D01*
X130684250Y-59999000D01*
X130214000Y-59993547D01*
X129993069Y-60015307D01*
X129780629Y-60079750D01*
X129584843Y-60184400D01*
X129413235Y-60325235D01*
X129272400Y-60496843D01*
X129167750Y-60692629D01*
X129103307Y-60905069D01*
X129081547Y-61126000D01*
X113806662Y-61126000D01*
X113712180Y-61075498D01*
X113592482Y-61039188D01*
X113468000Y-61026928D01*
X111068000Y-61026928D01*
X110943518Y-61039188D01*
X110823820Y-61075498D01*
X110713506Y-61134463D01*
X110616815Y-61213815D01*
X110537463Y-61310506D01*
X110478498Y-61420820D01*
X110442188Y-61540518D01*
X110429928Y-61665000D01*
X68677930Y-61665000D01*
X68725000Y-61428365D01*
X68725000Y-61149635D01*
X68670623Y-60876260D01*
X68563957Y-60618746D01*
X68409103Y-60386990D01*
X68212010Y-60189897D01*
X67980254Y-60035043D01*
X67941523Y-60019000D01*
X67980254Y-60002957D01*
X68212010Y-59848103D01*
X68409103Y-59651010D01*
X68563957Y-59419254D01*
X68670623Y-59161740D01*
X68725000Y-58888365D01*
X68725000Y-58609635D01*
X68670623Y-58336260D01*
X68616254Y-58205000D01*
X75346928Y-58205000D01*
X75346928Y-59905000D01*
X75359188Y-60029482D01*
X75395498Y-60149180D01*
X75454463Y-60259494D01*
X75533815Y-60356185D01*
X75630506Y-60435537D01*
X75740820Y-60494502D01*
X75860518Y-60530812D01*
X75985000Y-60543072D01*
X77685000Y-60543072D01*
X77809482Y-60530812D01*
X77929180Y-60494502D01*
X78039494Y-60435537D01*
X78136185Y-60356185D01*
X78215537Y-60259494D01*
X78274502Y-60149180D01*
X78310812Y-60029482D01*
X78323072Y-59905000D01*
X78323072Y-59386816D01*
X110884777Y-59386816D01*
X110974097Y-59812632D01*
X111378924Y-60027637D01*
X111817916Y-60159533D01*
X112274206Y-60203251D01*
X112730256Y-60157111D01*
X113168543Y-60022888D01*
X113561903Y-59812632D01*
X113651223Y-59386816D01*
X112268000Y-58003593D01*
X110884777Y-59386816D01*
X78323072Y-59386816D01*
X78323072Y-58205000D01*
X78310812Y-58080518D01*
X78274502Y-57960820D01*
X78226602Y-57871206D01*
X109929749Y-57871206D01*
X109975889Y-58327256D01*
X110110112Y-58765543D01*
X110320368Y-59158903D01*
X110746184Y-59248223D01*
X112129407Y-57865000D01*
X112406593Y-57865000D01*
X113789816Y-59248223D01*
X114215632Y-59158903D01*
X114430637Y-58754076D01*
X114562533Y-58315084D01*
X114606251Y-57858794D01*
X114560111Y-57402744D01*
X114425888Y-56964457D01*
X114410143Y-56935000D01*
X120431928Y-56935000D01*
X120431928Y-58635000D01*
X120444188Y-58759482D01*
X120480498Y-58879180D01*
X120539463Y-58989494D01*
X120618815Y-59086185D01*
X120715506Y-59165537D01*
X120825820Y-59224502D01*
X120945518Y-59260812D01*
X121070000Y-59273072D01*
X122770000Y-59273072D01*
X122894482Y-59260812D01*
X123014180Y-59224502D01*
X123124494Y-59165537D01*
X123221185Y-59086185D01*
X123300537Y-58989494D01*
X123359502Y-58879180D01*
X123395812Y-58759482D01*
X123408072Y-58635000D01*
X123408072Y-56935000D01*
X123395812Y-56810518D01*
X123359502Y-56690820D01*
X123300537Y-56580506D01*
X123221185Y-56483815D01*
X123124494Y-56404463D01*
X123014180Y-56345498D01*
X122894482Y-56309188D01*
X122770000Y-56296928D01*
X121070000Y-56296928D01*
X120945518Y-56309188D01*
X120825820Y-56345498D01*
X120715506Y-56404463D01*
X120618815Y-56483815D01*
X120539463Y-56580506D01*
X120480498Y-56690820D01*
X120444188Y-56810518D01*
X120431928Y-56935000D01*
X114410143Y-56935000D01*
X114215632Y-56571097D01*
X113789816Y-56481777D01*
X112406593Y-57865000D01*
X112129407Y-57865000D01*
X110746184Y-56481777D01*
X110320368Y-56571097D01*
X110105363Y-56975924D01*
X109973467Y-57414916D01*
X109929749Y-57871206D01*
X78226602Y-57871206D01*
X78215537Y-57850506D01*
X78136185Y-57753815D01*
X78039494Y-57674463D01*
X77929180Y-57615498D01*
X77809482Y-57579188D01*
X77685000Y-57566928D01*
X75985000Y-57566928D01*
X75860518Y-57579188D01*
X75740820Y-57615498D01*
X75630506Y-57674463D01*
X75533815Y-57753815D01*
X75454463Y-57850506D01*
X75395498Y-57960820D01*
X75359188Y-58080518D01*
X75346928Y-58205000D01*
X68616254Y-58205000D01*
X68563957Y-58078746D01*
X68409103Y-57846990D01*
X68212010Y-57649897D01*
X67980254Y-57495043D01*
X67941523Y-57479000D01*
X67980254Y-57462957D01*
X68212010Y-57308103D01*
X68409103Y-57111010D01*
X68563957Y-56879254D01*
X68670623Y-56621740D01*
X68725000Y-56348365D01*
X68725000Y-56343184D01*
X110884777Y-56343184D01*
X112268000Y-57726407D01*
X113651223Y-56343184D01*
X113561903Y-55917368D01*
X113157076Y-55702363D01*
X112718084Y-55570467D01*
X112261794Y-55526749D01*
X111805744Y-55572889D01*
X111367457Y-55707112D01*
X110974097Y-55917368D01*
X110884777Y-56343184D01*
X68725000Y-56343184D01*
X68725000Y-56069635D01*
X68670623Y-55796260D01*
X68563957Y-55538746D01*
X68409103Y-55306990D01*
X68357539Y-55255426D01*
X68394374Y-54891967D01*
X67310000Y-53807593D01*
X66225626Y-54891967D01*
X66262461Y-55255426D01*
X66210897Y-55306990D01*
X66056043Y-55538746D01*
X65949377Y-55796260D01*
X65895000Y-56069635D01*
X65895000Y-56348365D01*
X65949377Y-56621740D01*
X66056043Y-56879254D01*
X66210897Y-57111010D01*
X66407990Y-57308103D01*
X66639746Y-57462957D01*
X66678477Y-57479000D01*
X66639746Y-57495043D01*
X66407990Y-57649897D01*
X66210897Y-57846990D01*
X66056043Y-58078746D01*
X65949377Y-58336260D01*
X65895000Y-58609635D01*
X65895000Y-58888365D01*
X65949377Y-59161740D01*
X66056043Y-59419254D01*
X66210897Y-59651010D01*
X66407990Y-59848103D01*
X66639746Y-60002957D01*
X66678477Y-60019000D01*
X66639746Y-60035043D01*
X66407990Y-60189897D01*
X66210897Y-60386990D01*
X66056043Y-60618746D01*
X65949377Y-60876260D01*
X65895000Y-61149635D01*
X65895000Y-61428365D01*
X65949377Y-61701740D01*
X66056043Y-61959254D01*
X66210897Y-62191010D01*
X66407990Y-62388103D01*
X66639746Y-62542957D01*
X66678477Y-62559000D01*
X66639746Y-62575043D01*
X66407990Y-62729897D01*
X66210897Y-62926990D01*
X66056043Y-63158746D01*
X65949377Y-63416260D01*
X65895000Y-63689635D01*
X65895000Y-63968365D01*
X65949377Y-64241740D01*
X66056043Y-64499254D01*
X66210897Y-64731010D01*
X66407990Y-64928103D01*
X66639746Y-65082957D01*
X66678477Y-65099000D01*
X66639746Y-65115043D01*
X66407990Y-65269897D01*
X66210897Y-65466990D01*
X66056043Y-65698746D01*
X65949377Y-65956260D01*
X65895000Y-66229635D01*
X65895000Y-66508365D01*
X65949377Y-66781740D01*
X66056043Y-67039254D01*
X66210897Y-67271010D01*
X66407990Y-67468103D01*
X66639746Y-67622957D01*
X66678477Y-67639000D01*
X66639746Y-67655043D01*
X66407990Y-67809897D01*
X66210897Y-68006990D01*
X66056043Y-68238746D01*
X65949377Y-68496260D01*
X65895000Y-68769635D01*
X65895000Y-69048365D01*
X65949377Y-69321740D01*
X66056043Y-69579254D01*
X66210897Y-69811010D01*
X66407990Y-70008103D01*
X66639746Y-70162957D01*
X66678477Y-70179000D01*
X66639746Y-70195043D01*
X66407990Y-70349897D01*
X66210897Y-70546990D01*
X66056043Y-70778746D01*
X65949377Y-71036260D01*
X65895000Y-71309635D01*
X65895000Y-71588365D01*
X65949377Y-71861740D01*
X66056043Y-72119254D01*
X66210897Y-72351010D01*
X66407990Y-72548103D01*
X66639746Y-72702957D01*
X66678477Y-72719000D01*
X66639746Y-72735043D01*
X66407990Y-72889897D01*
X66210897Y-73086990D01*
X66056043Y-73318746D01*
X65949377Y-73576260D01*
X65895000Y-73849635D01*
X65895000Y-74128365D01*
X65949377Y-74401740D01*
X66056043Y-74659254D01*
X66210897Y-74891010D01*
X66407990Y-75088103D01*
X66639746Y-75242957D01*
X66678477Y-75259000D01*
X66639746Y-75275043D01*
X66407990Y-75429897D01*
X66210897Y-75626990D01*
X66056043Y-75858746D01*
X65949377Y-76116260D01*
X65895000Y-76389635D01*
X65895000Y-76668365D01*
X65949377Y-76941740D01*
X66056043Y-77199254D01*
X66210897Y-77431010D01*
X66407990Y-77628103D01*
X66639746Y-77782957D01*
X66678477Y-77799000D01*
X66639746Y-77815043D01*
X66407990Y-77969897D01*
X66210897Y-78166990D01*
X66056043Y-78398746D01*
X65949377Y-78656260D01*
X65895000Y-78929635D01*
X65895000Y-79208365D01*
X65949377Y-79481740D01*
X66056043Y-79739254D01*
X66210897Y-79971010D01*
X66407990Y-80168103D01*
X66639746Y-80322957D01*
X66678477Y-80339000D01*
X66639746Y-80355043D01*
X66407990Y-80509897D01*
X66210897Y-80706990D01*
X66056043Y-80938746D01*
X65949377Y-81196260D01*
X65895000Y-81469635D01*
X65895000Y-81748365D01*
X65949377Y-82021740D01*
X66056043Y-82279254D01*
X66210897Y-82511010D01*
X66407990Y-82708103D01*
X66639746Y-82862957D01*
X66678477Y-82879000D01*
X66639746Y-82895043D01*
X66407990Y-83049897D01*
X66210897Y-83246990D01*
X66056043Y-83478746D01*
X65949377Y-83736260D01*
X65895000Y-84009635D01*
X65895000Y-84288365D01*
X65949377Y-84561740D01*
X66056043Y-84819254D01*
X66210897Y-85051010D01*
X66407990Y-85248103D01*
X66453436Y-85278469D01*
X66405518Y-85283188D01*
X66285820Y-85319498D01*
X66175506Y-85378463D01*
X66078815Y-85457815D01*
X65999463Y-85554506D01*
X65940498Y-85664820D01*
X65904188Y-85784518D01*
X65891928Y-85909000D01*
X64963926Y-85909000D01*
X65023994Y-79661971D01*
X65021326Y-79634828D01*
X65013881Y-79611072D01*
X65001943Y-79589224D01*
X64985972Y-79570125D01*
X64966583Y-79554509D01*
X64944519Y-79542975D01*
X64920629Y-79535968D01*
X64895831Y-79533755D01*
X44194831Y-79724255D01*
X44172422Y-79726458D01*
X44148530Y-79733455D01*
X44126461Y-79744980D01*
X44107065Y-79760588D01*
X44091087Y-79779681D01*
X44079140Y-79801523D01*
X44071684Y-79825277D01*
X44069006Y-79850029D01*
X43878506Y-99662029D01*
X20599000Y-99662029D01*
X20599000Y-96553872D01*
X27483000Y-96553872D01*
X27483000Y-96994128D01*
X27568890Y-97425925D01*
X27737369Y-97832669D01*
X27981962Y-98198729D01*
X28293271Y-98510038D01*
X28659331Y-98754631D01*
X29066075Y-98923110D01*
X29497872Y-99009000D01*
X29938128Y-99009000D01*
X30369925Y-98923110D01*
X30776669Y-98754631D01*
X31142729Y-98510038D01*
X31454038Y-98198729D01*
X31698631Y-97832669D01*
X31867110Y-97425925D01*
X31953000Y-96994128D01*
X31953000Y-96553872D01*
X31867110Y-96122075D01*
X31698631Y-95715331D01*
X31454038Y-95349271D01*
X31142729Y-95037962D01*
X30776669Y-94793369D01*
X30369925Y-94624890D01*
X29938128Y-94539000D01*
X29497872Y-94539000D01*
X29066075Y-94624890D01*
X28659331Y-94793369D01*
X28293271Y-95037962D01*
X27981962Y-95349271D01*
X27737369Y-95715331D01*
X27568890Y-96122075D01*
X27483000Y-96553872D01*
X20599000Y-96553872D01*
X20599000Y-87911967D01*
X40825626Y-87911967D01*
X40864428Y-88294834D01*
X41197801Y-88467959D01*
X41558543Y-88572720D01*
X41932791Y-88605091D01*
X42306164Y-88563828D01*
X42664313Y-88450516D01*
X42955572Y-88294834D01*
X42994374Y-87911967D01*
X41910000Y-86827593D01*
X40825626Y-87911967D01*
X20599000Y-87911967D01*
X20599000Y-86711791D01*
X39993909Y-86711791D01*
X40035172Y-87085164D01*
X40148484Y-87443313D01*
X40304166Y-87734572D01*
X40687033Y-87773374D01*
X41771407Y-86689000D01*
X42048593Y-86689000D01*
X43132967Y-87773374D01*
X43515834Y-87734572D01*
X43688959Y-87401199D01*
X43793720Y-87040457D01*
X43826091Y-86666209D01*
X43784828Y-86292836D01*
X43671516Y-85934687D01*
X43515834Y-85643428D01*
X43132967Y-85604626D01*
X42048593Y-86689000D01*
X41771407Y-86689000D01*
X40687033Y-85604626D01*
X40304166Y-85643428D01*
X40131041Y-85976801D01*
X40026280Y-86337543D01*
X39993909Y-86711791D01*
X20599000Y-86711791D01*
X20599000Y-73849635D01*
X40495000Y-73849635D01*
X40495000Y-74128365D01*
X40549377Y-74401740D01*
X40656043Y-74659254D01*
X40810897Y-74891010D01*
X41007990Y-75088103D01*
X41239746Y-75242957D01*
X41278477Y-75259000D01*
X41239746Y-75275043D01*
X41007990Y-75429897D01*
X40810897Y-75626990D01*
X40656043Y-75858746D01*
X40549377Y-76116260D01*
X40495000Y-76389635D01*
X40495000Y-76668365D01*
X40549377Y-76941740D01*
X40656043Y-77199254D01*
X40810897Y-77431010D01*
X41007990Y-77628103D01*
X41239746Y-77782957D01*
X41278477Y-77799000D01*
X41239746Y-77815043D01*
X41007990Y-77969897D01*
X40810897Y-78166990D01*
X40656043Y-78398746D01*
X40549377Y-78656260D01*
X40495000Y-78929635D01*
X40495000Y-79208365D01*
X40549377Y-79481740D01*
X40656043Y-79739254D01*
X40810897Y-79971010D01*
X41007990Y-80168103D01*
X41239746Y-80322957D01*
X41278477Y-80339000D01*
X41239746Y-80355043D01*
X41007990Y-80509897D01*
X40810897Y-80706990D01*
X40656043Y-80938746D01*
X40549377Y-81196260D01*
X40495000Y-81469635D01*
X40495000Y-81748365D01*
X40549377Y-82021740D01*
X40656043Y-82279254D01*
X40810897Y-82511010D01*
X41007990Y-82708103D01*
X41239746Y-82862957D01*
X41278477Y-82879000D01*
X41239746Y-82895043D01*
X41007990Y-83049897D01*
X40810897Y-83246990D01*
X40656043Y-83478746D01*
X40549377Y-83736260D01*
X40495000Y-84009635D01*
X40495000Y-84288365D01*
X40549377Y-84561740D01*
X40656043Y-84819254D01*
X40810897Y-85051010D01*
X40862461Y-85102574D01*
X40825626Y-85466033D01*
X41910000Y-86550407D01*
X42994374Y-85466033D01*
X42957539Y-85102574D01*
X43009103Y-85051010D01*
X43163957Y-84819254D01*
X43270623Y-84561740D01*
X43325000Y-84288365D01*
X43325000Y-84009635D01*
X43270623Y-83736260D01*
X43163957Y-83478746D01*
X43009103Y-83246990D01*
X42812010Y-83049897D01*
X42580254Y-82895043D01*
X42541523Y-82879000D01*
X42580254Y-82862957D01*
X42812010Y-82708103D01*
X43009103Y-82511010D01*
X43163957Y-82279254D01*
X43270623Y-82021740D01*
X43325000Y-81748365D01*
X43325000Y-81469635D01*
X43270623Y-81196260D01*
X43163957Y-80938746D01*
X43009103Y-80706990D01*
X42812010Y-80509897D01*
X42580254Y-80355043D01*
X42541523Y-80339000D01*
X42580254Y-80322957D01*
X42812010Y-80168103D01*
X43009103Y-79971010D01*
X43163957Y-79739254D01*
X43270623Y-79481740D01*
X43325000Y-79208365D01*
X43325000Y-78929635D01*
X43270623Y-78656260D01*
X43163957Y-78398746D01*
X43009103Y-78166990D01*
X42812010Y-77969897D01*
X42580254Y-77815043D01*
X42541523Y-77799000D01*
X42580254Y-77782957D01*
X42812010Y-77628103D01*
X43009103Y-77431010D01*
X43163957Y-77199254D01*
X43270623Y-76941740D01*
X43325000Y-76668365D01*
X43325000Y-76389635D01*
X43270623Y-76116260D01*
X43163957Y-75858746D01*
X43009103Y-75626990D01*
X42812010Y-75429897D01*
X42580254Y-75275043D01*
X42541523Y-75259000D01*
X42580254Y-75242957D01*
X42812010Y-75088103D01*
X43009103Y-74891010D01*
X43163957Y-74659254D01*
X43270623Y-74401740D01*
X43325000Y-74128365D01*
X43325000Y-73849635D01*
X43270623Y-73576260D01*
X43163957Y-73318746D01*
X43009103Y-73086990D01*
X42957539Y-73035426D01*
X42994374Y-72671967D01*
X41910000Y-71587593D01*
X40825626Y-72671967D01*
X40862461Y-73035426D01*
X40810897Y-73086990D01*
X40656043Y-73318746D01*
X40549377Y-73576260D01*
X40495000Y-73849635D01*
X20599000Y-73849635D01*
X20599000Y-71471791D01*
X39993909Y-71471791D01*
X40035172Y-71845164D01*
X40148484Y-72203313D01*
X40304166Y-72494572D01*
X40687033Y-72533374D01*
X41771407Y-71449000D01*
X42048593Y-71449000D01*
X43132967Y-72533374D01*
X43515834Y-72494572D01*
X43688959Y-72161199D01*
X43793720Y-71800457D01*
X43826091Y-71426209D01*
X43784828Y-71052836D01*
X43671516Y-70694687D01*
X43515834Y-70403428D01*
X43132967Y-70364626D01*
X42048593Y-71449000D01*
X41771407Y-71449000D01*
X40687033Y-70364626D01*
X40304166Y-70403428D01*
X40131041Y-70736801D01*
X40026280Y-71097543D01*
X39993909Y-71471791D01*
X20599000Y-71471791D01*
X20599000Y-57238000D01*
X24433547Y-57238000D01*
X24455307Y-57458931D01*
X24519750Y-57671371D01*
X24624400Y-57867157D01*
X24765235Y-58038765D01*
X24936843Y-58179600D01*
X25085690Y-58259161D01*
X24988068Y-58494842D01*
X24931000Y-58781740D01*
X24931000Y-59074260D01*
X24988068Y-59361158D01*
X25100010Y-59631411D01*
X25262525Y-59874632D01*
X25469368Y-60081475D01*
X25643760Y-60198000D01*
X25469368Y-60314525D01*
X25262525Y-60521368D01*
X25100010Y-60764589D01*
X24988068Y-61034842D01*
X24931000Y-61321740D01*
X24931000Y-61614260D01*
X24988068Y-61901158D01*
X25100010Y-62171411D01*
X25262525Y-62414632D01*
X25469368Y-62621475D01*
X25643760Y-62738000D01*
X25469368Y-62854525D01*
X25262525Y-63061368D01*
X25100010Y-63304589D01*
X24988068Y-63574842D01*
X24931000Y-63861740D01*
X24931000Y-64154260D01*
X24988068Y-64441158D01*
X25100010Y-64711411D01*
X25262525Y-64954632D01*
X25469368Y-65161475D01*
X25643760Y-65278000D01*
X25469368Y-65394525D01*
X25262525Y-65601368D01*
X25100010Y-65844589D01*
X24988068Y-66114842D01*
X24931000Y-66401740D01*
X24931000Y-66694260D01*
X24988068Y-66981158D01*
X25100010Y-67251411D01*
X25262525Y-67494632D01*
X25469368Y-67701475D01*
X25643760Y-67818000D01*
X25469368Y-67934525D01*
X25262525Y-68141368D01*
X25100010Y-68384589D01*
X24988068Y-68654842D01*
X24931000Y-68941740D01*
X24931000Y-69234260D01*
X24988068Y-69521158D01*
X25100010Y-69791411D01*
X25262525Y-70034632D01*
X25469368Y-70241475D01*
X25712589Y-70403990D01*
X25982842Y-70515932D01*
X26269740Y-70573000D01*
X26562260Y-70573000D01*
X26849158Y-70515932D01*
X27119411Y-70403990D01*
X27362632Y-70241475D01*
X27569475Y-70034632D01*
X27731990Y-69791411D01*
X27843932Y-69521158D01*
X27901000Y-69234260D01*
X27901000Y-68941740D01*
X27843932Y-68654842D01*
X27731990Y-68384589D01*
X27569475Y-68141368D01*
X27362632Y-67934525D01*
X27188240Y-67818000D01*
X27362632Y-67701475D01*
X27569475Y-67494632D01*
X27731990Y-67251411D01*
X27843932Y-66981158D01*
X27901000Y-66694260D01*
X27901000Y-66401740D01*
X27843932Y-66114842D01*
X27731990Y-65844589D01*
X27569475Y-65601368D01*
X27362632Y-65394525D01*
X27188240Y-65278000D01*
X27362632Y-65161475D01*
X27569475Y-64954632D01*
X27731990Y-64711411D01*
X27843932Y-64441158D01*
X27901000Y-64154260D01*
X27901000Y-63861740D01*
X27843932Y-63574842D01*
X27731990Y-63304589D01*
X27569475Y-63061368D01*
X27362632Y-62854525D01*
X27188240Y-62738000D01*
X27362632Y-62621475D01*
X27569475Y-62414632D01*
X27731990Y-62171411D01*
X27843932Y-61901158D01*
X27901000Y-61614260D01*
X27901000Y-61321740D01*
X27843932Y-61034842D01*
X27731990Y-60764589D01*
X27569475Y-60521368D01*
X27362632Y-60314525D01*
X27188240Y-60198000D01*
X27362632Y-60081475D01*
X27569475Y-59874632D01*
X27731990Y-59631411D01*
X27843932Y-59361158D01*
X27901000Y-59074260D01*
X27901000Y-58781740D01*
X27843932Y-58494842D01*
X27746310Y-58259161D01*
X27895157Y-58179600D01*
X28066765Y-58038765D01*
X28207600Y-57867157D01*
X28312250Y-57671371D01*
X28376693Y-57458931D01*
X28398453Y-57238000D01*
X28393000Y-56767750D01*
X28111250Y-56486000D01*
X26514000Y-56486000D01*
X26514000Y-56506000D01*
X26318000Y-56506000D01*
X26318000Y-56486000D01*
X24720750Y-56486000D01*
X24439000Y-56767750D01*
X24433547Y-57238000D01*
X20599000Y-57238000D01*
X20599000Y-55538000D01*
X24433547Y-55538000D01*
X24439000Y-56008250D01*
X24720750Y-56290000D01*
X26318000Y-56290000D01*
X26318000Y-54692750D01*
X26514000Y-54692750D01*
X26514000Y-56290000D01*
X28111250Y-56290000D01*
X28393000Y-56008250D01*
X28398453Y-55538000D01*
X28376693Y-55317069D01*
X28312250Y-55104629D01*
X28207600Y-54908843D01*
X28066765Y-54737235D01*
X27895157Y-54596400D01*
X27699371Y-54491750D01*
X27486931Y-54427307D01*
X27266000Y-54405547D01*
X26795750Y-54411000D01*
X26514000Y-54692750D01*
X26318000Y-54692750D01*
X26036250Y-54411000D01*
X25566000Y-54405547D01*
X25345069Y-54427307D01*
X25132629Y-54491750D01*
X24936843Y-54596400D01*
X24765235Y-54737235D01*
X24624400Y-54908843D01*
X24519750Y-55104629D01*
X24455307Y-55317069D01*
X24433547Y-55538000D01*
X20599000Y-55538000D01*
X20599000Y-40829635D01*
X40495000Y-40829635D01*
X40495000Y-41108365D01*
X40549377Y-41381740D01*
X40656043Y-41639254D01*
X40810897Y-41871010D01*
X41007990Y-42068103D01*
X41239746Y-42222957D01*
X41278477Y-42239000D01*
X41239746Y-42255043D01*
X41007990Y-42409897D01*
X40810897Y-42606990D01*
X40656043Y-42838746D01*
X40549377Y-43096260D01*
X40495000Y-43369635D01*
X40495000Y-43648365D01*
X40549377Y-43921740D01*
X40656043Y-44179254D01*
X40810897Y-44411010D01*
X41007990Y-44608103D01*
X41239746Y-44762957D01*
X41278477Y-44779000D01*
X41239746Y-44795043D01*
X41007990Y-44949897D01*
X40810897Y-45146990D01*
X40656043Y-45378746D01*
X40549377Y-45636260D01*
X40495000Y-45909635D01*
X40495000Y-46188365D01*
X40549377Y-46461740D01*
X40656043Y-46719254D01*
X40810897Y-46951010D01*
X41007990Y-47148103D01*
X41239746Y-47302957D01*
X41278477Y-47319000D01*
X41239746Y-47335043D01*
X41007990Y-47489897D01*
X40810897Y-47686990D01*
X40656043Y-47918746D01*
X40549377Y-48176260D01*
X40495000Y-48449635D01*
X40495000Y-48728365D01*
X40549377Y-49001740D01*
X40656043Y-49259254D01*
X40810897Y-49491010D01*
X41007990Y-49688103D01*
X41239746Y-49842957D01*
X41278477Y-49859000D01*
X41239746Y-49875043D01*
X41007990Y-50029897D01*
X40810897Y-50226990D01*
X40656043Y-50458746D01*
X40549377Y-50716260D01*
X40495000Y-50989635D01*
X40495000Y-51268365D01*
X40549377Y-51541740D01*
X40656043Y-51799254D01*
X40810897Y-52031010D01*
X41007990Y-52228103D01*
X41239746Y-52382957D01*
X41278477Y-52399000D01*
X41239746Y-52415043D01*
X41007990Y-52569897D01*
X40810897Y-52766990D01*
X40656043Y-52998746D01*
X40549377Y-53256260D01*
X40495000Y-53529635D01*
X40495000Y-53808365D01*
X40549377Y-54081740D01*
X40656043Y-54339254D01*
X40810897Y-54571010D01*
X41007990Y-54768103D01*
X41239746Y-54922957D01*
X41278477Y-54939000D01*
X41239746Y-54955043D01*
X41007990Y-55109897D01*
X40810897Y-55306990D01*
X40656043Y-55538746D01*
X40549377Y-55796260D01*
X40495000Y-56069635D01*
X40495000Y-56348365D01*
X40549377Y-56621740D01*
X40656043Y-56879254D01*
X40810897Y-57111010D01*
X41007990Y-57308103D01*
X41239746Y-57462957D01*
X41278477Y-57479000D01*
X41239746Y-57495043D01*
X41007990Y-57649897D01*
X40810897Y-57846990D01*
X40656043Y-58078746D01*
X40549377Y-58336260D01*
X40495000Y-58609635D01*
X40495000Y-58888365D01*
X40549377Y-59161740D01*
X40656043Y-59419254D01*
X40810897Y-59651010D01*
X41007990Y-59848103D01*
X41239746Y-60002957D01*
X41278477Y-60019000D01*
X41239746Y-60035043D01*
X41007990Y-60189897D01*
X40810897Y-60386990D01*
X40656043Y-60618746D01*
X40549377Y-60876260D01*
X40495000Y-61149635D01*
X40495000Y-61428365D01*
X40549377Y-61701740D01*
X40656043Y-61959254D01*
X40810897Y-62191010D01*
X41007990Y-62388103D01*
X41239746Y-62542957D01*
X41278477Y-62559000D01*
X41239746Y-62575043D01*
X41007990Y-62729897D01*
X40810897Y-62926990D01*
X40656043Y-63158746D01*
X40549377Y-63416260D01*
X40495000Y-63689635D01*
X40495000Y-63968365D01*
X40549377Y-64241740D01*
X40656043Y-64499254D01*
X40810897Y-64731010D01*
X41007990Y-64928103D01*
X41239746Y-65082957D01*
X41278477Y-65099000D01*
X41239746Y-65115043D01*
X41007990Y-65269897D01*
X40810897Y-65466990D01*
X40656043Y-65698746D01*
X40549377Y-65956260D01*
X40495000Y-66229635D01*
X40495000Y-66508365D01*
X40549377Y-66781740D01*
X40656043Y-67039254D01*
X40810897Y-67271010D01*
X41007990Y-67468103D01*
X41239746Y-67622957D01*
X41278477Y-67639000D01*
X41239746Y-67655043D01*
X41007990Y-67809897D01*
X40810897Y-68006990D01*
X40656043Y-68238746D01*
X40549377Y-68496260D01*
X40495000Y-68769635D01*
X40495000Y-69048365D01*
X40549377Y-69321740D01*
X40656043Y-69579254D01*
X40810897Y-69811010D01*
X40862461Y-69862574D01*
X40825626Y-70226033D01*
X41910000Y-71310407D01*
X42994374Y-70226033D01*
X42957539Y-69862574D01*
X43009103Y-69811010D01*
X43163957Y-69579254D01*
X43270623Y-69321740D01*
X43325000Y-69048365D01*
X43325000Y-68769635D01*
X43270623Y-68496260D01*
X43163957Y-68238746D01*
X43009103Y-68006990D01*
X42812010Y-67809897D01*
X42580254Y-67655043D01*
X42541523Y-67639000D01*
X42580254Y-67622957D01*
X42812010Y-67468103D01*
X43009103Y-67271010D01*
X43163957Y-67039254D01*
X43270623Y-66781740D01*
X43325000Y-66508365D01*
X43325000Y-66229635D01*
X43270623Y-65956260D01*
X43163957Y-65698746D01*
X43009103Y-65466990D01*
X42812010Y-65269897D01*
X42580254Y-65115043D01*
X42541523Y-65099000D01*
X42580254Y-65082957D01*
X42812010Y-64928103D01*
X43009103Y-64731010D01*
X43163957Y-64499254D01*
X43270623Y-64241740D01*
X43325000Y-63968365D01*
X43325000Y-63689635D01*
X43270623Y-63416260D01*
X43163957Y-63158746D01*
X43009103Y-62926990D01*
X42812010Y-62729897D01*
X42580254Y-62575043D01*
X42541523Y-62559000D01*
X42580254Y-62542957D01*
X42812010Y-62388103D01*
X43009103Y-62191010D01*
X43163957Y-61959254D01*
X43270623Y-61701740D01*
X43325000Y-61428365D01*
X43325000Y-61149635D01*
X43270623Y-60876260D01*
X43163957Y-60618746D01*
X43009103Y-60386990D01*
X42812010Y-60189897D01*
X42580254Y-60035043D01*
X42541523Y-60019000D01*
X42580254Y-60002957D01*
X42812010Y-59848103D01*
X43009103Y-59651010D01*
X43163957Y-59419254D01*
X43270623Y-59161740D01*
X43325000Y-58888365D01*
X43325000Y-58609635D01*
X43270623Y-58336260D01*
X43163957Y-58078746D01*
X43009103Y-57846990D01*
X42812010Y-57649897D01*
X42580254Y-57495043D01*
X42541523Y-57479000D01*
X42580254Y-57462957D01*
X42812010Y-57308103D01*
X43009103Y-57111010D01*
X43163957Y-56879254D01*
X43270623Y-56621740D01*
X43325000Y-56348365D01*
X43325000Y-56069635D01*
X43270623Y-55796260D01*
X43163957Y-55538746D01*
X43009103Y-55306990D01*
X42812010Y-55109897D01*
X42580254Y-54955043D01*
X42541523Y-54939000D01*
X42580254Y-54922957D01*
X42812010Y-54768103D01*
X43009103Y-54571010D01*
X43163957Y-54339254D01*
X43270623Y-54081740D01*
X43325000Y-53808365D01*
X43325000Y-53691791D01*
X65393909Y-53691791D01*
X65435172Y-54065164D01*
X65548484Y-54423313D01*
X65704166Y-54714572D01*
X66087033Y-54753374D01*
X67171407Y-53669000D01*
X67448593Y-53669000D01*
X68532967Y-54753374D01*
X68915834Y-54714572D01*
X69088959Y-54381199D01*
X69193720Y-54020457D01*
X69226091Y-53646209D01*
X69184828Y-53272836D01*
X69071516Y-52914687D01*
X68915834Y-52623428D01*
X68532967Y-52584626D01*
X67448593Y-53669000D01*
X67171407Y-53669000D01*
X66087033Y-52584626D01*
X65704166Y-52623428D01*
X65531041Y-52956801D01*
X65426280Y-53317543D01*
X65393909Y-53691791D01*
X43325000Y-53691791D01*
X43325000Y-53529635D01*
X43270623Y-53256260D01*
X43163957Y-52998746D01*
X43009103Y-52766990D01*
X42812010Y-52569897D01*
X42580254Y-52415043D01*
X42541523Y-52399000D01*
X42580254Y-52382957D01*
X42812010Y-52228103D01*
X43009103Y-52031010D01*
X43163957Y-51799254D01*
X43270623Y-51541740D01*
X43325000Y-51268365D01*
X43325000Y-50989635D01*
X43270623Y-50716260D01*
X43163957Y-50458746D01*
X43009103Y-50226990D01*
X42812010Y-50029897D01*
X42580254Y-49875043D01*
X42541523Y-49859000D01*
X42580254Y-49842957D01*
X42812010Y-49688103D01*
X43009103Y-49491010D01*
X43163957Y-49259254D01*
X43270623Y-49001740D01*
X43325000Y-48728365D01*
X43325000Y-48449635D01*
X43270623Y-48176260D01*
X43163957Y-47918746D01*
X43009103Y-47686990D01*
X42812010Y-47489897D01*
X42580254Y-47335043D01*
X42541523Y-47319000D01*
X42580254Y-47302957D01*
X42812010Y-47148103D01*
X43009103Y-46951010D01*
X43163957Y-46719254D01*
X43270623Y-46461740D01*
X43325000Y-46188365D01*
X43325000Y-45909635D01*
X43270623Y-45636260D01*
X43163957Y-45378746D01*
X43009103Y-45146990D01*
X42812010Y-44949897D01*
X42580254Y-44795043D01*
X42541523Y-44779000D01*
X42580254Y-44762957D01*
X42812010Y-44608103D01*
X43009103Y-44411010D01*
X43163957Y-44179254D01*
X43270623Y-43921740D01*
X43325000Y-43648365D01*
X43325000Y-43369635D01*
X43270623Y-43096260D01*
X43163957Y-42838746D01*
X43009103Y-42606990D01*
X42812010Y-42409897D01*
X42580254Y-42255043D01*
X42541523Y-42239000D01*
X42580254Y-42222957D01*
X42812010Y-42068103D01*
X43009103Y-41871010D01*
X43163957Y-41639254D01*
X43270623Y-41381740D01*
X43325000Y-41108365D01*
X43325000Y-40829635D01*
X65895000Y-40829635D01*
X65895000Y-41108365D01*
X65949377Y-41381740D01*
X66056043Y-41639254D01*
X66210897Y-41871010D01*
X66407990Y-42068103D01*
X66639746Y-42222957D01*
X66678477Y-42239000D01*
X66639746Y-42255043D01*
X66407990Y-42409897D01*
X66210897Y-42606990D01*
X66056043Y-42838746D01*
X65949377Y-43096260D01*
X65895000Y-43369635D01*
X65895000Y-43648365D01*
X65949377Y-43921740D01*
X66056043Y-44179254D01*
X66210897Y-44411010D01*
X66407990Y-44608103D01*
X66639746Y-44762957D01*
X66678477Y-44779000D01*
X66639746Y-44795043D01*
X66407990Y-44949897D01*
X66210897Y-45146990D01*
X66056043Y-45378746D01*
X65949377Y-45636260D01*
X65895000Y-45909635D01*
X65895000Y-46188365D01*
X65949377Y-46461740D01*
X66056043Y-46719254D01*
X66210897Y-46951010D01*
X66407990Y-47148103D01*
X66639746Y-47302957D01*
X66678477Y-47319000D01*
X66639746Y-47335043D01*
X66407990Y-47489897D01*
X66210897Y-47686990D01*
X66056043Y-47918746D01*
X65949377Y-48176260D01*
X65895000Y-48449635D01*
X65895000Y-48728365D01*
X65949377Y-49001740D01*
X66056043Y-49259254D01*
X66210897Y-49491010D01*
X66407990Y-49688103D01*
X66639746Y-49842957D01*
X66678477Y-49859000D01*
X66639746Y-49875043D01*
X66407990Y-50029897D01*
X66210897Y-50226990D01*
X66056043Y-50458746D01*
X65949377Y-50716260D01*
X65895000Y-50989635D01*
X65895000Y-51268365D01*
X65949377Y-51541740D01*
X66056043Y-51799254D01*
X66210897Y-52031010D01*
X66262461Y-52082574D01*
X66225626Y-52446033D01*
X67310000Y-53530407D01*
X68394374Y-52446033D01*
X68357539Y-52082574D01*
X68409103Y-52031010D01*
X68563957Y-51799254D01*
X68670623Y-51541740D01*
X68712131Y-51333061D01*
X87230000Y-51333061D01*
X87230000Y-51536939D01*
X87269774Y-51736898D01*
X87347795Y-51925256D01*
X87461063Y-52094774D01*
X87605226Y-52238937D01*
X87774744Y-52352205D01*
X87963102Y-52430226D01*
X88163061Y-52470000D01*
X88366939Y-52470000D01*
X88566898Y-52430226D01*
X88755256Y-52352205D01*
X88924774Y-52238937D01*
X89068937Y-52094774D01*
X89182205Y-51925256D01*
X89260226Y-51736898D01*
X89300000Y-51536939D01*
X89300000Y-51333061D01*
X89260226Y-51133102D01*
X89182205Y-50944744D01*
X89068937Y-50775226D01*
X88924774Y-50631063D01*
X88755256Y-50517795D01*
X88566898Y-50439774D01*
X88366939Y-50400000D01*
X88163061Y-50400000D01*
X87963102Y-50439774D01*
X87774744Y-50517795D01*
X87605226Y-50631063D01*
X87461063Y-50775226D01*
X87347795Y-50944744D01*
X87269774Y-51133102D01*
X87230000Y-51333061D01*
X68712131Y-51333061D01*
X68725000Y-51268365D01*
X68725000Y-50989635D01*
X68670623Y-50716260D01*
X68563957Y-50458746D01*
X68409103Y-50226990D01*
X68245174Y-50063061D01*
X96120000Y-50063061D01*
X96120000Y-50266939D01*
X96159774Y-50466898D01*
X96237795Y-50655256D01*
X96334510Y-50800000D01*
X96237795Y-50944744D01*
X96159774Y-51133102D01*
X96120000Y-51333061D01*
X96120000Y-51536939D01*
X96159774Y-51736898D01*
X96237795Y-51925256D01*
X96351063Y-52094774D01*
X96495226Y-52238937D01*
X96664744Y-52352205D01*
X96853102Y-52430226D01*
X97053061Y-52470000D01*
X97256939Y-52470000D01*
X97456898Y-52430226D01*
X97645256Y-52352205D01*
X97814774Y-52238937D01*
X97958937Y-52094774D01*
X98072205Y-51925256D01*
X98101306Y-51855000D01*
X120431928Y-51855000D01*
X120431928Y-53555000D01*
X120444188Y-53679482D01*
X120480498Y-53799180D01*
X120539463Y-53909494D01*
X120618815Y-54006185D01*
X120715506Y-54085537D01*
X120825820Y-54144502D01*
X120945518Y-54180812D01*
X121070000Y-54193072D01*
X122770000Y-54193072D01*
X122894482Y-54180812D01*
X123014180Y-54144502D01*
X123124494Y-54085537D01*
X123221185Y-54006185D01*
X123300537Y-53909494D01*
X123359502Y-53799180D01*
X123395812Y-53679482D01*
X123408072Y-53555000D01*
X123408072Y-51855000D01*
X123395812Y-51730518D01*
X123359502Y-51610820D01*
X123300537Y-51500506D01*
X123221185Y-51403815D01*
X123124494Y-51324463D01*
X123014180Y-51265498D01*
X122894482Y-51229188D01*
X122770000Y-51216928D01*
X121070000Y-51216928D01*
X120945518Y-51229188D01*
X120825820Y-51265498D01*
X120715506Y-51324463D01*
X120618815Y-51403815D01*
X120539463Y-51500506D01*
X120480498Y-51610820D01*
X120444188Y-51730518D01*
X120431928Y-51855000D01*
X98101306Y-51855000D01*
X98150226Y-51736898D01*
X98190000Y-51536939D01*
X98190000Y-51360903D01*
X98256063Y-51459774D01*
X98400226Y-51603937D01*
X98569744Y-51717205D01*
X98758102Y-51795226D01*
X98958061Y-51835000D01*
X99161939Y-51835000D01*
X99361898Y-51795226D01*
X99550256Y-51717205D01*
X99719774Y-51603937D01*
X99863937Y-51459774D01*
X99977205Y-51290256D01*
X100055226Y-51101898D01*
X100095000Y-50901939D01*
X100095000Y-50698061D01*
X100055226Y-50498102D01*
X99977205Y-50309744D01*
X99863937Y-50140226D01*
X99719774Y-49996063D01*
X99550256Y-49882795D01*
X99361898Y-49804774D01*
X99161939Y-49765000D01*
X98958061Y-49765000D01*
X98758102Y-49804774D01*
X98569744Y-49882795D01*
X98400226Y-49996063D01*
X98256063Y-50140226D01*
X98190000Y-50239097D01*
X98190000Y-50063061D01*
X98150226Y-49863102D01*
X98072205Y-49674744D01*
X97958937Y-49505226D01*
X97814774Y-49361063D01*
X97645256Y-49247795D01*
X97456898Y-49169774D01*
X97256939Y-49130000D01*
X97053061Y-49130000D01*
X96853102Y-49169774D01*
X96664744Y-49247795D01*
X96495226Y-49361063D01*
X96351063Y-49505226D01*
X96237795Y-49674744D01*
X96159774Y-49863102D01*
X96120000Y-50063061D01*
X68245174Y-50063061D01*
X68212010Y-50029897D01*
X67980254Y-49875043D01*
X67941523Y-49859000D01*
X67980254Y-49842957D01*
X68212010Y-49688103D01*
X68409103Y-49491010D01*
X68563957Y-49259254D01*
X68670623Y-49001740D01*
X68725000Y-48728365D01*
X68725000Y-48449635D01*
X68670623Y-48176260D01*
X68563957Y-47918746D01*
X68409103Y-47686990D01*
X68212010Y-47489897D01*
X67980254Y-47335043D01*
X67941523Y-47319000D01*
X67980254Y-47302957D01*
X68212010Y-47148103D01*
X68409103Y-46951010D01*
X68563957Y-46719254D01*
X68670623Y-46461740D01*
X68725000Y-46188365D01*
X68725000Y-45909635D01*
X68670623Y-45636260D01*
X68563957Y-45378746D01*
X68409103Y-45146990D01*
X68212010Y-44949897D01*
X67980254Y-44795043D01*
X67941523Y-44779000D01*
X67980254Y-44762957D01*
X68212010Y-44608103D01*
X68409103Y-44411010D01*
X68563957Y-44179254D01*
X68633236Y-44012000D01*
X110429928Y-44012000D01*
X110429928Y-46412000D01*
X110442188Y-46536482D01*
X110478498Y-46656180D01*
X110537463Y-46766494D01*
X110616815Y-46863185D01*
X110713506Y-46942537D01*
X110823820Y-47001502D01*
X110943518Y-47037812D01*
X111068000Y-47050072D01*
X113468000Y-47050072D01*
X113592482Y-47037812D01*
X113712180Y-47001502D01*
X113822494Y-46942537D01*
X113919185Y-46863185D01*
X113998537Y-46766494D01*
X114057502Y-46656180D01*
X114093812Y-46536482D01*
X114106072Y-46412000D01*
X114106072Y-44012000D01*
X114093812Y-43887518D01*
X114057502Y-43767820D01*
X113998537Y-43657506D01*
X113919185Y-43560815D01*
X113871889Y-43522000D01*
X129081547Y-43522000D01*
X129103307Y-43742931D01*
X129167750Y-43955371D01*
X129272400Y-44151157D01*
X129413235Y-44322765D01*
X129584843Y-44463600D01*
X129733690Y-44543161D01*
X129636068Y-44778842D01*
X129579000Y-45065740D01*
X129579000Y-45358260D01*
X129636068Y-45645158D01*
X129748010Y-45915411D01*
X129910525Y-46158632D01*
X130117368Y-46365475D01*
X130291760Y-46482000D01*
X130117368Y-46598525D01*
X129910525Y-46805368D01*
X129748010Y-47048589D01*
X129636068Y-47318842D01*
X129579000Y-47605740D01*
X129579000Y-47898260D01*
X129636068Y-48185158D01*
X129748010Y-48455411D01*
X129910525Y-48698632D01*
X130117368Y-48905475D01*
X130360589Y-49067990D01*
X130630842Y-49179932D01*
X130917740Y-49237000D01*
X131210260Y-49237000D01*
X131497158Y-49179932D01*
X131767411Y-49067990D01*
X132010632Y-48905475D01*
X132217475Y-48698632D01*
X132379990Y-48455411D01*
X132491932Y-48185158D01*
X132549000Y-47898260D01*
X132549000Y-47605740D01*
X132491932Y-47318842D01*
X132379990Y-47048589D01*
X132217475Y-46805368D01*
X132010632Y-46598525D01*
X131836240Y-46482000D01*
X132010632Y-46365475D01*
X132217475Y-46158632D01*
X132379990Y-45915411D01*
X132491932Y-45645158D01*
X132549000Y-45358260D01*
X132549000Y-45065740D01*
X132491932Y-44778842D01*
X132394310Y-44543161D01*
X132543157Y-44463600D01*
X132714765Y-44322765D01*
X132855600Y-44151157D01*
X132960250Y-43955371D01*
X133024693Y-43742931D01*
X133046453Y-43522000D01*
X133041000Y-43051750D01*
X132759250Y-42770000D01*
X131162000Y-42770000D01*
X131162000Y-42790000D01*
X130966000Y-42790000D01*
X130966000Y-42770000D01*
X129368750Y-42770000D01*
X129087000Y-43051750D01*
X129081547Y-43522000D01*
X113871889Y-43522000D01*
X113822494Y-43481463D01*
X113712180Y-43422498D01*
X113592482Y-43386188D01*
X113468000Y-43373928D01*
X111068000Y-43373928D01*
X110943518Y-43386188D01*
X110823820Y-43422498D01*
X110713506Y-43481463D01*
X110616815Y-43560815D01*
X110537463Y-43657506D01*
X110478498Y-43767820D01*
X110442188Y-43887518D01*
X110429928Y-44012000D01*
X68633236Y-44012000D01*
X68670623Y-43921740D01*
X68725000Y-43648365D01*
X68725000Y-43369635D01*
X68670623Y-43096260D01*
X68563957Y-42838746D01*
X68409103Y-42606990D01*
X68212010Y-42409897D01*
X67980254Y-42255043D01*
X67941523Y-42239000D01*
X67980254Y-42222957D01*
X68212010Y-42068103D01*
X68409103Y-41871010D01*
X68563957Y-41639254D01*
X68670623Y-41381740D01*
X68725000Y-41108365D01*
X68725000Y-40829635D01*
X68670623Y-40556260D01*
X68563957Y-40298746D01*
X68409103Y-40066990D01*
X68212010Y-39869897D01*
X67980254Y-39715043D01*
X67722740Y-39608377D01*
X67449365Y-39554000D01*
X67170635Y-39554000D01*
X66897260Y-39608377D01*
X66639746Y-39715043D01*
X66407990Y-39869897D01*
X66210897Y-40066990D01*
X66056043Y-40298746D01*
X65949377Y-40556260D01*
X65895000Y-40829635D01*
X43325000Y-40829635D01*
X43270623Y-40556260D01*
X43163957Y-40298746D01*
X43009103Y-40066990D01*
X42812010Y-39869897D01*
X42580254Y-39715043D01*
X42322740Y-39608377D01*
X42049365Y-39554000D01*
X41770635Y-39554000D01*
X41497260Y-39608377D01*
X41239746Y-39715043D01*
X41007990Y-39869897D01*
X40810897Y-40066990D01*
X40656043Y-40298746D01*
X40549377Y-40556260D01*
X40495000Y-40829635D01*
X20599000Y-40829635D01*
X20599000Y-38760061D01*
X88881000Y-38760061D01*
X88881000Y-38963939D01*
X88920774Y-39163898D01*
X88998795Y-39352256D01*
X89053080Y-39433500D01*
X88998795Y-39514744D01*
X88920774Y-39703102D01*
X88881000Y-39903061D01*
X88881000Y-40106939D01*
X88920774Y-40306898D01*
X88998795Y-40495256D01*
X89095510Y-40640000D01*
X88998795Y-40784744D01*
X88920774Y-40973102D01*
X88881000Y-41173061D01*
X88881000Y-41376939D01*
X88920774Y-41576898D01*
X88998795Y-41765256D01*
X89112063Y-41934774D01*
X89256226Y-42078937D01*
X89425744Y-42192205D01*
X89614102Y-42270226D01*
X89814061Y-42310000D01*
X90017939Y-42310000D01*
X90217898Y-42270226D01*
X90406256Y-42192205D01*
X90575774Y-42078937D01*
X90719937Y-41934774D01*
X90720333Y-41934181D01*
X90720729Y-41934774D01*
X90864892Y-42078937D01*
X91034410Y-42192205D01*
X91222768Y-42270226D01*
X91422727Y-42310000D01*
X91626605Y-42310000D01*
X91826564Y-42270226D01*
X92014922Y-42192205D01*
X92184440Y-42078937D01*
X92328603Y-41934774D01*
X92328999Y-41934181D01*
X92329395Y-41934774D01*
X92473558Y-42078937D01*
X92643076Y-42192205D01*
X92831434Y-42270226D01*
X93031393Y-42310000D01*
X93235271Y-42310000D01*
X93435230Y-42270226D01*
X93623588Y-42192205D01*
X93793106Y-42078937D01*
X93937269Y-41934774D01*
X93937666Y-41934180D01*
X93938063Y-41934774D01*
X94082226Y-42078937D01*
X94251744Y-42192205D01*
X94440102Y-42270226D01*
X94640061Y-42310000D01*
X94843939Y-42310000D01*
X95043898Y-42270226D01*
X95232256Y-42192205D01*
X95401774Y-42078937D01*
X95545937Y-41934774D01*
X95659205Y-41765256D01*
X95672227Y-41733816D01*
X110884777Y-41733816D01*
X110974097Y-42159632D01*
X111378924Y-42374637D01*
X111817916Y-42506533D01*
X112274206Y-42550251D01*
X112730256Y-42504111D01*
X113168543Y-42369888D01*
X113561903Y-42159632D01*
X113632725Y-41822000D01*
X129081547Y-41822000D01*
X129087000Y-42292250D01*
X129368750Y-42574000D01*
X130966000Y-42574000D01*
X130966000Y-40976750D01*
X131162000Y-40976750D01*
X131162000Y-42574000D01*
X132759250Y-42574000D01*
X133041000Y-42292250D01*
X133046453Y-41822000D01*
X133024693Y-41601069D01*
X132960250Y-41388629D01*
X132855600Y-41192843D01*
X132714765Y-41021235D01*
X132543157Y-40880400D01*
X132347371Y-40775750D01*
X132134931Y-40711307D01*
X131914000Y-40689547D01*
X131443750Y-40695000D01*
X131162000Y-40976750D01*
X130966000Y-40976750D01*
X130684250Y-40695000D01*
X130214000Y-40689547D01*
X129993069Y-40711307D01*
X129780629Y-40775750D01*
X129584843Y-40880400D01*
X129413235Y-41021235D01*
X129272400Y-41192843D01*
X129167750Y-41388629D01*
X129103307Y-41601069D01*
X129081547Y-41822000D01*
X113632725Y-41822000D01*
X113651223Y-41733816D01*
X112268000Y-40350593D01*
X110884777Y-41733816D01*
X95672227Y-41733816D01*
X95737226Y-41576898D01*
X95777000Y-41376939D01*
X95777000Y-41173061D01*
X95737226Y-40973102D01*
X95659205Y-40784744D01*
X95562490Y-40640000D01*
X95659205Y-40495256D01*
X95737226Y-40306898D01*
X95777000Y-40106939D01*
X95777000Y-40030061D01*
X100184000Y-40030061D01*
X100184000Y-40233939D01*
X100223774Y-40433898D01*
X100301795Y-40622256D01*
X100415063Y-40791774D01*
X100559226Y-40935937D01*
X100728744Y-41049205D01*
X100917102Y-41127226D01*
X101117061Y-41167000D01*
X101320939Y-41167000D01*
X101520898Y-41127226D01*
X101709256Y-41049205D01*
X101878774Y-40935937D01*
X102022937Y-40791774D01*
X102136205Y-40622256D01*
X102214226Y-40433898D01*
X102254000Y-40233939D01*
X102254000Y-40218206D01*
X109929749Y-40218206D01*
X109975889Y-40674256D01*
X110110112Y-41112543D01*
X110320368Y-41505903D01*
X110746184Y-41595223D01*
X112129407Y-40212000D01*
X112406593Y-40212000D01*
X113789816Y-41595223D01*
X114215632Y-41505903D01*
X114430637Y-41101076D01*
X114562533Y-40662084D01*
X114606251Y-40205794D01*
X114560111Y-39749744D01*
X114425888Y-39311457D01*
X114215632Y-38918097D01*
X113789816Y-38828777D01*
X112406593Y-40212000D01*
X112129407Y-40212000D01*
X110746184Y-38828777D01*
X110320368Y-38918097D01*
X110105363Y-39322924D01*
X109973467Y-39761916D01*
X109929749Y-40218206D01*
X102254000Y-40218206D01*
X102254000Y-40030061D01*
X102214226Y-39830102D01*
X102136205Y-39641744D01*
X102022937Y-39472226D01*
X101878774Y-39328063D01*
X101709256Y-39214795D01*
X101520898Y-39136774D01*
X101320939Y-39097000D01*
X101117061Y-39097000D01*
X100917102Y-39136774D01*
X100728744Y-39214795D01*
X100559226Y-39328063D01*
X100415063Y-39472226D01*
X100301795Y-39641744D01*
X100223774Y-39830102D01*
X100184000Y-40030061D01*
X95777000Y-40030061D01*
X95777000Y-39903061D01*
X95737226Y-39703102D01*
X95659205Y-39514744D01*
X95604920Y-39433500D01*
X95659205Y-39352256D01*
X95737226Y-39163898D01*
X95777000Y-38963939D01*
X95777000Y-38760061D01*
X95763101Y-38690184D01*
X110884777Y-38690184D01*
X112268000Y-40073407D01*
X113651223Y-38690184D01*
X113561903Y-38264368D01*
X113157076Y-38049363D01*
X112718084Y-37917467D01*
X112261794Y-37873749D01*
X111805744Y-37919889D01*
X111367457Y-38054112D01*
X110974097Y-38264368D01*
X110884777Y-38690184D01*
X95763101Y-38690184D01*
X95737226Y-38560102D01*
X95659205Y-38371744D01*
X95545937Y-38202226D01*
X95401774Y-38058063D01*
X95232256Y-37944795D01*
X95043898Y-37866774D01*
X94843939Y-37827000D01*
X94640061Y-37827000D01*
X94440102Y-37866774D01*
X94251744Y-37944795D01*
X94082226Y-38058063D01*
X93938063Y-38202226D01*
X93937666Y-38202820D01*
X93937269Y-38202226D01*
X93793106Y-38058063D01*
X93623588Y-37944795D01*
X93435230Y-37866774D01*
X93235271Y-37827000D01*
X93031393Y-37827000D01*
X92831434Y-37866774D01*
X92643076Y-37944795D01*
X92473558Y-38058063D01*
X92329395Y-38202226D01*
X92328999Y-38202819D01*
X92328603Y-38202226D01*
X92184440Y-38058063D01*
X92014922Y-37944795D01*
X91826564Y-37866774D01*
X91626605Y-37827000D01*
X91422727Y-37827000D01*
X91222768Y-37866774D01*
X91034410Y-37944795D01*
X90864892Y-38058063D01*
X90720729Y-38202226D01*
X90720333Y-38202819D01*
X90719937Y-38202226D01*
X90575774Y-38058063D01*
X90406256Y-37944795D01*
X90217898Y-37866774D01*
X90017939Y-37827000D01*
X89814061Y-37827000D01*
X89614102Y-37866774D01*
X89425744Y-37944795D01*
X89256226Y-38058063D01*
X89112063Y-38202226D01*
X88998795Y-38371744D01*
X88920774Y-38560102D01*
X88881000Y-38760061D01*
X20599000Y-38760061D01*
X20599000Y-37250000D01*
X119796928Y-37250000D01*
X119796928Y-38950000D01*
X119809188Y-39074482D01*
X119845498Y-39194180D01*
X119904463Y-39304494D01*
X119983815Y-39401185D01*
X120080506Y-39480537D01*
X120190820Y-39539502D01*
X120310518Y-39575812D01*
X120435000Y-39588072D01*
X122135000Y-39588072D01*
X122259482Y-39575812D01*
X122379180Y-39539502D01*
X122489494Y-39480537D01*
X122586185Y-39401185D01*
X122665537Y-39304494D01*
X122724502Y-39194180D01*
X122760812Y-39074482D01*
X122773072Y-38950000D01*
X122773072Y-37250000D01*
X122760812Y-37125518D01*
X122724502Y-37005820D01*
X122665537Y-36895506D01*
X122586185Y-36798815D01*
X122489494Y-36719463D01*
X122379180Y-36660498D01*
X122259482Y-36624188D01*
X122135000Y-36611928D01*
X120435000Y-36611928D01*
X120310518Y-36624188D01*
X120190820Y-36660498D01*
X120080506Y-36719463D01*
X119983815Y-36798815D01*
X119904463Y-36895506D01*
X119845498Y-37005820D01*
X119809188Y-37125518D01*
X119796928Y-37250000D01*
X20599000Y-37250000D01*
X20599000Y-27719872D01*
X27483000Y-27719872D01*
X27483000Y-28160128D01*
X27568890Y-28591925D01*
X27737369Y-28998669D01*
X27981962Y-29364729D01*
X28293271Y-29676038D01*
X28659331Y-29920631D01*
X29066075Y-30089110D01*
X29497872Y-30175000D01*
X29938128Y-30175000D01*
X30369925Y-30089110D01*
X30776669Y-29920631D01*
X31142729Y-29676038D01*
X31454038Y-29364729D01*
X31698631Y-28998669D01*
X31867110Y-28591925D01*
X31953000Y-28160128D01*
X31953000Y-27719872D01*
X126543000Y-27719872D01*
X126543000Y-28160128D01*
X126628890Y-28591925D01*
X126797369Y-28998669D01*
X127041962Y-29364729D01*
X127353271Y-29676038D01*
X127719331Y-29920631D01*
X128126075Y-30089110D01*
X128557872Y-30175000D01*
X128998128Y-30175000D01*
X129429925Y-30089110D01*
X129836669Y-29920631D01*
X130202729Y-29676038D01*
X130514038Y-29364729D01*
X130758631Y-28998669D01*
X130927110Y-28591925D01*
X131013000Y-28160128D01*
X131013000Y-27719872D01*
X130927110Y-27288075D01*
X130758631Y-26881331D01*
X130514038Y-26515271D01*
X130202729Y-26203962D01*
X129836669Y-25959369D01*
X129429925Y-25790890D01*
X128998128Y-25705000D01*
X128557872Y-25705000D01*
X128126075Y-25790890D01*
X127719331Y-25959369D01*
X127353271Y-26203962D01*
X127041962Y-26515271D01*
X126797369Y-26881331D01*
X126628890Y-27288075D01*
X126543000Y-27719872D01*
X31953000Y-27719872D01*
X31867110Y-27288075D01*
X31698631Y-26881331D01*
X31454038Y-26515271D01*
X31142729Y-26203962D01*
X30776669Y-25959369D01*
X30369925Y-25790890D01*
X29938128Y-25705000D01*
X29497872Y-25705000D01*
X29066075Y-25790890D01*
X28659331Y-25959369D01*
X28293271Y-26203962D01*
X27981962Y-26515271D01*
X27737369Y-26881331D01*
X27568890Y-27288075D01*
X27483000Y-27719872D01*
X20599000Y-27719872D01*
X20599000Y-23915000D01*
X90586928Y-23915000D01*
X90586928Y-25615000D01*
X90599188Y-25739482D01*
X90635498Y-25859180D01*
X90694463Y-25969494D01*
X90773815Y-26066185D01*
X90870506Y-26145537D01*
X90980820Y-26204502D01*
X91100518Y-26240812D01*
X91225000Y-26253072D01*
X92925000Y-26253072D01*
X93049482Y-26240812D01*
X93169180Y-26204502D01*
X93227995Y-26173064D01*
X93231549Y-26177305D01*
X93533659Y-26420066D01*
X93877324Y-26599224D01*
X94209316Y-26699929D01*
X94517000Y-26457415D01*
X94517000Y-24863000D01*
X94713000Y-24863000D01*
X94713000Y-26457415D01*
X95020684Y-26699929D01*
X95352676Y-26599224D01*
X95696341Y-26420066D01*
X95998451Y-26177305D01*
X96247395Y-25880270D01*
X96433607Y-25540376D01*
X96549931Y-25170685D01*
X96307822Y-24863000D01*
X94713000Y-24863000D01*
X94517000Y-24863000D01*
X94497000Y-24863000D01*
X94497000Y-24667000D01*
X94517000Y-24667000D01*
X94517000Y-23072585D01*
X94713000Y-23072585D01*
X94713000Y-24667000D01*
X96307822Y-24667000D01*
X96549931Y-24359315D01*
X96433607Y-23989624D01*
X96247395Y-23649730D01*
X95998451Y-23352695D01*
X95696341Y-23109934D01*
X95352676Y-22930776D01*
X95020684Y-22830071D01*
X94713000Y-23072585D01*
X94517000Y-23072585D01*
X94209316Y-22830071D01*
X93877324Y-22930776D01*
X93533659Y-23109934D01*
X93231549Y-23352695D01*
X93227995Y-23356936D01*
X93169180Y-23325498D01*
X93049482Y-23289188D01*
X92925000Y-23276928D01*
X91225000Y-23276928D01*
X91100518Y-23289188D01*
X90980820Y-23325498D01*
X90870506Y-23384463D01*
X90773815Y-23463815D01*
X90694463Y-23560506D01*
X90635498Y-23670820D01*
X90599188Y-23790518D01*
X90586928Y-23915000D01*
X20599000Y-23915000D01*
X20599000Y-22504000D01*
X136754001Y-22504000D01*
X136754000Y-101956000D01*
G37*
%TD.AperFunction*%
%TD*%
M02*
