%TF.GenerationSoftware,KiCad,Pcbnew,5.1.10-88a1d61d58~88~ubuntu20.04.1*%
%TF.CreationDate,2021-06-19T14:45:42+02:00*%
%TF.ProjectId,WindowControl,57696e64-6f77-4436-9f6e-74726f6c2e6b,rev?*%
%TF.SameCoordinates,Original*%
%TF.FileFunction,Legend,Top*%
%TF.FilePolarity,Positive*%
%FSLAX46Y46*%
G04 Gerber Fmt 4.6, Leading zero omitted, Abs format (unit mm)*
G04 Created by KiCad (PCBNEW 5.1.10-88a1d61d58~88~ubuntu20.04.1) date 2021-06-19 14:45:42*
%MOMM*%
%LPD*%
G01*
G04 APERTURE LIST*
%ADD10C,0.300000*%
%ADD11C,0.120000*%
%ADD12C,0.127000*%
%ADD13C,0.200000*%
%ADD14C,0.150000*%
%ADD15C,0.015000*%
G04 APERTURE END LIST*
D10*
X104684000Y-100088000D02*
X104541142Y-100016571D01*
X104326857Y-100016571D01*
X104112571Y-100088000D01*
X103969714Y-100230857D01*
X103898285Y-100373714D01*
X103826857Y-100659428D01*
X103826857Y-100873714D01*
X103898285Y-101159428D01*
X103969714Y-101302285D01*
X104112571Y-101445142D01*
X104326857Y-101516571D01*
X104469714Y-101516571D01*
X104684000Y-101445142D01*
X104755428Y-101373714D01*
X104755428Y-100873714D01*
X104469714Y-100873714D01*
X105612571Y-101516571D02*
X105469714Y-101445142D01*
X105398285Y-101302285D01*
X105398285Y-100016571D01*
X106184000Y-101516571D02*
X106184000Y-100516571D01*
X106184000Y-100016571D02*
X106112571Y-100088000D01*
X106184000Y-100159428D01*
X106255428Y-100088000D01*
X106184000Y-100016571D01*
X106184000Y-100159428D01*
X107469714Y-101445142D02*
X107326857Y-101516571D01*
X107041142Y-101516571D01*
X106898285Y-101445142D01*
X106826857Y-101302285D01*
X106826857Y-100730857D01*
X106898285Y-100588000D01*
X107041142Y-100516571D01*
X107326857Y-100516571D01*
X107469714Y-100588000D01*
X107541142Y-100730857D01*
X107541142Y-100873714D01*
X106826857Y-101016571D01*
X108112571Y-101445142D02*
X108255428Y-101516571D01*
X108541142Y-101516571D01*
X108684000Y-101445142D01*
X108755428Y-101302285D01*
X108755428Y-101230857D01*
X108684000Y-101088000D01*
X108541142Y-101016571D01*
X108326857Y-101016571D01*
X108184000Y-100945142D01*
X108112571Y-100802285D01*
X108112571Y-100730857D01*
X108184000Y-100588000D01*
X108326857Y-100516571D01*
X108541142Y-100516571D01*
X108684000Y-100588000D01*
X109969714Y-101445142D02*
X109826857Y-101516571D01*
X109541142Y-101516571D01*
X109398285Y-101445142D01*
X109326857Y-101302285D01*
X109326857Y-100730857D01*
X109398285Y-100588000D01*
X109541142Y-100516571D01*
X109826857Y-100516571D01*
X109969714Y-100588000D01*
X110041142Y-100730857D01*
X110041142Y-100873714D01*
X109326857Y-101016571D01*
X72866571Y-24203428D02*
X72938000Y-24132000D01*
X73080857Y-24060571D01*
X73438000Y-24060571D01*
X73580857Y-24132000D01*
X73652285Y-24203428D01*
X73723714Y-24346285D01*
X73723714Y-24489142D01*
X73652285Y-24703428D01*
X72795142Y-25560571D01*
X73723714Y-25560571D01*
X74652285Y-24060571D02*
X74795142Y-24060571D01*
X74938000Y-24132000D01*
X75009428Y-24203428D01*
X75080857Y-24346285D01*
X75152285Y-24632000D01*
X75152285Y-24989142D01*
X75080857Y-25274857D01*
X75009428Y-25417714D01*
X74938000Y-25489142D01*
X74795142Y-25560571D01*
X74652285Y-25560571D01*
X74509428Y-25489142D01*
X74438000Y-25417714D01*
X74366571Y-25274857D01*
X74295142Y-24989142D01*
X74295142Y-24632000D01*
X74366571Y-24346285D01*
X74438000Y-24203428D01*
X74509428Y-24132000D01*
X74652285Y-24060571D01*
X75723714Y-24203428D02*
X75795142Y-24132000D01*
X75938000Y-24060571D01*
X76295142Y-24060571D01*
X76438000Y-24132000D01*
X76509428Y-24203428D01*
X76580857Y-24346285D01*
X76580857Y-24489142D01*
X76509428Y-24703428D01*
X75652285Y-25560571D01*
X76580857Y-25560571D01*
X78009428Y-25560571D02*
X77152285Y-25560571D01*
X77580857Y-25560571D02*
X77580857Y-24060571D01*
X77438000Y-24274857D01*
X77295142Y-24417714D01*
X77152285Y-24489142D01*
X64330857Y-28039142D02*
X64545142Y-28110571D01*
X64902285Y-28110571D01*
X65045142Y-28039142D01*
X65116571Y-27967714D01*
X65188000Y-27824857D01*
X65188000Y-27682000D01*
X65116571Y-27539142D01*
X65045142Y-27467714D01*
X64902285Y-27396285D01*
X64616571Y-27324857D01*
X64473714Y-27253428D01*
X64402285Y-27182000D01*
X64330857Y-27039142D01*
X64330857Y-26896285D01*
X64402285Y-26753428D01*
X64473714Y-26682000D01*
X64616571Y-26610571D01*
X64973714Y-26610571D01*
X65188000Y-26682000D01*
X66402285Y-28039142D02*
X66259428Y-28110571D01*
X65973714Y-28110571D01*
X65830857Y-28039142D01*
X65759428Y-27896285D01*
X65759428Y-27324857D01*
X65830857Y-27182000D01*
X65973714Y-27110571D01*
X66259428Y-27110571D01*
X66402285Y-27182000D01*
X66473714Y-27324857D01*
X66473714Y-27467714D01*
X65759428Y-27610571D01*
X67116571Y-28110571D02*
X67116571Y-27110571D01*
X67116571Y-27396285D02*
X67188000Y-27253428D01*
X67259428Y-27182000D01*
X67402285Y-27110571D01*
X67545142Y-27110571D01*
X67902285Y-27110571D02*
X68259428Y-28110571D01*
X68616571Y-27110571D01*
X69402285Y-28110571D02*
X69259428Y-28039142D01*
X69188000Y-27967714D01*
X69116571Y-27824857D01*
X69116571Y-27396285D01*
X69188000Y-27253428D01*
X69259428Y-27182000D01*
X69402285Y-27110571D01*
X69616571Y-27110571D01*
X69759428Y-27182000D01*
X69830857Y-27253428D01*
X69902285Y-27396285D01*
X69902285Y-27824857D01*
X69830857Y-27967714D01*
X69759428Y-28039142D01*
X69616571Y-28110571D01*
X69402285Y-28110571D01*
X71688000Y-28110571D02*
X71688000Y-26610571D01*
X72188000Y-27682000D01*
X72688000Y-26610571D01*
X72688000Y-28110571D01*
X73616571Y-28110571D02*
X73473714Y-28039142D01*
X73402285Y-27967714D01*
X73330857Y-27824857D01*
X73330857Y-27396285D01*
X73402285Y-27253428D01*
X73473714Y-27182000D01*
X73616571Y-27110571D01*
X73830857Y-27110571D01*
X73973714Y-27182000D01*
X74045142Y-27253428D01*
X74116571Y-27396285D01*
X74116571Y-27824857D01*
X74045142Y-27967714D01*
X73973714Y-28039142D01*
X73830857Y-28110571D01*
X73616571Y-28110571D01*
X74545142Y-27110571D02*
X75116571Y-27110571D01*
X74759428Y-26610571D02*
X74759428Y-27896285D01*
X74830857Y-28039142D01*
X74973714Y-28110571D01*
X75116571Y-28110571D01*
X75830857Y-28110571D02*
X75688000Y-28039142D01*
X75616571Y-27967714D01*
X75545142Y-27824857D01*
X75545142Y-27396285D01*
X75616571Y-27253428D01*
X75688000Y-27182000D01*
X75830857Y-27110571D01*
X76045142Y-27110571D01*
X76188000Y-27182000D01*
X76259428Y-27253428D01*
X76330857Y-27396285D01*
X76330857Y-27824857D01*
X76259428Y-27967714D01*
X76188000Y-28039142D01*
X76045142Y-28110571D01*
X75830857Y-28110571D01*
X76973714Y-28110571D02*
X76973714Y-27110571D01*
X76973714Y-27396285D02*
X77045142Y-27253428D01*
X77116571Y-27182000D01*
X77259428Y-27110571D01*
X77402285Y-27110571D01*
X79902285Y-27967714D02*
X79830857Y-28039142D01*
X79616571Y-28110571D01*
X79473714Y-28110571D01*
X79259428Y-28039142D01*
X79116571Y-27896285D01*
X79045142Y-27753428D01*
X78973714Y-27467714D01*
X78973714Y-27253428D01*
X79045142Y-26967714D01*
X79116571Y-26824857D01*
X79259428Y-26682000D01*
X79473714Y-26610571D01*
X79616571Y-26610571D01*
X79830857Y-26682000D01*
X79902285Y-26753428D01*
X80759428Y-28110571D02*
X80616571Y-28039142D01*
X80545142Y-27967714D01*
X80473714Y-27824857D01*
X80473714Y-27396285D01*
X80545142Y-27253428D01*
X80616571Y-27182000D01*
X80759428Y-27110571D01*
X80973714Y-27110571D01*
X81116571Y-27182000D01*
X81188000Y-27253428D01*
X81259428Y-27396285D01*
X81259428Y-27824857D01*
X81188000Y-27967714D01*
X81116571Y-28039142D01*
X80973714Y-28110571D01*
X80759428Y-28110571D01*
X81902285Y-27110571D02*
X81902285Y-28110571D01*
X81902285Y-27253428D02*
X81973714Y-27182000D01*
X82116571Y-27110571D01*
X82330857Y-27110571D01*
X82473714Y-27182000D01*
X82545142Y-27324857D01*
X82545142Y-28110571D01*
X83045142Y-27110571D02*
X83616571Y-27110571D01*
X83259428Y-26610571D02*
X83259428Y-27896285D01*
X83330857Y-28039142D01*
X83473714Y-28110571D01*
X83616571Y-28110571D01*
X84116571Y-28110571D02*
X84116571Y-27110571D01*
X84116571Y-27396285D02*
X84188000Y-27253428D01*
X84259428Y-27182000D01*
X84402285Y-27110571D01*
X84545142Y-27110571D01*
X85259428Y-28110571D02*
X85116571Y-28039142D01*
X85045142Y-27967714D01*
X84973714Y-27824857D01*
X84973714Y-27396285D01*
X85045142Y-27253428D01*
X85116571Y-27182000D01*
X85259428Y-27110571D01*
X85473714Y-27110571D01*
X85616571Y-27182000D01*
X85688000Y-27253428D01*
X85759428Y-27396285D01*
X85759428Y-27824857D01*
X85688000Y-27967714D01*
X85616571Y-28039142D01*
X85473714Y-28110571D01*
X85259428Y-28110571D01*
X86616571Y-28110571D02*
X86473714Y-28039142D01*
X86402285Y-27896285D01*
X86402285Y-26610571D01*
X69152285Y-29160571D02*
X69652285Y-30660571D01*
X70152285Y-29160571D01*
X71223714Y-30589142D02*
X71080857Y-30660571D01*
X70795142Y-30660571D01*
X70652285Y-30589142D01*
X70580857Y-30446285D01*
X70580857Y-29874857D01*
X70652285Y-29732000D01*
X70795142Y-29660571D01*
X71080857Y-29660571D01*
X71223714Y-29732000D01*
X71295142Y-29874857D01*
X71295142Y-30017714D01*
X70580857Y-30160571D01*
X71938000Y-30660571D02*
X71938000Y-29660571D01*
X71938000Y-29946285D02*
X72009428Y-29803428D01*
X72080857Y-29732000D01*
X72223714Y-29660571D01*
X72366571Y-29660571D01*
X72795142Y-30589142D02*
X72938000Y-30660571D01*
X73223714Y-30660571D01*
X73366571Y-30589142D01*
X73438000Y-30446285D01*
X73438000Y-30374857D01*
X73366571Y-30232000D01*
X73223714Y-30160571D01*
X73009428Y-30160571D01*
X72866571Y-30089142D01*
X72795142Y-29946285D01*
X72795142Y-29874857D01*
X72866571Y-29732000D01*
X73009428Y-29660571D01*
X73223714Y-29660571D01*
X73366571Y-29732000D01*
X74080857Y-30660571D02*
X74080857Y-29660571D01*
X74080857Y-29160571D02*
X74009428Y-29232000D01*
X74080857Y-29303428D01*
X74152285Y-29232000D01*
X74080857Y-29160571D01*
X74080857Y-29303428D01*
X75009428Y-30660571D02*
X74866571Y-30589142D01*
X74795142Y-30517714D01*
X74723714Y-30374857D01*
X74723714Y-29946285D01*
X74795142Y-29803428D01*
X74866571Y-29732000D01*
X75009428Y-29660571D01*
X75223714Y-29660571D01*
X75366571Y-29732000D01*
X75438000Y-29803428D01*
X75509428Y-29946285D01*
X75509428Y-30374857D01*
X75438000Y-30517714D01*
X75366571Y-30589142D01*
X75223714Y-30660571D01*
X75009428Y-30660571D01*
X76152285Y-29660571D02*
X76152285Y-30660571D01*
X76152285Y-29803428D02*
X76223714Y-29732000D01*
X76366571Y-29660571D01*
X76580857Y-29660571D01*
X76723714Y-29732000D01*
X76795142Y-29874857D01*
X76795142Y-30660571D01*
X79438000Y-30660571D02*
X78580857Y-30660571D01*
X79009428Y-30660571D02*
X79009428Y-29160571D01*
X78866571Y-29374857D01*
X78723714Y-29517714D01*
X78580857Y-29589142D01*
X80080857Y-30517714D02*
X80152285Y-30589142D01*
X80080857Y-30660571D01*
X80009428Y-30589142D01*
X80080857Y-30517714D01*
X80080857Y-30660571D01*
X81080857Y-29160571D02*
X81223714Y-29160571D01*
X81366571Y-29232000D01*
X81438000Y-29303428D01*
X81509428Y-29446285D01*
X81580857Y-29732000D01*
X81580857Y-30089142D01*
X81509428Y-30374857D01*
X81438000Y-30517714D01*
X81366571Y-30589142D01*
X81223714Y-30660571D01*
X81080857Y-30660571D01*
X80938000Y-30589142D01*
X80866571Y-30517714D01*
X80795142Y-30374857D01*
X80723714Y-30089142D01*
X80723714Y-29732000D01*
X80795142Y-29446285D01*
X80866571Y-29303428D01*
X80938000Y-29232000D01*
X81080857Y-29160571D01*
D11*
%TO.C,C1*%
X84942000Y-47496252D02*
X84942000Y-46073748D01*
X86762000Y-47496252D02*
X86762000Y-46073748D01*
%TO.C,C2*%
X98277000Y-52628748D02*
X98277000Y-54051252D01*
X100097000Y-52628748D02*
X100097000Y-54051252D01*
%TO.C,C3*%
X98277000Y-88188748D02*
X98277000Y-89611252D01*
X100097000Y-88188748D02*
X100097000Y-89611252D01*
%TO.C,C4*%
X100097000Y-69773748D02*
X100097000Y-71196252D01*
X98277000Y-69773748D02*
X98277000Y-71196252D01*
%TO.C,C5*%
X86762000Y-65481252D02*
X86762000Y-64058748D01*
X84942000Y-65481252D02*
X84942000Y-64058748D01*
%TO.C,C6*%
X84942000Y-83007252D02*
X84942000Y-81584748D01*
X86762000Y-83007252D02*
X86762000Y-81584748D01*
%TO.C,J1*%
X129734000Y-43942000D02*
X132394000Y-43942000D01*
X129734000Y-43942000D02*
X129734000Y-49082000D01*
X129734000Y-49082000D02*
X132394000Y-49082000D01*
X132394000Y-43942000D02*
X132394000Y-49082000D01*
X132394000Y-41342000D02*
X132394000Y-42672000D01*
X131064000Y-41342000D02*
X132394000Y-41342000D01*
%TO.C,J2*%
X131064000Y-60646000D02*
X132394000Y-60646000D01*
X132394000Y-60646000D02*
X132394000Y-61976000D01*
X132394000Y-63246000D02*
X132394000Y-68386000D01*
X129734000Y-68386000D02*
X132394000Y-68386000D01*
X129734000Y-63246000D02*
X129734000Y-68386000D01*
X129734000Y-63246000D02*
X132394000Y-63246000D01*
%TO.C,J3*%
X129734000Y-82550000D02*
X132394000Y-82550000D01*
X129734000Y-82550000D02*
X129734000Y-87690000D01*
X129734000Y-87690000D02*
X132394000Y-87690000D01*
X132394000Y-82550000D02*
X132394000Y-87690000D01*
X132394000Y-79950000D02*
X132394000Y-81280000D01*
X131064000Y-79950000D02*
X132394000Y-79950000D01*
%TO.C,J4*%
X25086000Y-57658000D02*
X27746000Y-57658000D01*
X25086000Y-57658000D02*
X25086000Y-70418000D01*
X25086000Y-70418000D02*
X27746000Y-70418000D01*
X27746000Y-57658000D02*
X27746000Y-70418000D01*
X27746000Y-55058000D02*
X27746000Y-56388000D01*
X26416000Y-55058000D02*
X27746000Y-55058000D01*
%TO.C,R1*%
X100930064Y-44302000D02*
X99475936Y-44302000D01*
X100930064Y-46122000D02*
X99475936Y-46122000D01*
%TO.C,R2*%
X100930064Y-63394000D02*
X99475936Y-63394000D01*
X100930064Y-61574000D02*
X99475936Y-61574000D01*
%TO.C,R3*%
X100930064Y-81174000D02*
X99475936Y-81174000D01*
X100930064Y-79354000D02*
X99475936Y-79354000D01*
%TO.C,A1*%
X75505000Y-60385000D02*
X78165000Y-60385000D01*
X75505000Y-60265000D02*
X75505000Y-60385000D01*
X78165000Y-60265000D02*
X78165000Y-60385000D01*
X78165000Y-57725000D02*
X78165000Y-59055000D01*
X76835000Y-57725000D02*
X78165000Y-57725000D01*
%TO.C,PWM1*%
X120590000Y-54035000D02*
X123250000Y-54035000D01*
X120590000Y-53915000D02*
X120590000Y-54035000D01*
X123250000Y-53915000D02*
X123250000Y-54035000D01*
X123250000Y-51375000D02*
X123250000Y-52705000D01*
X121920000Y-51375000D02*
X123250000Y-51375000D01*
%TO.C,GND*%
X73056750Y-95825000D02*
X74386750Y-95825000D01*
X74386750Y-95825000D02*
X74386750Y-97155000D01*
X74386750Y-98365000D02*
X74386750Y-98485000D01*
X71726750Y-98365000D02*
X71726750Y-98485000D01*
X71726750Y-98485000D02*
X74386750Y-98485000D01*
%TO.C,A2*%
X72965000Y-75625000D02*
X75625000Y-75625000D01*
X72965000Y-75505000D02*
X72965000Y-75625000D01*
X75625000Y-75505000D02*
X75625000Y-75625000D01*
X75625000Y-72965000D02*
X75625000Y-74295000D01*
X74295000Y-72965000D02*
X75625000Y-72965000D01*
%TO.C,PWM2*%
X122555000Y-69790000D02*
X123885000Y-69790000D01*
X123885000Y-69790000D02*
X123885000Y-71120000D01*
X123885000Y-72330000D02*
X123885000Y-72450000D01*
X121225000Y-72330000D02*
X121225000Y-72450000D01*
X121225000Y-72450000D02*
X123885000Y-72450000D01*
%TO.C,GND*%
X93872375Y-98485000D02*
X96532375Y-98485000D01*
X93872375Y-98365000D02*
X93872375Y-98485000D01*
X96532375Y-98365000D02*
X96532375Y-98485000D01*
X96532375Y-95825000D02*
X96532375Y-97155000D01*
X95202375Y-95825000D02*
X96532375Y-95825000D01*
%TO.C,A3*%
X76200000Y-79950000D02*
X77530000Y-79950000D01*
X77530000Y-79950000D02*
X77530000Y-81280000D01*
X77530000Y-82490000D02*
X77530000Y-82610000D01*
X74870000Y-82490000D02*
X74870000Y-82610000D01*
X74870000Y-82610000D02*
X77530000Y-82610000D01*
%TO.C,PWM3*%
X121225000Y-92135000D02*
X123885000Y-92135000D01*
X121225000Y-92015000D02*
X121225000Y-92135000D01*
X123885000Y-92015000D02*
X123885000Y-92135000D01*
X123885000Y-89475000D02*
X123885000Y-90805000D01*
X122555000Y-89475000D02*
X123885000Y-89475000D01*
%TO.C,GND*%
X117348000Y-95825000D02*
X118678000Y-95825000D01*
X118678000Y-95825000D02*
X118678000Y-97155000D01*
X118678000Y-98365000D02*
X118678000Y-98485000D01*
X116018000Y-98365000D02*
X116018000Y-98485000D01*
X116018000Y-98485000D02*
X118678000Y-98485000D01*
%TO.C,U1*%
X92456000Y-46716000D02*
X90506000Y-46716000D01*
X92456000Y-46716000D02*
X94406000Y-46716000D01*
X92456000Y-51836000D02*
X90506000Y-51836000D01*
X92456000Y-51836000D02*
X95906000Y-51836000D01*
%TO.C,U2*%
X92456000Y-64750000D02*
X90506000Y-64750000D01*
X92456000Y-64750000D02*
X94406000Y-64750000D01*
X92456000Y-69870000D02*
X90506000Y-69870000D01*
X92456000Y-69870000D02*
X95906000Y-69870000D01*
%TO.C,U3*%
X92456000Y-87396000D02*
X95906000Y-87396000D01*
X92456000Y-87396000D02*
X90506000Y-87396000D01*
X92456000Y-82276000D02*
X94406000Y-82276000D01*
X92456000Y-82276000D02*
X90506000Y-82276000D01*
D12*
%TO.C,U4*%
X68560000Y-39679000D02*
X68560000Y-94079000D01*
X68560000Y-94079000D02*
X40660000Y-94079000D01*
X40660000Y-94079000D02*
X40660000Y-39679000D01*
X40660000Y-39679000D02*
X68560000Y-39679000D01*
D11*
%TO.C,D4*%
X78554580Y-52428140D02*
X78359000Y-52428140D01*
X77561440Y-52428140D02*
X77282040Y-52428140D01*
X77282040Y-52428140D02*
X77282040Y-54297580D01*
X77282040Y-54297580D02*
X77533500Y-54297580D01*
X78374240Y-54317900D02*
X78640940Y-54317900D01*
X78640940Y-54317900D02*
X78640940Y-52428140D01*
X78640940Y-52428140D02*
X78541880Y-52428140D01*
X78265020Y-52956460D02*
X77635100Y-52956460D01*
%TO.C,D5*%
X78138020Y-72641460D02*
X77508100Y-72641460D01*
X78513940Y-72113140D02*
X78414880Y-72113140D01*
X78513940Y-74002900D02*
X78513940Y-72113140D01*
X78247240Y-74002900D02*
X78513940Y-74002900D01*
X77155040Y-73982580D02*
X77406500Y-73982580D01*
X77155040Y-72113140D02*
X77155040Y-73982580D01*
X77434440Y-72113140D02*
X77155040Y-72113140D01*
X78427580Y-72113140D02*
X78232000Y-72113140D01*
%TO.C,D6*%
X78173580Y-87988140D02*
X77978000Y-87988140D01*
X77180440Y-87988140D02*
X76901040Y-87988140D01*
X76901040Y-87988140D02*
X76901040Y-89857580D01*
X76901040Y-89857580D02*
X77152500Y-89857580D01*
X77993240Y-89877900D02*
X78259940Y-89877900D01*
X78259940Y-89877900D02*
X78259940Y-87988140D01*
X78259940Y-87988140D02*
X78160880Y-87988140D01*
X77884020Y-88516460D02*
X77254100Y-88516460D01*
%TO.C,R4*%
X80552936Y-48620000D02*
X82007064Y-48620000D01*
X80552936Y-50440000D02*
X82007064Y-50440000D01*
%TO.C,R5*%
X80552936Y-68982000D02*
X82007064Y-68982000D01*
X80552936Y-67162000D02*
X82007064Y-67162000D01*
%TO.C,R6*%
X80552936Y-84434000D02*
X82007064Y-84434000D01*
X80552936Y-86254000D02*
X82007064Y-86254000D01*
%TO.C,C7*%
X108068000Y-48904082D02*
X109318000Y-48904082D01*
X108693000Y-49529082D02*
X108693000Y-48279082D01*
X111951000Y-36351000D02*
X112585000Y-36351000D01*
X111511000Y-36391000D02*
X113025000Y-36391000D01*
X111240000Y-36431000D02*
X113296000Y-36431000D01*
X111027000Y-36471000D02*
X113509000Y-36471000D01*
X110846000Y-36511000D02*
X113690000Y-36511000D01*
X110685000Y-36551000D02*
X113851000Y-36551000D01*
X110540000Y-36591000D02*
X113996000Y-36591000D01*
X110407000Y-36631000D02*
X114129000Y-36631000D01*
X110284000Y-36671000D02*
X114252000Y-36671000D01*
X110168000Y-36711000D02*
X114368000Y-36711000D01*
X110059000Y-36751000D02*
X114477000Y-36751000D01*
X109956000Y-36791000D02*
X114580000Y-36791000D01*
X109858000Y-36831000D02*
X114678000Y-36831000D01*
X109764000Y-36871000D02*
X114772000Y-36871000D01*
X109674000Y-36911000D02*
X114862000Y-36911000D01*
X109587000Y-36951000D02*
X114949000Y-36951000D01*
X109504000Y-36991000D02*
X115032000Y-36991000D01*
X109424000Y-37031000D02*
X115112000Y-37031000D01*
X109347000Y-37071000D02*
X115189000Y-37071000D01*
X109272000Y-37111000D02*
X115264000Y-37111000D01*
X109199000Y-37151000D02*
X115337000Y-37151000D01*
X109128000Y-37191000D02*
X115408000Y-37191000D01*
X109060000Y-37231000D02*
X115476000Y-37231000D01*
X108993000Y-37271000D02*
X115543000Y-37271000D01*
X108929000Y-37311000D02*
X115607000Y-37311000D01*
X108866000Y-37351000D02*
X115670000Y-37351000D01*
X108804000Y-37391000D02*
X115732000Y-37391000D01*
X108744000Y-37431000D02*
X115792000Y-37431000D01*
X108685000Y-37471000D02*
X115851000Y-37471000D01*
X108628000Y-37511000D02*
X115908000Y-37511000D01*
X108572000Y-37551000D02*
X115964000Y-37551000D01*
X108518000Y-37591000D02*
X116018000Y-37591000D01*
X108464000Y-37631000D02*
X116072000Y-37631000D01*
X108412000Y-37671000D02*
X116124000Y-37671000D01*
X108361000Y-37711000D02*
X116175000Y-37711000D01*
X108311000Y-37751000D02*
X116225000Y-37751000D01*
X108261000Y-37791000D02*
X116275000Y-37791000D01*
X108213000Y-37831000D02*
X116323000Y-37831000D01*
X108166000Y-37871000D02*
X116370000Y-37871000D01*
X108120000Y-37911000D02*
X116416000Y-37911000D01*
X108074000Y-37951000D02*
X116462000Y-37951000D01*
X108030000Y-37991000D02*
X116506000Y-37991000D01*
X107986000Y-38031000D02*
X116550000Y-38031000D01*
X107943000Y-38071000D02*
X116593000Y-38071000D01*
X107901000Y-38111000D02*
X116635000Y-38111000D01*
X107860000Y-38151000D02*
X116676000Y-38151000D01*
X107819000Y-38191000D02*
X116717000Y-38191000D01*
X107779000Y-38231000D02*
X116757000Y-38231000D01*
X107740000Y-38271000D02*
X116796000Y-38271000D01*
X107701000Y-38311000D02*
X116835000Y-38311000D01*
X107663000Y-38351000D02*
X116873000Y-38351000D01*
X107626000Y-38391000D02*
X116910000Y-38391000D01*
X107590000Y-38431000D02*
X116946000Y-38431000D01*
X107554000Y-38471000D02*
X116982000Y-38471000D01*
X107518000Y-38511000D02*
X117018000Y-38511000D01*
X107483000Y-38551000D02*
X117053000Y-38551000D01*
X107449000Y-38591000D02*
X117087000Y-38591000D01*
X107416000Y-38631000D02*
X117120000Y-38631000D01*
X107383000Y-38671000D02*
X117153000Y-38671000D01*
X107350000Y-38711000D02*
X117186000Y-38711000D01*
X107318000Y-38751000D02*
X117218000Y-38751000D01*
X113708000Y-38791000D02*
X117250000Y-38791000D01*
X107286000Y-38791000D02*
X110828000Y-38791000D01*
X113708000Y-38831000D02*
X117280000Y-38831000D01*
X107256000Y-38831000D02*
X110828000Y-38831000D01*
X113708000Y-38871000D02*
X117311000Y-38871000D01*
X107225000Y-38871000D02*
X110828000Y-38871000D01*
X113708000Y-38911000D02*
X117341000Y-38911000D01*
X107195000Y-38911000D02*
X110828000Y-38911000D01*
X113708000Y-38951000D02*
X117370000Y-38951000D01*
X107166000Y-38951000D02*
X110828000Y-38951000D01*
X113708000Y-38991000D02*
X117399000Y-38991000D01*
X107137000Y-38991000D02*
X110828000Y-38991000D01*
X113708000Y-39031000D02*
X117428000Y-39031000D01*
X107108000Y-39031000D02*
X110828000Y-39031000D01*
X113708000Y-39071000D02*
X117456000Y-39071000D01*
X107080000Y-39071000D02*
X110828000Y-39071000D01*
X113708000Y-39111000D02*
X117484000Y-39111000D01*
X107052000Y-39111000D02*
X110828000Y-39111000D01*
X113708000Y-39151000D02*
X117511000Y-39151000D01*
X107025000Y-39151000D02*
X110828000Y-39151000D01*
X113708000Y-39191000D02*
X117538000Y-39191000D01*
X106998000Y-39191000D02*
X110828000Y-39191000D01*
X113708000Y-39231000D02*
X117564000Y-39231000D01*
X106972000Y-39231000D02*
X110828000Y-39231000D01*
X113708000Y-39271000D02*
X117590000Y-39271000D01*
X106946000Y-39271000D02*
X110828000Y-39271000D01*
X113708000Y-39311000D02*
X117615000Y-39311000D01*
X106921000Y-39311000D02*
X110828000Y-39311000D01*
X113708000Y-39351000D02*
X117640000Y-39351000D01*
X106896000Y-39351000D02*
X110828000Y-39351000D01*
X113708000Y-39391000D02*
X117665000Y-39391000D01*
X106871000Y-39391000D02*
X110828000Y-39391000D01*
X113708000Y-39431000D02*
X117689000Y-39431000D01*
X106847000Y-39431000D02*
X110828000Y-39431000D01*
X113708000Y-39471000D02*
X117713000Y-39471000D01*
X106823000Y-39471000D02*
X110828000Y-39471000D01*
X113708000Y-39511000D02*
X117736000Y-39511000D01*
X106800000Y-39511000D02*
X110828000Y-39511000D01*
X113708000Y-39551000D02*
X117759000Y-39551000D01*
X106777000Y-39551000D02*
X110828000Y-39551000D01*
X113708000Y-39591000D02*
X117782000Y-39591000D01*
X106754000Y-39591000D02*
X110828000Y-39591000D01*
X113708000Y-39631000D02*
X117804000Y-39631000D01*
X106732000Y-39631000D02*
X110828000Y-39631000D01*
X113708000Y-39671000D02*
X117826000Y-39671000D01*
X106710000Y-39671000D02*
X110828000Y-39671000D01*
X113708000Y-39711000D02*
X117848000Y-39711000D01*
X106688000Y-39711000D02*
X110828000Y-39711000D01*
X113708000Y-39751000D02*
X117869000Y-39751000D01*
X106667000Y-39751000D02*
X110828000Y-39751000D01*
X113708000Y-39791000D02*
X117890000Y-39791000D01*
X106646000Y-39791000D02*
X110828000Y-39791000D01*
X113708000Y-39831000D02*
X117910000Y-39831000D01*
X106626000Y-39831000D02*
X110828000Y-39831000D01*
X113708000Y-39871000D02*
X117930000Y-39871000D01*
X106606000Y-39871000D02*
X110828000Y-39871000D01*
X113708000Y-39911000D02*
X117950000Y-39911000D01*
X106586000Y-39911000D02*
X110828000Y-39911000D01*
X113708000Y-39951000D02*
X117970000Y-39951000D01*
X106566000Y-39951000D02*
X110828000Y-39951000D01*
X113708000Y-39991000D02*
X117989000Y-39991000D01*
X106547000Y-39991000D02*
X110828000Y-39991000D01*
X113708000Y-40031000D02*
X118007000Y-40031000D01*
X106529000Y-40031000D02*
X110828000Y-40031000D01*
X113708000Y-40071000D02*
X118026000Y-40071000D01*
X106510000Y-40071000D02*
X110828000Y-40071000D01*
X113708000Y-40111000D02*
X118044000Y-40111000D01*
X106492000Y-40111000D02*
X110828000Y-40111000D01*
X113708000Y-40151000D02*
X118061000Y-40151000D01*
X106475000Y-40151000D02*
X110828000Y-40151000D01*
X113708000Y-40191000D02*
X118079000Y-40191000D01*
X106457000Y-40191000D02*
X110828000Y-40191000D01*
X113708000Y-40231000D02*
X118096000Y-40231000D01*
X106440000Y-40231000D02*
X110828000Y-40231000D01*
X113708000Y-40271000D02*
X118113000Y-40271000D01*
X106423000Y-40271000D02*
X110828000Y-40271000D01*
X113708000Y-40311000D02*
X118129000Y-40311000D01*
X106407000Y-40311000D02*
X110828000Y-40311000D01*
X113708000Y-40351000D02*
X118145000Y-40351000D01*
X106391000Y-40351000D02*
X110828000Y-40351000D01*
X113708000Y-40391000D02*
X118161000Y-40391000D01*
X106375000Y-40391000D02*
X110828000Y-40391000D01*
X113708000Y-40431000D02*
X118176000Y-40431000D01*
X106360000Y-40431000D02*
X110828000Y-40431000D01*
X113708000Y-40471000D02*
X118192000Y-40471000D01*
X106344000Y-40471000D02*
X110828000Y-40471000D01*
X113708000Y-40511000D02*
X118207000Y-40511000D01*
X106329000Y-40511000D02*
X110828000Y-40511000D01*
X113708000Y-40551000D02*
X118221000Y-40551000D01*
X106315000Y-40551000D02*
X110828000Y-40551000D01*
X113708000Y-40591000D02*
X118235000Y-40591000D01*
X106301000Y-40591000D02*
X110828000Y-40591000D01*
X113708000Y-40631000D02*
X118249000Y-40631000D01*
X106287000Y-40631000D02*
X110828000Y-40631000D01*
X113708000Y-40671000D02*
X118263000Y-40671000D01*
X106273000Y-40671000D02*
X110828000Y-40671000D01*
X113708000Y-40711000D02*
X118276000Y-40711000D01*
X106260000Y-40711000D02*
X110828000Y-40711000D01*
X113708000Y-40751000D02*
X118289000Y-40751000D01*
X106247000Y-40751000D02*
X110828000Y-40751000D01*
X113708000Y-40791000D02*
X118302000Y-40791000D01*
X106234000Y-40791000D02*
X110828000Y-40791000D01*
X113708000Y-40831000D02*
X118315000Y-40831000D01*
X106221000Y-40831000D02*
X110828000Y-40831000D01*
X113708000Y-40871000D02*
X118327000Y-40871000D01*
X106209000Y-40871000D02*
X110828000Y-40871000D01*
X113708000Y-40911000D02*
X118339000Y-40911000D01*
X106197000Y-40911000D02*
X110828000Y-40911000D01*
X113708000Y-40951000D02*
X118351000Y-40951000D01*
X106185000Y-40951000D02*
X110828000Y-40951000D01*
X113708000Y-40991000D02*
X118362000Y-40991000D01*
X106174000Y-40991000D02*
X110828000Y-40991000D01*
X113708000Y-41031000D02*
X118373000Y-41031000D01*
X106163000Y-41031000D02*
X110828000Y-41031000D01*
X113708000Y-41071000D02*
X118384000Y-41071000D01*
X106152000Y-41071000D02*
X110828000Y-41071000D01*
X113708000Y-41111000D02*
X118394000Y-41111000D01*
X106142000Y-41111000D02*
X110828000Y-41111000D01*
X113708000Y-41151000D02*
X118405000Y-41151000D01*
X106131000Y-41151000D02*
X110828000Y-41151000D01*
X113708000Y-41191000D02*
X118414000Y-41191000D01*
X106122000Y-41191000D02*
X110828000Y-41191000D01*
X113708000Y-41231000D02*
X118424000Y-41231000D01*
X106112000Y-41231000D02*
X110828000Y-41231000D01*
X113708000Y-41271000D02*
X118434000Y-41271000D01*
X106102000Y-41271000D02*
X110828000Y-41271000D01*
X113708000Y-41311000D02*
X118443000Y-41311000D01*
X106093000Y-41311000D02*
X110828000Y-41311000D01*
X113708000Y-41351000D02*
X118452000Y-41351000D01*
X106084000Y-41351000D02*
X110828000Y-41351000D01*
X113708000Y-41391000D02*
X118460000Y-41391000D01*
X106076000Y-41391000D02*
X110828000Y-41391000D01*
X113708000Y-41431000D02*
X118469000Y-41431000D01*
X106067000Y-41431000D02*
X110828000Y-41431000D01*
X113708000Y-41471000D02*
X118477000Y-41471000D01*
X106059000Y-41471000D02*
X110828000Y-41471000D01*
X113708000Y-41511000D02*
X118484000Y-41511000D01*
X106052000Y-41511000D02*
X110828000Y-41511000D01*
X113708000Y-41551000D02*
X118492000Y-41551000D01*
X106044000Y-41551000D02*
X110828000Y-41551000D01*
X113708000Y-41591000D02*
X118499000Y-41591000D01*
X106037000Y-41591000D02*
X110828000Y-41591000D01*
X113708000Y-41631000D02*
X118506000Y-41631000D01*
X106030000Y-41631000D02*
X110828000Y-41631000D01*
X106023000Y-41671000D02*
X118513000Y-41671000D01*
X106016000Y-41711000D02*
X118520000Y-41711000D01*
X106010000Y-41751000D02*
X118526000Y-41751000D01*
X106004000Y-41791000D02*
X118532000Y-41791000D01*
X105999000Y-41831000D02*
X118537000Y-41831000D01*
X105993000Y-41871000D02*
X118543000Y-41871000D01*
X105988000Y-41911000D02*
X118548000Y-41911000D01*
X105983000Y-41951000D02*
X118553000Y-41951000D01*
X105978000Y-41991000D02*
X118558000Y-41991000D01*
X105974000Y-42032000D02*
X118562000Y-42032000D01*
X105970000Y-42072000D02*
X118566000Y-42072000D01*
X105966000Y-42112000D02*
X118570000Y-42112000D01*
X105962000Y-42152000D02*
X118574000Y-42152000D01*
X105959000Y-42192000D02*
X118577000Y-42192000D01*
X105956000Y-42232000D02*
X118580000Y-42232000D01*
X105953000Y-42272000D02*
X118583000Y-42272000D01*
X105950000Y-42312000D02*
X118586000Y-42312000D01*
X105948000Y-42352000D02*
X118588000Y-42352000D01*
X105946000Y-42392000D02*
X118590000Y-42392000D01*
X105944000Y-42432000D02*
X118592000Y-42432000D01*
X105942000Y-42472000D02*
X118594000Y-42472000D01*
X105941000Y-42512000D02*
X118595000Y-42512000D01*
X105940000Y-42552000D02*
X118596000Y-42552000D01*
X105939000Y-42592000D02*
X118597000Y-42592000D01*
X105938000Y-42632000D02*
X118598000Y-42632000D01*
X105938000Y-42672000D02*
X118598000Y-42672000D01*
X105938000Y-42712000D02*
X118598000Y-42712000D01*
X118638000Y-42712000D02*
G75*
G03*
X118638000Y-42712000I-6370000J0D01*
G01*
%TO.C,C8*%
X118638000Y-60365000D02*
G75*
G03*
X118638000Y-60365000I-6370000J0D01*
G01*
X105938000Y-60365000D02*
X118598000Y-60365000D01*
X105938000Y-60325000D02*
X118598000Y-60325000D01*
X105938000Y-60285000D02*
X118598000Y-60285000D01*
X105939000Y-60245000D02*
X118597000Y-60245000D01*
X105940000Y-60205000D02*
X118596000Y-60205000D01*
X105941000Y-60165000D02*
X118595000Y-60165000D01*
X105942000Y-60125000D02*
X118594000Y-60125000D01*
X105944000Y-60085000D02*
X118592000Y-60085000D01*
X105946000Y-60045000D02*
X118590000Y-60045000D01*
X105948000Y-60005000D02*
X118588000Y-60005000D01*
X105950000Y-59965000D02*
X118586000Y-59965000D01*
X105953000Y-59925000D02*
X118583000Y-59925000D01*
X105956000Y-59885000D02*
X118580000Y-59885000D01*
X105959000Y-59845000D02*
X118577000Y-59845000D01*
X105962000Y-59805000D02*
X118574000Y-59805000D01*
X105966000Y-59765000D02*
X118570000Y-59765000D01*
X105970000Y-59725000D02*
X118566000Y-59725000D01*
X105974000Y-59685000D02*
X118562000Y-59685000D01*
X105978000Y-59644000D02*
X118558000Y-59644000D01*
X105983000Y-59604000D02*
X118553000Y-59604000D01*
X105988000Y-59564000D02*
X118548000Y-59564000D01*
X105993000Y-59524000D02*
X118543000Y-59524000D01*
X105999000Y-59484000D02*
X118537000Y-59484000D01*
X106004000Y-59444000D02*
X118532000Y-59444000D01*
X106010000Y-59404000D02*
X118526000Y-59404000D01*
X106016000Y-59364000D02*
X118520000Y-59364000D01*
X106023000Y-59324000D02*
X118513000Y-59324000D01*
X106030000Y-59284000D02*
X110828000Y-59284000D01*
X113708000Y-59284000D02*
X118506000Y-59284000D01*
X106037000Y-59244000D02*
X110828000Y-59244000D01*
X113708000Y-59244000D02*
X118499000Y-59244000D01*
X106044000Y-59204000D02*
X110828000Y-59204000D01*
X113708000Y-59204000D02*
X118492000Y-59204000D01*
X106052000Y-59164000D02*
X110828000Y-59164000D01*
X113708000Y-59164000D02*
X118484000Y-59164000D01*
X106059000Y-59124000D02*
X110828000Y-59124000D01*
X113708000Y-59124000D02*
X118477000Y-59124000D01*
X106067000Y-59084000D02*
X110828000Y-59084000D01*
X113708000Y-59084000D02*
X118469000Y-59084000D01*
X106076000Y-59044000D02*
X110828000Y-59044000D01*
X113708000Y-59044000D02*
X118460000Y-59044000D01*
X106084000Y-59004000D02*
X110828000Y-59004000D01*
X113708000Y-59004000D02*
X118452000Y-59004000D01*
X106093000Y-58964000D02*
X110828000Y-58964000D01*
X113708000Y-58964000D02*
X118443000Y-58964000D01*
X106102000Y-58924000D02*
X110828000Y-58924000D01*
X113708000Y-58924000D02*
X118434000Y-58924000D01*
X106112000Y-58884000D02*
X110828000Y-58884000D01*
X113708000Y-58884000D02*
X118424000Y-58884000D01*
X106122000Y-58844000D02*
X110828000Y-58844000D01*
X113708000Y-58844000D02*
X118414000Y-58844000D01*
X106131000Y-58804000D02*
X110828000Y-58804000D01*
X113708000Y-58804000D02*
X118405000Y-58804000D01*
X106142000Y-58764000D02*
X110828000Y-58764000D01*
X113708000Y-58764000D02*
X118394000Y-58764000D01*
X106152000Y-58724000D02*
X110828000Y-58724000D01*
X113708000Y-58724000D02*
X118384000Y-58724000D01*
X106163000Y-58684000D02*
X110828000Y-58684000D01*
X113708000Y-58684000D02*
X118373000Y-58684000D01*
X106174000Y-58644000D02*
X110828000Y-58644000D01*
X113708000Y-58644000D02*
X118362000Y-58644000D01*
X106185000Y-58604000D02*
X110828000Y-58604000D01*
X113708000Y-58604000D02*
X118351000Y-58604000D01*
X106197000Y-58564000D02*
X110828000Y-58564000D01*
X113708000Y-58564000D02*
X118339000Y-58564000D01*
X106209000Y-58524000D02*
X110828000Y-58524000D01*
X113708000Y-58524000D02*
X118327000Y-58524000D01*
X106221000Y-58484000D02*
X110828000Y-58484000D01*
X113708000Y-58484000D02*
X118315000Y-58484000D01*
X106234000Y-58444000D02*
X110828000Y-58444000D01*
X113708000Y-58444000D02*
X118302000Y-58444000D01*
X106247000Y-58404000D02*
X110828000Y-58404000D01*
X113708000Y-58404000D02*
X118289000Y-58404000D01*
X106260000Y-58364000D02*
X110828000Y-58364000D01*
X113708000Y-58364000D02*
X118276000Y-58364000D01*
X106273000Y-58324000D02*
X110828000Y-58324000D01*
X113708000Y-58324000D02*
X118263000Y-58324000D01*
X106287000Y-58284000D02*
X110828000Y-58284000D01*
X113708000Y-58284000D02*
X118249000Y-58284000D01*
X106301000Y-58244000D02*
X110828000Y-58244000D01*
X113708000Y-58244000D02*
X118235000Y-58244000D01*
X106315000Y-58204000D02*
X110828000Y-58204000D01*
X113708000Y-58204000D02*
X118221000Y-58204000D01*
X106329000Y-58164000D02*
X110828000Y-58164000D01*
X113708000Y-58164000D02*
X118207000Y-58164000D01*
X106344000Y-58124000D02*
X110828000Y-58124000D01*
X113708000Y-58124000D02*
X118192000Y-58124000D01*
X106360000Y-58084000D02*
X110828000Y-58084000D01*
X113708000Y-58084000D02*
X118176000Y-58084000D01*
X106375000Y-58044000D02*
X110828000Y-58044000D01*
X113708000Y-58044000D02*
X118161000Y-58044000D01*
X106391000Y-58004000D02*
X110828000Y-58004000D01*
X113708000Y-58004000D02*
X118145000Y-58004000D01*
X106407000Y-57964000D02*
X110828000Y-57964000D01*
X113708000Y-57964000D02*
X118129000Y-57964000D01*
X106423000Y-57924000D02*
X110828000Y-57924000D01*
X113708000Y-57924000D02*
X118113000Y-57924000D01*
X106440000Y-57884000D02*
X110828000Y-57884000D01*
X113708000Y-57884000D02*
X118096000Y-57884000D01*
X106457000Y-57844000D02*
X110828000Y-57844000D01*
X113708000Y-57844000D02*
X118079000Y-57844000D01*
X106475000Y-57804000D02*
X110828000Y-57804000D01*
X113708000Y-57804000D02*
X118061000Y-57804000D01*
X106492000Y-57764000D02*
X110828000Y-57764000D01*
X113708000Y-57764000D02*
X118044000Y-57764000D01*
X106510000Y-57724000D02*
X110828000Y-57724000D01*
X113708000Y-57724000D02*
X118026000Y-57724000D01*
X106529000Y-57684000D02*
X110828000Y-57684000D01*
X113708000Y-57684000D02*
X118007000Y-57684000D01*
X106547000Y-57644000D02*
X110828000Y-57644000D01*
X113708000Y-57644000D02*
X117989000Y-57644000D01*
X106566000Y-57604000D02*
X110828000Y-57604000D01*
X113708000Y-57604000D02*
X117970000Y-57604000D01*
X106586000Y-57564000D02*
X110828000Y-57564000D01*
X113708000Y-57564000D02*
X117950000Y-57564000D01*
X106606000Y-57524000D02*
X110828000Y-57524000D01*
X113708000Y-57524000D02*
X117930000Y-57524000D01*
X106626000Y-57484000D02*
X110828000Y-57484000D01*
X113708000Y-57484000D02*
X117910000Y-57484000D01*
X106646000Y-57444000D02*
X110828000Y-57444000D01*
X113708000Y-57444000D02*
X117890000Y-57444000D01*
X106667000Y-57404000D02*
X110828000Y-57404000D01*
X113708000Y-57404000D02*
X117869000Y-57404000D01*
X106688000Y-57364000D02*
X110828000Y-57364000D01*
X113708000Y-57364000D02*
X117848000Y-57364000D01*
X106710000Y-57324000D02*
X110828000Y-57324000D01*
X113708000Y-57324000D02*
X117826000Y-57324000D01*
X106732000Y-57284000D02*
X110828000Y-57284000D01*
X113708000Y-57284000D02*
X117804000Y-57284000D01*
X106754000Y-57244000D02*
X110828000Y-57244000D01*
X113708000Y-57244000D02*
X117782000Y-57244000D01*
X106777000Y-57204000D02*
X110828000Y-57204000D01*
X113708000Y-57204000D02*
X117759000Y-57204000D01*
X106800000Y-57164000D02*
X110828000Y-57164000D01*
X113708000Y-57164000D02*
X117736000Y-57164000D01*
X106823000Y-57124000D02*
X110828000Y-57124000D01*
X113708000Y-57124000D02*
X117713000Y-57124000D01*
X106847000Y-57084000D02*
X110828000Y-57084000D01*
X113708000Y-57084000D02*
X117689000Y-57084000D01*
X106871000Y-57044000D02*
X110828000Y-57044000D01*
X113708000Y-57044000D02*
X117665000Y-57044000D01*
X106896000Y-57004000D02*
X110828000Y-57004000D01*
X113708000Y-57004000D02*
X117640000Y-57004000D01*
X106921000Y-56964000D02*
X110828000Y-56964000D01*
X113708000Y-56964000D02*
X117615000Y-56964000D01*
X106946000Y-56924000D02*
X110828000Y-56924000D01*
X113708000Y-56924000D02*
X117590000Y-56924000D01*
X106972000Y-56884000D02*
X110828000Y-56884000D01*
X113708000Y-56884000D02*
X117564000Y-56884000D01*
X106998000Y-56844000D02*
X110828000Y-56844000D01*
X113708000Y-56844000D02*
X117538000Y-56844000D01*
X107025000Y-56804000D02*
X110828000Y-56804000D01*
X113708000Y-56804000D02*
X117511000Y-56804000D01*
X107052000Y-56764000D02*
X110828000Y-56764000D01*
X113708000Y-56764000D02*
X117484000Y-56764000D01*
X107080000Y-56724000D02*
X110828000Y-56724000D01*
X113708000Y-56724000D02*
X117456000Y-56724000D01*
X107108000Y-56684000D02*
X110828000Y-56684000D01*
X113708000Y-56684000D02*
X117428000Y-56684000D01*
X107137000Y-56644000D02*
X110828000Y-56644000D01*
X113708000Y-56644000D02*
X117399000Y-56644000D01*
X107166000Y-56604000D02*
X110828000Y-56604000D01*
X113708000Y-56604000D02*
X117370000Y-56604000D01*
X107195000Y-56564000D02*
X110828000Y-56564000D01*
X113708000Y-56564000D02*
X117341000Y-56564000D01*
X107225000Y-56524000D02*
X110828000Y-56524000D01*
X113708000Y-56524000D02*
X117311000Y-56524000D01*
X107256000Y-56484000D02*
X110828000Y-56484000D01*
X113708000Y-56484000D02*
X117280000Y-56484000D01*
X107286000Y-56444000D02*
X110828000Y-56444000D01*
X113708000Y-56444000D02*
X117250000Y-56444000D01*
X107318000Y-56404000D02*
X117218000Y-56404000D01*
X107350000Y-56364000D02*
X117186000Y-56364000D01*
X107383000Y-56324000D02*
X117153000Y-56324000D01*
X107416000Y-56284000D02*
X117120000Y-56284000D01*
X107449000Y-56244000D02*
X117087000Y-56244000D01*
X107483000Y-56204000D02*
X117053000Y-56204000D01*
X107518000Y-56164000D02*
X117018000Y-56164000D01*
X107554000Y-56124000D02*
X116982000Y-56124000D01*
X107590000Y-56084000D02*
X116946000Y-56084000D01*
X107626000Y-56044000D02*
X116910000Y-56044000D01*
X107663000Y-56004000D02*
X116873000Y-56004000D01*
X107701000Y-55964000D02*
X116835000Y-55964000D01*
X107740000Y-55924000D02*
X116796000Y-55924000D01*
X107779000Y-55884000D02*
X116757000Y-55884000D01*
X107819000Y-55844000D02*
X116717000Y-55844000D01*
X107860000Y-55804000D02*
X116676000Y-55804000D01*
X107901000Y-55764000D02*
X116635000Y-55764000D01*
X107943000Y-55724000D02*
X116593000Y-55724000D01*
X107986000Y-55684000D02*
X116550000Y-55684000D01*
X108030000Y-55644000D02*
X116506000Y-55644000D01*
X108074000Y-55604000D02*
X116462000Y-55604000D01*
X108120000Y-55564000D02*
X116416000Y-55564000D01*
X108166000Y-55524000D02*
X116370000Y-55524000D01*
X108213000Y-55484000D02*
X116323000Y-55484000D01*
X108261000Y-55444000D02*
X116275000Y-55444000D01*
X108311000Y-55404000D02*
X116225000Y-55404000D01*
X108361000Y-55364000D02*
X116175000Y-55364000D01*
X108412000Y-55324000D02*
X116124000Y-55324000D01*
X108464000Y-55284000D02*
X116072000Y-55284000D01*
X108518000Y-55244000D02*
X116018000Y-55244000D01*
X108572000Y-55204000D02*
X115964000Y-55204000D01*
X108628000Y-55164000D02*
X115908000Y-55164000D01*
X108685000Y-55124000D02*
X115851000Y-55124000D01*
X108744000Y-55084000D02*
X115792000Y-55084000D01*
X108804000Y-55044000D02*
X115732000Y-55044000D01*
X108866000Y-55004000D02*
X115670000Y-55004000D01*
X108929000Y-54964000D02*
X115607000Y-54964000D01*
X108993000Y-54924000D02*
X115543000Y-54924000D01*
X109060000Y-54884000D02*
X115476000Y-54884000D01*
X109128000Y-54844000D02*
X115408000Y-54844000D01*
X109199000Y-54804000D02*
X115337000Y-54804000D01*
X109272000Y-54764000D02*
X115264000Y-54764000D01*
X109347000Y-54724000D02*
X115189000Y-54724000D01*
X109424000Y-54684000D02*
X115112000Y-54684000D01*
X109504000Y-54644000D02*
X115032000Y-54644000D01*
X109587000Y-54604000D02*
X114949000Y-54604000D01*
X109674000Y-54564000D02*
X114862000Y-54564000D01*
X109764000Y-54524000D02*
X114772000Y-54524000D01*
X109858000Y-54484000D02*
X114678000Y-54484000D01*
X109956000Y-54444000D02*
X114580000Y-54444000D01*
X110059000Y-54404000D02*
X114477000Y-54404000D01*
X110168000Y-54364000D02*
X114368000Y-54364000D01*
X110284000Y-54324000D02*
X114252000Y-54324000D01*
X110407000Y-54284000D02*
X114129000Y-54284000D01*
X110540000Y-54244000D02*
X113996000Y-54244000D01*
X110685000Y-54204000D02*
X113851000Y-54204000D01*
X110846000Y-54164000D02*
X113690000Y-54164000D01*
X111027000Y-54124000D02*
X113509000Y-54124000D01*
X111240000Y-54084000D02*
X113296000Y-54084000D01*
X111511000Y-54044000D02*
X113025000Y-54044000D01*
X111951000Y-54004000D02*
X112585000Y-54004000D01*
X108693000Y-67182082D02*
X108693000Y-65932082D01*
X108068000Y-66557082D02*
X109318000Y-66557082D01*
%TO.C,C9*%
X108068000Y-85607082D02*
X109318000Y-85607082D01*
X108693000Y-86232082D02*
X108693000Y-84982082D01*
X111951000Y-73054000D02*
X112585000Y-73054000D01*
X111511000Y-73094000D02*
X113025000Y-73094000D01*
X111240000Y-73134000D02*
X113296000Y-73134000D01*
X111027000Y-73174000D02*
X113509000Y-73174000D01*
X110846000Y-73214000D02*
X113690000Y-73214000D01*
X110685000Y-73254000D02*
X113851000Y-73254000D01*
X110540000Y-73294000D02*
X113996000Y-73294000D01*
X110407000Y-73334000D02*
X114129000Y-73334000D01*
X110284000Y-73374000D02*
X114252000Y-73374000D01*
X110168000Y-73414000D02*
X114368000Y-73414000D01*
X110059000Y-73454000D02*
X114477000Y-73454000D01*
X109956000Y-73494000D02*
X114580000Y-73494000D01*
X109858000Y-73534000D02*
X114678000Y-73534000D01*
X109764000Y-73574000D02*
X114772000Y-73574000D01*
X109674000Y-73614000D02*
X114862000Y-73614000D01*
X109587000Y-73654000D02*
X114949000Y-73654000D01*
X109504000Y-73694000D02*
X115032000Y-73694000D01*
X109424000Y-73734000D02*
X115112000Y-73734000D01*
X109347000Y-73774000D02*
X115189000Y-73774000D01*
X109272000Y-73814000D02*
X115264000Y-73814000D01*
X109199000Y-73854000D02*
X115337000Y-73854000D01*
X109128000Y-73894000D02*
X115408000Y-73894000D01*
X109060000Y-73934000D02*
X115476000Y-73934000D01*
X108993000Y-73974000D02*
X115543000Y-73974000D01*
X108929000Y-74014000D02*
X115607000Y-74014000D01*
X108866000Y-74054000D02*
X115670000Y-74054000D01*
X108804000Y-74094000D02*
X115732000Y-74094000D01*
X108744000Y-74134000D02*
X115792000Y-74134000D01*
X108685000Y-74174000D02*
X115851000Y-74174000D01*
X108628000Y-74214000D02*
X115908000Y-74214000D01*
X108572000Y-74254000D02*
X115964000Y-74254000D01*
X108518000Y-74294000D02*
X116018000Y-74294000D01*
X108464000Y-74334000D02*
X116072000Y-74334000D01*
X108412000Y-74374000D02*
X116124000Y-74374000D01*
X108361000Y-74414000D02*
X116175000Y-74414000D01*
X108311000Y-74454000D02*
X116225000Y-74454000D01*
X108261000Y-74494000D02*
X116275000Y-74494000D01*
X108213000Y-74534000D02*
X116323000Y-74534000D01*
X108166000Y-74574000D02*
X116370000Y-74574000D01*
X108120000Y-74614000D02*
X116416000Y-74614000D01*
X108074000Y-74654000D02*
X116462000Y-74654000D01*
X108030000Y-74694000D02*
X116506000Y-74694000D01*
X107986000Y-74734000D02*
X116550000Y-74734000D01*
X107943000Y-74774000D02*
X116593000Y-74774000D01*
X107901000Y-74814000D02*
X116635000Y-74814000D01*
X107860000Y-74854000D02*
X116676000Y-74854000D01*
X107819000Y-74894000D02*
X116717000Y-74894000D01*
X107779000Y-74934000D02*
X116757000Y-74934000D01*
X107740000Y-74974000D02*
X116796000Y-74974000D01*
X107701000Y-75014000D02*
X116835000Y-75014000D01*
X107663000Y-75054000D02*
X116873000Y-75054000D01*
X107626000Y-75094000D02*
X116910000Y-75094000D01*
X107590000Y-75134000D02*
X116946000Y-75134000D01*
X107554000Y-75174000D02*
X116982000Y-75174000D01*
X107518000Y-75214000D02*
X117018000Y-75214000D01*
X107483000Y-75254000D02*
X117053000Y-75254000D01*
X107449000Y-75294000D02*
X117087000Y-75294000D01*
X107416000Y-75334000D02*
X117120000Y-75334000D01*
X107383000Y-75374000D02*
X117153000Y-75374000D01*
X107350000Y-75414000D02*
X117186000Y-75414000D01*
X107318000Y-75454000D02*
X117218000Y-75454000D01*
X113708000Y-75494000D02*
X117250000Y-75494000D01*
X107286000Y-75494000D02*
X110828000Y-75494000D01*
X113708000Y-75534000D02*
X117280000Y-75534000D01*
X107256000Y-75534000D02*
X110828000Y-75534000D01*
X113708000Y-75574000D02*
X117311000Y-75574000D01*
X107225000Y-75574000D02*
X110828000Y-75574000D01*
X113708000Y-75614000D02*
X117341000Y-75614000D01*
X107195000Y-75614000D02*
X110828000Y-75614000D01*
X113708000Y-75654000D02*
X117370000Y-75654000D01*
X107166000Y-75654000D02*
X110828000Y-75654000D01*
X113708000Y-75694000D02*
X117399000Y-75694000D01*
X107137000Y-75694000D02*
X110828000Y-75694000D01*
X113708000Y-75734000D02*
X117428000Y-75734000D01*
X107108000Y-75734000D02*
X110828000Y-75734000D01*
X113708000Y-75774000D02*
X117456000Y-75774000D01*
X107080000Y-75774000D02*
X110828000Y-75774000D01*
X113708000Y-75814000D02*
X117484000Y-75814000D01*
X107052000Y-75814000D02*
X110828000Y-75814000D01*
X113708000Y-75854000D02*
X117511000Y-75854000D01*
X107025000Y-75854000D02*
X110828000Y-75854000D01*
X113708000Y-75894000D02*
X117538000Y-75894000D01*
X106998000Y-75894000D02*
X110828000Y-75894000D01*
X113708000Y-75934000D02*
X117564000Y-75934000D01*
X106972000Y-75934000D02*
X110828000Y-75934000D01*
X113708000Y-75974000D02*
X117590000Y-75974000D01*
X106946000Y-75974000D02*
X110828000Y-75974000D01*
X113708000Y-76014000D02*
X117615000Y-76014000D01*
X106921000Y-76014000D02*
X110828000Y-76014000D01*
X113708000Y-76054000D02*
X117640000Y-76054000D01*
X106896000Y-76054000D02*
X110828000Y-76054000D01*
X113708000Y-76094000D02*
X117665000Y-76094000D01*
X106871000Y-76094000D02*
X110828000Y-76094000D01*
X113708000Y-76134000D02*
X117689000Y-76134000D01*
X106847000Y-76134000D02*
X110828000Y-76134000D01*
X113708000Y-76174000D02*
X117713000Y-76174000D01*
X106823000Y-76174000D02*
X110828000Y-76174000D01*
X113708000Y-76214000D02*
X117736000Y-76214000D01*
X106800000Y-76214000D02*
X110828000Y-76214000D01*
X113708000Y-76254000D02*
X117759000Y-76254000D01*
X106777000Y-76254000D02*
X110828000Y-76254000D01*
X113708000Y-76294000D02*
X117782000Y-76294000D01*
X106754000Y-76294000D02*
X110828000Y-76294000D01*
X113708000Y-76334000D02*
X117804000Y-76334000D01*
X106732000Y-76334000D02*
X110828000Y-76334000D01*
X113708000Y-76374000D02*
X117826000Y-76374000D01*
X106710000Y-76374000D02*
X110828000Y-76374000D01*
X113708000Y-76414000D02*
X117848000Y-76414000D01*
X106688000Y-76414000D02*
X110828000Y-76414000D01*
X113708000Y-76454000D02*
X117869000Y-76454000D01*
X106667000Y-76454000D02*
X110828000Y-76454000D01*
X113708000Y-76494000D02*
X117890000Y-76494000D01*
X106646000Y-76494000D02*
X110828000Y-76494000D01*
X113708000Y-76534000D02*
X117910000Y-76534000D01*
X106626000Y-76534000D02*
X110828000Y-76534000D01*
X113708000Y-76574000D02*
X117930000Y-76574000D01*
X106606000Y-76574000D02*
X110828000Y-76574000D01*
X113708000Y-76614000D02*
X117950000Y-76614000D01*
X106586000Y-76614000D02*
X110828000Y-76614000D01*
X113708000Y-76654000D02*
X117970000Y-76654000D01*
X106566000Y-76654000D02*
X110828000Y-76654000D01*
X113708000Y-76694000D02*
X117989000Y-76694000D01*
X106547000Y-76694000D02*
X110828000Y-76694000D01*
X113708000Y-76734000D02*
X118007000Y-76734000D01*
X106529000Y-76734000D02*
X110828000Y-76734000D01*
X113708000Y-76774000D02*
X118026000Y-76774000D01*
X106510000Y-76774000D02*
X110828000Y-76774000D01*
X113708000Y-76814000D02*
X118044000Y-76814000D01*
X106492000Y-76814000D02*
X110828000Y-76814000D01*
X113708000Y-76854000D02*
X118061000Y-76854000D01*
X106475000Y-76854000D02*
X110828000Y-76854000D01*
X113708000Y-76894000D02*
X118079000Y-76894000D01*
X106457000Y-76894000D02*
X110828000Y-76894000D01*
X113708000Y-76934000D02*
X118096000Y-76934000D01*
X106440000Y-76934000D02*
X110828000Y-76934000D01*
X113708000Y-76974000D02*
X118113000Y-76974000D01*
X106423000Y-76974000D02*
X110828000Y-76974000D01*
X113708000Y-77014000D02*
X118129000Y-77014000D01*
X106407000Y-77014000D02*
X110828000Y-77014000D01*
X113708000Y-77054000D02*
X118145000Y-77054000D01*
X106391000Y-77054000D02*
X110828000Y-77054000D01*
X113708000Y-77094000D02*
X118161000Y-77094000D01*
X106375000Y-77094000D02*
X110828000Y-77094000D01*
X113708000Y-77134000D02*
X118176000Y-77134000D01*
X106360000Y-77134000D02*
X110828000Y-77134000D01*
X113708000Y-77174000D02*
X118192000Y-77174000D01*
X106344000Y-77174000D02*
X110828000Y-77174000D01*
X113708000Y-77214000D02*
X118207000Y-77214000D01*
X106329000Y-77214000D02*
X110828000Y-77214000D01*
X113708000Y-77254000D02*
X118221000Y-77254000D01*
X106315000Y-77254000D02*
X110828000Y-77254000D01*
X113708000Y-77294000D02*
X118235000Y-77294000D01*
X106301000Y-77294000D02*
X110828000Y-77294000D01*
X113708000Y-77334000D02*
X118249000Y-77334000D01*
X106287000Y-77334000D02*
X110828000Y-77334000D01*
X113708000Y-77374000D02*
X118263000Y-77374000D01*
X106273000Y-77374000D02*
X110828000Y-77374000D01*
X113708000Y-77414000D02*
X118276000Y-77414000D01*
X106260000Y-77414000D02*
X110828000Y-77414000D01*
X113708000Y-77454000D02*
X118289000Y-77454000D01*
X106247000Y-77454000D02*
X110828000Y-77454000D01*
X113708000Y-77494000D02*
X118302000Y-77494000D01*
X106234000Y-77494000D02*
X110828000Y-77494000D01*
X113708000Y-77534000D02*
X118315000Y-77534000D01*
X106221000Y-77534000D02*
X110828000Y-77534000D01*
X113708000Y-77574000D02*
X118327000Y-77574000D01*
X106209000Y-77574000D02*
X110828000Y-77574000D01*
X113708000Y-77614000D02*
X118339000Y-77614000D01*
X106197000Y-77614000D02*
X110828000Y-77614000D01*
X113708000Y-77654000D02*
X118351000Y-77654000D01*
X106185000Y-77654000D02*
X110828000Y-77654000D01*
X113708000Y-77694000D02*
X118362000Y-77694000D01*
X106174000Y-77694000D02*
X110828000Y-77694000D01*
X113708000Y-77734000D02*
X118373000Y-77734000D01*
X106163000Y-77734000D02*
X110828000Y-77734000D01*
X113708000Y-77774000D02*
X118384000Y-77774000D01*
X106152000Y-77774000D02*
X110828000Y-77774000D01*
X113708000Y-77814000D02*
X118394000Y-77814000D01*
X106142000Y-77814000D02*
X110828000Y-77814000D01*
X113708000Y-77854000D02*
X118405000Y-77854000D01*
X106131000Y-77854000D02*
X110828000Y-77854000D01*
X113708000Y-77894000D02*
X118414000Y-77894000D01*
X106122000Y-77894000D02*
X110828000Y-77894000D01*
X113708000Y-77934000D02*
X118424000Y-77934000D01*
X106112000Y-77934000D02*
X110828000Y-77934000D01*
X113708000Y-77974000D02*
X118434000Y-77974000D01*
X106102000Y-77974000D02*
X110828000Y-77974000D01*
X113708000Y-78014000D02*
X118443000Y-78014000D01*
X106093000Y-78014000D02*
X110828000Y-78014000D01*
X113708000Y-78054000D02*
X118452000Y-78054000D01*
X106084000Y-78054000D02*
X110828000Y-78054000D01*
X113708000Y-78094000D02*
X118460000Y-78094000D01*
X106076000Y-78094000D02*
X110828000Y-78094000D01*
X113708000Y-78134000D02*
X118469000Y-78134000D01*
X106067000Y-78134000D02*
X110828000Y-78134000D01*
X113708000Y-78174000D02*
X118477000Y-78174000D01*
X106059000Y-78174000D02*
X110828000Y-78174000D01*
X113708000Y-78214000D02*
X118484000Y-78214000D01*
X106052000Y-78214000D02*
X110828000Y-78214000D01*
X113708000Y-78254000D02*
X118492000Y-78254000D01*
X106044000Y-78254000D02*
X110828000Y-78254000D01*
X113708000Y-78294000D02*
X118499000Y-78294000D01*
X106037000Y-78294000D02*
X110828000Y-78294000D01*
X113708000Y-78334000D02*
X118506000Y-78334000D01*
X106030000Y-78334000D02*
X110828000Y-78334000D01*
X106023000Y-78374000D02*
X118513000Y-78374000D01*
X106016000Y-78414000D02*
X118520000Y-78414000D01*
X106010000Y-78454000D02*
X118526000Y-78454000D01*
X106004000Y-78494000D02*
X118532000Y-78494000D01*
X105999000Y-78534000D02*
X118537000Y-78534000D01*
X105993000Y-78574000D02*
X118543000Y-78574000D01*
X105988000Y-78614000D02*
X118548000Y-78614000D01*
X105983000Y-78654000D02*
X118553000Y-78654000D01*
X105978000Y-78694000D02*
X118558000Y-78694000D01*
X105974000Y-78735000D02*
X118562000Y-78735000D01*
X105970000Y-78775000D02*
X118566000Y-78775000D01*
X105966000Y-78815000D02*
X118570000Y-78815000D01*
X105962000Y-78855000D02*
X118574000Y-78855000D01*
X105959000Y-78895000D02*
X118577000Y-78895000D01*
X105956000Y-78935000D02*
X118580000Y-78935000D01*
X105953000Y-78975000D02*
X118583000Y-78975000D01*
X105950000Y-79015000D02*
X118586000Y-79015000D01*
X105948000Y-79055000D02*
X118588000Y-79055000D01*
X105946000Y-79095000D02*
X118590000Y-79095000D01*
X105944000Y-79135000D02*
X118592000Y-79135000D01*
X105942000Y-79175000D02*
X118594000Y-79175000D01*
X105941000Y-79215000D02*
X118595000Y-79215000D01*
X105940000Y-79255000D02*
X118596000Y-79255000D01*
X105939000Y-79295000D02*
X118597000Y-79295000D01*
X105938000Y-79335000D02*
X118598000Y-79335000D01*
X105938000Y-79375000D02*
X118598000Y-79375000D01*
X105938000Y-79415000D02*
X118598000Y-79415000D01*
X118638000Y-79415000D02*
G75*
G03*
X118638000Y-79415000I-6370000J0D01*
G01*
%TO.C,F1*%
X91165000Y-32120545D02*
X91165000Y-33101455D01*
X92985000Y-32120545D02*
X92985000Y-33101455D01*
%TO.C,J5*%
X90745000Y-24765000D02*
X90745000Y-23435000D01*
X90745000Y-23435000D02*
X92075000Y-23435000D01*
X93345000Y-23435000D02*
X95945000Y-23435000D01*
X95945000Y-26095000D02*
X95945000Y-23435000D01*
X93345000Y-26095000D02*
X95945000Y-26095000D01*
X93345000Y-26095000D02*
X93345000Y-23435000D01*
D12*
%TO.C,U5*%
X101674000Y-70830000D02*
X101674000Y-70170000D01*
X103459000Y-71300000D02*
X102789000Y-71300000D01*
X104574000Y-70170000D02*
X104574000Y-70830000D01*
D13*
X104274000Y-68090000D02*
G75*
G03*
X104274000Y-68090000I-100000J0D01*
G01*
%TO.C,U6*%
X104274000Y-86490000D02*
G75*
G03*
X104274000Y-86490000I-100000J0D01*
G01*
D12*
X104574000Y-88570000D02*
X104574000Y-89230000D01*
X103459000Y-89700000D02*
X102789000Y-89700000D01*
X101674000Y-89230000D02*
X101674000Y-88570000D01*
D13*
%TO.C,U7*%
X104274000Y-50930000D02*
G75*
G03*
X104274000Y-50930000I-100000J0D01*
G01*
D12*
X104574000Y-53010000D02*
X104574000Y-53670000D01*
X103459000Y-54140000D02*
X102789000Y-54140000D01*
X101674000Y-53670000D02*
X101674000Y-53010000D01*
%TO.C,U8*%
X35255000Y-66220000D02*
X34595000Y-66220000D01*
X35725000Y-64435000D02*
X35725000Y-65105000D01*
X34595000Y-63320000D02*
X35255000Y-63320000D01*
D13*
X32615000Y-63720000D02*
G75*
G03*
X32615000Y-63720000I-100000J0D01*
G01*
D11*
%TO.C,M2_VCC*%
X121920000Y-56455000D02*
X123250000Y-56455000D01*
X123250000Y-56455000D02*
X123250000Y-57785000D01*
X123250000Y-58995000D02*
X123250000Y-59115000D01*
X120590000Y-58995000D02*
X120590000Y-59115000D01*
X120590000Y-59115000D02*
X123250000Y-59115000D01*
%TO.C,M3_VCC*%
X121225000Y-78800000D02*
X123885000Y-78800000D01*
X121225000Y-78680000D02*
X121225000Y-78800000D01*
X123885000Y-78680000D02*
X123885000Y-78800000D01*
X123885000Y-76140000D02*
X123885000Y-77470000D01*
X122555000Y-76140000D02*
X123885000Y-76140000D01*
%TO.C,M1_VCC*%
X119955000Y-39430000D02*
X122615000Y-39430000D01*
X119955000Y-39310000D02*
X119955000Y-39430000D01*
X122615000Y-39310000D02*
X122615000Y-39430000D01*
X122615000Y-36770000D02*
X122615000Y-38100000D01*
X121285000Y-36770000D02*
X122615000Y-36770000D01*
%TO.C,D1*%
X104172000Y-49493000D02*
X104172000Y-46773000D01*
X104172000Y-46773000D02*
X99192000Y-46773000D01*
X104172000Y-49493000D02*
X99192000Y-49493000D01*
%TO.C,D2*%
X104131000Y-66765000D02*
X104131000Y-64045000D01*
X104131000Y-64045000D02*
X99151000Y-64045000D01*
X104131000Y-66765000D02*
X99151000Y-66765000D01*
%TO.C,D3*%
X104004000Y-84545000D02*
X99024000Y-84545000D01*
X104004000Y-81825000D02*
X99024000Y-81825000D01*
X104004000Y-84545000D02*
X104004000Y-81825000D01*
%TO.C,D7*%
X102354000Y-33861000D02*
X102354000Y-29976000D01*
X102354000Y-29976000D02*
X100084000Y-29976000D01*
X100084000Y-29976000D02*
X100084000Y-33861000D01*
%TO.C,R7*%
X100309000Y-37811064D02*
X100309000Y-36356936D01*
X102129000Y-37811064D02*
X102129000Y-36356936D01*
%TO.C,C11*%
X73385000Y-88188748D02*
X73385000Y-89611252D01*
X75205000Y-88188748D02*
X75205000Y-89611252D01*
%TO.C,C10*%
X75925000Y-65911252D02*
X75925000Y-64488748D01*
X77745000Y-65911252D02*
X77745000Y-64488748D01*
%TO.C,C12*%
X75205000Y-46861252D02*
X75205000Y-45438748D01*
X73385000Y-46861252D02*
X73385000Y-45438748D01*
%TO.C,C1*%
D14*
X84359142Y-46951666D02*
X84406761Y-46999285D01*
X84454380Y-47142142D01*
X84454380Y-47237380D01*
X84406761Y-47380238D01*
X84311523Y-47475476D01*
X84216285Y-47523095D01*
X84025809Y-47570714D01*
X83882952Y-47570714D01*
X83692476Y-47523095D01*
X83597238Y-47475476D01*
X83502000Y-47380238D01*
X83454380Y-47237380D01*
X83454380Y-47142142D01*
X83502000Y-46999285D01*
X83549619Y-46951666D01*
X84454380Y-45999285D02*
X84454380Y-46570714D01*
X84454380Y-46285000D02*
X83454380Y-46285000D01*
X83597238Y-46380238D01*
X83692476Y-46475476D01*
X83740095Y-46570714D01*
%TO.C,C2*%
X97512142Y-56681666D02*
X97559761Y-56729285D01*
X97607380Y-56872142D01*
X97607380Y-56967380D01*
X97559761Y-57110238D01*
X97464523Y-57205476D01*
X97369285Y-57253095D01*
X97178809Y-57300714D01*
X97035952Y-57300714D01*
X96845476Y-57253095D01*
X96750238Y-57205476D01*
X96655000Y-57110238D01*
X96607380Y-56967380D01*
X96607380Y-56872142D01*
X96655000Y-56729285D01*
X96702619Y-56681666D01*
X96702619Y-56300714D02*
X96655000Y-56253095D01*
X96607380Y-56157857D01*
X96607380Y-55919761D01*
X96655000Y-55824523D01*
X96702619Y-55776904D01*
X96797857Y-55729285D01*
X96893095Y-55729285D01*
X97035952Y-55776904D01*
X97607380Y-56348333D01*
X97607380Y-55729285D01*
%TO.C,C3*%
X99417142Y-92622666D02*
X99464761Y-92670285D01*
X99512380Y-92813142D01*
X99512380Y-92908380D01*
X99464761Y-93051238D01*
X99369523Y-93146476D01*
X99274285Y-93194095D01*
X99083809Y-93241714D01*
X98940952Y-93241714D01*
X98750476Y-93194095D01*
X98655238Y-93146476D01*
X98560000Y-93051238D01*
X98512380Y-92908380D01*
X98512380Y-92813142D01*
X98560000Y-92670285D01*
X98607619Y-92622666D01*
X98512380Y-92289333D02*
X98512380Y-91670285D01*
X98893333Y-92003619D01*
X98893333Y-91860761D01*
X98940952Y-91765523D01*
X98988571Y-91717904D01*
X99083809Y-91670285D01*
X99321904Y-91670285D01*
X99417142Y-91717904D01*
X99464761Y-91765523D01*
X99512380Y-91860761D01*
X99512380Y-92146476D01*
X99464761Y-92241714D01*
X99417142Y-92289333D01*
%TO.C,C4*%
X100687142Y-74461666D02*
X100734761Y-74509285D01*
X100782380Y-74652142D01*
X100782380Y-74747380D01*
X100734761Y-74890238D01*
X100639523Y-74985476D01*
X100544285Y-75033095D01*
X100353809Y-75080714D01*
X100210952Y-75080714D01*
X100020476Y-75033095D01*
X99925238Y-74985476D01*
X99830000Y-74890238D01*
X99782380Y-74747380D01*
X99782380Y-74652142D01*
X99830000Y-74509285D01*
X99877619Y-74461666D01*
X100115714Y-73604523D02*
X100782380Y-73604523D01*
X99734761Y-73842619D02*
X100449047Y-74080714D01*
X100449047Y-73461666D01*
%TO.C,C5*%
X84359142Y-64936666D02*
X84406761Y-64984285D01*
X84454380Y-65127142D01*
X84454380Y-65222380D01*
X84406761Y-65365238D01*
X84311523Y-65460476D01*
X84216285Y-65508095D01*
X84025809Y-65555714D01*
X83882952Y-65555714D01*
X83692476Y-65508095D01*
X83597238Y-65460476D01*
X83502000Y-65365238D01*
X83454380Y-65222380D01*
X83454380Y-65127142D01*
X83502000Y-64984285D01*
X83549619Y-64936666D01*
X83454380Y-64031904D02*
X83454380Y-64508095D01*
X83930571Y-64555714D01*
X83882952Y-64508095D01*
X83835333Y-64412857D01*
X83835333Y-64174761D01*
X83882952Y-64079523D01*
X83930571Y-64031904D01*
X84025809Y-63984285D01*
X84263904Y-63984285D01*
X84359142Y-64031904D01*
X84406761Y-64079523D01*
X84454380Y-64174761D01*
X84454380Y-64412857D01*
X84406761Y-64508095D01*
X84359142Y-64555714D01*
%TO.C,C6*%
X84359142Y-82462666D02*
X84406761Y-82510285D01*
X84454380Y-82653142D01*
X84454380Y-82748380D01*
X84406761Y-82891238D01*
X84311523Y-82986476D01*
X84216285Y-83034095D01*
X84025809Y-83081714D01*
X83882952Y-83081714D01*
X83692476Y-83034095D01*
X83597238Y-82986476D01*
X83502000Y-82891238D01*
X83454380Y-82748380D01*
X83454380Y-82653142D01*
X83502000Y-82510285D01*
X83549619Y-82462666D01*
X83454380Y-81605523D02*
X83454380Y-81796000D01*
X83502000Y-81891238D01*
X83549619Y-81938857D01*
X83692476Y-82034095D01*
X83882952Y-82081714D01*
X84263904Y-82081714D01*
X84359142Y-82034095D01*
X84406761Y-81986476D01*
X84454380Y-81891238D01*
X84454380Y-81700761D01*
X84406761Y-81605523D01*
X84359142Y-81557904D01*
X84263904Y-81510285D01*
X84025809Y-81510285D01*
X83930571Y-81557904D01*
X83882952Y-81605523D01*
X83835333Y-81700761D01*
X83835333Y-81891238D01*
X83882952Y-81986476D01*
X83930571Y-82034095D01*
X84025809Y-82081714D01*
%TO.C,J1*%
X130730666Y-39354380D02*
X130730666Y-40068666D01*
X130683047Y-40211523D01*
X130587809Y-40306761D01*
X130444952Y-40354380D01*
X130349714Y-40354380D01*
X131730666Y-40354380D02*
X131159238Y-40354380D01*
X131444952Y-40354380D02*
X131444952Y-39354380D01*
X131349714Y-39497238D01*
X131254476Y-39592476D01*
X131159238Y-39640095D01*
%TO.C,J2*%
X130730666Y-58658380D02*
X130730666Y-59372666D01*
X130683047Y-59515523D01*
X130587809Y-59610761D01*
X130444952Y-59658380D01*
X130349714Y-59658380D01*
X131159238Y-58753619D02*
X131206857Y-58706000D01*
X131302095Y-58658380D01*
X131540190Y-58658380D01*
X131635428Y-58706000D01*
X131683047Y-58753619D01*
X131730666Y-58848857D01*
X131730666Y-58944095D01*
X131683047Y-59086952D01*
X131111619Y-59658380D01*
X131730666Y-59658380D01*
%TO.C,J3*%
X130730666Y-77962380D02*
X130730666Y-78676666D01*
X130683047Y-78819523D01*
X130587809Y-78914761D01*
X130444952Y-78962380D01*
X130349714Y-78962380D01*
X131111619Y-77962380D02*
X131730666Y-77962380D01*
X131397333Y-78343333D01*
X131540190Y-78343333D01*
X131635428Y-78390952D01*
X131683047Y-78438571D01*
X131730666Y-78533809D01*
X131730666Y-78771904D01*
X131683047Y-78867142D01*
X131635428Y-78914761D01*
X131540190Y-78962380D01*
X131254476Y-78962380D01*
X131159238Y-78914761D01*
X131111619Y-78867142D01*
%TO.C,J4*%
X26082666Y-53070380D02*
X26082666Y-53784666D01*
X26035047Y-53927523D01*
X25939809Y-54022761D01*
X25796952Y-54070380D01*
X25701714Y-54070380D01*
X26987428Y-53403714D02*
X26987428Y-54070380D01*
X26749333Y-53022761D02*
X26511238Y-53737047D01*
X27130285Y-53737047D01*
%TO.C,R1*%
X103592333Y-45664380D02*
X103259000Y-45188190D01*
X103020904Y-45664380D02*
X103020904Y-44664380D01*
X103401857Y-44664380D01*
X103497095Y-44712000D01*
X103544714Y-44759619D01*
X103592333Y-44854857D01*
X103592333Y-44997714D01*
X103544714Y-45092952D01*
X103497095Y-45140571D01*
X103401857Y-45188190D01*
X103020904Y-45188190D01*
X104544714Y-45664380D02*
X103973285Y-45664380D01*
X104259000Y-45664380D02*
X104259000Y-44664380D01*
X104163761Y-44807238D01*
X104068523Y-44902476D01*
X103973285Y-44950095D01*
%TO.C,R2*%
X103653833Y-62936380D02*
X103320500Y-62460190D01*
X103082404Y-62936380D02*
X103082404Y-61936380D01*
X103463357Y-61936380D01*
X103558595Y-61984000D01*
X103606214Y-62031619D01*
X103653833Y-62126857D01*
X103653833Y-62269714D01*
X103606214Y-62364952D01*
X103558595Y-62412571D01*
X103463357Y-62460190D01*
X103082404Y-62460190D01*
X104034785Y-62031619D02*
X104082404Y-61984000D01*
X104177642Y-61936380D01*
X104415738Y-61936380D01*
X104510976Y-61984000D01*
X104558595Y-62031619D01*
X104606214Y-62126857D01*
X104606214Y-62222095D01*
X104558595Y-62364952D01*
X103987166Y-62936380D01*
X104606214Y-62936380D01*
%TO.C,R3*%
X96226333Y-80716380D02*
X95893000Y-80240190D01*
X95654904Y-80716380D02*
X95654904Y-79716380D01*
X96035857Y-79716380D01*
X96131095Y-79764000D01*
X96178714Y-79811619D01*
X96226333Y-79906857D01*
X96226333Y-80049714D01*
X96178714Y-80144952D01*
X96131095Y-80192571D01*
X96035857Y-80240190D01*
X95654904Y-80240190D01*
X96559666Y-79716380D02*
X97178714Y-79716380D01*
X96845380Y-80097333D01*
X96988238Y-80097333D01*
X97083476Y-80144952D01*
X97131095Y-80192571D01*
X97178714Y-80287809D01*
X97178714Y-80525904D01*
X97131095Y-80621142D01*
X97083476Y-80668761D01*
X96988238Y-80716380D01*
X96702523Y-80716380D01*
X96607285Y-80668761D01*
X96559666Y-80621142D01*
%TO.C,A1*%
X79295714Y-58586666D02*
X79771904Y-58586666D01*
X79200476Y-58872380D02*
X79533809Y-57872380D01*
X79867142Y-58872380D01*
X80724285Y-58872380D02*
X80152857Y-58872380D01*
X80438571Y-58872380D02*
X80438571Y-57872380D01*
X80343333Y-58015238D01*
X80248095Y-58110476D01*
X80152857Y-58158095D01*
%TO.C,PWM1*%
X123849047Y-53157380D02*
X123849047Y-52157380D01*
X124230000Y-52157380D01*
X124325238Y-52205000D01*
X124372857Y-52252619D01*
X124420476Y-52347857D01*
X124420476Y-52490714D01*
X124372857Y-52585952D01*
X124325238Y-52633571D01*
X124230000Y-52681190D01*
X123849047Y-52681190D01*
X124753809Y-52157380D02*
X124991904Y-53157380D01*
X125182380Y-52443095D01*
X125372857Y-53157380D01*
X125610952Y-52157380D01*
X125991904Y-53157380D02*
X125991904Y-52157380D01*
X126325238Y-52871666D01*
X126658571Y-52157380D01*
X126658571Y-53157380D01*
X127658571Y-53157380D02*
X127087142Y-53157380D01*
X127372857Y-53157380D02*
X127372857Y-52157380D01*
X127277619Y-52300238D01*
X127182380Y-52395476D01*
X127087142Y-52443095D01*
%TO.C,GND*%
X72294845Y-93885000D02*
X72199607Y-93837380D01*
X72056750Y-93837380D01*
X71913892Y-93885000D01*
X71818654Y-93980238D01*
X71771035Y-94075476D01*
X71723416Y-94265952D01*
X71723416Y-94408809D01*
X71771035Y-94599285D01*
X71818654Y-94694523D01*
X71913892Y-94789761D01*
X72056750Y-94837380D01*
X72151988Y-94837380D01*
X72294845Y-94789761D01*
X72342464Y-94742142D01*
X72342464Y-94408809D01*
X72151988Y-94408809D01*
X72771035Y-94837380D02*
X72771035Y-93837380D01*
X73342464Y-94837380D01*
X73342464Y-93837380D01*
X73818654Y-94837380D02*
X73818654Y-93837380D01*
X74056750Y-93837380D01*
X74199607Y-93885000D01*
X74294845Y-93980238D01*
X74342464Y-94075476D01*
X74390083Y-94265952D01*
X74390083Y-94408809D01*
X74342464Y-94599285D01*
X74294845Y-94694523D01*
X74199607Y-94789761D01*
X74056750Y-94837380D01*
X73818654Y-94837380D01*
%TO.C,A2*%
X74215714Y-71691666D02*
X74691904Y-71691666D01*
X74120476Y-71977380D02*
X74453809Y-70977380D01*
X74787142Y-71977380D01*
X75072857Y-71072619D02*
X75120476Y-71025000D01*
X75215714Y-70977380D01*
X75453809Y-70977380D01*
X75549047Y-71025000D01*
X75596666Y-71072619D01*
X75644285Y-71167857D01*
X75644285Y-71263095D01*
X75596666Y-71405952D01*
X75025238Y-71977380D01*
X75644285Y-71977380D01*
%TO.C,PWM2*%
X124484047Y-71572380D02*
X124484047Y-70572380D01*
X124865000Y-70572380D01*
X124960238Y-70620000D01*
X125007857Y-70667619D01*
X125055476Y-70762857D01*
X125055476Y-70905714D01*
X125007857Y-71000952D01*
X124960238Y-71048571D01*
X124865000Y-71096190D01*
X124484047Y-71096190D01*
X125388809Y-70572380D02*
X125626904Y-71572380D01*
X125817380Y-70858095D01*
X126007857Y-71572380D01*
X126245952Y-70572380D01*
X126626904Y-71572380D02*
X126626904Y-70572380D01*
X126960238Y-71286666D01*
X127293571Y-70572380D01*
X127293571Y-71572380D01*
X127722142Y-70667619D02*
X127769761Y-70620000D01*
X127865000Y-70572380D01*
X128103095Y-70572380D01*
X128198333Y-70620000D01*
X128245952Y-70667619D01*
X128293571Y-70762857D01*
X128293571Y-70858095D01*
X128245952Y-71000952D01*
X127674523Y-71572380D01*
X128293571Y-71572380D01*
%TO.C,GND*%
X94440470Y-93885000D02*
X94345232Y-93837380D01*
X94202375Y-93837380D01*
X94059517Y-93885000D01*
X93964279Y-93980238D01*
X93916660Y-94075476D01*
X93869041Y-94265952D01*
X93869041Y-94408809D01*
X93916660Y-94599285D01*
X93964279Y-94694523D01*
X94059517Y-94789761D01*
X94202375Y-94837380D01*
X94297613Y-94837380D01*
X94440470Y-94789761D01*
X94488089Y-94742142D01*
X94488089Y-94408809D01*
X94297613Y-94408809D01*
X94916660Y-94837380D02*
X94916660Y-93837380D01*
X95488089Y-94837380D01*
X95488089Y-93837380D01*
X95964279Y-94837380D02*
X95964279Y-93837380D01*
X96202375Y-93837380D01*
X96345232Y-93885000D01*
X96440470Y-93980238D01*
X96488089Y-94075476D01*
X96535708Y-94265952D01*
X96535708Y-94408809D01*
X96488089Y-94599285D01*
X96440470Y-94694523D01*
X96345232Y-94789761D01*
X96202375Y-94837380D01*
X95964279Y-94837380D01*
%TO.C,A3*%
X75485714Y-78676666D02*
X75961904Y-78676666D01*
X75390476Y-78962380D02*
X75723809Y-77962380D01*
X76057142Y-78962380D01*
X76295238Y-77962380D02*
X76914285Y-77962380D01*
X76580952Y-78343333D01*
X76723809Y-78343333D01*
X76819047Y-78390952D01*
X76866666Y-78438571D01*
X76914285Y-78533809D01*
X76914285Y-78771904D01*
X76866666Y-78867142D01*
X76819047Y-78914761D01*
X76723809Y-78962380D01*
X76438095Y-78962380D01*
X76342857Y-78914761D01*
X76295238Y-78867142D01*
%TO.C,PWM3*%
X124611047Y-90876380D02*
X124611047Y-89876380D01*
X124992000Y-89876380D01*
X125087238Y-89924000D01*
X125134857Y-89971619D01*
X125182476Y-90066857D01*
X125182476Y-90209714D01*
X125134857Y-90304952D01*
X125087238Y-90352571D01*
X124992000Y-90400190D01*
X124611047Y-90400190D01*
X125515809Y-89876380D02*
X125753904Y-90876380D01*
X125944380Y-90162095D01*
X126134857Y-90876380D01*
X126372952Y-89876380D01*
X126753904Y-90876380D02*
X126753904Y-89876380D01*
X127087238Y-90590666D01*
X127420571Y-89876380D01*
X127420571Y-90876380D01*
X127801523Y-89876380D02*
X128420571Y-89876380D01*
X128087238Y-90257333D01*
X128230095Y-90257333D01*
X128325333Y-90304952D01*
X128372952Y-90352571D01*
X128420571Y-90447809D01*
X128420571Y-90685904D01*
X128372952Y-90781142D01*
X128325333Y-90828761D01*
X128230095Y-90876380D01*
X127944380Y-90876380D01*
X127849142Y-90828761D01*
X127801523Y-90781142D01*
%TO.C,GND*%
X116586095Y-93885000D02*
X116490857Y-93837380D01*
X116348000Y-93837380D01*
X116205142Y-93885000D01*
X116109904Y-93980238D01*
X116062285Y-94075476D01*
X116014666Y-94265952D01*
X116014666Y-94408809D01*
X116062285Y-94599285D01*
X116109904Y-94694523D01*
X116205142Y-94789761D01*
X116348000Y-94837380D01*
X116443238Y-94837380D01*
X116586095Y-94789761D01*
X116633714Y-94742142D01*
X116633714Y-94408809D01*
X116443238Y-94408809D01*
X117062285Y-94837380D02*
X117062285Y-93837380D01*
X117633714Y-94837380D01*
X117633714Y-93837380D01*
X118109904Y-94837380D02*
X118109904Y-93837380D01*
X118348000Y-93837380D01*
X118490857Y-93885000D01*
X118586095Y-93980238D01*
X118633714Y-94075476D01*
X118681333Y-94265952D01*
X118681333Y-94408809D01*
X118633714Y-94599285D01*
X118586095Y-94694523D01*
X118490857Y-94789761D01*
X118348000Y-94837380D01*
X118109904Y-94837380D01*
%TO.C,U1*%
X91694095Y-52128380D02*
X91694095Y-52937904D01*
X91741714Y-53033142D01*
X91789333Y-53080761D01*
X91884571Y-53128380D01*
X92075047Y-53128380D01*
X92170285Y-53080761D01*
X92217904Y-53033142D01*
X92265523Y-52937904D01*
X92265523Y-52128380D01*
X93265523Y-53128380D02*
X92694095Y-53128380D01*
X92979809Y-53128380D02*
X92979809Y-52128380D01*
X92884571Y-52271238D01*
X92789333Y-52366476D01*
X92694095Y-52414095D01*
%TO.C,U2*%
X91694095Y-70162380D02*
X91694095Y-70971904D01*
X91741714Y-71067142D01*
X91789333Y-71114761D01*
X91884571Y-71162380D01*
X92075047Y-71162380D01*
X92170285Y-71114761D01*
X92217904Y-71067142D01*
X92265523Y-70971904D01*
X92265523Y-70162380D01*
X92694095Y-70257619D02*
X92741714Y-70210000D01*
X92836952Y-70162380D01*
X93075047Y-70162380D01*
X93170285Y-70210000D01*
X93217904Y-70257619D01*
X93265523Y-70352857D01*
X93265523Y-70448095D01*
X93217904Y-70590952D01*
X92646476Y-71162380D01*
X93265523Y-71162380D01*
%TO.C,U3*%
X91694095Y-87688380D02*
X91694095Y-88497904D01*
X91741714Y-88593142D01*
X91789333Y-88640761D01*
X91884571Y-88688380D01*
X92075047Y-88688380D01*
X92170285Y-88640761D01*
X92217904Y-88593142D01*
X92265523Y-88497904D01*
X92265523Y-87688380D01*
X92646476Y-87688380D02*
X93265523Y-87688380D01*
X92932190Y-88069333D01*
X93075047Y-88069333D01*
X93170285Y-88116952D01*
X93217904Y-88164571D01*
X93265523Y-88259809D01*
X93265523Y-88497904D01*
X93217904Y-88593142D01*
X93170285Y-88640761D01*
X93075047Y-88688380D01*
X92789333Y-88688380D01*
X92694095Y-88640761D01*
X92646476Y-88593142D01*
%TO.C,U4*%
D15*
X64676976Y-94827214D02*
X64676976Y-95637050D01*
X64724613Y-95732325D01*
X64772251Y-95779963D01*
X64867525Y-95827600D01*
X65058075Y-95827600D01*
X65153350Y-95779963D01*
X65200987Y-95732325D01*
X65248625Y-95637050D01*
X65248625Y-94827214D01*
X66153736Y-95160676D02*
X66153736Y-95827600D01*
X65915549Y-94779577D02*
X65677362Y-95494138D01*
X66296648Y-95494138D01*
%TO.C,D4*%
D14*
X79903580Y-55078855D02*
X78903580Y-55078855D01*
X78903580Y-54840760D01*
X78951200Y-54697902D01*
X79046438Y-54602664D01*
X79141676Y-54555045D01*
X79332152Y-54507426D01*
X79475009Y-54507426D01*
X79665485Y-54555045D01*
X79760723Y-54602664D01*
X79855961Y-54697902D01*
X79903580Y-54840760D01*
X79903580Y-55078855D01*
X79236914Y-53650283D02*
X79903580Y-53650283D01*
X78855961Y-53888379D02*
X79570247Y-54126474D01*
X79570247Y-53507426D01*
%TO.C,D5*%
X79776580Y-74763855D02*
X78776580Y-74763855D01*
X78776580Y-74525760D01*
X78824200Y-74382902D01*
X78919438Y-74287664D01*
X79014676Y-74240045D01*
X79205152Y-74192426D01*
X79348009Y-74192426D01*
X79538485Y-74240045D01*
X79633723Y-74287664D01*
X79728961Y-74382902D01*
X79776580Y-74525760D01*
X79776580Y-74763855D01*
X78776580Y-73287664D02*
X78776580Y-73763855D01*
X79252771Y-73811474D01*
X79205152Y-73763855D01*
X79157533Y-73668617D01*
X79157533Y-73430521D01*
X79205152Y-73335283D01*
X79252771Y-73287664D01*
X79348009Y-73240045D01*
X79586104Y-73240045D01*
X79681342Y-73287664D01*
X79728961Y-73335283D01*
X79776580Y-73430521D01*
X79776580Y-73668617D01*
X79728961Y-73763855D01*
X79681342Y-73811474D01*
%TO.C,D6*%
X79522580Y-90638855D02*
X78522580Y-90638855D01*
X78522580Y-90400760D01*
X78570200Y-90257902D01*
X78665438Y-90162664D01*
X78760676Y-90115045D01*
X78951152Y-90067426D01*
X79094009Y-90067426D01*
X79284485Y-90115045D01*
X79379723Y-90162664D01*
X79474961Y-90257902D01*
X79522580Y-90400760D01*
X79522580Y-90638855D01*
X78522580Y-89210283D02*
X78522580Y-89400760D01*
X78570200Y-89495998D01*
X78617819Y-89543617D01*
X78760676Y-89638855D01*
X78951152Y-89686474D01*
X79332104Y-89686474D01*
X79427342Y-89638855D01*
X79474961Y-89591236D01*
X79522580Y-89495998D01*
X79522580Y-89305521D01*
X79474961Y-89210283D01*
X79427342Y-89162664D01*
X79332104Y-89115045D01*
X79094009Y-89115045D01*
X78998771Y-89162664D01*
X78951152Y-89210283D01*
X78903533Y-89305521D01*
X78903533Y-89495998D01*
X78951152Y-89591236D01*
X78998771Y-89638855D01*
X79094009Y-89686474D01*
%TO.C,R4*%
X81113333Y-48162380D02*
X80780000Y-47686190D01*
X80541904Y-48162380D02*
X80541904Y-47162380D01*
X80922857Y-47162380D01*
X81018095Y-47210000D01*
X81065714Y-47257619D01*
X81113333Y-47352857D01*
X81113333Y-47495714D01*
X81065714Y-47590952D01*
X81018095Y-47638571D01*
X80922857Y-47686190D01*
X80541904Y-47686190D01*
X81970476Y-47495714D02*
X81970476Y-48162380D01*
X81732380Y-47114761D02*
X81494285Y-47829047D01*
X82113333Y-47829047D01*
%TO.C,R5*%
X81113333Y-66704380D02*
X80780000Y-66228190D01*
X80541904Y-66704380D02*
X80541904Y-65704380D01*
X80922857Y-65704380D01*
X81018095Y-65752000D01*
X81065714Y-65799619D01*
X81113333Y-65894857D01*
X81113333Y-66037714D01*
X81065714Y-66132952D01*
X81018095Y-66180571D01*
X80922857Y-66228190D01*
X80541904Y-66228190D01*
X82018095Y-65704380D02*
X81541904Y-65704380D01*
X81494285Y-66180571D01*
X81541904Y-66132952D01*
X81637142Y-66085333D01*
X81875238Y-66085333D01*
X81970476Y-66132952D01*
X82018095Y-66180571D01*
X82065714Y-66275809D01*
X82065714Y-66513904D01*
X82018095Y-66609142D01*
X81970476Y-66656761D01*
X81875238Y-66704380D01*
X81637142Y-66704380D01*
X81541904Y-66656761D01*
X81494285Y-66609142D01*
%TO.C,R6*%
X81113333Y-83976380D02*
X80780000Y-83500190D01*
X80541904Y-83976380D02*
X80541904Y-82976380D01*
X80922857Y-82976380D01*
X81018095Y-83024000D01*
X81065714Y-83071619D01*
X81113333Y-83166857D01*
X81113333Y-83309714D01*
X81065714Y-83404952D01*
X81018095Y-83452571D01*
X80922857Y-83500190D01*
X80541904Y-83500190D01*
X81970476Y-82976380D02*
X81780000Y-82976380D01*
X81684761Y-83024000D01*
X81637142Y-83071619D01*
X81541904Y-83214476D01*
X81494285Y-83404952D01*
X81494285Y-83785904D01*
X81541904Y-83881142D01*
X81589523Y-83928761D01*
X81684761Y-83976380D01*
X81875238Y-83976380D01*
X81970476Y-83928761D01*
X82018095Y-83881142D01*
X82065714Y-83785904D01*
X82065714Y-83547809D01*
X82018095Y-83452571D01*
X81970476Y-83404952D01*
X81875238Y-83357333D01*
X81684761Y-83357333D01*
X81589523Y-83404952D01*
X81541904Y-83452571D01*
X81494285Y-83547809D01*
%TO.C,C7*%
X105125142Y-42878666D02*
X105172761Y-42926285D01*
X105220380Y-43069142D01*
X105220380Y-43164380D01*
X105172761Y-43307238D01*
X105077523Y-43402476D01*
X104982285Y-43450095D01*
X104791809Y-43497714D01*
X104648952Y-43497714D01*
X104458476Y-43450095D01*
X104363238Y-43402476D01*
X104268000Y-43307238D01*
X104220380Y-43164380D01*
X104220380Y-43069142D01*
X104268000Y-42926285D01*
X104315619Y-42878666D01*
X104220380Y-42545333D02*
X104220380Y-41878666D01*
X105220380Y-42307238D01*
%TO.C,C8*%
X105005142Y-57951666D02*
X105052761Y-57999285D01*
X105100380Y-58142142D01*
X105100380Y-58237380D01*
X105052761Y-58380238D01*
X104957523Y-58475476D01*
X104862285Y-58523095D01*
X104671809Y-58570714D01*
X104528952Y-58570714D01*
X104338476Y-58523095D01*
X104243238Y-58475476D01*
X104148000Y-58380238D01*
X104100380Y-58237380D01*
X104100380Y-58142142D01*
X104148000Y-57999285D01*
X104195619Y-57951666D01*
X104528952Y-57380238D02*
X104481333Y-57475476D01*
X104433714Y-57523095D01*
X104338476Y-57570714D01*
X104290857Y-57570714D01*
X104195619Y-57523095D01*
X104148000Y-57475476D01*
X104100380Y-57380238D01*
X104100380Y-57189761D01*
X104148000Y-57094523D01*
X104195619Y-57046904D01*
X104290857Y-56999285D01*
X104338476Y-56999285D01*
X104433714Y-57046904D01*
X104481333Y-57094523D01*
X104528952Y-57189761D01*
X104528952Y-57380238D01*
X104576571Y-57475476D01*
X104624190Y-57523095D01*
X104719428Y-57570714D01*
X104909904Y-57570714D01*
X105005142Y-57523095D01*
X105052761Y-57475476D01*
X105100380Y-57380238D01*
X105100380Y-57189761D01*
X105052761Y-57094523D01*
X105005142Y-57046904D01*
X104909904Y-56999285D01*
X104719428Y-56999285D01*
X104624190Y-57046904D01*
X104576571Y-57094523D01*
X104528952Y-57189761D01*
%TO.C,C9*%
X105125142Y-79581666D02*
X105172761Y-79629285D01*
X105220380Y-79772142D01*
X105220380Y-79867380D01*
X105172761Y-80010238D01*
X105077523Y-80105476D01*
X104982285Y-80153095D01*
X104791809Y-80200714D01*
X104648952Y-80200714D01*
X104458476Y-80153095D01*
X104363238Y-80105476D01*
X104268000Y-80010238D01*
X104220380Y-79867380D01*
X104220380Y-79772142D01*
X104268000Y-79629285D01*
X104315619Y-79581666D01*
X105220380Y-79105476D02*
X105220380Y-78915000D01*
X105172761Y-78819761D01*
X105125142Y-78772142D01*
X104982285Y-78676904D01*
X104791809Y-78629285D01*
X104410857Y-78629285D01*
X104315619Y-78676904D01*
X104268000Y-78724523D01*
X104220380Y-78819761D01*
X104220380Y-79010238D01*
X104268000Y-79105476D01*
X104315619Y-79153095D01*
X104410857Y-79200714D01*
X104648952Y-79200714D01*
X104744190Y-79153095D01*
X104791809Y-79105476D01*
X104839428Y-79010238D01*
X104839428Y-78819761D01*
X104791809Y-78724523D01*
X104744190Y-78676904D01*
X104648952Y-78629285D01*
%TO.C,F1*%
X93783571Y-32944333D02*
X93783571Y-33277666D01*
X94307380Y-33277666D02*
X93307380Y-33277666D01*
X93307380Y-32801476D01*
X94307380Y-31896714D02*
X94307380Y-32468142D01*
X94307380Y-32182428D02*
X93307380Y-32182428D01*
X93450238Y-32277666D01*
X93545476Y-32372904D01*
X93593095Y-32468142D01*
%TO.C,J5*%
X88757380Y-25098333D02*
X89471666Y-25098333D01*
X89614523Y-25145952D01*
X89709761Y-25241190D01*
X89757380Y-25384047D01*
X89757380Y-25479285D01*
X88757380Y-24145952D02*
X88757380Y-24622142D01*
X89233571Y-24669761D01*
X89185952Y-24622142D01*
X89138333Y-24526904D01*
X89138333Y-24288809D01*
X89185952Y-24193571D01*
X89233571Y-24145952D01*
X89328809Y-24098333D01*
X89566904Y-24098333D01*
X89662142Y-24145952D01*
X89709761Y-24193571D01*
X89757380Y-24288809D01*
X89757380Y-24526904D01*
X89709761Y-24622142D01*
X89662142Y-24669761D01*
%TO.C,U5*%
D15*
X105193904Y-71049523D02*
X105841523Y-71049523D01*
X105917714Y-71011428D01*
X105955809Y-70973333D01*
X105993904Y-70897142D01*
X105993904Y-70744761D01*
X105955809Y-70668571D01*
X105917714Y-70630476D01*
X105841523Y-70592380D01*
X105193904Y-70592380D01*
X105193904Y-69830476D02*
X105193904Y-70211428D01*
X105574857Y-70249523D01*
X105536761Y-70211428D01*
X105498666Y-70135238D01*
X105498666Y-69944761D01*
X105536761Y-69868571D01*
X105574857Y-69830476D01*
X105651047Y-69792380D01*
X105841523Y-69792380D01*
X105917714Y-69830476D01*
X105955809Y-69868571D01*
X105993904Y-69944761D01*
X105993904Y-70135238D01*
X105955809Y-70211428D01*
X105917714Y-70249523D01*
%TO.C,U6*%
X105193904Y-89449523D02*
X105841523Y-89449523D01*
X105917714Y-89411428D01*
X105955809Y-89373333D01*
X105993904Y-89297142D01*
X105993904Y-89144761D01*
X105955809Y-89068571D01*
X105917714Y-89030476D01*
X105841523Y-88992380D01*
X105193904Y-88992380D01*
X105193904Y-88268571D02*
X105193904Y-88420952D01*
X105232000Y-88497142D01*
X105270095Y-88535238D01*
X105384380Y-88611428D01*
X105536761Y-88649523D01*
X105841523Y-88649523D01*
X105917714Y-88611428D01*
X105955809Y-88573333D01*
X105993904Y-88497142D01*
X105993904Y-88344761D01*
X105955809Y-88268571D01*
X105917714Y-88230476D01*
X105841523Y-88192380D01*
X105651047Y-88192380D01*
X105574857Y-88230476D01*
X105536761Y-88268571D01*
X105498666Y-88344761D01*
X105498666Y-88497142D01*
X105536761Y-88573333D01*
X105574857Y-88611428D01*
X105651047Y-88649523D01*
%TO.C,U7*%
X105193904Y-53889523D02*
X105841523Y-53889523D01*
X105917714Y-53851428D01*
X105955809Y-53813333D01*
X105993904Y-53737142D01*
X105993904Y-53584761D01*
X105955809Y-53508571D01*
X105917714Y-53470476D01*
X105841523Y-53432380D01*
X105193904Y-53432380D01*
X105193904Y-53127619D02*
X105193904Y-52594285D01*
X105993904Y-52937142D01*
%TO.C,U8*%
X34255476Y-61823904D02*
X34255476Y-62471523D01*
X34293571Y-62547714D01*
X34331666Y-62585809D01*
X34407857Y-62623904D01*
X34560238Y-62623904D01*
X34636428Y-62585809D01*
X34674523Y-62547714D01*
X34712619Y-62471523D01*
X34712619Y-61823904D01*
X35207857Y-62166761D02*
X35131666Y-62128666D01*
X35093571Y-62090571D01*
X35055476Y-62014380D01*
X35055476Y-61976285D01*
X35093571Y-61900095D01*
X35131666Y-61862000D01*
X35207857Y-61823904D01*
X35360238Y-61823904D01*
X35436428Y-61862000D01*
X35474523Y-61900095D01*
X35512619Y-61976285D01*
X35512619Y-62014380D01*
X35474523Y-62090571D01*
X35436428Y-62128666D01*
X35360238Y-62166761D01*
X35207857Y-62166761D01*
X35131666Y-62204857D01*
X35093571Y-62242952D01*
X35055476Y-62319142D01*
X35055476Y-62471523D01*
X35093571Y-62547714D01*
X35131666Y-62585809D01*
X35207857Y-62623904D01*
X35360238Y-62623904D01*
X35436428Y-62585809D01*
X35474523Y-62547714D01*
X35512619Y-62471523D01*
X35512619Y-62319142D01*
X35474523Y-62242952D01*
X35436428Y-62204857D01*
X35360238Y-62166761D01*
%TO.C,M2_VCC*%
D14*
X124380952Y-58237380D02*
X124380952Y-57237380D01*
X124714285Y-57951666D01*
X125047619Y-57237380D01*
X125047619Y-58237380D01*
X125476190Y-57332619D02*
X125523809Y-57285000D01*
X125619047Y-57237380D01*
X125857142Y-57237380D01*
X125952380Y-57285000D01*
X126000000Y-57332619D01*
X126047619Y-57427857D01*
X126047619Y-57523095D01*
X126000000Y-57665952D01*
X125428571Y-58237380D01*
X126047619Y-58237380D01*
X126238095Y-58332619D02*
X127000000Y-58332619D01*
X127095238Y-57237380D02*
X127428571Y-58237380D01*
X127761904Y-57237380D01*
X128666666Y-58142142D02*
X128619047Y-58189761D01*
X128476190Y-58237380D01*
X128380952Y-58237380D01*
X128238095Y-58189761D01*
X128142857Y-58094523D01*
X128095238Y-57999285D01*
X128047619Y-57808809D01*
X128047619Y-57665952D01*
X128095238Y-57475476D01*
X128142857Y-57380238D01*
X128238095Y-57285000D01*
X128380952Y-57237380D01*
X128476190Y-57237380D01*
X128619047Y-57285000D01*
X128666666Y-57332619D01*
X129666666Y-58142142D02*
X129619047Y-58189761D01*
X129476190Y-58237380D01*
X129380952Y-58237380D01*
X129238095Y-58189761D01*
X129142857Y-58094523D01*
X129095238Y-57999285D01*
X129047619Y-57808809D01*
X129047619Y-57665952D01*
X129095238Y-57475476D01*
X129142857Y-57380238D01*
X129238095Y-57285000D01*
X129380952Y-57237380D01*
X129476190Y-57237380D01*
X129619047Y-57285000D01*
X129666666Y-57332619D01*
%TO.C,M3_VCC*%
X124634952Y-77668380D02*
X124634952Y-76668380D01*
X124968285Y-77382666D01*
X125301619Y-76668380D01*
X125301619Y-77668380D01*
X125682571Y-76668380D02*
X126301619Y-76668380D01*
X125968285Y-77049333D01*
X126111142Y-77049333D01*
X126206380Y-77096952D01*
X126254000Y-77144571D01*
X126301619Y-77239809D01*
X126301619Y-77477904D01*
X126254000Y-77573142D01*
X126206380Y-77620761D01*
X126111142Y-77668380D01*
X125825428Y-77668380D01*
X125730190Y-77620761D01*
X125682571Y-77573142D01*
X126492095Y-77763619D02*
X127254000Y-77763619D01*
X127349238Y-76668380D02*
X127682571Y-77668380D01*
X128015904Y-76668380D01*
X128920666Y-77573142D02*
X128873047Y-77620761D01*
X128730190Y-77668380D01*
X128634952Y-77668380D01*
X128492095Y-77620761D01*
X128396857Y-77525523D01*
X128349238Y-77430285D01*
X128301619Y-77239809D01*
X128301619Y-77096952D01*
X128349238Y-76906476D01*
X128396857Y-76811238D01*
X128492095Y-76716000D01*
X128634952Y-76668380D01*
X128730190Y-76668380D01*
X128873047Y-76716000D01*
X128920666Y-76763619D01*
X129920666Y-77573142D02*
X129873047Y-77620761D01*
X129730190Y-77668380D01*
X129634952Y-77668380D01*
X129492095Y-77620761D01*
X129396857Y-77525523D01*
X129349238Y-77430285D01*
X129301619Y-77239809D01*
X129301619Y-77096952D01*
X129349238Y-76906476D01*
X129396857Y-76811238D01*
X129492095Y-76716000D01*
X129634952Y-76668380D01*
X129730190Y-76668380D01*
X129873047Y-76716000D01*
X129920666Y-76763619D01*
%TO.C,M1_VCC*%
X123618952Y-38298380D02*
X123618952Y-37298380D01*
X123952285Y-38012666D01*
X124285619Y-37298380D01*
X124285619Y-38298380D01*
X125285619Y-38298380D02*
X124714190Y-38298380D01*
X124999904Y-38298380D02*
X124999904Y-37298380D01*
X124904666Y-37441238D01*
X124809428Y-37536476D01*
X124714190Y-37584095D01*
X125476095Y-38393619D02*
X126238000Y-38393619D01*
X126333238Y-37298380D02*
X126666571Y-38298380D01*
X126999904Y-37298380D01*
X127904666Y-38203142D02*
X127857047Y-38250761D01*
X127714190Y-38298380D01*
X127618952Y-38298380D01*
X127476095Y-38250761D01*
X127380857Y-38155523D01*
X127333238Y-38060285D01*
X127285619Y-37869809D01*
X127285619Y-37726952D01*
X127333238Y-37536476D01*
X127380857Y-37441238D01*
X127476095Y-37346000D01*
X127618952Y-37298380D01*
X127714190Y-37298380D01*
X127857047Y-37346000D01*
X127904666Y-37393619D01*
X128904666Y-38203142D02*
X128857047Y-38250761D01*
X128714190Y-38298380D01*
X128618952Y-38298380D01*
X128476095Y-38250761D01*
X128380857Y-38155523D01*
X128333238Y-38060285D01*
X128285619Y-37869809D01*
X128285619Y-37726952D01*
X128333238Y-37536476D01*
X128380857Y-37441238D01*
X128476095Y-37346000D01*
X128618952Y-37298380D01*
X128714190Y-37298380D01*
X128857047Y-37346000D01*
X128904666Y-37393619D01*
%TO.C,D1*%
X104671904Y-49347380D02*
X104671904Y-48347380D01*
X104910000Y-48347380D01*
X105052857Y-48395000D01*
X105148095Y-48490238D01*
X105195714Y-48585476D01*
X105243333Y-48775952D01*
X105243333Y-48918809D01*
X105195714Y-49109285D01*
X105148095Y-49204523D01*
X105052857Y-49299761D01*
X104910000Y-49347380D01*
X104671904Y-49347380D01*
X106195714Y-49347380D02*
X105624285Y-49347380D01*
X105910000Y-49347380D02*
X105910000Y-48347380D01*
X105814761Y-48490238D01*
X105719523Y-48585476D01*
X105624285Y-48633095D01*
%TO.C,D2*%
X100312904Y-67857380D02*
X100312904Y-66857380D01*
X100551000Y-66857380D01*
X100693857Y-66905000D01*
X100789095Y-67000238D01*
X100836714Y-67095476D01*
X100884333Y-67285952D01*
X100884333Y-67428809D01*
X100836714Y-67619285D01*
X100789095Y-67714523D01*
X100693857Y-67809761D01*
X100551000Y-67857380D01*
X100312904Y-67857380D01*
X101265285Y-66952619D02*
X101312904Y-66905000D01*
X101408142Y-66857380D01*
X101646238Y-66857380D01*
X101741476Y-66905000D01*
X101789095Y-66952619D01*
X101836714Y-67047857D01*
X101836714Y-67143095D01*
X101789095Y-67285952D01*
X101217666Y-67857380D01*
X101836714Y-67857380D01*
%TO.C,D3*%
X100185904Y-85637380D02*
X100185904Y-84637380D01*
X100424000Y-84637380D01*
X100566857Y-84685000D01*
X100662095Y-84780238D01*
X100709714Y-84875476D01*
X100757333Y-85065952D01*
X100757333Y-85208809D01*
X100709714Y-85399285D01*
X100662095Y-85494523D01*
X100566857Y-85589761D01*
X100424000Y-85637380D01*
X100185904Y-85637380D01*
X101090666Y-84637380D02*
X101709714Y-84637380D01*
X101376380Y-85018333D01*
X101519238Y-85018333D01*
X101614476Y-85065952D01*
X101662095Y-85113571D01*
X101709714Y-85208809D01*
X101709714Y-85446904D01*
X101662095Y-85542142D01*
X101614476Y-85589761D01*
X101519238Y-85637380D01*
X101233523Y-85637380D01*
X101138285Y-85589761D01*
X101090666Y-85542142D01*
%TO.C,D7*%
X99766380Y-32869095D02*
X98766380Y-32869095D01*
X98766380Y-32631000D01*
X98814000Y-32488142D01*
X98909238Y-32392904D01*
X99004476Y-32345285D01*
X99194952Y-32297666D01*
X99337809Y-32297666D01*
X99528285Y-32345285D01*
X99623523Y-32392904D01*
X99718761Y-32488142D01*
X99766380Y-32631000D01*
X99766380Y-32869095D01*
X98766380Y-31964333D02*
X98766380Y-31297666D01*
X99766380Y-31726238D01*
%TO.C,R7*%
X99851380Y-37250666D02*
X99375190Y-37584000D01*
X99851380Y-37822095D02*
X98851380Y-37822095D01*
X98851380Y-37441142D01*
X98899000Y-37345904D01*
X98946619Y-37298285D01*
X99041857Y-37250666D01*
X99184714Y-37250666D01*
X99279952Y-37298285D01*
X99327571Y-37345904D01*
X99375190Y-37441142D01*
X99375190Y-37822095D01*
X98851380Y-36917333D02*
X98851380Y-36250666D01*
X99851380Y-36679238D01*
%TO.C,C11*%
X72747142Y-89542857D02*
X72794761Y-89590476D01*
X72842380Y-89733333D01*
X72842380Y-89828571D01*
X72794761Y-89971428D01*
X72699523Y-90066666D01*
X72604285Y-90114285D01*
X72413809Y-90161904D01*
X72270952Y-90161904D01*
X72080476Y-90114285D01*
X71985238Y-90066666D01*
X71890000Y-89971428D01*
X71842380Y-89828571D01*
X71842380Y-89733333D01*
X71890000Y-89590476D01*
X71937619Y-89542857D01*
X72842380Y-88590476D02*
X72842380Y-89161904D01*
X72842380Y-88876190D02*
X71842380Y-88876190D01*
X71985238Y-88971428D01*
X72080476Y-89066666D01*
X72128095Y-89161904D01*
X72842380Y-87638095D02*
X72842380Y-88209523D01*
X72842380Y-87923809D02*
X71842380Y-87923809D01*
X71985238Y-88019047D01*
X72080476Y-88114285D01*
X72128095Y-88209523D01*
%TO.C,C10*%
X75342142Y-65842857D02*
X75389761Y-65890476D01*
X75437380Y-66033333D01*
X75437380Y-66128571D01*
X75389761Y-66271428D01*
X75294523Y-66366666D01*
X75199285Y-66414285D01*
X75008809Y-66461904D01*
X74865952Y-66461904D01*
X74675476Y-66414285D01*
X74580238Y-66366666D01*
X74485000Y-66271428D01*
X74437380Y-66128571D01*
X74437380Y-66033333D01*
X74485000Y-65890476D01*
X74532619Y-65842857D01*
X75437380Y-64890476D02*
X75437380Y-65461904D01*
X75437380Y-65176190D02*
X74437380Y-65176190D01*
X74580238Y-65271428D01*
X74675476Y-65366666D01*
X74723095Y-65461904D01*
X74437380Y-64271428D02*
X74437380Y-64176190D01*
X74485000Y-64080952D01*
X74532619Y-64033333D01*
X74627857Y-63985714D01*
X74818333Y-63938095D01*
X75056428Y-63938095D01*
X75246904Y-63985714D01*
X75342142Y-64033333D01*
X75389761Y-64080952D01*
X75437380Y-64176190D01*
X75437380Y-64271428D01*
X75389761Y-64366666D01*
X75342142Y-64414285D01*
X75246904Y-64461904D01*
X75056428Y-64509523D01*
X74818333Y-64509523D01*
X74627857Y-64461904D01*
X74532619Y-64414285D01*
X74485000Y-64366666D01*
X74437380Y-64271428D01*
%TO.C,C12*%
X72802142Y-46792857D02*
X72849761Y-46840476D01*
X72897380Y-46983333D01*
X72897380Y-47078571D01*
X72849761Y-47221428D01*
X72754523Y-47316666D01*
X72659285Y-47364285D01*
X72468809Y-47411904D01*
X72325952Y-47411904D01*
X72135476Y-47364285D01*
X72040238Y-47316666D01*
X71945000Y-47221428D01*
X71897380Y-47078571D01*
X71897380Y-46983333D01*
X71945000Y-46840476D01*
X71992619Y-46792857D01*
X72897380Y-45840476D02*
X72897380Y-46411904D01*
X72897380Y-46126190D02*
X71897380Y-46126190D01*
X72040238Y-46221428D01*
X72135476Y-46316666D01*
X72183095Y-46411904D01*
X71992619Y-45459523D02*
X71945000Y-45411904D01*
X71897380Y-45316666D01*
X71897380Y-45078571D01*
X71945000Y-44983333D01*
X71992619Y-44935714D01*
X72087857Y-44888095D01*
X72183095Y-44888095D01*
X72325952Y-44935714D01*
X72897380Y-45507142D01*
X72897380Y-44888095D01*
%TO.C,H1*%
X28956095Y-24642380D02*
X28956095Y-23642380D01*
X28956095Y-24118571D02*
X29527523Y-24118571D01*
X29527523Y-24642380D02*
X29527523Y-23642380D01*
X30527523Y-24642380D02*
X29956095Y-24642380D01*
X30241809Y-24642380D02*
X30241809Y-23642380D01*
X30146571Y-23785238D01*
X30051333Y-23880476D01*
X29956095Y-23928095D01*
%TO.C,H2*%
X128016095Y-93476380D02*
X128016095Y-92476380D01*
X128016095Y-92952571D02*
X128587523Y-92952571D01*
X128587523Y-93476380D02*
X128587523Y-92476380D01*
X129016095Y-92571619D02*
X129063714Y-92524000D01*
X129158952Y-92476380D01*
X129397047Y-92476380D01*
X129492285Y-92524000D01*
X129539904Y-92571619D01*
X129587523Y-92666857D01*
X129587523Y-92762095D01*
X129539904Y-92904952D01*
X128968476Y-93476380D01*
X129587523Y-93476380D01*
%TO.C,H3*%
X128016095Y-24642380D02*
X128016095Y-23642380D01*
X128016095Y-24118571D02*
X128587523Y-24118571D01*
X128587523Y-24642380D02*
X128587523Y-23642380D01*
X128968476Y-23642380D02*
X129587523Y-23642380D01*
X129254190Y-24023333D01*
X129397047Y-24023333D01*
X129492285Y-24070952D01*
X129539904Y-24118571D01*
X129587523Y-24213809D01*
X129587523Y-24451904D01*
X129539904Y-24547142D01*
X129492285Y-24594761D01*
X129397047Y-24642380D01*
X129111333Y-24642380D01*
X129016095Y-24594761D01*
X128968476Y-24547142D01*
%TO.C,H4*%
X28956095Y-93476380D02*
X28956095Y-92476380D01*
X28956095Y-92952571D02*
X29527523Y-92952571D01*
X29527523Y-93476380D02*
X29527523Y-92476380D01*
X30432285Y-92809714D02*
X30432285Y-93476380D01*
X30194190Y-92428761D02*
X29956095Y-93143047D01*
X30575142Y-93143047D01*
%TD*%
M02*
