M48
; DRILL file {KiCad 5.1.10-88a1d61d58~88~ubuntu20.04.1} date Sat Jun 19 14:45:44 2021
; FORMAT={-:-/ absolute / metric / decimal}
; #@! TF.CreationDate,2021-06-19T14:45:44+02:00
; #@! TF.GenerationSoftware,Kicad,Pcbnew,5.1.10-88a1d61d58~88~ubuntu20.04.1
; #@! TF.FileFunction,Plated,1,4,PTH
FMAT,2
METRIC
T1C0.400
T2C1.000
T3C1.040
T4C1.200
%
G90
G05
T1
X31.75Y-64.77
X72.39Y-43.815
X74.295Y-92.075
X74.93Y-62.865
X76.2Y-43.815
X77.597Y-91.186
X77.851Y-75.311
X77.978Y-55.372
X78.74Y-62.865
X85.852Y-43.815
X85.852Y-62.445
X85.852Y-79.248
X87.63Y-69.735
X87.63Y-86.995
X88.011Y-64.77
X88.011Y-82.677
X88.138Y-46.99
X88.265Y-51.435
X89.916Y-38.862
X89.916Y-40.005
X89.916Y-41.275
X91.525Y-38.862
X91.525Y-40.005
X91.525Y-41.275
X93.133Y-38.862
X93.133Y-40.005
X93.133Y-41.275
X94.742Y-38.862
X94.742Y-40.005
X94.742Y-41.275
X95.719Y-63.901
X96.236Y-68.035
X96.883Y-69.735
X97.155Y-45.212
X97.155Y-50.165
X97.155Y-51.435
X97.155Y-85.725
X97.155Y-86.995
X97.79Y-91.44
X98.679Y-78.359
X99.06Y-50.8
X99.06Y-56.515
X99.06Y-67.945
X99.06Y-73.66
X99.06Y-86.36
X100.33Y-92.075
X101.219Y-29.083
X101.219Y-40.132
X103.124Y-86.106
X103.192Y-67.7
X103.505Y-50.8
T2
X26.416Y-56.388
X26.416Y-58.928
X26.416Y-61.468
X26.416Y-64.008
X26.416Y-66.548
X26.416Y-69.088
X73.057Y-97.155
X74.295Y-74.295
X76.2Y-81.28
X76.835Y-59.055
X92.075Y-24.765
X94.615Y-24.765
X95.202Y-97.155
X117.348Y-97.155
X121.285Y-38.1
X121.92Y-52.705
X121.92Y-57.785
X122.555Y-71.12
X122.555Y-77.47
X122.555Y-90.805
X131.064Y-42.672
X131.064Y-45.212
X131.064Y-47.752
X131.064Y-61.976
X131.064Y-64.516
X131.064Y-67.056
X131.064Y-81.28
X131.064Y-83.82
X131.064Y-86.36
T3
X41.91Y-40.969
X41.91Y-43.509
X41.91Y-46.049
X41.91Y-48.589
X41.91Y-51.129
X41.91Y-53.669
X41.91Y-56.209
X41.91Y-58.749
X41.91Y-61.289
X41.91Y-63.829
X41.91Y-66.369
X41.91Y-68.909
X41.91Y-71.449
X41.91Y-73.989
X41.91Y-76.529
X41.91Y-79.069
X41.91Y-81.609
X41.91Y-84.149
X41.91Y-86.689
X67.31Y-40.969
X67.31Y-43.509
X67.31Y-46.049
X67.31Y-48.589
X67.31Y-51.129
X67.31Y-53.669
X67.31Y-56.209
X67.31Y-58.749
X67.31Y-61.289
X67.31Y-63.829
X67.31Y-66.369
X67.31Y-68.909
X67.31Y-71.449
X67.31Y-73.989
X67.31Y-76.529
X67.31Y-79.069
X67.31Y-81.609
X67.31Y-84.149
X67.31Y-86.689
T4
X112.268Y-40.212
X112.268Y-45.212
X112.268Y-57.865
X112.268Y-62.865
X112.268Y-76.915
X112.268Y-81.915
T0
M30
