%TF.GenerationSoftware,KiCad,Pcbnew,5.1.10-88a1d61d58~88~ubuntu20.04.1*%
%TF.CreationDate,2021-06-19T14:45:42+02:00*%
%TF.ProjectId,WindowControl,57696e64-6f77-4436-9f6e-74726f6c2e6b,rev?*%
%TF.SameCoordinates,Original*%
%TF.FileFunction,Copper,L1,Top*%
%TF.FilePolarity,Positive*%
%FSLAX46Y46*%
G04 Gerber Fmt 4.6, Leading zero omitted, Abs format (unit mm)*
G04 Created by KiCad (PCBNEW 5.1.10-88a1d61d58~88~ubuntu20.04.1) date 2021-06-19 14:45:42*
%MOMM*%
%LPD*%
G01*
G04 APERTURE LIST*
%TA.AperFunction,ComponentPad*%
%ADD10R,1.700000X1.700000*%
%TD*%
%TA.AperFunction,ComponentPad*%
%ADD11O,1.700000X1.700000*%
%TD*%
%TA.AperFunction,ComponentPad*%
%ADD12R,1.560000X1.560000*%
%TD*%
%TA.AperFunction,ComponentPad*%
%ADD13C,1.560000*%
%TD*%
%TA.AperFunction,SMDPad,CuDef*%
%ADD14O,0.430000X0.710000*%
%TD*%
%TA.AperFunction,ComponentPad*%
%ADD15R,2.400000X2.400000*%
%TD*%
%TA.AperFunction,ComponentPad*%
%ADD16C,2.400000*%
%TD*%
%TA.AperFunction,SMDPad,CuDef*%
%ADD17R,0.590000X1.210000*%
%TD*%
%TA.AperFunction,SMDPad,CuDef*%
%ADD18R,1.210000X0.590000*%
%TD*%
%TA.AperFunction,SMDPad,CuDef*%
%ADD19R,1.400000X2.100000*%
%TD*%
%TA.AperFunction,ViaPad*%
%ADD20C,0.800000*%
%TD*%
%TA.AperFunction,Conductor*%
%ADD21C,0.500000*%
%TD*%
%TA.AperFunction,Conductor*%
%ADD22C,0.750000*%
%TD*%
%TA.AperFunction,Conductor*%
%ADD23C,0.330000*%
%TD*%
%TA.AperFunction,Conductor*%
%ADD24C,1.200000*%
%TD*%
%TA.AperFunction,Conductor*%
%ADD25C,0.254000*%
%TD*%
%TA.AperFunction,Conductor*%
%ADD26C,0.100000*%
%TD*%
G04 APERTURE END LIST*
%TO.P,C1,1*%
%TO.N,Net-(C1-Pad1)*%
%TA.AperFunction,SMDPad,CuDef*%
G36*
G01*
X86502001Y-48835000D02*
X85201999Y-48835000D01*
G75*
G02*
X84952000Y-48585001I0J249999D01*
G01*
X84952000Y-47934999D01*
G75*
G02*
X85201999Y-47685000I249999J0D01*
G01*
X86502001Y-47685000D01*
G75*
G02*
X86752000Y-47934999I0J-249999D01*
G01*
X86752000Y-48585001D01*
G75*
G02*
X86502001Y-48835000I-249999J0D01*
G01*
G37*
%TD.AperFunction*%
%TO.P,C1,2*%
%TO.N,GND*%
%TA.AperFunction,SMDPad,CuDef*%
G36*
G01*
X86502001Y-45885000D02*
X85201999Y-45885000D01*
G75*
G02*
X84952000Y-45635001I0J249999D01*
G01*
X84952000Y-44984999D01*
G75*
G02*
X85201999Y-44735000I249999J0D01*
G01*
X86502001Y-44735000D01*
G75*
G02*
X86752000Y-44984999I0J-249999D01*
G01*
X86752000Y-45635001D01*
G75*
G02*
X86502001Y-45885000I-249999J0D01*
G01*
G37*
%TD.AperFunction*%
%TD*%
%TO.P,C2,2*%
%TO.N,GND*%
%TA.AperFunction,SMDPad,CuDef*%
G36*
G01*
X98536999Y-54240000D02*
X99837001Y-54240000D01*
G75*
G02*
X100087000Y-54489999I0J-249999D01*
G01*
X100087000Y-55140001D01*
G75*
G02*
X99837001Y-55390000I-249999J0D01*
G01*
X98536999Y-55390000D01*
G75*
G02*
X98287000Y-55140001I0J249999D01*
G01*
X98287000Y-54489999D01*
G75*
G02*
X98536999Y-54240000I249999J0D01*
G01*
G37*
%TD.AperFunction*%
%TO.P,C2,1*%
%TO.N,+5VD*%
%TA.AperFunction,SMDPad,CuDef*%
G36*
G01*
X98536999Y-51290000D02*
X99837001Y-51290000D01*
G75*
G02*
X100087000Y-51539999I0J-249999D01*
G01*
X100087000Y-52190001D01*
G75*
G02*
X99837001Y-52440000I-249999J0D01*
G01*
X98536999Y-52440000D01*
G75*
G02*
X98287000Y-52190001I0J249999D01*
G01*
X98287000Y-51539999D01*
G75*
G02*
X98536999Y-51290000I249999J0D01*
G01*
G37*
%TD.AperFunction*%
%TD*%
%TO.P,C3,2*%
%TO.N,GND*%
%TA.AperFunction,SMDPad,CuDef*%
G36*
G01*
X98536999Y-89800000D02*
X99837001Y-89800000D01*
G75*
G02*
X100087000Y-90049999I0J-249999D01*
G01*
X100087000Y-90700001D01*
G75*
G02*
X99837001Y-90950000I-249999J0D01*
G01*
X98536999Y-90950000D01*
G75*
G02*
X98287000Y-90700001I0J249999D01*
G01*
X98287000Y-90049999D01*
G75*
G02*
X98536999Y-89800000I249999J0D01*
G01*
G37*
%TD.AperFunction*%
%TO.P,C3,1*%
%TO.N,+5VD*%
%TA.AperFunction,SMDPad,CuDef*%
G36*
G01*
X98536999Y-86850000D02*
X99837001Y-86850000D01*
G75*
G02*
X100087000Y-87099999I0J-249999D01*
G01*
X100087000Y-87750001D01*
G75*
G02*
X99837001Y-88000000I-249999J0D01*
G01*
X98536999Y-88000000D01*
G75*
G02*
X98287000Y-87750001I0J249999D01*
G01*
X98287000Y-87099999D01*
G75*
G02*
X98536999Y-86850000I249999J0D01*
G01*
G37*
%TD.AperFunction*%
%TD*%
%TO.P,C4,1*%
%TO.N,+5VD*%
%TA.AperFunction,SMDPad,CuDef*%
G36*
G01*
X98536999Y-68435000D02*
X99837001Y-68435000D01*
G75*
G02*
X100087000Y-68684999I0J-249999D01*
G01*
X100087000Y-69335001D01*
G75*
G02*
X99837001Y-69585000I-249999J0D01*
G01*
X98536999Y-69585000D01*
G75*
G02*
X98287000Y-69335001I0J249999D01*
G01*
X98287000Y-68684999D01*
G75*
G02*
X98536999Y-68435000I249999J0D01*
G01*
G37*
%TD.AperFunction*%
%TO.P,C4,2*%
%TO.N,GND*%
%TA.AperFunction,SMDPad,CuDef*%
G36*
G01*
X98536999Y-71385000D02*
X99837001Y-71385000D01*
G75*
G02*
X100087000Y-71634999I0J-249999D01*
G01*
X100087000Y-72285001D01*
G75*
G02*
X99837001Y-72535000I-249999J0D01*
G01*
X98536999Y-72535000D01*
G75*
G02*
X98287000Y-72285001I0J249999D01*
G01*
X98287000Y-71634999D01*
G75*
G02*
X98536999Y-71385000I249999J0D01*
G01*
G37*
%TD.AperFunction*%
%TD*%
%TO.P,C5,2*%
%TO.N,GND*%
%TA.AperFunction,SMDPad,CuDef*%
G36*
G01*
X86502001Y-63870000D02*
X85201999Y-63870000D01*
G75*
G02*
X84952000Y-63620001I0J249999D01*
G01*
X84952000Y-62969999D01*
G75*
G02*
X85201999Y-62720000I249999J0D01*
G01*
X86502001Y-62720000D01*
G75*
G02*
X86752000Y-62969999I0J-249999D01*
G01*
X86752000Y-63620001D01*
G75*
G02*
X86502001Y-63870000I-249999J0D01*
G01*
G37*
%TD.AperFunction*%
%TO.P,C5,1*%
%TO.N,Net-(C5-Pad1)*%
%TA.AperFunction,SMDPad,CuDef*%
G36*
G01*
X86502001Y-66820000D02*
X85201999Y-66820000D01*
G75*
G02*
X84952000Y-66570001I0J249999D01*
G01*
X84952000Y-65919999D01*
G75*
G02*
X85201999Y-65670000I249999J0D01*
G01*
X86502001Y-65670000D01*
G75*
G02*
X86752000Y-65919999I0J-249999D01*
G01*
X86752000Y-66570001D01*
G75*
G02*
X86502001Y-66820000I-249999J0D01*
G01*
G37*
%TD.AperFunction*%
%TD*%
%TO.P,C6,1*%
%TO.N,Net-(C6-Pad1)*%
%TA.AperFunction,SMDPad,CuDef*%
G36*
G01*
X86502001Y-84346000D02*
X85201999Y-84346000D01*
G75*
G02*
X84952000Y-84096001I0J249999D01*
G01*
X84952000Y-83445999D01*
G75*
G02*
X85201999Y-83196000I249999J0D01*
G01*
X86502001Y-83196000D01*
G75*
G02*
X86752000Y-83445999I0J-249999D01*
G01*
X86752000Y-84096001D01*
G75*
G02*
X86502001Y-84346000I-249999J0D01*
G01*
G37*
%TD.AperFunction*%
%TO.P,C6,2*%
%TO.N,GND*%
%TA.AperFunction,SMDPad,CuDef*%
G36*
G01*
X86502001Y-81396000D02*
X85201999Y-81396000D01*
G75*
G02*
X84952000Y-81146001I0J249999D01*
G01*
X84952000Y-80495999D01*
G75*
G02*
X85201999Y-80246000I249999J0D01*
G01*
X86502001Y-80246000D01*
G75*
G02*
X86752000Y-80495999I0J-249999D01*
G01*
X86752000Y-81146001D01*
G75*
G02*
X86502001Y-81396000I-249999J0D01*
G01*
G37*
%TD.AperFunction*%
%TD*%
D10*
%TO.P,J1,1*%
%TO.N,GND*%
X131064000Y-42672000D03*
D11*
%TO.P,J1,2*%
%TO.N,Net-(C7-Pad1)*%
X131064000Y-45212000D03*
%TO.P,J1,3*%
%TO.N,PWM1*%
X131064000Y-47752000D03*
%TD*%
%TO.P,J2,3*%
%TO.N,PWM2*%
X131064000Y-67056000D03*
%TO.P,J2,2*%
%TO.N,Net-(C8-Pad1)*%
X131064000Y-64516000D03*
D10*
%TO.P,J2,1*%
%TO.N,GND*%
X131064000Y-61976000D03*
%TD*%
%TO.P,J3,1*%
%TO.N,GND*%
X131064000Y-81280000D03*
D11*
%TO.P,J3,2*%
%TO.N,Net-(C9-Pad1)*%
X131064000Y-83820000D03*
%TO.P,J3,3*%
%TO.N,PWM3*%
X131064000Y-86360000D03*
%TD*%
D10*
%TO.P,J4,1*%
%TO.N,GND*%
X26416000Y-56388000D03*
D11*
%TO.P,J4,2*%
%TO.N,+3V3*%
X26416000Y-58928000D03*
%TO.P,J4,3*%
%TO.N,IO4*%
X26416000Y-61468000D03*
%TO.P,J4,4*%
%TO.N,IO3*%
X26416000Y-64008000D03*
%TO.P,J4,5*%
%TO.N,IO2*%
X26416000Y-66548000D03*
%TO.P,J4,6*%
%TO.N,IO1*%
X26416000Y-69088000D03*
%TD*%
%TO.P,R1,2*%
%TO.N,GND*%
%TA.AperFunction,SMDPad,CuDef*%
G36*
G01*
X99303000Y-44586999D02*
X99303000Y-45837001D01*
G75*
G02*
X99053001Y-46087000I-249999J0D01*
G01*
X98427999Y-46087000D01*
G75*
G02*
X98178000Y-45837001I0J249999D01*
G01*
X98178000Y-44586999D01*
G75*
G02*
X98427999Y-44337000I249999J0D01*
G01*
X99053001Y-44337000D01*
G75*
G02*
X99303000Y-44586999I0J-249999D01*
G01*
G37*
%TD.AperFunction*%
%TO.P,R1,1*%
%TO.N,Net-(C7-Pad1)*%
%TA.AperFunction,SMDPad,CuDef*%
G36*
G01*
X102228000Y-44586999D02*
X102228000Y-45837001D01*
G75*
G02*
X101978001Y-46087000I-249999J0D01*
G01*
X101352999Y-46087000D01*
G75*
G02*
X101103000Y-45837001I0J249999D01*
G01*
X101103000Y-44586999D01*
G75*
G02*
X101352999Y-44337000I249999J0D01*
G01*
X101978001Y-44337000D01*
G75*
G02*
X102228000Y-44586999I0J-249999D01*
G01*
G37*
%TD.AperFunction*%
%TD*%
%TO.P,R2,1*%
%TO.N,Net-(C8-Pad1)*%
%TA.AperFunction,SMDPad,CuDef*%
G36*
G01*
X102228000Y-61858999D02*
X102228000Y-63109001D01*
G75*
G02*
X101978001Y-63359000I-249999J0D01*
G01*
X101352999Y-63359000D01*
G75*
G02*
X101103000Y-63109001I0J249999D01*
G01*
X101103000Y-61858999D01*
G75*
G02*
X101352999Y-61609000I249999J0D01*
G01*
X101978001Y-61609000D01*
G75*
G02*
X102228000Y-61858999I0J-249999D01*
G01*
G37*
%TD.AperFunction*%
%TO.P,R2,2*%
%TO.N,GND*%
%TA.AperFunction,SMDPad,CuDef*%
G36*
G01*
X99303000Y-61858999D02*
X99303000Y-63109001D01*
G75*
G02*
X99053001Y-63359000I-249999J0D01*
G01*
X98427999Y-63359000D01*
G75*
G02*
X98178000Y-63109001I0J249999D01*
G01*
X98178000Y-61858999D01*
G75*
G02*
X98427999Y-61609000I249999J0D01*
G01*
X99053001Y-61609000D01*
G75*
G02*
X99303000Y-61858999I0J-249999D01*
G01*
G37*
%TD.AperFunction*%
%TD*%
%TO.P,R3,1*%
%TO.N,Net-(C9-Pad1)*%
%TA.AperFunction,SMDPad,CuDef*%
G36*
G01*
X102228000Y-79638999D02*
X102228000Y-80889001D01*
G75*
G02*
X101978001Y-81139000I-249999J0D01*
G01*
X101352999Y-81139000D01*
G75*
G02*
X101103000Y-80889001I0J249999D01*
G01*
X101103000Y-79638999D01*
G75*
G02*
X101352999Y-79389000I249999J0D01*
G01*
X101978001Y-79389000D01*
G75*
G02*
X102228000Y-79638999I0J-249999D01*
G01*
G37*
%TD.AperFunction*%
%TO.P,R3,2*%
%TO.N,GND*%
%TA.AperFunction,SMDPad,CuDef*%
G36*
G01*
X99303000Y-79638999D02*
X99303000Y-80889001D01*
G75*
G02*
X99053001Y-81139000I-249999J0D01*
G01*
X98427999Y-81139000D01*
G75*
G02*
X98178000Y-80889001I0J249999D01*
G01*
X98178000Y-79638999D01*
G75*
G02*
X98427999Y-79389000I249999J0D01*
G01*
X99053001Y-79389000D01*
G75*
G02*
X99303000Y-79638999I0J-249999D01*
G01*
G37*
%TD.AperFunction*%
%TD*%
D10*
%TO.P,A1,1*%
%TO.N,Current_Sensor_1_AOUT*%
X76835000Y-59055000D03*
%TD*%
%TO.P,PWM1,1*%
%TO.N,PWM1*%
X121920000Y-52705000D03*
%TD*%
%TO.P,GND,1*%
%TO.N,GND*%
X73056750Y-97155000D03*
%TD*%
%TO.P,A2,1*%
%TO.N,Current_Sensor_2_AOUT*%
X74295000Y-74295000D03*
%TD*%
%TO.P,PWM2,1*%
%TO.N,PWM2*%
X122555000Y-71120000D03*
%TD*%
%TO.P,GND,1*%
%TO.N,GND*%
X95202375Y-97155000D03*
%TD*%
%TO.P,A3,1*%
%TO.N,Current_Sensor_3_AOUT*%
X76200000Y-81280000D03*
%TD*%
%TO.P,PWM3,1*%
%TO.N,PWM3*%
X122555000Y-90805000D03*
%TD*%
%TO.P,GND,1*%
%TO.N,GND*%
X117348000Y-97155000D03*
%TD*%
%TO.P,U1,1*%
%TO.N,+5VD*%
%TA.AperFunction,SMDPad,CuDef*%
G36*
G01*
X95906000Y-51031000D02*
X95906000Y-51331000D01*
G75*
G02*
X95756000Y-51481000I-150000J0D01*
G01*
X94106000Y-51481000D01*
G75*
G02*
X93956000Y-51331000I0J150000D01*
G01*
X93956000Y-51031000D01*
G75*
G02*
X94106000Y-50881000I150000J0D01*
G01*
X95756000Y-50881000D01*
G75*
G02*
X95906000Y-51031000I0J-150000D01*
G01*
G37*
%TD.AperFunction*%
%TO.P,U1,2*%
%TA.AperFunction,SMDPad,CuDef*%
G36*
G01*
X95906000Y-49761000D02*
X95906000Y-50061000D01*
G75*
G02*
X95756000Y-50211000I-150000J0D01*
G01*
X94106000Y-50211000D01*
G75*
G02*
X93956000Y-50061000I0J150000D01*
G01*
X93956000Y-49761000D01*
G75*
G02*
X94106000Y-49611000I150000J0D01*
G01*
X95756000Y-49611000D01*
G75*
G02*
X95906000Y-49761000I0J-150000D01*
G01*
G37*
%TD.AperFunction*%
%TO.P,U1,3*%
%TO.N,Net-(D1-Pad2)*%
%TA.AperFunction,SMDPad,CuDef*%
G36*
G01*
X95906000Y-48491000D02*
X95906000Y-48791000D01*
G75*
G02*
X95756000Y-48941000I-150000J0D01*
G01*
X94106000Y-48941000D01*
G75*
G02*
X93956000Y-48791000I0J150000D01*
G01*
X93956000Y-48491000D01*
G75*
G02*
X94106000Y-48341000I150000J0D01*
G01*
X95756000Y-48341000D01*
G75*
G02*
X95906000Y-48491000I0J-150000D01*
G01*
G37*
%TD.AperFunction*%
%TO.P,U1,4*%
%TA.AperFunction,SMDPad,CuDef*%
G36*
G01*
X95906000Y-47221000D02*
X95906000Y-47521000D01*
G75*
G02*
X95756000Y-47671000I-150000J0D01*
G01*
X94106000Y-47671000D01*
G75*
G02*
X93956000Y-47521000I0J150000D01*
G01*
X93956000Y-47221000D01*
G75*
G02*
X94106000Y-47071000I150000J0D01*
G01*
X95756000Y-47071000D01*
G75*
G02*
X95906000Y-47221000I0J-150000D01*
G01*
G37*
%TD.AperFunction*%
%TO.P,U1,5*%
%TO.N,GND*%
%TA.AperFunction,SMDPad,CuDef*%
G36*
G01*
X90956000Y-47221000D02*
X90956000Y-47521000D01*
G75*
G02*
X90806000Y-47671000I-150000J0D01*
G01*
X89156000Y-47671000D01*
G75*
G02*
X89006000Y-47521000I0J150000D01*
G01*
X89006000Y-47221000D01*
G75*
G02*
X89156000Y-47071000I150000J0D01*
G01*
X90806000Y-47071000D01*
G75*
G02*
X90956000Y-47221000I0J-150000D01*
G01*
G37*
%TD.AperFunction*%
%TO.P,U1,6*%
%TO.N,Net-(C1-Pad1)*%
%TA.AperFunction,SMDPad,CuDef*%
G36*
G01*
X90956000Y-48491000D02*
X90956000Y-48791000D01*
G75*
G02*
X90806000Y-48941000I-150000J0D01*
G01*
X89156000Y-48941000D01*
G75*
G02*
X89006000Y-48791000I0J150000D01*
G01*
X89006000Y-48491000D01*
G75*
G02*
X89156000Y-48341000I150000J0D01*
G01*
X90806000Y-48341000D01*
G75*
G02*
X90956000Y-48491000I0J-150000D01*
G01*
G37*
%TD.AperFunction*%
%TO.P,U1,7*%
%TO.N,Net-(R4-Pad2)*%
%TA.AperFunction,SMDPad,CuDef*%
G36*
G01*
X90956000Y-49761000D02*
X90956000Y-50061000D01*
G75*
G02*
X90806000Y-50211000I-150000J0D01*
G01*
X89156000Y-50211000D01*
G75*
G02*
X89006000Y-50061000I0J150000D01*
G01*
X89006000Y-49761000D01*
G75*
G02*
X89156000Y-49611000I150000J0D01*
G01*
X90806000Y-49611000D01*
G75*
G02*
X90956000Y-49761000I0J-150000D01*
G01*
G37*
%TD.AperFunction*%
%TO.P,U1,8*%
%TO.N,+5VD*%
%TA.AperFunction,SMDPad,CuDef*%
G36*
G01*
X90956000Y-51031000D02*
X90956000Y-51331000D01*
G75*
G02*
X90806000Y-51481000I-150000J0D01*
G01*
X89156000Y-51481000D01*
G75*
G02*
X89006000Y-51331000I0J150000D01*
G01*
X89006000Y-51031000D01*
G75*
G02*
X89156000Y-50881000I150000J0D01*
G01*
X90806000Y-50881000D01*
G75*
G02*
X90956000Y-51031000I0J-150000D01*
G01*
G37*
%TD.AperFunction*%
%TD*%
%TO.P,U2,1*%
%TO.N,+5VD*%
%TA.AperFunction,SMDPad,CuDef*%
G36*
G01*
X95906000Y-69065000D02*
X95906000Y-69365000D01*
G75*
G02*
X95756000Y-69515000I-150000J0D01*
G01*
X94106000Y-69515000D01*
G75*
G02*
X93956000Y-69365000I0J150000D01*
G01*
X93956000Y-69065000D01*
G75*
G02*
X94106000Y-68915000I150000J0D01*
G01*
X95756000Y-68915000D01*
G75*
G02*
X95906000Y-69065000I0J-150000D01*
G01*
G37*
%TD.AperFunction*%
%TO.P,U2,2*%
%TA.AperFunction,SMDPad,CuDef*%
G36*
G01*
X95906000Y-67795000D02*
X95906000Y-68095000D01*
G75*
G02*
X95756000Y-68245000I-150000J0D01*
G01*
X94106000Y-68245000D01*
G75*
G02*
X93956000Y-68095000I0J150000D01*
G01*
X93956000Y-67795000D01*
G75*
G02*
X94106000Y-67645000I150000J0D01*
G01*
X95756000Y-67645000D01*
G75*
G02*
X95906000Y-67795000I0J-150000D01*
G01*
G37*
%TD.AperFunction*%
%TO.P,U2,3*%
%TO.N,Net-(D2-Pad2)*%
%TA.AperFunction,SMDPad,CuDef*%
G36*
G01*
X95906000Y-66525000D02*
X95906000Y-66825000D01*
G75*
G02*
X95756000Y-66975000I-150000J0D01*
G01*
X94106000Y-66975000D01*
G75*
G02*
X93956000Y-66825000I0J150000D01*
G01*
X93956000Y-66525000D01*
G75*
G02*
X94106000Y-66375000I150000J0D01*
G01*
X95756000Y-66375000D01*
G75*
G02*
X95906000Y-66525000I0J-150000D01*
G01*
G37*
%TD.AperFunction*%
%TO.P,U2,4*%
%TA.AperFunction,SMDPad,CuDef*%
G36*
G01*
X95906000Y-65255000D02*
X95906000Y-65555000D01*
G75*
G02*
X95756000Y-65705000I-150000J0D01*
G01*
X94106000Y-65705000D01*
G75*
G02*
X93956000Y-65555000I0J150000D01*
G01*
X93956000Y-65255000D01*
G75*
G02*
X94106000Y-65105000I150000J0D01*
G01*
X95756000Y-65105000D01*
G75*
G02*
X95906000Y-65255000I0J-150000D01*
G01*
G37*
%TD.AperFunction*%
%TO.P,U2,5*%
%TO.N,GND*%
%TA.AperFunction,SMDPad,CuDef*%
G36*
G01*
X90956000Y-65255000D02*
X90956000Y-65555000D01*
G75*
G02*
X90806000Y-65705000I-150000J0D01*
G01*
X89156000Y-65705000D01*
G75*
G02*
X89006000Y-65555000I0J150000D01*
G01*
X89006000Y-65255000D01*
G75*
G02*
X89156000Y-65105000I150000J0D01*
G01*
X90806000Y-65105000D01*
G75*
G02*
X90956000Y-65255000I0J-150000D01*
G01*
G37*
%TD.AperFunction*%
%TO.P,U2,6*%
%TO.N,Net-(C5-Pad1)*%
%TA.AperFunction,SMDPad,CuDef*%
G36*
G01*
X90956000Y-66525000D02*
X90956000Y-66825000D01*
G75*
G02*
X90806000Y-66975000I-150000J0D01*
G01*
X89156000Y-66975000D01*
G75*
G02*
X89006000Y-66825000I0J150000D01*
G01*
X89006000Y-66525000D01*
G75*
G02*
X89156000Y-66375000I150000J0D01*
G01*
X90806000Y-66375000D01*
G75*
G02*
X90956000Y-66525000I0J-150000D01*
G01*
G37*
%TD.AperFunction*%
%TO.P,U2,7*%
%TO.N,Net-(R5-Pad2)*%
%TA.AperFunction,SMDPad,CuDef*%
G36*
G01*
X90956000Y-67795000D02*
X90956000Y-68095000D01*
G75*
G02*
X90806000Y-68245000I-150000J0D01*
G01*
X89156000Y-68245000D01*
G75*
G02*
X89006000Y-68095000I0J150000D01*
G01*
X89006000Y-67795000D01*
G75*
G02*
X89156000Y-67645000I150000J0D01*
G01*
X90806000Y-67645000D01*
G75*
G02*
X90956000Y-67795000I0J-150000D01*
G01*
G37*
%TD.AperFunction*%
%TO.P,U2,8*%
%TO.N,+5VD*%
%TA.AperFunction,SMDPad,CuDef*%
G36*
G01*
X90956000Y-69065000D02*
X90956000Y-69365000D01*
G75*
G02*
X90806000Y-69515000I-150000J0D01*
G01*
X89156000Y-69515000D01*
G75*
G02*
X89006000Y-69365000I0J150000D01*
G01*
X89006000Y-69065000D01*
G75*
G02*
X89156000Y-68915000I150000J0D01*
G01*
X90806000Y-68915000D01*
G75*
G02*
X90956000Y-69065000I0J-150000D01*
G01*
G37*
%TD.AperFunction*%
%TD*%
%TO.P,U3,8*%
%TO.N,+5VD*%
%TA.AperFunction,SMDPad,CuDef*%
G36*
G01*
X90956000Y-86591000D02*
X90956000Y-86891000D01*
G75*
G02*
X90806000Y-87041000I-150000J0D01*
G01*
X89156000Y-87041000D01*
G75*
G02*
X89006000Y-86891000I0J150000D01*
G01*
X89006000Y-86591000D01*
G75*
G02*
X89156000Y-86441000I150000J0D01*
G01*
X90806000Y-86441000D01*
G75*
G02*
X90956000Y-86591000I0J-150000D01*
G01*
G37*
%TD.AperFunction*%
%TO.P,U3,7*%
%TO.N,Net-(R6-Pad2)*%
%TA.AperFunction,SMDPad,CuDef*%
G36*
G01*
X90956000Y-85321000D02*
X90956000Y-85621000D01*
G75*
G02*
X90806000Y-85771000I-150000J0D01*
G01*
X89156000Y-85771000D01*
G75*
G02*
X89006000Y-85621000I0J150000D01*
G01*
X89006000Y-85321000D01*
G75*
G02*
X89156000Y-85171000I150000J0D01*
G01*
X90806000Y-85171000D01*
G75*
G02*
X90956000Y-85321000I0J-150000D01*
G01*
G37*
%TD.AperFunction*%
%TO.P,U3,6*%
%TO.N,Net-(C6-Pad1)*%
%TA.AperFunction,SMDPad,CuDef*%
G36*
G01*
X90956000Y-84051000D02*
X90956000Y-84351000D01*
G75*
G02*
X90806000Y-84501000I-150000J0D01*
G01*
X89156000Y-84501000D01*
G75*
G02*
X89006000Y-84351000I0J150000D01*
G01*
X89006000Y-84051000D01*
G75*
G02*
X89156000Y-83901000I150000J0D01*
G01*
X90806000Y-83901000D01*
G75*
G02*
X90956000Y-84051000I0J-150000D01*
G01*
G37*
%TD.AperFunction*%
%TO.P,U3,5*%
%TO.N,GND*%
%TA.AperFunction,SMDPad,CuDef*%
G36*
G01*
X90956000Y-82781000D02*
X90956000Y-83081000D01*
G75*
G02*
X90806000Y-83231000I-150000J0D01*
G01*
X89156000Y-83231000D01*
G75*
G02*
X89006000Y-83081000I0J150000D01*
G01*
X89006000Y-82781000D01*
G75*
G02*
X89156000Y-82631000I150000J0D01*
G01*
X90806000Y-82631000D01*
G75*
G02*
X90956000Y-82781000I0J-150000D01*
G01*
G37*
%TD.AperFunction*%
%TO.P,U3,4*%
%TO.N,Net-(D3-Pad2)*%
%TA.AperFunction,SMDPad,CuDef*%
G36*
G01*
X95906000Y-82781000D02*
X95906000Y-83081000D01*
G75*
G02*
X95756000Y-83231000I-150000J0D01*
G01*
X94106000Y-83231000D01*
G75*
G02*
X93956000Y-83081000I0J150000D01*
G01*
X93956000Y-82781000D01*
G75*
G02*
X94106000Y-82631000I150000J0D01*
G01*
X95756000Y-82631000D01*
G75*
G02*
X95906000Y-82781000I0J-150000D01*
G01*
G37*
%TD.AperFunction*%
%TO.P,U3,3*%
%TA.AperFunction,SMDPad,CuDef*%
G36*
G01*
X95906000Y-84051000D02*
X95906000Y-84351000D01*
G75*
G02*
X95756000Y-84501000I-150000J0D01*
G01*
X94106000Y-84501000D01*
G75*
G02*
X93956000Y-84351000I0J150000D01*
G01*
X93956000Y-84051000D01*
G75*
G02*
X94106000Y-83901000I150000J0D01*
G01*
X95756000Y-83901000D01*
G75*
G02*
X95906000Y-84051000I0J-150000D01*
G01*
G37*
%TD.AperFunction*%
%TO.P,U3,2*%
%TO.N,+5VD*%
%TA.AperFunction,SMDPad,CuDef*%
G36*
G01*
X95906000Y-85321000D02*
X95906000Y-85621000D01*
G75*
G02*
X95756000Y-85771000I-150000J0D01*
G01*
X94106000Y-85771000D01*
G75*
G02*
X93956000Y-85621000I0J150000D01*
G01*
X93956000Y-85321000D01*
G75*
G02*
X94106000Y-85171000I150000J0D01*
G01*
X95756000Y-85171000D01*
G75*
G02*
X95906000Y-85321000I0J-150000D01*
G01*
G37*
%TD.AperFunction*%
%TO.P,U3,1*%
%TA.AperFunction,SMDPad,CuDef*%
G36*
G01*
X95906000Y-86591000D02*
X95906000Y-86891000D01*
G75*
G02*
X95756000Y-87041000I-150000J0D01*
G01*
X94106000Y-87041000D01*
G75*
G02*
X93956000Y-86891000I0J150000D01*
G01*
X93956000Y-86591000D01*
G75*
G02*
X94106000Y-86441000I150000J0D01*
G01*
X95756000Y-86441000D01*
G75*
G02*
X95906000Y-86591000I0J-150000D01*
G01*
G37*
%TD.AperFunction*%
%TD*%
D12*
%TO.P,U4,1*%
%TO.N,+3V3*%
X67310000Y-86689000D03*
D13*
%TO.P,U4,2*%
%TO.N,Net-(U4-Pad2)*%
X67310000Y-84149000D03*
%TO.P,U4,19*%
%TO.N,+5V*%
X67310000Y-40969000D03*
%TO.P,U4,3*%
%TO.N,Net-(U4-Pad3)*%
X67310000Y-81609000D03*
%TO.P,U4,4*%
%TO.N,Net-(U4-Pad4)*%
X67310000Y-79069000D03*
%TO.P,U4,5*%
%TO.N,Current_Sensor_3_AOUT*%
X67310000Y-76529000D03*
%TO.P,U4,6*%
%TO.N,Net-(U4-Pad6)*%
X67310000Y-73989000D03*
%TO.P,U4,7*%
%TO.N,Current_Sensor_2_AOUT*%
X67310000Y-71449000D03*
%TO.P,U4,8*%
%TO.N,Current_Sensor_1_AOUT*%
X67310000Y-68909000D03*
%TO.P,U4,9*%
%TO.N,PWM3*%
X67310000Y-66369000D03*
%TO.P,U4,10*%
%TO.N,PWM2*%
X67310000Y-63829000D03*
%TO.P,U4,11*%
%TO.N,PWM1*%
X67310000Y-61289000D03*
%TO.P,U4,12*%
%TO.N,Net-(U4-Pad12)*%
X67310000Y-58749000D03*
%TO.P,U4,13*%
%TO.N,Net-(U4-Pad13)*%
X67310000Y-56209000D03*
%TO.P,U4,14*%
%TO.N,GND*%
X67310000Y-53669000D03*
%TO.P,U4,15*%
%TO.N,Net-(U4-Pad15)*%
X67310000Y-51129000D03*
%TO.P,U4,16*%
%TO.N,Net-(U4-Pad16)*%
X67310000Y-48589000D03*
%TO.P,U4,17*%
%TO.N,Net-(U4-Pad17)*%
X67310000Y-46049000D03*
%TO.P,U4,18*%
%TO.N,Net-(U4-Pad18)*%
X67310000Y-43509000D03*
%TO.P,U4,20*%
%TO.N,GND*%
X41910000Y-86689000D03*
%TO.P,U4,21*%
%TO.N,IO1*%
X41910000Y-84149000D03*
%TO.P,U4,22*%
%TO.N,IO2*%
X41910000Y-81609000D03*
%TO.P,U4,23*%
%TO.N,Net-(U4-Pad23)*%
X41910000Y-79069000D03*
%TO.P,U4,24*%
%TO.N,Net-(U4-Pad24)*%
X41910000Y-76529000D03*
%TO.P,U4,25*%
%TO.N,IO3*%
X41910000Y-73989000D03*
%TO.P,U4,26*%
%TO.N,GND*%
X41910000Y-71449000D03*
%TO.P,U4,27*%
%TO.N,Net-(U4-Pad27)*%
X41910000Y-68909000D03*
%TO.P,U4,28*%
%TO.N,IO4*%
X41910000Y-66369000D03*
%TO.P,U4,29*%
%TO.N,Net-(U4-Pad29)*%
X41910000Y-63829000D03*
%TO.P,U4,30*%
%TO.N,Net-(U4-Pad30)*%
X41910000Y-61289000D03*
%TO.P,U4,31*%
%TO.N,Net-(U4-Pad31)*%
X41910000Y-58749000D03*
%TO.P,U4,32*%
%TO.N,Net-(U4-Pad32)*%
X41910000Y-56209000D03*
%TO.P,U4,33*%
%TO.N,Net-(U4-Pad33)*%
X41910000Y-53669000D03*
%TO.P,U4,34*%
%TO.N,Net-(U4-Pad34)*%
X41910000Y-51129000D03*
%TO.P,U4,35*%
%TO.N,Net-(U4-Pad35)*%
X41910000Y-48589000D03*
%TO.P,U4,36*%
%TO.N,Net-(U4-Pad36)*%
X41910000Y-46049000D03*
%TO.P,U4,37*%
%TO.N,Net-(U4-Pad37)*%
X41910000Y-43509000D03*
%TO.P,U4,38*%
%TO.N,Net-(U4-Pad38)*%
X41910000Y-40969000D03*
%TD*%
D14*
%TO.P,D4,1*%
%TO.N,Current_Sensor_1_AOUT*%
X77980540Y-52355160D03*
%TO.P,D4,2*%
%TO.N,GND*%
X77980540Y-54345160D03*
%TD*%
%TO.P,D5,2*%
%TO.N,GND*%
X77853540Y-74030160D03*
%TO.P,D5,1*%
%TO.N,Current_Sensor_2_AOUT*%
X77853540Y-72040160D03*
%TD*%
%TO.P,D6,1*%
%TO.N,Current_Sensor_3_AOUT*%
X77599540Y-87915160D03*
%TO.P,D6,2*%
%TO.N,GND*%
X77599540Y-89905160D03*
%TD*%
%TO.P,R4,1*%
%TO.N,Current_Sensor_1_AOUT*%
%TA.AperFunction,SMDPad,CuDef*%
G36*
G01*
X79255000Y-50155001D02*
X79255000Y-48904999D01*
G75*
G02*
X79504999Y-48655000I249999J0D01*
G01*
X80130001Y-48655000D01*
G75*
G02*
X80380000Y-48904999I0J-249999D01*
G01*
X80380000Y-50155001D01*
G75*
G02*
X80130001Y-50405000I-249999J0D01*
G01*
X79504999Y-50405000D01*
G75*
G02*
X79255000Y-50155001I0J249999D01*
G01*
G37*
%TD.AperFunction*%
%TO.P,R4,2*%
%TO.N,Net-(R4-Pad2)*%
%TA.AperFunction,SMDPad,CuDef*%
G36*
G01*
X82180000Y-50155001D02*
X82180000Y-48904999D01*
G75*
G02*
X82429999Y-48655000I249999J0D01*
G01*
X83055001Y-48655000D01*
G75*
G02*
X83305000Y-48904999I0J-249999D01*
G01*
X83305000Y-50155001D01*
G75*
G02*
X83055001Y-50405000I-249999J0D01*
G01*
X82429999Y-50405000D01*
G75*
G02*
X82180000Y-50155001I0J249999D01*
G01*
G37*
%TD.AperFunction*%
%TD*%
%TO.P,R5,2*%
%TO.N,Net-(R5-Pad2)*%
%TA.AperFunction,SMDPad,CuDef*%
G36*
G01*
X82180000Y-68697001D02*
X82180000Y-67446999D01*
G75*
G02*
X82429999Y-67197000I249999J0D01*
G01*
X83055001Y-67197000D01*
G75*
G02*
X83305000Y-67446999I0J-249999D01*
G01*
X83305000Y-68697001D01*
G75*
G02*
X83055001Y-68947000I-249999J0D01*
G01*
X82429999Y-68947000D01*
G75*
G02*
X82180000Y-68697001I0J249999D01*
G01*
G37*
%TD.AperFunction*%
%TO.P,R5,1*%
%TO.N,Current_Sensor_2_AOUT*%
%TA.AperFunction,SMDPad,CuDef*%
G36*
G01*
X79255000Y-68697001D02*
X79255000Y-67446999D01*
G75*
G02*
X79504999Y-67197000I249999J0D01*
G01*
X80130001Y-67197000D01*
G75*
G02*
X80380000Y-67446999I0J-249999D01*
G01*
X80380000Y-68697001D01*
G75*
G02*
X80130001Y-68947000I-249999J0D01*
G01*
X79504999Y-68947000D01*
G75*
G02*
X79255000Y-68697001I0J249999D01*
G01*
G37*
%TD.AperFunction*%
%TD*%
%TO.P,R6,1*%
%TO.N,Current_Sensor_3_AOUT*%
%TA.AperFunction,SMDPad,CuDef*%
G36*
G01*
X79255000Y-85969001D02*
X79255000Y-84718999D01*
G75*
G02*
X79504999Y-84469000I249999J0D01*
G01*
X80130001Y-84469000D01*
G75*
G02*
X80380000Y-84718999I0J-249999D01*
G01*
X80380000Y-85969001D01*
G75*
G02*
X80130001Y-86219000I-249999J0D01*
G01*
X79504999Y-86219000D01*
G75*
G02*
X79255000Y-85969001I0J249999D01*
G01*
G37*
%TD.AperFunction*%
%TO.P,R6,2*%
%TO.N,Net-(R6-Pad2)*%
%TA.AperFunction,SMDPad,CuDef*%
G36*
G01*
X82180000Y-85969001D02*
X82180000Y-84718999D01*
G75*
G02*
X82429999Y-84469000I249999J0D01*
G01*
X83055001Y-84469000D01*
G75*
G02*
X83305000Y-84718999I0J-249999D01*
G01*
X83305000Y-85969001D01*
G75*
G02*
X83055001Y-86219000I-249999J0D01*
G01*
X82429999Y-86219000D01*
G75*
G02*
X82180000Y-85969001I0J249999D01*
G01*
G37*
%TD.AperFunction*%
%TD*%
D15*
%TO.P,C7,1*%
%TO.N,Net-(C7-Pad1)*%
X112268000Y-45212000D03*
D16*
%TO.P,C7,2*%
%TO.N,GND*%
X112268000Y-40212000D03*
%TD*%
%TO.P,C8,2*%
%TO.N,GND*%
X112268000Y-57865000D03*
D15*
%TO.P,C8,1*%
%TO.N,Net-(C8-Pad1)*%
X112268000Y-62865000D03*
%TD*%
%TO.P,C9,1*%
%TO.N,Net-(C9-Pad1)*%
X112268000Y-81915000D03*
D16*
%TO.P,C9,2*%
%TO.N,GND*%
X112268000Y-76915000D03*
%TD*%
%TO.P,F1,1*%
%TO.N,Net-(F1-Pad1)*%
%TA.AperFunction,SMDPad,CuDef*%
G36*
G01*
X91500000Y-30386000D02*
X92650000Y-30386000D01*
G75*
G02*
X92900000Y-30636000I0J-250000D01*
G01*
X92900000Y-31736000D01*
G75*
G02*
X92650000Y-31986000I-250000J0D01*
G01*
X91500000Y-31986000D01*
G75*
G02*
X91250000Y-31736000I0J250000D01*
G01*
X91250000Y-30636000D01*
G75*
G02*
X91500000Y-30386000I250000J0D01*
G01*
G37*
%TD.AperFunction*%
%TO.P,F1,2*%
%TO.N,+5VD*%
%TA.AperFunction,SMDPad,CuDef*%
G36*
G01*
X91500000Y-33236000D02*
X92650000Y-33236000D01*
G75*
G02*
X92900000Y-33486000I0J-250000D01*
G01*
X92900000Y-34586000D01*
G75*
G02*
X92650000Y-34836000I-250000J0D01*
G01*
X91500000Y-34836000D01*
G75*
G02*
X91250000Y-34586000I0J250000D01*
G01*
X91250000Y-33486000D01*
G75*
G02*
X91500000Y-33236000I250000J0D01*
G01*
G37*
%TD.AperFunction*%
%TD*%
D10*
%TO.P,J5,1*%
%TO.N,Net-(F1-Pad1)*%
X92075000Y-24765000D03*
D11*
%TO.P,J5,2*%
%TO.N,GND*%
X94615000Y-24765000D03*
%TD*%
D17*
%TO.P,U5,1*%
%TO.N,PWM2*%
X104074000Y-69245000D03*
%TO.P,U5,2*%
%TO.N,GND*%
X103124000Y-69245000D03*
%TO.P,U5,3*%
%TO.N,Net-(C8-Pad1)*%
X102174000Y-69245000D03*
%TO.P,U5,4*%
%TO.N,Net-(U5-Pad4)*%
X102174000Y-71755000D03*
%TO.P,U5,5*%
%TO.N,Net-(U5-Pad5)*%
X104074000Y-71755000D03*
%TD*%
%TO.P,U6,5*%
%TO.N,Net-(U6-Pad5)*%
X104074000Y-90155000D03*
%TO.P,U6,4*%
%TO.N,Net-(U6-Pad4)*%
X102174000Y-90155000D03*
%TO.P,U6,3*%
%TO.N,Net-(C9-Pad1)*%
X102174000Y-87645000D03*
%TO.P,U6,2*%
%TO.N,GND*%
X103124000Y-87645000D03*
%TO.P,U6,1*%
%TO.N,PWM3*%
X104074000Y-87645000D03*
%TD*%
%TO.P,U7,5*%
%TO.N,Net-(U7-Pad5)*%
X104074000Y-54595000D03*
%TO.P,U7,4*%
%TO.N,Net-(U7-Pad4)*%
X102174000Y-54595000D03*
%TO.P,U7,3*%
%TO.N,Net-(C7-Pad1)*%
X102174000Y-52085000D03*
%TO.P,U7,2*%
%TO.N,GND*%
X103124000Y-52085000D03*
%TO.P,U7,1*%
%TO.N,PWM1*%
X104074000Y-52085000D03*
%TD*%
D18*
%TO.P,U8,1*%
%TO.N,IO3*%
X33670000Y-63820000D03*
%TO.P,U8,2*%
%TO.N,GND*%
X33670000Y-64770000D03*
%TO.P,U8,3*%
%TO.N,IO2*%
X33670000Y-65720000D03*
%TO.P,U8,4*%
%TO.N,IO1*%
X36180000Y-65720000D03*
%TO.P,U8,5*%
%TO.N,IO4*%
X36180000Y-63820000D03*
%TD*%
D10*
%TO.P,M2_VCC,1*%
%TO.N,Net-(C8-Pad1)*%
X121920000Y-57785000D03*
%TD*%
%TO.P,M3_VCC,1*%
%TO.N,Net-(C9-Pad1)*%
X122555000Y-77470000D03*
%TD*%
%TO.P,M1_VCC,1*%
%TO.N,Net-(C7-Pad1)*%
X121285000Y-38100000D03*
%TD*%
D19*
%TO.P,D1,1*%
%TO.N,Net-(C7-Pad1)*%
X103292000Y-48133000D03*
%TO.P,D1,2*%
%TO.N,Net-(D1-Pad2)*%
X98892000Y-48133000D03*
%TD*%
%TO.P,D2,1*%
%TO.N,Net-(C8-Pad1)*%
X103251000Y-65405000D03*
%TO.P,D2,2*%
%TO.N,Net-(D2-Pad2)*%
X98851000Y-65405000D03*
%TD*%
%TO.P,D3,2*%
%TO.N,Net-(D3-Pad2)*%
X98724000Y-83185000D03*
%TO.P,D3,1*%
%TO.N,Net-(C9-Pad1)*%
X103124000Y-83185000D03*
%TD*%
%TO.P,D7,1*%
%TO.N,GND*%
%TA.AperFunction,SMDPad,CuDef*%
G36*
G01*
X100594000Y-30236000D02*
X101844000Y-30236000D01*
G75*
G02*
X102094000Y-30486000I0J-250000D01*
G01*
X102094000Y-31236000D01*
G75*
G02*
X101844000Y-31486000I-250000J0D01*
G01*
X100594000Y-31486000D01*
G75*
G02*
X100344000Y-31236000I0J250000D01*
G01*
X100344000Y-30486000D01*
G75*
G02*
X100594000Y-30236000I250000J0D01*
G01*
G37*
%TD.AperFunction*%
%TO.P,D7,2*%
%TO.N,Net-(D7-Pad2)*%
%TA.AperFunction,SMDPad,CuDef*%
G36*
G01*
X100594000Y-33036000D02*
X101844000Y-33036000D01*
G75*
G02*
X102094000Y-33286000I0J-250000D01*
G01*
X102094000Y-34036000D01*
G75*
G02*
X101844000Y-34286000I-250000J0D01*
G01*
X100594000Y-34286000D01*
G75*
G02*
X100344000Y-34036000I0J250000D01*
G01*
X100344000Y-33286000D01*
G75*
G02*
X100594000Y-33036000I250000J0D01*
G01*
G37*
%TD.AperFunction*%
%TD*%
%TO.P,R7,1*%
%TO.N,+5VD*%
%TA.AperFunction,SMDPad,CuDef*%
G36*
G01*
X101844001Y-39109000D02*
X100593999Y-39109000D01*
G75*
G02*
X100344000Y-38859001I0J249999D01*
G01*
X100344000Y-38233999D01*
G75*
G02*
X100593999Y-37984000I249999J0D01*
G01*
X101844001Y-37984000D01*
G75*
G02*
X102094000Y-38233999I0J-249999D01*
G01*
X102094000Y-38859001D01*
G75*
G02*
X101844001Y-39109000I-249999J0D01*
G01*
G37*
%TD.AperFunction*%
%TO.P,R7,2*%
%TO.N,Net-(D7-Pad2)*%
%TA.AperFunction,SMDPad,CuDef*%
G36*
G01*
X101844001Y-36184000D02*
X100593999Y-36184000D01*
G75*
G02*
X100344000Y-35934001I0J249999D01*
G01*
X100344000Y-35308999D01*
G75*
G02*
X100593999Y-35059000I249999J0D01*
G01*
X101844001Y-35059000D01*
G75*
G02*
X102094000Y-35308999I0J-249999D01*
G01*
X102094000Y-35934001D01*
G75*
G02*
X101844001Y-36184000I-249999J0D01*
G01*
G37*
%TD.AperFunction*%
%TD*%
%TO.P,C11,1*%
%TO.N,Current_Sensor_3_AOUT*%
%TA.AperFunction,SMDPad,CuDef*%
G36*
G01*
X73644999Y-86850000D02*
X74945001Y-86850000D01*
G75*
G02*
X75195000Y-87099999I0J-249999D01*
G01*
X75195000Y-87750001D01*
G75*
G02*
X74945001Y-88000000I-249999J0D01*
G01*
X73644999Y-88000000D01*
G75*
G02*
X73395000Y-87750001I0J249999D01*
G01*
X73395000Y-87099999D01*
G75*
G02*
X73644999Y-86850000I249999J0D01*
G01*
G37*
%TD.AperFunction*%
%TO.P,C11,2*%
%TO.N,GND*%
%TA.AperFunction,SMDPad,CuDef*%
G36*
G01*
X73644999Y-89800000D02*
X74945001Y-89800000D01*
G75*
G02*
X75195000Y-90049999I0J-249999D01*
G01*
X75195000Y-90700001D01*
G75*
G02*
X74945001Y-90950000I-249999J0D01*
G01*
X73644999Y-90950000D01*
G75*
G02*
X73395000Y-90700001I0J249999D01*
G01*
X73395000Y-90049999D01*
G75*
G02*
X73644999Y-89800000I249999J0D01*
G01*
G37*
%TD.AperFunction*%
%TD*%
%TO.P,C10,2*%
%TO.N,GND*%
%TA.AperFunction,SMDPad,CuDef*%
G36*
G01*
X77485001Y-64300000D02*
X76184999Y-64300000D01*
G75*
G02*
X75935000Y-64050001I0J249999D01*
G01*
X75935000Y-63399999D01*
G75*
G02*
X76184999Y-63150000I249999J0D01*
G01*
X77485001Y-63150000D01*
G75*
G02*
X77735000Y-63399999I0J-249999D01*
G01*
X77735000Y-64050001D01*
G75*
G02*
X77485001Y-64300000I-249999J0D01*
G01*
G37*
%TD.AperFunction*%
%TO.P,C10,1*%
%TO.N,Current_Sensor_2_AOUT*%
%TA.AperFunction,SMDPad,CuDef*%
G36*
G01*
X77485001Y-67250000D02*
X76184999Y-67250000D01*
G75*
G02*
X75935000Y-67000001I0J249999D01*
G01*
X75935000Y-66349999D01*
G75*
G02*
X76184999Y-66100000I249999J0D01*
G01*
X77485001Y-66100000D01*
G75*
G02*
X77735000Y-66349999I0J-249999D01*
G01*
X77735000Y-67000001D01*
G75*
G02*
X77485001Y-67250000I-249999J0D01*
G01*
G37*
%TD.AperFunction*%
%TD*%
%TO.P,C12,1*%
%TO.N,Current_Sensor_1_AOUT*%
%TA.AperFunction,SMDPad,CuDef*%
G36*
G01*
X74945001Y-48200000D02*
X73644999Y-48200000D01*
G75*
G02*
X73395000Y-47950001I0J249999D01*
G01*
X73395000Y-47299999D01*
G75*
G02*
X73644999Y-47050000I249999J0D01*
G01*
X74945001Y-47050000D01*
G75*
G02*
X75195000Y-47299999I0J-249999D01*
G01*
X75195000Y-47950001D01*
G75*
G02*
X74945001Y-48200000I-249999J0D01*
G01*
G37*
%TD.AperFunction*%
%TO.P,C12,2*%
%TO.N,GND*%
%TA.AperFunction,SMDPad,CuDef*%
G36*
G01*
X74945001Y-45250000D02*
X73644999Y-45250000D01*
G75*
G02*
X73395000Y-45000001I0J249999D01*
G01*
X73395000Y-44349999D01*
G75*
G02*
X73644999Y-44100000I249999J0D01*
G01*
X74945001Y-44100000D01*
G75*
G02*
X75195000Y-44349999I0J-249999D01*
G01*
X75195000Y-45000001D01*
G75*
G02*
X74945001Y-45250000I-249999J0D01*
G01*
G37*
%TD.AperFunction*%
%TD*%
D20*
%TO.N,+5VD*%
X89916000Y-40005000D03*
X91524666Y-40005000D03*
X93133332Y-40005000D03*
X94742000Y-40005000D03*
X89916000Y-41275000D03*
X91524666Y-41275000D03*
X93133332Y-41275000D03*
X94742000Y-41275000D03*
%TO.N,GND*%
X85852000Y-43815000D03*
X88138000Y-46990000D03*
X77978000Y-55372000D03*
X77851000Y-75311000D03*
X77597000Y-91186000D03*
X85852000Y-79248000D03*
X88011000Y-82677000D03*
X88011000Y-64770000D03*
X98679000Y-78359000D03*
X103124000Y-86106000D03*
X97155000Y-45212000D03*
X101219000Y-29083000D03*
X99060000Y-73660000D03*
X99060000Y-56515000D03*
X103505000Y-50800000D03*
X100330000Y-92075000D03*
X97790000Y-91440000D03*
X74295000Y-92075000D03*
X78740000Y-62865000D03*
X74930000Y-62865000D03*
X76200000Y-43815000D03*
X72390000Y-43815000D03*
X85852000Y-62445010D03*
X103191947Y-67699851D03*
X95718703Y-63900799D03*
X31750000Y-64770000D03*
%TO.N,+5VD*%
X89916000Y-38862000D03*
X91524666Y-38862000D03*
X93133332Y-38862000D03*
X94742000Y-38862000D03*
X101219000Y-40132000D03*
X97155000Y-50165000D03*
X97155000Y-51435000D03*
X99060000Y-50800000D03*
X88265000Y-51435000D03*
X99060000Y-67945000D03*
X87630000Y-86995000D03*
X97155000Y-86995000D03*
X97155000Y-85725000D03*
X99060000Y-86360000D03*
X87630000Y-69735008D03*
X96883064Y-69735008D03*
X96236452Y-68034988D03*
%TD*%
D21*
%TO.N,Net-(C1-Pad1)*%
X85852000Y-48260000D02*
X87249000Y-48260000D01*
X87630000Y-48641000D02*
X89981000Y-48641000D01*
X87249000Y-48260000D02*
X87630000Y-48641000D01*
%TO.N,GND*%
X85852000Y-45310000D02*
X85852000Y-43815000D01*
X88519000Y-47371000D02*
X88138000Y-46990000D01*
X89981000Y-47371000D02*
X88519000Y-47371000D01*
X77980540Y-55369460D02*
X77978000Y-55372000D01*
X77980540Y-54345160D02*
X77980540Y-55369460D01*
X77853540Y-75308460D02*
X77851000Y-75311000D01*
X77853540Y-74030160D02*
X77853540Y-75308460D01*
X77599540Y-91183460D02*
X77597000Y-91186000D01*
X77599540Y-89905160D02*
X77599540Y-91183460D01*
X85852000Y-80821000D02*
X85852000Y-79248000D01*
X88265000Y-82931000D02*
X88011000Y-82677000D01*
X89981000Y-82931000D02*
X88265000Y-82931000D01*
X88646000Y-65405000D02*
X88011000Y-64770000D01*
X89981000Y-65405000D02*
X88646000Y-65405000D01*
X98740500Y-78420500D02*
X98679000Y-78359000D01*
X98740500Y-80264000D02*
X98740500Y-78420500D01*
X103124000Y-87645000D02*
X103124000Y-86106000D01*
X98740500Y-45212000D02*
X97155000Y-45212000D01*
D22*
X101219000Y-30861000D02*
X101219000Y-29083000D01*
X99187000Y-73533000D02*
X99060000Y-73660000D01*
X99187000Y-71960000D02*
X99187000Y-73533000D01*
X99187000Y-56388000D02*
X99060000Y-56515000D01*
X99187000Y-54815000D02*
X99187000Y-56388000D01*
D21*
X103124000Y-51181000D02*
X103505000Y-50800000D01*
X103124000Y-52085000D02*
X103124000Y-51181000D01*
X99187000Y-90932000D02*
X100330000Y-92075000D01*
X99187000Y-90375000D02*
X99187000Y-90932000D01*
X98855000Y-90375000D02*
X97790000Y-91440000D01*
X99187000Y-90375000D02*
X98855000Y-90375000D01*
X74295000Y-90375000D02*
X74295000Y-92075000D01*
X77880000Y-63725000D02*
X78740000Y-62865000D01*
X76835000Y-63725000D02*
X77880000Y-63725000D01*
X75790000Y-63725000D02*
X74930000Y-62865000D01*
X76835000Y-63725000D02*
X75790000Y-63725000D01*
X75340000Y-44675000D02*
X76200000Y-43815000D01*
X74295000Y-44675000D02*
X75340000Y-44675000D01*
X73250000Y-44675000D02*
X72390000Y-43815000D01*
X74295000Y-44675000D02*
X73250000Y-44675000D01*
X85852000Y-63295000D02*
X85852000Y-62445010D01*
X103124000Y-67767798D02*
X103191947Y-67699851D01*
D22*
X97135502Y-62484000D02*
X95718703Y-63900799D01*
X98740500Y-62484000D02*
X97135502Y-62484000D01*
D21*
X103124000Y-69245000D02*
X103124000Y-67767798D01*
X33670000Y-64770000D02*
X31750000Y-64770000D01*
%TO.N,Net-(C5-Pad1)*%
X85852000Y-66245000D02*
X87327000Y-66245000D01*
X87757000Y-66675000D02*
X89981000Y-66675000D01*
X87327000Y-66245000D02*
X87757000Y-66675000D01*
%TO.N,Net-(C6-Pad1)*%
X85852000Y-83771000D02*
X87581000Y-83771000D01*
X88011000Y-84201000D02*
X89981000Y-84201000D01*
X87581000Y-83771000D02*
X88011000Y-84201000D01*
D22*
%TO.N,Net-(D1-Pad2)*%
X94931000Y-47371000D02*
X96901000Y-47371000D01*
X97663000Y-48133000D02*
X98892000Y-48133000D01*
X96901000Y-47371000D02*
X97663000Y-48133000D01*
X97155000Y-48641000D02*
X97663000Y-48133000D01*
X94931000Y-48641000D02*
X97155000Y-48641000D01*
D21*
%TO.N,Net-(D2-Pad2)*%
X94931000Y-66675000D02*
X96520000Y-66675000D01*
X96520000Y-66675000D02*
X97790000Y-65405000D01*
X97790000Y-65405000D02*
X98851000Y-65405000D01*
X94931000Y-65405000D02*
X97790000Y-65405000D01*
%TO.N,Net-(D3-Pad2)*%
X98470000Y-82931000D02*
X98724000Y-83185000D01*
X94931000Y-84201000D02*
X96266000Y-84201000D01*
X96266000Y-84201000D02*
X97536000Y-82931000D01*
X97536000Y-82931000D02*
X98470000Y-82931000D01*
X94931000Y-82931000D02*
X97536000Y-82931000D01*
%TO.N,PWM1*%
X104074000Y-52085000D02*
X104074000Y-51501000D01*
X104074000Y-51501000D02*
X104775000Y-50800000D01*
X128143000Y-47752000D02*
X131064000Y-47752000D01*
X125095000Y-50800000D02*
X128143000Y-47752000D01*
X121920000Y-52705000D02*
X121920000Y-50800000D01*
X121920000Y-50800000D02*
X125095000Y-50800000D01*
X104775000Y-50800000D02*
X121920000Y-50800000D01*
%TO.N,PWM2*%
X127635000Y-67945000D02*
X128524000Y-67056000D01*
X128524000Y-67056000D02*
X131064000Y-67056000D01*
X104074000Y-68646000D02*
X104775000Y-67945000D01*
X104074000Y-69245000D02*
X104074000Y-68646000D01*
X122555000Y-71120000D02*
X122555000Y-67945000D01*
X122555000Y-67945000D02*
X127635000Y-67945000D01*
X104775000Y-67945000D02*
X122555000Y-67945000D01*
%TO.N,PWM3*%
X104074000Y-87645000D02*
X104074000Y-86680000D01*
X104074000Y-86680000D02*
X104521000Y-86233000D01*
X130937000Y-86233000D02*
X131064000Y-86360000D01*
X122555000Y-86360000D02*
X122682000Y-86233000D01*
X122555000Y-90805000D02*
X122555000Y-86360000D01*
X122682000Y-86233000D02*
X130937000Y-86233000D01*
X104521000Y-86233000D02*
X122682000Y-86233000D01*
%TO.N,+3V3*%
X65786000Y-85165000D02*
X67310000Y-86689000D01*
X63500000Y-37592000D02*
X65786000Y-39878000D01*
X40894000Y-37592000D02*
X63500000Y-37592000D01*
X39116000Y-53340000D02*
X39116000Y-39370000D01*
X65786000Y-39878000D02*
X65786000Y-85165000D01*
X39116000Y-39370000D02*
X40894000Y-37592000D01*
X33528000Y-58928000D02*
X39116000Y-53340000D01*
X26416000Y-58928000D02*
X33528000Y-58928000D01*
%TO.N,IO4*%
X26416000Y-61468000D02*
X35306000Y-61468000D01*
X36180000Y-62342000D02*
X36180000Y-63820000D01*
X35306000Y-61468000D02*
X36180000Y-62342000D01*
%TO.N,IO3*%
X26604000Y-63820000D02*
X26416000Y-64008000D01*
X33670000Y-63820000D02*
X26604000Y-63820000D01*
%TO.N,IO2*%
X33670000Y-65720000D02*
X32070000Y-65720000D01*
X31242000Y-66548000D02*
X26416000Y-66548000D01*
X32070000Y-65720000D02*
X31242000Y-66548000D01*
%TO.N,IO1*%
X26416000Y-69088000D02*
X33782000Y-69088000D01*
X36180000Y-66690000D02*
X36180000Y-65720000D01*
X33782000Y-69088000D02*
X36180000Y-66690000D01*
D23*
%TO.N,Current_Sensor_1_AOUT*%
X77980540Y-52355160D02*
X77980540Y-51310540D01*
D21*
X77980540Y-51310540D02*
X77978000Y-51308000D01*
X77978000Y-51308000D02*
X77978000Y-50165000D01*
X78613000Y-49530000D02*
X79817500Y-49530000D01*
X77978000Y-50165000D02*
X78613000Y-49530000D01*
X67310000Y-68909000D02*
X69521000Y-68909000D01*
X69521000Y-68909000D02*
X73660000Y-64770000D01*
X78105000Y-49530000D02*
X79817500Y-49530000D01*
X73660000Y-53975000D02*
X78105000Y-49530000D01*
X74295000Y-53340000D02*
X73660000Y-53975000D01*
X74295000Y-47625000D02*
X74295000Y-53340000D01*
X74930000Y-59055000D02*
X73660000Y-57785000D01*
X76835000Y-59055000D02*
X74930000Y-59055000D01*
X73660000Y-57785000D02*
X73660000Y-53975000D01*
X73660000Y-64770000D02*
X73660000Y-57785000D01*
%TO.N,Current_Sensor_2_AOUT*%
X72696000Y-71449000D02*
X67310000Y-71449000D01*
X75247500Y-68897500D02*
X72696000Y-71449000D01*
X75565000Y-68580000D02*
X75247500Y-68897500D01*
X76073000Y-68072000D02*
X75565000Y-68580000D01*
X77853540Y-68196460D02*
X77978000Y-68072000D01*
X77853540Y-72040160D02*
X77853540Y-68196460D01*
X77978000Y-68072000D02*
X76073000Y-68072000D01*
X79817500Y-68072000D02*
X77978000Y-68072000D01*
X76835000Y-67310000D02*
X76073000Y-68072000D01*
X76835000Y-66675000D02*
X76835000Y-67310000D01*
X74295000Y-73048000D02*
X72696000Y-71449000D01*
X74295000Y-74295000D02*
X74295000Y-73048000D01*
%TO.N,Current_Sensor_3_AOUT*%
X67310000Y-76529000D02*
X70179000Y-76529000D01*
X70179000Y-76529000D02*
X72263000Y-78613000D01*
X72263000Y-78613000D02*
X72263000Y-83820000D01*
X72263000Y-83820000D02*
X73787000Y-85344000D01*
X77599540Y-85473540D02*
X77470000Y-85344000D01*
X77470000Y-85344000D02*
X79817500Y-85344000D01*
X77599540Y-87915160D02*
X77599540Y-85473540D01*
X74295000Y-85725000D02*
X73914000Y-85344000D01*
X74295000Y-87425000D02*
X74295000Y-85725000D01*
X73787000Y-85344000D02*
X73914000Y-85344000D01*
X76200000Y-84963000D02*
X75819000Y-85344000D01*
X76200000Y-81280000D02*
X76200000Y-84963000D01*
X75819000Y-85344000D02*
X77470000Y-85344000D01*
X73914000Y-85344000D02*
X75819000Y-85344000D01*
%TO.N,Net-(R4-Pad2)*%
X82742500Y-49530000D02*
X83947000Y-49530000D01*
X84328000Y-49911000D02*
X89981000Y-49911000D01*
X83947000Y-49530000D02*
X84328000Y-49911000D01*
%TO.N,Net-(R5-Pad2)*%
X82742500Y-68072000D02*
X88265000Y-68072000D01*
X88392000Y-67945000D02*
X89981000Y-67945000D01*
X88265000Y-68072000D02*
X88392000Y-67945000D01*
%TO.N,Net-(R6-Pad2)*%
X82742500Y-85344000D02*
X87757000Y-85344000D01*
X87884000Y-85471000D02*
X89981000Y-85471000D01*
X87757000Y-85344000D02*
X87884000Y-85471000D01*
D24*
%TO.N,+5VD*%
X92075000Y-34036000D02*
X92075000Y-36830000D01*
X92075000Y-36830000D02*
X92075000Y-37719000D01*
D22*
X101219000Y-38546500D02*
X101219000Y-40132000D01*
X96901000Y-49911000D02*
X97155000Y-50165000D01*
X94931000Y-49911000D02*
X96901000Y-49911000D01*
X96901000Y-51181000D02*
X97155000Y-51435000D01*
X94931000Y-51181000D02*
X96901000Y-51181000D01*
X99187000Y-50927000D02*
X99060000Y-50800000D01*
X99187000Y-51865000D02*
X99187000Y-50927000D01*
X88519000Y-51181000D02*
X88265000Y-51435000D01*
X89981000Y-51181000D02*
X88519000Y-51181000D01*
X99187000Y-68072000D02*
X99060000Y-67945000D01*
X99187000Y-69010000D02*
X99187000Y-68072000D01*
D21*
X87884000Y-86741000D02*
X87630000Y-86995000D01*
X89981000Y-86741000D02*
X87884000Y-86741000D01*
X96901000Y-86741000D02*
X97155000Y-86995000D01*
X94931000Y-86741000D02*
X96901000Y-86741000D01*
X96901000Y-85471000D02*
X97155000Y-85725000D01*
X94931000Y-85471000D02*
X96901000Y-85471000D01*
X99187000Y-86487000D02*
X99060000Y-86360000D01*
X99187000Y-87425000D02*
X99187000Y-86487000D01*
D22*
X96363056Y-69215000D02*
X96883064Y-69735008D01*
X94931000Y-69215000D02*
X96363056Y-69215000D01*
X94931000Y-67945000D02*
X96146464Y-67945000D01*
X88150008Y-69215000D02*
X87630000Y-69735008D01*
X96146464Y-67945000D02*
X96236452Y-68034988D01*
X89981000Y-69215000D02*
X88150008Y-69215000D01*
D21*
%TO.N,Net-(C7-Pad1)*%
X102174000Y-52085000D02*
X102174000Y-50861000D01*
X103292000Y-49743000D02*
X103292000Y-48133000D01*
X102174000Y-50861000D02*
X103292000Y-49743000D01*
D22*
X101665500Y-45212000D02*
X102997000Y-45212000D01*
X103292000Y-45507000D02*
X103292000Y-48133000D01*
X102997000Y-45212000D02*
X103292000Y-45507000D01*
D24*
X103292000Y-48133000D02*
X106553000Y-48133000D01*
D21*
X121285000Y-38100000D02*
X121285000Y-42545000D01*
D24*
%TO.N,Net-(C8-Pad1)*%
X101665500Y-62484000D02*
X102489000Y-62484000D01*
X103251000Y-63246000D02*
X103251000Y-65405000D01*
X102489000Y-62484000D02*
X103251000Y-63246000D01*
X103251000Y-65405000D02*
X107315000Y-65405000D01*
X107315000Y-65405000D02*
X106680000Y-65405000D01*
D21*
X121920000Y-57785000D02*
X121920000Y-61595000D01*
X121920000Y-61595000D02*
X122555000Y-61595000D01*
X102174000Y-66482000D02*
X103251000Y-65405000D01*
X102174000Y-69245000D02*
X102174000Y-66482000D01*
%TO.N,Net-(C9-Pad1)*%
X122555000Y-77470000D02*
X122555000Y-80645000D01*
X122555000Y-80645000D02*
X122555000Y-81280000D01*
D24*
X103124000Y-83185000D02*
X106045000Y-83185000D01*
D22*
X101665500Y-80264000D02*
X102489000Y-80264000D01*
X103124000Y-80899000D02*
X103124000Y-83185000D01*
X102489000Y-80264000D02*
X103124000Y-80899000D01*
D21*
X102174000Y-87645000D02*
X102174000Y-85786000D01*
X103124000Y-84836000D02*
X103124000Y-83185000D01*
X102174000Y-85786000D02*
X103124000Y-84836000D01*
D24*
%TO.N,Net-(F1-Pad1)*%
X92075000Y-24765000D02*
X92075000Y-31186000D01*
D22*
%TO.N,Net-(D7-Pad2)*%
X101219000Y-35621500D02*
X101219000Y-33661000D01*
%TD*%
D25*
%TO.N,+5VD*%
X97663000Y-39422606D02*
X97663000Y-41857394D01*
X95197394Y-44323000D01*
X89077800Y-44323000D01*
X86487000Y-41855571D01*
X86487000Y-39422606D01*
X88952606Y-36957000D01*
X95197394Y-36957000D01*
X97663000Y-39422606D01*
%TA.AperFunction,Conductor*%
D26*
G36*
X97663000Y-39422606D02*
G01*
X97663000Y-41857394D01*
X95197394Y-44323000D01*
X89077800Y-44323000D01*
X86487000Y-41855571D01*
X86487000Y-39422606D01*
X88952606Y-36957000D01*
X95197394Y-36957000D01*
X97663000Y-39422606D01*
G37*
%TD.AperFunction*%
%TD*%
D25*
%TO.N,Net-(C7-Pad1)*%
X111284171Y-42052614D02*
X111662161Y-42209182D01*
X112063433Y-42289000D01*
X112472567Y-42289000D01*
X112873839Y-42209182D01*
X113251829Y-42052614D01*
X113275197Y-42037000D01*
X129332757Y-42037000D01*
X129332757Y-43522000D01*
X129349690Y-43693922D01*
X129399838Y-43859237D01*
X129481273Y-44011592D01*
X129493065Y-44025960D01*
X129408934Y-44130659D01*
X129229776Y-44474324D01*
X129129071Y-44806316D01*
X129371585Y-45114000D01*
X130966000Y-45114000D01*
X130966000Y-45094000D01*
X131162000Y-45094000D01*
X131162000Y-45114000D01*
X131182000Y-45114000D01*
X131182000Y-45310000D01*
X131162000Y-45310000D01*
X131162000Y-45330000D01*
X130966000Y-45330000D01*
X130966000Y-45310000D01*
X129371585Y-45310000D01*
X129129071Y-45617684D01*
X129229776Y-45949676D01*
X129408934Y-46293341D01*
X129651695Y-46595451D01*
X129686952Y-46625000D01*
X128198354Y-46625000D01*
X128143000Y-46619548D01*
X128087645Y-46625000D01*
X128087635Y-46625000D01*
X127922069Y-46641307D01*
X127709629Y-46705750D01*
X127513843Y-46810400D01*
X127449749Y-46863000D01*
X126365000Y-46863000D01*
X126340224Y-46865440D01*
X126316399Y-46872667D01*
X126294443Y-46884403D01*
X126275197Y-46900197D01*
X123772394Y-49403000D01*
X105537000Y-49403000D01*
X105537000Y-46412000D01*
X109935547Y-46412000D01*
X109957307Y-46632931D01*
X110021750Y-46845371D01*
X110126400Y-47041157D01*
X110267235Y-47212765D01*
X110438843Y-47353600D01*
X110634629Y-47458250D01*
X110847069Y-47522693D01*
X111068000Y-47544453D01*
X111888250Y-47539000D01*
X112170000Y-47257250D01*
X112170000Y-45310000D01*
X112366000Y-45310000D01*
X112366000Y-47257250D01*
X112647750Y-47539000D01*
X113468000Y-47544453D01*
X113688931Y-47522693D01*
X113901371Y-47458250D01*
X114097157Y-47353600D01*
X114268765Y-47212765D01*
X114409600Y-47041157D01*
X114514250Y-46845371D01*
X114578693Y-46632931D01*
X114600453Y-46412000D01*
X114595000Y-45591750D01*
X114313250Y-45310000D01*
X112366000Y-45310000D01*
X112170000Y-45310000D01*
X110222750Y-45310000D01*
X109941000Y-45591750D01*
X109935547Y-46412000D01*
X105537000Y-46412000D01*
X105537000Y-44012000D01*
X109935547Y-44012000D01*
X109941000Y-44832250D01*
X110222750Y-45114000D01*
X112170000Y-45114000D01*
X112170000Y-43166750D01*
X112366000Y-43166750D01*
X112366000Y-45114000D01*
X114313250Y-45114000D01*
X114595000Y-44832250D01*
X114600453Y-44012000D01*
X114578693Y-43791069D01*
X114514250Y-43578629D01*
X114409600Y-43382843D01*
X114268765Y-43211235D01*
X114097157Y-43070400D01*
X113901371Y-42965750D01*
X113688931Y-42901307D01*
X113468000Y-42879547D01*
X112647750Y-42885000D01*
X112366000Y-43166750D01*
X112170000Y-43166750D01*
X111888250Y-42885000D01*
X111068000Y-42879547D01*
X110847069Y-42901307D01*
X110634629Y-42965750D01*
X110438843Y-43070400D01*
X110267235Y-43211235D01*
X110126400Y-43382843D01*
X110021750Y-43578629D01*
X109957307Y-43791069D01*
X109935547Y-44012000D01*
X105537000Y-44012000D01*
X105537000Y-42037000D01*
X111260803Y-42037000D01*
X111284171Y-42052614D01*
%TA.AperFunction,Conductor*%
D26*
G36*
X111284171Y-42052614D02*
G01*
X111662161Y-42209182D01*
X112063433Y-42289000D01*
X112472567Y-42289000D01*
X112873839Y-42209182D01*
X113251829Y-42052614D01*
X113275197Y-42037000D01*
X129332757Y-42037000D01*
X129332757Y-43522000D01*
X129349690Y-43693922D01*
X129399838Y-43859237D01*
X129481273Y-44011592D01*
X129493065Y-44025960D01*
X129408934Y-44130659D01*
X129229776Y-44474324D01*
X129129071Y-44806316D01*
X129371585Y-45114000D01*
X130966000Y-45114000D01*
X130966000Y-45094000D01*
X131162000Y-45094000D01*
X131162000Y-45114000D01*
X131182000Y-45114000D01*
X131182000Y-45310000D01*
X131162000Y-45310000D01*
X131162000Y-45330000D01*
X130966000Y-45330000D01*
X130966000Y-45310000D01*
X129371585Y-45310000D01*
X129129071Y-45617684D01*
X129229776Y-45949676D01*
X129408934Y-46293341D01*
X129651695Y-46595451D01*
X129686952Y-46625000D01*
X128198354Y-46625000D01*
X128143000Y-46619548D01*
X128087645Y-46625000D01*
X128087635Y-46625000D01*
X127922069Y-46641307D01*
X127709629Y-46705750D01*
X127513843Y-46810400D01*
X127449749Y-46863000D01*
X126365000Y-46863000D01*
X126340224Y-46865440D01*
X126316399Y-46872667D01*
X126294443Y-46884403D01*
X126275197Y-46900197D01*
X123772394Y-49403000D01*
X105537000Y-49403000D01*
X105537000Y-46412000D01*
X109935547Y-46412000D01*
X109957307Y-46632931D01*
X110021750Y-46845371D01*
X110126400Y-47041157D01*
X110267235Y-47212765D01*
X110438843Y-47353600D01*
X110634629Y-47458250D01*
X110847069Y-47522693D01*
X111068000Y-47544453D01*
X111888250Y-47539000D01*
X112170000Y-47257250D01*
X112170000Y-45310000D01*
X112366000Y-45310000D01*
X112366000Y-47257250D01*
X112647750Y-47539000D01*
X113468000Y-47544453D01*
X113688931Y-47522693D01*
X113901371Y-47458250D01*
X114097157Y-47353600D01*
X114268765Y-47212765D01*
X114409600Y-47041157D01*
X114514250Y-46845371D01*
X114578693Y-46632931D01*
X114600453Y-46412000D01*
X114595000Y-45591750D01*
X114313250Y-45310000D01*
X112366000Y-45310000D01*
X112170000Y-45310000D01*
X110222750Y-45310000D01*
X109941000Y-45591750D01*
X109935547Y-46412000D01*
X105537000Y-46412000D01*
X105537000Y-44012000D01*
X109935547Y-44012000D01*
X109941000Y-44832250D01*
X110222750Y-45114000D01*
X112170000Y-45114000D01*
X112170000Y-43166750D01*
X112366000Y-43166750D01*
X112366000Y-45114000D01*
X114313250Y-45114000D01*
X114595000Y-44832250D01*
X114600453Y-44012000D01*
X114578693Y-43791069D01*
X114514250Y-43578629D01*
X114409600Y-43382843D01*
X114268765Y-43211235D01*
X114097157Y-43070400D01*
X113901371Y-42965750D01*
X113688931Y-42901307D01*
X113468000Y-42879547D01*
X112647750Y-42885000D01*
X112366000Y-43166750D01*
X112170000Y-43166750D01*
X111888250Y-42885000D01*
X111068000Y-42879547D01*
X110847069Y-42901307D01*
X110634629Y-42965750D01*
X110438843Y-43070400D01*
X110267235Y-43211235D01*
X110126400Y-43382843D01*
X110021750Y-43578629D01*
X109957307Y-43791069D01*
X109935547Y-44012000D01*
X105537000Y-44012000D01*
X105537000Y-42037000D01*
X111260803Y-42037000D01*
X111284171Y-42052614D01*
G37*
%TD.AperFunction*%
%TD*%
D25*
%TO.N,Net-(C8-Pad1)*%
X110021750Y-61231629D02*
X109957307Y-61444069D01*
X109935547Y-61665000D01*
X109941000Y-62485250D01*
X110222750Y-62767000D01*
X112170000Y-62767000D01*
X112170000Y-62747000D01*
X112366000Y-62747000D01*
X112366000Y-62767000D01*
X114313250Y-62767000D01*
X114595000Y-62485250D01*
X114600453Y-61665000D01*
X114578693Y-61444069D01*
X114514250Y-61231629D01*
X114436944Y-61087000D01*
X129336598Y-61087000D01*
X129332757Y-61126000D01*
X129332757Y-62826000D01*
X129349690Y-62997922D01*
X129399838Y-63163237D01*
X129481273Y-63315592D01*
X129493065Y-63329960D01*
X129408934Y-63434659D01*
X129229776Y-63778324D01*
X129129071Y-64110316D01*
X129371585Y-64418000D01*
X130966000Y-64418000D01*
X130966000Y-64398000D01*
X131162000Y-64398000D01*
X131162000Y-64418000D01*
X131182000Y-64418000D01*
X131182000Y-64614000D01*
X131162000Y-64614000D01*
X131162000Y-64634000D01*
X130966000Y-64634000D01*
X130966000Y-64614000D01*
X129371585Y-64614000D01*
X129129071Y-64921684D01*
X129229776Y-65253676D01*
X129408934Y-65597341D01*
X129651695Y-65899451D01*
X129667861Y-65913000D01*
X127000000Y-65913000D01*
X126975224Y-65915440D01*
X126951399Y-65922667D01*
X126929443Y-65934403D01*
X126910197Y-65950197D01*
X126312394Y-66548000D01*
X105537000Y-66548000D01*
X105537000Y-64065000D01*
X109935547Y-64065000D01*
X109957307Y-64285931D01*
X110021750Y-64498371D01*
X110126400Y-64694157D01*
X110267235Y-64865765D01*
X110438843Y-65006600D01*
X110634629Y-65111250D01*
X110847069Y-65175693D01*
X111068000Y-65197453D01*
X111888250Y-65192000D01*
X112170000Y-64910250D01*
X112170000Y-62963000D01*
X112366000Y-62963000D01*
X112366000Y-64910250D01*
X112647750Y-65192000D01*
X113468000Y-65197453D01*
X113688931Y-65175693D01*
X113901371Y-65111250D01*
X114097157Y-65006600D01*
X114268765Y-64865765D01*
X114409600Y-64694157D01*
X114514250Y-64498371D01*
X114578693Y-64285931D01*
X114600453Y-64065000D01*
X114595000Y-63244750D01*
X114313250Y-62963000D01*
X112366000Y-62963000D01*
X112170000Y-62963000D01*
X110222750Y-62963000D01*
X109941000Y-63244750D01*
X109935547Y-64065000D01*
X105537000Y-64065000D01*
X105537000Y-61087000D01*
X110099056Y-61087000D01*
X110021750Y-61231629D01*
%TA.AperFunction,Conductor*%
D26*
G36*
X110021750Y-61231629D02*
G01*
X109957307Y-61444069D01*
X109935547Y-61665000D01*
X109941000Y-62485250D01*
X110222750Y-62767000D01*
X112170000Y-62767000D01*
X112170000Y-62747000D01*
X112366000Y-62747000D01*
X112366000Y-62767000D01*
X114313250Y-62767000D01*
X114595000Y-62485250D01*
X114600453Y-61665000D01*
X114578693Y-61444069D01*
X114514250Y-61231629D01*
X114436944Y-61087000D01*
X129336598Y-61087000D01*
X129332757Y-61126000D01*
X129332757Y-62826000D01*
X129349690Y-62997922D01*
X129399838Y-63163237D01*
X129481273Y-63315592D01*
X129493065Y-63329960D01*
X129408934Y-63434659D01*
X129229776Y-63778324D01*
X129129071Y-64110316D01*
X129371585Y-64418000D01*
X130966000Y-64418000D01*
X130966000Y-64398000D01*
X131162000Y-64398000D01*
X131162000Y-64418000D01*
X131182000Y-64418000D01*
X131182000Y-64614000D01*
X131162000Y-64614000D01*
X131162000Y-64634000D01*
X130966000Y-64634000D01*
X130966000Y-64614000D01*
X129371585Y-64614000D01*
X129129071Y-64921684D01*
X129229776Y-65253676D01*
X129408934Y-65597341D01*
X129651695Y-65899451D01*
X129667861Y-65913000D01*
X127000000Y-65913000D01*
X126975224Y-65915440D01*
X126951399Y-65922667D01*
X126929443Y-65934403D01*
X126910197Y-65950197D01*
X126312394Y-66548000D01*
X105537000Y-66548000D01*
X105537000Y-64065000D01*
X109935547Y-64065000D01*
X109957307Y-64285931D01*
X110021750Y-64498371D01*
X110126400Y-64694157D01*
X110267235Y-64865765D01*
X110438843Y-65006600D01*
X110634629Y-65111250D01*
X110847069Y-65175693D01*
X111068000Y-65197453D01*
X111888250Y-65192000D01*
X112170000Y-64910250D01*
X112170000Y-62963000D01*
X112366000Y-62963000D01*
X112366000Y-64910250D01*
X112647750Y-65192000D01*
X113468000Y-65197453D01*
X113688931Y-65175693D01*
X113901371Y-65111250D01*
X114097157Y-65006600D01*
X114268765Y-64865765D01*
X114409600Y-64694157D01*
X114514250Y-64498371D01*
X114578693Y-64285931D01*
X114600453Y-64065000D01*
X114595000Y-63244750D01*
X114313250Y-62963000D01*
X112366000Y-62963000D01*
X112170000Y-62963000D01*
X110222750Y-62963000D01*
X109941000Y-63244750D01*
X109935547Y-64065000D01*
X105537000Y-64065000D01*
X105537000Y-61087000D01*
X110099056Y-61087000D01*
X110021750Y-61231629D01*
G37*
%TD.AperFunction*%
%TD*%
D25*
%TO.N,Net-(C9-Pad1)*%
X110021750Y-80281629D02*
X109957307Y-80494069D01*
X109935547Y-80715000D01*
X109941000Y-81535250D01*
X110222750Y-81817000D01*
X112170000Y-81817000D01*
X112170000Y-81797000D01*
X112366000Y-81797000D01*
X112366000Y-81817000D01*
X114313250Y-81817000D01*
X114595000Y-81535250D01*
X114600453Y-80715000D01*
X114578693Y-80494069D01*
X114514250Y-80281629D01*
X114436944Y-80137000D01*
X129386419Y-80137000D01*
X129349690Y-80258078D01*
X129332757Y-80430000D01*
X129332757Y-82130000D01*
X129349690Y-82301922D01*
X129399838Y-82467237D01*
X129481273Y-82619592D01*
X129493065Y-82633960D01*
X129408934Y-82738659D01*
X129229776Y-83082324D01*
X129129071Y-83414316D01*
X129371585Y-83722000D01*
X130966000Y-83722000D01*
X130966000Y-83702000D01*
X131162000Y-83702000D01*
X131162000Y-83722000D01*
X131182000Y-83722000D01*
X131182000Y-83918000D01*
X131162000Y-83918000D01*
X131162000Y-83938000D01*
X130966000Y-83938000D01*
X130966000Y-83918000D01*
X129371585Y-83918000D01*
X129129071Y-84225684D01*
X129229776Y-84557676D01*
X129408934Y-84901341D01*
X129458480Y-84963000D01*
X105537000Y-84963000D01*
X105537000Y-83115000D01*
X109935547Y-83115000D01*
X109957307Y-83335931D01*
X110021750Y-83548371D01*
X110126400Y-83744157D01*
X110267235Y-83915765D01*
X110438843Y-84056600D01*
X110634629Y-84161250D01*
X110847069Y-84225693D01*
X111068000Y-84247453D01*
X111888250Y-84242000D01*
X112170000Y-83960250D01*
X112170000Y-82013000D01*
X112366000Y-82013000D01*
X112366000Y-83960250D01*
X112647750Y-84242000D01*
X113468000Y-84247453D01*
X113688931Y-84225693D01*
X113901371Y-84161250D01*
X114097157Y-84056600D01*
X114268765Y-83915765D01*
X114409600Y-83744157D01*
X114514250Y-83548371D01*
X114578693Y-83335931D01*
X114600453Y-83115000D01*
X114595000Y-82294750D01*
X114313250Y-82013000D01*
X112366000Y-82013000D01*
X112170000Y-82013000D01*
X110222750Y-82013000D01*
X109941000Y-82294750D01*
X109935547Y-83115000D01*
X105537000Y-83115000D01*
X105537000Y-80137000D01*
X110099056Y-80137000D01*
X110021750Y-80281629D01*
%TA.AperFunction,Conductor*%
D26*
G36*
X110021750Y-80281629D02*
G01*
X109957307Y-80494069D01*
X109935547Y-80715000D01*
X109941000Y-81535250D01*
X110222750Y-81817000D01*
X112170000Y-81817000D01*
X112170000Y-81797000D01*
X112366000Y-81797000D01*
X112366000Y-81817000D01*
X114313250Y-81817000D01*
X114595000Y-81535250D01*
X114600453Y-80715000D01*
X114578693Y-80494069D01*
X114514250Y-80281629D01*
X114436944Y-80137000D01*
X129386419Y-80137000D01*
X129349690Y-80258078D01*
X129332757Y-80430000D01*
X129332757Y-82130000D01*
X129349690Y-82301922D01*
X129399838Y-82467237D01*
X129481273Y-82619592D01*
X129493065Y-82633960D01*
X129408934Y-82738659D01*
X129229776Y-83082324D01*
X129129071Y-83414316D01*
X129371585Y-83722000D01*
X130966000Y-83722000D01*
X130966000Y-83702000D01*
X131162000Y-83702000D01*
X131162000Y-83722000D01*
X131182000Y-83722000D01*
X131182000Y-83918000D01*
X131162000Y-83918000D01*
X131162000Y-83938000D01*
X130966000Y-83938000D01*
X130966000Y-83918000D01*
X129371585Y-83918000D01*
X129129071Y-84225684D01*
X129229776Y-84557676D01*
X129408934Y-84901341D01*
X129458480Y-84963000D01*
X105537000Y-84963000D01*
X105537000Y-83115000D01*
X109935547Y-83115000D01*
X109957307Y-83335931D01*
X110021750Y-83548371D01*
X110126400Y-83744157D01*
X110267235Y-83915765D01*
X110438843Y-84056600D01*
X110634629Y-84161250D01*
X110847069Y-84225693D01*
X111068000Y-84247453D01*
X111888250Y-84242000D01*
X112170000Y-83960250D01*
X112170000Y-82013000D01*
X112366000Y-82013000D01*
X112366000Y-83960250D01*
X112647750Y-84242000D01*
X113468000Y-84247453D01*
X113688931Y-84225693D01*
X113901371Y-84161250D01*
X114097157Y-84056600D01*
X114268765Y-83915765D01*
X114409600Y-83744157D01*
X114514250Y-83548371D01*
X114578693Y-83335931D01*
X114600453Y-83115000D01*
X114595000Y-82294750D01*
X114313250Y-82013000D01*
X112366000Y-82013000D01*
X112170000Y-82013000D01*
X110222750Y-82013000D01*
X109941000Y-82294750D01*
X109935547Y-83115000D01*
X105537000Y-83115000D01*
X105537000Y-80137000D01*
X110099056Y-80137000D01*
X110021750Y-80281629D01*
G37*
%TD.AperFunction*%
%TD*%
M02*
