%TF.GenerationSoftware,KiCad,Pcbnew,5.1.10-88a1d61d58~88~ubuntu20.04.1*%
%TF.CreationDate,2021-06-19T14:45:42+02:00*%
%TF.ProjectId,WindowControl,57696e64-6f77-4436-9f6e-74726f6c2e6b,rev?*%
%TF.SameCoordinates,Original*%
%TF.FileFunction,Copper,L2,Inr*%
%TF.FilePolarity,Positive*%
%FSLAX46Y46*%
G04 Gerber Fmt 4.6, Leading zero omitted, Abs format (unit mm)*
G04 Created by KiCad (PCBNEW 5.1.10-88a1d61d58~88~ubuntu20.04.1) date 2021-06-19 14:45:42*
%MOMM*%
%LPD*%
G01*
G04 APERTURE LIST*
%TA.AperFunction,ComponentPad*%
%ADD10R,1.700000X1.700000*%
%TD*%
%TA.AperFunction,ComponentPad*%
%ADD11O,1.700000X1.700000*%
%TD*%
%TA.AperFunction,ComponentPad*%
%ADD12R,1.560000X1.560000*%
%TD*%
%TA.AperFunction,ComponentPad*%
%ADD13C,1.560000*%
%TD*%
%TA.AperFunction,ComponentPad*%
%ADD14R,2.400000X2.400000*%
%TD*%
%TA.AperFunction,ComponentPad*%
%ADD15C,2.400000*%
%TD*%
%TA.AperFunction,ViaPad*%
%ADD16C,0.800000*%
%TD*%
%TA.AperFunction,Conductor*%
%ADD17C,0.500000*%
%TD*%
G04 APERTURE END LIST*
D10*
%TO.N,GND*%
%TO.C,J1*%
X131064000Y-42672000D03*
D11*
%TO.N,Net-(C7-Pad1)*%
X131064000Y-45212000D03*
%TO.N,PWM1*%
X131064000Y-47752000D03*
%TD*%
%TO.N,PWM2*%
%TO.C,J2*%
X131064000Y-67056000D03*
%TO.N,Net-(C8-Pad1)*%
X131064000Y-64516000D03*
D10*
%TO.N,GND*%
X131064000Y-61976000D03*
%TD*%
%TO.N,GND*%
%TO.C,J3*%
X131064000Y-81280000D03*
D11*
%TO.N,Net-(C9-Pad1)*%
X131064000Y-83820000D03*
%TO.N,PWM3*%
X131064000Y-86360000D03*
%TD*%
D10*
%TO.N,GND*%
%TO.C,J4*%
X26416000Y-56388000D03*
D11*
%TO.N,+3V3*%
X26416000Y-58928000D03*
%TO.N,IO4*%
X26416000Y-61468000D03*
%TO.N,IO3*%
X26416000Y-64008000D03*
%TO.N,IO2*%
X26416000Y-66548000D03*
%TO.N,IO1*%
X26416000Y-69088000D03*
%TD*%
D10*
%TO.N,Current_Sensor_1_AOUT*%
%TO.C,A1*%
X76835000Y-59055000D03*
%TD*%
%TO.N,PWM1*%
%TO.C,PWM1*%
X121920000Y-52705000D03*
%TD*%
%TO.N,GND*%
%TO.C,GND*%
X73056750Y-97155000D03*
%TD*%
%TO.N,Current_Sensor_2_AOUT*%
%TO.C,A2*%
X74295000Y-74295000D03*
%TD*%
%TO.N,PWM2*%
%TO.C,PWM2*%
X122555000Y-71120000D03*
%TD*%
%TO.N,GND*%
%TO.C,GND*%
X95202375Y-97155000D03*
%TD*%
%TO.N,Current_Sensor_3_AOUT*%
%TO.C,A3*%
X76200000Y-81280000D03*
%TD*%
%TO.N,PWM3*%
%TO.C,PWM3*%
X122555000Y-90805000D03*
%TD*%
%TO.N,GND*%
%TO.C,GND*%
X117348000Y-97155000D03*
%TD*%
D12*
%TO.N,+3V3*%
%TO.C,U4*%
X67310000Y-86689000D03*
D13*
%TO.N,Net-(U4-Pad2)*%
X67310000Y-84149000D03*
%TO.N,+5V*%
X67310000Y-40969000D03*
%TO.N,Net-(U4-Pad3)*%
X67310000Y-81609000D03*
%TO.N,Net-(U4-Pad4)*%
X67310000Y-79069000D03*
%TO.N,Current_Sensor_3_AOUT*%
X67310000Y-76529000D03*
%TO.N,Net-(U4-Pad6)*%
X67310000Y-73989000D03*
%TO.N,Current_Sensor_2_AOUT*%
X67310000Y-71449000D03*
%TO.N,Current_Sensor_1_AOUT*%
X67310000Y-68909000D03*
%TO.N,PWM3*%
X67310000Y-66369000D03*
%TO.N,PWM2*%
X67310000Y-63829000D03*
%TO.N,PWM1*%
X67310000Y-61289000D03*
%TO.N,Net-(U4-Pad12)*%
X67310000Y-58749000D03*
%TO.N,Net-(U4-Pad13)*%
X67310000Y-56209000D03*
%TO.N,GND*%
X67310000Y-53669000D03*
%TO.N,Net-(U4-Pad15)*%
X67310000Y-51129000D03*
%TO.N,Net-(U4-Pad16)*%
X67310000Y-48589000D03*
%TO.N,Net-(U4-Pad17)*%
X67310000Y-46049000D03*
%TO.N,Net-(U4-Pad18)*%
X67310000Y-43509000D03*
%TO.N,GND*%
X41910000Y-86689000D03*
%TO.N,IO1*%
X41910000Y-84149000D03*
%TO.N,IO2*%
X41910000Y-81609000D03*
%TO.N,Net-(U4-Pad23)*%
X41910000Y-79069000D03*
%TO.N,Net-(U4-Pad24)*%
X41910000Y-76529000D03*
%TO.N,IO3*%
X41910000Y-73989000D03*
%TO.N,GND*%
X41910000Y-71449000D03*
%TO.N,Net-(U4-Pad27)*%
X41910000Y-68909000D03*
%TO.N,IO4*%
X41910000Y-66369000D03*
%TO.N,Net-(U4-Pad29)*%
X41910000Y-63829000D03*
%TO.N,Net-(U4-Pad30)*%
X41910000Y-61289000D03*
%TO.N,Net-(U4-Pad31)*%
X41910000Y-58749000D03*
%TO.N,Net-(U4-Pad32)*%
X41910000Y-56209000D03*
%TO.N,Net-(U4-Pad33)*%
X41910000Y-53669000D03*
%TO.N,Net-(U4-Pad34)*%
X41910000Y-51129000D03*
%TO.N,Net-(U4-Pad35)*%
X41910000Y-48589000D03*
%TO.N,Net-(U4-Pad36)*%
X41910000Y-46049000D03*
%TO.N,Net-(U4-Pad37)*%
X41910000Y-43509000D03*
%TO.N,Net-(U4-Pad38)*%
X41910000Y-40969000D03*
%TD*%
D14*
%TO.N,Net-(C7-Pad1)*%
%TO.C,C7*%
X112268000Y-45212000D03*
D15*
%TO.N,GND*%
X112268000Y-40212000D03*
%TD*%
%TO.N,GND*%
%TO.C,C8*%
X112268000Y-57865000D03*
D14*
%TO.N,Net-(C8-Pad1)*%
X112268000Y-62865000D03*
%TD*%
%TO.N,Net-(C9-Pad1)*%
%TO.C,C9*%
X112268000Y-81915000D03*
D15*
%TO.N,GND*%
X112268000Y-76915000D03*
%TD*%
D10*
%TO.N,Net-(F1-Pad1)*%
%TO.C,J5*%
X92075000Y-24765000D03*
D11*
%TO.N,GND*%
X94615000Y-24765000D03*
%TD*%
D10*
%TO.N,Net-(C8-Pad1)*%
%TO.C,M2_VCC*%
X121920000Y-57785000D03*
%TD*%
%TO.N,Net-(C9-Pad1)*%
%TO.C,M3_VCC*%
X122555000Y-77470000D03*
%TD*%
%TO.N,Net-(C7-Pad1)*%
%TO.C,M1_VCC*%
X121285000Y-38100000D03*
%TD*%
D16*
%TO.N,+5VD*%
X89916000Y-40005000D03*
X91524666Y-40005000D03*
X93133332Y-40005000D03*
X94742000Y-40005000D03*
X89916000Y-41275000D03*
X91524666Y-41275000D03*
X93133332Y-41275000D03*
X94742000Y-41275000D03*
%TO.N,GND*%
X85852000Y-43815000D03*
X88138000Y-46990000D03*
X77978000Y-55372000D03*
X77851000Y-75311000D03*
X77597000Y-91186000D03*
X85852000Y-79248000D03*
X88011000Y-82677000D03*
X88011000Y-64770000D03*
X98679000Y-78359000D03*
X103124000Y-86106000D03*
X97155000Y-45212000D03*
X101219000Y-29083000D03*
X99060000Y-73660000D03*
X99060000Y-56515000D03*
X103505000Y-50800000D03*
X100330000Y-92075000D03*
X97790000Y-91440000D03*
X74295000Y-92075000D03*
X78740000Y-62865000D03*
X74930000Y-62865000D03*
X76200000Y-43815000D03*
X72390000Y-43815000D03*
X85852000Y-62445010D03*
X103191947Y-67699851D03*
X95718703Y-63900799D03*
X31750000Y-64770000D03*
%TO.N,+5VD*%
X89916000Y-38862000D03*
X91524666Y-38862000D03*
X93133332Y-38862000D03*
X94742000Y-38862000D03*
X101219000Y-40132000D03*
X97155000Y-50165000D03*
X97155000Y-51435000D03*
X99060000Y-50800000D03*
X88265000Y-51435000D03*
X99060000Y-67945000D03*
X87630000Y-86995000D03*
X97155000Y-86995000D03*
X97155000Y-85725000D03*
X99060000Y-86360000D03*
X87630000Y-69735008D03*
X96883064Y-69735008D03*
X96236452Y-68034988D03*
%TD*%
D17*
%TO.N,PWM1*%
X130214001Y-48601999D02*
X79997001Y-48601999D01*
X131064000Y-47752000D02*
X130214001Y-48601999D01*
X79997001Y-48601999D02*
X67310000Y-61289000D01*
%TO.N,PWM2*%
X70179000Y-60960000D02*
X67310000Y-63829000D01*
X124968000Y-60960000D02*
X70179000Y-60960000D01*
X131064000Y-67056000D02*
X124968000Y-60960000D01*
%TO.N,PWM3*%
X67639000Y-66040000D02*
X67310000Y-66369000D01*
X103835002Y-66040000D02*
X67639000Y-66040000D01*
X124155002Y-86360000D02*
X103835002Y-66040000D01*
X131064000Y-86360000D02*
X124155002Y-86360000D01*
%TO.N,IO4*%
X26416000Y-61468000D02*
X30480000Y-61468000D01*
X35381000Y-66369000D02*
X41910000Y-66369000D01*
X30480000Y-61468000D02*
X35381000Y-66369000D01*
%TO.N,IO3*%
X37921000Y-73989000D02*
X41910000Y-73989000D01*
X37846000Y-73914000D02*
X37921000Y-73989000D01*
X37592000Y-73914000D02*
X37846000Y-73914000D01*
X27686000Y-64008000D02*
X37592000Y-73914000D01*
X26416000Y-64008000D02*
X27686000Y-64008000D01*
%TO.N,IO2*%
X26416000Y-66548000D02*
X28194000Y-66548000D01*
X28194000Y-66548000D02*
X29718000Y-68072000D01*
X29718000Y-68072000D02*
X29718000Y-74422000D01*
X36905000Y-81609000D02*
X41910000Y-81609000D01*
X29718000Y-74422000D02*
X36905000Y-81609000D01*
%TO.N,IO1*%
X26416000Y-69088000D02*
X26416000Y-73914000D01*
X36651000Y-84149000D02*
X41910000Y-84149000D01*
X26416000Y-73914000D02*
X36651000Y-84149000D01*
%TD*%
M02*
