%TF.GenerationSoftware,KiCad,Pcbnew,5.1.10-88a1d61d58~89~ubuntu20.04.1*%
%TF.CreationDate,2022-01-03T19:31:53+01:00*%
%TF.ProjectId,SOC8,534f4338-2e6b-4696-9361-645f70636258,rev?*%
%TF.SameCoordinates,Original*%
%TF.FileFunction,Legend,Top*%
%TF.FilePolarity,Positive*%
%FSLAX46Y46*%
G04 Gerber Fmt 4.6, Leading zero omitted, Abs format (unit mm)*
G04 Created by KiCad (PCBNEW 5.1.10-88a1d61d58~89~ubuntu20.04.1) date 2022-01-03 19:31:53*
%MOMM*%
%LPD*%
G01*
G04 APERTURE LIST*
%ADD10C,0.400000*%
%ADD11C,0.120000*%
%ADD12C,0.150000*%
G04 APERTURE END LIST*
D10*
X26718000Y-16988333D02*
X26801333Y-16905000D01*
X26968000Y-16821666D01*
X27384666Y-16821666D01*
X27551333Y-16905000D01*
X27634666Y-16988333D01*
X27718000Y-17155000D01*
X27718000Y-17321666D01*
X27634666Y-17571666D01*
X26634666Y-18571666D01*
X27718000Y-18571666D01*
X28801333Y-16821666D02*
X28968000Y-16821666D01*
X29134666Y-16905000D01*
X29218000Y-16988333D01*
X29301333Y-17155000D01*
X29384666Y-17488333D01*
X29384666Y-17905000D01*
X29301333Y-18238333D01*
X29218000Y-18405000D01*
X29134666Y-18488333D01*
X28968000Y-18571666D01*
X28801333Y-18571666D01*
X28634666Y-18488333D01*
X28551333Y-18405000D01*
X28468000Y-18238333D01*
X28384666Y-17905000D01*
X28384666Y-17488333D01*
X28468000Y-17155000D01*
X28551333Y-16988333D01*
X28634666Y-16905000D01*
X28801333Y-16821666D01*
X30051333Y-16988333D02*
X30134666Y-16905000D01*
X30301333Y-16821666D01*
X30718000Y-16821666D01*
X30884666Y-16905000D01*
X30968000Y-16988333D01*
X31051333Y-17155000D01*
X31051333Y-17321666D01*
X30968000Y-17571666D01*
X29968000Y-18571666D01*
X31051333Y-18571666D01*
X31718000Y-16988333D02*
X31801333Y-16905000D01*
X31968000Y-16821666D01*
X32384666Y-16821666D01*
X32551333Y-16905000D01*
X32634666Y-16988333D01*
X32718000Y-17155000D01*
X32718000Y-17321666D01*
X32634666Y-17571666D01*
X31634666Y-18571666D01*
X32718000Y-18571666D01*
X27346999Y-27065000D02*
X27180333Y-26981666D01*
X26930333Y-26981666D01*
X26680333Y-27065000D01*
X26513666Y-27231666D01*
X26430333Y-27398333D01*
X26346999Y-27731666D01*
X26346999Y-27981666D01*
X26430333Y-28315000D01*
X26513666Y-28481666D01*
X26680333Y-28648333D01*
X26930333Y-28731666D01*
X27096999Y-28731666D01*
X27346999Y-28648333D01*
X27430333Y-28565000D01*
X27430333Y-27981666D01*
X27096999Y-27981666D01*
X28430333Y-28731666D02*
X28263666Y-28648333D01*
X28180333Y-28481666D01*
X28180333Y-26981666D01*
X29096999Y-28731666D02*
X29096999Y-27565000D01*
X29096999Y-26981666D02*
X29013666Y-27065000D01*
X29096999Y-27148333D01*
X29180333Y-27065000D01*
X29096999Y-26981666D01*
X29096999Y-27148333D01*
X30596999Y-28648333D02*
X30430333Y-28731666D01*
X30096999Y-28731666D01*
X29930333Y-28648333D01*
X29846999Y-28481666D01*
X29846999Y-27815000D01*
X29930333Y-27648333D01*
X30096999Y-27565000D01*
X30430333Y-27565000D01*
X30596999Y-27648333D01*
X30680333Y-27815000D01*
X30680333Y-27981666D01*
X29846999Y-28148333D01*
X31346999Y-28648333D02*
X31513666Y-28731666D01*
X31846999Y-28731666D01*
X32013666Y-28648333D01*
X32096999Y-28481666D01*
X32096999Y-28398333D01*
X32013666Y-28231666D01*
X31846999Y-28148333D01*
X31596999Y-28148333D01*
X31430333Y-28065000D01*
X31346999Y-27898333D01*
X31346999Y-27815000D01*
X31430333Y-27648333D01*
X31596999Y-27565000D01*
X31846999Y-27565000D01*
X32013666Y-27648333D01*
X33513666Y-28648333D02*
X33347000Y-28731666D01*
X33013666Y-28731666D01*
X32847000Y-28648333D01*
X32763666Y-28481666D01*
X32763666Y-27815000D01*
X32847000Y-27648333D01*
X33013666Y-27565000D01*
X33347000Y-27565000D01*
X33513666Y-27648333D01*
X33597000Y-27815000D01*
X33597000Y-27981666D01*
X32763666Y-28148333D01*
X21964000Y-15948333D02*
X22214000Y-16031666D01*
X22630666Y-16031666D01*
X22797333Y-15948333D01*
X22880666Y-15865000D01*
X22964000Y-15698333D01*
X22964000Y-15531666D01*
X22880666Y-15365000D01*
X22797333Y-15281666D01*
X22630666Y-15198333D01*
X22297333Y-15115000D01*
X22130666Y-15031666D01*
X22047333Y-14948333D01*
X21964000Y-14781666D01*
X21964000Y-14615000D01*
X22047333Y-14448333D01*
X22130666Y-14365000D01*
X22297333Y-14281666D01*
X22714000Y-14281666D01*
X22964000Y-14365000D01*
X24047333Y-14281666D02*
X24380666Y-14281666D01*
X24547333Y-14365000D01*
X24714000Y-14531666D01*
X24797333Y-14865000D01*
X24797333Y-15448333D01*
X24714000Y-15781666D01*
X24547333Y-15948333D01*
X24380666Y-16031666D01*
X24047333Y-16031666D01*
X23880666Y-15948333D01*
X23714000Y-15781666D01*
X23630666Y-15448333D01*
X23630666Y-14865000D01*
X23714000Y-14531666D01*
X23880666Y-14365000D01*
X24047333Y-14281666D01*
X26547333Y-15865000D02*
X26464000Y-15948333D01*
X26214000Y-16031666D01*
X26047333Y-16031666D01*
X25797333Y-15948333D01*
X25630666Y-15781666D01*
X25547333Y-15615000D01*
X25464000Y-15281666D01*
X25464000Y-15031666D01*
X25547333Y-14698333D01*
X25630666Y-14531666D01*
X25797333Y-14365000D01*
X26047333Y-14281666D01*
X26214000Y-14281666D01*
X26464000Y-14365000D01*
X26547333Y-14448333D01*
X27297333Y-15365000D02*
X28630666Y-15365000D01*
X29714000Y-15031666D02*
X29547333Y-14948333D01*
X29464000Y-14865000D01*
X29380666Y-14698333D01*
X29380666Y-14615000D01*
X29464000Y-14448333D01*
X29547333Y-14365000D01*
X29714000Y-14281666D01*
X30047333Y-14281666D01*
X30214000Y-14365000D01*
X30297333Y-14448333D01*
X30380666Y-14615000D01*
X30380666Y-14698333D01*
X30297333Y-14865000D01*
X30214000Y-14948333D01*
X30047333Y-15031666D01*
X29714000Y-15031666D01*
X29547333Y-15115000D01*
X29464000Y-15198333D01*
X29380666Y-15365000D01*
X29380666Y-15698333D01*
X29464000Y-15865000D01*
X29547333Y-15948333D01*
X29714000Y-16031666D01*
X30047333Y-16031666D01*
X30214000Y-15948333D01*
X30297333Y-15865000D01*
X30380666Y-15698333D01*
X30380666Y-15365000D01*
X30297333Y-15198333D01*
X30214000Y-15115000D01*
X30047333Y-15031666D01*
X32214000Y-14281666D02*
X33214000Y-14281666D01*
X32714000Y-16031666D02*
X32714000Y-14281666D01*
X34464000Y-15948333D02*
X34297333Y-16031666D01*
X33964000Y-16031666D01*
X33797333Y-15948333D01*
X33714000Y-15781666D01*
X33714000Y-15115000D01*
X33797333Y-14948333D01*
X33964000Y-14865000D01*
X34297333Y-14865000D01*
X34464000Y-14948333D01*
X34547333Y-15115000D01*
X34547333Y-15281666D01*
X33714000Y-15448333D01*
X35214000Y-15948333D02*
X35380666Y-16031666D01*
X35714000Y-16031666D01*
X35880666Y-15948333D01*
X35964000Y-15781666D01*
X35964000Y-15698333D01*
X35880666Y-15531666D01*
X35714000Y-15448333D01*
X35464000Y-15448333D01*
X35297333Y-15365000D01*
X35214000Y-15198333D01*
X35214000Y-15115000D01*
X35297333Y-14948333D01*
X35464000Y-14865000D01*
X35714000Y-14865000D01*
X35880666Y-14948333D01*
X36464000Y-14865000D02*
X37130666Y-14865000D01*
X36714000Y-14281666D02*
X36714000Y-15781666D01*
X36797333Y-15948333D01*
X36964000Y-16031666D01*
X37130666Y-16031666D01*
X34988666Y-18091666D02*
X35988666Y-18091666D01*
X35488666Y-19841666D02*
X35488666Y-18091666D01*
X36822000Y-18841666D02*
X36655333Y-18758333D01*
X36572000Y-18675000D01*
X36488666Y-18508333D01*
X36488666Y-18425000D01*
X36572000Y-18258333D01*
X36655333Y-18175000D01*
X36822000Y-18091666D01*
X37155333Y-18091666D01*
X37322000Y-18175000D01*
X37405333Y-18258333D01*
X37488666Y-18425000D01*
X37488666Y-18508333D01*
X37405333Y-18675000D01*
X37322000Y-18758333D01*
X37155333Y-18841666D01*
X36822000Y-18841666D01*
X36655333Y-18925000D01*
X36572000Y-19008333D01*
X36488666Y-19175000D01*
X36488666Y-19508333D01*
X36572000Y-19675000D01*
X36655333Y-19758333D01*
X36822000Y-19841666D01*
X37155333Y-19841666D01*
X37322000Y-19758333D01*
X37405333Y-19675000D01*
X37488666Y-19508333D01*
X37488666Y-19175000D01*
X37405333Y-19008333D01*
X37322000Y-18925000D01*
X37155333Y-18841666D01*
X34988666Y-20631666D02*
X35988666Y-20631666D01*
X35488666Y-22381666D02*
X35488666Y-20631666D01*
X36405333Y-20631666D02*
X37572000Y-20631666D01*
X36822000Y-22381666D01*
X34988666Y-23171666D02*
X35988666Y-23171666D01*
X35488666Y-24921666D02*
X35488666Y-23171666D01*
X37322000Y-23171666D02*
X36988666Y-23171666D01*
X36822000Y-23255000D01*
X36738666Y-23338333D01*
X36572000Y-23588333D01*
X36488666Y-23921666D01*
X36488666Y-24588333D01*
X36572000Y-24755000D01*
X36655333Y-24838333D01*
X36822000Y-24921666D01*
X37155333Y-24921666D01*
X37322000Y-24838333D01*
X37405333Y-24755000D01*
X37488666Y-24588333D01*
X37488666Y-24171666D01*
X37405333Y-24005000D01*
X37322000Y-23921666D01*
X37155333Y-23838333D01*
X36822000Y-23838333D01*
X36655333Y-23921666D01*
X36572000Y-24005000D01*
X36488666Y-24171666D01*
X34988666Y-25711666D02*
X35988666Y-25711666D01*
X35488666Y-27461666D02*
X35488666Y-25711666D01*
X37405333Y-25711666D02*
X36572000Y-25711666D01*
X36488666Y-26545000D01*
X36572000Y-26461666D01*
X36738666Y-26378333D01*
X37155333Y-26378333D01*
X37322000Y-26461666D01*
X37405333Y-26545000D01*
X37488666Y-26711666D01*
X37488666Y-27128333D01*
X37405333Y-27295000D01*
X37322000Y-27378333D01*
X37155333Y-27461666D01*
X36738666Y-27461666D01*
X36572000Y-27378333D01*
X36488666Y-27295000D01*
X21780666Y-25965666D02*
X22780666Y-25965666D01*
X22280666Y-27715666D02*
X22280666Y-25965666D01*
X24114000Y-26549000D02*
X24114000Y-27715666D01*
X23697333Y-25882333D02*
X23280666Y-27132333D01*
X24364000Y-27132333D01*
X21780666Y-23425666D02*
X22780666Y-23425666D01*
X22280666Y-25175666D02*
X22280666Y-23425666D01*
X23197333Y-23425666D02*
X24280666Y-23425666D01*
X23697333Y-24092333D01*
X23947333Y-24092333D01*
X24114000Y-24175666D01*
X24197333Y-24259000D01*
X24280666Y-24425666D01*
X24280666Y-24842333D01*
X24197333Y-25009000D01*
X24114000Y-25092333D01*
X23947333Y-25175666D01*
X23447333Y-25175666D01*
X23280666Y-25092333D01*
X23197333Y-25009000D01*
X21780666Y-20885666D02*
X22780666Y-20885666D01*
X22280666Y-22635666D02*
X22280666Y-20885666D01*
X23280666Y-21052333D02*
X23364000Y-20969000D01*
X23530666Y-20885666D01*
X23947333Y-20885666D01*
X24114000Y-20969000D01*
X24197333Y-21052333D01*
X24280666Y-21219000D01*
X24280666Y-21385666D01*
X24197333Y-21635666D01*
X23197333Y-22635666D01*
X24280666Y-22635666D01*
X21780666Y-17837666D02*
X22780666Y-17837666D01*
X22280666Y-19587666D02*
X22280666Y-17837666D01*
X24280666Y-19587666D02*
X23280666Y-19587666D01*
X23780666Y-19587666D02*
X23780666Y-17837666D01*
X23614000Y-18087666D01*
X23447333Y-18254333D01*
X23280666Y-18337666D01*
D11*
%TO.C,J4*%
X42104000Y-28000000D02*
X44764000Y-28000000D01*
X42104000Y-20320000D02*
X42104000Y-28000000D01*
X44764000Y-20320000D02*
X44764000Y-28000000D01*
X42104000Y-20320000D02*
X44764000Y-20320000D01*
X42104000Y-19050000D02*
X42104000Y-17720000D01*
X42104000Y-17720000D02*
X43434000Y-17720000D01*
%TO.C,J3*%
X14418000Y-28000000D02*
X17078000Y-28000000D01*
X14418000Y-20320000D02*
X14418000Y-28000000D01*
X17078000Y-20320000D02*
X17078000Y-28000000D01*
X14418000Y-20320000D02*
X17078000Y-20320000D01*
X14418000Y-19050000D02*
X14418000Y-17720000D01*
X14418000Y-17720000D02*
X15748000Y-17720000D01*
%TO.C,U1*%
X29718000Y-24912000D02*
X31668000Y-24912000D01*
X29718000Y-24912000D02*
X27768000Y-24912000D01*
X29718000Y-19792000D02*
X31668000Y-19792000D01*
X29718000Y-19792000D02*
X26268000Y-19792000D01*
%TO.C,J2*%
X38294000Y-28000000D02*
X40954000Y-28000000D01*
X38294000Y-20320000D02*
X38294000Y-28000000D01*
X40954000Y-20320000D02*
X40954000Y-28000000D01*
X38294000Y-20320000D02*
X40954000Y-20320000D01*
X38294000Y-19050000D02*
X38294000Y-17720000D01*
X38294000Y-17720000D02*
X39624000Y-17720000D01*
%TO.C,J1*%
X18228000Y-28000000D02*
X20888000Y-28000000D01*
X18228000Y-20320000D02*
X18228000Y-28000000D01*
X20888000Y-20320000D02*
X20888000Y-28000000D01*
X18228000Y-20320000D02*
X20888000Y-20320000D01*
X18228000Y-19050000D02*
X18228000Y-17720000D01*
X18228000Y-17720000D02*
X19558000Y-17720000D01*
%TO.C,J4*%
D12*
X43100666Y-16172380D02*
X43100666Y-16886666D01*
X43053047Y-17029523D01*
X42957809Y-17124761D01*
X42814952Y-17172380D01*
X42719714Y-17172380D01*
X44005428Y-16505714D02*
X44005428Y-17172380D01*
X43767333Y-16124761D02*
X43529238Y-16839047D01*
X44148285Y-16839047D01*
%TO.C,J3*%
X15414666Y-16172380D02*
X15414666Y-16886666D01*
X15367047Y-17029523D01*
X15271809Y-17124761D01*
X15128952Y-17172380D01*
X15033714Y-17172380D01*
X15795619Y-16172380D02*
X16414666Y-16172380D01*
X16081333Y-16553333D01*
X16224190Y-16553333D01*
X16319428Y-16600952D01*
X16367047Y-16648571D01*
X16414666Y-16743809D01*
X16414666Y-16981904D01*
X16367047Y-17077142D01*
X16319428Y-17124761D01*
X16224190Y-17172380D01*
X15938476Y-17172380D01*
X15843238Y-17124761D01*
X15795619Y-17077142D01*
%TO.C,U1*%
X32258095Y-25360380D02*
X32258095Y-26169904D01*
X32305714Y-26265142D01*
X32353333Y-26312761D01*
X32448571Y-26360380D01*
X32639047Y-26360380D01*
X32734285Y-26312761D01*
X32781904Y-26265142D01*
X32829523Y-26169904D01*
X32829523Y-25360380D01*
X33829523Y-26360380D02*
X33258095Y-26360380D01*
X33543809Y-26360380D02*
X33543809Y-25360380D01*
X33448571Y-25503238D01*
X33353333Y-25598476D01*
X33258095Y-25646095D01*
%TO.C,J2*%
X39290666Y-16172380D02*
X39290666Y-16886666D01*
X39243047Y-17029523D01*
X39147809Y-17124761D01*
X39004952Y-17172380D01*
X38909714Y-17172380D01*
X39719238Y-16267619D02*
X39766857Y-16220000D01*
X39862095Y-16172380D01*
X40100190Y-16172380D01*
X40195428Y-16220000D01*
X40243047Y-16267619D01*
X40290666Y-16362857D01*
X40290666Y-16458095D01*
X40243047Y-16600952D01*
X39671619Y-17172380D01*
X40290666Y-17172380D01*
%TO.C,J1*%
X19224666Y-16172380D02*
X19224666Y-16886666D01*
X19177047Y-17029523D01*
X19081809Y-17124761D01*
X18938952Y-17172380D01*
X18843714Y-17172380D01*
X20224666Y-17172380D02*
X19653238Y-17172380D01*
X19938952Y-17172380D02*
X19938952Y-16172380D01*
X19843714Y-16315238D01*
X19748476Y-16410476D01*
X19653238Y-16458095D01*
%TD*%
M02*
