%TF.GenerationSoftware,KiCad,Pcbnew,5.1.10-88a1d61d58~89~ubuntu20.04.1*%
%TF.CreationDate,2022-01-03T19:31:53+01:00*%
%TF.ProjectId,SOC8,534f4338-2e6b-4696-9361-645f70636258,rev?*%
%TF.SameCoordinates,Original*%
%TF.FileFunction,Paste,Top*%
%TF.FilePolarity,Positive*%
%FSLAX46Y46*%
G04 Gerber Fmt 4.6, Leading zero omitted, Abs format (unit mm)*
G04 Created by KiCad (PCBNEW 5.1.10-88a1d61d58~89~ubuntu20.04.1) date 2022-01-03 19:31:53*
%MOMM*%
%LPD*%
G01*
G04 APERTURE LIST*
G04 APERTURE END LIST*
%TO.C,U1*%
G36*
G01*
X31218000Y-20597000D02*
X31218000Y-20297000D01*
G75*
G02*
X31368000Y-20147000I150000J0D01*
G01*
X33018000Y-20147000D01*
G75*
G02*
X33168000Y-20297000I0J-150000D01*
G01*
X33168000Y-20597000D01*
G75*
G02*
X33018000Y-20747000I-150000J0D01*
G01*
X31368000Y-20747000D01*
G75*
G02*
X31218000Y-20597000I0J150000D01*
G01*
G37*
G36*
G01*
X31218000Y-21867000D02*
X31218000Y-21567000D01*
G75*
G02*
X31368000Y-21417000I150000J0D01*
G01*
X33018000Y-21417000D01*
G75*
G02*
X33168000Y-21567000I0J-150000D01*
G01*
X33168000Y-21867000D01*
G75*
G02*
X33018000Y-22017000I-150000J0D01*
G01*
X31368000Y-22017000D01*
G75*
G02*
X31218000Y-21867000I0J150000D01*
G01*
G37*
G36*
G01*
X31218000Y-23137000D02*
X31218000Y-22837000D01*
G75*
G02*
X31368000Y-22687000I150000J0D01*
G01*
X33018000Y-22687000D01*
G75*
G02*
X33168000Y-22837000I0J-150000D01*
G01*
X33168000Y-23137000D01*
G75*
G02*
X33018000Y-23287000I-150000J0D01*
G01*
X31368000Y-23287000D01*
G75*
G02*
X31218000Y-23137000I0J150000D01*
G01*
G37*
G36*
G01*
X31218000Y-24407000D02*
X31218000Y-24107000D01*
G75*
G02*
X31368000Y-23957000I150000J0D01*
G01*
X33018000Y-23957000D01*
G75*
G02*
X33168000Y-24107000I0J-150000D01*
G01*
X33168000Y-24407000D01*
G75*
G02*
X33018000Y-24557000I-150000J0D01*
G01*
X31368000Y-24557000D01*
G75*
G02*
X31218000Y-24407000I0J150000D01*
G01*
G37*
G36*
G01*
X26268000Y-24407000D02*
X26268000Y-24107000D01*
G75*
G02*
X26418000Y-23957000I150000J0D01*
G01*
X28068000Y-23957000D01*
G75*
G02*
X28218000Y-24107000I0J-150000D01*
G01*
X28218000Y-24407000D01*
G75*
G02*
X28068000Y-24557000I-150000J0D01*
G01*
X26418000Y-24557000D01*
G75*
G02*
X26268000Y-24407000I0J150000D01*
G01*
G37*
G36*
G01*
X26268000Y-23137000D02*
X26268000Y-22837000D01*
G75*
G02*
X26418000Y-22687000I150000J0D01*
G01*
X28068000Y-22687000D01*
G75*
G02*
X28218000Y-22837000I0J-150000D01*
G01*
X28218000Y-23137000D01*
G75*
G02*
X28068000Y-23287000I-150000J0D01*
G01*
X26418000Y-23287000D01*
G75*
G02*
X26268000Y-23137000I0J150000D01*
G01*
G37*
G36*
G01*
X26268000Y-21867000D02*
X26268000Y-21567000D01*
G75*
G02*
X26418000Y-21417000I150000J0D01*
G01*
X28068000Y-21417000D01*
G75*
G02*
X28218000Y-21567000I0J-150000D01*
G01*
X28218000Y-21867000D01*
G75*
G02*
X28068000Y-22017000I-150000J0D01*
G01*
X26418000Y-22017000D01*
G75*
G02*
X26268000Y-21867000I0J150000D01*
G01*
G37*
G36*
G01*
X26268000Y-20597000D02*
X26268000Y-20297000D01*
G75*
G02*
X26418000Y-20147000I150000J0D01*
G01*
X28068000Y-20147000D01*
G75*
G02*
X28218000Y-20297000I0J-150000D01*
G01*
X28218000Y-20597000D01*
G75*
G02*
X28068000Y-20747000I-150000J0D01*
G01*
X26418000Y-20747000D01*
G75*
G02*
X26268000Y-20597000I0J150000D01*
G01*
G37*
%TD*%
M02*
