%TF.GenerationSoftware,KiCad,Pcbnew,5.1.10-88a1d61d58~89~ubuntu20.04.1*%
%TF.CreationDate,2022-01-03T19:31:53+01:00*%
%TF.ProjectId,SOC8,534f4338-2e6b-4696-9361-645f70636258,rev?*%
%TF.SameCoordinates,Original*%
%TF.FileFunction,Copper,L1,Top*%
%TF.FilePolarity,Positive*%
%FSLAX46Y46*%
G04 Gerber Fmt 4.6, Leading zero omitted, Abs format (unit mm)*
G04 Created by KiCad (PCBNEW 5.1.10-88a1d61d58~89~ubuntu20.04.1) date 2022-01-03 19:31:53*
%MOMM*%
%LPD*%
G01*
G04 APERTURE LIST*
%TA.AperFunction,ComponentPad*%
%ADD10O,1.700000X1.700000*%
%TD*%
%TA.AperFunction,ComponentPad*%
%ADD11R,1.700000X1.700000*%
%TD*%
%TA.AperFunction,Conductor*%
%ADD12C,0.750000*%
%TD*%
%TA.AperFunction,Conductor*%
%ADD13C,0.500000*%
%TD*%
G04 APERTURE END LIST*
D10*
%TO.P,J4,4*%
%TO.N,5*%
X43434000Y-26670000D03*
%TO.P,J4,3*%
%TO.N,6*%
X43434000Y-24130000D03*
%TO.P,J4,2*%
%TO.N,7*%
X43434000Y-21590000D03*
D11*
%TO.P,J4,1*%
%TO.N,8*%
X43434000Y-19050000D03*
%TD*%
D10*
%TO.P,J3,4*%
%TO.N,4*%
X15748000Y-26670000D03*
%TO.P,J3,3*%
%TO.N,3*%
X15748000Y-24130000D03*
%TO.P,J3,2*%
%TO.N,2*%
X15748000Y-21590000D03*
D11*
%TO.P,J3,1*%
%TO.N,1*%
X15748000Y-19050000D03*
%TD*%
%TO.P,U1,8*%
%TO.N,8*%
%TA.AperFunction,SMDPad,CuDef*%
G36*
G01*
X31218000Y-20597000D02*
X31218000Y-20297000D01*
G75*
G02*
X31368000Y-20147000I150000J0D01*
G01*
X33018000Y-20147000D01*
G75*
G02*
X33168000Y-20297000I0J-150000D01*
G01*
X33168000Y-20597000D01*
G75*
G02*
X33018000Y-20747000I-150000J0D01*
G01*
X31368000Y-20747000D01*
G75*
G02*
X31218000Y-20597000I0J150000D01*
G01*
G37*
%TD.AperFunction*%
%TO.P,U1,7*%
%TO.N,7*%
%TA.AperFunction,SMDPad,CuDef*%
G36*
G01*
X31218000Y-21867000D02*
X31218000Y-21567000D01*
G75*
G02*
X31368000Y-21417000I150000J0D01*
G01*
X33018000Y-21417000D01*
G75*
G02*
X33168000Y-21567000I0J-150000D01*
G01*
X33168000Y-21867000D01*
G75*
G02*
X33018000Y-22017000I-150000J0D01*
G01*
X31368000Y-22017000D01*
G75*
G02*
X31218000Y-21867000I0J150000D01*
G01*
G37*
%TD.AperFunction*%
%TO.P,U1,6*%
%TO.N,6*%
%TA.AperFunction,SMDPad,CuDef*%
G36*
G01*
X31218000Y-23137000D02*
X31218000Y-22837000D01*
G75*
G02*
X31368000Y-22687000I150000J0D01*
G01*
X33018000Y-22687000D01*
G75*
G02*
X33168000Y-22837000I0J-150000D01*
G01*
X33168000Y-23137000D01*
G75*
G02*
X33018000Y-23287000I-150000J0D01*
G01*
X31368000Y-23287000D01*
G75*
G02*
X31218000Y-23137000I0J150000D01*
G01*
G37*
%TD.AperFunction*%
%TO.P,U1,5*%
%TO.N,5*%
%TA.AperFunction,SMDPad,CuDef*%
G36*
G01*
X31218000Y-24407000D02*
X31218000Y-24107000D01*
G75*
G02*
X31368000Y-23957000I150000J0D01*
G01*
X33018000Y-23957000D01*
G75*
G02*
X33168000Y-24107000I0J-150000D01*
G01*
X33168000Y-24407000D01*
G75*
G02*
X33018000Y-24557000I-150000J0D01*
G01*
X31368000Y-24557000D01*
G75*
G02*
X31218000Y-24407000I0J150000D01*
G01*
G37*
%TD.AperFunction*%
%TO.P,U1,4*%
%TO.N,4*%
%TA.AperFunction,SMDPad,CuDef*%
G36*
G01*
X26268000Y-24407000D02*
X26268000Y-24107000D01*
G75*
G02*
X26418000Y-23957000I150000J0D01*
G01*
X28068000Y-23957000D01*
G75*
G02*
X28218000Y-24107000I0J-150000D01*
G01*
X28218000Y-24407000D01*
G75*
G02*
X28068000Y-24557000I-150000J0D01*
G01*
X26418000Y-24557000D01*
G75*
G02*
X26268000Y-24407000I0J150000D01*
G01*
G37*
%TD.AperFunction*%
%TO.P,U1,3*%
%TO.N,3*%
%TA.AperFunction,SMDPad,CuDef*%
G36*
G01*
X26268000Y-23137000D02*
X26268000Y-22837000D01*
G75*
G02*
X26418000Y-22687000I150000J0D01*
G01*
X28068000Y-22687000D01*
G75*
G02*
X28218000Y-22837000I0J-150000D01*
G01*
X28218000Y-23137000D01*
G75*
G02*
X28068000Y-23287000I-150000J0D01*
G01*
X26418000Y-23287000D01*
G75*
G02*
X26268000Y-23137000I0J150000D01*
G01*
G37*
%TD.AperFunction*%
%TO.P,U1,2*%
%TO.N,2*%
%TA.AperFunction,SMDPad,CuDef*%
G36*
G01*
X26268000Y-21867000D02*
X26268000Y-21567000D01*
G75*
G02*
X26418000Y-21417000I150000J0D01*
G01*
X28068000Y-21417000D01*
G75*
G02*
X28218000Y-21567000I0J-150000D01*
G01*
X28218000Y-21867000D01*
G75*
G02*
X28068000Y-22017000I-150000J0D01*
G01*
X26418000Y-22017000D01*
G75*
G02*
X26268000Y-21867000I0J150000D01*
G01*
G37*
%TD.AperFunction*%
%TO.P,U1,1*%
%TO.N,1*%
%TA.AperFunction,SMDPad,CuDef*%
G36*
G01*
X26268000Y-20597000D02*
X26268000Y-20297000D01*
G75*
G02*
X26418000Y-20147000I150000J0D01*
G01*
X28068000Y-20147000D01*
G75*
G02*
X28218000Y-20297000I0J-150000D01*
G01*
X28218000Y-20597000D01*
G75*
G02*
X28068000Y-20747000I-150000J0D01*
G01*
X26418000Y-20747000D01*
G75*
G02*
X26268000Y-20597000I0J150000D01*
G01*
G37*
%TD.AperFunction*%
%TD*%
D10*
%TO.P,J2,4*%
%TO.N,5*%
X39624000Y-26670000D03*
%TO.P,J2,3*%
%TO.N,6*%
X39624000Y-24130000D03*
%TO.P,J2,2*%
%TO.N,7*%
X39624000Y-21590000D03*
D11*
%TO.P,J2,1*%
%TO.N,8*%
X39624000Y-19050000D03*
%TD*%
D10*
%TO.P,J1,4*%
%TO.N,4*%
X19558000Y-26670000D03*
%TO.P,J1,3*%
%TO.N,3*%
X19558000Y-24130000D03*
%TO.P,J1,2*%
%TO.N,2*%
X19558000Y-21590000D03*
D11*
%TO.P,J1,1*%
%TO.N,1*%
X19558000Y-19050000D03*
%TD*%
D12*
%TO.N,4*%
X15748000Y-26670000D02*
X19558000Y-26670000D01*
D13*
X27243000Y-24257000D02*
X25527000Y-24257000D01*
X23114000Y-26670000D02*
X19558000Y-26670000D01*
X25527000Y-24257000D02*
X23114000Y-26670000D01*
D12*
%TO.N,3*%
X15748000Y-24130000D02*
X19558000Y-24130000D01*
D13*
X27243000Y-22987000D02*
X24765000Y-22987000D01*
X23622000Y-24130000D02*
X19558000Y-24130000D01*
X24765000Y-22987000D02*
X23622000Y-24130000D01*
D12*
%TO.N,2*%
X15748000Y-21590000D02*
X19558000Y-21590000D01*
D13*
X19685000Y-21717000D02*
X19558000Y-21590000D01*
X27243000Y-21717000D02*
X19685000Y-21717000D01*
D12*
%TO.N,1*%
X15748000Y-19050000D02*
X19558000Y-19050000D01*
D13*
X27243000Y-20447000D02*
X24765000Y-20447000D01*
X23368000Y-19050000D02*
X19558000Y-19050000D01*
X24765000Y-20447000D02*
X23368000Y-19050000D01*
D12*
%TO.N,5*%
X43434000Y-26670000D02*
X39624000Y-26670000D01*
D13*
X32193000Y-24257000D02*
X33655000Y-24257000D01*
X36068000Y-26670000D02*
X39624000Y-26670000D01*
X33655000Y-24257000D02*
X36068000Y-26670000D01*
D12*
%TO.N,6*%
X43434000Y-24130000D02*
X39624000Y-24130000D01*
D13*
X32193000Y-22987000D02*
X34671000Y-22987000D01*
X35814000Y-24130000D02*
X39624000Y-24130000D01*
X34671000Y-22987000D02*
X35814000Y-24130000D01*
D12*
%TO.N,7*%
X43434000Y-21590000D02*
X39624000Y-21590000D01*
D13*
X39497000Y-21717000D02*
X39624000Y-21590000D01*
X32193000Y-21717000D02*
X39497000Y-21717000D01*
D12*
%TO.N,8*%
X43434000Y-19050000D02*
X39624000Y-19050000D01*
D13*
X32193000Y-20447000D02*
X34925000Y-20447000D01*
X36322000Y-19050000D02*
X39624000Y-19050000D01*
X34925000Y-20447000D02*
X36322000Y-19050000D01*
%TD*%
M02*
